%FSLAX24Y24*%
%MOIN*%
G70*
G01*
G75*
G04 Layer_Physical_Order=1*
G04 Layer_Color=255*
%ADD10R,0.0453X0.0571*%
%ADD11R,0.0551X0.0413*%
%ADD12R,0.0413X0.0551*%
%ADD13R,0.0551X0.0374*%
%ADD14O,0.0236X0.0571*%
%ADD15R,0.0374X0.0551*%
%ADD16R,0.0551X0.0354*%
%ADD17R,0.0394X0.0236*%
G04:AMPARAMS|DCode=18|XSize=55mil|YSize=60mil|CornerRadius=13.8mil|HoleSize=0mil|Usage=FLASHONLY|Rotation=90.000|XOffset=0mil|YOffset=0mil|HoleType=Round|Shape=RoundedRectangle|*
%AMROUNDEDRECTD18*
21,1,0.0550,0.0325,0,0,90.0*
21,1,0.0275,0.0600,0,0,90.0*
1,1,0.0275,0.0163,0.0138*
1,1,0.0275,0.0163,-0.0138*
1,1,0.0275,-0.0163,-0.0138*
1,1,0.0275,-0.0163,0.0138*
%
%ADD18ROUNDEDRECTD18*%
G04:AMPARAMS|DCode=19|XSize=39.4mil|YSize=98.4mil|CornerRadius=9.8mil|HoleSize=0mil|Usage=FLASHONLY|Rotation=270.000|XOffset=0mil|YOffset=0mil|HoleType=Round|Shape=RoundedRectangle|*
%AMROUNDEDRECTD19*
21,1,0.0394,0.0787,0,0,270.0*
21,1,0.0197,0.0984,0,0,270.0*
1,1,0.0197,-0.0394,-0.0098*
1,1,0.0197,-0.0394,0.0098*
1,1,0.0197,0.0394,0.0098*
1,1,0.0197,0.0394,-0.0098*
%
%ADD19ROUNDEDRECTD19*%
G04:AMPARAMS|DCode=20|XSize=39.4mil|YSize=98.4mil|CornerRadius=9.8mil|HoleSize=0mil|Usage=FLASHONLY|Rotation=180.000|XOffset=0mil|YOffset=0mil|HoleType=Round|Shape=RoundedRectangle|*
%AMROUNDEDRECTD20*
21,1,0.0394,0.0787,0,0,180.0*
21,1,0.0197,0.0984,0,0,180.0*
1,1,0.0197,-0.0098,0.0394*
1,1,0.0197,0.0098,0.0394*
1,1,0.0197,0.0098,-0.0394*
1,1,0.0197,-0.0098,-0.0394*
%
%ADD20ROUNDEDRECTD20*%
%ADD21R,0.0551X0.0413*%
%ADD22O,0.0236X0.0866*%
%ADD23R,0.0236X0.0394*%
%ADD24C,0.0197*%
%ADD25C,0.0118*%
%ADD26C,0.0315*%
%ADD27C,0.0394*%
%ADD28C,0.0100*%
%ADD29C,0.0295*%
%ADD30C,0.0630*%
%ADD31C,0.0748*%
%ADD32C,0.0551*%
%ADD33C,0.0591*%
G04:AMPARAMS|DCode=34|XSize=59.1mil|YSize=59.1mil|CornerRadius=0mil|HoleSize=0mil|Usage=FLASHONLY|Rotation=90.000|XOffset=0mil|YOffset=0mil|HoleType=Round|Shape=Octagon|*
%AMOCTAGOND34*
4,1,8,0.0148,0.0295,-0.0148,0.0295,-0.0295,0.0148,-0.0295,-0.0148,-0.0148,-0.0295,0.0148,-0.0295,0.0295,-0.0148,0.0295,0.0148,0.0148,0.0295,0.0*
%
%ADD34OCTAGOND34*%

%ADD35C,0.1181*%
%ADD36R,0.0787X0.0787*%
%ADD37C,0.0787*%
%ADD38C,0.2362*%
%ADD39R,0.0591X0.0591*%
%ADD40R,0.0591X0.0591*%
%ADD41R,0.0630X0.0630*%
%ADD42R,0.0591X0.0591*%
%ADD43C,0.0591*%
%ADD44R,0.0630X0.0630*%
%ADD45C,0.0500*%
G36*
X24052Y31936D02*
Y31662D01*
X24007Y31640D01*
X23999Y31645D01*
X23903Y31685D01*
X23850Y31692D01*
Y31300D01*
Y30908D01*
X23903Y30915D01*
X23999Y30955D01*
X24007Y30960D01*
X24052Y30938D01*
Y30550D01*
Y30113D01*
X24015Y30085D01*
X23956Y30008D01*
X23919Y29919D01*
X23906Y29822D01*
X23919Y29726D01*
X23956Y29637D01*
X24015Y29560D01*
X24092Y29501D01*
X24181Y29464D01*
X24278Y29451D01*
X24374Y29464D01*
X24463Y29501D01*
X24540Y29560D01*
X24599Y29637D01*
X24636Y29726D01*
X24649Y29822D01*
X24636Y29919D01*
X24599Y30008D01*
X24540Y30085D01*
X24493Y30121D01*
Y30329D01*
X25896D01*
X25917Y30279D01*
X24309Y28671D01*
X21091D01*
X20921Y28841D01*
Y29024D01*
X21009Y29091D01*
X21078Y29182D01*
X21122Y29287D01*
X21137Y29400D01*
X21122Y29513D01*
X21078Y29618D01*
X21009Y29709D01*
X20921Y29776D01*
Y30150D01*
X20904Y30234D01*
X20856Y30306D01*
X20571Y30591D01*
Y30945D01*
X20573Y30948D01*
X20584Y31004D01*
X20635D01*
X20645Y30955D01*
X20693Y30883D01*
X20765Y30835D01*
X20800Y30828D01*
Y31355D01*
Y31883D01*
X20765Y31876D01*
X20693Y31827D01*
X20645Y31755D01*
X20635Y31706D01*
X20584D01*
X20573Y31762D01*
X20520Y31840D01*
X20442Y31893D01*
X20350Y31911D01*
X20258Y31893D01*
X20180Y31840D01*
X20127Y31762D01*
X20125Y31752D01*
X20075D01*
X20073Y31762D01*
X20020Y31840D01*
X19942Y31893D01*
X19850Y31911D01*
X19758Y31893D01*
X19680Y31840D01*
X19627Y31762D01*
X19625Y31752D01*
X19575D01*
X19573Y31762D01*
X19520Y31840D01*
X19442Y31893D01*
X19350Y31911D01*
X19258Y31893D01*
X19180Y31840D01*
X19127Y31762D01*
X19109Y31670D01*
Y31576D01*
X18736D01*
X18671Y31641D01*
Y31705D01*
X18713Y31737D01*
X18772Y31814D01*
X18809Y31904D01*
X18821Y32000D01*
X18809Y32096D01*
X18772Y32186D01*
X18713Y32263D01*
X18691Y32279D01*
X18708Y32329D01*
X21460D01*
X21485Y32279D01*
X21444Y32227D01*
X21409Y32141D01*
X21404Y32100D01*
X22096D01*
X22091Y32141D01*
X22056Y32227D01*
X22015Y32279D01*
X22040Y32329D01*
X23659D01*
X24052Y31936D01*
D02*
G37*
G36*
X16337Y32303D02*
X16526Y32225D01*
X16725Y32177D01*
X16929Y32161D01*
X17133Y32177D01*
X17332Y32225D01*
X17497Y32293D01*
X17541Y32258D01*
X17529Y32200D01*
Y31450D01*
X17546Y31366D01*
X17594Y31294D01*
X17954Y30934D01*
Y27754D01*
X17906Y27737D01*
X17901Y27745D01*
X17794Y27827D01*
X17669Y27878D01*
X17536Y27896D01*
X17402Y27878D01*
X17278Y27827D01*
X17171Y27745D01*
X17089Y27638D01*
X17037Y27513D01*
X17020Y27380D01*
X17037Y27246D01*
X17089Y27121D01*
X17171Y27014D01*
X17278Y26932D01*
X17402Y26881D01*
X17536Y26863D01*
X17669Y26881D01*
X17794Y26932D01*
X17901Y27014D01*
X17906Y27022D01*
X17954Y27006D01*
Y25576D01*
X17970Y25491D01*
X18018Y25419D01*
X18816Y24622D01*
X18806Y24598D01*
Y24200D01*
Y23824D01*
X18900D01*
Y20362D01*
X18244Y19706D01*
X18196Y19634D01*
X18179Y19550D01*
Y17200D01*
X18196Y17116D01*
X18244Y17044D01*
X18717Y16571D01*
X18788Y16523D01*
X18873Y16506D01*
X20170D01*
X20177Y16468D01*
X20209Y16421D01*
X20182Y16371D01*
X18841D01*
X16921Y18291D01*
Y28305D01*
X16963Y28337D01*
X17022Y28414D01*
X17059Y28504D01*
X17071Y28600D01*
X17059Y28696D01*
X17022Y28786D01*
X16963Y28863D01*
X16886Y28922D01*
X16796Y28959D01*
X16700Y28971D01*
X16604Y28959D01*
X16514Y28922D01*
X16437Y28863D01*
X16378Y28786D01*
X16341Y28696D01*
X16329Y28600D01*
X16341Y28504D01*
X16378Y28414D01*
X16437Y28337D01*
X16479Y28305D01*
Y18200D01*
X16496Y18116D01*
X16544Y18044D01*
X17863Y16725D01*
X17829Y16688D01*
X17695Y16802D01*
X17521Y16909D01*
X17332Y16987D01*
X17133Y17035D01*
X16929Y17051D01*
X16725Y17035D01*
X16526Y16987D01*
X16337Y16909D01*
X16163Y16802D01*
X16008Y16670D01*
X15875Y16514D01*
X15768Y16340D01*
X15690Y16151D01*
X15642Y15952D01*
X15626Y15748D01*
X15642Y15544D01*
X15690Y15345D01*
X15768Y15156D01*
X15875Y14982D01*
X16008Y14827D01*
X16163Y14694D01*
X16337Y14587D01*
X16526Y14509D01*
X16725Y14461D01*
X16929Y14445D01*
X17133Y14461D01*
X17332Y14509D01*
X17521Y14587D01*
X17695Y14694D01*
X17851Y14827D01*
X17983Y14982D01*
X18090Y15156D01*
X18169Y15345D01*
X18216Y15544D01*
X18232Y15748D01*
X18216Y15952D01*
X18169Y16151D01*
X18090Y16340D01*
X17983Y16514D01*
X17869Y16648D01*
X17906Y16682D01*
X18594Y15994D01*
X18666Y15946D01*
X18750Y15929D01*
X21900D01*
X21984Y15946D01*
X22056Y15994D01*
X22104Y16066D01*
X22121Y16150D01*
Y16465D01*
X22123Y16468D01*
X22125Y16478D01*
X22175D01*
X22177Y16468D01*
X22230Y16390D01*
X22308Y16337D01*
X22400Y16319D01*
X22492Y16337D01*
X22570Y16390D01*
X22603Y16438D01*
X22665Y16445D01*
X22679Y16429D01*
Y15841D01*
X22459Y15621D01*
X19600D01*
X19516Y15604D01*
X19444Y15556D01*
X19244Y15356D01*
X19196Y15284D01*
X19179Y15200D01*
Y14999D01*
X19006D01*
Y14389D01*
X19794D01*
Y14999D01*
X19621D01*
Y15109D01*
X19691Y15179D01*
X22550D01*
X22634Y15196D01*
X22706Y15244D01*
X23056Y15594D01*
X23104Y15666D01*
X23121Y15750D01*
Y16465D01*
X23123Y16468D01*
X23134Y16524D01*
X23185D01*
X23195Y16475D01*
X23243Y16403D01*
X23315Y16354D01*
X23350Y16347D01*
Y16727D01*
Y17107D01*
X23315Y17100D01*
X23243Y17052D01*
X23195Y16980D01*
X23185Y16930D01*
X23134D01*
X23123Y16987D01*
X23070Y17065D01*
X22992Y17117D01*
X22900Y17135D01*
X22808Y17117D01*
X22730Y17065D01*
X22697Y17016D01*
X22635Y17010D01*
X22621Y17025D01*
Y17350D01*
X22604Y17434D01*
X22556Y17506D01*
X22356Y17706D01*
X22284Y17754D01*
X22200Y17771D01*
X21600D01*
X21516Y17754D01*
X21444Y17706D01*
X21244Y17506D01*
X21196Y17434D01*
X21179Y17350D01*
Y16989D01*
X21177Y16987D01*
X21175Y16977D01*
X21125D01*
X21123Y16987D01*
X21070Y17065D01*
X20992Y17117D01*
X20900Y17135D01*
X20808Y17117D01*
X20730Y17065D01*
X20677Y16987D01*
X20675Y16977D01*
X20625D01*
X20623Y16987D01*
X20570Y17065D01*
X20492Y17117D01*
X20400Y17135D01*
X20308Y17117D01*
X20230Y17065D01*
X20177Y16987D01*
X20170Y16948D01*
X18964D01*
X18621Y17291D01*
Y19459D01*
X19277Y20114D01*
X19324Y20186D01*
X19341Y20270D01*
Y22186D01*
X19391Y22217D01*
X19454Y22191D01*
X19550Y22179D01*
X19646Y22191D01*
X19736Y22228D01*
X19813Y22287D01*
X19872Y22364D01*
X19909Y22454D01*
X19921Y22550D01*
X19909Y22646D01*
X19872Y22736D01*
X19813Y22813D01*
X19736Y22872D01*
X19731Y22874D01*
Y23806D01*
X19849D01*
Y24594D01*
X19764D01*
Y24832D01*
X19786D01*
Y25379D01*
X20250D01*
X20301Y25389D01*
X20351Y25352D01*
Y25346D01*
X20475D01*
Y20037D01*
X20244Y19806D01*
X20196Y19734D01*
X20179Y19650D01*
Y19135D01*
X20177Y19132D01*
X20159Y19040D01*
Y18706D01*
X20175Y18626D01*
Y18525D01*
X19744D01*
Y18629D01*
X18956D01*
Y17980D01*
X19744D01*
Y18084D01*
X20396D01*
X20480Y18100D01*
X20552Y18148D01*
X20600Y18220D01*
X20616Y18304D01*
Y18604D01*
X20623Y18613D01*
X20634Y18670D01*
X20685D01*
X20695Y18620D01*
X20743Y18548D01*
X20815Y18500D01*
X20850Y18493D01*
Y18873D01*
Y19253D01*
X20815Y19246D01*
X20743Y19197D01*
X20695Y19125D01*
X20685Y19076D01*
X20634D01*
X20623Y19132D01*
X20621Y19135D01*
Y19559D01*
X20791Y19729D01*
X23659D01*
X23979Y19409D01*
Y17300D01*
X23996Y17216D01*
X24044Y17144D01*
X24644Y16544D01*
X24716Y16496D01*
X24800Y16479D01*
X27000D01*
X27084Y16496D01*
X27156Y16544D01*
X27550Y16938D01*
X27598Y17009D01*
X27614Y17094D01*
Y17706D01*
X27699D01*
Y18379D01*
X31079D01*
Y17699D01*
X30906D01*
Y17089D01*
X31511D01*
X31531Y17042D01*
X31400Y16911D01*
X30906D01*
Y16301D01*
X31079D01*
Y14777D01*
X30991Y14709D01*
X30922Y14618D01*
X30878Y14513D01*
X30863Y14400D01*
X30878Y14287D01*
X30922Y14182D01*
X30991Y14091D01*
X31082Y14022D01*
X31187Y13978D01*
X31300Y13963D01*
X31413Y13978D01*
X31518Y14022D01*
X31609Y14091D01*
X31678Y14182D01*
X31722Y14287D01*
X31737Y14400D01*
X31722Y14513D01*
X31678Y14618D01*
X31609Y14709D01*
X31521Y14777D01*
Y16301D01*
X31694D01*
Y16695D01*
X31818Y16819D01*
X32756D01*
Y16251D01*
X32929D01*
Y15791D01*
X32644Y15506D01*
X32596Y15434D01*
X32579Y15350D01*
Y14765D01*
X32534Y14743D01*
X32509Y14763D01*
X32408Y14804D01*
X32350Y14812D01*
Y14400D01*
Y13988D01*
X32408Y13996D01*
X32509Y14038D01*
X32534Y14057D01*
X32579Y14035D01*
Y13900D01*
X32596Y13816D01*
X32621Y13778D01*
D01*
X32622Y13777D01*
X32640Y13746D01*
X32624Y13723D01*
X32609Y13714D01*
X32576Y13734D01*
X32574Y13736D01*
D01*
X32518Y13778D01*
X32413Y13822D01*
X32300Y13837D01*
X32187Y13822D01*
X32082Y13778D01*
X31991Y13709D01*
X31922Y13618D01*
X31878Y13513D01*
X31863Y13400D01*
X31878Y13287D01*
X31922Y13182D01*
X31991Y13091D01*
X32082Y13022D01*
X32187Y12978D01*
X32300Y12963D01*
X32413Y12978D01*
X32518Y13022D01*
X32609Y13091D01*
X32678Y13182D01*
X32722Y13287D01*
X32737Y13400D01*
X32722Y13513D01*
X32678Y13618D01*
X32639Y13669D01*
X32639Y13669D01*
X32635Y13675D01*
X32625Y13718D01*
X32628Y13721D01*
X32674Y13714D01*
X32682Y13706D01*
X32878Y13510D01*
X32863Y13400D01*
X32878Y13287D01*
X32922Y13182D01*
X32991Y13091D01*
X33082Y13022D01*
X33187Y12978D01*
X33300Y12963D01*
X33413Y12978D01*
X33518Y13022D01*
X33609Y13091D01*
X33678Y13182D01*
X33722Y13287D01*
X33737Y13400D01*
X33722Y13513D01*
X33678Y13618D01*
X33609Y13709D01*
X33518Y13778D01*
X33413Y13822D01*
X33300Y13837D01*
X33190Y13822D01*
X33044Y13968D01*
X33047Y13985D01*
X33054Y13993D01*
X33102Y14013D01*
X33187Y13978D01*
X33300Y13963D01*
X33413Y13978D01*
X33518Y14022D01*
X33547Y14044D01*
X33592Y14015D01*
X33579Y13950D01*
X33596Y13866D01*
X33644Y13794D01*
X33892Y13546D01*
X33878Y13513D01*
X33863Y13400D01*
X33878Y13287D01*
X33922Y13182D01*
X33991Y13091D01*
X34082Y13022D01*
X34187Y12978D01*
X34300Y12963D01*
X34413Y12978D01*
X34518Y13022D01*
X34609Y13091D01*
X34678Y13182D01*
X34722Y13287D01*
X34737Y13400D01*
X34722Y13513D01*
X34678Y13618D01*
X34609Y13709D01*
X34518Y13778D01*
X34413Y13822D01*
X34300Y13837D01*
X34234Y13828D01*
X34104Y13958D01*
X34132Y14001D01*
X34187Y13978D01*
X34300Y13963D01*
X34413Y13978D01*
X34518Y14022D01*
X34609Y14091D01*
X34678Y14182D01*
X34722Y14287D01*
X34737Y14400D01*
X34722Y14513D01*
X34678Y14618D01*
X34609Y14709D01*
X34561Y14746D01*
X34558Y14796D01*
X34641Y14879D01*
X35239D01*
X35242Y14829D01*
X35187Y14822D01*
X35082Y14778D01*
X34991Y14709D01*
X34922Y14618D01*
X34878Y14513D01*
X34863Y14400D01*
X34878Y14287D01*
X34922Y14182D01*
X34991Y14091D01*
X35082Y14022D01*
X35187Y13978D01*
X35300Y13963D01*
X35413Y13978D01*
X35518Y14022D01*
X35609Y14091D01*
X35678Y14182D01*
X35722Y14287D01*
X35737Y14400D01*
X35722Y14513D01*
X35678Y14618D01*
X35609Y14709D01*
X35518Y14778D01*
X35413Y14822D01*
X35358Y14829D01*
X35361Y14879D01*
X35500D01*
X35584Y14896D01*
X35656Y14944D01*
X36256Y15544D01*
X36304Y15616D01*
X36321Y15700D01*
Y16251D01*
X36494D01*
Y16819D01*
X36706D01*
Y16251D01*
X36879D01*
Y14341D01*
X36159Y13621D01*
X35676D01*
X35609Y13709D01*
X35518Y13778D01*
X35413Y13822D01*
X35300Y13837D01*
X35187Y13822D01*
X35082Y13778D01*
X34991Y13709D01*
X34922Y13618D01*
X34878Y13513D01*
X34863Y13400D01*
X34878Y13287D01*
X34922Y13182D01*
X34991Y13091D01*
X35082Y13022D01*
X35187Y12978D01*
X35300Y12963D01*
X35413Y12978D01*
X35518Y13022D01*
X35609Y13091D01*
X35676Y13179D01*
X36250D01*
X36335Y13196D01*
X36406Y13244D01*
X37256Y14094D01*
X37304Y14166D01*
X37321Y14250D01*
Y16251D01*
X37494D01*
Y16819D01*
X37550D01*
X37619Y16833D01*
X37678Y16872D01*
X37928Y17122D01*
X37969Y17094D01*
X37943Y17032D01*
X37932Y16950D01*
Y13682D01*
X37018Y12768D01*
X27382D01*
X27218Y12932D01*
Y13718D01*
X27582Y14082D01*
X28003D01*
X28082Y14022D01*
X28187Y13978D01*
X28300Y13963D01*
X28413Y13978D01*
X28518Y14022D01*
X28609Y14091D01*
X28678Y14182D01*
X28722Y14287D01*
X28737Y14400D01*
X28722Y14513D01*
X28678Y14618D01*
X28609Y14709D01*
X28518Y14778D01*
X28413Y14822D01*
X28300Y14837D01*
X28187Y14822D01*
X28082Y14778D01*
X28003Y14718D01*
X27450D01*
X27368Y14707D01*
X27291Y14675D01*
X27225Y14625D01*
X26675Y14075D01*
X26625Y14009D01*
X26593Y13932D01*
X26582Y13850D01*
Y12800D01*
X26593Y12718D01*
X26625Y12641D01*
X26675Y12575D01*
X27025Y12225D01*
X27091Y12175D01*
X27168Y12143D01*
X27250Y12132D01*
X37150D01*
X37232Y12143D01*
X37309Y12175D01*
X37375Y12225D01*
X38154Y13005D01*
X38200Y12985D01*
Y12000D01*
X16200D01*
X15150Y13050D01*
Y31300D01*
X16200Y32350D01*
X16261D01*
X16337Y32303D01*
D02*
G37*
G36*
X19629Y30910D02*
Y30391D01*
X19544Y30306D01*
X19496Y30234D01*
X19479Y30150D01*
Y29776D01*
X19391Y29709D01*
X19322Y29618D01*
X19278Y29513D01*
X19263Y29400D01*
X19278Y29287D01*
X19322Y29182D01*
X19391Y29091D01*
X19479Y29024D01*
Y28450D01*
X19496Y28366D01*
X19544Y28294D01*
X19944Y27894D01*
X20016Y27846D01*
X20100Y27829D01*
X24550D01*
X24634Y27846D01*
X24706Y27894D01*
X26791Y29979D01*
X35009D01*
X35179Y29809D01*
Y25050D01*
X35196Y24966D01*
X35244Y24894D01*
X35436Y24702D01*
X35429Y24650D01*
X35441Y24554D01*
X35478Y24464D01*
X35537Y24387D01*
X35614Y24328D01*
X35704Y24291D01*
X35800Y24279D01*
X35896Y24291D01*
X35986Y24328D01*
X36063Y24387D01*
X36122Y24464D01*
X36159Y24554D01*
X36171Y24650D01*
X36159Y24746D01*
X36122Y24836D01*
X36063Y24913D01*
X35986Y24972D01*
X35896Y25009D01*
X35800Y25021D01*
X35748Y25014D01*
X35621Y25141D01*
Y25242D01*
X35671Y25259D01*
X35687Y25237D01*
X35764Y25178D01*
X35854Y25141D01*
X35950Y25129D01*
X36046Y25141D01*
X36129Y25176D01*
X36179Y25157D01*
Y24950D01*
X36196Y24866D01*
X36244Y24794D01*
X36329Y24709D01*
Y24495D01*
X36287Y24463D01*
X36228Y24386D01*
X36191Y24296D01*
X36179Y24200D01*
X36191Y24104D01*
X36228Y24014D01*
X36287Y23937D01*
X36364Y23878D01*
X36454Y23841D01*
X36550Y23829D01*
X36646Y23841D01*
X36736Y23878D01*
X36813Y23937D01*
X36872Y24014D01*
X36909Y24104D01*
X36921Y24200D01*
X36909Y24296D01*
X36872Y24386D01*
X36813Y24463D01*
X36771Y24495D01*
Y24800D01*
X36754Y24884D01*
X36706Y24956D01*
X36652Y25010D01*
X36653Y25014D01*
X36707Y25031D01*
X37086Y24652D01*
X37079Y24600D01*
X37091Y24504D01*
X37128Y24414D01*
X37187Y24337D01*
X37264Y24278D01*
X37354Y24241D01*
X37450Y24229D01*
X37546Y24241D01*
X37636Y24278D01*
X37713Y24337D01*
X37772Y24414D01*
X37809Y24504D01*
X37821Y24600D01*
X37809Y24696D01*
X37772Y24786D01*
X37713Y24863D01*
X37636Y24922D01*
X37546Y24959D01*
X37450Y24971D01*
X37398Y24964D01*
X36971Y25391D01*
Y25442D01*
X37021Y25459D01*
X37037Y25437D01*
X37114Y25378D01*
X37204Y25341D01*
X37300Y25329D01*
X37396Y25341D01*
X37486Y25378D01*
X37563Y25437D01*
X37622Y25514D01*
X37659Y25604D01*
X37671Y25700D01*
X37659Y25796D01*
X37622Y25886D01*
X37563Y25963D01*
X37539Y25981D01*
X37536Y26030D01*
X40025Y28519D01*
X40238D01*
X40262Y28475D01*
X40262Y28469D01*
X40187Y28413D01*
X40128Y28336D01*
X40091Y28246D01*
X40079Y28150D01*
X40091Y28054D01*
X40128Y27964D01*
X40187Y27887D01*
X40264Y27828D01*
X40354Y27791D01*
X40450Y27779D01*
X40546Y27791D01*
X40636Y27828D01*
X40713Y27887D01*
X40772Y27964D01*
X40774Y27969D01*
X41525D01*
X41869Y27625D01*
Y23525D01*
X41175Y22831D01*
X40374D01*
X40372Y22836D01*
X40313Y22913D01*
X40236Y22972D01*
X40146Y23009D01*
X40050Y23021D01*
X39954Y23009D01*
X39864Y22972D01*
X39787Y22913D01*
X39728Y22836D01*
X39691Y22746D01*
X39679Y22650D01*
X39691Y22554D01*
X39728Y22464D01*
X39787Y22387D01*
X39864Y22328D01*
X39954Y22291D01*
X40050Y22279D01*
X40146Y22291D01*
X40236Y22328D01*
X40313Y22387D01*
X40372Y22464D01*
X40374Y22469D01*
X41250D01*
X41319Y22483D01*
X41378Y22522D01*
X42023Y23168D01*
X42069Y23149D01*
Y19125D01*
X41725Y18781D01*
X38950D01*
X38881Y18767D01*
X38822Y18728D01*
X37672Y17578D01*
X37633Y17519D01*
X37619Y17450D01*
Y17325D01*
X37540Y17245D01*
X37494Y17264D01*
Y17649D01*
X37321D01*
Y17931D01*
X37494D01*
Y18419D01*
X37950D01*
X38019Y18433D01*
X38078Y18472D01*
X38778Y19172D01*
X38817Y19231D01*
X38831Y19300D01*
Y20723D01*
X39956D01*
Y20639D01*
X40744D01*
Y21249D01*
X39956D01*
Y21164D01*
X38871D01*
Y23251D01*
X38882Y23266D01*
X38909Y23331D01*
X38918Y23400D01*
X38918Y23400D01*
Y25989D01*
X39261Y26332D01*
X39585D01*
X39649Y26249D01*
X39752Y26170D01*
X39859Y26126D01*
X39859Y26126D01*
Y26074D01*
X39859Y26074D01*
X39752Y26030D01*
X39649Y25951D01*
X39570Y25848D01*
X39521Y25728D01*
X39504Y25600D01*
X39521Y25472D01*
X39570Y25352D01*
X39649Y25249D01*
X39752Y25170D01*
X39872Y25121D01*
X39905Y25116D01*
X39905Y25066D01*
X39876Y25062D01*
X39761Y25014D01*
X39662Y24938D01*
X39586Y24839D01*
X39538Y24724D01*
X39528Y24650D01*
X40472D01*
X40462Y24724D01*
X40414Y24839D01*
X40338Y24938D01*
X40239Y25014D01*
X40124Y25062D01*
X40095Y25066D01*
X40095Y25116D01*
X40128Y25121D01*
X40248Y25170D01*
X40351Y25249D01*
X40430Y25352D01*
X40479Y25472D01*
X40496Y25600D01*
X40479Y25728D01*
X40430Y25848D01*
X40351Y25951D01*
X40248Y26030D01*
X40141Y26074D01*
X40141Y26074D01*
Y26126D01*
X40141Y26126D01*
X40248Y26170D01*
X40351Y26249D01*
X40430Y26352D01*
X40479Y26472D01*
X40496Y26600D01*
X40479Y26728D01*
X40430Y26848D01*
X40351Y26951D01*
X40248Y27030D01*
X40128Y27079D01*
X40000Y27096D01*
X39872Y27079D01*
X39752Y27030D01*
X39649Y26951D01*
X39585Y26868D01*
X39150D01*
X39150Y26868D01*
X39089Y26860D01*
X39081Y26859D01*
X39066Y26853D01*
X39016Y26832D01*
X38977Y26802D01*
X38960Y26790D01*
X38960Y26790D01*
X38460Y26290D01*
X38418Y26234D01*
X38410Y26215D01*
X38391Y26169D01*
X38387Y26135D01*
X38382Y26100D01*
X38382Y26100D01*
Y23693D01*
X33136D01*
X32918Y23911D01*
Y24406D01*
X33520D01*
Y25194D01*
X33057D01*
X33007Y25245D01*
X33009Y25250D01*
X33021Y25346D01*
X33009Y25442D01*
X32972Y25529D01*
X32997Y25553D01*
X33041Y25611D01*
X33068Y25678D01*
X33078Y25750D01*
Y25808D01*
X33122Y25864D01*
X33159Y25954D01*
X33171Y26050D01*
X33159Y26146D01*
X33122Y26236D01*
X33063Y26313D01*
X33023Y26343D01*
X33019Y26409D01*
X33081Y26471D01*
X33544D01*
Y27120D01*
X32756D01*
Y26657D01*
X32685Y26586D01*
X32672Y26578D01*
X32633Y26519D01*
X32619Y26450D01*
Y26374D01*
X32614Y26372D01*
X32537Y26313D01*
X32478Y26236D01*
X32441Y26146D01*
X32429Y26050D01*
X32433Y26016D01*
X32400Y25978D01*
X31942D01*
X31886Y26022D01*
X31796Y26059D01*
X31700Y26071D01*
X31604Y26059D01*
X31514Y26022D01*
X31437Y25963D01*
X31378Y25886D01*
X31341Y25796D01*
X31329Y25700D01*
X31341Y25604D01*
X31378Y25514D01*
X31437Y25437D01*
X31452Y25426D01*
X31436Y25379D01*
X31306D01*
Y24730D01*
X32094D01*
Y25379D01*
X32094Y25379D01*
X32094D01*
X32094Y25379D01*
X32111Y25422D01*
X32251D01*
X32284Y25384D01*
X32279Y25346D01*
X32291Y25250D01*
X32328Y25160D01*
X32382Y25090D01*
Y23800D01*
X32382Y23800D01*
X32387Y23765D01*
X32391Y23731D01*
X32410Y23685D01*
X32418Y23666D01*
X32460Y23610D01*
X32800Y23271D01*
X32779Y23221D01*
X29841D01*
X29690Y23373D01*
X29722Y23414D01*
X29759Y23504D01*
X29771Y23600D01*
X29759Y23696D01*
X29722Y23786D01*
X29663Y23863D01*
X29586Y23922D01*
X29496Y23959D01*
X29400Y23971D01*
X29304Y23959D01*
X29214Y23922D01*
X29137Y23863D01*
X29078Y23786D01*
X29041Y23696D01*
X28993Y23704D01*
Y26161D01*
X29036Y26178D01*
X29113Y26237D01*
X29172Y26314D01*
X29209Y26404D01*
X29221Y26500D01*
X29209Y26596D01*
X29172Y26686D01*
X29113Y26763D01*
X29036Y26822D01*
X28946Y26859D01*
X28850Y26871D01*
X28754Y26859D01*
X28681Y26828D01*
X28631Y26853D01*
Y27976D01*
X28636Y27978D01*
X28713Y28037D01*
X28772Y28114D01*
X28809Y28204D01*
X28821Y28300D01*
X28809Y28396D01*
X28772Y28486D01*
X28713Y28563D01*
X28636Y28622D01*
X28546Y28659D01*
X28450Y28671D01*
X28354Y28659D01*
X28264Y28622D01*
X28187Y28563D01*
X28128Y28486D01*
X28091Y28396D01*
X28079Y28300D01*
X28091Y28204D01*
X28128Y28114D01*
X28187Y28037D01*
X28264Y27978D01*
X28269Y27976D01*
Y22750D01*
X28283Y22681D01*
X28322Y22622D01*
X28772Y22172D01*
X28831Y22133D01*
X28900Y22119D01*
X31180D01*
X31204Y22069D01*
X31178Y22036D01*
X31156Y21981D01*
X22324D01*
X22322Y21986D01*
X22263Y22063D01*
X22186Y22122D01*
X22096Y22159D01*
X22000Y22171D01*
X21904Y22159D01*
X21814Y22122D01*
X21737Y22063D01*
X21678Y21986D01*
X21641Y21896D01*
X21629Y21800D01*
X21641Y21704D01*
X21678Y21614D01*
X21737Y21537D01*
X21814Y21478D01*
X21904Y21441D01*
X22000Y21429D01*
X22096Y21441D01*
X22186Y21478D01*
X22263Y21537D01*
X22322Y21614D01*
X22324Y21619D01*
X25138D01*
X25143Y21569D01*
X25066Y21554D01*
X24994Y21506D01*
X24694Y21206D01*
X24646Y21134D01*
X24629Y21050D01*
Y20995D01*
X24587Y20963D01*
X24528Y20886D01*
X24491Y20796D01*
X24479Y20700D01*
X24491Y20604D01*
X24528Y20514D01*
X24587Y20437D01*
X24629Y20405D01*
Y19400D01*
X24646Y19316D01*
X24694Y19244D01*
X25994Y17944D01*
X26066Y17896D01*
X26150Y17879D01*
X26301D01*
Y17706D01*
X26911D01*
Y18494D01*
X26301D01*
Y18321D01*
X26241D01*
X25071Y19491D01*
Y20405D01*
X25113Y20437D01*
X25172Y20514D01*
X25209Y20604D01*
X25221Y20700D01*
X25209Y20796D01*
X25172Y20886D01*
X25113Y20963D01*
X25110Y20998D01*
X25241Y21129D01*
X25623D01*
X25633Y21079D01*
X25614Y21072D01*
X25537Y21013D01*
X25478Y20936D01*
X25441Y20846D01*
X25429Y20750D01*
X25441Y20654D01*
X25478Y20564D01*
X25537Y20487D01*
X25579Y20455D01*
Y19300D01*
X25596Y19216D01*
X25644Y19144D01*
X25894Y18894D01*
X25966Y18846D01*
X26050Y18829D01*
X26301D01*
Y18656D01*
X26911D01*
Y19444D01*
X26301D01*
Y19271D01*
X26141D01*
X26021Y19391D01*
Y20455D01*
X26063Y20487D01*
X26095Y20529D01*
X30550D01*
X30634Y20546D01*
X30706Y20594D01*
X30748Y20636D01*
X30800Y20629D01*
X30896Y20641D01*
X30986Y20678D01*
X31063Y20737D01*
X31122Y20814D01*
X31159Y20904D01*
X31171Y21000D01*
X31159Y21096D01*
X31122Y21186D01*
X31063Y21263D01*
X30986Y21322D01*
X30896Y21359D01*
X30800Y21371D01*
X30704Y21359D01*
X30614Y21322D01*
X30537Y21263D01*
X30478Y21186D01*
X30441Y21096D01*
X30429Y21000D01*
X30403Y20971D01*
X29977D01*
X29967Y21021D01*
X29986Y21028D01*
X30063Y21087D01*
X30122Y21164D01*
X30159Y21254D01*
X30171Y21350D01*
X30159Y21446D01*
X30122Y21536D01*
X30096Y21569D01*
X30120Y21619D01*
X31213D01*
X31237Y21587D01*
X31314Y21528D01*
X31404Y21491D01*
X31500Y21479D01*
X31596Y21491D01*
X31686Y21528D01*
X31763Y21587D01*
X31822Y21664D01*
X31859Y21754D01*
X31871Y21850D01*
X31859Y21946D01*
X31822Y22036D01*
X31796Y22069D01*
X31820Y22119D01*
X35975D01*
X36740Y21354D01*
X36707Y21317D01*
X36636Y21372D01*
X36546Y21409D01*
X36450Y21421D01*
X36354Y21409D01*
X36264Y21372D01*
X36187Y21313D01*
X36128Y21236D01*
X36091Y21146D01*
X36079Y21050D01*
X36091Y20954D01*
X36128Y20864D01*
X36187Y20787D01*
X36264Y20728D01*
X36354Y20691D01*
X36450Y20679D01*
X36508Y20686D01*
X36919Y20275D01*
Y19269D01*
X36706D01*
Y18781D01*
X36494D01*
Y19269D01*
X36281D01*
Y20300D01*
X36267Y20369D01*
X36228Y20428D01*
X35742Y20914D01*
X35759Y20954D01*
X35771Y21050D01*
X35759Y21146D01*
X35722Y21236D01*
X35663Y21313D01*
X35586Y21372D01*
X35496Y21409D01*
X35400Y21421D01*
X35304Y21409D01*
X35214Y21372D01*
X35137Y21313D01*
X35078Y21236D01*
X35041Y21146D01*
X35029Y21050D01*
X35041Y20954D01*
X35078Y20864D01*
X35137Y20787D01*
X35214Y20728D01*
X35304Y20691D01*
X35400Y20679D01*
X35458Y20686D01*
X35919Y20225D01*
Y19269D01*
X35706D01*
Y18781D01*
X35494D01*
Y19269D01*
X35281D01*
Y20250D01*
X35267Y20319D01*
X35228Y20378D01*
X34692Y20914D01*
X34709Y20954D01*
X34721Y21050D01*
X34709Y21146D01*
X34672Y21236D01*
X34613Y21313D01*
X34536Y21372D01*
X34446Y21409D01*
X34350Y21421D01*
X34254Y21409D01*
X34164Y21372D01*
X34087Y21313D01*
X34028Y21236D01*
X33991Y21146D01*
X33979Y21050D01*
X33991Y20954D01*
X34028Y20864D01*
X34087Y20787D01*
X34164Y20728D01*
X34254Y20691D01*
X34350Y20679D01*
X34408Y20686D01*
X34919Y20175D01*
Y19269D01*
X34706D01*
Y18781D01*
X34494D01*
Y19269D01*
X34281D01*
Y20300D01*
X34267Y20369D01*
X34228Y20428D01*
X33707Y20949D01*
X33709Y20954D01*
X33721Y21050D01*
X33709Y21146D01*
X33672Y21236D01*
X33613Y21313D01*
X33536Y21372D01*
X33446Y21409D01*
X33350Y21421D01*
X33254Y21409D01*
X33164Y21372D01*
X33087Y21313D01*
X33028Y21236D01*
X32991Y21146D01*
X32984Y21092D01*
X32931Y21074D01*
X32858Y21147D01*
X32822Y21236D01*
X32763Y21313D01*
X32686Y21372D01*
X32596Y21409D01*
X32500Y21421D01*
X32404Y21409D01*
X32314Y21372D01*
X32237Y21313D01*
X32178Y21236D01*
X32141Y21146D01*
X32129Y21050D01*
X32141Y20954D01*
X32178Y20864D01*
X32237Y20787D01*
X32314Y20728D01*
X32404Y20691D01*
X32500Y20679D01*
X32596Y20691D01*
X32686Y20728D01*
X32731Y20763D01*
X32969Y20525D01*
Y19269D01*
X32756D01*
Y18781D01*
X31419D01*
X31384Y18804D01*
X31300Y18821D01*
X27699D01*
Y19381D01*
X27713Y19392D01*
X27772Y19469D01*
X27809Y19558D01*
X27821Y19654D01*
X27809Y19750D01*
X27772Y19840D01*
X27713Y19917D01*
X27636Y19976D01*
X27546Y20013D01*
X27450Y20026D01*
X27354Y20013D01*
X27264Y19976D01*
X27187Y19917D01*
X27128Y19840D01*
X27091Y19750D01*
X27079Y19654D01*
X27091Y19558D01*
X27118Y19494D01*
X27089Y19444D01*
X27089D01*
X27089Y19444D01*
Y18656D01*
X27173D01*
Y18650D01*
Y18494D01*
X27089D01*
Y17706D01*
X27173D01*
Y17185D01*
X26909Y16921D01*
X24891D01*
X24421Y17391D01*
Y19500D01*
X24404Y19584D01*
X24356Y19656D01*
X23906Y20106D01*
X23834Y20154D01*
X23750Y20171D01*
X20916D01*
Y25311D01*
X20952Y25346D01*
X21010D01*
X21040Y25346D01*
X21050D01*
X21060D01*
X21090Y25346D01*
X21184D01*
Y24999D01*
X21142Y24967D01*
X21083Y24890D01*
X21046Y24800D01*
X21033Y24704D01*
X21046Y24608D01*
X21083Y24519D01*
X21142Y24442D01*
X21219Y24383D01*
X21308Y24346D01*
X21404Y24333D01*
X21500Y24346D01*
X21590Y24383D01*
X21667Y24442D01*
X21726Y24519D01*
X21763Y24608D01*
X21776Y24704D01*
X21763Y24800D01*
X21726Y24890D01*
X21667Y24967D01*
X21625Y24999D01*
Y25346D01*
X21749D01*
Y26154D01*
X21090D01*
X21060Y26154D01*
X21050D01*
X21040D01*
X21010Y26154D01*
X20351D01*
Y25961D01*
X20316Y25954D01*
X20244Y25906D01*
X20206Y25869D01*
X20160Y25888D01*
Y26198D01*
X20250Y26288D01*
X20298Y26359D01*
X20314Y26444D01*
Y26456D01*
X20399D01*
Y26629D01*
X21148D01*
X21214Y26578D01*
X21304Y26541D01*
X21400Y26529D01*
X21496Y26541D01*
X21586Y26578D01*
X21663Y26637D01*
X21722Y26714D01*
X21759Y26804D01*
X21771Y26900D01*
X21759Y26996D01*
X21722Y27086D01*
X21663Y27163D01*
X21586Y27222D01*
X21496Y27259D01*
X21400Y27271D01*
X21304Y27259D01*
X21214Y27222D01*
X21137Y27163D01*
X21078Y27086D01*
X21072Y27071D01*
X20399D01*
Y27244D01*
X19789D01*
Y26456D01*
X19789Y26456D01*
X19772Y26434D01*
X19768Y26430D01*
X19726Y26368D01*
X19688D01*
Y25918D01*
X19642Y25899D01*
X19412Y26129D01*
Y26300D01*
X19462Y26350D01*
X19510Y26422D01*
X19517Y26456D01*
X19611D01*
Y27244D01*
X19527D01*
Y27694D01*
X19510Y27778D01*
X19462Y27850D01*
X18921Y28391D01*
Y28967D01*
X19133D01*
Y29833D01*
X18966D01*
X18945Y29883D01*
X19506Y30444D01*
X19554Y30516D01*
X19571Y30600D01*
Y30899D01*
X19621Y30919D01*
X19629Y30910D01*
D02*
G37*
G36*
X61848Y38502D02*
X61845Y38452D01*
X56584D01*
X56502Y38441D01*
X56425Y38409D01*
X56360Y38359D01*
X55675Y37675D01*
X55625Y37609D01*
X55593Y37532D01*
X55584Y37462D01*
X55388D01*
Y36438D01*
X55658D01*
X55668Y36388D01*
X55651Y36381D01*
X55548Y36302D01*
X55469Y36199D01*
X55419Y36079D01*
X55409Y36000D01*
X56391D01*
X56381Y36079D01*
X56331Y36199D01*
X56252Y36302D01*
X56149Y36381D01*
X56132Y36388D01*
X56142Y36438D01*
X56412D01*
Y37462D01*
X56412Y37462D01*
X56412D01*
X56408Y37508D01*
X56716Y37817D01*
X60367D01*
Y37324D01*
X60329Y37294D01*
X59680D01*
Y36506D01*
X60329D01*
X60367Y36476D01*
Y36223D01*
X60365Y36215D01*
Y35428D01*
X60382Y35343D01*
X60430Y35272D01*
X60501Y35224D01*
X60586Y35207D01*
X60783D01*
X60867Y35224D01*
X60939Y35272D01*
X60987Y35343D01*
X61003Y35428D01*
Y36215D01*
X61002Y36223D01*
Y36934D01*
Y37817D01*
X61850D01*
Y31550D01*
Y31450D01*
X60550Y30150D01*
X60311Y29911D01*
X60284Y29914D01*
X60266Y29967D01*
X60909Y30610D01*
X60959Y30675D01*
X60991Y30752D01*
X61002Y30834D01*
Y31877D01*
X61003Y31885D01*
Y32672D01*
X60987Y32757D01*
X60939Y32828D01*
X60867Y32876D01*
X60783Y32893D01*
X60586D01*
X60501Y32876D01*
X60430Y32828D01*
X60382Y32757D01*
X60365Y32672D01*
Y31885D01*
X60367Y31877D01*
Y30966D01*
X59301Y29900D01*
X54570D01*
Y30021D01*
X54982Y30432D01*
X58200D01*
X58282Y30443D01*
X58359Y30475D01*
X58425Y30525D01*
X58940Y31041D01*
X58969Y31078D01*
X58991Y31107D01*
X59000Y31129D01*
X59023Y31184D01*
X59033Y31266D01*
Y31877D01*
X59035Y31885D01*
Y32672D01*
X59018Y32757D01*
X58970Y32828D01*
X58899Y32876D01*
X58814Y32893D01*
X58617D01*
X58533Y32876D01*
X58461Y32828D01*
X58413Y32757D01*
X58397Y32672D01*
Y31885D01*
X58398Y31877D01*
Y31397D01*
X58068Y31068D01*
X54850D01*
X54768Y31057D01*
X54691Y31025D01*
X54625Y30975D01*
X54028Y30377D01*
X53978Y30312D01*
X53946Y30235D01*
X53935Y30153D01*
Y29900D01*
X45200D01*
Y19600D01*
X43325Y17725D01*
X43275D01*
X43122Y17878D01*
X43125Y17925D01*
X44825Y19625D01*
X44875Y19691D01*
X44907Y19768D01*
X44918Y19850D01*
Y23059D01*
X44922Y23064D01*
X44959Y23154D01*
X44971Y23250D01*
X44959Y23346D01*
X44922Y23436D01*
X44863Y23513D01*
X44786Y23572D01*
X44696Y23609D01*
X44600Y23621D01*
X44504Y23609D01*
X44414Y23572D01*
X44337Y23513D01*
X44278Y23436D01*
X44241Y23346D01*
X44229Y23250D01*
X44241Y23154D01*
X44278Y23064D01*
X44282Y23059D01*
Y19982D01*
X42768Y18468D01*
X41994D01*
X41973Y18518D01*
X42378Y18922D01*
X42417Y18981D01*
X42431Y19050D01*
Y28100D01*
X42417Y28169D01*
X42378Y28228D01*
X41778Y28828D01*
X41719Y28867D01*
X41650Y28881D01*
X39950D01*
X39881Y28867D01*
X39822Y28828D01*
X37172Y26178D01*
X37133Y26119D01*
X37119Y26050D01*
Y26024D01*
X37114Y26022D01*
X37037Y25963D01*
X37021Y25941D01*
X36971Y25958D01*
Y30300D01*
X36954Y30384D01*
X36906Y30456D01*
X35906Y31456D01*
X35834Y31504D01*
X35750Y31521D01*
X26252D01*
X26195Y31595D01*
X26108Y31661D01*
X26008Y31703D01*
X25900Y31717D01*
X25792Y31703D01*
X25692Y31661D01*
X25605Y31595D01*
X25539Y31508D01*
X25497Y31408D01*
X25483Y31300D01*
X25497Y31192D01*
X25539Y31092D01*
X25605Y31005D01*
X25692Y30939D01*
X25792Y30897D01*
X25900Y30883D01*
X25904Y30884D01*
X25927Y30839D01*
X25859Y30771D01*
X24493D01*
Y31119D01*
X24543Y31128D01*
X24555Y31101D01*
X24618Y31018D01*
X24701Y30955D01*
X24797Y30915D01*
X24850Y30908D01*
Y31300D01*
Y31692D01*
X24797Y31685D01*
X24701Y31645D01*
X24618Y31582D01*
X24555Y31499D01*
X24543Y31472D01*
X24493Y31481D01*
Y32028D01*
X24476Y32112D01*
X24429Y32184D01*
X24308Y32304D01*
X24328Y32350D01*
X25500D01*
Y33200D01*
X26900Y34600D01*
X27450Y35150D01*
Y39200D01*
X61150D01*
X61848Y38502D01*
D02*
G37*
%LPC*%
G36*
X16256Y21220D02*
X15814D01*
Y20779D01*
X15893Y20789D01*
X16013Y20839D01*
X16116Y20918D01*
X16195Y21021D01*
X16245Y21142D01*
X16256Y21220D01*
D02*
G37*
G36*
X23600Y23446D02*
X23559Y23441D01*
X23473Y23406D01*
X23400Y23350D01*
X23344Y23277D01*
X23309Y23191D01*
X23304Y23150D01*
X23600D01*
Y23446D01*
D02*
G37*
G36*
X15714Y21762D02*
X15635Y21751D01*
X15515Y21702D01*
X15412Y21623D01*
X15333Y21519D01*
X15283Y21399D01*
X15273Y21320D01*
X15714D01*
Y21762D01*
D02*
G37*
G36*
X23700Y23446D02*
Y23150D01*
X23996D01*
X23991Y23191D01*
X23956Y23277D01*
X23900Y23350D01*
X23827Y23406D01*
X23741Y23441D01*
X23700Y23446D01*
D02*
G37*
G36*
X17536Y21787D02*
X17402Y21769D01*
X17278Y21718D01*
X17171Y21636D01*
X17089Y21529D01*
X17037Y21404D01*
X17020Y21270D01*
X17037Y21137D01*
X17089Y21012D01*
X17171Y20905D01*
X17278Y20823D01*
X17402Y20772D01*
X17536Y20754D01*
X17669Y20772D01*
X17794Y20823D01*
X17901Y20905D01*
X17983Y21012D01*
X18034Y21137D01*
X18052Y21270D01*
X18034Y21404D01*
X17983Y21529D01*
X17901Y21636D01*
X17794Y21718D01*
X17669Y21769D01*
X17536Y21787D01*
D02*
G37*
G36*
X15714Y21220D02*
X15273D01*
X15283Y21142D01*
X15333Y21021D01*
X15412Y20918D01*
X15515Y20839D01*
X15635Y20789D01*
X15714Y20779D01*
Y21220D01*
D02*
G37*
G36*
X23600Y23050D02*
X23304D01*
X23309Y23009D01*
X23344Y22923D01*
X23400Y22850D01*
X23473Y22794D01*
X23559Y22759D01*
X23600Y22754D01*
Y23050D01*
D02*
G37*
G36*
X23996D02*
X23700D01*
Y22754D01*
X23741Y22759D01*
X23827Y22794D01*
X23900Y22850D01*
X23956Y22923D01*
X23991Y23009D01*
X23996Y23050D01*
D02*
G37*
G36*
X42900Y23300D02*
X42604D01*
X42609Y23259D01*
X42644Y23173D01*
X42700Y23100D01*
X42773Y23044D01*
X42859Y23009D01*
X42900Y23004D01*
Y23300D01*
D02*
G37*
G36*
X15814Y21762D02*
Y21320D01*
X16256D01*
X16245Y21399D01*
X16195Y21519D01*
X16116Y21623D01*
X16013Y21702D01*
X15893Y21751D01*
X15814Y21762D01*
D02*
G37*
G36*
X40472Y24550D02*
X39528D01*
X39538Y24476D01*
X39586Y24361D01*
X39662Y24262D01*
X39761Y24186D01*
X39876Y24138D01*
X39905Y24134D01*
X39905Y24084D01*
X39872Y24079D01*
X39752Y24030D01*
X39649Y23951D01*
X39570Y23848D01*
X39521Y23728D01*
X39504Y23600D01*
X39521Y23472D01*
X39570Y23352D01*
X39649Y23249D01*
X39752Y23170D01*
X39872Y23121D01*
X40000Y23104D01*
X40128Y23121D01*
X40248Y23170D01*
X40351Y23249D01*
X40430Y23352D01*
X40479Y23472D01*
X40496Y23600D01*
X40479Y23728D01*
X40430Y23848D01*
X40351Y23951D01*
X40248Y24030D01*
X40128Y24079D01*
X40095Y24084D01*
X40095Y24134D01*
X40124Y24138D01*
X40239Y24186D01*
X40338Y24262D01*
X40414Y24361D01*
X40462Y24476D01*
X40472Y24550D01*
D02*
G37*
G36*
X43296Y23300D02*
X43000D01*
Y23004D01*
X43041Y23009D01*
X43127Y23044D01*
X43200Y23100D01*
X43256Y23173D01*
X43291Y23259D01*
X43296Y23300D01*
D02*
G37*
G36*
X21900Y19281D02*
X21808Y19263D01*
X21730Y19210D01*
X21677Y19132D01*
X21666Y19076D01*
X21615D01*
X21605Y19125D01*
X21557Y19197D01*
X21485Y19246D01*
X21450Y19253D01*
Y18873D01*
Y18493D01*
X21485Y18500D01*
X21557Y18548D01*
X21605Y18620D01*
X21615Y18670D01*
X21666D01*
X21677Y18613D01*
X21730Y18535D01*
X21808Y18483D01*
X21900Y18465D01*
X21992Y18483D01*
X22070Y18535D01*
X22123Y18613D01*
X22134Y18670D01*
X22185D01*
X22195Y18620D01*
X22243Y18548D01*
X22315Y18500D01*
X22350Y18493D01*
Y18873D01*
Y19253D01*
X22315Y19246D01*
X22243Y19197D01*
X22195Y19125D01*
X22185Y19076D01*
X22134D01*
X22123Y19132D01*
X22070Y19210D01*
X21992Y19263D01*
X21900Y19281D01*
D02*
G37*
G36*
X23400D02*
X23308Y19263D01*
X23230Y19210D01*
X23177Y19132D01*
X23166Y19076D01*
X23115D01*
X23105Y19125D01*
X23057Y19197D01*
X22985Y19246D01*
X22950Y19253D01*
Y18873D01*
Y18493D01*
X22985Y18500D01*
X23057Y18548D01*
X23105Y18620D01*
X23115Y18670D01*
X23166D01*
X23177Y18613D01*
X23230Y18535D01*
X23308Y18483D01*
X23400Y18465D01*
X23492Y18483D01*
X23570Y18535D01*
X23623Y18613D01*
X23641Y18706D01*
Y19040D01*
X23623Y19132D01*
X23570Y19210D01*
X23492Y19263D01*
X23400Y19281D01*
D02*
G37*
G36*
X17550Y19646D02*
X17509Y19641D01*
X17423Y19606D01*
X17350Y19550D01*
X17294Y19477D01*
X17259Y19391D01*
X17254Y19350D01*
X17550D01*
Y19646D01*
D02*
G37*
G36*
X16096Y19300D02*
X15800D01*
Y19004D01*
X15841Y19009D01*
X15927Y19044D01*
X16000Y19100D01*
X16056Y19173D01*
X16091Y19259D01*
X16096Y19300D01*
D02*
G37*
G36*
X17550Y19250D02*
X17254D01*
X17259Y19209D01*
X17294Y19123D01*
X17350Y19050D01*
X17423Y18994D01*
X17509Y18959D01*
X17550Y18954D01*
Y19250D01*
D02*
G37*
G36*
X17946D02*
X17650D01*
Y18954D01*
X17691Y18959D01*
X17777Y18994D01*
X17850Y19050D01*
X17906Y19123D01*
X17941Y19209D01*
X17946Y19250D01*
D02*
G37*
G36*
X15700Y19300D02*
X15404D01*
X15409Y19259D01*
X15444Y19173D01*
X15500Y19100D01*
X15573Y19044D01*
X15659Y19009D01*
X15700Y19004D01*
Y19300D01*
D02*
G37*
G36*
X23996Y20650D02*
X23700D01*
Y20354D01*
X23741Y20359D01*
X23827Y20394D01*
X23900Y20450D01*
X23956Y20523D01*
X23991Y20609D01*
X23996Y20650D01*
D02*
G37*
G36*
X23600Y21046D02*
X23559Y21041D01*
X23473Y21006D01*
X23400Y20950D01*
X23344Y20877D01*
X23309Y20791D01*
X23304Y20750D01*
X23600D01*
Y21046D01*
D02*
G37*
G36*
X23700D02*
Y20750D01*
X23996D01*
X23991Y20791D01*
X23956Y20877D01*
X23900Y20950D01*
X23827Y21006D01*
X23741Y21041D01*
X23700Y21046D01*
D02*
G37*
G36*
X23600Y20650D02*
X23304D01*
X23309Y20609D01*
X23344Y20523D01*
X23400Y20450D01*
X23473Y20394D01*
X23559Y20359D01*
X23600Y20354D01*
Y20650D01*
D02*
G37*
G36*
X17650Y19646D02*
Y19350D01*
X17946D01*
X17941Y19391D01*
X17906Y19477D01*
X17850Y19550D01*
X17777Y19606D01*
X17691Y19641D01*
X17650Y19646D01*
D02*
G37*
G36*
X15700Y19696D02*
X15659Y19691D01*
X15573Y19656D01*
X15500Y19600D01*
X15444Y19527D01*
X15409Y19441D01*
X15404Y19400D01*
X15700D01*
Y19696D01*
D02*
G37*
G36*
X15800D02*
Y19400D01*
X16096D01*
X16091Y19441D01*
X16056Y19527D01*
X16000Y19600D01*
X15927Y19656D01*
X15841Y19691D01*
X15800Y19696D01*
D02*
G37*
G36*
X17536Y25337D02*
X17402Y25319D01*
X17278Y25268D01*
X17171Y25186D01*
X17089Y25079D01*
X17037Y24954D01*
X17020Y24820D01*
X17037Y24687D01*
X17089Y24562D01*
X17171Y24455D01*
X17278Y24373D01*
X17334Y24350D01*
Y24300D01*
X17278Y24277D01*
X17171Y24195D01*
X17089Y24088D01*
X17037Y23963D01*
X17020Y23830D01*
X17037Y23696D01*
X17089Y23571D01*
X17171Y23464D01*
X17278Y23382D01*
X17402Y23331D01*
X17536Y23313D01*
X17669Y23331D01*
X17794Y23382D01*
X17901Y23464D01*
X17983Y23571D01*
X18034Y23696D01*
X18052Y23830D01*
X18034Y23963D01*
X17983Y24088D01*
X17901Y24195D01*
X17794Y24277D01*
X17737Y24300D01*
Y24350D01*
X17794Y24373D01*
X17901Y24455D01*
X17983Y24562D01*
X18034Y24687D01*
X18052Y24820D01*
X18034Y24954D01*
X17983Y25079D01*
X17901Y25186D01*
X17794Y25268D01*
X17669Y25319D01*
X17536Y25337D01*
D02*
G37*
G36*
X24989Y26097D02*
X24887Y26084D01*
X24791Y26044D01*
X24709Y25981D01*
X24645Y25899D01*
X24606Y25803D01*
X24592Y25700D01*
X24606Y25597D01*
X24645Y25501D01*
X24709Y25419D01*
X24791Y25356D01*
X24887Y25316D01*
X24989Y25303D01*
X25092Y25316D01*
X25188Y25356D01*
X25270Y25419D01*
X25333Y25501D01*
X25373Y25597D01*
X25386Y25700D01*
X25373Y25803D01*
X25333Y25899D01*
X25270Y25981D01*
X25188Y26044D01*
X25092Y26084D01*
X24989Y26097D01*
D02*
G37*
G36*
X26911D02*
X26808Y26084D01*
X26712Y26044D01*
X26630Y25981D01*
X26567Y25899D01*
X26527Y25803D01*
X26514Y25700D01*
X26527Y25597D01*
X26567Y25501D01*
X26630Y25419D01*
X26712Y25356D01*
X26808Y25316D01*
X26911Y25303D01*
X27013Y25316D01*
X27109Y25356D01*
X27191Y25419D01*
X27255Y25501D01*
X27294Y25597D01*
X27308Y25700D01*
X27294Y25803D01*
X27255Y25899D01*
X27191Y25981D01*
X27109Y26044D01*
X27013Y26084D01*
X26911Y26097D01*
D02*
G37*
G36*
X22500Y26350D02*
X22204D01*
X22209Y26309D01*
X22244Y26223D01*
X22300Y26150D01*
X22373Y26094D01*
X22459Y26059D01*
X22500Y26054D01*
Y26350D01*
D02*
G37*
G36*
X34211Y25176D02*
X33954D01*
Y24850D01*
X34211D01*
Y25176D01*
D02*
G37*
G36*
X15714Y25312D02*
X15635Y25301D01*
X15515Y25252D01*
X15412Y25173D01*
X15333Y25069D01*
X15283Y24949D01*
X15273Y24870D01*
X15714D01*
Y25312D01*
D02*
G37*
G36*
X15814D02*
Y24870D01*
X16256D01*
X16245Y24949D01*
X16195Y25069D01*
X16116Y25173D01*
X16013Y25252D01*
X15893Y25301D01*
X15814Y25312D01*
D02*
G37*
G36*
X22896Y26350D02*
X22600D01*
Y26054D01*
X22641Y26059D01*
X22727Y26094D01*
X22800Y26150D01*
X22856Y26223D01*
X22891Y26309D01*
X22896Y26350D01*
D02*
G37*
G36*
X22600Y26746D02*
Y26450D01*
X22896D01*
X22891Y26491D01*
X22856Y26577D01*
X22800Y26650D01*
X22727Y26706D01*
X22641Y26741D01*
X22600Y26746D01*
D02*
G37*
G36*
X30196Y26926D02*
X29939D01*
Y26600D01*
X30196D01*
Y26926D01*
D02*
G37*
G36*
X30552D02*
X30296D01*
Y26600D01*
X30552D01*
Y26926D01*
D02*
G37*
G36*
X30196Y26500D02*
X29939D01*
Y26174D01*
X30196D01*
Y26500D01*
D02*
G37*
G36*
X30552D02*
X30296D01*
Y26174D01*
X30552D01*
Y26500D01*
D02*
G37*
G36*
X22500Y26746D02*
X22459Y26741D01*
X22373Y26706D01*
X22300Y26650D01*
X22244Y26577D01*
X22209Y26491D01*
X22204Y26450D01*
X22500D01*
Y26746D01*
D02*
G37*
G36*
X33854Y25176D02*
X33598D01*
Y24850D01*
X33854D01*
Y25176D01*
D02*
G37*
G36*
X43000Y23696D02*
Y23400D01*
X43296D01*
X43291Y23441D01*
X43256Y23527D01*
X43200Y23600D01*
X43127Y23656D01*
X43041Y23691D01*
X43000Y23696D01*
D02*
G37*
G36*
X18706Y24150D02*
X18469D01*
Y23824D01*
X18706D01*
Y24150D01*
D02*
G37*
G36*
X16256Y24770D02*
X15273D01*
X15283Y24692D01*
X15333Y24571D01*
X15412Y24468D01*
X15515Y24389D01*
X15605Y24352D01*
Y24298D01*
X15515Y24261D01*
X15412Y24182D01*
X15333Y24079D01*
X15283Y23958D01*
X15273Y23880D01*
X16256D01*
X16245Y23958D01*
X16195Y24079D01*
X16116Y24182D01*
X16013Y24261D01*
X15923Y24298D01*
Y24352D01*
X16013Y24389D01*
X16116Y24468D01*
X16195Y24571D01*
X16245Y24692D01*
X16256Y24770D01*
D02*
G37*
G36*
X15714Y23780D02*
X15273D01*
X15283Y23701D01*
X15333Y23581D01*
X15412Y23477D01*
X15515Y23398D01*
X15635Y23349D01*
X15714Y23338D01*
Y23780D01*
D02*
G37*
G36*
X16256D02*
X15814D01*
Y23338D01*
X15893Y23349D01*
X16013Y23398D01*
X16116Y23477D01*
X16195Y23581D01*
X16245Y23701D01*
X16256Y23780D01*
D02*
G37*
G36*
X42900Y23696D02*
X42859Y23691D01*
X42773Y23656D01*
X42700Y23600D01*
X42644Y23527D01*
X42609Y23441D01*
X42604Y23400D01*
X42900D01*
Y23696D01*
D02*
G37*
G36*
X31650Y24296D02*
X31324D01*
Y24039D01*
X31650D01*
Y24296D01*
D02*
G37*
G36*
X32076Y24652D02*
X31750D01*
Y24396D01*
X32076D01*
Y24652D01*
D02*
G37*
G36*
X33854Y24750D02*
X33598D01*
Y24424D01*
X33854D01*
Y24750D01*
D02*
G37*
G36*
X34211D02*
X33954D01*
Y24424D01*
X34211D01*
Y24750D01*
D02*
G37*
G36*
X32076Y24296D02*
X31750D01*
Y24039D01*
X32076D01*
Y24296D01*
D02*
G37*
G36*
X18706Y24576D02*
X18469D01*
Y24250D01*
X18706D01*
Y24576D01*
D02*
G37*
G36*
X31650Y24652D02*
X31324D01*
Y24396D01*
X31650D01*
Y24652D01*
D02*
G37*
G36*
X22850Y19253D02*
X22815Y19246D01*
X22743Y19197D01*
X22695Y19125D01*
X22678Y19040D01*
Y18923D01*
X22850D01*
Y19253D01*
D02*
G37*
G36*
X29300Y13837D02*
X29187Y13822D01*
X29082Y13778D01*
X28991Y13709D01*
X28922Y13618D01*
X28878Y13513D01*
X28863Y13400D01*
X28878Y13287D01*
X28922Y13182D01*
X28991Y13091D01*
X29082Y13022D01*
X29187Y12978D01*
X29300Y12963D01*
X29413Y12978D01*
X29518Y13022D01*
X29609Y13091D01*
X29678Y13182D01*
X29722Y13287D01*
X29737Y13400D01*
X29722Y13513D01*
X29678Y13618D01*
X29609Y13709D01*
X29518Y13778D01*
X29413Y13822D01*
X29300Y13837D01*
D02*
G37*
G36*
X31300D02*
X31187Y13822D01*
X31082Y13778D01*
X30991Y13709D01*
X30922Y13618D01*
X30878Y13513D01*
X30863Y13400D01*
X30878Y13287D01*
X30922Y13182D01*
X30991Y13091D01*
X31082Y13022D01*
X31187Y12978D01*
X31300Y12963D01*
X31413Y12978D01*
X31518Y13022D01*
X31609Y13091D01*
X31678Y13182D01*
X31722Y13287D01*
X31737Y13400D01*
X31722Y13513D01*
X31678Y13618D01*
X31609Y13709D01*
X31518Y13778D01*
X31413Y13822D01*
X31300Y13837D01*
D02*
G37*
G36*
X28250Y13350D02*
X27888D01*
X27896Y13292D01*
X27938Y13191D01*
X28004Y13104D01*
X28091Y13038D01*
X28192Y12996D01*
X28250Y12988D01*
Y13350D01*
D02*
G37*
G36*
X16596Y13100D02*
X16300D01*
Y12804D01*
X16341Y12809D01*
X16427Y12844D01*
X16500Y12900D01*
X16556Y12973D01*
X16591Y13059D01*
X16596Y13100D01*
D02*
G37*
G36*
X24697Y12894D02*
X24450D01*
Y12726D01*
X24697D01*
Y12894D01*
D02*
G37*
G36*
X25044D02*
X24797D01*
Y12726D01*
X25044D01*
Y12894D01*
D02*
G37*
G36*
X16200Y13100D02*
X15904D01*
X15909Y13059D01*
X15944Y12973D01*
X16000Y12900D01*
X16073Y12844D01*
X16159Y12809D01*
X16200Y12804D01*
Y13100D01*
D02*
G37*
G36*
X23900Y14327D02*
X23821Y14311D01*
X23506D01*
Y13701D01*
Y13139D01*
X24294D01*
Y13203D01*
X24432D01*
Y13188D01*
X25062D01*
Y13660D01*
X24432D01*
Y13645D01*
X24294D01*
Y13701D01*
Y14311D01*
X23979D01*
X23900Y14327D01*
D02*
G37*
G36*
X16200Y13496D02*
X16159Y13491D01*
X16073Y13456D01*
X16000Y13400D01*
X15944Y13327D01*
X15909Y13241D01*
X15904Y13200D01*
X16200D01*
Y13496D01*
D02*
G37*
G36*
X16300D02*
Y13200D01*
X16596D01*
X16591Y13241D01*
X16556Y13327D01*
X16500Y13400D01*
X16427Y13456D01*
X16341Y13491D01*
X16300Y13496D01*
D02*
G37*
G36*
X19794Y14211D02*
X19006D01*
Y13601D01*
Y13089D01*
X19794D01*
Y13153D01*
X19932D01*
Y13138D01*
X20562D01*
Y13610D01*
X19932D01*
Y13595D01*
X19794D01*
Y13601D01*
Y14211D01*
D02*
G37*
G36*
X28712Y13350D02*
X28350D01*
Y12988D01*
X28408Y12996D01*
X28509Y13038D01*
X28596Y13104D01*
X28662Y13191D01*
X28704Y13292D01*
X28712Y13350D01*
D02*
G37*
G36*
X30250D02*
X29888D01*
X29896Y13292D01*
X29938Y13191D01*
X30004Y13104D01*
X30091Y13038D01*
X30192Y12996D01*
X30250Y12988D01*
Y13350D01*
D02*
G37*
G36*
X30712D02*
X30350D01*
Y12988D01*
X30408Y12996D01*
X30509Y13038D01*
X30596Y13104D01*
X30662Y13191D01*
X30704Y13292D01*
X30712Y13350D01*
D02*
G37*
G36*
X24276Y12943D02*
X23950D01*
Y12706D01*
X24276D01*
Y12943D01*
D02*
G37*
G36*
X21468Y13236D02*
X20838D01*
Y12764D01*
X21468D01*
Y12779D01*
X21903D01*
X21929Y12750D01*
X21941Y12654D01*
X21978Y12564D01*
X22037Y12487D01*
X22114Y12428D01*
X22204Y12391D01*
X22300Y12379D01*
X22396Y12391D01*
X22486Y12428D01*
X22563Y12487D01*
X22622Y12564D01*
X22659Y12654D01*
X22671Y12750D01*
X22659Y12846D01*
X22622Y12936D01*
X22563Y13013D01*
X22486Y13072D01*
X22396Y13109D01*
X22300Y13121D01*
X22248Y13114D01*
X22206Y13156D01*
X22134Y13204D01*
X22050Y13221D01*
X21468D01*
Y13236D01*
D02*
G37*
G36*
X20197Y12576D02*
X19950D01*
Y12408D01*
X20197D01*
Y12576D01*
D02*
G37*
G36*
X20544D02*
X20297D01*
Y12408D01*
X20544D01*
Y12576D01*
D02*
G37*
G36*
X24276Y12606D02*
X23950D01*
Y12369D01*
X24276D01*
Y12606D01*
D02*
G37*
G36*
X19350Y12556D02*
X19024D01*
Y12319D01*
X19350D01*
Y12556D01*
D02*
G37*
G36*
X19776D02*
X19450D01*
Y12319D01*
X19776D01*
Y12556D01*
D02*
G37*
G36*
X23850Y12606D02*
X23524D01*
Y12369D01*
X23850D01*
Y12606D01*
D02*
G37*
G36*
X20197Y12844D02*
X19950D01*
Y12676D01*
X20197D01*
Y12844D01*
D02*
G37*
G36*
X20544D02*
X20297D01*
Y12676D01*
X20544D01*
Y12844D01*
D02*
G37*
G36*
X23850Y12943D02*
X23524D01*
Y12706D01*
X23850D01*
Y12943D01*
D02*
G37*
G36*
X19776Y12893D02*
X19450D01*
Y12656D01*
X19776D01*
Y12893D01*
D02*
G37*
G36*
X24697Y12626D02*
X24450D01*
Y12458D01*
X24697D01*
Y12626D01*
D02*
G37*
G36*
X25044D02*
X24797D01*
Y12458D01*
X25044D01*
Y12626D01*
D02*
G37*
G36*
X19350Y12893D02*
X19024D01*
Y12656D01*
X19350D01*
Y12893D01*
D02*
G37*
G36*
X21122Y18823D02*
X20950D01*
Y18493D01*
X20985Y18500D01*
X21057Y18548D01*
X21105Y18620D01*
X21122Y18706D01*
Y18823D01*
D02*
G37*
G36*
X21350D02*
X21178D01*
Y18706D01*
X21195Y18620D01*
X21243Y18548D01*
X21315Y18500D01*
X21350Y18493D01*
Y18823D01*
D02*
G37*
G36*
X22622D02*
X22450D01*
Y18493D01*
X22485Y18500D01*
X22557Y18548D01*
X22605Y18620D01*
X22622Y18706D01*
Y18823D01*
D02*
G37*
G36*
X19726Y17902D02*
X19400D01*
Y17646D01*
X19726D01*
Y17902D01*
D02*
G37*
G36*
X19300Y17546D02*
X18974D01*
Y17289D01*
X19300D01*
Y17546D01*
D02*
G37*
G36*
X19726D02*
X19400D01*
Y17289D01*
X19726D01*
Y17546D01*
D02*
G37*
G36*
X19300Y17902D02*
X18974D01*
Y17646D01*
X19300D01*
Y17902D01*
D02*
G37*
G36*
X20950Y19253D02*
Y18923D01*
X21122D01*
Y19040D01*
X21105Y19125D01*
X21057Y19197D01*
X20985Y19246D01*
X20950Y19253D01*
D02*
G37*
G36*
X21350D02*
X21315Y19246D01*
X21243Y19197D01*
X21195Y19125D01*
X21178Y19040D01*
Y18923D01*
X21350D01*
Y19253D01*
D02*
G37*
G36*
X22450D02*
Y18923D01*
X22622D01*
Y19040D01*
X22605Y19125D01*
X22557Y19197D01*
X22485Y19246D01*
X22450Y19253D01*
D02*
G37*
G36*
X41400Y19717D02*
X41292Y19703D01*
X41192Y19661D01*
X41105Y19595D01*
X41039Y19508D01*
X40997Y19408D01*
X40983Y19300D01*
X40997Y19192D01*
X41039Y19092D01*
X41105Y19005D01*
X41192Y18939D01*
X41292Y18897D01*
X41400Y18883D01*
X41508Y18897D01*
X41608Y18939D01*
X41695Y19005D01*
X41761Y19092D01*
X41803Y19192D01*
X41817Y19300D01*
X41803Y19408D01*
X41761Y19508D01*
X41695Y19595D01*
X41608Y19661D01*
X41508Y19703D01*
X41400Y19717D01*
D02*
G37*
G36*
X22850Y18823D02*
X22678D01*
Y18706D01*
X22695Y18620D01*
X22743Y18548D01*
X22815Y18500D01*
X22850Y18493D01*
Y18823D01*
D02*
G37*
G36*
X39400Y19717D02*
X39292Y19703D01*
X39192Y19661D01*
X39105Y19595D01*
X39039Y19508D01*
X38997Y19408D01*
X38983Y19300D01*
X38997Y19192D01*
X39039Y19092D01*
X39105Y19005D01*
X39192Y18939D01*
X39292Y18897D01*
X39400Y18883D01*
X39508Y18897D01*
X39608Y18939D01*
X39695Y19005D01*
X39761Y19092D01*
X39803Y19192D01*
X39817Y19300D01*
X39803Y19408D01*
X39761Y19508D01*
X39695Y19595D01*
X39608Y19661D01*
X39508Y19703D01*
X39400Y19717D01*
D02*
G37*
G36*
X40744Y20461D02*
X39956D01*
Y19851D01*
X40179D01*
Y19652D01*
X40105Y19595D01*
X40039Y19508D01*
X39997Y19408D01*
X39983Y19300D01*
X39997Y19192D01*
X40039Y19092D01*
X40105Y19005D01*
X40192Y18939D01*
X40292Y18897D01*
X40400Y18883D01*
X40508Y18897D01*
X40608Y18939D01*
X40695Y19005D01*
X40761Y19092D01*
X40803Y19192D01*
X40817Y19300D01*
X40803Y19408D01*
X40761Y19508D01*
X40695Y19595D01*
X40621Y19652D01*
Y19851D01*
X40744D01*
Y20461D01*
D02*
G37*
G36*
X23450Y17107D02*
Y16777D01*
X23622D01*
Y16894D01*
X23605Y16980D01*
X23557Y17052D01*
X23485Y17100D01*
X23450Y17107D01*
D02*
G37*
G36*
X29000Y15421D02*
X26200D01*
X26116Y15404D01*
X26044Y15356D01*
X25497Y14809D01*
X25449Y14737D01*
X25432Y14653D01*
Y13286D01*
X25338D01*
Y12814D01*
X25968D01*
Y13286D01*
X25874D01*
Y14561D01*
X26291Y14979D01*
X28909D01*
X29067Y14821D01*
X29064Y14765D01*
X28991Y14709D01*
X28922Y14618D01*
X28878Y14513D01*
X28863Y14400D01*
X28878Y14287D01*
X28922Y14182D01*
X28991Y14091D01*
X29082Y14022D01*
X29187Y13978D01*
X29300Y13963D01*
X29413Y13978D01*
X29518Y14022D01*
X29609Y14091D01*
X29678Y14182D01*
X29722Y14287D01*
X29737Y14400D01*
X29722Y14513D01*
X29678Y14618D01*
X29609Y14709D01*
X29521Y14777D01*
Y14900D01*
X29504Y14985D01*
X29456Y15056D01*
X29156Y15356D01*
X29084Y15404D01*
X29000Y15421D01*
D02*
G37*
G36*
X30300Y14837D02*
X30187Y14822D01*
X30082Y14778D01*
X29991Y14709D01*
X29922Y14618D01*
X29878Y14513D01*
X29863Y14400D01*
X29878Y14287D01*
X29922Y14182D01*
X29991Y14091D01*
X30082Y14022D01*
X30187Y13978D01*
X30300Y13963D01*
X30413Y13978D01*
X30518Y14022D01*
X30609Y14091D01*
X30678Y14182D01*
X30722Y14287D01*
X30737Y14400D01*
X30722Y14513D01*
X30678Y14618D01*
X30609Y14709D01*
X30518Y14778D01*
X30413Y14822D01*
X30300Y14837D01*
D02*
G37*
G36*
X32250Y14350D02*
X31888D01*
X31896Y14292D01*
X31938Y14191D01*
X32004Y14104D01*
X32091Y14038D01*
X32192Y13996D01*
X32250Y13988D01*
Y14350D01*
D02*
G37*
G36*
X30350Y13812D02*
Y13450D01*
X30712D01*
X30704Y13508D01*
X30662Y13609D01*
X30596Y13696D01*
X30509Y13763D01*
X30408Y13804D01*
X30350Y13812D01*
D02*
G37*
G36*
X28250D02*
X28192Y13804D01*
X28091Y13763D01*
X28004Y13696D01*
X27938Y13609D01*
X27896Y13508D01*
X27888Y13450D01*
X28250D01*
Y13812D01*
D02*
G37*
G36*
X28350D02*
Y13450D01*
X28712D01*
X28704Y13508D01*
X28662Y13609D01*
X28596Y13696D01*
X28509Y13763D01*
X28408Y13804D01*
X28350Y13812D01*
D02*
G37*
G36*
X30250D02*
X30192Y13804D01*
X30091Y13763D01*
X30004Y13696D01*
X29938Y13609D01*
X29896Y13508D01*
X29888Y13450D01*
X30250D01*
Y13812D01*
D02*
G37*
G36*
X22250Y14996D02*
X22209Y14991D01*
X22123Y14956D01*
X22050Y14900D01*
X21994Y14827D01*
X21959Y14741D01*
X21954Y14700D01*
X22250D01*
Y14996D01*
D02*
G37*
G36*
X22350D02*
Y14700D01*
X22646D01*
X22641Y14741D01*
X22606Y14827D01*
X22550Y14900D01*
X22477Y14956D01*
X22391Y14991D01*
X22350Y14996D01*
D02*
G37*
G36*
X23622Y16677D02*
X23450D01*
Y16347D01*
X23485Y16354D01*
X23557Y16403D01*
X23605Y16475D01*
X23622Y16560D01*
Y16677D01*
D02*
G37*
G36*
X23900Y16271D02*
X23804Y16259D01*
X23714Y16222D01*
X23637Y16163D01*
X23578Y16086D01*
X23541Y15996D01*
X23529Y15900D01*
X23541Y15804D01*
X23578Y15714D01*
X23637Y15637D01*
X23679Y15605D01*
Y15099D01*
X23506D01*
Y14489D01*
X24294D01*
Y15099D01*
X24121D01*
Y15605D01*
X24163Y15637D01*
X24222Y15714D01*
X24259Y15804D01*
X24271Y15900D01*
X24259Y15996D01*
X24222Y16086D01*
X24163Y16163D01*
X24086Y16222D01*
X23996Y16259D01*
X23900Y16271D01*
D02*
G37*
G36*
X22250Y14600D02*
X21954D01*
X21959Y14559D01*
X21994Y14473D01*
X22050Y14400D01*
X22123Y14344D01*
X22209Y14309D01*
X22250Y14304D01*
Y14600D01*
D02*
G37*
G36*
X22646D02*
X22350D01*
Y14304D01*
X22391Y14309D01*
X22477Y14344D01*
X22550Y14400D01*
X22606Y14473D01*
X22641Y14559D01*
X22646Y14600D01*
D02*
G37*
G36*
X32250Y14812D02*
X32192Y14804D01*
X32091Y14763D01*
X32004Y14696D01*
X31938Y14609D01*
X31896Y14508D01*
X31888Y14450D01*
X32250D01*
Y14812D01*
D02*
G37*
G36*
X15714Y27330D02*
X15273D01*
X15283Y27251D01*
X15333Y27131D01*
X15412Y27027D01*
X15515Y26948D01*
X15635Y26899D01*
X15714Y26888D01*
Y27330D01*
D02*
G37*
G36*
X52772Y35900D02*
X52450D01*
Y35578D01*
X52498Y35584D01*
X52589Y35622D01*
X52668Y35682D01*
X52728Y35761D01*
X52766Y35852D01*
X52772Y35900D01*
D02*
G37*
G36*
X47350Y36052D02*
X47024D01*
Y35796D01*
X47350D01*
Y36052D01*
D02*
G37*
G36*
X47776D02*
X47450D01*
Y35796D01*
X47776D01*
Y36052D01*
D02*
G37*
G36*
X52350Y35900D02*
X52028D01*
X52034Y35852D01*
X52072Y35761D01*
X52132Y35682D01*
X52211Y35622D01*
X52302Y35584D01*
X52350Y35578D01*
Y35900D01*
D02*
G37*
G36*
X43246Y35850D02*
X42950D01*
Y35554D01*
X42991Y35559D01*
X43077Y35594D01*
X43150Y35650D01*
X43206Y35723D01*
X43241Y35809D01*
X43246Y35850D01*
D02*
G37*
G36*
X54754Y35900D02*
X54498D01*
Y35574D01*
X54754D01*
Y35900D01*
D02*
G37*
G36*
X55111D02*
X54854D01*
Y35574D01*
X55111D01*
Y35900D01*
D02*
G37*
G36*
X52350Y36322D02*
X52302Y36316D01*
X52211Y36278D01*
X52132Y36218D01*
X52072Y36139D01*
X52034Y36048D01*
X52028Y36000D01*
X52350D01*
Y36322D01*
D02*
G37*
G36*
X52450D02*
Y36000D01*
X52772D01*
X52766Y36048D01*
X52728Y36139D01*
X52668Y36218D01*
X52589Y36278D01*
X52498Y36316D01*
X52450Y36322D01*
D02*
G37*
G36*
X54754Y36326D02*
X54498D01*
Y36000D01*
X54754D01*
Y36326D01*
D02*
G37*
G36*
X42950Y36246D02*
Y35950D01*
X43246D01*
X43241Y35991D01*
X43206Y36077D01*
X43150Y36150D01*
X43077Y36206D01*
X42991Y36241D01*
X42950Y36246D01*
D02*
G37*
G36*
X58666Y36418D02*
X58617D01*
X58540Y36402D01*
X58474Y36358D01*
X58430Y36293D01*
X58415Y36215D01*
Y35872D01*
X58666D01*
Y36418D01*
D02*
G37*
G36*
X58814D02*
X58766D01*
Y35872D01*
X59016D01*
Y36215D01*
X59001Y36293D01*
X58957Y36358D01*
X58892Y36402D01*
X58814Y36418D01*
D02*
G37*
G36*
X42850Y36246D02*
X42809Y36241D01*
X42723Y36206D01*
X42650Y36150D01*
X42594Y36077D01*
X42559Y35991D01*
X42554Y35950D01*
X42850D01*
Y36246D01*
D02*
G37*
G36*
X48050Y34442D02*
X47997Y34435D01*
X47901Y34395D01*
X47818Y34332D01*
X47755Y34249D01*
X47715Y34153D01*
X47708Y34100D01*
X48050D01*
Y34442D01*
D02*
G37*
G36*
X48150D02*
Y34100D01*
X48492D01*
X48485Y34153D01*
X48445Y34249D01*
X48382Y34332D01*
X48299Y34395D01*
X48203Y34435D01*
X48150Y34442D01*
D02*
G37*
G36*
X51400Y36347D02*
X51297Y36334D01*
X51201Y36294D01*
X51119Y36231D01*
X51056Y36149D01*
X51016Y36053D01*
X51003Y35950D01*
X51016Y35847D01*
X51056Y35751D01*
X51082Y35717D01*
Y32850D01*
X51093Y32768D01*
X51125Y32691D01*
X51175Y32625D01*
X51664Y32136D01*
X51730Y32086D01*
X51807Y32054D01*
X51889Y32043D01*
X51967D01*
Y31928D01*
X52833D01*
Y32043D01*
X53311D01*
X53393Y32054D01*
X53470Y32086D01*
X53536Y32136D01*
X54225Y32825D01*
X54275Y32891D01*
X54307Y32968D01*
X54318Y33050D01*
Y33514D01*
X54774Y33971D01*
X55044D01*
Y34032D01*
X55300D01*
X55382Y34043D01*
X55459Y34075D01*
X55525Y34125D01*
X55841Y34442D01*
X55900Y34434D01*
X56034Y34451D01*
X56158Y34503D01*
X56265Y34585D01*
X56347Y34692D01*
X56399Y34816D01*
X56416Y34950D01*
X56399Y35084D01*
X56347Y35208D01*
X56265Y35315D01*
X56158Y35397D01*
X56072Y35433D01*
Y35487D01*
X56149Y35519D01*
X56252Y35598D01*
X56331Y35701D01*
X56381Y35821D01*
X56391Y35900D01*
X55409D01*
X55419Y35821D01*
X55469Y35701D01*
X55548Y35598D01*
X55651Y35519D01*
X55728Y35487D01*
Y35433D01*
X55642Y35397D01*
X55535Y35315D01*
X55453Y35208D01*
X55401Y35084D01*
X55384Y34950D01*
X55392Y34891D01*
X55168Y34668D01*
X55063D01*
X55026Y34698D01*
X55026Y34718D01*
Y34954D01*
X54274D01*
Y34698D01*
X54590D01*
X54600Y34648D01*
X54545Y34625D01*
X54539Y34620D01*
X54256D01*
Y34351D01*
X53775Y33870D01*
X53725Y33805D01*
X53693Y33728D01*
X53682Y33646D01*
Y33182D01*
X53179Y32679D01*
X52833D01*
Y32794D01*
X51967D01*
X51967Y32794D01*
Y32794D01*
X51923Y32776D01*
X51718Y32982D01*
Y35717D01*
X51744Y35751D01*
X51784Y35847D01*
X51797Y35950D01*
X51784Y36053D01*
X51744Y36149D01*
X51681Y36231D01*
X51599Y36294D01*
X51503Y36334D01*
X51400Y36347D01*
D02*
G37*
G36*
X27200Y34541D02*
Y34100D01*
X27641D01*
X27631Y34179D01*
X27581Y34299D01*
X27502Y34402D01*
X27399Y34481D01*
X27279Y34531D01*
X27200Y34541D01*
D02*
G37*
G36*
X35194Y35461D02*
X34406D01*
Y34851D01*
X34569D01*
Y34524D01*
X34564Y34522D01*
X34487Y34463D01*
X34428Y34386D01*
X34391Y34296D01*
X34379Y34200D01*
X34391Y34104D01*
X34428Y34014D01*
X34487Y33937D01*
X34564Y33878D01*
X34654Y33841D01*
X34750Y33829D01*
X34846Y33841D01*
X34936Y33878D01*
X35013Y33937D01*
X35072Y34014D01*
X35109Y34104D01*
X35121Y34200D01*
X35109Y34296D01*
X35072Y34386D01*
X35013Y34463D01*
X34936Y34522D01*
X34931Y34524D01*
Y34851D01*
X35194D01*
Y35461D01*
D02*
G37*
G36*
X36144D02*
X35356D01*
Y34851D01*
X35569D01*
Y34524D01*
X35564Y34522D01*
X35487Y34463D01*
X35428Y34386D01*
X35391Y34296D01*
X35379Y34200D01*
X35391Y34104D01*
X35428Y34014D01*
X35487Y33937D01*
X35564Y33878D01*
X35654Y33841D01*
X35750Y33829D01*
X35846Y33841D01*
X35936Y33878D01*
X36013Y33937D01*
X36072Y34014D01*
X36109Y34104D01*
X36121Y34200D01*
X36109Y34296D01*
X36072Y34386D01*
X36013Y34463D01*
X35936Y34522D01*
X35931Y34524D01*
Y34851D01*
X36144D01*
Y35461D01*
D02*
G37*
G36*
X27100Y34541D02*
X27021Y34531D01*
X26901Y34481D01*
X26798Y34402D01*
X26719Y34299D01*
X26669Y34179D01*
X26659Y34100D01*
X27100D01*
Y34541D01*
D02*
G37*
G36*
X47350Y35696D02*
X47024D01*
Y35439D01*
X47350D01*
Y35696D01*
D02*
G37*
G36*
X47776D02*
X47450D01*
Y35439D01*
X47776D01*
Y35696D01*
D02*
G37*
G36*
X42850Y35850D02*
X42554D01*
X42559Y35809D01*
X42594Y35723D01*
X42650Y35650D01*
X42723Y35594D01*
X42809Y35559D01*
X42850Y35554D01*
Y35850D01*
D02*
G37*
G36*
X59016Y35772D02*
X58766D01*
Y35226D01*
X58814D01*
X58892Y35241D01*
X58957Y35285D01*
X59001Y35351D01*
X59016Y35428D01*
Y35772D01*
D02*
G37*
G36*
X54600Y35311D02*
X54274D01*
Y35054D01*
X54600D01*
Y35311D01*
D02*
G37*
G36*
X55026D02*
X54700D01*
Y35054D01*
X55026D01*
Y35311D01*
D02*
G37*
G36*
X58666Y35772D02*
X58415D01*
Y35428D01*
X58430Y35351D01*
X58474Y35285D01*
X58540Y35241D01*
X58617Y35226D01*
X58666D01*
Y35772D01*
D02*
G37*
G36*
X55111Y36326D02*
X54854D01*
Y36000D01*
X55111D01*
Y36326D01*
D02*
G37*
G36*
X37896Y38650D02*
X37600D01*
Y38354D01*
X37641Y38359D01*
X37727Y38394D01*
X37800Y38450D01*
X37856Y38523D01*
X37891Y38609D01*
X37896Y38650D01*
D02*
G37*
G36*
X46100D02*
X45804D01*
X45809Y38609D01*
X45844Y38523D01*
X45900Y38450D01*
X45973Y38394D01*
X46059Y38359D01*
X46100Y38354D01*
Y38650D01*
D02*
G37*
G36*
X46496D02*
X46200D01*
Y38354D01*
X46241Y38359D01*
X46327Y38394D01*
X46400Y38450D01*
X46456Y38523D01*
X46491Y38609D01*
X46496Y38650D01*
D02*
G37*
G36*
X37500D02*
X37204D01*
X37209Y38609D01*
X37244Y38523D01*
X37300Y38450D01*
X37373Y38394D01*
X37459Y38359D01*
X37500Y38354D01*
Y38650D01*
D02*
G37*
G36*
X35750Y38146D02*
X35622Y38129D01*
X35502Y38080D01*
X35399Y38001D01*
X35320Y37898D01*
X35276Y37791D01*
X35276Y37791D01*
X35224D01*
X35224Y37791D01*
X35180Y37898D01*
X35101Y38001D01*
X34998Y38080D01*
X34878Y38129D01*
X34750Y38146D01*
X34622Y38129D01*
X34502Y38080D01*
X34399Y38001D01*
X34320Y37898D01*
X34271Y37778D01*
X34266Y37745D01*
X34216Y37745D01*
X34212Y37774D01*
X34164Y37889D01*
X34088Y37988D01*
X33989Y38064D01*
X33874Y38112D01*
X33800Y38122D01*
Y37650D01*
Y37178D01*
X33874Y37188D01*
X33989Y37236D01*
X34088Y37312D01*
X34164Y37411D01*
X34212Y37526D01*
X34216Y37555D01*
X34266Y37555D01*
X34271Y37522D01*
X34320Y37402D01*
X34399Y37299D01*
X34502Y37220D01*
X34529Y37209D01*
Y36249D01*
X34406D01*
Y35639D01*
X35194D01*
Y36249D01*
X34971D01*
Y37209D01*
X34998Y37220D01*
X35101Y37299D01*
X35180Y37402D01*
X35224Y37509D01*
X35224Y37509D01*
X35276D01*
X35276Y37509D01*
X35320Y37402D01*
X35399Y37299D01*
X35502Y37220D01*
X35529Y37209D01*
Y36249D01*
X35356D01*
Y35639D01*
X36144D01*
Y36249D01*
X35971D01*
Y37209D01*
X35998Y37220D01*
X36101Y37299D01*
X36180Y37402D01*
X36229Y37522D01*
X36246Y37650D01*
X36229Y37778D01*
X36180Y37898D01*
X36101Y38001D01*
X35998Y38080D01*
X35878Y38129D01*
X35750Y38146D01*
D02*
G37*
G36*
X28350Y38350D02*
X28054D01*
X28059Y38309D01*
X28094Y38223D01*
X28150Y38150D01*
X28223Y38094D01*
X28309Y38059D01*
X28350Y38054D01*
Y38350D01*
D02*
G37*
G36*
X28746D02*
X28450D01*
Y38054D01*
X28491Y38059D01*
X28577Y38094D01*
X28650Y38150D01*
X28706Y38223D01*
X28741Y38309D01*
X28746Y38350D01*
D02*
G37*
G36*
X37600Y39046D02*
Y38750D01*
X37896D01*
X37891Y38791D01*
X37856Y38877D01*
X37800Y38950D01*
X37727Y39006D01*
X37641Y39041D01*
X37600Y39046D01*
D02*
G37*
G36*
X46100D02*
X46059Y39041D01*
X45973Y39006D01*
X45900Y38950D01*
X45844Y38877D01*
X45809Y38791D01*
X45804Y38750D01*
X46100D01*
Y39046D01*
D02*
G37*
G36*
X46200D02*
Y38750D01*
X46496D01*
X46491Y38791D01*
X46456Y38877D01*
X46400Y38950D01*
X46327Y39006D01*
X46241Y39041D01*
X46200Y39046D01*
D02*
G37*
G36*
X37500D02*
X37459Y39041D01*
X37373Y39006D01*
X37300Y38950D01*
X37244Y38877D01*
X37209Y38791D01*
X37204Y38750D01*
X37500D01*
Y39046D01*
D02*
G37*
G36*
X50163Y38452D02*
X49337D01*
Y38357D01*
X47794D01*
Y38399D01*
X47006D01*
Y38255D01*
X40674D01*
X40605Y38241D01*
X40546Y38202D01*
X39651Y37307D01*
X39646Y37309D01*
X39550Y37321D01*
X39454Y37309D01*
X39364Y37272D01*
X39287Y37213D01*
X39228Y37136D01*
X39191Y37046D01*
X39179Y36950D01*
X39191Y36854D01*
X39228Y36764D01*
X39287Y36687D01*
X39364Y36628D01*
X39454Y36591D01*
X39550Y36579D01*
X39646Y36591D01*
X39736Y36628D01*
X39813Y36687D01*
X39872Y36764D01*
X39909Y36854D01*
X39921Y36950D01*
X39909Y37046D01*
X39907Y37051D01*
X40749Y37893D01*
X47006D01*
Y37749D01*
X47312D01*
X47353Y37732D01*
X47435Y37721D01*
X49337D01*
Y37626D01*
X50163D01*
Y37721D01*
X52479D01*
X53082Y37118D01*
Y36183D01*
X53056Y36149D01*
X53016Y36053D01*
X53003Y35950D01*
X53016Y35847D01*
X53056Y35751D01*
X53119Y35669D01*
X53201Y35606D01*
X53297Y35566D01*
X53400Y35553D01*
X53503Y35566D01*
X53599Y35606D01*
X53633Y35632D01*
X53771D01*
Y35556D01*
X54420D01*
Y36344D01*
X53771D01*
Y36268D01*
X53718D01*
Y37250D01*
X53707Y37332D01*
X53675Y37409D01*
X53625Y37475D01*
X52836Y38264D01*
X52770Y38314D01*
X52693Y38346D01*
X52611Y38357D01*
X50163D01*
Y38452D01*
D02*
G37*
G36*
X28350Y38746D02*
X28309Y38741D01*
X28223Y38706D01*
X28150Y38650D01*
X28094Y38577D01*
X28059Y38491D01*
X28054Y38450D01*
X28350D01*
Y38746D01*
D02*
G37*
G36*
X28450D02*
Y38450D01*
X28746D01*
X28741Y38491D01*
X28706Y38577D01*
X28650Y38650D01*
X28577Y38706D01*
X28491Y38741D01*
X28450Y38746D01*
D02*
G37*
G36*
X59602Y36850D02*
X59346D01*
Y36524D01*
X59602D01*
Y36850D01*
D02*
G37*
G36*
X49700Y37053D02*
X49647Y37046D01*
X49551Y37006D01*
X49468Y36943D01*
X49405Y36860D01*
X49365Y36764D01*
X49358Y36711D01*
X49700D01*
Y37053D01*
D02*
G37*
G36*
X49800D02*
Y36711D01*
X50142D01*
X50135Y36764D01*
X50095Y36860D01*
X50032Y36943D01*
X49949Y37006D01*
X49853Y37046D01*
X49800Y37053D01*
D02*
G37*
G36*
X59246Y36850D02*
X58989D01*
Y36524D01*
X59246D01*
Y36850D01*
D02*
G37*
G36*
X47794Y37651D02*
X47006D01*
Y37001D01*
X47082D01*
Y36779D01*
X47006D01*
Y36772D01*
X46554D01*
X46472Y36761D01*
X46396Y36729D01*
X46330Y36679D01*
X45825Y36175D01*
X45775Y36109D01*
X45743Y36032D01*
X45732Y35950D01*
Y34100D01*
X45743Y34018D01*
X45775Y33941D01*
X45825Y33875D01*
X45891Y33825D01*
X45968Y33793D01*
X46050Y33782D01*
X46687D01*
Y33637D01*
X47513D01*
Y34463D01*
X46687D01*
Y34418D01*
X46368D01*
Y35818D01*
X46686Y36137D01*
X47006D01*
Y36130D01*
X47794D01*
Y36779D01*
X47718D01*
Y37001D01*
X47794D01*
Y37651D01*
D02*
G37*
G36*
X49700Y36611D02*
X49358D01*
X49365Y36558D01*
X49405Y36462D01*
X49468Y36379D01*
X49551Y36316D01*
X49647Y36276D01*
X49700Y36269D01*
Y36611D01*
D02*
G37*
G36*
X50142D02*
X49800D01*
Y36269D01*
X49853Y36276D01*
X49949Y36316D01*
X50032Y36379D01*
X50095Y36462D01*
X50135Y36558D01*
X50142Y36611D01*
D02*
G37*
G36*
X57850Y37596D02*
X57809Y37591D01*
X57723Y37556D01*
X57650Y37500D01*
X57594Y37427D01*
X57559Y37341D01*
X57554Y37300D01*
X57850D01*
Y37596D01*
D02*
G37*
G36*
X57950D02*
Y37300D01*
X58246D01*
X58241Y37341D01*
X58206Y37427D01*
X58150Y37500D01*
X58077Y37556D01*
X57991Y37591D01*
X57950Y37596D01*
D02*
G37*
G36*
X32750Y38146D02*
X32622Y38129D01*
X32502Y38080D01*
X32399Y38001D01*
X32320Y37898D01*
X32276Y37791D01*
X32276Y37791D01*
X32224D01*
X32224Y37791D01*
X32180Y37898D01*
X32101Y38001D01*
X31998Y38080D01*
X31878Y38129D01*
X31750Y38146D01*
X31622Y38129D01*
X31502Y38080D01*
X31399Y38001D01*
X31320Y37898D01*
X31276Y37791D01*
X31276Y37791D01*
X31224D01*
X31224Y37791D01*
X31180Y37898D01*
X31101Y38001D01*
X30998Y38080D01*
X30878Y38129D01*
X30750Y38146D01*
X30622Y38129D01*
X30502Y38080D01*
X30399Y38001D01*
X30320Y37898D01*
X30271Y37778D01*
X30254Y37650D01*
X30271Y37522D01*
X30320Y37402D01*
X30399Y37299D01*
X30502Y37220D01*
X30529Y37209D01*
Y36741D01*
X29950Y36162D01*
X29902Y36091D01*
X29886Y36006D01*
Y35644D01*
X29801D01*
Y34856D01*
X30411D01*
Y35644D01*
X30327D01*
Y35915D01*
X30906Y36494D01*
X30954Y36566D01*
X30971Y36650D01*
Y37209D01*
X30998Y37220D01*
X31101Y37299D01*
X31180Y37402D01*
X31224Y37509D01*
X31224Y37509D01*
X31276D01*
X31276Y37509D01*
X31320Y37402D01*
X31399Y37299D01*
X31502Y37220D01*
X31529Y37209D01*
Y36249D01*
X31356D01*
Y35639D01*
X32144D01*
Y36249D01*
X31971D01*
Y37209D01*
X31998Y37220D01*
X32101Y37299D01*
X32180Y37402D01*
X32224Y37509D01*
X32224Y37509D01*
X32276D01*
X32276Y37509D01*
X32320Y37402D01*
X32399Y37299D01*
X32502Y37220D01*
X32529Y37209D01*
Y36249D01*
X32356D01*
Y35639D01*
X33144D01*
Y36249D01*
X32971D01*
Y37209D01*
X32998Y37220D01*
X33101Y37299D01*
X33180Y37402D01*
X33229Y37522D01*
X33234Y37555D01*
X33284Y37555D01*
X33288Y37526D01*
X33336Y37411D01*
X33412Y37312D01*
X33511Y37236D01*
X33626Y37188D01*
X33700Y37178D01*
Y37650D01*
Y38122D01*
X33626Y38112D01*
X33511Y38064D01*
X33412Y37988D01*
X33336Y37889D01*
X33288Y37774D01*
X33284Y37745D01*
X33234Y37745D01*
X33229Y37778D01*
X33180Y37898D01*
X33101Y38001D01*
X32998Y38080D01*
X32878Y38129D01*
X32750Y38146D01*
D02*
G37*
G36*
X59602Y37276D02*
X59346D01*
Y36950D01*
X59602D01*
Y37276D01*
D02*
G37*
G36*
X57850Y37200D02*
X57554D01*
X57559Y37159D01*
X57594Y37073D01*
X57650Y37000D01*
X57723Y36944D01*
X57809Y36909D01*
X57850Y36904D01*
Y37200D01*
D02*
G37*
G36*
X58246D02*
X57950D01*
Y36904D01*
X57991Y36909D01*
X58077Y36944D01*
X58150Y37000D01*
X58206Y37073D01*
X58241Y37159D01*
X58246Y37200D01*
D02*
G37*
G36*
X59246Y37276D02*
X58989D01*
Y36950D01*
X59246D01*
Y37276D01*
D02*
G37*
G36*
X40002Y34446D02*
X39873Y34429D01*
X39754Y34380D01*
X39651Y34301D01*
X39572Y34198D01*
X39523Y34078D01*
X39506Y33950D01*
X39523Y33822D01*
X39572Y33702D01*
X39651Y33599D01*
X39754Y33520D01*
X39860Y33476D01*
X39861Y33472D01*
X39859Y33424D01*
X39752Y33380D01*
X39649Y33301D01*
X39570Y33198D01*
X39521Y33078D01*
X39504Y32950D01*
X39521Y32822D01*
X39570Y32702D01*
X39649Y32599D01*
X39752Y32520D01*
X39859Y32476D01*
X39859Y32476D01*
Y32424D01*
X39859Y32424D01*
X39752Y32380D01*
X39649Y32301D01*
X39570Y32198D01*
X39521Y32078D01*
X39504Y31950D01*
X39521Y31822D01*
X39570Y31702D01*
X39649Y31599D01*
X39752Y31520D01*
X39859Y31476D01*
X39859Y31476D01*
Y31424D01*
X39859Y31424D01*
X39752Y31380D01*
X39649Y31301D01*
X39570Y31198D01*
X39521Y31078D01*
X39504Y30950D01*
X39521Y30822D01*
X39570Y30702D01*
X39649Y30599D01*
X39752Y30520D01*
X39872Y30471D01*
X39905Y30466D01*
X39905Y30416D01*
X39876Y30412D01*
X39761Y30364D01*
X39662Y30288D01*
X39586Y30189D01*
X39538Y30074D01*
X39528Y30000D01*
X40472D01*
X40462Y30074D01*
X40414Y30189D01*
X40338Y30288D01*
X40239Y30364D01*
X40124Y30412D01*
X40095Y30416D01*
X40095Y30466D01*
X40128Y30471D01*
X40248Y30520D01*
X40351Y30599D01*
X40430Y30702D01*
X40479Y30822D01*
X40496Y30950D01*
X40479Y31078D01*
X40430Y31198D01*
X40351Y31301D01*
X40248Y31380D01*
X40141Y31424D01*
X40141Y31424D01*
Y31476D01*
X40141Y31476D01*
X40248Y31520D01*
X40351Y31599D01*
X40430Y31702D01*
X40479Y31822D01*
X40496Y31950D01*
X40479Y32078D01*
X40430Y32198D01*
X40351Y32301D01*
X40248Y32380D01*
X40141Y32424D01*
X40141Y32424D01*
Y32476D01*
X40141Y32476D01*
X40248Y32520D01*
X40351Y32599D01*
X40430Y32702D01*
X40479Y32822D01*
X40496Y32950D01*
X40479Y33078D01*
X40430Y33198D01*
X40351Y33301D01*
X40248Y33380D01*
X40142Y33424D01*
X40141Y33428D01*
X40143Y33476D01*
X40250Y33520D01*
X40353Y33599D01*
X40432Y33702D01*
X40481Y33822D01*
X40498Y33950D01*
X40481Y34078D01*
X40432Y34198D01*
X40353Y34301D01*
X40250Y34380D01*
X40130Y34429D01*
X40002Y34446D01*
D02*
G37*
G36*
X16600Y30550D02*
X16304D01*
X16309Y30509D01*
X16344Y30423D01*
X16400Y30350D01*
X16473Y30294D01*
X16559Y30259D01*
X16600Y30254D01*
Y30550D01*
D02*
G37*
G36*
X16996D02*
X16700D01*
Y30254D01*
X16741Y30259D01*
X16827Y30294D01*
X16900Y30350D01*
X16956Y30423D01*
X16991Y30509D01*
X16996Y30550D01*
D02*
G37*
G36*
X40472Y29900D02*
X40050D01*
Y29478D01*
X40124Y29488D01*
X40239Y29536D01*
X40338Y29612D01*
X40414Y29711D01*
X40462Y29826D01*
X40472Y29900D01*
D02*
G37*
G36*
X21650Y29812D02*
X21592Y29804D01*
X21491Y29762D01*
X21404Y29696D01*
X21338Y29609D01*
X21296Y29508D01*
X21288Y29450D01*
X21650D01*
Y29812D01*
D02*
G37*
G36*
X21750D02*
Y29450D01*
X22112D01*
X22104Y29508D01*
X22062Y29609D01*
X21996Y29696D01*
X21909Y29762D01*
X21808Y29804D01*
X21750Y29812D01*
D02*
G37*
G36*
X39950Y29900D02*
X39528D01*
X39538Y29826D01*
X39586Y29711D01*
X39662Y29612D01*
X39761Y29536D01*
X39876Y29488D01*
X39950Y29478D01*
Y29900D01*
D02*
G37*
G36*
X23750Y31250D02*
X23408D01*
X23415Y31197D01*
X23455Y31101D01*
X23518Y31018D01*
X23601Y30955D01*
X23697Y30915D01*
X23750Y30908D01*
Y31250D01*
D02*
G37*
G36*
X25292D02*
X24950D01*
Y30908D01*
X25003Y30915D01*
X25099Y30955D01*
X25182Y31018D01*
X25245Y31101D01*
X25285Y31197D01*
X25292Y31250D01*
D02*
G37*
G36*
X23750Y31692D02*
X23697Y31685D01*
X23601Y31645D01*
X23518Y31582D01*
X23455Y31499D01*
X23415Y31403D01*
X23408Y31350D01*
X23750D01*
Y31692D01*
D02*
G37*
G36*
X23007Y31713D02*
X22593D01*
X22387Y31507D01*
Y31093D01*
X22593Y30887D01*
X23007D01*
X23213Y31093D01*
Y31507D01*
X23007Y31713D01*
D02*
G37*
G36*
X16600Y30946D02*
X16559Y30941D01*
X16473Y30906D01*
X16400Y30850D01*
X16344Y30777D01*
X16309Y30691D01*
X16304Y30650D01*
X16600D01*
Y30946D01*
D02*
G37*
G36*
X16700D02*
Y30650D01*
X16996D01*
X16991Y30691D01*
X16956Y30777D01*
X16900Y30850D01*
X16827Y30906D01*
X16741Y30941D01*
X16700Y30946D01*
D02*
G37*
G36*
X21072Y31305D02*
X20900D01*
Y30828D01*
X20935Y30835D01*
X21007Y30883D01*
X21055Y30955D01*
X21072Y31040D01*
Y31305D01*
D02*
G37*
G36*
X15814Y27871D02*
Y27430D01*
X16256D01*
X16245Y27508D01*
X16195Y27629D01*
X16116Y27732D01*
X16013Y27811D01*
X15893Y27861D01*
X15814Y27871D01*
D02*
G37*
G36*
X33100Y27811D02*
X32774D01*
Y27554D01*
X33100D01*
Y27811D01*
D02*
G37*
G36*
X33526D02*
X33200D01*
Y27554D01*
X33526D01*
Y27811D01*
D02*
G37*
G36*
X15714Y27871D02*
X15635Y27861D01*
X15515Y27811D01*
X15412Y27732D01*
X15333Y27629D01*
X15283Y27508D01*
X15273Y27430D01*
X15714D01*
Y27871D01*
D02*
G37*
G36*
X16256Y27330D02*
X15814D01*
Y26888D01*
X15893Y26899D01*
X16013Y26948D01*
X16116Y27027D01*
X16195Y27131D01*
X16245Y27251D01*
X16256Y27330D01*
D02*
G37*
G36*
X33100Y27454D02*
X32774D01*
Y27198D01*
X33100D01*
Y27454D01*
D02*
G37*
G36*
X33526D02*
X33200D01*
Y27198D01*
X33526D01*
Y27454D01*
D02*
G37*
G36*
X22112Y29350D02*
X21750D01*
Y28988D01*
X21808Y28996D01*
X21909Y29038D01*
X21996Y29104D01*
X22062Y29191D01*
X22104Y29292D01*
X22112Y29350D01*
D02*
G37*
G36*
X27300Y29496D02*
X27259Y29491D01*
X27173Y29456D01*
X27100Y29400D01*
X27044Y29327D01*
X27009Y29241D01*
X27004Y29200D01*
X27300D01*
Y29496D01*
D02*
G37*
G36*
X27400D02*
Y29200D01*
X27696D01*
X27691Y29241D01*
X27656Y29327D01*
X27600Y29400D01*
X27527Y29456D01*
X27441Y29491D01*
X27400Y29496D01*
D02*
G37*
G36*
X21650Y29350D02*
X21288D01*
X21296Y29292D01*
X21338Y29191D01*
X21404Y29104D01*
X21491Y29038D01*
X21592Y28996D01*
X21650Y28988D01*
Y29350D01*
D02*
G37*
G36*
X34500Y29271D02*
X34404Y29259D01*
X34314Y29222D01*
X34237Y29163D01*
X34178Y29086D01*
X34176Y29081D01*
X32250D01*
X32181Y29067D01*
X32122Y29028D01*
X31522Y28428D01*
X31483Y28369D01*
X31469Y28300D01*
Y26874D01*
X31464Y26872D01*
X31387Y26813D01*
X31328Y26736D01*
X31326Y26731D01*
X31279D01*
Y26944D01*
X30630D01*
Y26156D01*
X31279D01*
Y26369D01*
X31326D01*
X31328Y26364D01*
X31387Y26287D01*
X31464Y26228D01*
X31554Y26191D01*
X31650Y26179D01*
X31746Y26191D01*
X31836Y26228D01*
X31913Y26287D01*
X31972Y26364D01*
X32009Y26454D01*
X32021Y26550D01*
X32009Y26646D01*
X31972Y26736D01*
X31913Y26813D01*
X31836Y26872D01*
X31831Y26874D01*
Y28225D01*
X32325Y28719D01*
X34176D01*
X34178Y28714D01*
X34237Y28637D01*
X34314Y28578D01*
X34404Y28541D01*
X34500Y28529D01*
X34596Y28541D01*
X34686Y28578D01*
X34763Y28637D01*
X34822Y28714D01*
X34859Y28804D01*
X34871Y28900D01*
X34859Y28996D01*
X34822Y29086D01*
X34763Y29163D01*
X34686Y29222D01*
X34596Y29259D01*
X34500Y29271D01*
D02*
G37*
G36*
X27300Y29100D02*
X27004D01*
X27009Y29059D01*
X27044Y28973D01*
X27100Y28900D01*
X27173Y28844D01*
X27259Y28809D01*
X27300Y28804D01*
Y29100D01*
D02*
G37*
G36*
X27696D02*
X27400D01*
Y28804D01*
X27441Y28809D01*
X27527Y28844D01*
X27600Y28900D01*
X27656Y28973D01*
X27691Y29059D01*
X27696Y29100D01*
D02*
G37*
G36*
X24950Y31692D02*
Y31350D01*
X25292D01*
X25285Y31403D01*
X25245Y31499D01*
X25182Y31582D01*
X25099Y31645D01*
X25003Y31685D01*
X24950Y31692D01*
D02*
G37*
G36*
X43500Y33346D02*
X43459Y33341D01*
X43373Y33306D01*
X43300Y33250D01*
X43244Y33177D01*
X43209Y33091D01*
X43204Y33050D01*
X43500D01*
Y33346D01*
D02*
G37*
G36*
X43600D02*
Y33050D01*
X43896D01*
X43891Y33091D01*
X43856Y33177D01*
X43800Y33250D01*
X43727Y33306D01*
X43641Y33341D01*
X43600Y33346D01*
D02*
G37*
G36*
X52350Y33689D02*
X51988D01*
X51996Y33631D01*
X52038Y33530D01*
X52104Y33443D01*
X52191Y33377D01*
X52292Y33335D01*
X52350Y33327D01*
Y33689D01*
D02*
G37*
G36*
X56350Y33246D02*
Y32950D01*
X56646D01*
X56641Y32991D01*
X56606Y33077D01*
X56550Y33150D01*
X56477Y33206D01*
X56391Y33241D01*
X56350Y33246D01*
D02*
G37*
G36*
X32750Y33096D02*
X32709Y33091D01*
X32623Y33056D01*
X32550Y33000D01*
X32494Y32927D01*
X32459Y32841D01*
X32454Y32800D01*
X32750D01*
Y33096D01*
D02*
G37*
G36*
X32850D02*
Y32800D01*
X33146D01*
X33141Y32841D01*
X33106Y32927D01*
X33050Y33000D01*
X32977Y33056D01*
X32891Y33091D01*
X32850Y33096D01*
D02*
G37*
G36*
X56250Y33246D02*
X56209Y33241D01*
X56123Y33206D01*
X56050Y33150D01*
X55994Y33077D01*
X55959Y32991D01*
X55954Y32950D01*
X56250D01*
Y33246D01*
D02*
G37*
G36*
X52450Y34151D02*
Y33789D01*
X52812D01*
X52804Y33847D01*
X52762Y33948D01*
X52696Y34035D01*
X52609Y34101D01*
X52508Y34143D01*
X52450Y34151D01*
D02*
G37*
G36*
X31199Y35644D02*
X30589D01*
Y34856D01*
X31199D01*
Y34936D01*
X31356D01*
Y34851D01*
X31569D01*
Y34524D01*
X31564Y34522D01*
X31487Y34463D01*
X31428Y34386D01*
X31391Y34296D01*
X31379Y34200D01*
X31391Y34104D01*
X31428Y34014D01*
X31487Y33937D01*
X31564Y33878D01*
X31654Y33841D01*
X31750Y33829D01*
X31846Y33841D01*
X31936Y33878D01*
X32013Y33937D01*
X32072Y34014D01*
X32109Y34104D01*
X32121Y34200D01*
X32109Y34296D01*
X32072Y34386D01*
X32013Y34463D01*
X31936Y34522D01*
X31931Y34524D01*
Y34851D01*
X32144D01*
Y35461D01*
X31356D01*
Y35377D01*
X31199D01*
Y35644D01*
D02*
G37*
G36*
X33144Y35461D02*
X32356D01*
Y34851D01*
X32569D01*
Y34524D01*
X32564Y34522D01*
X32487Y34463D01*
X32428Y34386D01*
X32391Y34296D01*
X32379Y34200D01*
X32391Y34104D01*
X32428Y34014D01*
X32487Y33937D01*
X32564Y33878D01*
X32654Y33841D01*
X32750Y33829D01*
X32846Y33841D01*
X32936Y33878D01*
X33013Y33937D01*
X33072Y34014D01*
X33109Y34104D01*
X33121Y34200D01*
X33109Y34296D01*
X33072Y34386D01*
X33013Y34463D01*
X32936Y34522D01*
X32931Y34524D01*
Y34851D01*
X33144D01*
Y35461D01*
D02*
G37*
G36*
X52350Y34151D02*
X52292Y34143D01*
X52191Y34101D01*
X52104Y34035D01*
X52038Y33948D01*
X51996Y33847D01*
X51988Y33789D01*
X52350D01*
Y34151D01*
D02*
G37*
G36*
X52812Y33689D02*
X52450D01*
Y33327D01*
X52508Y33335D01*
X52609Y33377D01*
X52696Y33443D01*
X52762Y33530D01*
X52804Y33631D01*
X52812Y33689D01*
D02*
G37*
G36*
X48050Y34000D02*
X47708D01*
X47715Y33947D01*
X47755Y33851D01*
X47818Y33768D01*
X47901Y33705D01*
X47997Y33665D01*
X48050Y33658D01*
Y34000D01*
D02*
G37*
G36*
X48492D02*
X48150D01*
Y33658D01*
X48203Y33665D01*
X48299Y33705D01*
X48382Y33768D01*
X48445Y33851D01*
X48485Y33947D01*
X48492Y34000D01*
D02*
G37*
G36*
X22096Y32000D02*
X21800D01*
Y31704D01*
X21841Y31709D01*
X21927Y31744D01*
X22000Y31800D01*
X22056Y31873D01*
X22091Y31959D01*
X22096Y32000D01*
D02*
G37*
G36*
X59600Y32296D02*
X59559Y32291D01*
X59473Y32256D01*
X59400Y32200D01*
X59344Y32127D01*
X59309Y32041D01*
X59304Y32000D01*
X59600D01*
Y32296D01*
D02*
G37*
G36*
X59700D02*
Y32000D01*
X59996D01*
X59991Y32041D01*
X59956Y32127D01*
X59900Y32200D01*
X59827Y32256D01*
X59741Y32291D01*
X59700Y32296D01*
D02*
G37*
G36*
X21700Y32000D02*
X21404D01*
X21409Y31959D01*
X21444Y31873D01*
X21500Y31800D01*
X21573Y31744D01*
X21659Y31709D01*
X21700Y31704D01*
Y32000D01*
D02*
G37*
G36*
X20900Y31883D02*
Y31405D01*
X21072D01*
Y31670D01*
X21055Y31755D01*
X21007Y31827D01*
X20935Y31876D01*
X20900Y31883D01*
D02*
G37*
G36*
X59600Y31900D02*
X59304D01*
X59309Y31859D01*
X59344Y31773D01*
X59400Y31700D01*
X59473Y31644D01*
X59559Y31609D01*
X59600Y31604D01*
Y31900D01*
D02*
G37*
G36*
X59996D02*
X59700D01*
Y31604D01*
X59741Y31609D01*
X59827Y31644D01*
X59900Y31700D01*
X59956Y31773D01*
X59991Y31859D01*
X59996Y31900D01*
D02*
G37*
G36*
X56646Y32850D02*
X56350D01*
Y32554D01*
X56391Y32559D01*
X56477Y32594D01*
X56550Y32650D01*
X56606Y32723D01*
X56641Y32809D01*
X56646Y32850D01*
D02*
G37*
G36*
X43500Y32950D02*
X43204D01*
X43209Y32909D01*
X43244Y32823D01*
X43300Y32750D01*
X43373Y32694D01*
X43459Y32659D01*
X43500Y32654D01*
Y32950D01*
D02*
G37*
G36*
X43896D02*
X43600D01*
Y32654D01*
X43641Y32659D01*
X43727Y32694D01*
X43800Y32750D01*
X43856Y32823D01*
X43891Y32909D01*
X43896Y32950D01*
D02*
G37*
G36*
X56250Y32850D02*
X55954D01*
X55959Y32809D01*
X55994Y32723D01*
X56050Y32650D01*
X56123Y32594D01*
X56209Y32559D01*
X56250Y32554D01*
Y32850D01*
D02*
G37*
G36*
X32750Y32700D02*
X32454D01*
X32459Y32659D01*
X32494Y32573D01*
X32550Y32500D01*
X32623Y32444D01*
X32709Y32409D01*
X32750Y32404D01*
Y32700D01*
D02*
G37*
G36*
X33146D02*
X32850D01*
Y32404D01*
X32891Y32409D01*
X32977Y32444D01*
X33050Y32500D01*
X33106Y32573D01*
X33141Y32659D01*
X33146Y32700D01*
D02*
G37*
G36*
X27641Y34000D02*
X26659D01*
X26669Y33921D01*
X26719Y33801D01*
X26798Y33698D01*
X26901Y33619D01*
X26978Y33587D01*
Y33533D01*
X26892Y33497D01*
X26785Y33415D01*
X26703Y33308D01*
X26651Y33184D01*
X26634Y33050D01*
X26651Y32916D01*
X26703Y32792D01*
X26785Y32685D01*
X26892Y32603D01*
X27016Y32551D01*
X27150Y32534D01*
X27284Y32551D01*
X27408Y32603D01*
X27515Y32685D01*
X27597Y32792D01*
X27649Y32916D01*
X27666Y33050D01*
X27649Y33184D01*
X27597Y33308D01*
X27515Y33415D01*
X27408Y33497D01*
X27322Y33533D01*
Y33587D01*
X27399Y33619D01*
X27502Y33698D01*
X27581Y33801D01*
X27631Y33921D01*
X27641Y34000D01*
D02*
G37*
%LPD*%
D10*
X20696Y25750D02*
D03*
X21404D02*
D03*
D11*
X33150Y27504D02*
D03*
Y26796D02*
D03*
X31700Y24346D02*
D03*
Y25054D02*
D03*
X19350Y17596D02*
D03*
Y18304D02*
D03*
X54650Y35004D02*
D03*
Y34296D02*
D03*
X47400Y35746D02*
D03*
Y36454D02*
D03*
D12*
X33904Y24800D02*
D03*
X33196D02*
D03*
X30246Y26550D02*
D03*
X30954D02*
D03*
X59296Y36900D02*
D03*
X60004D02*
D03*
X54804Y35950D02*
D03*
X54096D02*
D03*
D13*
X35100Y17344D02*
D03*
Y16556D02*
D03*
X36100Y17344D02*
D03*
Y16556D02*
D03*
X37100Y17344D02*
D03*
Y16556D02*
D03*
X31300Y17394D02*
D03*
Y16606D02*
D03*
X45150Y13794D02*
D03*
Y13006D02*
D03*
X19800Y35056D02*
D03*
Y35844D02*
D03*
X20750Y35056D02*
D03*
Y35844D02*
D03*
X34800Y35156D02*
D03*
Y35944D02*
D03*
X35750Y35156D02*
D03*
Y35944D02*
D03*
X31750Y35156D02*
D03*
Y35944D02*
D03*
X33150Y17344D02*
D03*
Y16556D02*
D03*
X34100Y17344D02*
D03*
Y16556D02*
D03*
X23900Y13444D02*
D03*
Y12656D02*
D03*
Y14794D02*
D03*
Y14006D02*
D03*
X19400Y13394D02*
D03*
Y12606D02*
D03*
Y14694D02*
D03*
Y13906D02*
D03*
X32750Y35156D02*
D03*
Y35944D02*
D03*
X40350Y20944D02*
D03*
Y20156D02*
D03*
D14*
X23400Y18873D02*
D03*
X22900D02*
D03*
X22400D02*
D03*
X21900D02*
D03*
X21400D02*
D03*
X20900D02*
D03*
X20400D02*
D03*
X23400Y16727D02*
D03*
X22900D02*
D03*
X22400D02*
D03*
X21900D02*
D03*
X21400D02*
D03*
X20900D02*
D03*
X20400D02*
D03*
D15*
X27394Y19050D02*
D03*
X26606D02*
D03*
X27394Y18100D02*
D03*
X26606D02*
D03*
X25794Y37650D02*
D03*
X25006D02*
D03*
X19306Y26850D02*
D03*
X20094D02*
D03*
X19544Y24200D02*
D03*
X18756D02*
D03*
X30106Y35250D02*
D03*
X30894D02*
D03*
D16*
X37100Y18974D02*
D03*
Y18226D02*
D03*
X36100Y18974D02*
D03*
Y18226D02*
D03*
X35100Y18974D02*
D03*
Y18226D02*
D03*
X33150Y18974D02*
D03*
Y18226D02*
D03*
X34100Y18974D02*
D03*
Y18226D02*
D03*
D17*
X42347Y13050D02*
D03*
X43253Y13424D02*
D03*
Y12676D02*
D03*
X25653Y13050D02*
D03*
X24747Y12676D02*
D03*
Y13424D02*
D03*
X21153Y13000D02*
D03*
X20247Y12626D02*
D03*
Y13374D02*
D03*
D18*
X44200Y12550D02*
D03*
Y13950D02*
D03*
D19*
X46278Y14934D02*
D03*
Y12966D02*
D03*
X49822D02*
D03*
Y14934D02*
D03*
D20*
X60684Y35822D02*
D03*
X58716D02*
D03*
Y32278D02*
D03*
X60684D02*
D03*
D21*
X47400Y38074D02*
D03*
Y37326D02*
D03*
D22*
X19350Y31355D02*
D03*
X19850D02*
D03*
X20350D02*
D03*
X20850D02*
D03*
X19350Y33245D02*
D03*
X19850D02*
D03*
X20350D02*
D03*
X20850D02*
D03*
D23*
X19550Y25147D02*
D03*
X19176Y26053D02*
D03*
X19924D02*
D03*
D24*
X22400Y16727D02*
Y17350D01*
X22200Y17550D02*
X22400Y17350D01*
X21600Y17550D02*
X22200D01*
X21400Y17350D02*
X21600Y17550D01*
X21400Y16727D02*
Y17350D01*
X27450Y19106D02*
Y19654D01*
X27394Y19050D02*
X27450Y19106D01*
X19400Y14694D02*
Y15200D01*
X19600Y15400D01*
X22550D01*
X22900Y15750D01*
Y16727D01*
X18700Y28300D02*
Y29400D01*
Y28300D02*
X19306Y27694D01*
Y26850D02*
Y27694D01*
X30750Y36650D02*
Y37650D01*
X30106Y36006D02*
X30750Y36650D01*
X30106Y35250D02*
Y36006D01*
X29300Y14400D02*
Y14900D01*
X29000Y15200D02*
X29300Y14900D01*
X26200Y15200D02*
X29000D01*
X25653Y14653D02*
X26200Y15200D01*
X25653Y13050D02*
Y14653D01*
X22050Y13000D02*
X22300Y12750D01*
X21153Y13000D02*
X22050D01*
X23050Y18100D02*
X23400Y17750D01*
X19350Y18304D02*
X20396D01*
X22400Y18100D02*
X23050D01*
X19350Y17596D02*
X21246D01*
X23400Y16727D02*
Y17750D01*
X22400Y18873D02*
X22900D01*
X21400Y18100D02*
X22400D01*
X20900Y18350D02*
X21150Y18100D01*
X20396Y18304D02*
Y18868D01*
X20900Y18350D02*
Y18873D01*
X21400Y18100D02*
Y18873D01*
Y17750D02*
Y18100D01*
X22400D02*
Y18873D01*
X20400Y16727D02*
X20900D01*
X21150Y18100D02*
X21400D01*
X21246Y17596D02*
X21400Y17750D01*
X36100Y17344D02*
Y18226D01*
X37100Y17344D02*
Y18226D01*
X35100Y17344D02*
Y18226D01*
X34100Y17344D02*
Y18226D01*
X33150Y17344D02*
Y18226D01*
X31300Y14400D02*
Y16556D01*
X32800Y13900D02*
X33300Y13400D01*
X32800Y13900D02*
Y14150D01*
Y14700D02*
Y15350D01*
X33150Y15700D01*
Y16556D01*
X33300Y14400D02*
Y15100D01*
X34100Y15900D01*
Y16556D01*
X33800Y13950D02*
X34300Y13450D01*
X33800Y14650D02*
Y15000D01*
X34250Y15450D01*
X34800D01*
X35100Y15750D01*
Y16556D01*
X34300Y14400D02*
Y14850D01*
X34550Y15100D01*
X35500D01*
X36100Y15700D01*
Y16556D01*
X35300Y13400D02*
X36250D01*
X37100Y14250D01*
Y16556D01*
X25600Y13050D02*
X25653D01*
X24850Y19400D02*
Y20700D01*
Y19400D02*
X26150Y18100D01*
X26606D01*
X25800Y19300D02*
Y20750D01*
Y19300D02*
X26050Y19050D01*
X26606D01*
X21750Y32050D02*
X23550D01*
X23800Y31800D01*
Y31300D02*
Y31800D01*
X19420Y12626D02*
X20247D01*
X19420Y13374D02*
X20247D01*
X19400Y13394D02*
X19420Y13374D01*
X19400Y13394D02*
Y13906D01*
X23900Y12656D02*
X24728D01*
X23900Y13444D02*
Y14106D01*
Y13444D02*
X23920Y13424D01*
X24747D01*
X21404Y24704D02*
Y25750D01*
X20094Y26850D02*
X21350D01*
X21400Y26900D01*
X20400Y25750D02*
X20696D01*
X20250Y25600D02*
X20400Y25750D01*
X19629Y25600D02*
X20250D01*
X19176Y26053D02*
X19629Y25600D01*
X20094Y26444D02*
Y26850D01*
X19924Y26274D02*
X20094Y26444D01*
X19924Y26053D02*
Y26274D01*
X19176Y26053D02*
Y26376D01*
X19306Y26506D01*
Y26850D01*
X19544Y24200D02*
Y25141D01*
X18700Y24144D02*
X18756Y24200D01*
X20850Y31355D02*
X21505D01*
X21750Y31600D01*
Y32050D01*
X18645Y31355D02*
X19350D01*
X18450Y31550D02*
X18645Y31355D01*
X18450Y31550D02*
Y32000D01*
X21700Y29400D02*
Y30200D01*
X21550Y30350D02*
X21700Y30200D01*
X21150Y30350D02*
X21550D01*
X20850Y30650D02*
X21150Y30350D01*
X20850Y30650D02*
Y31355D01*
X20700Y29400D02*
Y30150D01*
X20350Y30500D02*
X20700Y30150D01*
X20350Y30500D02*
Y31355D01*
X19700Y29400D02*
Y30150D01*
X19850Y30300D01*
Y31355D01*
X19350Y30600D02*
Y31355D01*
X18700Y29950D02*
X19350Y30600D01*
X18700Y29400D02*
Y29950D01*
X23800Y34300D02*
X24900D01*
X25900D02*
Y35550D01*
X25794Y35656D02*
X25900Y35550D01*
X25794Y35656D02*
Y37650D01*
X23800D02*
X25006D01*
X21800Y35550D02*
Y37650D01*
Y33600D02*
Y35550D01*
X23600D01*
X23800Y35350D01*
Y34300D02*
Y35350D01*
X19850Y33245D02*
Y34150D01*
X19800Y34200D02*
X19850Y34150D01*
X19800Y34200D02*
Y35056D01*
X18800Y33795D02*
X19350Y33245D01*
X18800Y33795D02*
Y37650D01*
X20350Y33245D02*
Y34250D01*
X20750Y34650D01*
Y35056D01*
X20850Y33245D02*
X21445D01*
X21800Y33600D01*
X19800Y35844D02*
Y37650D01*
X20750Y35844D02*
Y37600D01*
X40950Y13050D02*
X42347D01*
X40400Y13600D02*
X40950Y13050D01*
X40400Y13600D02*
Y16300D01*
X42256Y15850D02*
Y16744D01*
Y14900D02*
Y15850D01*
X45150Y14900D02*
Y15550D01*
X44850Y15850D02*
X45150Y15550D01*
X42256Y15850D02*
X44850D01*
X41800Y17200D02*
X42256Y16744D01*
X39750Y17200D02*
X41800D01*
X39400Y16850D02*
X39750Y17200D01*
X39400Y16300D02*
Y16850D01*
X45184Y14934D02*
X46278D01*
X45150Y14900D02*
X45184Y14934D01*
X45150Y13794D02*
Y14900D01*
X44200Y13950D02*
Y14650D01*
X43950Y14900D02*
X44200Y14650D01*
X43044Y14900D02*
X43950D01*
X43450Y13950D02*
X44200D01*
X43253Y13753D02*
X43450Y13950D01*
X43253Y13424D02*
Y13753D01*
Y12676D02*
X44901D01*
X45191Y12966D01*
X46278D01*
X35750Y35944D02*
Y37650D01*
X34750Y35994D02*
Y37650D01*
X31750Y35944D02*
Y37650D01*
X32750Y35944D02*
Y37650D01*
X30987Y35156D02*
X31750D01*
X40400Y19300D02*
Y20106D01*
X30550Y20750D02*
X30800Y21000D01*
X25800Y20750D02*
X30550D01*
X24850Y20700D02*
Y21050D01*
X25150Y21350D01*
X29800D01*
X31300Y17394D02*
Y18600D01*
X27444D02*
X31300D01*
X27394Y18650D02*
X27444Y18600D01*
X27394Y18100D02*
Y18650D01*
Y19050D01*
Y17094D02*
Y18100D01*
X27000Y16700D02*
X27394Y17094D01*
X24800Y16700D02*
X27000D01*
X24200Y17300D02*
X24800Y16700D01*
X24200Y17300D02*
Y19500D01*
X23750Y19950D02*
X24200Y19500D01*
X23900Y14794D02*
Y15900D01*
X38650Y20944D02*
X40350D01*
X38650D02*
Y23400D01*
X37100Y22300D02*
X37900D01*
X29750Y23000D02*
X36400D01*
X37100Y22300D01*
X29400Y23350D02*
X29750Y23000D01*
X29400Y23350D02*
Y23600D01*
X20696Y19950D02*
Y25750D01*
X20400Y18873D02*
Y19650D01*
X20700Y19950D01*
X23750D01*
X24272Y29822D02*
X24278D01*
X17750Y31450D02*
X18174Y31026D01*
X17750Y31450D02*
Y32200D01*
X18100Y32550D01*
X18174Y25576D02*
Y31026D01*
Y25576D02*
X19120Y24630D01*
X18400Y19550D02*
X19120Y20270D01*
Y24630D01*
X18400Y17200D02*
Y19550D01*
Y17200D02*
X18873Y16727D01*
X20400D01*
X18100Y32550D02*
X23750D01*
X24272Y32028D01*
X21900Y16150D02*
Y16727D01*
X18750Y16150D02*
X21900D01*
X16700Y18200D02*
X18750Y16150D01*
X16700Y18200D02*
Y28600D01*
X24272Y30550D02*
X25950D01*
X24272Y29822D02*
Y30550D01*
Y32028D01*
X20700Y28750D02*
Y29400D01*
Y28750D02*
X21000Y28450D01*
X24400D01*
X36400Y24950D02*
X36550Y24800D01*
Y24200D02*
Y24800D01*
X36750Y25300D02*
X37450Y24600D01*
X24400Y28450D02*
X26550Y30600D01*
X35250D01*
X35950Y29900D01*
Y25500D02*
Y29900D01*
X25900Y31300D02*
X35750D01*
X36750Y30300D01*
Y25300D02*
Y30300D01*
X25950Y30550D02*
X26350Y30950D01*
X35500D01*
X36400Y30050D01*
Y24950D02*
Y30050D01*
X19700Y28450D02*
Y29400D01*
Y28450D02*
X20100Y28050D01*
X24550D01*
X26700Y30200D01*
X35400Y25050D02*
X35800Y24650D01*
X26700Y30200D02*
X35100D01*
X35400Y29900D01*
Y25050D02*
Y29900D01*
D25*
X32650Y25700D02*
X32750D01*
X32650Y25346D02*
X33196Y24800D01*
X32804Y26450D02*
X33150Y26796D01*
X30954Y26550D02*
X31650D01*
X32800Y26050D02*
Y26450D01*
X31700Y25054D02*
Y25700D01*
X32800Y26450D02*
X32804D01*
X32800Y14150D02*
Y14700D01*
X33800Y13950D02*
Y14650D01*
X32500Y21050D02*
X32700D01*
X34100Y18974D02*
Y20300D01*
X35100Y18974D02*
Y20250D01*
X35400Y21000D02*
X36100Y20300D01*
Y18974D02*
Y20300D01*
X36450Y21000D02*
X37100Y20350D01*
X19550Y22550D02*
Y24194D01*
X31450Y21800D02*
X31500Y21850D01*
X22000Y21800D02*
X31450D01*
X31300Y18600D02*
X37950D01*
X38650Y19300D01*
Y21500D01*
X40450Y28150D02*
X41600D01*
X42050Y27700D01*
X37100Y18974D02*
Y20350D01*
X34350Y21000D02*
X35100Y20250D01*
X32700Y21050D02*
X33150Y20600D01*
Y18974D02*
Y20600D01*
X33350Y21050D02*
X34100Y20300D01*
X40050Y22650D02*
X41250D01*
X37350Y21500D02*
X37800D01*
X36250Y22600D02*
X37350Y21500D01*
X36050Y22300D02*
X38050Y20300D01*
X28900Y22300D02*
X36050D01*
X28450Y22750D02*
X28900Y22300D01*
X28450Y22750D02*
Y28300D01*
X28812Y26462D02*
X28850Y26500D01*
X28812Y22951D02*
Y26462D01*
Y22951D02*
X29163Y22600D01*
X36250D01*
X41650Y28700D02*
X42250Y28100D01*
Y19050D02*
Y28100D01*
X37800Y17250D02*
Y17450D01*
X37550Y17000D02*
X37800Y17250D01*
X31744Y17000D02*
X37550D01*
X31300Y16556D02*
X31744Y17000D01*
X37800Y17450D02*
X38950Y18600D01*
X41800D01*
X42250Y19050D01*
X41250Y22650D02*
X42050Y23450D01*
Y27700D01*
X34750Y34150D02*
Y35106D01*
X31750Y34050D02*
Y35156D01*
X35750Y34200D02*
Y35156D01*
X32750Y34956D02*
X32850Y35056D01*
X32750Y34200D02*
Y34956D01*
X37300Y25700D02*
Y26050D01*
X39950Y28700D01*
X41650D01*
X31650Y26550D02*
Y28300D01*
X32250Y28900D01*
X34500D01*
X39550Y36950D02*
X40674Y38074D01*
X47400D01*
D26*
X32750Y25700D02*
X32800Y25750D01*
Y26050D01*
X31700Y25700D02*
X32650D01*
Y25346D02*
Y25700D01*
D27*
X44600Y19850D02*
Y23250D01*
X38250Y13550D02*
Y16950D01*
X37150Y12450D02*
X38250Y13550D01*
X27250Y12450D02*
X37150D01*
X26900Y12800D02*
X27250Y12450D01*
X26900Y12800D02*
Y13850D01*
X27450Y14400D01*
X28300D01*
X47400Y35746D02*
X48100Y35046D01*
Y34050D02*
Y35046D01*
Y34050D02*
X49100D01*
X49750Y34700D01*
Y36661D01*
X47400Y36454D02*
Y37326D01*
X47435Y38039D02*
X49750D01*
X52400Y35950D02*
Y36800D01*
X52000Y37200D02*
X52400Y36800D01*
X50900Y37200D02*
X52000D01*
X50361Y36661D02*
X50900Y37200D01*
X49750Y36661D02*
X50361D01*
X52400Y32361D02*
X53311D01*
X51889D02*
X52400D01*
X54650Y34296D02*
X54704Y34350D01*
X54000Y33646D02*
X54650Y34296D01*
X51400Y32850D02*
Y35950D01*
Y32850D02*
X51889Y32361D01*
X53311D02*
X54000Y33050D01*
Y33646D01*
X54704Y34350D02*
X55300D01*
X55900Y34950D01*
X49750Y38039D02*
X52611D01*
X53400Y37250D01*
Y35950D02*
Y37250D01*
Y35950D02*
X54096D01*
X52409Y35159D02*
X54804D01*
X52400Y33739D02*
Y35150D01*
X52409Y35159D02*
Y35941D01*
X54804Y35159D02*
Y35950D01*
X55900D01*
X58750Y35787D02*
Y37000D01*
X55900Y35950D02*
X58587D01*
X56584Y38134D02*
X60684D01*
X55900Y37450D02*
X56584Y38134D01*
X55900Y36950D02*
Y37450D01*
X58750Y37000D02*
X59150D01*
X58750Y35787D02*
X59887Y34650D01*
X61700D01*
X63216Y36166D01*
X63900D01*
X60684Y38134D02*
X63900D01*
X60684Y36934D02*
Y38134D01*
X60039Y36934D02*
X60684D01*
Y35822D02*
Y36934D01*
X48347Y27653D02*
Y28750D01*
Y27653D02*
X49000Y27000D01*
X58200D01*
X59400Y28200D01*
Y29550D01*
X60684Y30834D01*
Y32278D01*
X58716Y31266D02*
Y32278D01*
X58200Y30750D02*
X58716Y31266D01*
X54850Y30750D02*
X58200D01*
X54253Y30153D02*
X54850Y30750D01*
X54253Y28750D02*
Y30153D01*
X56950Y14750D02*
X57000Y14700D01*
X51534D02*
X53000D01*
X49822Y12987D02*
X51534Y14700D01*
X51584Y12850D02*
X53000D01*
X54050Y13900D01*
Y15050D01*
X53250Y15850D02*
X54050Y15050D01*
X50737Y15850D02*
X53250D01*
X49822Y14934D02*
X50737Y15850D01*
X61250Y20350D02*
X61350Y20250D01*
X46554Y36454D02*
X47400D01*
X46050Y35950D02*
X46554Y36454D01*
X46050Y34100D02*
Y35950D01*
Y34100D02*
X47050D01*
X38250Y16950D02*
X39450Y18150D01*
X42900D01*
X44600Y19850D01*
D28*
X64150Y20234D02*
X64300Y20084D01*
X64150Y20000D02*
Y20234D01*
D29*
X39150Y26600D02*
X40000D01*
X38650Y26100D02*
X39150Y26600D01*
X32650Y23800D02*
Y25346D01*
X38625Y23425D02*
X38650Y23400D01*
Y26100D01*
X32650Y23800D02*
X33025Y23425D01*
X38625D01*
D30*
X57000Y12850D02*
D03*
X53000D02*
D03*
X57000Y14700D02*
D03*
X53000D02*
D03*
X32300Y13400D02*
D03*
Y14400D02*
D03*
X31300Y13400D02*
D03*
Y14400D02*
D03*
X30300Y13400D02*
D03*
Y14400D02*
D03*
X29300D02*
D03*
Y13400D02*
D03*
X28300Y14400D02*
D03*
Y13400D02*
D03*
X35300D02*
D03*
Y14400D02*
D03*
X34300D02*
D03*
Y13400D02*
D03*
X33300Y14400D02*
D03*
Y13400D02*
D03*
X52400Y33739D02*
D03*
X21700Y29400D02*
D03*
X20700D02*
D03*
X19700D02*
D03*
D31*
X40000Y29950D02*
D03*
Y30950D02*
D03*
Y31950D02*
D03*
Y32950D02*
D03*
X40002Y33950D02*
D03*
X18800Y37650D02*
D03*
X19800D02*
D03*
X20800D02*
D03*
X21800D02*
D03*
X22800D02*
D03*
X23800D02*
D03*
X30750D02*
D03*
X31750D02*
D03*
X32750D02*
D03*
X33750D02*
D03*
X34750D02*
D03*
X35750D02*
D03*
X40000Y26600D02*
D03*
Y25600D02*
D03*
Y24600D02*
D03*
Y23600D02*
D03*
D32*
X26911Y25700D02*
D03*
X24989D02*
D03*
X52400Y35950D02*
D03*
X51400D02*
D03*
X53400D02*
D03*
D33*
X22800Y34300D02*
D03*
X23800D02*
D03*
Y31300D02*
D03*
X25900D02*
D03*
X24900D02*
D03*
Y34300D02*
D03*
X51500Y12766D02*
D03*
Y14734D02*
D03*
X43044Y14900D02*
D03*
X63900Y36166D02*
D03*
X49750Y36661D02*
D03*
X48100Y34050D02*
D03*
X40400Y19300D02*
D03*
D34*
X22800Y31300D02*
D03*
X25900Y34300D02*
D03*
D35*
X63400Y22300D02*
D03*
Y31300D02*
D03*
X48347Y28750D02*
D03*
X46379D02*
D03*
X56221Y18750D02*
D03*
X51300D02*
D03*
X48347D02*
D03*
X46379D02*
D03*
X54253D02*
D03*
X51300Y28750D02*
D03*
X54253D02*
D03*
X56221D02*
D03*
X59166Y13600D02*
D03*
X61134D02*
D03*
X64300Y18116D02*
D03*
Y20084D02*
D03*
D36*
X55900Y36950D02*
D03*
D37*
Y35950D02*
D03*
Y34950D02*
D03*
X27150Y34050D02*
D03*
Y33050D02*
D03*
X61350Y20250D02*
D03*
Y18250D02*
D03*
X15764Y23830D02*
D03*
X17536D02*
D03*
Y21270D02*
D03*
X15764D02*
D03*
Y27380D02*
D03*
X17536D02*
D03*
Y24820D02*
D03*
X15764D02*
D03*
D38*
X16929Y33465D02*
D03*
Y15748D02*
D03*
X64173D02*
D03*
Y33465D02*
D03*
D39*
X42256Y14900D02*
D03*
X47100Y34050D02*
D03*
D40*
X63900Y38134D02*
D03*
X49750Y38039D02*
D03*
D41*
X52400Y32361D02*
D03*
D42*
X39400Y16300D02*
D03*
D43*
X40400D02*
D03*
X41400D02*
D03*
Y19300D02*
D03*
X39400D02*
D03*
D44*
X18700Y29400D02*
D03*
D45*
X33900Y24050D02*
D03*
X27450Y19654D02*
D03*
X31650Y26550D02*
D03*
X31700Y25700D02*
D03*
X32650Y25346D02*
D03*
X32800Y26050D02*
D03*
X44600Y23250D02*
D03*
X22300Y12750D02*
D03*
X24850Y20700D02*
D03*
X25800Y20750D02*
D03*
X21404Y24704D02*
D03*
X21400Y26900D02*
D03*
X21750Y32050D02*
D03*
X18450Y32000D02*
D03*
X32500Y21050D02*
D03*
X34350D02*
D03*
X30800Y21000D02*
D03*
X29800Y21350D02*
D03*
X22000Y21800D02*
D03*
X19550Y22550D02*
D03*
X31500Y21850D02*
D03*
X40450Y28150D02*
D03*
X23900Y15900D02*
D03*
X35400Y21050D02*
D03*
X36450D02*
D03*
X33350D02*
D03*
X37900Y22300D02*
D03*
X40050Y22650D02*
D03*
X37800Y21500D02*
D03*
X38050Y20300D02*
D03*
X28450Y28300D02*
D03*
X28850Y26500D02*
D03*
X29400Y23600D02*
D03*
X24278Y29822D02*
D03*
X16700Y28600D02*
D03*
X23650Y23100D02*
D03*
Y20700D02*
D03*
X22300Y14650D02*
D03*
X34750Y34200D02*
D03*
X31750D02*
D03*
X35750D02*
D03*
X32750D02*
D03*
X37450Y24600D02*
D03*
X36550Y24200D02*
D03*
X35800Y24650D02*
D03*
X35950Y25500D02*
D03*
X37300Y25700D02*
D03*
X34500Y28900D02*
D03*
X39550Y36950D02*
D03*
X42900Y35900D02*
D03*
X56300Y32900D02*
D03*
X57900Y37250D02*
D03*
X59650Y31950D02*
D03*
X43550Y33000D02*
D03*
X42950Y23350D02*
D03*
X16250Y13150D02*
D03*
X15750Y19350D02*
D03*
X17600Y19300D02*
D03*
X16650Y30600D02*
D03*
X22550Y26400D02*
D03*
X27350Y29150D02*
D03*
X32800Y32750D02*
D03*
X28400Y38400D02*
D03*
X37550Y38700D02*
D03*
X46150D02*
D03*
M02*
