%FSLAX24Y24*%
%MOIN*%
G70*
G01*
G75*
G04 Layer_Color=65535*
%ADD10R,0.0453X0.0571*%
%ADD11R,0.0551X0.0413*%
%ADD12R,0.0413X0.0551*%
%ADD13R,0.0551X0.0374*%
%ADD14O,0.0236X0.0571*%
%ADD15R,0.0374X0.0551*%
%ADD16R,0.0551X0.0354*%
%ADD17R,0.0394X0.0236*%
G04:AMPARAMS|DCode=18|XSize=55mil|YSize=60mil|CornerRadius=13.8mil|HoleSize=0mil|Usage=FLASHONLY|Rotation=90.000|XOffset=0mil|YOffset=0mil|HoleType=Round|Shape=RoundedRectangle|*
%AMROUNDEDRECTD18*
21,1,0.0550,0.0325,0,0,90.0*
21,1,0.0275,0.0600,0,0,90.0*
1,1,0.0275,0.0163,0.0138*
1,1,0.0275,0.0163,-0.0138*
1,1,0.0275,-0.0163,-0.0138*
1,1,0.0275,-0.0163,0.0138*
%
%ADD18ROUNDEDRECTD18*%
G04:AMPARAMS|DCode=19|XSize=39.4mil|YSize=98.4mil|CornerRadius=9.8mil|HoleSize=0mil|Usage=FLASHONLY|Rotation=270.000|XOffset=0mil|YOffset=0mil|HoleType=Round|Shape=RoundedRectangle|*
%AMROUNDEDRECTD19*
21,1,0.0394,0.0787,0,0,270.0*
21,1,0.0197,0.0984,0,0,270.0*
1,1,0.0197,-0.0394,-0.0098*
1,1,0.0197,-0.0394,0.0098*
1,1,0.0197,0.0394,0.0098*
1,1,0.0197,0.0394,-0.0098*
%
%ADD19ROUNDEDRECTD19*%
G04:AMPARAMS|DCode=20|XSize=39.4mil|YSize=98.4mil|CornerRadius=9.8mil|HoleSize=0mil|Usage=FLASHONLY|Rotation=180.000|XOffset=0mil|YOffset=0mil|HoleType=Round|Shape=RoundedRectangle|*
%AMROUNDEDRECTD20*
21,1,0.0394,0.0787,0,0,180.0*
21,1,0.0197,0.0984,0,0,180.0*
1,1,0.0197,-0.0098,0.0394*
1,1,0.0197,0.0098,0.0394*
1,1,0.0197,0.0098,-0.0394*
1,1,0.0197,-0.0098,-0.0394*
%
%ADD20ROUNDEDRECTD20*%
%ADD21R,0.0551X0.0413*%
%ADD22O,0.0236X0.0866*%
%ADD23R,0.0236X0.0394*%
%ADD24C,0.0197*%
%ADD25C,0.0118*%
%ADD26C,0.0315*%
%ADD27C,0.0394*%
%ADD28C,0.0100*%
%ADD29C,0.0295*%
%ADD30C,0.0630*%
%ADD31C,0.0748*%
%ADD32C,0.0551*%
%ADD33C,0.0591*%
G04:AMPARAMS|DCode=34|XSize=59.1mil|YSize=59.1mil|CornerRadius=0mil|HoleSize=0mil|Usage=FLASHONLY|Rotation=90.000|XOffset=0mil|YOffset=0mil|HoleType=Round|Shape=Octagon|*
%AMOCTAGOND34*
4,1,8,0.0148,0.0295,-0.0148,0.0295,-0.0295,0.0148,-0.0295,-0.0148,-0.0148,-0.0295,0.0148,-0.0295,0.0295,-0.0148,0.0295,0.0148,0.0148,0.0295,0.0*
%
%ADD34OCTAGOND34*%

%ADD35C,0.1181*%
%ADD36R,0.0787X0.0787*%
%ADD37C,0.0787*%
%ADD38C,0.2362*%
%ADD39R,0.0591X0.0591*%
%ADD40R,0.0591X0.0591*%
%ADD41R,0.0630X0.0630*%
%ADD42R,0.0591X0.0591*%
%ADD43C,0.0591*%
%ADD44R,0.0630X0.0630*%
%ADD45C,0.0500*%
%ADD46O,0.0709X0.0118*%
%ADD47O,0.0118X0.0709*%
%ADD48R,0.0354X0.0197*%
%ADD49R,0.0197X0.0354*%
%ADD50R,0.0689X0.0394*%
%ADD51R,0.0571X0.0453*%
%ADD52C,0.0236*%
%ADD53C,0.0098*%
%ADD54C,0.0079*%
%ADD55C,0.0039*%
%ADD56C,0.0200*%
%ADD57C,0.0050*%
%ADD58C,0.0059*%
%ADD59R,0.9850X0.0500*%
%ADD60R,0.6100X0.0484*%
%ADD61R,0.0600X0.0200*%
G36*
X51695Y21977D02*
Y21973D01*
Y21966D01*
X51694Y21958D01*
X51693Y21948D01*
X51692Y21938D01*
X51688Y21926D01*
X51685Y21915D01*
Y21914D01*
X51684Y21913D01*
X51681Y21906D01*
X51677Y21896D01*
X51670Y21883D01*
X51662Y21868D01*
X51650Y21850D01*
X51639Y21833D01*
X51624Y21815D01*
Y21813D01*
X51621Y21812D01*
X51616Y21805D01*
X51606Y21795D01*
X51592Y21781D01*
X51575Y21765D01*
X51554Y21745D01*
X51529Y21724D01*
X51501Y21699D01*
X51500Y21698D01*
X51496Y21695D01*
X51490Y21690D01*
X51482Y21682D01*
X51471Y21674D01*
X51460Y21664D01*
X51434Y21642D01*
X51407Y21615D01*
X51379Y21589D01*
X51365Y21576D01*
X51354Y21563D01*
X51343Y21551D01*
X51334Y21539D01*
Y21538D01*
X51332Y21537D01*
X51330Y21533D01*
X51327Y21529D01*
X51320Y21517D01*
X51312Y21502D01*
X51304Y21485D01*
X51297Y21466D01*
X51293Y21446D01*
X51290Y21426D01*
Y21425D01*
Y21424D01*
X51292Y21417D01*
X51293Y21406D01*
X51295Y21394D01*
X51301Y21379D01*
X51308Y21364D01*
X51317Y21348D01*
X51331Y21333D01*
X51333Y21332D01*
X51338Y21327D01*
X51347Y21321D01*
X51358Y21313D01*
X51373Y21306D01*
X51391Y21300D01*
X51411Y21296D01*
X51434Y21295D01*
X51441D01*
X51446Y21296D01*
X51458Y21297D01*
X51473Y21299D01*
X51490Y21305D01*
X51508Y21312D01*
X51526Y21322D01*
X51542Y21336D01*
X51543Y21338D01*
X51547Y21343D01*
X51554Y21352D01*
X51561Y21365D01*
X51569Y21381D01*
X51575Y21400D01*
X51580Y21421D01*
X51582Y21447D01*
X51678Y21436D01*
Y21435D01*
Y21432D01*
X51677Y21426D01*
X51675Y21419D01*
X51673Y21410D01*
X51672Y21400D01*
X51665Y21376D01*
X51656Y21350D01*
X51643Y21323D01*
X51626Y21297D01*
X51617Y21285D01*
X51605Y21274D01*
X51604Y21273D01*
X51602Y21272D01*
X51598Y21268D01*
X51594Y21265D01*
X51587Y21261D01*
X51579Y21255D01*
X51569Y21251D01*
X51559Y21245D01*
X51547Y21240D01*
X51535Y21235D01*
X51520Y21230D01*
X51505Y21227D01*
X51470Y21220D01*
X51452Y21219D01*
X51432Y21217D01*
X51422D01*
X51414Y21219D01*
X51405Y21220D01*
X51394Y21221D01*
X51383Y21222D01*
X51370Y21225D01*
X51342Y21232D01*
X51313Y21243D01*
X51298Y21250D01*
X51285Y21258D01*
X51272Y21268D01*
X51259Y21278D01*
X51258Y21280D01*
X51257Y21281D01*
X51253Y21284D01*
X51249Y21289D01*
X51244Y21296D01*
X51238Y21303D01*
X51227Y21320D01*
X51215Y21342D01*
X51205Y21367D01*
X51197Y21396D01*
X51196Y21412D01*
X51195Y21428D01*
Y21431D01*
Y21436D01*
X51196Y21446D01*
X51197Y21457D01*
X51199Y21471D01*
X51203Y21486D01*
X51207Y21502D01*
X51214Y21518D01*
X51215Y21521D01*
X51218Y21526D01*
X51222Y21534D01*
X51229Y21546D01*
X51237Y21560D01*
X51248Y21576D01*
X51262Y21592D01*
X51277Y21611D01*
X51279Y21613D01*
X51285Y21620D01*
X51295Y21630D01*
X51302Y21637D01*
X51310Y21645D01*
X51319Y21654D01*
X51331Y21665D01*
X51342Y21675D01*
X51355Y21688D01*
X51369Y21700D01*
X51385Y21714D01*
X51401Y21728D01*
X51420Y21744D01*
X51421Y21745D01*
X51423Y21748D01*
X51428Y21751D01*
X51433Y21756D01*
X51447Y21767D01*
X51464Y21782D01*
X51482Y21798D01*
X51500Y21815D01*
X51515Y21828D01*
X51521Y21834D01*
X51527Y21840D01*
X51528Y21841D01*
X51530Y21845D01*
X51535Y21849D01*
X51541Y21856D01*
X51553Y21871D01*
X51566Y21890D01*
X51194D01*
Y21978D01*
X51695D01*
Y21977D01*
D02*
G37*
G36*
X50547Y21221D02*
X50437D01*
X50241Y21771D01*
Y21772D01*
X50240Y21774D01*
X50239Y21778D01*
X50237Y21782D01*
X50233Y21795D01*
X50227Y21811D01*
X50220Y21831D01*
X50213Y21852D01*
X50201Y21895D01*
Y21894D01*
X50200Y21893D01*
X50198Y21890D01*
X50197Y21885D01*
X50194Y21872D01*
X50189Y21856D01*
X50183Y21838D01*
X50177Y21817D01*
X50168Y21794D01*
X50160Y21771D01*
X49955Y21221D01*
X49854D01*
X50150Y21978D01*
X50253D01*
X50547Y21221D01*
D02*
G37*
G36*
X52283Y21977D02*
Y21973D01*
Y21966D01*
X52282Y21958D01*
X52281Y21948D01*
X52280Y21938D01*
X52276Y21926D01*
X52273Y21915D01*
Y21914D01*
X52272Y21913D01*
X52269Y21906D01*
X52265Y21896D01*
X52258Y21883D01*
X52250Y21868D01*
X52238Y21850D01*
X52227Y21833D01*
X52212Y21815D01*
Y21813D01*
X52209Y21812D01*
X52204Y21805D01*
X52194Y21795D01*
X52180Y21781D01*
X52163Y21765D01*
X52142Y21745D01*
X52117Y21724D01*
X52089Y21699D01*
X52088Y21698D01*
X52084Y21695D01*
X52078Y21690D01*
X52070Y21682D01*
X52059Y21674D01*
X52048Y21664D01*
X52023Y21642D01*
X51995Y21615D01*
X51967Y21589D01*
X51953Y21576D01*
X51942Y21563D01*
X51931Y21551D01*
X51922Y21539D01*
Y21538D01*
X51920Y21537D01*
X51918Y21533D01*
X51915Y21529D01*
X51908Y21517D01*
X51900Y21502D01*
X51892Y21485D01*
X51885Y21466D01*
X51881Y21446D01*
X51878Y21426D01*
Y21425D01*
Y21424D01*
X51880Y21417D01*
X51881Y21406D01*
X51883Y21394D01*
X51889Y21379D01*
X51896Y21364D01*
X51905Y21348D01*
X51919Y21333D01*
X51921Y21332D01*
X51926Y21327D01*
X51935Y21321D01*
X51946Y21313D01*
X51961Y21306D01*
X51979Y21300D01*
X51999Y21296D01*
X52023Y21295D01*
X52029D01*
X52034Y21296D01*
X52046Y21297D01*
X52061Y21299D01*
X52078Y21305D01*
X52096Y21312D01*
X52114Y21322D01*
X52130Y21336D01*
X52131Y21338D01*
X52136Y21343D01*
X52142Y21352D01*
X52149Y21365D01*
X52157Y21381D01*
X52163Y21400D01*
X52168Y21421D01*
X52170Y21447D01*
X52266Y21436D01*
Y21435D01*
Y21432D01*
X52265Y21426D01*
X52263Y21419D01*
X52261Y21410D01*
X52260Y21400D01*
X52253Y21376D01*
X52244Y21350D01*
X52231Y21323D01*
X52214Y21297D01*
X52205Y21285D01*
X52193Y21274D01*
X52192Y21273D01*
X52190Y21272D01*
X52186Y21268D01*
X52182Y21265D01*
X52175Y21261D01*
X52167Y21255D01*
X52157Y21251D01*
X52147Y21245D01*
X52136Y21240D01*
X52123Y21235D01*
X52108Y21230D01*
X52093Y21227D01*
X52058Y21220D01*
X52040Y21219D01*
X52020Y21217D01*
X52010D01*
X52002Y21219D01*
X51993Y21220D01*
X51982Y21221D01*
X51971Y21222D01*
X51958Y21225D01*
X51930Y21232D01*
X51901Y21243D01*
X51886Y21250D01*
X51873Y21258D01*
X51860Y21268D01*
X51847Y21278D01*
X51846Y21280D01*
X51845Y21281D01*
X51842Y21284D01*
X51837Y21289D01*
X51832Y21296D01*
X51827Y21303D01*
X51815Y21320D01*
X51803Y21342D01*
X51793Y21367D01*
X51785Y21396D01*
X51784Y21412D01*
X51783Y21428D01*
Y21431D01*
Y21436D01*
X51784Y21446D01*
X51785Y21457D01*
X51787Y21471D01*
X51791Y21486D01*
X51795Y21502D01*
X51802Y21518D01*
X51803Y21521D01*
X51806Y21526D01*
X51810Y21534D01*
X51817Y21546D01*
X51825Y21560D01*
X51836Y21576D01*
X51850Y21592D01*
X51865Y21611D01*
X51867Y21613D01*
X51873Y21620D01*
X51883Y21630D01*
X51890Y21637D01*
X51898Y21645D01*
X51907Y21654D01*
X51919Y21665D01*
X51930Y21675D01*
X51943Y21688D01*
X51957Y21700D01*
X51973Y21714D01*
X51989Y21728D01*
X52008Y21744D01*
X52009Y21745D01*
X52011Y21748D01*
X52016Y21751D01*
X52021Y21756D01*
X52035Y21767D01*
X52052Y21782D01*
X52070Y21798D01*
X52088Y21815D01*
X52103Y21828D01*
X52109Y21834D01*
X52115Y21840D01*
X52116Y21841D01*
X52118Y21845D01*
X52123Y21849D01*
X52129Y21856D01*
X52141Y21871D01*
X52154Y21890D01*
X51782D01*
Y21978D01*
X52283D01*
Y21977D01*
D02*
G37*
G36*
X51483Y26517D02*
X51490D01*
X51499Y26516D01*
X51520Y26513D01*
X51543Y26507D01*
X51567Y26498D01*
X51590Y26486D01*
X51613Y26470D01*
X51614Y26469D01*
X51615Y26468D01*
X51622Y26461D01*
X51631Y26449D01*
X51643Y26434D01*
X51655Y26415D01*
X51665Y26391D01*
X51674Y26363D01*
X51680Y26331D01*
X51591Y26324D01*
Y26325D01*
Y26326D01*
X51590Y26330D01*
X51589Y26334D01*
X51586Y26346D01*
X51582Y26358D01*
X51576Y26373D01*
X51569Y26388D01*
X51560Y26403D01*
X51548Y26415D01*
X51547Y26416D01*
X51543Y26419D01*
X51536Y26424D01*
X51525Y26429D01*
X51514Y26433D01*
X51500Y26438D01*
X51484Y26441D01*
X51465Y26442D01*
X51458D01*
X51450Y26441D01*
X51440Y26440D01*
X51429Y26438D01*
X51416Y26434D01*
X51403Y26430D01*
X51390Y26423D01*
X51389Y26422D01*
X51385Y26419D01*
X51379Y26415D01*
X51372Y26409D01*
X51363Y26402D01*
X51355Y26393D01*
X51346Y26383D01*
X51337Y26371D01*
X51336Y26370D01*
X51334Y26365D01*
X51331Y26357D01*
X51325Y26347D01*
X51320Y26334D01*
X51314Y26319D01*
X51309Y26302D01*
X51303Y26282D01*
Y26281D01*
X51302Y26280D01*
Y26276D01*
X51301Y26273D01*
X51298Y26261D01*
X51296Y26246D01*
X51294Y26229D01*
X51291Y26211D01*
X51289Y26190D01*
Y26168D01*
Y26167D01*
Y26163D01*
Y26158D01*
Y26150D01*
X51290Y26152D01*
X51295Y26157D01*
X51301Y26166D01*
X51310Y26175D01*
X51320Y26187D01*
X51334Y26199D01*
X51349Y26211D01*
X51366Y26222D01*
X51369Y26223D01*
X51374Y26227D01*
X51385Y26230D01*
X51397Y26235D01*
X51412Y26241D01*
X51430Y26244D01*
X51449Y26248D01*
X51470Y26249D01*
X51479D01*
X51486Y26248D01*
X51494Y26246D01*
X51503Y26245D01*
X51525Y26241D01*
X51551Y26233D01*
X51563Y26227D01*
X51577Y26220D01*
X51590Y26212D01*
X51604Y26203D01*
X51616Y26192D01*
X51629Y26181D01*
X51630Y26180D01*
X51631Y26177D01*
X51635Y26174D01*
X51640Y26168D01*
X51644Y26161D01*
X51650Y26153D01*
X51656Y26144D01*
X51661Y26132D01*
X51667Y26121D01*
X51673Y26107D01*
X51679Y26092D01*
X51683Y26076D01*
X51688Y26059D01*
X51691Y26041D01*
X51693Y26022D01*
X51694Y26001D01*
Y26000D01*
Y25996D01*
Y25989D01*
X51693Y25981D01*
X51691Y25972D01*
X51690Y25961D01*
X51688Y25948D01*
X51686Y25934D01*
X51678Y25905D01*
X51672Y25889D01*
X51665Y25874D01*
X51658Y25858D01*
X51649Y25843D01*
X51638Y25829D01*
X51627Y25815D01*
X51626Y25814D01*
X51623Y25812D01*
X51620Y25808D01*
X51614Y25804D01*
X51608Y25799D01*
X51600Y25793D01*
X51591Y25786D01*
X51580Y25780D01*
X51568Y25774D01*
X51555Y25767D01*
X51527Y25755D01*
X51510Y25752D01*
X51493Y25748D01*
X51475Y25746D01*
X51456Y25745D01*
X51449D01*
X51444Y25746D01*
X51438D01*
X51430Y25747D01*
X51411Y25750D01*
X51390Y25755D01*
X51369Y25762D01*
X51344Y25771D01*
X51321Y25785D01*
X51320D01*
X51319Y25788D01*
X51316Y25790D01*
X51311Y25792D01*
X51301Y25801D01*
X51287Y25814D01*
X51272Y25831D01*
X51256Y25850D01*
X51241Y25873D01*
X51228Y25899D01*
Y25901D01*
X51227Y25903D01*
X51224Y25907D01*
X51223Y25913D01*
X51220Y25920D01*
X51218Y25929D01*
X51215Y25941D01*
X51212Y25954D01*
X51208Y25967D01*
X51206Y25984D01*
X51203Y26001D01*
X51200Y26019D01*
X51199Y26040D01*
X51197Y26062D01*
X51196Y26086D01*
Y26112D01*
Y26113D01*
Y26119D01*
Y26125D01*
Y26136D01*
X51197Y26147D01*
Y26162D01*
X51198Y26177D01*
X51199Y26195D01*
X51204Y26231D01*
X51209Y26271D01*
X51218Y26309D01*
X51222Y26326D01*
X51228Y26343D01*
Y26344D01*
X51229Y26347D01*
X51231Y26351D01*
X51234Y26357D01*
X51237Y26365D01*
X51241Y26373D01*
X51251Y26392D01*
X51265Y26414D01*
X51281Y26436D01*
X51299Y26456D01*
X51321Y26475D01*
X51322D01*
X51324Y26477D01*
X51327Y26478D01*
X51333Y26482D01*
X51339Y26485D01*
X51346Y26489D01*
X51363Y26497D01*
X51385Y26505D01*
X51409Y26512D01*
X51438Y26516D01*
X51468Y26519D01*
X51476D01*
X51483Y26517D01*
D02*
G37*
G36*
X50866Y21990D02*
X50875Y21989D01*
X50886Y21986D01*
X50897Y21984D01*
X50910Y21982D01*
X50938Y21973D01*
X50953Y21966D01*
X50966Y21959D01*
X50981Y21950D01*
X50995Y21939D01*
X51008Y21928D01*
X51021Y21914D01*
X51022Y21913D01*
X51024Y21909D01*
X51027Y21903D01*
X51032Y21895D01*
X51038Y21885D01*
X51044Y21872D01*
X51051Y21857D01*
X51057Y21839D01*
X51064Y21819D01*
X51071Y21796D01*
X51077Y21771D01*
X51083Y21743D01*
X51087Y21712D01*
X51091Y21680D01*
X51093Y21643D01*
X51094Y21605D01*
Y21604D01*
Y21599D01*
Y21592D01*
Y21583D01*
X51093Y21571D01*
Y21559D01*
X51092Y21544D01*
X51091Y21528D01*
X51087Y21493D01*
X51083Y21457D01*
X51077Y21421D01*
X51072Y21405D01*
X51068Y21389D01*
Y21388D01*
X51067Y21386D01*
X51064Y21381D01*
X51062Y21375D01*
X51060Y21368D01*
X51056Y21360D01*
X51047Y21342D01*
X51036Y21321D01*
X51022Y21300D01*
X51006Y21281D01*
X50986Y21262D01*
X50985D01*
X50984Y21260D01*
X50980Y21258D01*
X50976Y21255D01*
X50964Y21249D01*
X50948Y21239D01*
X50928Y21231D01*
X50904Y21224D01*
X50878Y21220D01*
X50848Y21217D01*
X50837D01*
X50826Y21219D01*
X50812Y21221D01*
X50796Y21223D01*
X50777Y21228D01*
X50759Y21235D01*
X50742Y21243D01*
X50739Y21244D01*
X50733Y21247D01*
X50725Y21253D01*
X50714Y21260D01*
X50702Y21270D01*
X50690Y21283D01*
X50677Y21297D01*
X50665Y21313D01*
X50664Y21315D01*
X50661Y21321D01*
X50655Y21332D01*
X50648Y21344D01*
X50641Y21360D01*
X50633Y21380D01*
X50625Y21402D01*
X50618Y21426D01*
Y21427D01*
X50617Y21430D01*
Y21433D01*
X50616Y21439D01*
X50614Y21445D01*
X50612Y21453D01*
X50611Y21463D01*
X50609Y21473D01*
X50608Y21486D01*
X50607Y21499D01*
X50604Y21514D01*
X50603Y21530D01*
X50602Y21547D01*
Y21564D01*
X50601Y21605D01*
Y21606D01*
Y21611D01*
Y21617D01*
Y21627D01*
X50602Y21638D01*
Y21651D01*
X50603Y21666D01*
X50604Y21682D01*
X50608Y21717D01*
X50612Y21752D01*
X50619Y21788D01*
X50624Y21804D01*
X50629Y21820D01*
Y21822D01*
X50630Y21824D01*
X50631Y21828D01*
X50633Y21834D01*
X50637Y21841D01*
X50640Y21848D01*
X50649Y21867D01*
X50661Y21887D01*
X50675Y21908D01*
X50691Y21929D01*
X50710Y21947D01*
X50712D01*
X50713Y21950D01*
X50716Y21951D01*
X50720Y21954D01*
X50732Y21961D01*
X50747Y21969D01*
X50768Y21977D01*
X50791Y21984D01*
X50818Y21989D01*
X50848Y21991D01*
X50858D01*
X50866Y21990D01*
D02*
G37*
G36*
X51146Y25748D02*
X51036D01*
X50840Y26298D01*
Y26300D01*
X50839Y26302D01*
X50838Y26305D01*
X50836Y26310D01*
X50832Y26323D01*
X50827Y26339D01*
X50820Y26358D01*
X50813Y26379D01*
X50800Y26423D01*
Y26422D01*
X50799Y26421D01*
X50798Y26417D01*
X50797Y26413D01*
X50793Y26400D01*
X50789Y26384D01*
X50783Y26365D01*
X50776Y26344D01*
X50768Y26321D01*
X50760Y26298D01*
X50555Y25748D01*
X50453D01*
X50749Y26506D01*
X50852D01*
X51146Y25748D01*
D02*
G37*
%LPC*%
G36*
X51447Y26167D02*
X51441D01*
X51437Y26166D01*
X51425Y26165D01*
X51410Y26161D01*
X51394Y26155D01*
X51375Y26148D01*
X51358Y26137D01*
X51342Y26122D01*
X51340Y26120D01*
X51335Y26114D01*
X51328Y26104D01*
X51320Y26090D01*
X51313Y26071D01*
X51306Y26050D01*
X51302Y26025D01*
X51299Y25997D01*
Y25996D01*
Y25994D01*
Y25989D01*
X51301Y25984D01*
Y25977D01*
X51302Y25970D01*
X51305Y25951D01*
X51310Y25931D01*
X51318Y25910D01*
X51328Y25889D01*
X51342Y25869D01*
X51344Y25867D01*
X51350Y25863D01*
X51358Y25854D01*
X51371Y25845D01*
X51386Y25837D01*
X51403Y25829D01*
X51423Y25824D01*
X51445Y25822D01*
X51450D01*
X51455Y25823D01*
X51467Y25824D01*
X51482Y25828D01*
X51499Y25835D01*
X51516Y25844D01*
X51535Y25856D01*
X51544Y25864D01*
X51553Y25873D01*
X51555Y25875D01*
X51560Y25882D01*
X51567Y25894D01*
X51575Y25909D01*
X51584Y25927D01*
X51591Y25950D01*
X51596Y25976D01*
X51598Y26004D01*
Y26005D01*
Y26008D01*
Y26011D01*
X51597Y26016D01*
X51596Y26030D01*
X51592Y26046D01*
X51588Y26065D01*
X51580Y26085D01*
X51569Y26104D01*
X51555Y26122D01*
X51553Y26124D01*
X51547Y26129D01*
X51538Y26136D01*
X51525Y26144D01*
X51509Y26153D01*
X51491Y26160D01*
X51470Y26165D01*
X51447Y26167D01*
D02*
G37*
G36*
X50848Y21915D02*
X50842D01*
X50837Y21914D01*
X50826Y21911D01*
X50811Y21907D01*
X50793Y21900D01*
X50776Y21890D01*
X50767Y21883D01*
X50758Y21873D01*
X50748Y21864D01*
X50740Y21854D01*
Y21853D01*
X50738Y21850D01*
X50736Y21847D01*
X50733Y21841D01*
X50730Y21834D01*
X50727Y21824D01*
X50723Y21812D01*
X50718Y21800D01*
X50714Y21783D01*
X50710Y21766D01*
X50707Y21745D01*
X50703Y21722D01*
X50700Y21697D01*
X50699Y21669D01*
X50697Y21638D01*
Y21605D01*
Y21602D01*
Y21597D01*
Y21587D01*
X50698Y21575D01*
Y21560D01*
X50699Y21543D01*
X50700Y21524D01*
X50702Y21503D01*
X50707Y21462D01*
X50715Y21421D01*
X50720Y21402D01*
X50725Y21385D01*
X50732Y21370D01*
X50740Y21357D01*
Y21356D01*
X50743Y21355D01*
X50748Y21348D01*
X50758Y21337D01*
X50770Y21326D01*
X50786Y21314D01*
X50805Y21304D01*
X50826Y21297D01*
X50837Y21296D01*
X50849Y21295D01*
X50855D01*
X50859Y21296D01*
X50871Y21297D01*
X50886Y21302D01*
X50902Y21308D01*
X50919Y21318D01*
X50936Y21332D01*
X50944Y21341D01*
X50951Y21350D01*
Y21351D01*
X50954Y21353D01*
X50956Y21358D01*
X50958Y21364D01*
X50962Y21372D01*
X50966Y21381D01*
X50971Y21394D01*
X50974Y21408D01*
X50979Y21424D01*
X50984Y21442D01*
X50987Y21463D01*
X50992Y21487D01*
X50994Y21513D01*
X50996Y21540D01*
X50999Y21571D01*
Y21605D01*
Y21607D01*
Y21613D01*
Y21622D01*
X50998Y21635D01*
Y21650D01*
X50996Y21667D01*
X50995Y21687D01*
X50993Y21706D01*
X50988Y21748D01*
X50980Y21789D01*
X50976Y21808D01*
X50970Y21825D01*
X50963Y21841D01*
X50956Y21854D01*
Y21855D01*
X50954Y21856D01*
X50948Y21863D01*
X50939Y21873D01*
X50926Y21884D01*
X50910Y21895D01*
X50891Y21906D01*
X50871Y21913D01*
X50859Y21914D01*
X50848Y21915D01*
D02*
G37*
%LPD*%
D25*
X28359Y12050D02*
G03*
X28359Y12050I-59J0D01*
G01*
D28*
X17152Y22550D02*
G03*
X17152Y22550I-502J0D01*
G01*
Y26100D02*
G03*
X17152Y26100I-502J0D01*
G01*
X24600Y30050D02*
X24500Y30150D01*
X24300D01*
X24200Y30050D01*
Y29950D01*
X24300Y29850D01*
X24500D01*
X24600Y29750D01*
Y29650D01*
X24500Y29550D01*
X24300D01*
X24200Y29650D01*
X24800Y29350D02*
Y29950D01*
X25100D01*
X25200Y29850D01*
Y29650D01*
X25100Y29550D01*
X24800D01*
X25400D02*
X25600D01*
X25500D01*
Y29950D01*
X25400D01*
X25899D02*
Y29550D01*
Y29750D01*
X25999Y29850D01*
X26099Y29950D01*
X26199D01*
X26599Y30050D02*
Y29950D01*
X26499D01*
X26699D01*
X26599D01*
Y29650D01*
X26699Y29550D01*
X27999Y29950D02*
X27699D01*
X27599Y29850D01*
Y29650D01*
X27699Y29550D01*
X27999D01*
X28299D02*
X28499D01*
X28599Y29650D01*
Y29850D01*
X28499Y29950D01*
X28299D01*
X28199Y29850D01*
Y29650D01*
X28299Y29550D01*
X28799D02*
Y29950D01*
X29098D01*
X29198Y29850D01*
Y29550D01*
X29498Y30050D02*
Y29950D01*
X29398D01*
X29598D01*
X29498D01*
Y29650D01*
X29598Y29550D01*
X29898Y29950D02*
Y29550D01*
Y29750D01*
X29998Y29850D01*
X30098Y29950D01*
X30198D01*
X30598Y29550D02*
X30798D01*
X30898Y29650D01*
Y29850D01*
X30798Y29950D01*
X30598D01*
X30498Y29850D01*
Y29650D01*
X30598Y29550D01*
X31098D02*
X31298D01*
X31198D01*
Y30150D01*
X31098D01*
X31598Y29550D02*
X31798D01*
X31698D01*
Y30150D01*
X31598D01*
X32397Y29550D02*
X32197D01*
X32097Y29650D01*
Y29850D01*
X32197Y29950D01*
X32397D01*
X32497Y29850D01*
Y29750D01*
X32097D01*
X32697Y29950D02*
Y29550D01*
Y29750D01*
X32797Y29850D01*
X32897Y29950D01*
X32997D01*
X33897D02*
X34097Y29550D01*
X34297Y29950D01*
X35496Y29550D02*
X35096D01*
X35496Y29950D01*
Y30050D01*
X35396Y30150D01*
X35196D01*
X35096Y30050D01*
X35696Y29550D02*
Y29650D01*
X35796D01*
Y29550D01*
X35696D01*
X36196Y30050D02*
X36296Y30150D01*
X36496D01*
X36596Y30050D01*
Y29650D01*
X36496Y29550D01*
X36296D01*
X36196Y29650D01*
Y30050D01*
X15350Y17750D02*
Y17150D01*
X15650D01*
X15750Y17250D01*
Y17350D01*
X15650Y17450D01*
X15350D01*
X15650D01*
X15750Y17550D01*
Y17650D01*
X15650Y17750D01*
X15350D01*
X15950Y17150D02*
X16150D01*
X16050D01*
Y17750D01*
X15950Y17650D01*
X57450Y33300D02*
X58050D01*
Y33600D01*
X57950Y33700D01*
X57850D01*
X57750Y33600D01*
Y33300D01*
Y33600D01*
X57650Y33700D01*
X57550D01*
X57450Y33600D01*
Y33300D01*
X57650Y33900D02*
X58050D01*
X57850D01*
X57750Y34000D01*
X57650Y34100D01*
Y34200D01*
X58050Y34500D02*
Y34700D01*
Y34600D01*
X57450D01*
X57550Y34500D01*
X47150Y16050D02*
Y15450D01*
X47450D01*
X47550Y15550D01*
Y15650D01*
X47450Y15750D01*
X47150D01*
X47450D01*
X47550Y15850D01*
Y15950D01*
X47450Y16050D01*
X47150D01*
X47750Y15850D02*
Y15450D01*
Y15650D01*
X47850Y15750D01*
X47950Y15850D01*
X48050D01*
X48749Y15450D02*
X48350D01*
X48749Y15850D01*
Y15950D01*
X48650Y16050D01*
X48450D01*
X48350Y15950D01*
X22350Y25950D02*
X22250Y26050D01*
X22050D01*
X21950Y25950D01*
Y25550D01*
X22050Y25450D01*
X22250D01*
X22350Y25550D01*
X22550Y25450D02*
X22750D01*
X22650D01*
Y26050D01*
X22550Y25950D01*
X30420Y27730D02*
X30320Y27830D01*
X30120D01*
X30020Y27730D01*
Y27330D01*
X30120Y27230D01*
X30320D01*
X30420Y27330D01*
X30620Y27730D02*
X30720Y27830D01*
X30920D01*
X31020Y27730D01*
Y27630D01*
X30920Y27530D01*
X31020Y27430D01*
Y27330D01*
X30920Y27230D01*
X30720D01*
X30620Y27330D01*
Y27430D01*
X30720Y27530D01*
X30620Y27630D01*
Y27730D01*
X30720Y27530D02*
X30920D01*
X33550Y24150D02*
X33450Y24250D01*
X33250D01*
X33150Y24150D01*
Y23750D01*
X33250Y23650D01*
X33450D01*
X33550Y23750D01*
X33750D02*
X33850Y23650D01*
X34050D01*
X34150Y23750D01*
Y24150D01*
X34050Y24250D01*
X33850D01*
X33750Y24150D01*
Y24050D01*
X33850Y23950D01*
X34150D01*
X30050Y24850D02*
X29950Y24950D01*
X29750D01*
X29650Y24850D01*
Y24450D01*
X29750Y24350D01*
X29950D01*
X30050Y24450D01*
X30250Y24350D02*
X30450D01*
X30350D01*
Y24950D01*
X30250Y24850D01*
X30750D02*
X30850Y24950D01*
X31050D01*
X31150Y24850D01*
Y24450D01*
X31050Y24350D01*
X30850D01*
X30750Y24450D01*
Y24850D01*
X34150Y27350D02*
X34050Y27450D01*
X33850D01*
X33750Y27350D01*
Y26950D01*
X33850Y26850D01*
X34050D01*
X34150Y26950D01*
X34350Y26850D02*
X34550D01*
X34450D01*
Y27450D01*
X34350Y27350D01*
X34850Y26850D02*
X35050D01*
X34950D01*
Y27450D01*
X34850Y27350D01*
X18250Y17700D02*
X18150Y17600D01*
Y17400D01*
X18250Y17300D01*
X18650D01*
X18750Y17400D01*
Y17600D01*
X18650Y17700D01*
X18750Y17900D02*
Y18100D01*
Y18000D01*
X18150D01*
X18250Y17900D01*
X18750Y18800D02*
Y18400D01*
X18350Y18800D01*
X18250D01*
X18150Y18700D01*
Y18500D01*
X18250Y18400D01*
X59475Y38085D02*
X59375Y38185D01*
X59175D01*
X59075Y38085D01*
Y37685D01*
X59175Y37585D01*
X59375D01*
X59475Y37685D01*
X59675Y37585D02*
X59875D01*
X59775D01*
Y38185D01*
X59675Y38085D01*
X60175D02*
X60275Y38185D01*
X60475D01*
X60575Y38085D01*
Y37985D01*
X60475Y37885D01*
X60375D01*
X60475D01*
X60575Y37785D01*
Y37685D01*
X60475Y37585D01*
X60275D01*
X60175Y37685D01*
X61900Y34900D02*
X61800Y35000D01*
X61600D01*
X61500Y34900D01*
Y34500D01*
X61600Y34400D01*
X61800D01*
X61900Y34500D01*
X62100Y34400D02*
X62300D01*
X62200D01*
Y35000D01*
X62100Y34900D01*
X62900Y34400D02*
Y35000D01*
X62600Y34700D01*
X63000D01*
X54800Y33500D02*
X54700Y33600D01*
X54500D01*
X54400Y33500D01*
Y33100D01*
X54500Y33000D01*
X54700D01*
X54800Y33100D01*
X55000Y33000D02*
X55200D01*
X55100D01*
Y33600D01*
X55000Y33500D01*
X55900Y33600D02*
X55500D01*
Y33300D01*
X55700Y33400D01*
X55800D01*
X55900Y33300D01*
Y33100D01*
X55800Y33000D01*
X55600D01*
X55500Y33100D01*
X54800Y32450D02*
X54700Y32550D01*
X54500D01*
X54400Y32450D01*
Y32050D01*
X54500Y31950D01*
X54700D01*
X54800Y32050D01*
X55000Y31950D02*
X55200D01*
X55100D01*
Y32550D01*
X55000Y32450D01*
X55900Y32550D02*
X55700Y32450D01*
X55500Y32250D01*
Y32050D01*
X55600Y31950D01*
X55800D01*
X55900Y32050D01*
Y32150D01*
X55800Y32250D01*
X55500D01*
X53850Y37400D02*
X53750Y37500D01*
X53550D01*
X53450Y37400D01*
Y37000D01*
X53550Y36900D01*
X53750D01*
X53850Y37000D01*
X54050Y36900D02*
X54250D01*
X54150D01*
Y37500D01*
X54050Y37400D01*
X54550Y37500D02*
X54950D01*
Y37400D01*
X54550Y37000D01*
Y36900D01*
X52100Y38750D02*
X52000Y38850D01*
X51800D01*
X51700Y38750D01*
Y38350D01*
X51800Y38250D01*
X52000D01*
X52100Y38350D01*
X52300Y38250D02*
X52500D01*
X52400D01*
Y38850D01*
X52300Y38750D01*
X52800D02*
X52900Y38850D01*
X53100D01*
X53200Y38750D01*
Y38650D01*
X53100Y38550D01*
X53200Y38450D01*
Y38350D01*
X53100Y38250D01*
X52900D01*
X52800Y38350D01*
Y38450D01*
X52900Y38550D01*
X52800Y38650D01*
Y38750D01*
X52900Y38550D02*
X53100D01*
X46250Y35750D02*
X46150Y35650D01*
Y35450D01*
X46250Y35350D01*
X46650D01*
X46750Y35450D01*
Y35650D01*
X46650Y35750D01*
X46750Y35950D02*
Y36150D01*
Y36050D01*
X46150D01*
X46250Y35950D01*
X46650Y36450D02*
X46750Y36550D01*
Y36750D01*
X46650Y36850D01*
X46250D01*
X46150Y36750D01*
Y36550D01*
X46250Y36450D01*
X46350D01*
X46450Y36550D01*
Y36850D01*
X49150Y33750D02*
X49050Y33650D01*
Y33450D01*
X49150Y33350D01*
X49550D01*
X49650Y33450D01*
Y33650D01*
X49550Y33750D01*
X49650Y34350D02*
Y33950D01*
X49250Y34350D01*
X49150D01*
X49050Y34250D01*
Y34050D01*
X49150Y33950D01*
Y34550D02*
X49050Y34650D01*
Y34850D01*
X49150Y34949D01*
X49550D01*
X49650Y34850D01*
Y34650D01*
X49550Y34550D01*
X49150D01*
X40400Y14650D02*
X40300Y14750D01*
X40100D01*
X40000Y14650D01*
Y14250D01*
X40100Y14150D01*
X40300D01*
X40400Y14250D01*
X41000Y14150D02*
X40600D01*
X41000Y14550D01*
Y14650D01*
X40900Y14750D01*
X40700D01*
X40600Y14650D01*
X41200Y14150D02*
X41400D01*
X41300D01*
Y14750D01*
X41200Y14650D01*
X51375Y16005D02*
X51275Y16105D01*
X51075D01*
X50975Y16005D01*
Y15605D01*
X51075Y15505D01*
X51275D01*
X51375Y15605D01*
X51975Y15505D02*
X51575D01*
X51975Y15905D01*
Y16005D01*
X51875Y16105D01*
X51675D01*
X51575Y16005D01*
X52574Y15505D02*
X52175D01*
X52574Y15905D01*
Y16005D01*
X52475Y16105D01*
X52275D01*
X52175Y16005D01*
X21800Y30800D02*
X21700Y30900D01*
X21500D01*
X21400Y30800D01*
Y30400D01*
X21500Y30300D01*
X21700D01*
X21800Y30400D01*
X22400Y30300D02*
X22000D01*
X22400Y30700D01*
Y30800D01*
X22300Y30900D01*
X22100D01*
X22000Y30800D01*
X22600Y30400D02*
X22700Y30300D01*
X22900D01*
X22999Y30400D01*
Y30800D01*
X22900Y30900D01*
X22700D01*
X22600Y30800D01*
Y30700D01*
X22700Y30600D01*
X22999D01*
X43950Y14600D02*
X44550D01*
Y14900D01*
X44450Y15000D01*
X44050D01*
X43950Y14900D01*
Y14600D01*
X44550Y15500D02*
X43950D01*
X44250Y15200D01*
Y15600D01*
X24580Y35540D02*
Y34940D01*
X24880D01*
X24980Y35040D01*
Y35440D01*
X24880Y35540D01*
X24580D01*
X25180Y34940D02*
Y35340D01*
X25380Y35540D01*
X25580Y35340D01*
Y34940D01*
Y35240D01*
X25180D01*
X25780Y34940D02*
X25980D01*
X25880D01*
Y35540D01*
X25780Y35440D01*
X22475Y35535D02*
Y34935D01*
X22775D01*
X22875Y35035D01*
Y35435D01*
X22775Y35535D01*
X22475D01*
X23075Y34935D02*
Y35335D01*
X23275Y35535D01*
X23475Y35335D01*
Y34935D01*
Y35235D01*
X23075D01*
X24074Y34935D02*
X23675D01*
X24074Y35335D01*
Y35435D01*
X23975Y35535D01*
X23775D01*
X23675Y35435D01*
X62110Y32940D02*
X61710D01*
Y32640D01*
X61910D01*
X61710D01*
Y32340D01*
X62310Y32940D02*
Y32440D01*
X62410Y32340D01*
X62610D01*
X62710Y32440D01*
Y32940D01*
X62910Y32340D02*
X63110D01*
X63010D01*
Y32940D01*
X62910Y32840D01*
X55260Y38940D02*
X55460D01*
X55360D01*
Y38340D01*
X55260D01*
X55460D01*
X56160Y38840D02*
X56060Y38940D01*
X55860D01*
X55760Y38840D01*
Y38440D01*
X55860Y38340D01*
X56060D01*
X56160Y38440D01*
X56360Y38340D02*
X56560D01*
X56460D01*
Y38940D01*
X56360Y38840D01*
X39250Y15700D02*
X39450D01*
X39350D01*
Y15100D01*
X39250D01*
X39450D01*
X40150Y15600D02*
X40050Y15700D01*
X39850D01*
X39750Y15600D01*
Y15200D01*
X39850Y15100D01*
X40050D01*
X40150Y15200D01*
X40750Y15100D02*
X40350D01*
X40750Y15500D01*
Y15600D01*
X40650Y15700D01*
X40450D01*
X40350Y15600D01*
X29450Y37900D02*
X29250D01*
X29350D01*
Y37400D01*
X29250Y37300D01*
X29150D01*
X29050Y37400D01*
X29650Y37300D02*
X29850D01*
X29750D01*
Y37900D01*
X29650Y37800D01*
X39900Y35400D02*
X39700D01*
X39800D01*
Y34900D01*
X39700Y34800D01*
X39600D01*
X39500Y34900D01*
X40500Y34800D02*
X40100D01*
X40500Y35200D01*
Y35300D01*
X40400Y35400D01*
X40200D01*
X40100Y35300D01*
X39800Y28000D02*
X39600D01*
X39700D01*
Y27500D01*
X39600Y27400D01*
X39500D01*
X39400Y27500D01*
X40000Y27900D02*
X40100Y28000D01*
X40300D01*
X40400Y27900D01*
Y27800D01*
X40300Y27700D01*
X40200D01*
X40300D01*
X40400Y27600D01*
Y27500D01*
X40300Y27400D01*
X40100D01*
X40000Y27500D01*
X26820Y16620D02*
X26620D01*
X26720D01*
Y16120D01*
X26620Y16020D01*
X26520D01*
X26420Y16120D01*
X27320Y16020D02*
Y16620D01*
X27020Y16320D01*
X27420D01*
X17300Y37950D02*
X17100D01*
X17200D01*
Y37450D01*
X17100Y37350D01*
X17000D01*
X16900Y37450D01*
X17900Y37950D02*
X17500D01*
Y37650D01*
X17700Y37750D01*
X17800D01*
X17900Y37650D01*
Y37450D01*
X17800Y37350D01*
X17600D01*
X17500Y37450D01*
X61850Y15950D02*
X62450D01*
X62250D01*
X61850Y16350D01*
X62150Y16050D01*
X62450Y16350D01*
Y16550D02*
Y16750D01*
Y16650D01*
X61850D01*
X61950Y16550D01*
X62450Y13300D02*
Y12700D01*
Y12900D01*
X62850Y13300D01*
X62550Y13000D01*
X62850Y12700D01*
X63450D02*
X63050D01*
X63450Y13100D01*
Y13200D01*
X63350Y13300D01*
X63150D01*
X63050Y13200D01*
X46100Y37350D02*
X46700D01*
Y37750D01*
Y37950D02*
Y38150D01*
Y38050D01*
X46100D01*
X46200Y37950D01*
X32800Y19550D02*
X33400D01*
Y19950D01*
X32800Y20150D02*
X33400D01*
Y20450D01*
X33300Y20550D01*
X32900D01*
X32800Y20450D01*
Y20150D01*
X33400Y20750D02*
Y20950D01*
Y20850D01*
X32800D01*
X32900Y20750D01*
X33850Y19450D02*
X34450D01*
Y19850D01*
X33850Y20050D02*
X34450D01*
Y20350D01*
X34350Y20450D01*
X33950D01*
X33850Y20350D01*
Y20050D01*
X34450Y21049D02*
Y20650D01*
X34050Y21049D01*
X33950D01*
X33850Y20950D01*
Y20750D01*
X33950Y20650D01*
X34800Y19450D02*
X35400D01*
Y19850D01*
X34800Y20050D02*
X35400D01*
Y20350D01*
X35300Y20450D01*
X34900D01*
X34800Y20350D01*
Y20050D01*
X34900Y20650D02*
X34800Y20750D01*
Y20950D01*
X34900Y21049D01*
X35000D01*
X35100Y20950D01*
Y20850D01*
Y20950D01*
X35200Y21049D01*
X35300D01*
X35400Y20950D01*
Y20750D01*
X35300Y20650D01*
X35800Y19550D02*
X36400D01*
Y19950D01*
X35800Y20150D02*
X36400D01*
Y20450D01*
X36300Y20550D01*
X35900D01*
X35800Y20450D01*
Y20150D01*
X36400Y21050D02*
X35800D01*
X36100Y20750D01*
Y21149D01*
X36850Y19550D02*
X37450D01*
Y19950D01*
X36850Y20150D02*
X37450D01*
Y20450D01*
X37350Y20550D01*
X36950D01*
X36850Y20450D01*
Y20150D01*
Y21149D02*
Y20750D01*
X37150D01*
X37050Y20950D01*
Y21050D01*
X37150Y21149D01*
X37350D01*
X37450Y21050D01*
Y20850D01*
X37350Y20750D01*
X24240Y27050D02*
Y27450D01*
X24140Y27550D01*
X23940D01*
X23840Y27450D01*
Y27050D01*
X23940Y26950D01*
X24140D01*
X24040Y27150D02*
X24240Y26950D01*
X24140D02*
X24240Y27050D01*
X24440Y26950D02*
X24640D01*
X24540D01*
Y27550D01*
X24440Y27450D01*
X20750Y26650D02*
Y27250D01*
X21050D01*
X21150Y27150D01*
Y26950D01*
X21050Y26850D01*
X20750D01*
X20950D02*
X21150Y26650D01*
X21350D02*
X21550D01*
X21450D01*
Y27250D01*
X21350Y27150D01*
X25000Y18800D02*
Y19400D01*
X25300D01*
X25400Y19300D01*
Y19100D01*
X25300Y19000D01*
X25000D01*
X25200D02*
X25400Y18800D01*
X25900D02*
Y19400D01*
X25600Y19100D01*
X26000D01*
X25000Y17800D02*
Y18400D01*
X25300D01*
X25400Y18300D01*
Y18100D01*
X25300Y18000D01*
X25000D01*
X25200D02*
X25400Y17800D01*
X26000Y18400D02*
X25600D01*
Y18100D01*
X25800Y18200D01*
X25900D01*
X26000Y18100D01*
Y17900D01*
X25900Y17800D01*
X25700D01*
X25600Y17900D01*
X18650Y23000D02*
Y23600D01*
X18950D01*
X19050Y23500D01*
Y23300D01*
X18950Y23200D01*
X18650D01*
X18850D02*
X19050Y23000D01*
X19650Y23600D02*
X19450Y23500D01*
X19250Y23300D01*
Y23100D01*
X19350Y23000D01*
X19550D01*
X19650Y23100D01*
Y23200D01*
X19550Y23300D01*
X19250D01*
X32500Y34500D02*
X33100D01*
Y34200D01*
X33000Y34100D01*
X32800D01*
X32700Y34200D01*
Y34500D01*
Y34300D02*
X32500Y34100D01*
X32600Y33900D02*
X32500Y33800D01*
Y33600D01*
X32600Y33500D01*
X33000D01*
X33100Y33600D01*
Y33800D01*
X33000Y33900D01*
X32900D01*
X32800Y33800D01*
Y33500D01*
X30100Y34500D02*
X30700D01*
Y34200D01*
X30600Y34100D01*
X30400D01*
X30300Y34200D01*
Y34500D01*
Y34300D02*
X30100Y34100D01*
Y33900D02*
Y33700D01*
Y33800D01*
X30700D01*
X30600Y33900D01*
Y33400D02*
X30700Y33300D01*
Y33100D01*
X30600Y33000D01*
X30200D01*
X30100Y33100D01*
Y33300D01*
X30200Y33400D01*
X30600D01*
X30750Y16300D02*
X30150D01*
Y16600D01*
X30250Y16700D01*
X30450D01*
X30550Y16600D01*
Y16300D01*
Y16500D02*
X30750Y16700D01*
Y16900D02*
Y17100D01*
Y17000D01*
X30150D01*
X30250Y16900D01*
X30750Y17400D02*
Y17600D01*
Y17500D01*
X30150D01*
X30250Y17400D01*
X31450Y34500D02*
X32050D01*
Y34200D01*
X31950Y34100D01*
X31750D01*
X31650Y34200D01*
Y34500D01*
Y34300D02*
X31450Y34100D01*
Y33900D02*
Y33700D01*
Y33800D01*
X32050D01*
X31950Y33900D01*
X31450Y33000D02*
Y33400D01*
X31850Y33000D01*
X31950D01*
X32050Y33100D01*
Y33300D01*
X31950Y33400D01*
X34500Y34500D02*
X35100D01*
Y34200D01*
X35000Y34100D01*
X34800D01*
X34700Y34200D01*
Y34500D01*
Y34300D02*
X34500Y34100D01*
Y33900D02*
Y33700D01*
Y33800D01*
X35100D01*
X35000Y33900D01*
X35100Y33000D02*
Y33400D01*
X34800D01*
X34900Y33200D01*
Y33100D01*
X34800Y33000D01*
X34600D01*
X34500Y33100D01*
Y33300D01*
X34600Y33400D01*
X35500Y34500D02*
X36100D01*
Y34200D01*
X36000Y34100D01*
X35800D01*
X35700Y34200D01*
Y34500D01*
Y34300D02*
X35500Y34100D01*
Y33900D02*
Y33700D01*
Y33800D01*
X36100D01*
X36000Y33900D01*
X36100Y33000D02*
X36000Y33200D01*
X35800Y33400D01*
X35600D01*
X35500Y33300D01*
Y33100D01*
X35600Y33000D01*
X35700D01*
X35800Y33100D01*
Y33400D01*
X39800Y19800D02*
X39200D01*
Y20100D01*
X39300Y20200D01*
X39500D01*
X39600Y20100D01*
Y19800D01*
Y20000D02*
X39800Y20200D01*
Y20400D02*
Y20600D01*
Y20500D01*
X39200D01*
X39300Y20400D01*
X39200Y20900D02*
Y21300D01*
X39300D01*
X39700Y20900D01*
X39800D01*
X54200Y15400D02*
Y16000D01*
X54500D01*
X54600Y15900D01*
Y15700D01*
X54500Y15600D01*
X54200D01*
X54400D02*
X54600Y15400D01*
X54800D02*
X55000D01*
X54900D01*
Y16000D01*
X54800Y15900D01*
X55300D02*
X55400Y16000D01*
X55600D01*
X55700Y15900D01*
Y15800D01*
X55600Y15700D01*
X55700Y15600D01*
Y15500D01*
X55600Y15400D01*
X55400D01*
X55300Y15500D01*
Y15600D01*
X55400Y15700D01*
X55300Y15800D01*
Y15900D01*
X55400Y15700D02*
X55600D01*
X45450Y14550D02*
X44850D01*
Y14850D01*
X44950Y14950D01*
X45150D01*
X45250Y14850D01*
Y14550D01*
Y14750D02*
X45450Y14950D01*
Y15150D02*
Y15350D01*
Y15250D01*
X44850D01*
X44950Y15150D01*
X45350Y15650D02*
X45450Y15750D01*
Y15950D01*
X45350Y16050D01*
X44950D01*
X44850Y15950D01*
Y15750D01*
X44950Y15650D01*
X45050D01*
X45150Y15750D01*
Y16050D01*
X54350Y13500D02*
Y14100D01*
X54650D01*
X54750Y14000D01*
Y13800D01*
X54650Y13700D01*
X54350D01*
X54550D02*
X54750Y13500D01*
X55350D02*
X54950D01*
X55350Y13900D01*
Y14000D01*
X55250Y14100D01*
X55050D01*
X54950Y14000D01*
X55550Y13500D02*
X55750D01*
X55650D01*
Y14100D01*
X55550Y14000D01*
X21650Y14100D02*
Y14700D01*
X21950D01*
X22050Y14600D01*
Y14400D01*
X21950Y14300D01*
X21650D01*
X21850D02*
X22050Y14100D01*
X22650D02*
X22250D01*
X22650Y14500D01*
Y14600D01*
X22550Y14700D01*
X22350D01*
X22250Y14600D01*
X23249Y14100D02*
X22850D01*
X23249Y14500D01*
Y14600D01*
X23150Y14700D01*
X22950D01*
X22850Y14600D01*
X17250Y13700D02*
Y14300D01*
X17550D01*
X17650Y14200D01*
Y14000D01*
X17550Y13900D01*
X17250D01*
X17450D02*
X17650Y13700D01*
X18250D02*
X17850D01*
X18250Y14100D01*
Y14200D01*
X18150Y14300D01*
X17950D01*
X17850Y14200D01*
X18450D02*
X18550Y14300D01*
X18750D01*
X18849Y14200D01*
Y14100D01*
X18750Y14000D01*
X18650D01*
X18750D01*
X18849Y13900D01*
Y13800D01*
X18750Y13700D01*
X18550D01*
X18450Y13800D01*
X21650Y12800D02*
Y13400D01*
X21950D01*
X22050Y13300D01*
Y13100D01*
X21950Y13000D01*
X21650D01*
X21850D02*
X22050Y12800D01*
X22650D02*
X22250D01*
X22650Y13200D01*
Y13300D01*
X22550Y13400D01*
X22350D01*
X22250Y13300D01*
X23150Y12800D02*
Y13400D01*
X22850Y13100D01*
X23249D01*
X17250Y12650D02*
Y13250D01*
X17550D01*
X17650Y13150D01*
Y12950D01*
X17550Y12850D01*
X17250D01*
X17450D02*
X17650Y12650D01*
X18250D02*
X17850D01*
X18250Y13050D01*
Y13150D01*
X18150Y13250D01*
X17950D01*
X17850Y13150D01*
X18849Y13250D02*
X18450D01*
Y12950D01*
X18650Y13050D01*
X18750D01*
X18849Y12950D01*
Y12750D01*
X18750Y12650D01*
X18550D01*
X18450Y12750D01*
X29600Y17850D02*
X29000D01*
Y18150D01*
X29100Y18250D01*
X29300D01*
X29400Y18150D01*
Y17850D01*
Y18050D02*
X29600Y18250D01*
Y18850D02*
Y18450D01*
X29200Y18850D01*
X29100D01*
X29000Y18750D01*
Y18550D01*
X29100Y18450D01*
X29000Y19449D02*
X29100Y19250D01*
X29300Y19050D01*
X29500D01*
X29600Y19150D01*
Y19350D01*
X29500Y19449D01*
X29400D01*
X29300Y19350D01*
Y19050D01*
X30550Y17850D02*
X29950D01*
Y18150D01*
X30050Y18250D01*
X30250D01*
X30350Y18150D01*
Y17850D01*
Y18050D02*
X30550Y18250D01*
Y18850D02*
Y18450D01*
X30150Y18850D01*
X30050D01*
X29950Y18750D01*
Y18550D01*
X30050Y18450D01*
X29950Y19050D02*
Y19449D01*
X30050D01*
X30450Y19050D01*
X30550D01*
X31450Y17850D02*
X30850D01*
Y18150D01*
X30950Y18250D01*
X31150D01*
X31250Y18150D01*
Y17850D01*
Y18050D02*
X31450Y18250D01*
X30950Y18450D02*
X30850Y18550D01*
Y18750D01*
X30950Y18850D01*
X31050D01*
X31150Y18750D01*
Y18650D01*
Y18750D01*
X31250Y18850D01*
X31350D01*
X31450Y18750D01*
Y18550D01*
X31350Y18450D01*
X31450Y19449D02*
Y19050D01*
X31050Y19449D01*
X30950D01*
X30850Y19350D01*
Y19150D01*
X30950Y19050D01*
X32400Y17850D02*
X31800D01*
Y18150D01*
X31900Y18250D01*
X32100D01*
X32200Y18150D01*
Y17850D01*
Y18050D02*
X32400Y18250D01*
X31900Y18450D02*
X31800Y18550D01*
Y18750D01*
X31900Y18850D01*
X32000D01*
X32100Y18750D01*
Y18650D01*
Y18750D01*
X32200Y18850D01*
X32300D01*
X32400Y18750D01*
Y18550D01*
X32300Y18450D01*
X31900Y19050D02*
X31800Y19150D01*
Y19350D01*
X31900Y19449D01*
X32000D01*
X32100Y19350D01*
Y19250D01*
Y19350D01*
X32200Y19449D01*
X32300D01*
X32400Y19350D01*
Y19150D01*
X32300Y19050D01*
X38300Y16250D02*
X37700D01*
Y16550D01*
X37800Y16650D01*
X38000D01*
X38100Y16550D01*
Y16250D01*
Y16450D02*
X38300Y16650D01*
X37800Y16850D02*
X37700Y16950D01*
Y17150D01*
X37800Y17250D01*
X37900D01*
X38000Y17150D01*
Y17050D01*
Y17150D01*
X38100Y17250D01*
X38200D01*
X38300Y17150D01*
Y16950D01*
X38200Y16850D01*
X38300Y17750D02*
X37700D01*
X38000Y17450D01*
Y17849D01*
X19250Y34550D02*
X18650D01*
Y34850D01*
X18750Y34950D01*
X18950D01*
X19050Y34850D01*
Y34550D01*
Y34750D02*
X19250Y34950D01*
Y35450D02*
X18650D01*
X18950Y35150D01*
Y35550D01*
X19250Y35750D02*
Y35950D01*
Y35850D01*
X18650D01*
X18750Y35750D01*
X22000Y34550D02*
X21400D01*
Y34850D01*
X21500Y34950D01*
X21700D01*
X21800Y34850D01*
Y34550D01*
Y34750D02*
X22000Y34950D01*
Y35450D02*
X21400D01*
X21700Y35150D01*
Y35550D01*
X22000Y36149D02*
Y35750D01*
X21600Y36149D01*
X21500D01*
X21400Y36050D01*
Y35850D01*
X21500Y35750D01*
X24650Y36400D02*
Y37000D01*
X24950D01*
X25050Y36900D01*
Y36700D01*
X24950Y36600D01*
X24650D01*
X24850D02*
X25050Y36400D01*
X25550D02*
Y37000D01*
X25250Y36700D01*
X25650D01*
X25850Y36900D02*
X25950Y37000D01*
X26150D01*
X26249Y36900D01*
Y36800D01*
X26150Y36700D01*
X26050D01*
X26150D01*
X26249Y36600D01*
Y36500D01*
X26150Y36400D01*
X25950D01*
X25850Y36500D01*
X20200Y24950D02*
X20600D01*
X20400D01*
Y24350D01*
X20800D02*
X21000D01*
X20900D01*
Y24950D01*
X20800Y24850D01*
X40900Y12750D02*
X41300D01*
X41100D01*
Y12150D01*
X41900D02*
X41500D01*
X41900Y12550D01*
Y12650D01*
X41800Y12750D01*
X41600D01*
X41500Y12650D01*
X24700Y14650D02*
X25100D01*
X24900D01*
Y14050D01*
X25300Y14550D02*
X25400Y14650D01*
X25600D01*
X25700Y14550D01*
Y14450D01*
X25600Y14350D01*
X25500D01*
X25600D01*
X25700Y14250D01*
Y14150D01*
X25600Y14050D01*
X25400D01*
X25300Y14150D01*
X20150Y14650D02*
X20550D01*
X20350D01*
Y14050D01*
X21050D02*
Y14650D01*
X20750Y14350D01*
X21150D01*
X20068Y20170D02*
Y19670D01*
X20168Y19570D01*
X20368D01*
X20468Y19670D01*
Y20170D01*
X20667Y20070D02*
X20767Y20170D01*
X20967D01*
X21067Y20070D01*
Y19970D01*
X20967Y19870D01*
X20867D01*
X20967D01*
X21067Y19770D01*
Y19670D01*
X20967Y19570D01*
X20767D01*
X20667Y19670D01*
X51900Y37400D02*
Y36900D01*
X52000Y36800D01*
X52200D01*
X52300Y36900D01*
Y37400D01*
X52800Y36800D02*
Y37400D01*
X52500Y37100D01*
X52900D01*
X21350Y32000D02*
X21850D01*
X21950Y32100D01*
Y32300D01*
X21850Y32400D01*
X21350D01*
Y33000D02*
Y32600D01*
X21650D01*
X21550Y32800D01*
Y32900D01*
X21650Y33000D01*
X21850D01*
X21950Y32900D01*
Y32700D01*
X21850Y32600D01*
X60750Y15900D02*
X61150D01*
X61350Y16100D01*
X61150Y16300D01*
X60750D01*
X60950Y16500D02*
X61350D01*
X61150D01*
X61050Y16600D01*
X60950Y16700D01*
Y16800D01*
X61350Y17100D02*
Y17300D01*
Y17200D01*
X60750D01*
X60850Y17100D01*
X16400Y28500D02*
X16300Y28600D01*
X16100D01*
X16000Y28500D01*
Y28400D01*
X16100Y28300D01*
X16300D01*
X16400Y28200D01*
Y28100D01*
X16300Y28000D01*
X16100D01*
X16000Y28100D01*
X16600Y28600D02*
Y28000D01*
X16900D01*
X17000Y28100D01*
Y28200D01*
X16900Y28300D01*
X16600D01*
X16900D01*
X17000Y28400D01*
Y28500D01*
X16900Y28600D01*
X16600D01*
X17200Y28000D02*
X17400D01*
X17300D01*
Y28600D01*
X17200Y28500D01*
X16300Y20600D02*
X16200Y20700D01*
X16000D01*
X15900Y20600D01*
Y20500D01*
X16000Y20400D01*
X16200D01*
X16300Y20300D01*
Y20200D01*
X16200Y20100D01*
X16000D01*
X15900Y20200D01*
X16500Y20700D02*
Y20100D01*
X16800D01*
X16900Y20200D01*
Y20300D01*
X16800Y20400D01*
X16500D01*
X16800D01*
X16900Y20500D01*
Y20600D01*
X16800Y20700D01*
X16500D01*
X17499Y20100D02*
X17100D01*
X17499Y20500D01*
Y20600D01*
X17400Y20700D01*
X17200D01*
X17100Y20600D01*
X42520Y32160D02*
X42920D01*
X42720D01*
Y31560D01*
X43120Y31960D02*
Y31560D01*
Y31760D01*
X43220Y31860D01*
X43320Y31960D01*
X43420D01*
X43720Y31560D02*
X43920D01*
X43820D01*
Y32160D01*
X43720Y32060D01*
X15500Y35700D02*
Y35100D01*
X15800D01*
X15900Y35200D01*
Y35300D01*
X15800Y35400D01*
X15500D01*
X15800D01*
X15900Y35500D01*
Y35600D01*
X15800Y35700D01*
X15500D01*
X16500Y35100D02*
X16100D01*
X16500Y35500D01*
Y35600D01*
X16400Y35700D01*
X16200D01*
X16100Y35600D01*
X65400Y33000D02*
X66000D01*
Y33300D01*
X65900Y33400D01*
X65800D01*
X65700Y33300D01*
Y33000D01*
Y33300D01*
X65600Y33400D01*
X65500D01*
X65400Y33300D01*
Y33000D01*
X65500Y33600D02*
X65400Y33700D01*
Y33900D01*
X65500Y34000D01*
X65600D01*
X65700Y33900D01*
Y33800D01*
Y33900D01*
X65800Y34000D01*
X65900D01*
X66000Y33900D01*
Y33700D01*
X65900Y33600D01*
X64050Y14100D02*
Y13500D01*
X64350D01*
X64450Y13600D01*
Y13700D01*
X64350Y13800D01*
X64050D01*
X64350D01*
X64450Y13900D01*
Y14000D01*
X64350Y14100D01*
X64050D01*
X64950Y13500D02*
Y14100D01*
X64650Y13800D01*
X65050D01*
X26720Y35470D02*
Y34870D01*
Y35170D01*
X27120D01*
Y35470D01*
Y34870D01*
X27320D02*
X27520D01*
X27420D01*
Y35470D01*
X27320Y35370D01*
X18800Y28450D02*
Y27850D01*
X19100D01*
X19200Y27950D01*
Y28350D01*
X19100Y28450D01*
X18800D01*
X19700Y27850D02*
X19500D01*
X19400Y27950D01*
Y28150D01*
X19500Y28250D01*
X19700D01*
X19800Y28150D01*
Y28050D01*
X19400D01*
X20000Y28450D02*
Y27850D01*
X20300D01*
X20399Y27950D01*
Y28050D01*
Y28150D01*
X20300Y28250D01*
X20000D01*
X20599D02*
Y27950D01*
X20699Y27850D01*
X20999D01*
Y28250D01*
X21399Y27650D02*
X21499D01*
X21599Y27750D01*
Y28250D01*
X21299D01*
X21199Y28150D01*
Y27950D01*
X21299Y27850D01*
X21599D01*
X25150Y38800D02*
X25050Y38900D01*
X24850D01*
X24750Y38800D01*
Y38400D01*
X24850Y38300D01*
X25050D01*
X25150Y38400D01*
X25350Y38300D02*
Y38900D01*
X25550Y38700D01*
X25750Y38900D01*
Y38300D01*
X26549Y38900D02*
Y38400D01*
X26649Y38300D01*
X26849D01*
X26949Y38400D01*
Y38900D01*
X27149Y38300D02*
Y38700D01*
X27349Y38900D01*
X27549Y38700D01*
Y38300D01*
Y38600D01*
X27149D01*
X27749Y38300D02*
Y38900D01*
X28049D01*
X28149Y38800D01*
Y38600D01*
X28049Y38500D01*
X27749D01*
X27949D02*
X28149Y38300D01*
X28349Y38900D02*
X28749D01*
X28549D01*
Y38300D01*
X37200Y37950D02*
X37100Y38050D01*
X36900D01*
X36800Y37950D01*
Y37550D01*
X36900Y37450D01*
X37100D01*
X37200Y37550D01*
X37500Y37450D02*
X37700D01*
X37800Y37550D01*
Y37750D01*
X37700Y37850D01*
X37500D01*
X37400Y37750D01*
Y37550D01*
X37500Y37450D01*
X38100D02*
X38300D01*
X38399Y37550D01*
Y37750D01*
X38300Y37850D01*
X38100D01*
X38000Y37750D01*
Y37550D01*
X38100Y37450D01*
X38599D02*
X38799D01*
X38699D01*
Y38050D01*
X38599D01*
X39099Y37450D02*
X39299D01*
X39199D01*
Y37850D01*
X39099D01*
X39599Y37450D02*
Y37850D01*
X39899D01*
X39999Y37750D01*
Y37450D01*
X40399Y37250D02*
X40499D01*
X40599Y37350D01*
Y37850D01*
X40299D01*
X40199Y37750D01*
Y37550D01*
X40299Y37450D01*
X40599D01*
X41399D02*
Y37850D01*
X41498D01*
X41598Y37750D01*
Y37450D01*
Y37750D01*
X41698Y37850D01*
X41798Y37750D01*
Y37450D01*
X42098D02*
X42298D01*
X42398Y37550D01*
Y37750D01*
X42298Y37850D01*
X42098D01*
X41998Y37750D01*
Y37550D01*
X42098Y37450D01*
X42998Y38050D02*
Y37450D01*
X42698D01*
X42598Y37550D01*
Y37750D01*
X42698Y37850D01*
X42998D01*
X43198D02*
Y37550D01*
X43298Y37450D01*
X43598D01*
Y37850D01*
X43798Y37450D02*
X43998D01*
X43898D01*
Y38050D01*
X43798D01*
X44597Y37450D02*
X44398D01*
X44298Y37550D01*
Y37750D01*
X44398Y37850D01*
X44597D01*
X44697Y37750D01*
Y37650D01*
X44298D01*
X37650Y30800D02*
X38250D01*
Y31200D01*
Y31700D02*
Y31500D01*
X38150Y31400D01*
X37950D01*
X37850Y31500D01*
Y31700D01*
X37950Y31800D01*
X38050D01*
Y31400D01*
X37650Y32399D02*
X38250D01*
Y32100D01*
X38150Y32000D01*
X37950D01*
X37850Y32100D01*
Y32399D01*
X38250Y32599D02*
Y32899D01*
X38150Y32999D01*
X38050Y32899D01*
Y32699D01*
X37950Y32599D01*
X37850Y32699D01*
Y32999D01*
X37750Y24800D02*
X37650Y24700D01*
Y24500D01*
X37750Y24400D01*
X37850D01*
X37950Y24500D01*
Y24700D01*
X38050Y24800D01*
X38150D01*
X38250Y24700D01*
Y24500D01*
X38150Y24400D01*
X37650Y25000D02*
X38250D01*
X38050Y25200D01*
X38250Y25400D01*
X37650D01*
Y25600D02*
X38250D01*
Y25900D01*
X38150Y25999D01*
X37750D01*
X37650Y25900D01*
Y25600D01*
X21450Y21000D02*
Y21600D01*
X21850Y21000D01*
Y21600D01*
X22050Y21000D02*
X22250D01*
X22150D01*
Y21400D01*
X22050D01*
X22550Y21000D02*
Y21600D01*
Y21200D02*
X22850Y21400D01*
X22550Y21200D02*
X22850Y21000D01*
X23249D02*
X23449D01*
X23549Y21100D01*
Y21300D01*
X23449Y21400D01*
X23249D01*
X23149Y21300D01*
Y21100D01*
X23249Y21000D01*
X23749Y20800D02*
Y21400D01*
X24049D01*
X24149Y21300D01*
Y21100D01*
X24049Y21000D01*
X23749D01*
X24449D02*
X24649D01*
X24749Y21100D01*
Y21300D01*
X24649Y21400D01*
X24449D01*
X24349Y21300D01*
Y21100D01*
X24449Y21000D01*
X24949D02*
X25149D01*
X25049D01*
Y21600D01*
X24949D01*
X26248Y21000D02*
X26049Y21200D01*
Y21400D01*
X26248Y21600D01*
X26948Y21500D02*
X26848Y21600D01*
X26648D01*
X26548Y21500D01*
Y21100D01*
X26648Y21000D01*
X26848D01*
X26948Y21100D01*
X27148Y21000D02*
X27348Y21200D01*
Y21400D01*
X27148Y21600D01*
X21850Y22550D02*
X21750Y22650D01*
X21550D01*
X21450Y22550D01*
Y22150D01*
X21550Y22050D01*
X21750D01*
X21850Y22150D01*
X22050Y22050D02*
Y22650D01*
X22350D01*
X22450Y22550D01*
Y22350D01*
X22350Y22250D01*
X22050D01*
X22650Y22650D02*
Y22150D01*
X22750Y22050D01*
X22950D01*
X23049Y22150D01*
Y22650D01*
X23849Y22050D02*
Y22650D01*
X24149D01*
X24249Y22550D01*
Y22350D01*
X24149Y22250D01*
X23849D01*
X24849Y22550D02*
X24749Y22650D01*
X24549D01*
X24449Y22550D01*
Y22150D01*
X24549Y22050D01*
X24749D01*
X24849Y22150D01*
X25049Y22650D02*
Y22050D01*
X25349D01*
X25449Y22150D01*
Y22250D01*
X25349Y22350D01*
X25049D01*
X25349D01*
X25449Y22450D01*
Y22550D01*
X25349Y22650D01*
X25049D01*
X26248Y22450D02*
X26448Y22050D01*
X26648Y22450D01*
X26848Y22050D02*
Y22150D01*
X26948D01*
Y22050D01*
X26848D01*
X27948D02*
X28148D01*
X28048D01*
Y22650D01*
X27948Y22550D01*
X28448Y22050D02*
Y22150D01*
X28548D01*
Y22050D01*
X28448D01*
X28948Y22550D02*
X29048Y22650D01*
X29247D01*
X29347Y22550D01*
Y22150D01*
X29247Y22050D01*
X29048D01*
X28948Y22150D01*
Y22550D01*
X21450Y23100D02*
Y23700D01*
X21750D01*
X21850Y23600D01*
Y23400D01*
X21750Y23300D01*
X21450D01*
X22150Y23100D02*
X22350D01*
X22450Y23200D01*
Y23400D01*
X22350Y23500D01*
X22150D01*
X22050Y23400D01*
Y23200D01*
X22150Y23100D01*
X22650Y23500D02*
Y23200D01*
X22750Y23100D01*
X22850Y23200D01*
X22950Y23100D01*
X23049Y23200D01*
Y23500D01*
X23549Y23100D02*
X23349D01*
X23249Y23200D01*
Y23400D01*
X23349Y23500D01*
X23549D01*
X23649Y23400D01*
Y23300D01*
X23249D01*
X23849Y23500D02*
Y23100D01*
Y23300D01*
X23949Y23400D01*
X24049Y23500D01*
X24149D01*
X25049Y23100D02*
Y23500D01*
X25149D01*
X25249Y23400D01*
Y23100D01*
Y23400D01*
X25349Y23500D01*
X25449Y23400D01*
Y23100D01*
X25749D02*
X25949D01*
X26049Y23200D01*
Y23400D01*
X25949Y23500D01*
X25749D01*
X25649Y23400D01*
Y23200D01*
X25749Y23100D01*
X26648Y23700D02*
Y23100D01*
X26348D01*
X26248Y23200D01*
Y23400D01*
X26348Y23500D01*
X26648D01*
X26848D02*
Y23200D01*
X26948Y23100D01*
X27248D01*
Y23500D01*
X27448Y23100D02*
X27648D01*
X27548D01*
Y23700D01*
X27448D01*
X28248Y23100D02*
X28048D01*
X27948Y23200D01*
Y23400D01*
X28048Y23500D01*
X28248D01*
X28348Y23400D01*
Y23300D01*
X27948D01*
X15750Y29750D02*
Y29150D01*
X16050D01*
X16150Y29250D01*
Y29350D01*
X16050Y29450D01*
X15750D01*
X16050D01*
X16150Y29550D01*
Y29650D01*
X16050Y29750D01*
X15750D01*
X16450Y29150D02*
X16650D01*
X16750Y29250D01*
Y29450D01*
X16650Y29550D01*
X16450D01*
X16350Y29450D01*
Y29250D01*
X16450Y29150D01*
X17050D02*
X17250D01*
X17349Y29250D01*
Y29450D01*
X17250Y29550D01*
X17050D01*
X16950Y29450D01*
Y29250D01*
X17050Y29150D01*
X17649Y29650D02*
Y29550D01*
X17549D01*
X17749D01*
X17649D01*
Y29250D01*
X17749Y29150D01*
X15600Y19050D02*
Y19650D01*
X15900D01*
X16000Y19550D01*
Y19350D01*
X15900Y19250D01*
X15600D01*
X15800D02*
X16000Y19050D01*
X16500D02*
X16300D01*
X16200Y19150D01*
Y19350D01*
X16300Y19450D01*
X16500D01*
X16600Y19350D01*
Y19250D01*
X16200D01*
X16800Y19050D02*
X17100D01*
X17199Y19150D01*
X17100Y19250D01*
X16900D01*
X16800Y19350D01*
X16900Y19450D01*
X17199D01*
X17699Y19050D02*
X17499D01*
X17399Y19150D01*
Y19350D01*
X17499Y19450D01*
X17699D01*
X17799Y19350D01*
Y19250D01*
X17399D01*
X18099Y19550D02*
Y19450D01*
X17999D01*
X18199D01*
X18099D01*
Y19150D01*
X18199Y19050D01*
D52*
X20680Y17564D02*
G03*
X20680Y17564I-118J0D01*
G01*
D53*
X20115Y16727D02*
G03*
X20115Y16727I-49J0D01*
G01*
X37149Y17852D02*
G03*
X37149Y17852I-49J0D01*
G01*
X36149D02*
G03*
X36149Y17852I-49J0D01*
G01*
X35149D02*
G03*
X35149Y17852I-49J0D01*
G01*
X43400Y12361D02*
G03*
X43400Y12361I-49J0D01*
G01*
X53632Y36490D02*
G03*
X53632Y36490I-49J0D01*
G01*
X19065Y31355D02*
G03*
X19065Y31355I-49J0D01*
G01*
X33199Y17852D02*
G03*
X33199Y17852I-49J0D01*
G01*
X34149D02*
G03*
X34149Y17852I-49J0D01*
G01*
X24698Y13739D02*
G03*
X24698Y13739I-49J0D01*
G01*
X20198Y13689D02*
G03*
X20198Y13689I-49J0D01*
G01*
X20288Y26151D02*
G03*
X20288Y26151I-49J0D01*
G01*
D54*
X27210Y24893D02*
G03*
X27210Y26507I0J807D01*
G01*
Y24785D02*
G03*
X27210Y26615I0J915D01*
G01*
X24690D02*
G03*
X24690Y24785I0J-915D01*
G01*
Y26507D02*
G03*
X24690Y24893I0J-807D01*
G01*
X36980Y15500D02*
G03*
X36620Y15500I-180J0D01*
G01*
X31980D02*
G03*
X31620Y15500I-180J0D01*
G01*
X26980D02*
G03*
X26620Y15500I-180J0D01*
G01*
X43634Y14900D02*
G03*
X43634Y14900I-984J0D01*
G01*
X65967Y37150D02*
G03*
X65967Y37150I-2067J0D01*
G01*
X54073Y33050D02*
G03*
X54073Y33050I-1673J0D01*
G01*
X51545Y36548D02*
G03*
X51449Y36380I855J-598D01*
G01*
X53351D02*
G03*
X53255Y36548I-951J-430D01*
G01*
X51449Y35520D02*
G03*
X53351Y35520I951J430D01*
G01*
X51423Y37350D02*
G03*
X51423Y37350I-1673J0D01*
G01*
X48781Y34050D02*
G03*
X48781Y34050I-1181J0D01*
G01*
X38872Y17550D02*
G03*
X38872Y18050I0J250D01*
G01*
X38872Y17550D02*
G03*
X38872Y18050I0J250D01*
G01*
X53760Y12358D02*
Y13342D01*
Y12358D02*
X56240D01*
Y13342D01*
X53760D02*
X56240D01*
X53445Y12850D02*
X53760D01*
X56240D02*
X56555D01*
X53760Y14208D02*
Y15192D01*
Y14208D02*
X56240D01*
Y15192D01*
X53760D02*
X56240D01*
X53445Y14700D02*
X53760D01*
X56240D02*
X56555D01*
X21050Y25524D02*
Y25976D01*
X32924Y27150D02*
X33376D01*
X31474Y24700D02*
X31926D01*
X33550Y24574D02*
Y25026D01*
X30600Y26324D02*
Y26776D01*
X34883Y16950D02*
X35317D01*
X35883D02*
X36317D01*
X36883D02*
X37317D01*
X23622Y17170D02*
Y18430D01*
X20178Y17170D02*
Y18430D01*
X23622D01*
X20178Y17170D02*
X23622D01*
X19124Y17950D02*
X19576D01*
X38866Y34450D02*
X41150D01*
Y29450D02*
Y34450D01*
X38866Y29450D02*
X41150D01*
X38866D02*
Y34450D01*
Y33950D02*
X39469D01*
Y29950D02*
Y33950D01*
X38866Y29950D02*
X39469D01*
X39260D02*
Y33950D01*
X38866Y33843D02*
X39260D01*
X38866Y30057D02*
X39260D01*
X31083Y17000D02*
X31517D01*
X27000Y18833D02*
Y19267D01*
Y17883D02*
Y18317D01*
X25400Y37433D02*
Y37867D01*
X36844Y18600D02*
X37356D01*
X35844D02*
X36356D01*
X34844D02*
X35356D01*
X24690Y26507D02*
X27210D01*
X24690Y24893D02*
X27210D01*
X24690Y26615D02*
X27210D01*
X24690Y24785D02*
X27210D01*
X37240Y12300D02*
Y15500D01*
X35600Y12300D02*
X37240D01*
X35600D02*
Y12390D01*
X34000Y12300D02*
Y12390D01*
X30600Y12300D02*
X34000D01*
X26360D02*
X29000D01*
X26360D02*
Y15500D01*
X26620D01*
X26980D02*
X31620D01*
X31980D02*
X36620D01*
X36980D02*
X37240D01*
X28675Y14750D02*
Y15500D01*
Y14750D02*
X28954D01*
X30325Y14892D02*
Y15500D01*
X26760Y15140D02*
X28675D01*
X26760Y12640D02*
Y15140D01*
Y12640D02*
X30975D01*
Y12300D02*
Y13030D01*
X32625Y12300D02*
Y13030D01*
X29000Y12390D02*
X30600D01*
X27710Y13269D02*
Y14531D01*
X32625Y12640D02*
X36840D01*
Y15140D01*
X35750D02*
X36840D01*
X34925Y14750D02*
Y15500D01*
X34646Y14750D02*
X34925D01*
X33275Y14892D02*
Y15500D01*
X30325Y15140D02*
X33275D01*
X34000Y12390D02*
X35600D01*
X35890Y13269D02*
Y14531D01*
X36960Y13300D02*
Y14500D01*
X36840Y13300D02*
X36960D01*
X36840Y14500D02*
X36960D01*
X35890Y14531D02*
X36840D01*
X35890Y13269D02*
X36840D01*
X30600Y12300D02*
Y12390D01*
X30210D02*
Y12640D01*
X29000Y12300D02*
Y12390D01*
X29390D02*
Y12640D01*
X26640Y14500D02*
X26760D01*
X26640Y13300D02*
Y14500D01*
Y13300D02*
X26760D01*
Y14531D02*
X27710D01*
X26760Y13269D02*
X27710D01*
X34390Y12390D02*
Y12640D01*
X35210Y12390D02*
Y12640D01*
X27960Y12300D02*
X28300Y12640D01*
X28640Y12300D01*
X50909Y12333D02*
X52091D01*
X50909Y15167D02*
X52091D01*
Y12333D02*
Y15167D01*
X50909Y12333D02*
Y15167D01*
X59650Y36674D02*
Y37126D01*
X55200Y38000D02*
X57100D01*
Y33900D02*
Y38000D01*
X56600Y33900D02*
Y38000D01*
X55200Y33900D02*
Y38000D01*
Y33900D02*
X57100D01*
X42928Y12479D02*
Y13621D01*
X42672Y12479D02*
X42928D01*
X42672D02*
Y13621D01*
X42928D01*
X44933Y13400D02*
X45367D01*
X42355Y15313D02*
Y15707D01*
X42158Y15510D02*
X42552D01*
X63703Y38764D02*
X64097D01*
X63900Y38567D02*
Y38961D01*
X54424Y34650D02*
X54876D01*
X52203Y31711D02*
X52597D01*
X52400Y31515D02*
Y31908D01*
X51545Y36548D02*
X53255D01*
X54450Y35724D02*
Y36176D01*
X49750Y38472D02*
Y38866D01*
X49553Y38669D02*
X49947D01*
X47174Y36100D02*
X47626D01*
X46891Y34680D02*
X47285D01*
X47088Y34483D02*
Y34877D01*
X47193Y37700D02*
X47607D01*
X38872Y16757D02*
Y17550D01*
Y18050D02*
Y18843D01*
X41928Y16757D02*
Y18843D01*
X38872Y16757D02*
X41928D01*
X38872Y18843D02*
X41928D01*
X23800Y36508D02*
Y37111D01*
X18800D02*
X23800D01*
X18800Y36508D02*
Y37111D01*
Y36902D02*
X23800D01*
X18907Y36508D02*
Y36902D01*
X23693Y36508D02*
Y36902D01*
X18300Y36508D02*
X24300D01*
X18300D02*
Y38792D01*
X24300D01*
Y36508D02*
Y38792D01*
X19583Y35450D02*
X20017D01*
X20533D02*
X20967D01*
X19116Y31946D02*
X21084D01*
X19116Y32654D02*
X21084D01*
X19116Y31946D02*
Y32654D01*
X21084Y31946D02*
Y32654D01*
X34583Y35550D02*
X35017D01*
X35533D02*
X35967D01*
X31533D02*
X31967D01*
X32933Y16950D02*
X33367D01*
X32894Y18600D02*
X33406D01*
X33883Y16950D02*
X34317D01*
X33844Y18600D02*
X34356D01*
X25072Y12479D02*
Y13621D01*
X25328D01*
Y12479D02*
Y13621D01*
X25072Y12479D02*
X25328D01*
X23683Y13050D02*
X24117D01*
X23683Y14400D02*
X24117D01*
X20572Y12429D02*
Y13571D01*
X20828D01*
Y12429D02*
Y13571D01*
X20572Y12429D02*
X20828D01*
X19183Y13000D02*
X19617D01*
X19183Y14300D02*
X19617D01*
X19200Y28900D02*
Y29900D01*
X18200Y28900D02*
Y29900D01*
X22200D01*
X18200Y28900D02*
X22200D01*
Y29900D01*
X18979Y25728D02*
X20121D01*
Y25472D02*
Y25728D01*
X18979Y25472D02*
X20121D01*
X18979D02*
Y25728D01*
X19700Y26633D02*
Y27067D01*
X19150Y23983D02*
Y24417D01*
X35750Y36508D02*
Y37111D01*
X30750D02*
X35750D01*
X30750Y36508D02*
Y37111D01*
Y36902D02*
X35750D01*
X30857Y36508D02*
Y36902D01*
X35643Y36508D02*
Y36902D01*
X30250Y36508D02*
X36250D01*
X30250D02*
Y38792D01*
X36250D01*
Y36508D02*
Y38792D01*
X30500Y35033D02*
Y35467D01*
X32533Y35550D02*
X32967D01*
X40133Y20550D02*
X40567D01*
X38865Y23707D02*
X39259D01*
X38865Y26493D02*
X39259D01*
Y23600D02*
Y26600D01*
X38865Y23600D02*
X39468D01*
Y26600D01*
X38865D02*
X39468D01*
X38865Y23100D02*
Y27100D01*
Y23100D02*
X41149D01*
Y27100D01*
X38865D02*
X41149D01*
D55*
X22900Y32300D02*
G03*
X22900Y32300I-100J0D01*
G01*
X26000Y33300D02*
G03*
X26000Y33300I-100J0D01*
G01*
X22398Y31800D02*
X24202D01*
X22398D02*
Y33800D01*
X24202D01*
Y31800D02*
Y33800D01*
X24499D02*
X26302D01*
Y31800D02*
Y33800D01*
X24499Y31800D02*
X26302D01*
X24499D02*
Y33800D01*
X61628Y21583D02*
Y32017D01*
X65172Y21583D02*
Y32017D01*
X61628Y21583D02*
X65172D01*
X61628Y32017D02*
X65172D01*
D56*
X53950Y25250D02*
G03*
X53950Y25250I-100J0D01*
G01*
D57*
X61665Y17675D02*
G03*
X61980Y17990I0J315D01*
G01*
X60720D02*
G03*
X61035Y17675I315J0D01*
G01*
Y20825D02*
G03*
X60720Y20510I0J-315D01*
G01*
X61980D02*
G03*
X61665Y20825I-315J0D01*
G01*
X47755Y15200D02*
G03*
X48345Y15200I295J0D01*
G01*
X60950Y34345D02*
G03*
X60950Y33755I0J-295D01*
G01*
X42442Y16270D02*
Y31230D01*
Y16270D02*
X60158D01*
Y31230D01*
X42442D02*
X60158D01*
X56200Y19813D02*
Y23250D01*
X46350D02*
X56200D01*
X46350Y19876D02*
Y23250D01*
X48300Y24200D02*
Y27950D01*
X54400Y24200D02*
Y28031D01*
X61528Y12163D02*
Y12419D01*
X60741D02*
X61528D01*
X60741Y12163D02*
Y12419D01*
X59559Y12163D02*
Y12419D01*
X58772D02*
X59559D01*
X58772Y12163D02*
Y12419D01*
X62119Y12163D02*
Y15313D01*
X58182Y12163D02*
X62119D01*
X58182Y15313D02*
X62119D01*
X58182Y12163D02*
Y15313D01*
X27650Y32550D02*
Y34550D01*
X26650Y32550D02*
X27650D01*
X26650D02*
Y34550D01*
X27650D01*
X65481Y20478D02*
X65737D01*
X65481Y19691D02*
Y20478D01*
Y19691D02*
X65737D01*
X65481Y18509D02*
X65737D01*
X65481Y17722D02*
Y18509D01*
Y17722D02*
X65737D01*
X62587Y21068D02*
X65737D01*
Y17132D02*
Y21068D01*
X62587Y17132D02*
Y21068D01*
Y17132D02*
X65737D01*
X60720Y17990D02*
Y20510D01*
X61035Y17675D02*
X61665D01*
X61035Y20825D02*
X61665D01*
X61980Y17990D02*
Y20510D01*
X43900Y13900D02*
X44500D01*
X43900Y12600D02*
X44500D01*
X43900D02*
Y13900D01*
X44500Y12600D02*
Y13900D01*
X47164Y12867D02*
Y13064D01*
X47066Y14934D02*
X47263D01*
X47164Y14836D02*
Y15033D01*
X48345Y15200D02*
X49300D01*
X46800D02*
X47755D01*
X46800Y12700D02*
X49300D01*
Y15200D01*
X46800Y12700D02*
Y15200D01*
X58617Y34936D02*
X58814D01*
X60684Y34837D02*
Y35034D01*
X60586Y34936D02*
X60783D01*
X60950Y32800D02*
Y33755D01*
Y34345D02*
Y35300D01*
X58450Y32800D02*
Y35300D01*
Y32800D02*
X60950D01*
X58450Y35300D02*
X60950D01*
X16650Y23750D02*
X17850D01*
Y21350D02*
Y23750D01*
X15450Y21350D02*
X17850D01*
X15450D02*
Y23750D01*
X16650D01*
Y27300D02*
X17850D01*
Y24900D02*
Y27300D01*
X15450Y24900D02*
X17850D01*
X15450D02*
Y27300D01*
X16650D01*
X35050Y15274D02*
X35088Y15293D01*
X35145Y15350D01*
Y14950D01*
X35572Y15293D02*
X35553Y15331D01*
X35496Y15350D01*
X35458D01*
X35400Y15331D01*
X35362Y15274D01*
X35343Y15179D01*
Y15083D01*
X35362Y15007D01*
X35400Y14969D01*
X35458Y14950D01*
X35477D01*
X35534Y14969D01*
X35572Y15007D01*
X35591Y15064D01*
Y15083D01*
X35572Y15140D01*
X35534Y15179D01*
X35477Y15198D01*
X35458D01*
X35400Y15179D01*
X35362Y15140D01*
X35343Y15083D01*
D58*
X40870Y34037D02*
X40889Y33999D01*
X40945Y33943D01*
X40551D01*
X18713Y38518D02*
X18751Y38537D01*
X18807Y38593D01*
Y38199D01*
X30663Y38518D02*
X30701Y38537D01*
X30757Y38593D01*
Y38199D01*
X40868Y26683D02*
X40887Y26645D01*
X40943Y26589D01*
X40549D01*
D59*
X51275Y23000D02*
D03*
D60*
X51350Y24442D02*
D03*
D61*
X44200Y12850D02*
D03*
M02*
