%FSLAX24Y24*%
%MOIN*%
G70*
G01*
G75*
G04 Layer_Color=32896*
%ADD10R,0.0453X0.0571*%
%ADD11R,0.0551X0.0413*%
%ADD12R,0.0413X0.0551*%
%ADD13R,0.0551X0.0374*%
%ADD14O,0.0236X0.0571*%
%ADD15R,0.0374X0.0551*%
%ADD16R,0.0551X0.0354*%
%ADD17R,0.0394X0.0236*%
G04:AMPARAMS|DCode=18|XSize=55mil|YSize=60mil|CornerRadius=13.8mil|HoleSize=0mil|Usage=FLASHONLY|Rotation=90.000|XOffset=0mil|YOffset=0mil|HoleType=Round|Shape=RoundedRectangle|*
%AMROUNDEDRECTD18*
21,1,0.0550,0.0325,0,0,90.0*
21,1,0.0275,0.0600,0,0,90.0*
1,1,0.0275,0.0163,0.0138*
1,1,0.0275,0.0163,-0.0138*
1,1,0.0275,-0.0163,-0.0138*
1,1,0.0275,-0.0163,0.0138*
%
%ADD18ROUNDEDRECTD18*%
G04:AMPARAMS|DCode=19|XSize=39.4mil|YSize=98.4mil|CornerRadius=9.8mil|HoleSize=0mil|Usage=FLASHONLY|Rotation=270.000|XOffset=0mil|YOffset=0mil|HoleType=Round|Shape=RoundedRectangle|*
%AMROUNDEDRECTD19*
21,1,0.0394,0.0787,0,0,270.0*
21,1,0.0197,0.0984,0,0,270.0*
1,1,0.0197,-0.0394,-0.0098*
1,1,0.0197,-0.0394,0.0098*
1,1,0.0197,0.0394,0.0098*
1,1,0.0197,0.0394,-0.0098*
%
%ADD19ROUNDEDRECTD19*%
G04:AMPARAMS|DCode=20|XSize=39.4mil|YSize=98.4mil|CornerRadius=9.8mil|HoleSize=0mil|Usage=FLASHONLY|Rotation=180.000|XOffset=0mil|YOffset=0mil|HoleType=Round|Shape=RoundedRectangle|*
%AMROUNDEDRECTD20*
21,1,0.0394,0.0787,0,0,180.0*
21,1,0.0197,0.0984,0,0,180.0*
1,1,0.0197,-0.0098,0.0394*
1,1,0.0197,0.0098,0.0394*
1,1,0.0197,0.0098,-0.0394*
1,1,0.0197,-0.0098,-0.0394*
%
%ADD20ROUNDEDRECTD20*%
%ADD21R,0.0551X0.0413*%
%ADD22O,0.0236X0.0866*%
%ADD23R,0.0236X0.0394*%
%ADD24C,0.0197*%
%ADD25C,0.0118*%
%ADD26C,0.0315*%
%ADD27C,0.0394*%
%ADD28C,0.0100*%
%ADD29C,0.0295*%
%ADD30C,0.0630*%
%ADD31C,0.0748*%
%ADD32C,0.0551*%
%ADD33C,0.0591*%
G04:AMPARAMS|DCode=34|XSize=59.1mil|YSize=59.1mil|CornerRadius=0mil|HoleSize=0mil|Usage=FLASHONLY|Rotation=90.000|XOffset=0mil|YOffset=0mil|HoleType=Round|Shape=Octagon|*
%AMOCTAGOND34*
4,1,8,0.0148,0.0295,-0.0148,0.0295,-0.0295,0.0148,-0.0295,-0.0148,-0.0148,-0.0295,0.0148,-0.0295,0.0295,-0.0148,0.0295,0.0148,0.0148,0.0295,0.0*
%
%ADD34OCTAGOND34*%

%ADD35C,0.1181*%
%ADD36R,0.0787X0.0787*%
%ADD37C,0.0787*%
%ADD38C,0.2362*%
%ADD39R,0.0591X0.0591*%
%ADD40R,0.0591X0.0591*%
%ADD41R,0.0630X0.0630*%
%ADD42R,0.0591X0.0591*%
%ADD43C,0.0591*%
%ADD44R,0.0630X0.0630*%
%ADD45C,0.0500*%
%ADD46O,0.0709X0.0118*%
%ADD47O,0.0118X0.0709*%
%ADD48R,0.0354X0.0197*%
%ADD49R,0.0197X0.0354*%
%ADD50R,0.0689X0.0394*%
%ADD51R,0.0571X0.0453*%
%ADD52C,0.0236*%
%ADD53C,0.0098*%
%ADD54C,0.0079*%
%ADD55C,0.0039*%
%ADD56C,0.0200*%
%ADD57C,0.0050*%
%ADD58C,0.0059*%
%ADD59R,0.9850X0.0500*%
%ADD60R,0.6100X0.0484*%
%ADD61R,0.0600X0.0200*%
%ADD62R,0.0533X0.0651*%
%ADD63R,0.0631X0.0493*%
%ADD64R,0.0493X0.0631*%
%ADD65R,0.0631X0.0454*%
%ADD66O,0.0316X0.0651*%
%ADD67R,0.0454X0.0631*%
%ADD68R,0.0631X0.0434*%
%ADD69R,0.0474X0.0316*%
G04:AMPARAMS|DCode=70|XSize=63mil|YSize=68mil|CornerRadius=17.8mil|HoleSize=0mil|Usage=FLASHONLY|Rotation=90.000|XOffset=0mil|YOffset=0mil|HoleType=Round|Shape=RoundedRectangle|*
%AMROUNDEDRECTD70*
21,1,0.0630,0.0325,0,0,90.0*
21,1,0.0275,0.0680,0,0,90.0*
1,1,0.0355,0.0163,0.0138*
1,1,0.0355,0.0163,-0.0138*
1,1,0.0355,-0.0163,-0.0138*
1,1,0.0355,-0.0163,0.0138*
%
%ADD70ROUNDEDRECTD70*%
G04:AMPARAMS|DCode=71|XSize=47.4mil|YSize=106.4mil|CornerRadius=13.8mil|HoleSize=0mil|Usage=FLASHONLY|Rotation=270.000|XOffset=0mil|YOffset=0mil|HoleType=Round|Shape=RoundedRectangle|*
%AMROUNDEDRECTD71*
21,1,0.0474,0.0787,0,0,270.0*
21,1,0.0197,0.1064,0,0,270.0*
1,1,0.0277,-0.0394,-0.0098*
1,1,0.0277,-0.0394,0.0098*
1,1,0.0277,0.0394,0.0098*
1,1,0.0277,0.0394,-0.0098*
%
%ADD71ROUNDEDRECTD71*%
G04:AMPARAMS|DCode=72|XSize=47.4mil|YSize=106.4mil|CornerRadius=13.8mil|HoleSize=0mil|Usage=FLASHONLY|Rotation=180.000|XOffset=0mil|YOffset=0mil|HoleType=Round|Shape=RoundedRectangle|*
%AMROUNDEDRECTD72*
21,1,0.0474,0.0787,0,0,180.0*
21,1,0.0197,0.1064,0,0,180.0*
1,1,0.0277,-0.0098,0.0394*
1,1,0.0277,0.0098,0.0394*
1,1,0.0277,0.0098,-0.0394*
1,1,0.0277,-0.0098,-0.0394*
%
%ADD72ROUNDEDRECTD72*%
%ADD73R,0.0631X0.0493*%
%ADD74O,0.0316X0.0946*%
%ADD75R,0.0316X0.0474*%
%ADD76C,0.0710*%
%ADD77C,0.0828*%
%ADD78C,0.0631*%
%ADD79C,0.0671*%
G04:AMPARAMS|DCode=80|XSize=67.1mil|YSize=67.1mil|CornerRadius=0mil|HoleSize=0mil|Usage=FLASHONLY|Rotation=90.000|XOffset=0mil|YOffset=0mil|HoleType=Round|Shape=Octagon|*
%AMOCTAGOND80*
4,1,8,0.0168,0.0335,-0.0168,0.0335,-0.0335,0.0168,-0.0335,-0.0168,-0.0168,-0.0335,0.0168,-0.0335,0.0335,-0.0168,0.0335,0.0168,0.0168,0.0335,0.0*
%
%ADD80OCTAGOND80*%

%ADD81C,0.1261*%
%ADD82R,0.0867X0.0867*%
%ADD83C,0.0867*%
%ADD84C,0.2442*%
%ADD85R,0.0671X0.0671*%
%ADD86R,0.0671X0.0671*%
%ADD87R,0.0710X0.0710*%
%ADD88R,0.0671X0.0671*%
%ADD89C,0.0671*%
%ADD90R,0.0710X0.0710*%
%ADD91O,0.0789X0.0198*%
%ADD92O,0.0198X0.0789*%
%ADD93R,0.0434X0.0277*%
%ADD94R,0.0277X0.0434*%
%ADD95R,0.0769X0.0474*%
%ADD96R,0.0651X0.0533*%
%ADD97C,0.0157*%
%ADD98R,0.0630X0.0217*%
D28*
X27880Y20230D02*
X27980Y20330D01*
X28180D01*
X28280Y20230D01*
Y19830D01*
X28180Y19730D01*
X27980D01*
X27880Y19830D01*
X27280Y19730D02*
X27680D01*
X27280Y20130D01*
Y20230D01*
X27380Y20330D01*
X27580D01*
X27680Y20230D01*
X18250Y22550D02*
X18350Y22650D01*
X18550D01*
X18650Y22550D01*
Y22150D01*
X18550Y22050D01*
X18350D01*
X18250Y22150D01*
X18050Y22550D02*
X17950Y22650D01*
X17750D01*
X17650Y22550D01*
Y22450D01*
X17750Y22350D01*
X17850D01*
X17750D01*
X17650Y22250D01*
Y22150D01*
X17750Y22050D01*
X17950D01*
X18050Y22150D01*
X33750Y38750D02*
X33850Y38850D01*
X34050D01*
X34150Y38750D01*
Y38350D01*
X34050Y38250D01*
X33850D01*
X33750Y38350D01*
X33250Y38250D02*
Y38850D01*
X33550Y38550D01*
X33150D01*
X41080Y27530D02*
X41180Y27630D01*
X41380D01*
X41480Y27530D01*
Y27130D01*
X41380Y27030D01*
X41180D01*
X41080Y27130D01*
X40480Y27630D02*
X40880D01*
Y27330D01*
X40680Y27430D01*
X40580D01*
X40480Y27330D01*
Y27130D01*
X40580Y27030D01*
X40780D01*
X40880Y27130D01*
X24880Y28130D02*
X24980Y28230D01*
X25180D01*
X25280Y28130D01*
Y27730D01*
X25180Y27630D01*
X24980D01*
X24880Y27730D01*
X24280Y28230D02*
X24480Y28130D01*
X24680Y27930D01*
Y27730D01*
X24580Y27630D01*
X24380D01*
X24280Y27730D01*
Y27830D01*
X24380Y27930D01*
X24680D01*
X26780Y28130D02*
X26880Y28230D01*
X27080D01*
X27180Y28130D01*
Y27730D01*
X27080Y27630D01*
X26880D01*
X26780Y27730D01*
X26580Y28230D02*
X26180D01*
Y28130D01*
X26580Y27730D01*
Y27630D01*
X27030Y15380D02*
X27130Y15480D01*
X27330D01*
X27430Y15380D01*
Y14980D01*
X27330Y14880D01*
X27130D01*
X27030Y14980D01*
X26430Y14880D02*
X26830D01*
X26430Y15280D01*
Y15380D01*
X26530Y15480D01*
X26730D01*
X26830Y15380D01*
X26230D02*
X26130Y15480D01*
X25930D01*
X25831Y15380D01*
Y15280D01*
X25930Y15180D01*
X26030D01*
X25930D01*
X25831Y15080D01*
Y14980D01*
X25930Y14880D01*
X26130D01*
X26230Y14980D01*
X29750Y12700D02*
X29850Y12800D01*
X30050D01*
X30150Y12700D01*
Y12300D01*
X30050Y12200D01*
X29850D01*
X29750Y12300D01*
X29150Y12200D02*
X29550D01*
X29150Y12600D01*
Y12700D01*
X29250Y12800D01*
X29450D01*
X29550Y12700D01*
X28650Y12200D02*
Y12800D01*
X28950Y12500D01*
X28551D01*
X28450Y16300D02*
X28550Y16200D01*
Y16000D01*
X28450Y15900D01*
X28050D01*
X27950Y16000D01*
Y16200D01*
X28050Y16300D01*
X27950Y16900D02*
Y16500D01*
X28350Y16900D01*
X28450D01*
X28550Y16800D01*
Y16600D01*
X28450Y16500D01*
X28550Y17499D02*
Y17100D01*
X28250D01*
X28350Y17300D01*
Y17400D01*
X28250Y17499D01*
X28050D01*
X27950Y17400D01*
Y17200D01*
X28050Y17100D01*
X29300Y18100D02*
X29400Y18000D01*
Y17800D01*
X29300Y17700D01*
X28900D01*
X28800Y17800D01*
Y18000D01*
X28900Y18100D01*
X28800Y18700D02*
Y18300D01*
X29200Y18700D01*
X29300D01*
X29400Y18600D01*
Y18400D01*
X29300Y18300D01*
X29400Y19299D02*
X29300Y19100D01*
X29100Y18900D01*
X28900D01*
X28800Y19000D01*
Y19200D01*
X28900Y19299D01*
X29000D01*
X29100Y19200D01*
Y18900D01*
X18000Y36050D02*
X18100Y36150D01*
X18300D01*
X18400Y36050D01*
Y35650D01*
X18300Y35550D01*
X18100D01*
X18000Y35650D01*
X17400Y35550D02*
X17800D01*
X17400Y35950D01*
Y36050D01*
X17500Y36150D01*
X17700D01*
X17800Y36050D01*
X17200Y36150D02*
X16801D01*
Y36050D01*
X17200Y35650D01*
Y35550D01*
X20400Y33500D02*
X20500Y33600D01*
X20700D01*
X20800Y33500D01*
Y33100D01*
X20700Y33000D01*
X20500D01*
X20400Y33100D01*
X19800Y33000D02*
X20200D01*
X19800Y33400D01*
Y33500D01*
X19900Y33600D01*
X20100D01*
X20200Y33500D01*
X19600D02*
X19500Y33600D01*
X19300D01*
X19201Y33500D01*
Y33400D01*
X19300Y33300D01*
X19201Y33200D01*
Y33100D01*
X19300Y33000D01*
X19500D01*
X19600Y33100D01*
Y33200D01*
X19500Y33300D01*
X19600Y33400D01*
Y33500D01*
X19500Y33300D02*
X19300D01*
X19200Y27400D02*
Y26800D01*
X18900D01*
X18800Y26900D01*
Y27300D01*
X18900Y27400D01*
X19200D01*
X18600Y26800D02*
X18400D01*
X18500D01*
Y27400D01*
X18600Y27300D01*
X20400Y24500D02*
Y23900D01*
X20100D01*
X20000Y24000D01*
Y24400D01*
X20100Y24500D01*
X20400D01*
X19400Y23900D02*
X19800D01*
X19400Y24300D01*
Y24400D01*
X19500Y24500D01*
X19700D01*
X19800Y24400D01*
X29000Y27850D02*
Y27250D01*
X28700D01*
X28600Y27350D01*
Y27750D01*
X28700Y27850D01*
X29000D01*
X28400Y27750D02*
X28300Y27850D01*
X28100D01*
X28000Y27750D01*
Y27650D01*
X28100Y27550D01*
X28200D01*
X28100D01*
X28000Y27450D01*
Y27350D01*
X28100Y27250D01*
X28300D01*
X28400Y27350D01*
X32200Y19800D02*
X31600D01*
Y20100D01*
X31700Y20200D01*
X32100D01*
X32200Y20100D01*
Y19800D01*
Y20800D02*
Y20400D01*
X31900D01*
X32000Y20600D01*
Y20700D01*
X31900Y20800D01*
X31700D01*
X31600Y20700D01*
Y20500D01*
X31700Y20400D01*
X33600Y15700D02*
Y15100D01*
X33300D01*
X33200Y15200D01*
Y15600D01*
X33300Y15700D01*
X33600D01*
X32600D02*
X32800Y15600D01*
X33000Y15400D01*
Y15200D01*
X32900Y15100D01*
X32700D01*
X32600Y15200D01*
Y15300D01*
X32700Y15400D01*
X33000D01*
X19900Y26700D02*
X20500D01*
Y27000D01*
X20400Y27100D01*
X20200D01*
X20100Y27000D01*
Y26700D01*
Y26900D02*
X19900Y27100D01*
Y27700D02*
Y27300D01*
X20300Y27700D01*
X20400D01*
X20500Y27600D01*
Y27400D01*
X20400Y27300D01*
X21050Y26700D02*
X21650D01*
Y27000D01*
X21550Y27100D01*
X21350D01*
X21250Y27000D01*
Y26700D01*
Y26900D02*
X21050Y27100D01*
X21550Y27300D02*
X21650Y27400D01*
Y27600D01*
X21550Y27700D01*
X21450D01*
X21350Y27600D01*
Y27500D01*
Y27600D01*
X21250Y27700D01*
X21150D01*
X21050Y27600D01*
Y27400D01*
X21150Y27300D01*
X30500Y29800D02*
Y30400D01*
X30200D01*
X30100Y30300D01*
Y30100D01*
X30200Y30000D01*
X30500D01*
X30300D02*
X30100Y29800D01*
X29900Y30400D02*
X29500D01*
Y30300D01*
X29900Y29900D01*
Y29800D01*
X34100Y30380D02*
Y30980D01*
X33800D01*
X33700Y30880D01*
Y30680D01*
X33800Y30580D01*
X34100D01*
X33900D02*
X33700Y30380D01*
X33500Y30880D02*
X33400Y30980D01*
X33200D01*
X33100Y30880D01*
Y30780D01*
X33200Y30680D01*
X33100Y30580D01*
Y30480D01*
X33200Y30380D01*
X33400D01*
X33500Y30480D01*
Y30580D01*
X33400Y30680D01*
X33500Y30780D01*
Y30880D01*
X33400Y30680D02*
X33200D01*
X38850Y24400D02*
Y25000D01*
X38550D01*
X38450Y24900D01*
Y24700D01*
X38550Y24600D01*
X38850D01*
X38650D02*
X38450Y24400D01*
X38250D02*
X38050D01*
X38150D01*
Y25000D01*
X38250Y24900D01*
X37750D02*
X37650Y25000D01*
X37450D01*
X37350Y24900D01*
Y24800D01*
X37450Y24700D01*
X37550D01*
X37450D01*
X37350Y24600D01*
Y24500D01*
X37450Y24400D01*
X37650D01*
X37750Y24500D01*
X38700Y22450D02*
Y23050D01*
X38400D01*
X38300Y22950D01*
Y22750D01*
X38400Y22650D01*
X38700D01*
X38500D02*
X38300Y22450D01*
X38100D02*
X37900D01*
X38000D01*
Y23050D01*
X38100Y22950D01*
X37300Y22450D02*
Y23050D01*
X37600Y22750D01*
X37200D01*
X42250Y21500D02*
Y22100D01*
X41950D01*
X41850Y22000D01*
Y21800D01*
X41950Y21700D01*
X42250D01*
X42050D02*
X41850Y21500D01*
X41250D02*
X41650D01*
X41250Y21900D01*
Y22000D01*
X41350Y22100D01*
X41550D01*
X41650Y22000D01*
X41050D02*
X40950Y22100D01*
X40750D01*
X40651Y22000D01*
Y21600D01*
X40750Y21500D01*
X40950D01*
X41050Y21600D01*
Y22000D01*
X35750Y17950D02*
X36350D01*
Y18250D01*
X36250Y18350D01*
X36050D01*
X35950Y18250D01*
Y17950D01*
Y18150D02*
X35750Y18350D01*
Y18950D02*
Y18550D01*
X36150Y18950D01*
X36250D01*
X36350Y18850D01*
Y18650D01*
X36250Y18550D01*
Y19150D02*
X36350Y19250D01*
Y19450D01*
X36250Y19549D01*
X36150D01*
X36050Y19450D01*
X35950Y19549D01*
X35850D01*
X35750Y19450D01*
Y19250D01*
X35850Y19150D01*
X35950D01*
X36050Y19250D01*
X36150Y19150D01*
X36250D01*
X36050Y19250D02*
Y19450D01*
X30600Y19350D02*
X31200D01*
Y19650D01*
X31100Y19750D01*
X30900D01*
X30800Y19650D01*
Y19350D01*
Y19550D02*
X30600Y19750D01*
Y20350D02*
Y19950D01*
X31000Y20350D01*
X31100D01*
X31200Y20250D01*
Y20050D01*
X31100Y19950D01*
X30700Y20550D02*
X30600Y20650D01*
Y20850D01*
X30700Y20949D01*
X31100D01*
X31200Y20850D01*
Y20650D01*
X31100Y20550D01*
X31000D01*
X30900Y20650D01*
Y20949D01*
X35750Y15900D02*
X36350D01*
Y16200D01*
X36250Y16300D01*
X36050D01*
X35950Y16200D01*
Y15900D01*
Y16100D02*
X35750Y16300D01*
X36250Y16500D02*
X36350Y16600D01*
Y16800D01*
X36250Y16900D01*
X36150D01*
X36050Y16800D01*
Y16700D01*
Y16800D01*
X35950Y16900D01*
X35850D01*
X35750Y16800D01*
Y16600D01*
X35850Y16500D01*
X36250Y17100D02*
X36350Y17200D01*
Y17400D01*
X36250Y17499D01*
X35850D01*
X35750Y17400D01*
Y17200D01*
X35850Y17100D01*
X36250D01*
X28800Y15950D02*
X29400D01*
Y16250D01*
X29300Y16350D01*
X29100D01*
X29000Y16250D01*
Y15950D01*
Y16150D02*
X28800Y16350D01*
X29300Y16550D02*
X29400Y16650D01*
Y16850D01*
X29300Y16950D01*
X29200D01*
X29100Y16850D01*
Y16750D01*
Y16850D01*
X29000Y16950D01*
X28900D01*
X28800Y16850D01*
Y16650D01*
X28900Y16550D01*
X28800Y17150D02*
Y17350D01*
Y17250D01*
X29400D01*
X29300Y17150D01*
X34750Y17950D02*
X35350D01*
Y18250D01*
X35250Y18350D01*
X35050D01*
X34950Y18250D01*
Y17950D01*
Y18150D02*
X34750Y18350D01*
X35250Y18550D02*
X35350Y18650D01*
Y18850D01*
X35250Y18950D01*
X35150D01*
X35050Y18850D01*
Y18750D01*
Y18850D01*
X34950Y18950D01*
X34850D01*
X34750Y18850D01*
Y18650D01*
X34850Y18550D01*
X35350Y19549D02*
Y19150D01*
X35050D01*
X35150Y19350D01*
Y19450D01*
X35050Y19549D01*
X34850D01*
X34750Y19450D01*
Y19250D01*
X34850Y19150D01*
X34750Y15900D02*
X35350D01*
Y16200D01*
X35250Y16300D01*
X35050D01*
X34950Y16200D01*
Y15900D01*
Y16100D02*
X34750Y16300D01*
X35250Y16500D02*
X35350Y16600D01*
Y16800D01*
X35250Y16900D01*
X35150D01*
X35050Y16800D01*
Y16700D01*
Y16800D01*
X34950Y16900D01*
X34850D01*
X34750Y16800D01*
Y16600D01*
X34850Y16500D01*
X35350Y17499D02*
X35250Y17300D01*
X35050Y17100D01*
X34850D01*
X34750Y17200D01*
Y17400D01*
X34850Y17499D01*
X34950D01*
X35050Y17400D01*
Y17100D01*
X29350Y34400D02*
Y35000D01*
X29050D01*
X28950Y34900D01*
Y34700D01*
X29050Y34600D01*
X29350D01*
X29150D02*
X28950Y34400D01*
X28750Y34900D02*
X28650Y35000D01*
X28450D01*
X28350Y34900D01*
Y34800D01*
X28450Y34700D01*
X28550D01*
X28450D01*
X28350Y34600D01*
Y34500D01*
X28450Y34400D01*
X28650D01*
X28750Y34500D01*
X28150Y35000D02*
X27751D01*
Y34900D01*
X28150Y34500D01*
Y34400D01*
X21850Y38300D02*
Y38900D01*
X21550D01*
X21450Y38800D01*
Y38600D01*
X21550Y38500D01*
X21850D01*
X21650D02*
X21450Y38300D01*
X21250Y38800D02*
X21150Y38900D01*
X20950D01*
X20850Y38800D01*
Y38700D01*
X20950Y38600D01*
X21050D01*
X20950D01*
X20850Y38500D01*
Y38400D01*
X20950Y38300D01*
X21150D01*
X21250Y38400D01*
X20650Y38800D02*
X20550Y38900D01*
X20350D01*
X20251Y38800D01*
Y38700D01*
X20350Y38600D01*
X20251Y38500D01*
Y38400D01*
X20350Y38300D01*
X20550D01*
X20650Y38400D01*
Y38500D01*
X20550Y38600D01*
X20650Y38700D01*
Y38800D01*
X20550Y38600D02*
X20350D01*
X23100Y29350D02*
X22500D01*
Y29050D01*
X22600Y28950D01*
X22800D01*
X22900Y29050D01*
Y29350D01*
Y29150D02*
X23100Y28950D01*
X22600Y28750D02*
X22500Y28650D01*
Y28450D01*
X22600Y28350D01*
X22700D01*
X22800Y28450D01*
Y28550D01*
Y28450D01*
X22900Y28350D01*
X23000D01*
X23100Y28450D01*
Y28650D01*
X23000Y28750D01*
Y28150D02*
X23100Y28050D01*
Y27850D01*
X23000Y27751D01*
X22600D01*
X22500Y27850D01*
Y28050D01*
X22600Y28150D01*
X22700D01*
X22800Y28050D01*
Y27751D01*
X20200Y31080D02*
Y31680D01*
X19900D01*
X19800Y31580D01*
Y31380D01*
X19900Y31280D01*
X20200D01*
X20000D02*
X19800Y31080D01*
X19300D02*
Y31680D01*
X19600Y31380D01*
X19200D01*
X19000Y31580D02*
X18900Y31680D01*
X18700D01*
X18601Y31580D01*
Y31180D01*
X18700Y31080D01*
X18900D01*
X19000Y31180D01*
Y31580D01*
X27130Y21340D02*
Y20840D01*
X27030Y20740D01*
X26830D01*
X26730Y20840D01*
Y21340D01*
X26530Y20740D02*
X26330D01*
X26430D01*
Y21340D01*
X26530Y21240D01*
X32500Y23400D02*
Y22900D01*
X32400Y22800D01*
X32200D01*
X32100Y22900D01*
Y23400D01*
X31500Y22800D02*
X31900D01*
X31500Y23200D01*
Y23300D01*
X31600Y23400D01*
X31800D01*
X31900Y23300D01*
D52*
X31679Y25111D02*
G03*
X31679Y25111I-118J0D01*
G01*
D53*
X30705Y24442D02*
G03*
X30705Y24442I-49J0D01*
G01*
X29509Y27955D02*
G03*
X29509Y27955I-49J0D01*
G01*
X27184Y18005D02*
G03*
X27184Y18005I-49J0D01*
G01*
X18404Y24891D02*
G03*
X18404Y24891I-49J0D01*
G01*
X18409Y25905D02*
G03*
X18409Y25905I-49J0D01*
G01*
D54*
X16650Y22124D02*
Y22576D01*
X20033Y25800D02*
X20467D01*
X21183D02*
X21617D01*
X19550Y35624D02*
Y36076D01*
X31167Y24717D02*
Y26883D01*
X33333Y24717D02*
Y26883D01*
X31167Y24717D02*
X33333D01*
X31167Y26883D02*
X33333D01*
X30050Y28983D02*
Y29417D01*
X30011Y27994D02*
Y28506D01*
X29932Y27994D02*
Y28506D01*
X29853Y27994D02*
Y28506D01*
X29715D02*
X30385D01*
X29715Y27994D02*
X30385D01*
X31300Y12174D02*
Y12626D01*
X26924Y13900D02*
X27376D01*
X27774Y18750D02*
X28226D01*
X24774Y26650D02*
X25226D01*
X26674D02*
X27126D01*
X20050Y32224D02*
Y32676D01*
X19250Y38383D02*
Y38817D01*
X19600Y30183D02*
Y30617D01*
X25046Y18596D02*
X27054D01*
X25046Y19304D02*
X27054D01*
Y18596D02*
Y19304D01*
X25046Y18596D02*
Y19304D01*
X18394Y24339D02*
X18906D01*
X18394Y24418D02*
X18906D01*
X18394Y24497D02*
X18906D01*
Y23965D02*
Y24635D01*
X18394Y23965D02*
Y24635D01*
X18911Y25944D02*
Y26456D01*
X18832Y25944D02*
Y26456D01*
X18753Y25944D02*
Y26456D01*
X18615D02*
X19285D01*
X18615Y25944D02*
X19285D01*
X22583Y30200D02*
X23017D01*
X32050Y38324D02*
Y38776D01*
X33433Y18800D02*
X33867D01*
X32633D02*
X33067D01*
X31535Y18165D02*
X32165D01*
X31535D02*
Y18835D01*
X32165Y18165D02*
Y18835D01*
X30683Y18200D02*
X31117D01*
X29824D02*
X30276D01*
X33433Y16550D02*
X33867D01*
X32633D02*
X33067D01*
X31535Y16165D02*
X32165D01*
X31535D02*
Y16835D01*
X32165Y16165D02*
Y16835D01*
X30683Y16550D02*
X31117D01*
X29824D02*
X30276D01*
X38450Y25383D02*
Y25817D01*
X37950Y23433D02*
Y23867D01*
X40974Y26050D02*
X41426D01*
X41183Y20500D02*
X41617D01*
X28133Y33450D02*
X28567D01*
X33500Y29483D02*
Y29917D01*
D97*
X26818Y18911D02*
G03*
X26818Y18911I-79J0D01*
G01*
D98*
X31850Y18274D02*
D03*
Y16274D02*
D03*
M02*
