%FSLAX24Y24*%
%MOIN*%
G70*
G01*
G75*
G04 Layer_Physical_Order=2*
G04 Layer_Color=16711680*
%ADD10R,0.0453X0.0571*%
%ADD11R,0.0551X0.0413*%
%ADD12R,0.0413X0.0551*%
%ADD13R,0.0551X0.0374*%
%ADD14O,0.0236X0.0571*%
%ADD15R,0.0374X0.0551*%
%ADD16R,0.0551X0.0354*%
%ADD17R,0.0394X0.0236*%
G04:AMPARAMS|DCode=18|XSize=55mil|YSize=60mil|CornerRadius=13.8mil|HoleSize=0mil|Usage=FLASHONLY|Rotation=90.000|XOffset=0mil|YOffset=0mil|HoleType=Round|Shape=RoundedRectangle|*
%AMROUNDEDRECTD18*
21,1,0.0550,0.0325,0,0,90.0*
21,1,0.0275,0.0600,0,0,90.0*
1,1,0.0275,0.0163,0.0138*
1,1,0.0275,0.0163,-0.0138*
1,1,0.0275,-0.0163,-0.0138*
1,1,0.0275,-0.0163,0.0138*
%
%ADD18ROUNDEDRECTD18*%
G04:AMPARAMS|DCode=19|XSize=39.4mil|YSize=98.4mil|CornerRadius=9.8mil|HoleSize=0mil|Usage=FLASHONLY|Rotation=270.000|XOffset=0mil|YOffset=0mil|HoleType=Round|Shape=RoundedRectangle|*
%AMROUNDEDRECTD19*
21,1,0.0394,0.0787,0,0,270.0*
21,1,0.0197,0.0984,0,0,270.0*
1,1,0.0197,-0.0394,-0.0098*
1,1,0.0197,-0.0394,0.0098*
1,1,0.0197,0.0394,0.0098*
1,1,0.0197,0.0394,-0.0098*
%
%ADD19ROUNDEDRECTD19*%
G04:AMPARAMS|DCode=20|XSize=39.4mil|YSize=98.4mil|CornerRadius=9.8mil|HoleSize=0mil|Usage=FLASHONLY|Rotation=180.000|XOffset=0mil|YOffset=0mil|HoleType=Round|Shape=RoundedRectangle|*
%AMROUNDEDRECTD20*
21,1,0.0394,0.0787,0,0,180.0*
21,1,0.0197,0.0984,0,0,180.0*
1,1,0.0197,-0.0098,0.0394*
1,1,0.0197,0.0098,0.0394*
1,1,0.0197,0.0098,-0.0394*
1,1,0.0197,-0.0098,-0.0394*
%
%ADD20ROUNDEDRECTD20*%
%ADD21R,0.0551X0.0413*%
%ADD22O,0.0236X0.0866*%
%ADD23R,0.0236X0.0394*%
%ADD24C,0.0197*%
%ADD25C,0.0118*%
%ADD26C,0.0315*%
%ADD27C,0.0394*%
%ADD28C,0.0100*%
%ADD29C,0.0295*%
%ADD30C,0.0630*%
%ADD31C,0.0748*%
%ADD32C,0.0551*%
%ADD33C,0.0591*%
G04:AMPARAMS|DCode=34|XSize=59.1mil|YSize=59.1mil|CornerRadius=0mil|HoleSize=0mil|Usage=FLASHONLY|Rotation=90.000|XOffset=0mil|YOffset=0mil|HoleType=Round|Shape=Octagon|*
%AMOCTAGOND34*
4,1,8,0.0148,0.0295,-0.0148,0.0295,-0.0295,0.0148,-0.0295,-0.0148,-0.0148,-0.0295,0.0148,-0.0295,0.0295,-0.0148,0.0295,0.0148,0.0148,0.0295,0.0*
%
%ADD34OCTAGOND34*%

%ADD35C,0.1181*%
%ADD36R,0.0787X0.0787*%
%ADD37C,0.0787*%
%ADD38C,0.2362*%
%ADD39R,0.0591X0.0591*%
%ADD40R,0.0591X0.0591*%
%ADD41R,0.0630X0.0630*%
%ADD42R,0.0591X0.0591*%
%ADD43C,0.0591*%
%ADD44R,0.0630X0.0630*%
%ADD45C,0.0500*%
%ADD46O,0.0709X0.0118*%
%ADD47O,0.0118X0.0709*%
%ADD48R,0.0354X0.0197*%
%ADD49R,0.0197X0.0354*%
%ADD50R,0.0689X0.0394*%
%ADD51R,0.0571X0.0453*%
G36*
X61850Y38500D02*
Y31550D01*
Y31450D01*
X60550Y30150D01*
X60300Y29900D01*
X45415D01*
X45395Y29946D01*
X46132Y30682D01*
X56150D01*
X56232Y30693D01*
X56309Y30725D01*
X56375Y30775D01*
X57575Y31975D01*
X57625Y32041D01*
X57657Y32118D01*
X57668Y32200D01*
Y36300D01*
X57657Y36382D01*
X57625Y36459D01*
X57575Y36525D01*
X56925Y37175D01*
X56859Y37225D01*
X56782Y37257D01*
X56700Y37268D01*
X56412D01*
Y37462D01*
X55388D01*
Y36438D01*
X55658D01*
X55668Y36388D01*
X55651Y36381D01*
X55548Y36302D01*
X55469Y36199D01*
X55419Y36079D01*
X55409Y36000D01*
X56391D01*
X56381Y36079D01*
X56331Y36199D01*
X56252Y36302D01*
X56149Y36381D01*
X56132Y36388D01*
X56142Y36438D01*
X56412D01*
Y36632D01*
X56568D01*
X57032Y36168D01*
Y32332D01*
X56018Y31318D01*
X46000D01*
X45918Y31307D01*
X45841Y31275D01*
X45775Y31225D01*
X44375Y29825D01*
X44325Y29759D01*
X44293Y29682D01*
X44282Y29600D01*
Y23441D01*
X44278Y23436D01*
X44241Y23346D01*
X44229Y23250D01*
X44241Y23154D01*
X44278Y23064D01*
X44337Y22987D01*
X44414Y22928D01*
X44504Y22891D01*
X44600Y22879D01*
X44696Y22891D01*
X44786Y22928D01*
X44863Y22987D01*
X44922Y23064D01*
X44959Y23154D01*
X44971Y23250D01*
X44959Y23346D01*
X44922Y23436D01*
X44918Y23441D01*
Y29468D01*
X45154Y29705D01*
X45200Y29685D01*
Y19600D01*
X43300Y17700D01*
X43050Y17950D01*
X39694D01*
X39675Y17996D01*
X39811Y18132D01*
X43150D01*
X43150Y18132D01*
X43185Y18137D01*
X43219Y18141D01*
X43265Y18160D01*
X43284Y18168D01*
X43340Y18210D01*
X43890Y18760D01*
X43890Y18760D01*
X43914Y18792D01*
X43932Y18816D01*
X43959Y18881D01*
X43968Y18950D01*
Y30689D01*
X45372Y32093D01*
X51967D01*
Y31928D01*
X52833D01*
Y32794D01*
X51967D01*
Y32629D01*
X45261D01*
X45261Y32629D01*
X45226Y32624D01*
X45192Y32620D01*
X45165Y32609D01*
X45127Y32593D01*
X45088Y32563D01*
X45071Y32551D01*
X45071Y32551D01*
X43510Y30990D01*
X43468Y30934D01*
X43460Y30915D01*
X43441Y30869D01*
X43437Y30835D01*
X43432Y30800D01*
X43432Y30800D01*
Y19061D01*
X43039Y18668D01*
X39700D01*
X39631Y18659D01*
X39585Y18640D01*
X39566Y18632D01*
X39542Y18614D01*
X39510Y18590D01*
X39510Y18590D01*
X38010Y17090D01*
X37968Y17034D01*
X37960Y17015D01*
X37941Y16969D01*
X37937Y16935D01*
X37932Y16900D01*
X37932Y16900D01*
Y13611D01*
X36939Y12618D01*
X32566D01*
X32559Y12669D01*
X32532Y12734D01*
X32521Y12749D01*
Y13024D01*
X32609Y13091D01*
X32678Y13182D01*
X32722Y13287D01*
X32737Y13400D01*
X32722Y13513D01*
X32678Y13618D01*
X32609Y13709D01*
X32518Y13778D01*
X32413Y13822D01*
X32300Y13837D01*
X32187Y13822D01*
X32082Y13778D01*
X31991Y13709D01*
X31922Y13618D01*
X31878Y13513D01*
X31863Y13400D01*
X31878Y13287D01*
X31922Y13182D01*
X31991Y13091D01*
X32079Y13024D01*
Y12749D01*
X32068Y12734D01*
X32041Y12669D01*
X32029Y12667D01*
X31979Y12707D01*
Y12794D01*
X31330D01*
Y12026D01*
X31294Y12013D01*
X31252Y12044D01*
Y12050D01*
Y12350D01*
X30639D01*
Y12050D01*
X30639Y12024D01*
X30599Y12000D01*
X30599Y12000D01*
X16200D01*
X15150Y13050D01*
Y31300D01*
X16200Y32350D01*
X16261D01*
X16337Y32303D01*
X16526Y32225D01*
X16725Y32177D01*
X16929Y32161D01*
X17133Y32177D01*
X17332Y32225D01*
X17521Y32303D01*
X17597Y32350D01*
X18219D01*
X18236Y32300D01*
X18187Y32263D01*
X18128Y32186D01*
X18091Y32096D01*
X18079Y32000D01*
X18091Y31904D01*
X18128Y31814D01*
X18187Y31737D01*
X18264Y31678D01*
X18354Y31641D01*
X18450Y31629D01*
X18546Y31641D01*
X18636Y31678D01*
X18713Y31737D01*
X18772Y31814D01*
X18809Y31904D01*
X18821Y32000D01*
X18814Y32052D01*
X18991Y32229D01*
X19371D01*
Y32056D01*
X20020D01*
Y32350D01*
X20098D01*
Y32074D01*
X20354D01*
Y32450D01*
X20454D01*
Y32074D01*
X20711D01*
Y32350D01*
X21488D01*
X21504Y32303D01*
X21500Y32300D01*
X21444Y32227D01*
X21409Y32141D01*
X21404Y32100D01*
X22096D01*
X22091Y32141D01*
X22056Y32227D01*
X22000Y32300D01*
X21996Y32303D01*
X22012Y32350D01*
X25500D01*
Y33200D01*
X26900Y34600D01*
X27450Y35150D01*
Y39200D01*
X61150D01*
X61850Y38500D01*
D02*
G37*
%LPC*%
G36*
X15800Y19696D02*
Y19400D01*
X16096D01*
X16091Y19441D01*
X16056Y19527D01*
X16000Y19600D01*
X15927Y19656D01*
X15841Y19691D01*
X15800Y19696D01*
D02*
G37*
G36*
X26800Y20451D02*
X26708Y20432D01*
X26630Y20380D01*
X26577Y20302D01*
X26566Y20246D01*
X26515D01*
X26505Y20295D01*
X26457Y20367D01*
X26385Y20415D01*
X26350Y20422D01*
Y19895D01*
Y19367D01*
X26385Y19374D01*
X26457Y19423D01*
X26505Y19495D01*
X26515Y19544D01*
X26566D01*
X26577Y19488D01*
X26630Y19410D01*
X26708Y19357D01*
X26800Y19339D01*
X26892Y19357D01*
X26970Y19410D01*
X27023Y19488D01*
X27039Y19572D01*
X27090Y19570D01*
X27091Y19558D01*
X27128Y19469D01*
X27187Y19392D01*
X27264Y19333D01*
X27354Y19296D01*
X27450Y19283D01*
X27502Y19290D01*
X27606Y19186D01*
Y18780D01*
X28394D01*
Y19429D01*
X27987D01*
X27814Y19602D01*
X27821Y19654D01*
X27809Y19750D01*
X27772Y19840D01*
X27713Y19917D01*
X27636Y19976D01*
X27546Y20013D01*
X27450Y20026D01*
X27398Y20019D01*
X27366Y20051D01*
X27294Y20099D01*
X27209Y20116D01*
X27041D01*
Y20210D01*
X27023Y20302D01*
X26970Y20380D01*
X26892Y20432D01*
X26800Y20451D01*
D02*
G37*
G36*
X25800Y21121D02*
X25704Y21109D01*
X25614Y21072D01*
X25537Y21013D01*
X25478Y20936D01*
X25441Y20846D01*
X25429Y20750D01*
X25441Y20654D01*
X25478Y20564D01*
X25537Y20487D01*
X25579Y20455D01*
Y20305D01*
X25577Y20302D01*
X25575Y20292D01*
X25525D01*
X25523Y20302D01*
X25505Y20328D01*
X25504Y20334D01*
X25456Y20406D01*
X25214Y20648D01*
X25221Y20700D01*
X25209Y20796D01*
X25172Y20886D01*
X25113Y20963D01*
X25036Y21022D01*
X24946Y21059D01*
X24850Y21071D01*
X24754Y21059D01*
X24664Y21022D01*
X24587Y20963D01*
X24528Y20886D01*
X24491Y20796D01*
X24479Y20700D01*
X24491Y20604D01*
X24528Y20514D01*
X24587Y20437D01*
X24664Y20378D01*
X24754Y20341D01*
X24850Y20329D01*
X24902Y20336D01*
X25059Y20179D01*
Y19580D01*
X25077Y19488D01*
X25130Y19410D01*
X25208Y19357D01*
X25300Y19339D01*
X25392Y19357D01*
X25470Y19410D01*
X25523Y19488D01*
X25525Y19498D01*
X25575D01*
X25577Y19488D01*
X25630Y19410D01*
X25708Y19357D01*
X25800Y19339D01*
X25892Y19357D01*
X25970Y19410D01*
X26023Y19488D01*
X26034Y19544D01*
X26085D01*
X26095Y19495D01*
X26143Y19423D01*
X26215Y19374D01*
X26250Y19367D01*
Y19895D01*
Y20422D01*
X26215Y20415D01*
X26143Y20367D01*
X26095Y20295D01*
X26085Y20246D01*
X26034D01*
X26023Y20302D01*
X26021Y20305D01*
Y20455D01*
X26063Y20487D01*
X26122Y20564D01*
X26159Y20654D01*
X26171Y20750D01*
X26159Y20846D01*
X26122Y20936D01*
X26063Y21013D01*
X25986Y21072D01*
X25896Y21109D01*
X25800Y21121D01*
D02*
G37*
G36*
X17650Y19646D02*
Y19350D01*
X17946D01*
X17941Y19391D01*
X17906Y19477D01*
X17850Y19550D01*
X17777Y19606D01*
X17691Y19641D01*
X17650Y19646D01*
D02*
G37*
G36*
X15700Y19696D02*
X15659Y19691D01*
X15573Y19656D01*
X15500Y19600D01*
X15444Y19527D01*
X15409Y19441D01*
X15404Y19400D01*
X15700D01*
Y19696D01*
D02*
G37*
G36*
X17550Y19646D02*
X17509Y19641D01*
X17423Y19606D01*
X17350Y19550D01*
X17294Y19477D01*
X17259Y19391D01*
X17254Y19350D01*
X17550D01*
Y19646D01*
D02*
G37*
G36*
X23600Y20650D02*
X23304D01*
X23309Y20609D01*
X23344Y20523D01*
X23400Y20450D01*
X23473Y20394D01*
X23559Y20359D01*
X23600Y20354D01*
Y20650D01*
D02*
G37*
G36*
Y21046D02*
X23559Y21041D01*
X23473Y21006D01*
X23400Y20950D01*
X23344Y20877D01*
X23309Y20791D01*
X23304Y20750D01*
X23600D01*
Y21046D01*
D02*
G37*
G36*
X23700D02*
Y20750D01*
X23996D01*
X23991Y20791D01*
X23956Y20877D01*
X23900Y20950D01*
X23827Y21006D01*
X23741Y21041D01*
X23700Y21046D01*
D02*
G37*
G36*
X17329Y22744D02*
X16680D01*
Y21956D01*
X17315D01*
Y21733D01*
X17278Y21718D01*
X17171Y21636D01*
X17089Y21529D01*
X17037Y21404D01*
X17020Y21270D01*
X17037Y21137D01*
X17089Y21012D01*
X17171Y20905D01*
X17278Y20823D01*
X17402Y20772D01*
X17536Y20754D01*
X17669Y20772D01*
X17794Y20823D01*
X17901Y20905D01*
X17983Y21012D01*
X18034Y21137D01*
X18052Y21270D01*
X18034Y21404D01*
X17983Y21529D01*
X17901Y21636D01*
X17794Y21718D01*
X17757Y21733D01*
Y22064D01*
X17740Y22149D01*
X17692Y22220D01*
X17406Y22506D01*
X17334Y22554D01*
X17329Y22555D01*
Y22744D01*
D02*
G37*
G36*
X23996Y20650D02*
X23700D01*
Y20354D01*
X23741Y20359D01*
X23827Y20394D01*
X23900Y20450D01*
X23956Y20523D01*
X23991Y20609D01*
X23996Y20650D01*
D02*
G37*
G36*
X41350Y20844D02*
X41024D01*
Y20607D01*
X41350D01*
Y20844D01*
D02*
G37*
G36*
X41776D02*
X41450D01*
Y20607D01*
X41776D01*
Y20844D01*
D02*
G37*
G36*
X31800Y19139D02*
X31406D01*
Y18892D01*
X31800D01*
Y19139D01*
D02*
G37*
G36*
X32294D02*
X31900D01*
Y18892D01*
X32294D01*
Y19139D01*
D02*
G37*
G36*
X32800Y19144D02*
X32474D01*
Y18907D01*
X32800D01*
Y19144D01*
D02*
G37*
G36*
X41794Y20411D02*
X41006D01*
Y19801D01*
X41179D01*
Y19652D01*
X41105Y19595D01*
X41039Y19508D01*
X40997Y19408D01*
X40983Y19300D01*
X40997Y19192D01*
X41039Y19092D01*
X41105Y19005D01*
X41192Y18939D01*
X41292Y18897D01*
X41400Y18883D01*
X41508Y18897D01*
X41608Y18939D01*
X41695Y19005D01*
X41761Y19092D01*
X41803Y19192D01*
X41817Y19300D01*
X41803Y19408D01*
X41761Y19508D01*
X41695Y19595D01*
X41621Y19652D01*
Y19801D01*
X41794D01*
Y20411D01*
D02*
G37*
G36*
X27950Y18702D02*
X27624D01*
Y18446D01*
X27950D01*
Y18702D01*
D02*
G37*
G36*
X28376D02*
X28050D01*
Y18446D01*
X28376D01*
Y18702D01*
D02*
G37*
G36*
X39400Y19717D02*
X39292Y19703D01*
X39192Y19661D01*
X39105Y19595D01*
X39039Y19508D01*
X38997Y19408D01*
X38983Y19300D01*
X38997Y19192D01*
X39039Y19092D01*
X39105Y19005D01*
X39192Y18939D01*
X39292Y18897D01*
X39400Y18883D01*
X39508Y18897D01*
X39608Y18939D01*
X39695Y19005D01*
X39761Y19092D01*
X39803Y19192D01*
X39817Y19300D01*
X39803Y19408D01*
X39761Y19508D01*
X39695Y19595D01*
X39608Y19661D01*
X39508Y19703D01*
X39400Y19717D01*
D02*
G37*
G36*
X31800Y19486D02*
X31406D01*
Y19239D01*
X31800D01*
Y19486D01*
D02*
G37*
G36*
X32294D02*
X31900D01*
Y19239D01*
X32294D01*
Y19486D01*
D02*
G37*
G36*
X32800Y19481D02*
X32474D01*
Y19244D01*
X32800D01*
Y19481D01*
D02*
G37*
G36*
X16096Y19300D02*
X15800D01*
Y19004D01*
X15841Y19009D01*
X15927Y19044D01*
X16000Y19100D01*
X16056Y19173D01*
X16091Y19259D01*
X16096Y19300D01*
D02*
G37*
G36*
X17550Y19250D02*
X17254D01*
X17259Y19209D01*
X17294Y19123D01*
X17350Y19050D01*
X17423Y18994D01*
X17509Y18959D01*
X17550Y18954D01*
Y19250D01*
D02*
G37*
G36*
X17946D02*
X17650D01*
Y18954D01*
X17691Y18959D01*
X17777Y18994D01*
X17850Y19050D01*
X17906Y19123D01*
X17941Y19209D01*
X17946Y19250D01*
D02*
G37*
G36*
X15700Y19300D02*
X15404D01*
X15409Y19259D01*
X15444Y19173D01*
X15500Y19100D01*
X15573Y19044D01*
X15659Y19009D01*
X15700Y19004D01*
Y19300D01*
D02*
G37*
G36*
X15714Y21220D02*
X15273D01*
X15283Y21142D01*
X15333Y21021D01*
X15412Y20918D01*
X15515Y20839D01*
X15635Y20789D01*
X15714Y20779D01*
Y21220D01*
D02*
G37*
G36*
X42900Y23696D02*
X42859Y23691D01*
X42773Y23656D01*
X42700Y23600D01*
X42644Y23527D01*
X42609Y23441D01*
X42604Y23400D01*
X42900D01*
Y23696D01*
D02*
G37*
G36*
X43000D02*
Y23400D01*
X43296D01*
X43291Y23441D01*
X43256Y23527D01*
X43200Y23600D01*
X43127Y23656D01*
X43041Y23691D01*
X43000Y23696D01*
D02*
G37*
G36*
X16256Y24770D02*
X15273D01*
X15283Y24692D01*
X15333Y24571D01*
X15412Y24468D01*
X15515Y24389D01*
X15605Y24352D01*
Y24298D01*
X15515Y24261D01*
X15412Y24182D01*
X15333Y24079D01*
X15283Y23958D01*
X15273Y23880D01*
X16256D01*
X16245Y23958D01*
X16195Y24079D01*
X16116Y24182D01*
X16013Y24261D01*
X15923Y24298D01*
Y24352D01*
X16013Y24389D01*
X16116Y24468D01*
X16195Y24571D01*
X16245Y24692D01*
X16256Y24770D01*
D02*
G37*
G36*
Y23780D02*
X15814D01*
Y23338D01*
X15893Y23349D01*
X16013Y23398D01*
X16116Y23477D01*
X16195Y23581D01*
X16245Y23701D01*
X16256Y23780D01*
D02*
G37*
G36*
X23600Y23446D02*
X23559Y23441D01*
X23473Y23406D01*
X23400Y23350D01*
X23344Y23277D01*
X23309Y23191D01*
X23304Y23150D01*
X23600D01*
Y23446D01*
D02*
G37*
G36*
X23700D02*
Y23150D01*
X23996D01*
X23991Y23191D01*
X23956Y23277D01*
X23900Y23350D01*
X23827Y23406D01*
X23741Y23441D01*
X23700Y23446D01*
D02*
G37*
G36*
X15714Y23780D02*
X15273D01*
X15283Y23701D01*
X15333Y23581D01*
X15412Y23477D01*
X15515Y23398D01*
X15635Y23349D01*
X15714Y23338D01*
Y23780D01*
D02*
G37*
G36*
X21794Y25711D02*
X21006D01*
Y25627D01*
X20644D01*
Y25711D01*
X19856D01*
Y25101D01*
X20644D01*
Y25186D01*
X21006D01*
Y25101D01*
X21184D01*
Y24999D01*
X21142Y24967D01*
X21083Y24890D01*
X21046Y24800D01*
X21033Y24704D01*
X21046Y24608D01*
X21083Y24519D01*
X21142Y24442D01*
X21219Y24383D01*
X21308Y24346D01*
X21404Y24333D01*
X21500Y24346D01*
X21590Y24383D01*
X21667Y24442D01*
X21726Y24519D01*
X21763Y24608D01*
X21776Y24704D01*
X21763Y24800D01*
X21726Y24890D01*
X21667Y24967D01*
X21625Y24999D01*
Y25101D01*
X21794D01*
Y25711D01*
D02*
G37*
G36*
X41150Y26002D02*
X40824D01*
Y25746D01*
X41150D01*
Y26002D01*
D02*
G37*
G36*
X41576D02*
X41250D01*
Y25746D01*
X41576D01*
Y26002D01*
D02*
G37*
G36*
Y25646D02*
X41250D01*
Y25389D01*
X41576D01*
Y25646D01*
D02*
G37*
G36*
X15714Y25312D02*
X15635Y25301D01*
X15515Y25252D01*
X15412Y25173D01*
X15333Y25069D01*
X15283Y24949D01*
X15273Y24870D01*
X15714D01*
Y25312D01*
D02*
G37*
G36*
X15814D02*
Y24870D01*
X16256D01*
X16245Y24949D01*
X16195Y25069D01*
X16116Y25173D01*
X16013Y25252D01*
X15893Y25301D01*
X15814Y25312D01*
D02*
G37*
G36*
X41150Y25646D02*
X40824D01*
Y25389D01*
X41150D01*
Y25646D01*
D02*
G37*
G36*
X15814Y21762D02*
Y21320D01*
X16256D01*
X16245Y21399D01*
X16195Y21519D01*
X16116Y21623D01*
X16013Y21702D01*
X15893Y21751D01*
X15814Y21762D01*
D02*
G37*
G36*
X19550Y22921D02*
X19454Y22909D01*
X19364Y22872D01*
X19287Y22813D01*
X19228Y22736D01*
X19191Y22646D01*
X19179Y22550D01*
X19191Y22454D01*
X19228Y22364D01*
X19287Y22287D01*
X19364Y22228D01*
X19454Y22191D01*
X19550Y22179D01*
X19646Y22191D01*
X19651Y22193D01*
X20172Y21672D01*
X20231Y21633D01*
X20300Y21619D01*
X21676D01*
X21678Y21614D01*
X21737Y21537D01*
X21814Y21478D01*
X21904Y21441D01*
X22000Y21429D01*
X22096Y21441D01*
X22186Y21478D01*
X22263Y21537D01*
X22322Y21614D01*
X22359Y21704D01*
X22371Y21800D01*
X22359Y21896D01*
X22322Y21986D01*
X22263Y22063D01*
X22186Y22122D01*
X22096Y22159D01*
X22000Y22171D01*
X21904Y22159D01*
X21814Y22122D01*
X21737Y22063D01*
X21678Y21986D01*
X21676Y21981D01*
X20375D01*
X19907Y22449D01*
X19909Y22454D01*
X19921Y22550D01*
X19909Y22646D01*
X19872Y22736D01*
X19813Y22813D01*
X19736Y22872D01*
X19646Y22909D01*
X19550Y22921D01*
D02*
G37*
G36*
X16246Y22300D02*
X15989D01*
Y21974D01*
X16246D01*
Y22300D01*
D02*
G37*
G36*
X15714Y21762D02*
X15635Y21751D01*
X15515Y21702D01*
X15412Y21623D01*
X15333Y21519D01*
X15283Y21399D01*
X15273Y21320D01*
X15714D01*
Y21762D01*
D02*
G37*
G36*
X16256Y21220D02*
X15814D01*
Y20779D01*
X15893Y20789D01*
X16013Y20839D01*
X16116Y20918D01*
X16195Y21021D01*
X16245Y21142D01*
X16256Y21220D01*
D02*
G37*
G36*
X41350Y21181D02*
X41024D01*
Y20944D01*
X41350D01*
Y21181D01*
D02*
G37*
G36*
X41776D02*
X41450D01*
Y20944D01*
X41776D01*
Y21181D01*
D02*
G37*
G36*
X23996Y23050D02*
X23700D01*
Y22754D01*
X23741Y22759D01*
X23827Y22794D01*
X23900Y22850D01*
X23956Y22923D01*
X23991Y23009D01*
X23996Y23050D01*
D02*
G37*
G36*
X42900Y23300D02*
X42604D01*
X42609Y23259D01*
X42644Y23173D01*
X42700Y23100D01*
X42773Y23044D01*
X42859Y23009D01*
X42900Y23004D01*
Y23300D01*
D02*
G37*
G36*
X43296D02*
X43000D01*
Y23004D01*
X43041Y23009D01*
X43127Y23044D01*
X43200Y23100D01*
X43256Y23173D01*
X43291Y23259D01*
X43296Y23300D01*
D02*
G37*
G36*
X23600Y23050D02*
X23304D01*
X23309Y23009D01*
X23344Y22923D01*
X23400Y22850D01*
X23473Y22794D01*
X23559Y22759D01*
X23600Y22754D01*
Y23050D01*
D02*
G37*
G36*
X16602Y22300D02*
X16346D01*
Y21974D01*
X16602D01*
Y22300D01*
D02*
G37*
G36*
X16246Y22726D02*
X15989D01*
Y22400D01*
X16246D01*
Y22726D01*
D02*
G37*
G36*
X16602D02*
X16346D01*
Y22400D01*
X16602D01*
Y22726D01*
D02*
G37*
G36*
X30250Y13812D02*
X30192Y13804D01*
X30091Y13763D01*
X30004Y13696D01*
X29938Y13609D01*
X29896Y13508D01*
X29888Y13450D01*
X30250D01*
Y13812D01*
D02*
G37*
G36*
X30350D02*
Y13450D01*
X30712D01*
X30704Y13508D01*
X30662Y13609D01*
X30596Y13696D01*
X30509Y13763D01*
X30408Y13804D01*
X30350Y13812D01*
D02*
G37*
G36*
X27100Y13852D02*
X26774D01*
Y13596D01*
X27100D01*
Y13852D01*
D02*
G37*
G36*
X28350Y13812D02*
Y13450D01*
X28712D01*
X28704Y13508D01*
X28662Y13609D01*
X28596Y13696D01*
X28509Y13763D01*
X28408Y13804D01*
X28350Y13812D01*
D02*
G37*
G36*
X27100Y13496D02*
X26774D01*
Y13239D01*
X27100D01*
Y13496D01*
D02*
G37*
G36*
X27526D02*
X27200D01*
Y13239D01*
X27526D01*
Y13496D01*
D02*
G37*
G36*
X28250Y13812D02*
X28192Y13804D01*
X28091Y13763D01*
X28004Y13696D01*
X27938Y13609D01*
X27896Y13508D01*
X27888Y13450D01*
X28250D01*
Y13812D01*
D02*
G37*
G36*
X35300Y14837D02*
X35187Y14822D01*
X35082Y14778D01*
X34991Y14709D01*
X34922Y14618D01*
X34878Y14513D01*
X34863Y14400D01*
X34878Y14287D01*
X34922Y14182D01*
X34991Y14091D01*
X35082Y14022D01*
X35187Y13978D01*
X35300Y13963D01*
X35413Y13978D01*
X35518Y14022D01*
X35609Y14091D01*
X35678Y14182D01*
X35722Y14287D01*
X35737Y14400D01*
X35722Y14513D01*
X35678Y14618D01*
X35609Y14709D01*
X35518Y14778D01*
X35413Y14822D01*
X35300Y14837D01*
D02*
G37*
G36*
X32712Y14350D02*
X32350D01*
Y13988D01*
X32408Y13996D01*
X32509Y14038D01*
X32596Y14104D01*
X32662Y14191D01*
X32704Y14292D01*
X32712Y14350D01*
D02*
G37*
G36*
X22250Y14600D02*
X21954D01*
X21959Y14559D01*
X21994Y14473D01*
X22050Y14400D01*
X22123Y14344D01*
X22209Y14309D01*
X22250Y14304D01*
Y14600D01*
D02*
G37*
G36*
X34300Y14837D02*
X34187Y14822D01*
X34082Y14778D01*
X33991Y14709D01*
X33922Y14618D01*
X33878Y14513D01*
X33863Y14400D01*
X33878Y14287D01*
X33922Y14182D01*
X33991Y14091D01*
X34082Y14022D01*
X34187Y13978D01*
X34300Y13963D01*
X34413Y13978D01*
X34518Y14022D01*
X34609Y14091D01*
X34678Y14182D01*
X34722Y14287D01*
X34737Y14400D01*
X34722Y14513D01*
X34678Y14618D01*
X34609Y14709D01*
X34518Y14778D01*
X34413Y14822D01*
X34300Y14837D01*
D02*
G37*
G36*
X27526Y13852D02*
X27200D01*
Y13596D01*
X27526D01*
Y13852D01*
D02*
G37*
G36*
X28300Y14837D02*
X28187Y14822D01*
X28082Y14778D01*
X28003Y14718D01*
X27296D01*
X27213Y14707D01*
X27137Y14675D01*
X27071Y14625D01*
X27036Y14579D01*
X26756D01*
Y13930D01*
X27544D01*
Y14082D01*
X28003D01*
X28082Y14022D01*
X28187Y13978D01*
X28300Y13963D01*
X28413Y13978D01*
X28518Y14022D01*
X28609Y14091D01*
X28678Y14182D01*
X28722Y14287D01*
X28737Y14400D01*
X28722Y14513D01*
X28678Y14618D01*
X28609Y14709D01*
X28518Y14778D01*
X28413Y14822D01*
X28300Y14837D01*
D02*
G37*
G36*
X29300D02*
X29187Y14822D01*
X29082Y14778D01*
X28991Y14709D01*
X28922Y14618D01*
X28878Y14513D01*
X28863Y14400D01*
X28878Y14287D01*
X28922Y14182D01*
X28991Y14091D01*
X29082Y14022D01*
X29187Y13978D01*
X29300Y13963D01*
X29413Y13978D01*
X29518Y14022D01*
X29609Y14091D01*
X29678Y14182D01*
X29722Y14287D01*
X29737Y14400D01*
X29722Y14513D01*
X29678Y14618D01*
X29609Y14709D01*
X29518Y14778D01*
X29413Y14822D01*
X29300Y14837D01*
D02*
G37*
G36*
X16596Y13100D02*
X16300D01*
Y12804D01*
X16341Y12809D01*
X16427Y12844D01*
X16500Y12900D01*
X16556Y12973D01*
X16591Y13059D01*
X16596Y13100D01*
D02*
G37*
G36*
X33300Y13837D02*
X33187Y13822D01*
X33082Y13778D01*
X32991Y13709D01*
X32922Y13618D01*
X32878Y13513D01*
X32863Y13400D01*
X32878Y13287D01*
X32922Y13182D01*
X32991Y13091D01*
X33082Y13022D01*
X33187Y12978D01*
X33300Y12963D01*
X33413Y12978D01*
X33518Y13022D01*
X33609Y13091D01*
X33678Y13182D01*
X33722Y13287D01*
X33737Y13400D01*
X33722Y13513D01*
X33678Y13618D01*
X33609Y13709D01*
X33518Y13778D01*
X33413Y13822D01*
X33300Y13837D01*
D02*
G37*
G36*
X34300D02*
X34187Y13822D01*
X34082Y13778D01*
X33991Y13709D01*
X33922Y13618D01*
X33878Y13513D01*
X33863Y13400D01*
X33878Y13287D01*
X33922Y13182D01*
X33991Y13091D01*
X34082Y13022D01*
X34187Y12978D01*
X34300Y12963D01*
X34413Y12978D01*
X34518Y13022D01*
X34609Y13091D01*
X34678Y13182D01*
X34722Y13287D01*
X34737Y13400D01*
X34722Y13513D01*
X34678Y13618D01*
X34609Y13709D01*
X34518Y13778D01*
X34413Y13822D01*
X34300Y13837D01*
D02*
G37*
G36*
X16200Y13100D02*
X15904D01*
X15909Y13059D01*
X15944Y12973D01*
X16000Y12900D01*
X16073Y12844D01*
X16159Y12809D01*
X16200Y12804D01*
Y13100D01*
D02*
G37*
G36*
X30896Y12776D02*
X30639D01*
Y12450D01*
X30896D01*
Y12776D01*
D02*
G37*
G36*
X31252D02*
X30996D01*
Y12450D01*
X31252D01*
Y12776D01*
D02*
G37*
G36*
X29300Y13837D02*
X29187Y13822D01*
X29082Y13778D01*
X28991Y13709D01*
X28922Y13618D01*
X28878Y13513D01*
X28863Y13400D01*
X28878Y13290D01*
X28108Y12521D01*
X22841D01*
X22664Y12698D01*
X22671Y12750D01*
X22659Y12846D01*
X22622Y12936D01*
X22563Y13013D01*
X22486Y13072D01*
X22396Y13109D01*
X22300Y13121D01*
X22204Y13109D01*
X22114Y13072D01*
X22037Y13013D01*
X21978Y12936D01*
X21941Y12846D01*
X21929Y12750D01*
X21941Y12654D01*
X21978Y12564D01*
X22037Y12487D01*
X22114Y12428D01*
X22204Y12391D01*
X22300Y12379D01*
X22352Y12386D01*
X22594Y12144D01*
X22666Y12096D01*
X22750Y12079D01*
X28200D01*
X28284Y12096D01*
X28356Y12144D01*
X29190Y12978D01*
X29300Y12963D01*
X29413Y12978D01*
X29518Y13022D01*
X29609Y13091D01*
X29678Y13182D01*
X29722Y13287D01*
X29737Y13400D01*
X29722Y13513D01*
X29678Y13618D01*
X29609Y13709D01*
X29518Y13778D01*
X29413Y13822D01*
X29300Y13837D01*
D02*
G37*
G36*
X30712Y13350D02*
X30350D01*
Y12988D01*
X30408Y12996D01*
X30509Y13038D01*
X30596Y13104D01*
X30662Y13191D01*
X30704Y13292D01*
X30712Y13350D01*
D02*
G37*
G36*
X16200Y13496D02*
X16159Y13491D01*
X16073Y13456D01*
X16000Y13400D01*
X15944Y13327D01*
X15909Y13241D01*
X15904Y13200D01*
X16200D01*
Y13496D01*
D02*
G37*
G36*
X16300D02*
Y13200D01*
X16596D01*
X16591Y13241D01*
X16556Y13327D01*
X16500Y13400D01*
X16427Y13456D01*
X16341Y13491D01*
X16300Y13496D01*
D02*
G37*
G36*
X30250Y13350D02*
X29888D01*
X29896Y13292D01*
X29938Y13191D01*
X30004Y13104D01*
X30091Y13038D01*
X30192Y12996D01*
X30250Y12988D01*
Y13350D01*
D02*
G37*
G36*
X35300Y13837D02*
X35187Y13822D01*
X35082Y13778D01*
X34991Y13709D01*
X34922Y13618D01*
X34878Y13513D01*
X34863Y13400D01*
X34878Y13287D01*
X34922Y13182D01*
X34991Y13091D01*
X35082Y13022D01*
X35187Y12978D01*
X35300Y12963D01*
X35413Y12978D01*
X35518Y13022D01*
X35609Y13091D01*
X35678Y13182D01*
X35722Y13287D01*
X35737Y13400D01*
X35722Y13513D01*
X35678Y13618D01*
X35609Y13709D01*
X35518Y13778D01*
X35413Y13822D01*
X35300Y13837D01*
D02*
G37*
G36*
X28250Y13350D02*
X27888D01*
X27896Y13292D01*
X27938Y13191D01*
X28004Y13104D01*
X28091Y13038D01*
X28192Y12996D01*
X28250Y12988D01*
Y13350D01*
D02*
G37*
G36*
X28712D02*
X28350D01*
Y12988D01*
X28408Y12996D01*
X28509Y13038D01*
X28596Y13104D01*
X28662Y13191D01*
X28704Y13292D01*
X28712Y13350D01*
D02*
G37*
G36*
X22646Y14600D02*
X22350D01*
Y14304D01*
X22391Y14309D01*
X22477Y14344D01*
X22550Y14400D01*
X22606Y14473D01*
X22641Y14559D01*
X22646Y14600D01*
D02*
G37*
G36*
X25250Y18533D02*
X25215Y18526D01*
X25143Y18477D01*
X25095Y18405D01*
X25078Y18320D01*
Y18055D01*
X25250D01*
Y18533D01*
D02*
G37*
G36*
X25350D02*
Y18055D01*
X25522D01*
Y18320D01*
X25505Y18405D01*
X25457Y18477D01*
X25385Y18526D01*
X25350Y18533D01*
D02*
G37*
G36*
X25750D02*
X25715Y18526D01*
X25643Y18477D01*
X25595Y18405D01*
X25578Y18320D01*
Y18055D01*
X25750D01*
Y18533D01*
D02*
G37*
G36*
X30435Y17796D02*
X30100D01*
Y17519D01*
X30435D01*
Y17796D01*
D02*
G37*
G36*
X26750Y17955D02*
X26578D01*
Y17690D01*
X26595Y17605D01*
X26643Y17533D01*
X26715Y17485D01*
X26750Y17478D01*
Y17955D01*
D02*
G37*
G36*
X27022D02*
X26850D01*
Y17478D01*
X26885Y17485D01*
X26957Y17533D01*
X27005Y17605D01*
X27022Y17690D01*
Y17955D01*
D02*
G37*
G36*
X30000Y17796D02*
X29665D01*
Y17519D01*
X30000D01*
Y17796D01*
D02*
G37*
G36*
X26850Y18533D02*
Y18055D01*
X27022D01*
Y18320D01*
X27005Y18405D01*
X26957Y18477D01*
X26885Y18526D01*
X26850Y18533D01*
D02*
G37*
G36*
X27950Y18346D02*
X27624D01*
Y18089D01*
X27950D01*
Y18346D01*
D02*
G37*
G36*
X28376D02*
X28050D01*
Y18089D01*
X28376D01*
Y18346D01*
D02*
G37*
G36*
X26750Y18533D02*
X26715Y18526D01*
X26643Y18477D01*
X26595Y18405D01*
X26578Y18320D01*
Y18055D01*
X26750D01*
Y18533D01*
D02*
G37*
G36*
X25850D02*
Y18055D01*
X26022D01*
Y18320D01*
X26005Y18405D01*
X25957Y18477D01*
X25885Y18526D01*
X25850Y18533D01*
D02*
G37*
G36*
X26250D02*
X26215Y18526D01*
X26143Y18477D01*
X26095Y18405D01*
X26078Y18320D01*
Y18055D01*
X26250D01*
Y18533D01*
D02*
G37*
G36*
X26350D02*
Y18055D01*
X26522D01*
Y18320D01*
X26505Y18405D01*
X26457Y18477D01*
X26385Y18526D01*
X26350Y18533D01*
D02*
G37*
G36*
X31800Y17139D02*
X31406D01*
Y16892D01*
X31800D01*
Y17139D01*
D02*
G37*
G36*
X32294D02*
X31900D01*
Y16892D01*
X32294D01*
Y17139D01*
D02*
G37*
G36*
X30000Y17231D02*
X29665D01*
Y16954D01*
X30000D01*
Y17231D01*
D02*
G37*
G36*
X32800Y16894D02*
X32474D01*
Y16657D01*
X32800D01*
Y16894D01*
D02*
G37*
G36*
X16929Y17051D02*
X16725Y17035D01*
X16526Y16987D01*
X16337Y16909D01*
X16163Y16802D01*
X16008Y16670D01*
X15875Y16514D01*
X15768Y16340D01*
X15690Y16151D01*
X15642Y15952D01*
X15626Y15748D01*
X15642Y15544D01*
X15690Y15345D01*
X15768Y15156D01*
X15875Y14982D01*
X16008Y14827D01*
X16163Y14694D01*
X16337Y14587D01*
X16526Y14509D01*
X16725Y14461D01*
X16929Y14445D01*
X17133Y14461D01*
X17332Y14509D01*
X17521Y14587D01*
X17695Y14694D01*
X17851Y14827D01*
X17983Y14982D01*
X18090Y15156D01*
X18169Y15345D01*
X18216Y15544D01*
X18232Y15748D01*
X18216Y15952D01*
X18169Y16151D01*
X18090Y16340D01*
X17983Y16514D01*
X17851Y16670D01*
X17695Y16802D01*
X17521Y16909D01*
X17332Y16987D01*
X17133Y17035D01*
X16929Y17051D01*
D02*
G37*
G36*
X22250Y14996D02*
X22209Y14991D01*
X22123Y14956D01*
X22050Y14900D01*
X21994Y14827D01*
X21959Y14741D01*
X21954Y14700D01*
X22250D01*
Y14996D01*
D02*
G37*
G36*
X22350D02*
Y14700D01*
X22646D01*
X22641Y14741D01*
X22606Y14827D01*
X22550Y14900D01*
X22477Y14956D01*
X22391Y14991D01*
X22350Y14996D01*
D02*
G37*
G36*
X26022Y17955D02*
X25850D01*
Y17478D01*
X25885Y17485D01*
X25957Y17533D01*
X26005Y17605D01*
X26022Y17690D01*
Y17955D01*
D02*
G37*
G36*
X26250D02*
X26078D01*
Y17690D01*
X26095Y17605D01*
X26143Y17533D01*
X26215Y17485D01*
X26250Y17478D01*
Y17955D01*
D02*
G37*
G36*
X26522D02*
X26350D01*
Y17478D01*
X26385Y17485D01*
X26457Y17533D01*
X26505Y17605D01*
X26522Y17690D01*
Y17955D01*
D02*
G37*
G36*
X25750D02*
X25578D01*
Y17690D01*
X25595Y17605D01*
X25643Y17533D01*
X25715Y17485D01*
X25750Y17478D01*
Y17955D01*
D02*
G37*
G36*
X32800Y17231D02*
X32474D01*
Y16994D01*
X32800D01*
Y17231D01*
D02*
G37*
G36*
X25250Y17955D02*
X25078D01*
Y17690D01*
X25095Y17605D01*
X25143Y17533D01*
X25215Y17485D01*
X25250Y17478D01*
Y17955D01*
D02*
G37*
G36*
X25522D02*
X25350D01*
Y17478D01*
X25385Y17485D01*
X25457Y17533D01*
X25505Y17605D01*
X25522Y17690D01*
Y17955D01*
D02*
G37*
G36*
X48150Y34442D02*
Y34100D01*
X48492D01*
X48485Y34153D01*
X48445Y34249D01*
X48382Y34332D01*
X48299Y34395D01*
X48203Y34435D01*
X48150Y34442D01*
D02*
G37*
G36*
X56391Y35900D02*
X55409D01*
X55419Y35821D01*
X55469Y35701D01*
X55548Y35598D01*
X55651Y35519D01*
X55728Y35487D01*
Y35433D01*
X55642Y35397D01*
X55535Y35315D01*
X55453Y35208D01*
X55401Y35084D01*
X55384Y34950D01*
X55401Y34816D01*
X55453Y34692D01*
X55535Y34585D01*
X55642Y34503D01*
X55766Y34451D01*
X55900Y34434D01*
X56034Y34451D01*
X56158Y34503D01*
X56265Y34585D01*
X56347Y34692D01*
X56399Y34816D01*
X56416Y34950D01*
X56399Y35084D01*
X56347Y35208D01*
X56265Y35315D01*
X56158Y35397D01*
X56072Y35433D01*
Y35487D01*
X56149Y35519D01*
X56252Y35598D01*
X56331Y35701D01*
X56381Y35821D01*
X56391Y35900D01*
D02*
G37*
G36*
X51400Y36347D02*
X51297Y36334D01*
X51201Y36294D01*
X51119Y36231D01*
X51056Y36149D01*
X51016Y36053D01*
X51003Y35950D01*
X51016Y35847D01*
X51056Y35751D01*
X51119Y35669D01*
X51201Y35606D01*
X51297Y35566D01*
X51400Y35553D01*
X51503Y35566D01*
X51599Y35606D01*
X51681Y35669D01*
X51744Y35751D01*
X51784Y35847D01*
X51797Y35950D01*
X51784Y36053D01*
X51744Y36149D01*
X51681Y36231D01*
X51599Y36294D01*
X51503Y36334D01*
X51400Y36347D01*
D02*
G37*
G36*
X48050Y34442D02*
X47997Y34435D01*
X47901Y34395D01*
X47818Y34332D01*
X47755Y34249D01*
X47715Y34153D01*
X47708Y34100D01*
X48050D01*
Y34442D01*
D02*
G37*
G36*
X52450Y34151D02*
Y33789D01*
X52812D01*
X52804Y33847D01*
X52762Y33948D01*
X52696Y34035D01*
X52609Y34101D01*
X52508Y34143D01*
X52450Y34151D01*
D02*
G37*
G36*
X27100Y34541D02*
X27021Y34531D01*
X26901Y34481D01*
X26798Y34402D01*
X26719Y34299D01*
X26669Y34179D01*
X26659Y34100D01*
X27100D01*
Y34541D01*
D02*
G37*
G36*
X27200D02*
Y34100D01*
X27641D01*
X27631Y34179D01*
X27581Y34299D01*
X27502Y34402D01*
X27399Y34481D01*
X27279Y34531D01*
X27200Y34541D01*
D02*
G37*
G36*
X52772Y35900D02*
X52450D01*
Y35578D01*
X52498Y35584D01*
X52589Y35622D01*
X52668Y35682D01*
X52728Y35761D01*
X52766Y35852D01*
X52772Y35900D01*
D02*
G37*
G36*
X42850Y36246D02*
X42809Y36241D01*
X42723Y36206D01*
X42650Y36150D01*
X42594Y36077D01*
X42559Y35991D01*
X42554Y35950D01*
X42850D01*
Y36246D01*
D02*
G37*
G36*
X42950D02*
Y35950D01*
X43246D01*
X43241Y35991D01*
X43206Y36077D01*
X43150Y36150D01*
X43077Y36206D01*
X42991Y36241D01*
X42950Y36246D01*
D02*
G37*
G36*
X52350Y35900D02*
X52028D01*
X52034Y35852D01*
X52072Y35761D01*
X52132Y35682D01*
X52211Y35622D01*
X52302Y35584D01*
X52350Y35578D01*
Y35900D01*
D02*
G37*
G36*
X53400Y36347D02*
X53297Y36334D01*
X53201Y36294D01*
X53119Y36231D01*
X53056Y36149D01*
X53016Y36053D01*
X53003Y35950D01*
X53016Y35847D01*
X53056Y35751D01*
X53119Y35669D01*
X53201Y35606D01*
X53297Y35566D01*
X53400Y35553D01*
X53503Y35566D01*
X53599Y35606D01*
X53681Y35669D01*
X53744Y35751D01*
X53784Y35847D01*
X53797Y35950D01*
X53784Y36053D01*
X53744Y36149D01*
X53681Y36231D01*
X53599Y36294D01*
X53503Y36334D01*
X53400Y36347D01*
D02*
G37*
G36*
X42850Y35850D02*
X42554D01*
X42559Y35809D01*
X42594Y35723D01*
X42650Y35650D01*
X42723Y35594D01*
X42809Y35559D01*
X42850Y35554D01*
Y35850D01*
D02*
G37*
G36*
X43246D02*
X42950D01*
Y35554D01*
X42991Y35559D01*
X43077Y35594D01*
X43150Y35650D01*
X43206Y35723D01*
X43241Y35809D01*
X43246Y35850D01*
D02*
G37*
G36*
X32850Y33096D02*
Y32800D01*
X33146D01*
X33141Y32841D01*
X33106Y32927D01*
X33050Y33000D01*
X32977Y33056D01*
X32891Y33091D01*
X32850Y33096D01*
D02*
G37*
G36*
X56250Y33246D02*
X56209Y33241D01*
X56123Y33206D01*
X56050Y33150D01*
X55994Y33077D01*
X55959Y32991D01*
X55954Y32950D01*
X56250D01*
Y33246D01*
D02*
G37*
G36*
X56350D02*
Y32950D01*
X56646D01*
X56641Y32991D01*
X56606Y33077D01*
X56550Y33150D01*
X56477Y33206D01*
X56391Y33241D01*
X56350Y33246D01*
D02*
G37*
G36*
X32750Y33096D02*
X32709Y33091D01*
X32623Y33056D01*
X32550Y33000D01*
X32494Y32927D01*
X32459Y32841D01*
X32454Y32800D01*
X32750D01*
Y33096D01*
D02*
G37*
G36*
X43500Y32950D02*
X43204D01*
X43209Y32909D01*
X43244Y32823D01*
X43300Y32750D01*
X43373Y32694D01*
X43459Y32659D01*
X43500Y32654D01*
Y32950D01*
D02*
G37*
G36*
X43896D02*
X43600D01*
Y32654D01*
X43641Y32659D01*
X43727Y32694D01*
X43800Y32750D01*
X43856Y32823D01*
X43891Y32909D01*
X43896Y32950D01*
D02*
G37*
G36*
X27641Y34000D02*
X26659D01*
X26669Y33921D01*
X26719Y33801D01*
X26798Y33698D01*
X26901Y33619D01*
X26978Y33587D01*
Y33533D01*
X26892Y33497D01*
X26785Y33415D01*
X26703Y33308D01*
X26651Y33184D01*
X26634Y33050D01*
X26651Y32916D01*
X26703Y32792D01*
X26785Y32685D01*
X26892Y32603D01*
X26929Y32587D01*
Y31991D01*
X26459Y31521D01*
X26252D01*
X26195Y31595D01*
X26108Y31661D01*
X26008Y31703D01*
X25900Y31717D01*
X25792Y31703D01*
X25692Y31661D01*
X25605Y31595D01*
X25539Y31508D01*
X25497Y31408D01*
X25483Y31300D01*
X25497Y31192D01*
X25539Y31092D01*
X25605Y31005D01*
X25679Y30948D01*
Y29491D01*
X25009Y28821D01*
X16995D01*
X16963Y28863D01*
X16886Y28922D01*
X16796Y28959D01*
X16700Y28971D01*
X16604Y28959D01*
X16514Y28922D01*
X16437Y28863D01*
X16378Y28786D01*
X16341Y28696D01*
X16329Y28600D01*
X16341Y28504D01*
X16378Y28414D01*
X16437Y28337D01*
X16514Y28278D01*
X16604Y28241D01*
X16700Y28229D01*
X16796Y28241D01*
X16886Y28278D01*
X16963Y28337D01*
X16995Y28379D01*
X25100D01*
X25184Y28396D01*
X25256Y28444D01*
X26056Y29244D01*
X26104Y29316D01*
X26121Y29400D01*
Y30948D01*
X26195Y31005D01*
X26252Y31079D01*
X26550D01*
X26634Y31096D01*
X26706Y31144D01*
X27306Y31744D01*
X27354Y31816D01*
X27371Y31900D01*
Y32587D01*
X27408Y32603D01*
X27515Y32685D01*
X27597Y32792D01*
X27613Y32829D01*
X27956D01*
Y32751D01*
X28744D01*
Y33361D01*
X27956D01*
Y33271D01*
X27613D01*
X27597Y33308D01*
X27515Y33415D01*
X27408Y33497D01*
X27322Y33533D01*
Y33587D01*
X27399Y33619D01*
X27502Y33698D01*
X27581Y33801D01*
X27631Y33921D01*
X27641Y34000D01*
D02*
G37*
G36*
X48050D02*
X47708D01*
X47715Y33947D01*
X47755Y33851D01*
X47818Y33768D01*
X47901Y33705D01*
X47997Y33665D01*
X48050Y33658D01*
Y34000D01*
D02*
G37*
G36*
X48492D02*
X48150D01*
Y33658D01*
X48203Y33665D01*
X48299Y33705D01*
X48382Y33768D01*
X48445Y33851D01*
X48485Y33947D01*
X48492Y34000D01*
D02*
G37*
G36*
X52350Y34151D02*
X52292Y34143D01*
X52191Y34101D01*
X52104Y34035D01*
X52038Y33948D01*
X51996Y33847D01*
X51988Y33789D01*
X52350D01*
Y34151D01*
D02*
G37*
G36*
X52812Y33689D02*
X52450D01*
Y33327D01*
X52508Y33335D01*
X52609Y33377D01*
X52696Y33443D01*
X52762Y33530D01*
X52804Y33631D01*
X52812Y33689D01*
D02*
G37*
G36*
X43500Y33346D02*
X43459Y33341D01*
X43373Y33306D01*
X43300Y33250D01*
X43244Y33177D01*
X43209Y33091D01*
X43204Y33050D01*
X43500D01*
Y33346D01*
D02*
G37*
G36*
X43600D02*
Y33050D01*
X43896D01*
X43891Y33091D01*
X43856Y33177D01*
X43800Y33250D01*
X43727Y33306D01*
X43641Y33341D01*
X43600Y33346D01*
D02*
G37*
G36*
X52350Y33689D02*
X51988D01*
X51996Y33631D01*
X52038Y33530D01*
X52104Y33443D01*
X52191Y33377D01*
X52292Y33335D01*
X52350Y33327D01*
Y33689D01*
D02*
G37*
G36*
Y36322D02*
X52302Y36316D01*
X52211Y36278D01*
X52132Y36218D01*
X52072Y36139D01*
X52034Y36048D01*
X52028Y36000D01*
X52350D01*
Y36322D01*
D02*
G37*
G36*
X46100Y38650D02*
X45804D01*
X45809Y38609D01*
X45844Y38523D01*
X45900Y38450D01*
X45973Y38394D01*
X46059Y38359D01*
X46100Y38354D01*
Y38650D01*
D02*
G37*
G36*
X46496D02*
X46200D01*
Y38354D01*
X46241Y38359D01*
X46327Y38394D01*
X46400Y38450D01*
X46456Y38523D01*
X46491Y38609D01*
X46496Y38650D01*
D02*
G37*
G36*
X28350Y38746D02*
X28309Y38741D01*
X28223Y38706D01*
X28150Y38650D01*
X28094Y38577D01*
X28059Y38491D01*
X28054Y38450D01*
X28350D01*
Y38746D01*
D02*
G37*
G36*
X37896Y38650D02*
X37600D01*
Y38354D01*
X37641Y38359D01*
X37727Y38394D01*
X37800Y38450D01*
X37856Y38523D01*
X37891Y38609D01*
X37896Y38650D01*
D02*
G37*
G36*
X28746Y38350D02*
X28450D01*
Y38054D01*
X28491Y38059D01*
X28577Y38094D01*
X28650Y38150D01*
X28706Y38223D01*
X28741Y38309D01*
X28746Y38350D01*
D02*
G37*
G36*
X32354Y38500D02*
X32098D01*
Y38174D01*
X32354D01*
Y38500D01*
D02*
G37*
G36*
X37500Y38650D02*
X37204D01*
X37209Y38609D01*
X37244Y38523D01*
X37300Y38450D01*
X37373Y38394D01*
X37459Y38359D01*
X37500Y38354D01*
Y38650D01*
D02*
G37*
G36*
X37600Y39046D02*
Y38750D01*
X37896D01*
X37891Y38791D01*
X37856Y38877D01*
X37800Y38950D01*
X37727Y39006D01*
X37641Y39041D01*
X37600Y39046D01*
D02*
G37*
G36*
X46100D02*
X46059Y39041D01*
X45973Y39006D01*
X45900Y38950D01*
X45844Y38877D01*
X45809Y38791D01*
X45804Y38750D01*
X46100D01*
Y39046D01*
D02*
G37*
G36*
X46200D02*
Y38750D01*
X46496D01*
X46491Y38791D01*
X46456Y38877D01*
X46400Y38950D01*
X46327Y39006D01*
X46241Y39041D01*
X46200Y39046D01*
D02*
G37*
G36*
X37500D02*
X37459Y39041D01*
X37373Y39006D01*
X37300Y38950D01*
X37244Y38877D01*
X37209Y38791D01*
X37204Y38750D01*
X37500D01*
Y39046D01*
D02*
G37*
G36*
X28450Y38746D02*
Y38450D01*
X28746D01*
X28741Y38491D01*
X28706Y38577D01*
X28650Y38650D01*
X28577Y38706D01*
X28491Y38741D01*
X28450Y38746D01*
D02*
G37*
G36*
X32354Y38926D02*
X32098D01*
Y38600D01*
X32354D01*
Y38926D01*
D02*
G37*
G36*
X32711D02*
X32454D01*
Y38600D01*
X32711D01*
Y38926D01*
D02*
G37*
G36*
X49700Y37053D02*
X49647Y37046D01*
X49551Y37006D01*
X49468Y36943D01*
X49405Y36860D01*
X49365Y36764D01*
X49358Y36711D01*
X49700D01*
Y37053D01*
D02*
G37*
G36*
X49800D02*
Y36711D01*
X50142D01*
X50135Y36764D01*
X50095Y36860D01*
X50032Y36943D01*
X49949Y37006D01*
X49853Y37046D01*
X49800Y37053D01*
D02*
G37*
G36*
X57850Y37200D02*
X57554D01*
X57559Y37159D01*
X57594Y37073D01*
X57650Y37000D01*
X57723Y36944D01*
X57809Y36909D01*
X57850Y36904D01*
Y37200D01*
D02*
G37*
G36*
X39550Y37321D02*
X39454Y37309D01*
X39364Y37272D01*
X39287Y37213D01*
X39228Y37136D01*
X39191Y37046D01*
X39179Y36950D01*
X39191Y36854D01*
X39193Y36849D01*
X37522Y35178D01*
X37483Y35119D01*
X37469Y35050D01*
Y32125D01*
X34601Y29257D01*
X34596Y29259D01*
X34500Y29271D01*
X34404Y29259D01*
X34314Y29222D01*
X34237Y29163D01*
X34178Y29086D01*
X34141Y28996D01*
X34129Y28900D01*
X34141Y28804D01*
X34178Y28714D01*
X34237Y28637D01*
X34314Y28578D01*
X34404Y28541D01*
X34500Y28529D01*
X34596Y28541D01*
X34686Y28578D01*
X34763Y28637D01*
X34822Y28714D01*
X34859Y28804D01*
X34871Y28900D01*
X34859Y28996D01*
X34857Y29001D01*
X37778Y31922D01*
X37817Y31981D01*
X37831Y32050D01*
Y34975D01*
X39449Y36593D01*
X39454Y36591D01*
X39550Y36579D01*
X39646Y36591D01*
X39736Y36628D01*
X39813Y36687D01*
X39872Y36764D01*
X39909Y36854D01*
X39921Y36950D01*
X39909Y37046D01*
X39872Y37136D01*
X39813Y37213D01*
X39736Y37272D01*
X39646Y37309D01*
X39550Y37321D01*
D02*
G37*
G36*
X52450Y36322D02*
Y36000D01*
X52772D01*
X52766Y36048D01*
X52728Y36139D01*
X52668Y36218D01*
X52589Y36278D01*
X52498Y36316D01*
X52450Y36322D01*
D02*
G37*
G36*
X49700Y36611D02*
X49358D01*
X49365Y36558D01*
X49405Y36462D01*
X49468Y36379D01*
X49551Y36316D01*
X49647Y36276D01*
X49700Y36269D01*
Y36611D01*
D02*
G37*
G36*
X50142D02*
X49800D01*
Y36269D01*
X49853Y36276D01*
X49949Y36316D01*
X50032Y36379D01*
X50095Y36462D01*
X50135Y36558D01*
X50142Y36611D01*
D02*
G37*
G36*
X35750Y38146D02*
X35622Y38129D01*
X35502Y38080D01*
X35399Y38001D01*
X35320Y37898D01*
X35276Y37791D01*
X35276Y37791D01*
X35224D01*
X35224Y37791D01*
X35180Y37898D01*
X35101Y38001D01*
X34998Y38080D01*
X34878Y38129D01*
X34750Y38146D01*
X34622Y38129D01*
X34502Y38080D01*
X34399Y38001D01*
X34320Y37898D01*
X34271Y37778D01*
X34266Y37745D01*
X34216Y37745D01*
X34212Y37774D01*
X34164Y37889D01*
X34088Y37988D01*
X33989Y38064D01*
X33874Y38112D01*
X33800Y38122D01*
Y37650D01*
Y37178D01*
X33874Y37188D01*
X33989Y37236D01*
X34088Y37312D01*
X34164Y37411D01*
X34212Y37526D01*
X34216Y37555D01*
X34266Y37555D01*
X34271Y37522D01*
X34320Y37402D01*
X34399Y37299D01*
X34502Y37220D01*
X34622Y37171D01*
X34750Y37154D01*
X34878Y37171D01*
X34998Y37220D01*
X35101Y37299D01*
X35180Y37402D01*
X35224Y37509D01*
X35224Y37509D01*
X35276D01*
X35276Y37509D01*
X35320Y37402D01*
X35399Y37299D01*
X35502Y37220D01*
X35622Y37171D01*
X35750Y37154D01*
X35878Y37171D01*
X35998Y37220D01*
X36101Y37299D01*
X36180Y37402D01*
X36229Y37522D01*
X36246Y37650D01*
X36229Y37778D01*
X36180Y37898D01*
X36101Y38001D01*
X35998Y38080D01*
X35878Y38129D01*
X35750Y38146D01*
D02*
G37*
G36*
X32020Y38944D02*
X31371D01*
Y38771D01*
X31050D01*
X30966Y38754D01*
X30894Y38706D01*
X30594Y38406D01*
X30546Y38334D01*
X30529Y38250D01*
Y38091D01*
X30502Y38080D01*
X30399Y38001D01*
X30335Y37918D01*
X29150D01*
X29150Y37918D01*
X29089Y37910D01*
X29081Y37909D01*
X29066Y37903D01*
X29016Y37882D01*
X28960Y37840D01*
X28160Y37040D01*
X28118Y36984D01*
X28110Y36965D01*
X28091Y36919D01*
X28087Y36885D01*
X28082Y36850D01*
X28082Y36850D01*
Y34149D01*
X27956D01*
Y33539D01*
X28744D01*
Y33623D01*
X29065D01*
X29436Y33252D01*
Y29594D01*
X29351D01*
Y28806D01*
X29961D01*
Y29594D01*
X29877D01*
Y33344D01*
X29860Y33428D01*
X29812Y33500D01*
X29312Y34000D01*
X29241Y34048D01*
X29156Y34064D01*
X28744D01*
Y34149D01*
X28618D01*
Y36739D01*
X29261Y37382D01*
X30335D01*
X30399Y37299D01*
X30432Y37273D01*
Y37000D01*
X30443Y36918D01*
X30475Y36841D01*
X30525Y36775D01*
X30975Y36325D01*
X31041Y36275D01*
X31118Y36243D01*
X31200Y36232D01*
X36300D01*
X36382Y36243D01*
X36459Y36275D01*
X36525Y36325D01*
X37732Y37532D01*
X46782D01*
Y34463D01*
X46687D01*
Y34318D01*
X42850D01*
X42781Y34309D01*
X42735Y34290D01*
X42716Y34282D01*
X42692Y34264D01*
X42660Y34240D01*
X42660Y34240D01*
X41760Y33340D01*
X41718Y33284D01*
X41710Y33265D01*
X41691Y33219D01*
X41687Y33185D01*
X41682Y33150D01*
X41682Y33150D01*
Y31218D01*
X40415D01*
X40351Y31301D01*
X40248Y31380D01*
X40141Y31424D01*
X40141Y31424D01*
Y31476D01*
X40141Y31476D01*
X40248Y31520D01*
X40351Y31599D01*
X40430Y31702D01*
X40479Y31822D01*
X40496Y31950D01*
X40479Y32078D01*
X40430Y32198D01*
X40351Y32301D01*
X40248Y32380D01*
X40141Y32424D01*
X40141Y32424D01*
Y32476D01*
X40141Y32476D01*
X40248Y32520D01*
X40351Y32599D01*
X40430Y32702D01*
X40479Y32822D01*
X40496Y32950D01*
X40479Y33078D01*
X40430Y33198D01*
X40351Y33301D01*
X40248Y33380D01*
X40142Y33424D01*
X40141Y33428D01*
X40143Y33476D01*
X40250Y33520D01*
X40353Y33599D01*
X40432Y33702D01*
X40481Y33822D01*
X40498Y33950D01*
X40481Y34078D01*
X40432Y34198D01*
X40353Y34301D01*
X40250Y34380D01*
X40130Y34429D01*
X40002Y34446D01*
X39873Y34429D01*
X39754Y34380D01*
X39651Y34301D01*
X39572Y34198D01*
X39544Y34131D01*
X39000D01*
X38931Y34117D01*
X38872Y34078D01*
X38172Y33378D01*
X38133Y33319D01*
X38119Y33250D01*
Y28075D01*
X37108Y27063D01*
X33549D01*
X33513Y27093D01*
Y27394D01*
Y27690D01*
X33500Y27759D01*
X33460Y27817D01*
X33402Y27857D01*
X33333Y27870D01*
X33264Y27857D01*
X33218Y27826D01*
X33198Y27840D01*
X33186Y27842D01*
Y27789D01*
X33166Y27759D01*
X33152Y27690D01*
Y27394D01*
X33120D01*
Y27690D01*
X33106Y27759D01*
X33086Y27789D01*
Y27842D01*
X33074Y27840D01*
X33054Y27826D01*
X33008Y27857D01*
X32939Y27870D01*
X32870Y27857D01*
X32841Y27837D01*
X32811Y27857D01*
X32742Y27870D01*
X32726Y27884D01*
Y29413D01*
X32753Y29435D01*
X32801Y29414D01*
Y29306D01*
X33411D01*
Y30094D01*
X32801D01*
Y29881D01*
X32750D01*
X32681Y29867D01*
X32622Y29828D01*
X32418Y29623D01*
X32378Y29564D01*
X32365Y29495D01*
Y27884D01*
X32348Y27870D01*
X32279Y27857D01*
X32250Y27837D01*
X32221Y27857D01*
X32152Y27870D01*
X32082Y27857D01*
X32053Y27837D01*
X32024Y27857D01*
X31955Y27870D01*
X31939Y27884D01*
Y30033D01*
X32525Y30619D01*
X35050D01*
X35119Y30633D01*
X35178Y30672D01*
X35878Y31372D01*
X35917Y31431D01*
X35931Y31500D01*
Y33876D01*
X35936Y33878D01*
X36013Y33937D01*
X36072Y34014D01*
X36109Y34104D01*
X36121Y34200D01*
X36109Y34296D01*
X36072Y34386D01*
X36013Y34463D01*
X35936Y34522D01*
X35846Y34559D01*
X35750Y34571D01*
X35654Y34559D01*
X35564Y34522D01*
X35487Y34463D01*
X35428Y34386D01*
X35391Y34296D01*
X35379Y34200D01*
X35391Y34104D01*
X35428Y34014D01*
X35487Y33937D01*
X35564Y33878D01*
X35569Y33876D01*
Y31575D01*
X34975Y30981D01*
X32507D01*
X32486Y31031D01*
X32625Y31169D01*
X34250D01*
X34319Y31183D01*
X34378Y31222D01*
X34878Y31722D01*
X34917Y31781D01*
X34931Y31850D01*
Y33876D01*
X34936Y33878D01*
X35013Y33937D01*
X35072Y34014D01*
X35109Y34104D01*
X35121Y34200D01*
X35109Y34296D01*
X35072Y34386D01*
X35013Y34463D01*
X34936Y34522D01*
X34846Y34559D01*
X34750Y34571D01*
X34654Y34559D01*
X34564Y34522D01*
X34487Y34463D01*
X34428Y34386D01*
X34391Y34296D01*
X34379Y34200D01*
X34391Y34104D01*
X34428Y34014D01*
X34487Y33937D01*
X34564Y33878D01*
X34569Y33876D01*
Y31925D01*
X34175Y31531D01*
X32550D01*
X32481Y31517D01*
X32422Y31478D01*
X31591Y30646D01*
X31545Y30666D01*
Y32989D01*
X31878Y33322D01*
X31917Y33381D01*
X31931Y33450D01*
Y33876D01*
X31936Y33878D01*
X32013Y33937D01*
X32072Y34014D01*
X32109Y34104D01*
X32121Y34200D01*
X32109Y34296D01*
X32072Y34386D01*
X32013Y34463D01*
X31938Y34519D01*
X31938Y34525D01*
X31962Y34569D01*
X32425D01*
X32490Y34504D01*
X32487Y34463D01*
X32428Y34386D01*
X32391Y34296D01*
X32379Y34200D01*
X32391Y34104D01*
X32428Y34014D01*
X32487Y33937D01*
X32564Y33878D01*
X32654Y33841D01*
X32750Y33829D01*
X32846Y33841D01*
X32936Y33878D01*
X33013Y33937D01*
X33072Y34014D01*
X33109Y34104D01*
X33121Y34200D01*
X33109Y34296D01*
X33072Y34386D01*
X33013Y34463D01*
X32936Y34522D01*
X32926Y34526D01*
X32917Y34569D01*
X32878Y34628D01*
X32628Y34878D01*
X32569Y34917D01*
X32500Y34931D01*
X30900D01*
X30831Y34917D01*
X30772Y34878D01*
X30316Y34421D01*
X30277Y34363D01*
X30263Y34294D01*
Y29594D01*
X30139D01*
Y28806D01*
X30369D01*
Y28467D01*
X30267D01*
Y28033D01*
X30857D01*
Y28033D01*
X30907Y28037D01*
X30987Y27958D01*
Y27690D01*
Y27394D01*
Y27107D01*
X30968Y27082D01*
X30943Y27063D01*
X30142D01*
X29719Y27487D01*
Y28033D01*
X29833D01*
Y28467D01*
X29243D01*
Y28033D01*
X29358D01*
Y27412D01*
X29371Y27343D01*
X29410Y27284D01*
X29782Y26913D01*
X29763Y26866D01*
X29489D01*
X28631Y27725D01*
Y27976D01*
X28636Y27978D01*
X28713Y28037D01*
X28772Y28114D01*
X28809Y28204D01*
X28821Y28300D01*
X28809Y28396D01*
X28772Y28486D01*
X28713Y28563D01*
X28636Y28622D01*
X28546Y28659D01*
X28450Y28671D01*
X28354Y28659D01*
X28264Y28622D01*
X28187Y28563D01*
X28128Y28486D01*
X28091Y28396D01*
X28079Y28300D01*
X28091Y28204D01*
X28128Y28114D01*
X28187Y28037D01*
X28264Y27978D01*
X28269Y27976D01*
Y27650D01*
X28283Y27581D01*
X28322Y27522D01*
X28934Y26911D01*
X28911Y26863D01*
X28850Y26871D01*
X28754Y26859D01*
X28664Y26822D01*
X28587Y26763D01*
X28528Y26686D01*
X28491Y26596D01*
X28479Y26500D01*
X28491Y26404D01*
X28528Y26314D01*
X28587Y26237D01*
X28664Y26178D01*
X28754Y26141D01*
X28850Y26129D01*
X28946Y26141D01*
X29036Y26178D01*
X29113Y26237D01*
X29167Y26308D01*
X30166D01*
X30180Y26292D01*
X30193Y26223D01*
X30224Y26177D01*
X30210Y26157D01*
X30198Y26095D01*
X30185Y26079D01*
X28576D01*
X27868Y26788D01*
X27809Y26827D01*
X27740Y26840D01*
X27276D01*
Y26954D01*
X26524D01*
Y26840D01*
X25376D01*
Y26954D01*
X24624D01*
Y26840D01*
X24010D01*
X23941Y26827D01*
X23882Y26788D01*
X23322Y26228D01*
X23283Y26169D01*
X23269Y26100D01*
Y24475D01*
X22763Y23969D01*
X18867D01*
Y24083D01*
X18433D01*
Y24050D01*
X17998D01*
X17983Y24088D01*
X17901Y24195D01*
X17794Y24277D01*
X17737Y24300D01*
Y24350D01*
X17794Y24373D01*
X17901Y24455D01*
X17983Y24562D01*
X17998Y24600D01*
X18433D01*
Y24517D01*
X18867D01*
Y25107D01*
X18433D01*
Y25041D01*
X17998D01*
X17983Y25079D01*
X17901Y25186D01*
X17794Y25268D01*
X17669Y25319D01*
X17536Y25337D01*
X17402Y25319D01*
X17278Y25268D01*
X17171Y25186D01*
X17089Y25079D01*
X17037Y24954D01*
X17020Y24820D01*
X17037Y24687D01*
X17089Y24562D01*
X17171Y24455D01*
X17278Y24373D01*
X17334Y24350D01*
Y24300D01*
X17278Y24277D01*
X17171Y24195D01*
X17089Y24088D01*
X17037Y23963D01*
X17020Y23830D01*
X17037Y23696D01*
X17089Y23571D01*
X17171Y23464D01*
X17278Y23382D01*
X17402Y23331D01*
X17536Y23313D01*
X17669Y23331D01*
X17794Y23382D01*
X17901Y23464D01*
X17983Y23571D01*
X17998Y23609D01*
X18433D01*
Y23493D01*
X18867D01*
Y23608D01*
X22838D01*
X22907Y23621D01*
X22966Y23660D01*
X23578Y24272D01*
X23617Y24331D01*
X23631Y24400D01*
Y26025D01*
X24085Y26479D01*
X24606D01*
Y25971D01*
X24644D01*
X24667Y25926D01*
X24645Y25899D01*
X24606Y25803D01*
X24592Y25700D01*
X24606Y25597D01*
X24645Y25501D01*
X24709Y25419D01*
X24791Y25356D01*
X24809Y25349D01*
Y25211D01*
X24822Y25142D01*
X24862Y25083D01*
X25172Y24772D01*
X25231Y24733D01*
X25300Y24719D01*
X27200D01*
X27269Y24733D01*
X27328Y24772D01*
X27880Y25324D01*
X29503D01*
X29522Y25278D01*
X29272Y25028D01*
X29233Y24969D01*
X29219Y24900D01*
Y23924D01*
X29214Y23922D01*
X29137Y23863D01*
X29078Y23786D01*
X29041Y23696D01*
X29029Y23600D01*
X29041Y23504D01*
X29078Y23414D01*
X29137Y23337D01*
X29214Y23278D01*
X29304Y23241D01*
X29400Y23229D01*
X29496Y23241D01*
X29586Y23278D01*
X29663Y23337D01*
X29722Y23414D01*
X29759Y23504D01*
X29771Y23600D01*
X29759Y23696D01*
X29745Y23729D01*
X29788Y23757D01*
X30172Y23372D01*
X30231Y23333D01*
X30300Y23319D01*
X30950D01*
X31019Y23333D01*
X31078Y23372D01*
X31295Y23590D01*
X31304Y23603D01*
X31371Y23613D01*
X31380Y23605D01*
Y23086D01*
X30475Y22181D01*
X30450D01*
X30381Y22167D01*
X30322Y22128D01*
X29901Y21707D01*
X29896Y21709D01*
X29800Y21721D01*
X29704Y21709D01*
X29614Y21672D01*
X29537Y21613D01*
X29478Y21536D01*
X29441Y21446D01*
X29429Y21350D01*
X29441Y21254D01*
X29478Y21164D01*
X29537Y21087D01*
X29614Y21028D01*
X29704Y20991D01*
X29800Y20979D01*
X29896Y20991D01*
X29986Y21028D01*
X30063Y21087D01*
X30122Y21164D01*
X30159Y21254D01*
X30171Y21350D01*
X30159Y21446D01*
X30157Y21451D01*
X30525Y21819D01*
X30550D01*
X30573Y21824D01*
X30588Y21816D01*
X30619Y21782D01*
Y21324D01*
X30614Y21322D01*
X30537Y21263D01*
X30478Y21186D01*
X30441Y21096D01*
X30429Y21000D01*
X30441Y20904D01*
X30478Y20814D01*
X30537Y20737D01*
X30612Y20681D01*
X30612Y20675D01*
X30588Y20631D01*
X29100D01*
X29031Y20617D01*
X28972Y20578D01*
X28572Y20178D01*
X28533Y20119D01*
X28519Y20050D01*
Y16825D01*
X28175Y16481D01*
X24300D01*
X24231Y16467D01*
X24172Y16428D01*
X24001Y16257D01*
X23996Y16259D01*
X23900Y16271D01*
X23804Y16259D01*
X23714Y16222D01*
X23637Y16163D01*
X23578Y16086D01*
X23541Y15996D01*
X23529Y15900D01*
X23541Y15804D01*
X23578Y15714D01*
X23637Y15637D01*
X23714Y15578D01*
X23804Y15541D01*
X23900Y15529D01*
X23996Y15541D01*
X24086Y15578D01*
X24163Y15637D01*
X24222Y15714D01*
X24259Y15804D01*
X24271Y15900D01*
X24259Y15996D01*
X24257Y16001D01*
X24375Y16119D01*
X28250D01*
X28319Y16133D01*
X28378Y16172D01*
X28828Y16622D01*
X28867Y16681D01*
X28872Y16707D01*
X28910Y16719D01*
X28925Y16719D01*
X29472Y16172D01*
X29531Y16133D01*
X29600Y16119D01*
X29646D01*
Y15851D01*
X30454D01*
Y16140D01*
X30456Y16142D01*
X30506Y16115D01*
Y15851D01*
X31294D01*
Y15936D01*
X31387D01*
Y15571D01*
X30700D01*
X30616Y15554D01*
X30544Y15506D01*
X30144Y15106D01*
X30096Y15034D01*
X30079Y14950D01*
Y14777D01*
X29991Y14709D01*
X29922Y14618D01*
X29878Y14513D01*
X29863Y14400D01*
X29878Y14287D01*
X29922Y14182D01*
X29991Y14091D01*
X30082Y14022D01*
X30187Y13978D01*
X30300Y13963D01*
X30413Y13978D01*
X30518Y14022D01*
X30609Y14091D01*
X30678Y14182D01*
X30722Y14287D01*
X30737Y14400D01*
X30722Y14513D01*
X30678Y14618D01*
X30609Y14709D01*
X30521Y14777D01*
Y14859D01*
X30791Y15129D01*
X31852D01*
X31871Y15083D01*
X31644Y14856D01*
X31596Y14784D01*
X31594Y14774D01*
X31547Y14756D01*
X31518Y14778D01*
X31413Y14822D01*
X31300Y14837D01*
X31187Y14822D01*
X31082Y14778D01*
X30991Y14709D01*
X30922Y14618D01*
X30878Y14513D01*
X30863Y14400D01*
X30878Y14287D01*
X30922Y14182D01*
X30991Y14091D01*
X31082Y14022D01*
X31187Y13978D01*
X31300Y13963D01*
X31413Y13978D01*
X31518Y14022D01*
X31569Y14061D01*
X31619Y14036D01*
Y13975D01*
X31451Y13806D01*
X31413Y13822D01*
X31300Y13837D01*
X31187Y13822D01*
X31082Y13778D01*
X30991Y13709D01*
X30922Y13618D01*
X30878Y13513D01*
X30863Y13400D01*
X30878Y13287D01*
X30922Y13182D01*
X30991Y13091D01*
X31082Y13022D01*
X31187Y12978D01*
X31300Y12963D01*
X31413Y12978D01*
X31518Y13022D01*
X31609Y13091D01*
X31678Y13182D01*
X31722Y13287D01*
X31737Y13400D01*
X31722Y13513D01*
X31706Y13551D01*
X31928Y13772D01*
X31967Y13831D01*
X31981Y13900D01*
Y14059D01*
X32031Y14084D01*
X32091Y14038D01*
X32192Y13996D01*
X32250Y13988D01*
Y14400D01*
X32300D01*
Y14450D01*
X32712D01*
X32704Y14508D01*
X32662Y14609D01*
X32596Y14696D01*
X32553Y14729D01*
X32570Y14779D01*
X33001D01*
X33018Y14729D01*
X32991Y14709D01*
X32922Y14618D01*
X32878Y14513D01*
X32863Y14400D01*
X32878Y14287D01*
X32922Y14182D01*
X32991Y14091D01*
X33082Y14022D01*
X33187Y13978D01*
X33300Y13963D01*
X33413Y13978D01*
X33518Y14022D01*
X33609Y14091D01*
X33678Y14182D01*
X33722Y14287D01*
X33737Y14400D01*
X33722Y14513D01*
X33678Y14618D01*
X33609Y14709D01*
X33566Y14741D01*
X33579Y14795D01*
X33584Y14796D01*
X33656Y14844D01*
X34450Y15638D01*
X34498Y15709D01*
X34514Y15794D01*
Y18406D01*
X34498Y18491D01*
X34450Y18562D01*
X34378Y18610D01*
X34294Y18627D01*
X34044D01*
Y18711D01*
X33533D01*
X33514Y18758D01*
X33645Y18889D01*
X34044D01*
Y19499D01*
X33256D01*
Y19499D01*
X33226Y19481D01*
X32900D01*
Y19194D01*
Y18907D01*
X32973D01*
X32992Y18860D01*
X32843Y18711D01*
X32456D01*
Y18571D01*
X32100D01*
X32016Y18554D01*
X31944Y18506D01*
X31694Y18256D01*
X31646Y18184D01*
X31634Y18126D01*
X31387D01*
Y18027D01*
X31294D01*
Y18111D01*
X30506D01*
Y17501D01*
X31294D01*
Y17586D01*
X31352D01*
X31387Y17550D01*
Y17528D01*
X31387Y17508D01*
Y17496D01*
X31406Y17454D01*
Y17446D01*
Y17239D01*
X32294D01*
Y17446D01*
Y17454D01*
X32313Y17496D01*
Y17508D01*
X32313Y17528D01*
Y18126D01*
X32361Y18129D01*
X32456D01*
Y18101D01*
X33206D01*
X33244Y18101D01*
X33244Y18101D01*
X33256D01*
Y18101D01*
X33256Y18101D01*
X34044D01*
X34073Y18063D01*
Y17287D01*
X34044Y17249D01*
X33256D01*
Y17249D01*
X33226Y17231D01*
X32900D01*
Y16944D01*
Y16657D01*
X32985D01*
X33005Y16610D01*
X32855Y16461D01*
X32456D01*
Y16377D01*
X31294D01*
Y16461D01*
X30795D01*
X30776Y16508D01*
X30907Y16639D01*
X31294D01*
Y17249D01*
X30506D01*
Y16878D01*
X30485Y16862D01*
X30435Y16887D01*
Y17231D01*
X30100D01*
Y16904D01*
X30050D01*
Y16854D01*
X29665D01*
Y16578D01*
X29665Y16578D01*
X29665Y16578D01*
X29621Y16559D01*
X29601Y16554D01*
X29231Y16925D01*
Y19775D01*
X29425Y19969D01*
X31049D01*
X31068Y19923D01*
X30772Y19628D01*
X30733Y19569D01*
X30719Y19500D01*
Y18899D01*
X30506D01*
Y18814D01*
X30454D01*
Y18899D01*
X29646D01*
Y18215D01*
X29646Y18210D01*
Y18210D01*
X29665Y18167D01*
X29665Y18160D01*
Y17896D01*
X30435D01*
Y18160D01*
X30435Y18167D01*
X30454Y18210D01*
Y18210D01*
X30454Y18215D01*
Y18373D01*
X30506D01*
Y18289D01*
X31294D01*
Y18899D01*
X31081D01*
Y19425D01*
X31325Y19669D01*
X37600D01*
X37669Y19683D01*
X37728Y19722D01*
X37949Y19943D01*
X37954Y19941D01*
X38050Y19929D01*
X38146Y19941D01*
X38236Y19978D01*
X38313Y20037D01*
X38372Y20114D01*
X38409Y20204D01*
X38421Y20300D01*
X38409Y20396D01*
X38372Y20486D01*
X38313Y20563D01*
X38236Y20622D01*
X38146Y20659D01*
X38050Y20671D01*
X37954Y20659D01*
X37864Y20622D01*
X37787Y20563D01*
X37728Y20486D01*
X37691Y20396D01*
X37679Y20300D01*
X37691Y20204D01*
X37693Y20199D01*
X37525Y20031D01*
X37151D01*
X37132Y20077D01*
X37928Y20872D01*
X37967Y20931D01*
X37981Y21000D01*
Y21176D01*
X37986Y21178D01*
X38063Y21237D01*
X38122Y21314D01*
X38159Y21404D01*
X38171Y21500D01*
X38159Y21596D01*
X38122Y21686D01*
X38063Y21763D01*
X37986Y21822D01*
X37896Y21859D01*
X37800Y21871D01*
X37704Y21859D01*
X37614Y21822D01*
X37537Y21763D01*
X37478Y21686D01*
X37441Y21596D01*
X37429Y21500D01*
X37441Y21404D01*
X37478Y21314D01*
X37537Y21237D01*
X37614Y21178D01*
X37619Y21176D01*
Y21075D01*
X36897Y20352D01*
X36881Y20355D01*
X36864Y20409D01*
X37128Y20672D01*
X37167Y20731D01*
X37181Y20800D01*
Y21250D01*
X37167Y21319D01*
X37128Y21378D01*
X36731Y21775D01*
Y22425D01*
X36825Y22519D01*
X37547D01*
X37572Y22469D01*
X37541Y22396D01*
X37529Y22300D01*
X37541Y22204D01*
X37578Y22114D01*
X37637Y22037D01*
X37714Y21978D01*
X37804Y21941D01*
X37900Y21929D01*
X37996Y21941D01*
X38086Y21978D01*
X38163Y22037D01*
X38195Y22079D01*
X39600D01*
X39607Y22081D01*
X40179Y21509D01*
Y19652D01*
X40105Y19595D01*
X40039Y19508D01*
X39997Y19408D01*
X39983Y19300D01*
X39997Y19192D01*
X40039Y19092D01*
X40105Y19005D01*
X40192Y18939D01*
X40292Y18897D01*
X40400Y18883D01*
X40508Y18897D01*
X40608Y18939D01*
X40695Y19005D01*
X40761Y19092D01*
X40803Y19192D01*
X40817Y19300D01*
X40803Y19408D01*
X40761Y19508D01*
X40695Y19595D01*
X40621Y19652D01*
Y21600D01*
X40604Y21684D01*
X40556Y21756D01*
X40080Y22232D01*
X40098Y22285D01*
X40146Y22291D01*
X40236Y22328D01*
X40313Y22387D01*
X40372Y22464D01*
X40409Y22554D01*
X40421Y22650D01*
X40409Y22746D01*
X40372Y22836D01*
X40313Y22913D01*
X40236Y22972D01*
X40146Y23009D01*
X40050Y23021D01*
X39954Y23009D01*
X39864Y22972D01*
X39787Y22913D01*
X39763Y22881D01*
X37801D01*
X37782Y22927D01*
X38078Y23222D01*
X38100Y23256D01*
X38649D01*
Y23379D01*
X39559D01*
X39570Y23352D01*
X39649Y23249D01*
X39752Y23170D01*
X39872Y23121D01*
X40000Y23104D01*
X40128Y23121D01*
X40248Y23170D01*
X40351Y23249D01*
X40430Y23352D01*
X40479Y23472D01*
X40496Y23600D01*
X40479Y23728D01*
X40430Y23848D01*
X40351Y23951D01*
X40248Y24030D01*
X40128Y24079D01*
X40095Y24084D01*
X40095Y24134D01*
X40124Y24138D01*
X40239Y24186D01*
X40338Y24262D01*
X40414Y24361D01*
X40462Y24476D01*
X40472Y24550D01*
X39528D01*
X39538Y24476D01*
X39586Y24361D01*
X39662Y24262D01*
X39761Y24186D01*
X39876Y24138D01*
X39905Y24134D01*
X39905Y24084D01*
X39872Y24079D01*
X39752Y24030D01*
X39649Y23951D01*
X39570Y23848D01*
X39559Y23821D01*
X38649D01*
Y24044D01*
X38131D01*
Y24925D01*
X38165Y24960D01*
X38184Y24972D01*
X38223Y25031D01*
X38237Y25100D01*
Y25206D01*
X38361D01*
Y25994D01*
X37751D01*
Y25206D01*
X37830D01*
X37851Y25156D01*
X37822Y25128D01*
X37783Y25069D01*
X37769Y25000D01*
Y24866D01*
X37722Y24850D01*
X37713Y24863D01*
X37636Y24922D01*
X37546Y24959D01*
X37450Y24971D01*
X37354Y24959D01*
X37264Y24922D01*
X37187Y24863D01*
X37128Y24786D01*
X37091Y24696D01*
X37079Y24600D01*
X37091Y24504D01*
X37123Y24428D01*
X36958Y24264D01*
X36911Y24280D01*
X36909Y24296D01*
X36872Y24386D01*
X36813Y24463D01*
X36736Y24522D01*
X36646Y24559D01*
X36550Y24571D01*
X36454Y24559D01*
X36364Y24522D01*
X36287Y24463D01*
X36228Y24386D01*
X36206Y24331D01*
X36066D01*
X36050Y24378D01*
X36063Y24387D01*
X36122Y24464D01*
X36159Y24554D01*
X36171Y24650D01*
X36159Y24746D01*
X36122Y24836D01*
X36063Y24913D01*
X35986Y24972D01*
X35976Y24976D01*
X35967Y25019D01*
X35928Y25078D01*
X35921Y25085D01*
X35943Y25130D01*
X35950Y25129D01*
X36046Y25141D01*
X36136Y25178D01*
X36213Y25237D01*
X36272Y25314D01*
X36309Y25404D01*
X36321Y25500D01*
X36309Y25596D01*
X36272Y25686D01*
X36217Y25757D01*
X36254Y25790D01*
X36472Y25572D01*
X36531Y25533D01*
X36600Y25519D01*
X36976D01*
X36978Y25514D01*
X37037Y25437D01*
X37114Y25378D01*
X37204Y25341D01*
X37300Y25329D01*
X37396Y25341D01*
X37486Y25378D01*
X37563Y25437D01*
X37622Y25514D01*
X37659Y25604D01*
X37671Y25700D01*
X37659Y25796D01*
X37622Y25886D01*
X37563Y25963D01*
X37486Y26022D01*
X37396Y26059D01*
X37374Y26061D01*
X37378Y26111D01*
X38292D01*
X38361Y26125D01*
X38420Y26164D01*
X39625Y27369D01*
X40950D01*
X41019Y27383D01*
X41078Y27422D01*
X41428Y27772D01*
X41467Y27831D01*
X41481Y27900D01*
Y28900D01*
X41467Y28969D01*
X41428Y29028D01*
X41128Y29328D01*
X41069Y29367D01*
X41000Y29381D01*
X39525D01*
X39281Y29625D01*
Y31575D01*
X39475Y31769D01*
X39542D01*
X39570Y31702D01*
X39649Y31599D01*
X39752Y31520D01*
X39859Y31476D01*
X39859Y31476D01*
Y31424D01*
X39859Y31424D01*
X39752Y31380D01*
X39649Y31301D01*
X39570Y31198D01*
X39521Y31078D01*
X39504Y30950D01*
X39521Y30822D01*
X39570Y30702D01*
X39649Y30599D01*
X39752Y30520D01*
X39872Y30471D01*
X39905Y30466D01*
X39905Y30416D01*
X39876Y30412D01*
X39761Y30364D01*
X39662Y30288D01*
X39586Y30189D01*
X39538Y30074D01*
X39528Y30000D01*
X40472D01*
X40462Y30074D01*
X40414Y30189D01*
X40338Y30288D01*
X40239Y30364D01*
X40124Y30412D01*
X40095Y30416D01*
X40095Y30466D01*
X40128Y30471D01*
X40248Y30520D01*
X40351Y30599D01*
X40415Y30682D01*
X41682D01*
Y27461D01*
X41089Y26868D01*
X40415D01*
X40351Y26951D01*
X40248Y27030D01*
X40128Y27079D01*
X40000Y27096D01*
X39872Y27079D01*
X39752Y27030D01*
X39649Y26951D01*
X39570Y26848D01*
X39521Y26728D01*
X39504Y26600D01*
X39521Y26472D01*
X39570Y26352D01*
X39649Y26249D01*
X39752Y26170D01*
X39859Y26126D01*
X39859Y26126D01*
Y26074D01*
X39859Y26074D01*
X39752Y26030D01*
X39649Y25951D01*
X39570Y25848D01*
X39559Y25821D01*
X39149D01*
Y25994D01*
X38539D01*
Y25206D01*
X39149D01*
Y25379D01*
X39559D01*
X39570Y25352D01*
X39649Y25249D01*
X39752Y25170D01*
X39872Y25121D01*
X39905Y25116D01*
X39905Y25066D01*
X39876Y25062D01*
X39761Y25014D01*
X39662Y24938D01*
X39586Y24839D01*
X39538Y24724D01*
X39528Y24650D01*
X40472D01*
X40462Y24724D01*
X40414Y24839D01*
X40338Y24938D01*
X40239Y25014D01*
X40124Y25062D01*
X40095Y25066D01*
X40095Y25116D01*
X40128Y25121D01*
X40248Y25170D01*
X40351Y25249D01*
X40430Y25352D01*
X40479Y25472D01*
X40496Y25600D01*
X40479Y25728D01*
X40430Y25848D01*
X40351Y25951D01*
X40248Y26030D01*
X40141Y26074D01*
X40141Y26074D01*
Y26126D01*
X40141Y26126D01*
X40248Y26170D01*
X40351Y26249D01*
X40415Y26332D01*
X40806D01*
Y26080D01*
X41594D01*
Y26615D01*
X42140Y27160D01*
X42140Y27160D01*
X42164Y27192D01*
X42182Y27216D01*
X42190Y27235D01*
X42209Y27281D01*
X42218Y27350D01*
Y30950D01*
Y33039D01*
X42961Y33782D01*
X46687D01*
Y33637D01*
X47513D01*
Y34463D01*
X47418D01*
Y37850D01*
X47407Y37932D01*
X47375Y38009D01*
X47325Y38075D01*
X47259Y38125D01*
X47182Y38157D01*
X47100Y38168D01*
X37600D01*
X37518Y38157D01*
X37441Y38125D01*
X37375Y38075D01*
X36168Y36868D01*
X31332D01*
X31068Y37132D01*
Y37273D01*
X31101Y37299D01*
X31180Y37402D01*
X31224Y37509D01*
X31224Y37509D01*
X31276D01*
X31276Y37509D01*
X31320Y37402D01*
X31399Y37299D01*
X31502Y37220D01*
X31622Y37171D01*
X31750Y37154D01*
X31878Y37171D01*
X31998Y37220D01*
X32101Y37299D01*
X32180Y37402D01*
X32224Y37509D01*
X32224Y37509D01*
X32276D01*
X32276Y37509D01*
X32320Y37402D01*
X32399Y37299D01*
X32502Y37220D01*
X32622Y37171D01*
X32750Y37154D01*
X32878Y37171D01*
X32998Y37220D01*
X33101Y37299D01*
X33180Y37402D01*
X33229Y37522D01*
X33234Y37555D01*
X33284Y37555D01*
X33288Y37526D01*
X33336Y37411D01*
X33412Y37312D01*
X33511Y37236D01*
X33626Y37188D01*
X33700Y37178D01*
Y37650D01*
Y38122D01*
X33626Y38112D01*
X33511Y38064D01*
X33412Y37988D01*
X33336Y37889D01*
X33288Y37774D01*
X33284Y37745D01*
X33234Y37745D01*
X33229Y37778D01*
X33180Y37898D01*
X33101Y38001D01*
X32998Y38080D01*
X32878Y38129D01*
X32750Y38146D01*
X32749Y38146D01*
X32711Y38192D01*
Y38500D01*
X32454D01*
Y38174D01*
X32599D01*
X32609Y38124D01*
X32502Y38080D01*
X32399Y38001D01*
X32320Y37898D01*
X32276Y37791D01*
X32276Y37791D01*
X32224D01*
X32224Y37791D01*
X32180Y37898D01*
X32101Y38001D01*
X31998Y38080D01*
X31934Y38106D01*
X31944Y38156D01*
X32020D01*
Y38944D01*
D02*
G37*
G36*
X28350Y38350D02*
X28054D01*
X28059Y38309D01*
X28094Y38223D01*
X28150Y38150D01*
X28223Y38094D01*
X28309Y38059D01*
X28350Y38054D01*
Y38350D01*
D02*
G37*
G36*
X50163Y38452D02*
X49337D01*
Y37626D01*
X50163D01*
Y38452D01*
D02*
G37*
G36*
X58246Y37200D02*
X57950D01*
Y36904D01*
X57991Y36909D01*
X58077Y36944D01*
X58150Y37000D01*
X58206Y37073D01*
X58241Y37159D01*
X58246Y37200D01*
D02*
G37*
G36*
X57850Y37596D02*
X57809Y37591D01*
X57723Y37556D01*
X57650Y37500D01*
X57594Y37427D01*
X57559Y37341D01*
X57554Y37300D01*
X57850D01*
Y37596D01*
D02*
G37*
G36*
X57950D02*
Y37300D01*
X58246D01*
X58241Y37341D01*
X58206Y37427D01*
X58150Y37500D01*
X58077Y37556D01*
X57991Y37591D01*
X57950Y37596D01*
D02*
G37*
G36*
X20299Y30794D02*
X19689D01*
Y30006D01*
X20299D01*
Y30179D01*
X20409D01*
X20479Y30109D01*
Y29776D01*
X20391Y29709D01*
X20322Y29618D01*
X20278Y29513D01*
X20263Y29400D01*
X20278Y29287D01*
X20322Y29182D01*
X20391Y29091D01*
X20482Y29022D01*
X20587Y28978D01*
X20700Y28963D01*
X20813Y28978D01*
X20918Y29022D01*
X21009Y29091D01*
X21078Y29182D01*
X21122Y29287D01*
X21137Y29400D01*
X21122Y29513D01*
X21078Y29618D01*
X21009Y29709D01*
X20921Y29776D01*
Y30200D01*
X20904Y30284D01*
X20856Y30356D01*
X20656Y30556D01*
X20584Y30604D01*
X20500Y30621D01*
X20299D01*
Y30794D01*
D02*
G37*
G36*
X19511D02*
X18901D01*
Y30407D01*
X18544Y30050D01*
X18496Y29978D01*
X18479Y29894D01*
Y29833D01*
X18267D01*
Y28967D01*
X19133D01*
Y29833D01*
X19017D01*
X18998Y29879D01*
X19125Y30006D01*
X19511D01*
Y30794D01*
D02*
G37*
G36*
X21650Y29350D02*
X21288D01*
X21296Y29292D01*
X21338Y29191D01*
X21404Y29104D01*
X21491Y29038D01*
X21592Y28996D01*
X21650Y28988D01*
Y29350D01*
D02*
G37*
G36*
X19700Y29837D02*
X19587Y29822D01*
X19482Y29778D01*
X19391Y29709D01*
X19322Y29618D01*
X19278Y29513D01*
X19263Y29400D01*
X19278Y29287D01*
X19322Y29182D01*
X19391Y29091D01*
X19482Y29022D01*
X19587Y28978D01*
X19700Y28963D01*
X19813Y28978D01*
X19918Y29022D01*
X20009Y29091D01*
X20078Y29182D01*
X20122Y29287D01*
X20137Y29400D01*
X20122Y29513D01*
X20078Y29618D01*
X20009Y29709D01*
X19918Y29778D01*
X19813Y29822D01*
X19700Y29837D01*
D02*
G37*
G36*
X15814Y27871D02*
Y27430D01*
X16256D01*
X16245Y27508D01*
X16195Y27629D01*
X16116Y27732D01*
X16013Y27811D01*
X15893Y27861D01*
X15814Y27871D01*
D02*
G37*
G36*
X27300Y29100D02*
X27004D01*
X27009Y29059D01*
X27044Y28973D01*
X27100Y28900D01*
X27173Y28844D01*
X27259Y28809D01*
X27300Y28804D01*
Y29100D01*
D02*
G37*
G36*
X27696D02*
X27400D01*
Y28804D01*
X27441Y28809D01*
X27527Y28844D01*
X27600Y28900D01*
X27656Y28973D01*
X27691Y29059D01*
X27696Y29100D01*
D02*
G37*
G36*
X34181Y29650D02*
X33944D01*
Y29324D01*
X34181D01*
Y29650D01*
D02*
G37*
G36*
X21650Y29812D02*
X21592Y29804D01*
X21491Y29762D01*
X21404Y29696D01*
X21338Y29609D01*
X21296Y29508D01*
X21288Y29450D01*
X21650D01*
Y29812D01*
D02*
G37*
G36*
X21750D02*
Y29450D01*
X22112D01*
X22104Y29508D01*
X22062Y29609D01*
X21996Y29696D01*
X21909Y29762D01*
X21808Y29804D01*
X21750Y29812D01*
D02*
G37*
G36*
X33844Y29650D02*
X33607D01*
Y29324D01*
X33844D01*
Y29650D01*
D02*
G37*
G36*
X22112Y29350D02*
X21750D01*
Y28988D01*
X21808Y28996D01*
X21909Y29038D01*
X21996Y29104D01*
X22062Y29191D01*
X22104Y29292D01*
X22112Y29350D01*
D02*
G37*
G36*
X27300Y29496D02*
X27259Y29491D01*
X27173Y29456D01*
X27100Y29400D01*
X27044Y29327D01*
X27009Y29241D01*
X27004Y29200D01*
X27300D01*
Y29496D01*
D02*
G37*
G36*
X27400D02*
Y29200D01*
X27696D01*
X27691Y29241D01*
X27656Y29327D01*
X27600Y29400D01*
X27527Y29456D01*
X27441Y29491D01*
X27400Y29496D01*
D02*
G37*
G36*
X22896Y26350D02*
X22600D01*
Y26054D01*
X22641Y26059D01*
X22727Y26094D01*
X22800Y26150D01*
X22856Y26223D01*
X22891Y26309D01*
X22896Y26350D01*
D02*
G37*
G36*
X22500Y26746D02*
X22459Y26741D01*
X22373Y26706D01*
X22300Y26650D01*
X22244Y26577D01*
X22209Y26491D01*
X22204Y26450D01*
X22500D01*
Y26746D01*
D02*
G37*
G36*
X22600D02*
Y26450D01*
X22896D01*
X22891Y26491D01*
X22856Y26577D01*
X22800Y26650D01*
X22727Y26706D01*
X22641Y26741D01*
X22600Y26746D01*
D02*
G37*
G36*
X22500Y26350D02*
X22204D01*
X22209Y26309D01*
X22244Y26223D01*
X22300Y26150D01*
X22373Y26094D01*
X22459Y26059D01*
X22500Y26054D01*
Y26350D01*
D02*
G37*
G36*
X20644Y26499D02*
X19856D01*
Y26421D01*
X19462D01*
X19440Y26417D01*
X19167D01*
Y25983D01*
X19440D01*
X19462Y25979D01*
X19856D01*
Y25889D01*
X20644D01*
Y26499D01*
D02*
G37*
G36*
X21400Y27271D02*
X21304Y27259D01*
X21214Y27222D01*
X21137Y27163D01*
X21078Y27086D01*
X21041Y26996D01*
X21029Y26900D01*
X21041Y26804D01*
X21078Y26714D01*
X21137Y26637D01*
X21179Y26605D01*
Y26499D01*
X21006D01*
Y25889D01*
X21794D01*
Y26499D01*
X21621D01*
Y26605D01*
X21663Y26637D01*
X21722Y26714D01*
X21759Y26804D01*
X21771Y26900D01*
X21759Y26996D01*
X21722Y27086D01*
X21663Y27163D01*
X21586Y27222D01*
X21496Y27259D01*
X21400Y27271D01*
D02*
G37*
G36*
X17536Y27896D02*
X17402Y27878D01*
X17278Y27827D01*
X17171Y27745D01*
X17089Y27638D01*
X17037Y27513D01*
X17020Y27380D01*
X17037Y27246D01*
X17089Y27121D01*
X17171Y27014D01*
X17278Y26932D01*
X17315Y26917D01*
Y26514D01*
X17332Y26430D01*
X17380Y26358D01*
X17694Y26044D01*
X17766Y25996D01*
X17850Y25979D01*
X18438D01*
X18460Y25983D01*
X18733D01*
Y26417D01*
X18460D01*
X18438Y26421D01*
X17941D01*
X17757Y26606D01*
Y26917D01*
X17794Y26932D01*
X17901Y27014D01*
X17983Y27121D01*
X18034Y27246D01*
X18052Y27380D01*
X18034Y27513D01*
X17983Y27638D01*
X17901Y27745D01*
X17794Y27827D01*
X17669Y27878D01*
X17536Y27896D01*
D02*
G37*
G36*
X26850Y27311D02*
X26524D01*
Y27054D01*
X26850D01*
Y27311D01*
D02*
G37*
G36*
X27276D02*
X26950D01*
Y27054D01*
X27276D01*
Y27311D01*
D02*
G37*
G36*
X15714Y27871D02*
X15635Y27861D01*
X15515Y27811D01*
X15412Y27732D01*
X15333Y27629D01*
X15283Y27508D01*
X15273Y27430D01*
X15714D01*
Y27871D01*
D02*
G37*
G36*
X25376Y27311D02*
X25050D01*
Y27054D01*
X25376D01*
Y27311D01*
D02*
G37*
G36*
X15714Y27330D02*
X15273D01*
X15283Y27251D01*
X15333Y27131D01*
X15412Y27027D01*
X15515Y26948D01*
X15635Y26899D01*
X15714Y26888D01*
Y27330D01*
D02*
G37*
G36*
X16256D02*
X15814D01*
Y26888D01*
X15893Y26899D01*
X16013Y26948D01*
X16116Y27027D01*
X16195Y27131D01*
X16245Y27251D01*
X16256Y27330D01*
D02*
G37*
G36*
X24950Y27311D02*
X24624D01*
Y27054D01*
X24950D01*
Y27311D01*
D02*
G37*
G36*
X59600Y31900D02*
X59304D01*
X59309Y31859D01*
X59344Y31773D01*
X59400Y31700D01*
X59473Y31644D01*
X59559Y31609D01*
X59600Y31604D01*
Y31900D01*
D02*
G37*
G36*
X59996D02*
X59700D01*
Y31604D01*
X59741Y31609D01*
X59827Y31644D01*
X59900Y31700D01*
X59956Y31773D01*
X59991Y31859D01*
X59996Y31900D01*
D02*
G37*
G36*
X21700Y32000D02*
X21404D01*
X21409Y31959D01*
X21444Y31873D01*
X21500Y31800D01*
X21573Y31744D01*
X21659Y31709D01*
X21700Y31704D01*
Y32000D01*
D02*
G37*
G36*
X24950Y31692D02*
Y31350D01*
X25292D01*
X25285Y31403D01*
X25245Y31499D01*
X25182Y31582D01*
X25099Y31645D01*
X25003Y31685D01*
X24950Y31692D01*
D02*
G37*
G36*
X23750D02*
X23697Y31685D01*
X23601Y31645D01*
X23518Y31582D01*
X23455Y31499D01*
X23415Y31403D01*
X23408Y31350D01*
X23750D01*
Y31692D01*
D02*
G37*
G36*
X23850D02*
Y31350D01*
X24192D01*
X24185Y31403D01*
X24145Y31499D01*
X24082Y31582D01*
X23999Y31645D01*
X23903Y31685D01*
X23850Y31692D01*
D02*
G37*
G36*
X24850D02*
X24797Y31685D01*
X24701Y31645D01*
X24618Y31582D01*
X24555Y31499D01*
X24515Y31403D01*
X24508Y31350D01*
X24850D01*
Y31692D01*
D02*
G37*
G36*
X33146Y32700D02*
X32850D01*
Y32404D01*
X32891Y32409D01*
X32977Y32444D01*
X33050Y32500D01*
X33106Y32573D01*
X33141Y32659D01*
X33146Y32700D01*
D02*
G37*
G36*
X56250Y32850D02*
X55954D01*
X55959Y32809D01*
X55994Y32723D01*
X56050Y32650D01*
X56123Y32594D01*
X56209Y32559D01*
X56250Y32554D01*
Y32850D01*
D02*
G37*
G36*
X56646D02*
X56350D01*
Y32554D01*
X56391Y32559D01*
X56477Y32594D01*
X56550Y32650D01*
X56606Y32723D01*
X56641Y32809D01*
X56646Y32850D01*
D02*
G37*
G36*
X32750Y32700D02*
X32454D01*
X32459Y32659D01*
X32494Y32573D01*
X32550Y32500D01*
X32623Y32444D01*
X32709Y32409D01*
X32750Y32404D01*
Y32700D01*
D02*
G37*
G36*
X22096Y32000D02*
X21800D01*
Y31704D01*
X21841Y31709D01*
X21927Y31744D01*
X22000Y31800D01*
X22056Y31873D01*
X22091Y31959D01*
X22096Y32000D01*
D02*
G37*
G36*
X59600Y32296D02*
X59559Y32291D01*
X59473Y32256D01*
X59400Y32200D01*
X59344Y32127D01*
X59309Y32041D01*
X59304Y32000D01*
X59600D01*
Y32296D01*
D02*
G37*
G36*
X59700D02*
Y32000D01*
X59996D01*
X59991Y32041D01*
X59956Y32127D01*
X59900Y32200D01*
X59827Y32256D01*
X59741Y32291D01*
X59700Y32296D01*
D02*
G37*
G36*
X24278Y30194D02*
X24181Y30181D01*
X24092Y30144D01*
X24015Y30085D01*
X23983Y30043D01*
X23194D01*
Y30111D01*
X22406D01*
Y29501D01*
X23194D01*
Y29602D01*
X23983D01*
X24015Y29560D01*
X24092Y29501D01*
X24181Y29464D01*
X24278Y29451D01*
X24374Y29464D01*
X24463Y29501D01*
X24540Y29560D01*
X24599Y29637D01*
X24636Y29726D01*
X24649Y29822D01*
X24636Y29919D01*
X24599Y30008D01*
X24540Y30085D01*
X24463Y30144D01*
X24374Y30181D01*
X24278Y30194D01*
D02*
G37*
G36*
X16600Y30550D02*
X16304D01*
X16309Y30509D01*
X16344Y30423D01*
X16400Y30350D01*
X16473Y30294D01*
X16559Y30259D01*
X16600Y30254D01*
Y30550D01*
D02*
G37*
G36*
X16996D02*
X16700D01*
Y30254D01*
X16741Y30259D01*
X16827Y30294D01*
X16900Y30350D01*
X16956Y30423D01*
X16991Y30509D01*
X16996Y30550D01*
D02*
G37*
G36*
X34181Y30076D02*
X33944D01*
Y29750D01*
X34181D01*
Y30076D01*
D02*
G37*
G36*
X39950Y29900D02*
X39528D01*
X39538Y29826D01*
X39586Y29711D01*
X39662Y29612D01*
X39761Y29536D01*
X39876Y29488D01*
X39950Y29478D01*
Y29900D01*
D02*
G37*
G36*
X40472D02*
X40050D01*
Y29478D01*
X40124Y29488D01*
X40239Y29536D01*
X40338Y29612D01*
X40414Y29711D01*
X40462Y29826D01*
X40472Y29900D01*
D02*
G37*
G36*
X33844Y30076D02*
X33607D01*
Y29750D01*
X33844D01*
Y30076D01*
D02*
G37*
G36*
X24192Y31250D02*
X23850D01*
Y30908D01*
X23903Y30915D01*
X23999Y30955D01*
X24082Y31018D01*
X24145Y31101D01*
X24185Y31197D01*
X24192Y31250D01*
D02*
G37*
G36*
X23750D02*
X23408D01*
X23415Y31197D01*
X23455Y31101D01*
X23518Y31018D01*
X23601Y30955D01*
X23697Y30915D01*
X23750Y30908D01*
Y31250D01*
D02*
G37*
G36*
X25292D02*
X24950D01*
Y30908D01*
X25003Y30915D01*
X25099Y30955D01*
X25182Y31018D01*
X25245Y31101D01*
X25285Y31197D01*
X25292Y31250D01*
D02*
G37*
G36*
X24850D02*
X24508D01*
X24515Y31197D01*
X24555Y31101D01*
X24618Y31018D01*
X24701Y30955D01*
X24797Y30915D01*
X24850Y30908D01*
Y31250D01*
D02*
G37*
G36*
X16600Y30946D02*
X16559Y30941D01*
X16473Y30906D01*
X16400Y30850D01*
X16344Y30777D01*
X16309Y30691D01*
X16304Y30650D01*
X16600D01*
Y30946D01*
D02*
G37*
G36*
X23007Y31713D02*
X22593D01*
X22387Y31507D01*
Y31093D01*
X22531Y30949D01*
X22510Y30899D01*
X22406D01*
Y30289D01*
X23194D01*
Y30899D01*
X23090D01*
X23069Y30949D01*
X23213Y31093D01*
Y31507D01*
X23007Y31713D01*
D02*
G37*
G36*
X16700Y30946D02*
Y30650D01*
X16996D01*
X16991Y30691D01*
X16956Y30777D01*
X16900Y30850D01*
X16827Y30906D01*
X16741Y30941D01*
X16700Y30946D01*
D02*
G37*
%LPD*%
G36*
X33371Y26672D02*
X33382Y26617D01*
X33402Y26587D01*
X33382Y26558D01*
X33369Y26489D01*
X33382Y26420D01*
X33402Y26391D01*
X33382Y26361D01*
X33369Y26292D01*
X33382Y26223D01*
X33402Y26194D01*
X33382Y26164D01*
X33369Y26095D01*
X33382Y26026D01*
X33402Y25997D01*
X33382Y25968D01*
X33369Y25898D01*
X33382Y25829D01*
X33402Y25800D01*
X33382Y25771D01*
X33369Y25702D01*
X33382Y25632D01*
X33402Y25603D01*
X33382Y25574D01*
X33369Y25505D01*
X33382Y25436D01*
X33402Y25406D01*
X33382Y25377D01*
X33369Y25308D01*
X33382Y25239D01*
X33402Y25209D01*
X33382Y25180D01*
X33369Y25111D01*
X33382Y25042D01*
X33413Y24996D01*
X33399Y24976D01*
X33390Y24930D01*
X33345Y24912D01*
X33339Y24912D01*
X33007Y25245D01*
X33009Y25250D01*
X33021Y25346D01*
X33009Y25442D01*
X32972Y25531D01*
X32913Y25608D01*
X32874Y25638D01*
X32888Y25690D01*
X32896Y25691D01*
X32986Y25728D01*
X33063Y25787D01*
X33122Y25864D01*
X33159Y25954D01*
X33171Y26050D01*
X33159Y26146D01*
X33122Y26236D01*
X33063Y26313D01*
X33024Y26342D01*
X33020Y26392D01*
X33323Y26695D01*
X33371Y26672D01*
D02*
G37*
D11*
X27150Y13546D02*
D03*
Y14254D02*
D03*
X28000Y18396D02*
D03*
Y19104D02*
D03*
X25000Y27004D02*
D03*
Y26296D02*
D03*
X26900Y27004D02*
D03*
Y26296D02*
D03*
X41200Y25696D02*
D03*
Y26404D02*
D03*
D12*
X16296Y22350D02*
D03*
X17004D02*
D03*
X19196Y35850D02*
D03*
X19904D02*
D03*
X30946Y12400D02*
D03*
X31654D02*
D03*
X19696Y32450D02*
D03*
X20404D02*
D03*
X32404Y38550D02*
D03*
X31696D02*
D03*
D13*
X20250Y25406D02*
D03*
Y26194D02*
D03*
X21400D02*
D03*
Y25406D02*
D03*
X22800Y29806D02*
D03*
Y30594D02*
D03*
X33650Y19194D02*
D03*
Y18406D02*
D03*
X32850D02*
D03*
Y19194D02*
D03*
X30900Y18594D02*
D03*
Y17806D02*
D03*
X33650Y16944D02*
D03*
Y16156D02*
D03*
X32850D02*
D03*
Y16944D02*
D03*
X30900D02*
D03*
Y16156D02*
D03*
X41400Y20106D02*
D03*
Y20894D02*
D03*
X28350Y33844D02*
D03*
Y33056D02*
D03*
D15*
X29656Y29200D02*
D03*
X30444D02*
D03*
X18856Y38600D02*
D03*
X19644D02*
D03*
X19206Y30400D02*
D03*
X19994D02*
D03*
X38844Y25600D02*
D03*
X38056D02*
D03*
X38344Y23650D02*
D03*
X37556D02*
D03*
X33894Y29700D02*
D03*
X33106D02*
D03*
D22*
X26800Y18005D02*
D03*
X26300D02*
D03*
X25800D02*
D03*
X25300D02*
D03*
X26800Y19895D02*
D03*
X26300D02*
D03*
X25800D02*
D03*
X25300D02*
D03*
D24*
X27209D02*
X28000Y19104D01*
X21404Y24704D02*
Y25402D01*
X18700Y29894D02*
X19206Y30400D01*
X26911Y25700D02*
Y26285D01*
Y25650D02*
Y25700D01*
X24989D02*
Y26335D01*
X28200Y12300D02*
X29300Y13400D01*
X22750Y12300D02*
X28200D01*
X22300Y12750D02*
X22750Y12300D01*
X34294Y15794D02*
Y18406D01*
X33650D02*
X34294D01*
X33650Y15600D02*
Y16156D01*
X30300Y14400D02*
Y14950D01*
X30798Y16944D02*
X30900D01*
X30089Y18594D02*
X30900D01*
X32850Y18406D02*
X33637Y19194D01*
X32794Y18350D02*
X32850Y18406D01*
X30900Y17806D02*
X31845D01*
X31850Y17811D01*
Y18100D01*
X32100Y18350D01*
X32794D01*
X31850Y16156D02*
X32850D01*
X30900D02*
X31850D01*
Y15811D02*
Y16156D01*
X32850D02*
X32863D01*
X33650Y16944D01*
X31654Y12400D02*
X32100D01*
X32300Y12600D01*
Y13400D01*
X26300Y18005D02*
Y19895D01*
X26800Y18005D02*
X27609D01*
X26300D02*
X26800D01*
X25800D02*
X26300D01*
X25300D02*
X25800D01*
X27609D02*
X28000Y18396D01*
X26800Y19895D02*
X27209D01*
X24850Y20700D02*
X25300Y20250D01*
X25800Y19895D02*
Y20750D01*
X21400Y24709D02*
X21404Y24704D01*
X21400Y26194D02*
Y26900D01*
X20250Y25406D02*
X21400D01*
X17536Y23830D02*
X18609D01*
X17536Y24820D02*
X18641D01*
X19462Y26200D02*
X20244D01*
X17850D02*
X18438D01*
X17536Y26514D02*
X17850Y26200D01*
X17536Y26514D02*
Y27380D01*
X15764Y22364D02*
Y23830D01*
X15750Y21285D02*
Y22350D01*
X16296D01*
X17250D02*
X17536Y22064D01*
Y21270D02*
Y22064D01*
X15764Y23830D02*
Y24820D01*
Y27380D01*
X22800Y30594D02*
Y31300D01*
X21350Y32450D02*
X21750Y32050D01*
X20404Y32450D02*
X21350D01*
X18450Y32000D02*
X18900Y32450D01*
X19696D01*
X20700Y29400D02*
Y30200D01*
X20500Y30400D02*
X20700Y30200D01*
X19994Y30400D02*
X20500D01*
X18700Y29400D02*
Y29894D01*
X25650Y32950D02*
X26750Y34050D01*
X25650Y32050D02*
Y32950D01*
X24900Y31300D02*
X25650Y32050D01*
X23800Y31300D02*
X24900D01*
X22800Y34300D02*
Y37650D01*
X18850Y36196D02*
Y37700D01*
X21800Y37000D02*
Y37650D01*
X21600Y36800D02*
X21800Y37000D01*
X20300Y36800D02*
X21600D01*
X19904Y36404D02*
X20300Y36800D01*
X19904Y35850D02*
Y36404D01*
X18850Y36196D02*
X19196Y35850D01*
X18800Y37650D02*
X18850Y37700D01*
X22800Y37650D02*
Y38300D01*
X22500Y38600D02*
X22800Y38300D01*
X19694Y38600D02*
X22500D01*
X18800Y37650D02*
Y38494D01*
X30750Y37650D02*
Y38250D01*
X31050Y38550D01*
X31696D01*
X30300Y14950D02*
X30700Y15350D01*
X33400D01*
X33650Y15600D01*
X31800Y14700D02*
X32100Y15000D01*
X33500D01*
X34294Y15794D01*
X30152Y16196D02*
X30900Y16944D01*
X38900Y25600D02*
X40000D01*
X38394Y23600D02*
X40000D01*
X41400Y19300D02*
Y20106D01*
X40400Y19300D02*
Y21600D01*
X25900Y31300D02*
X26550D01*
X27150Y31900D01*
Y33050D01*
X28194D01*
X39600Y22300D02*
X39650Y22350D01*
X37900Y22300D02*
X39600D01*
X39650Y22350D02*
X40400Y21600D01*
X22816Y29822D02*
X24278D01*
X16700Y28600D02*
X25100D01*
X25900Y29400D01*
Y31300D01*
X29656Y29200D02*
Y33344D01*
X29156Y33844D02*
X29656Y33344D01*
X28350Y33844D02*
X29156D01*
D25*
X33900Y24050D02*
X34100D01*
X34350Y24300D01*
Y24850D01*
X34286Y24914D02*
X34350Y24850D01*
X33844Y24914D02*
X34286D01*
X31700Y25300D02*
Y25700D01*
X31167Y24767D02*
X31700Y25300D01*
X31167Y24206D02*
Y24767D01*
X31364Y23564D02*
Y24206D01*
X30155Y26095D02*
X30656D01*
X33399Y24976D02*
X33461Y24914D01*
X33844D01*
X31167Y23717D02*
Y24206D01*
X30950Y23500D02*
X31167Y23717D01*
X30300Y23500D02*
X30950D01*
X29900Y23900D02*
X30300Y23500D01*
X29900Y23900D02*
Y24500D01*
X30117Y24717D01*
X30656D01*
X33333Y26960D02*
Y27394D01*
X32800Y26427D02*
X33333Y26960D01*
X29538Y27412D02*
X30067Y26883D01*
X32650Y25346D02*
X33278Y24717D01*
X31392Y26292D02*
X31650Y26550D01*
X30656Y26292D02*
X31392D01*
X30562Y28250D02*
X30950D01*
X31167Y27394D02*
Y28033D01*
X29538Y27412D02*
Y28250D01*
X32800Y26050D02*
Y26427D01*
X33278Y24717D02*
X33844D01*
X30950Y28250D02*
X31167Y28033D01*
X30067Y26883D02*
X30656D01*
X31300Y13400D02*
X31800Y13900D01*
Y14700D01*
X32152Y21398D02*
X32500Y21050D01*
X33899Y21451D02*
X34350Y21000D01*
X32348Y22052D02*
Y24206D01*
X34700Y21700D02*
X35400Y21000D01*
X32152Y21398D02*
Y24206D01*
X32545Y22305D02*
Y24206D01*
Y22305D02*
X33399Y21451D01*
X33899D01*
X32742Y22458D02*
Y24206D01*
Y22458D02*
X33500Y21700D01*
X34700D01*
X32939Y22611D02*
Y24206D01*
Y22611D02*
X33600Y21950D01*
X31758Y22758D02*
Y24206D01*
X30800Y21800D02*
X31758Y22758D01*
X30800Y21000D02*
Y21800D01*
X29800Y21350D02*
X30450Y22000D01*
X30550D01*
X31561Y23011D01*
Y24206D01*
X31955Y22355D02*
Y24206D01*
X20300Y21800D02*
X22000D01*
X19550Y22550D02*
X20300Y21800D01*
X31500Y21850D02*
Y21900D01*
X31955Y22355D01*
X26912Y25702D02*
X30656D01*
X24989Y25211D02*
X25300Y24900D01*
X27200D01*
X27805Y25505D01*
X24989Y25211D02*
Y25700D01*
X27805Y25505D02*
X30656D01*
X24010Y26660D02*
X27740D01*
X23450Y24400D02*
Y26100D01*
X22838Y23788D02*
X23450Y24400D01*
X18650Y23788D02*
X22838D01*
X23900Y15900D02*
X24300Y16300D01*
X33333Y23367D02*
Y24206D01*
Y23367D02*
X33733Y22967D01*
X37567D01*
X37000Y20800D02*
Y21250D01*
X36650Y20450D02*
X37000Y20800D01*
X28700Y20050D02*
X29100Y20450D01*
X36650D01*
X24300Y16300D02*
X28250D01*
X28700Y16750D01*
Y20050D01*
X33844Y26883D02*
X37183D01*
X38300Y28000D01*
Y33250D01*
X39000Y33950D01*
X40002D01*
X33844Y26686D02*
X37386D01*
X38700Y28000D01*
Y32450D01*
X39200Y32950D01*
X40000D01*
X40950Y27550D02*
X41300Y27900D01*
Y28900D01*
X41000Y29200D02*
X41300Y28900D01*
X39450Y29200D02*
X41000D01*
X39100Y29550D02*
X39450Y29200D01*
X39100Y29550D02*
Y31650D01*
X39400Y31950D01*
X40000D01*
X33844Y26489D02*
X37939D01*
X39600Y28150D01*
X40450D01*
X33844Y26292D02*
X38292D01*
X39550Y27550D01*
X40950D01*
X33600Y21950D02*
X35500D01*
X36450Y21000D01*
X36550Y21700D02*
X37000Y21250D01*
X36550Y21700D02*
Y22500D01*
X32348Y22052D02*
X33350Y21050D01*
X36550Y22500D02*
X36750Y22700D01*
X40000D02*
X40050Y22650D01*
X36750Y22700D02*
X40000D01*
X29946Y16300D02*
X30050Y16196D01*
X29600Y16300D02*
X29946D01*
X29050Y16850D02*
X29600Y16300D01*
X29050Y16850D02*
Y19850D01*
X29350Y20150D01*
X36950D01*
X37800Y21000D01*
Y21500D01*
X30900Y18594D02*
Y19500D01*
X31250Y19850D01*
X37600D01*
X38050Y20300D01*
X29414Y26686D02*
X30656D01*
X28502Y25898D02*
X30656D01*
X23450Y26100D02*
X24010Y26660D01*
X27740D02*
X28502Y25898D01*
X28450Y27650D02*
Y28300D01*
Y27650D02*
X29414Y26686D01*
X28861Y26489D02*
X30656D01*
X28850Y26500D02*
X28861Y26489D01*
X29400Y23600D02*
Y24900D01*
X29808Y25308D01*
X30656D01*
X33844Y26095D02*
X36205D01*
X32545Y27394D02*
Y29495D01*
X32750Y29700D01*
X33106D01*
X31758Y27394D02*
Y30108D01*
X32450Y30800D01*
X35050D01*
X35750Y31500D01*
X31561Y27394D02*
Y30361D01*
X32550Y31350D01*
X34250D01*
X34750Y31850D01*
Y34150D01*
X35750Y31500D02*
Y34200D01*
X31364Y27394D02*
Y33064D01*
X31750Y33450D01*
Y34050D01*
X30444Y29200D02*
Y34294D01*
X30550Y28262D02*
Y29200D01*
X30444Y34294D02*
X30900Y34750D01*
X32500D01*
X32750Y34500D01*
Y34200D02*
Y34500D01*
X33844Y25111D02*
X34389D01*
X35000Y23500D02*
X37406D01*
X37556Y23650D01*
X34550Y23950D02*
X35000Y23500D01*
X34550Y23950D02*
Y24950D01*
X34389Y25111D02*
X34550Y24950D01*
X33844Y25505D02*
X34895D01*
X35150Y25250D01*
X34850Y24200D02*
Y25100D01*
X35150Y24500D02*
Y25250D01*
Y24500D02*
X35500Y24150D01*
X38056Y25100D02*
Y25600D01*
X38050Y25100D02*
X38056D01*
X37950Y25000D02*
X38050Y25100D01*
X37567Y22967D02*
X37950Y23350D01*
Y25000D01*
X37450Y24500D02*
Y24600D01*
X36700Y23750D02*
X37450Y24500D01*
X34850Y24200D02*
X35300Y23750D01*
X36700D01*
X36500Y24150D02*
X36550Y24200D01*
X35500Y24150D02*
X36500D01*
X33844Y25898D02*
X35702D01*
X33844Y25702D02*
X35048D01*
X35800Y24950D01*
Y24650D02*
Y24950D01*
X35702Y25898D02*
X36000Y25600D01*
X35950Y25550D02*
X36000Y25600D01*
X35950Y25500D02*
Y25550D01*
X36600Y25700D02*
X37300D01*
X36205Y26095D02*
X36600Y25700D01*
X34500Y28900D02*
X37650Y32050D01*
Y35050D01*
X39550Y36950D01*
X33844Y25308D02*
X34642D01*
X34850Y25100D01*
D27*
X55900Y36950D02*
X56700D01*
X57350Y36300D01*
Y32200D02*
Y36300D01*
X56150Y31000D02*
X57350Y32200D01*
X44600Y23250D02*
Y29600D01*
X27296Y14400D02*
X28300D01*
X61350Y29250D02*
X63400Y31300D01*
X61350Y20250D02*
Y29250D01*
X46379Y18750D02*
X47879Y20250D01*
X57000Y14700D02*
Y16250D01*
X56100Y17150D02*
X57000Y16250D01*
X53700Y17150D02*
X56100D01*
X52700Y18150D02*
X53700Y17150D01*
X52700Y18150D02*
Y20250D01*
X47879D02*
X52700D01*
X61350D01*
X63184Y20084D02*
X64300D01*
X61350Y18250D02*
X63184Y20084D01*
X56221Y18750D02*
X56721Y18250D01*
X57000Y12850D02*
X58416D01*
X59166Y13600D01*
Y18234D01*
X59150Y18250D02*
X59166Y18234D01*
X56721Y18250D02*
X59150D01*
X61350D01*
X64300Y18116D02*
X64566D01*
X65350Y18900D01*
Y21750D01*
X64800Y22300D02*
X65350Y21750D01*
X63400Y22300D02*
X64800D01*
X61134Y13600D02*
Y16384D01*
X62150Y17400D01*
X63584D01*
X64300Y18116D01*
X44600Y29600D02*
X46000Y31000D01*
X56150D01*
X47100Y34050D02*
Y37850D01*
X37600D02*
X47100D01*
X36300Y36550D02*
X37600Y37850D01*
X31200Y36550D02*
X36300D01*
X30750Y37000D02*
X31200Y36550D01*
X30750Y37000D02*
Y37650D01*
D29*
X40000Y30950D02*
X41950D01*
Y27350D02*
Y30950D01*
X41200Y26600D02*
X41950Y27350D01*
X40000Y26600D02*
X41200D01*
X32300Y12350D02*
X37050D01*
X38200Y13500D01*
Y16900D01*
X39700Y18400D01*
X32300Y12350D02*
Y12600D01*
X45261Y32361D02*
X52400D01*
X43700Y30800D02*
X45261Y32361D01*
X43700Y18950D02*
Y30800D01*
X43150Y18400D02*
X43700Y18950D01*
X39700Y18400D02*
X43150D01*
X41950Y30950D02*
Y33150D01*
X42850Y34050D01*
X47100D01*
X28350Y33844D02*
Y36850D01*
X29150Y37650D01*
X30750D01*
D30*
X57000Y12850D02*
D03*
X53000D02*
D03*
X57000Y14700D02*
D03*
X53000D02*
D03*
X32300Y13400D02*
D03*
Y14400D02*
D03*
X31300Y13400D02*
D03*
Y14400D02*
D03*
X30300Y13400D02*
D03*
Y14400D02*
D03*
X29300D02*
D03*
Y13400D02*
D03*
X28300Y14400D02*
D03*
Y13400D02*
D03*
X35300D02*
D03*
Y14400D02*
D03*
X34300D02*
D03*
Y13400D02*
D03*
X33300Y14400D02*
D03*
Y13400D02*
D03*
X52400Y33739D02*
D03*
X21700Y29400D02*
D03*
X20700D02*
D03*
X19700D02*
D03*
D31*
X40000Y29950D02*
D03*
Y30950D02*
D03*
Y31950D02*
D03*
Y32950D02*
D03*
X40002Y33950D02*
D03*
X18800Y37650D02*
D03*
X19800D02*
D03*
X20800D02*
D03*
X21800D02*
D03*
X22800D02*
D03*
X23800D02*
D03*
X30750D02*
D03*
X31750D02*
D03*
X32750D02*
D03*
X33750D02*
D03*
X34750D02*
D03*
X35750D02*
D03*
X40000Y26600D02*
D03*
Y25600D02*
D03*
Y24600D02*
D03*
Y23600D02*
D03*
D32*
X26911Y25700D02*
D03*
X24989D02*
D03*
X52400Y35950D02*
D03*
X51400D02*
D03*
X53400D02*
D03*
D33*
X22800Y34300D02*
D03*
X23800D02*
D03*
Y31300D02*
D03*
X25900D02*
D03*
X24900D02*
D03*
Y34300D02*
D03*
X51500Y12766D02*
D03*
Y14734D02*
D03*
X43044Y14900D02*
D03*
X63900Y36166D02*
D03*
X49750Y36661D02*
D03*
X48100Y34050D02*
D03*
X40400Y19300D02*
D03*
D34*
X22800Y31300D02*
D03*
X25900Y34300D02*
D03*
D35*
X63400Y22300D02*
D03*
Y31300D02*
D03*
X48347Y28750D02*
D03*
X46379D02*
D03*
X56221Y18750D02*
D03*
X51300D02*
D03*
X48347D02*
D03*
X46379D02*
D03*
X54253D02*
D03*
X51300Y28750D02*
D03*
X54253D02*
D03*
X56221D02*
D03*
X59166Y13600D02*
D03*
X61134D02*
D03*
X64300Y18116D02*
D03*
Y20084D02*
D03*
D36*
X55900Y36950D02*
D03*
D37*
Y35950D02*
D03*
Y34950D02*
D03*
X27150Y34050D02*
D03*
Y33050D02*
D03*
X61350Y20250D02*
D03*
Y18250D02*
D03*
X15764Y23830D02*
D03*
X17536D02*
D03*
Y21270D02*
D03*
X15764D02*
D03*
Y27380D02*
D03*
X17536D02*
D03*
Y24820D02*
D03*
X15764D02*
D03*
D38*
X16929Y33465D02*
D03*
Y15748D02*
D03*
X64173D02*
D03*
Y33465D02*
D03*
D39*
X42256Y14900D02*
D03*
X47100Y34050D02*
D03*
D40*
X63900Y38134D02*
D03*
X49750Y38039D02*
D03*
D41*
X52400Y32361D02*
D03*
D42*
X39400Y16300D02*
D03*
D43*
X40400D02*
D03*
X41400D02*
D03*
Y19300D02*
D03*
X39400D02*
D03*
D44*
X18700Y29400D02*
D03*
D45*
X33900Y24050D02*
D03*
X27450Y19654D02*
D03*
X31650Y26550D02*
D03*
X31700Y25700D02*
D03*
X32650Y25346D02*
D03*
X32800Y26050D02*
D03*
X44600Y23250D02*
D03*
X22300Y12750D02*
D03*
X24850Y20700D02*
D03*
X25800Y20750D02*
D03*
X21404Y24704D02*
D03*
X21400Y26900D02*
D03*
X21750Y32050D02*
D03*
X18450Y32000D02*
D03*
X32500Y21050D02*
D03*
X34350D02*
D03*
X30800Y21000D02*
D03*
X29800Y21350D02*
D03*
X22000Y21800D02*
D03*
X19550Y22550D02*
D03*
X31500Y21850D02*
D03*
X40450Y28150D02*
D03*
X23900Y15900D02*
D03*
X35400Y21050D02*
D03*
X36450D02*
D03*
X33350D02*
D03*
X37900Y22300D02*
D03*
X40050Y22650D02*
D03*
X37800Y21500D02*
D03*
X38050Y20300D02*
D03*
X28450Y28300D02*
D03*
X28850Y26500D02*
D03*
X29400Y23600D02*
D03*
X24278Y29822D02*
D03*
X16700Y28600D02*
D03*
X23650Y23100D02*
D03*
Y20700D02*
D03*
X22300Y14650D02*
D03*
X34750Y34200D02*
D03*
X31750D02*
D03*
X35750D02*
D03*
X32750D02*
D03*
X37450Y24600D02*
D03*
X36550Y24200D02*
D03*
X35800Y24650D02*
D03*
X35950Y25500D02*
D03*
X37300Y25700D02*
D03*
X34500Y28900D02*
D03*
X39550Y36950D02*
D03*
X42900Y35900D02*
D03*
X56300Y32900D02*
D03*
X57900Y37250D02*
D03*
X59650Y31950D02*
D03*
X43550Y33000D02*
D03*
X42950Y23350D02*
D03*
X16250Y13150D02*
D03*
X15750Y19350D02*
D03*
X17600Y19300D02*
D03*
X16650Y30600D02*
D03*
X22550Y26400D02*
D03*
X27350Y29150D02*
D03*
X32800Y32750D02*
D03*
X28400Y38400D02*
D03*
X37550Y38700D02*
D03*
X46150D02*
D03*
D46*
X30656Y24717D02*
D03*
Y24914D02*
D03*
Y25111D02*
D03*
Y25308D02*
D03*
Y25505D02*
D03*
Y25702D02*
D03*
Y25898D02*
D03*
Y26095D02*
D03*
Y26292D02*
D03*
Y26489D02*
D03*
Y26686D02*
D03*
Y26883D02*
D03*
X33844D02*
D03*
Y26686D02*
D03*
Y26489D02*
D03*
Y26292D02*
D03*
Y26095D02*
D03*
Y25898D02*
D03*
Y25702D02*
D03*
Y25505D02*
D03*
Y25308D02*
D03*
Y25111D02*
D03*
Y24914D02*
D03*
Y24717D02*
D03*
D47*
X31167Y27394D02*
D03*
X31364D02*
D03*
X31561D02*
D03*
X31758D02*
D03*
X31955D02*
D03*
X32152D02*
D03*
X32348D02*
D03*
X32545D02*
D03*
X32742D02*
D03*
X32939D02*
D03*
X33136D02*
D03*
X33333D02*
D03*
Y24206D02*
D03*
X33136D02*
D03*
X32939D02*
D03*
X32742D02*
D03*
X32545D02*
D03*
X32348D02*
D03*
X32152D02*
D03*
X31955D02*
D03*
X31758D02*
D03*
X31561D02*
D03*
X31364D02*
D03*
X31167D02*
D03*
D48*
X30562Y28250D02*
D03*
X29538D02*
D03*
X19462Y26200D02*
D03*
X18438D02*
D03*
D49*
X18650Y23788D02*
D03*
Y24812D02*
D03*
D50*
X31850Y19189D02*
D03*
Y17811D02*
D03*
Y17189D02*
D03*
Y15811D02*
D03*
D51*
X30050Y17846D02*
D03*
Y18554D02*
D03*
Y16904D02*
D03*
Y16196D02*
D03*
M02*
