M48
;Layer_Color=9474304
;FILE_FORMAT=2:4
INCH,LZ
;TYPE=PLATED
T1F00S00C0.0197
T2F00S00C0.0315
T3F00S00C0.0354
T4F00S00C0.0394
T5F00S00C0.0433
T6F00S00C0.0472
T7F00S00C0.0591
T8F00S00C0.0630
T9F00S00C0.1378
%
T01
X01625Y01315
X0223Y01275
Y01465
X0315Y02185
X0325Y02105
X03335
X03435
X0354
X03645
X0378Y0215
X0379Y0223
X03805Y0203
X04005Y02265
X04295Y02335
X0446Y02325
X03745Y0246
X0373Y0257
X03595Y0255
X0358Y02465
X03655Y0242
X0339Y02405
X03265Y025346
X0328Y02605
X0317Y0257
X03165Y02655
X0345Y0289
X04045Y02815
X02845Y0283
X02735Y02915
X024278Y029822
X02255Y0264
X0214Y0269
X021404Y024704
X022Y0218
X02365Y0207
X02485
X0258Y02075
X02745Y019654
X0298Y02135
X0308Y021
X0294Y0236
X02885Y0265
X02365Y0231
X01955Y02255
X0176Y0193
X01575Y01935
X0167Y0286
X01665Y0306
X0239Y0159
X02175Y03205
X01845Y032
X0284Y0384
X03175Y0342
X03275
X0328Y03275
X03475Y0342
X03575
X03755Y0387
X03955Y03695
X0429Y0359
X04355Y033
X04615Y0387
X0579Y03725
X0563Y0329
X05965Y03195
T02
X042256Y0149
X043044
X0515Y014734
Y012766
X026911Y0257
X024989
X0249Y0313
X0259
X0238
X0228
Y0343
X0238
X0249
X0259
X0471Y03405
X0481
X04975Y036661
Y038039
X0514Y03595
X0524
X0534
T03
X053Y01285
Y0147
X057
Y01285
X0414Y0163
X0404
X0394
Y0193
X0404
X0414
X017536Y02127
X015764
Y02383
Y02482
X017536
Y02383
Y02738
X015764
X02715Y03305
Y03405
X0524Y033739
Y032361
X0639Y036166
Y038134
T04
X0283Y0134
X0293
X0303
Y0144
X0293
X0283
X0313
X0323
Y0134
X0313
X0333
X0343
X0353
Y0144
X0343
X0333
X06135Y01825
Y02025
T05
X0187Y0294
X0197
X0207
X0217
T06
X04Y0236
Y0246
Y0256
Y0266
Y02995
Y03095
X03075Y03765
X0238
X0228
X0218
X0208
X0198
X0188
X03175
X03275
X03375
X03475
X03575
X040002Y03395
X04Y03295
Y03195
X0559Y03495
Y03595
Y03695
T07
X0634Y0223
X056221Y01875
X054253
X0513
X048347
Y02875
X0513
X054253
X056221
X046379
Y01875
X0634Y0313
T08
X059166Y0136
X061134
X0643Y018116
Y020084
T09
X064173Y015748
X016929
Y033465
X064173
M30
