%FSLAX24Y24*%
%MOIN*%
G70*
G01*
G75*
G04 Layer_Color=8388736*
%ADD10R,0.0453X0.0571*%
%ADD11R,0.0551X0.0413*%
%ADD12R,0.0413X0.0551*%
%ADD13R,0.0551X0.0374*%
%ADD14O,0.0236X0.0571*%
%ADD15R,0.0374X0.0551*%
%ADD16R,0.0551X0.0354*%
%ADD17R,0.0394X0.0236*%
G04:AMPARAMS|DCode=18|XSize=55mil|YSize=60mil|CornerRadius=13.8mil|HoleSize=0mil|Usage=FLASHONLY|Rotation=90.000|XOffset=0mil|YOffset=0mil|HoleType=Round|Shape=RoundedRectangle|*
%AMROUNDEDRECTD18*
21,1,0.0550,0.0325,0,0,90.0*
21,1,0.0275,0.0600,0,0,90.0*
1,1,0.0275,0.0163,0.0138*
1,1,0.0275,0.0163,-0.0138*
1,1,0.0275,-0.0163,-0.0138*
1,1,0.0275,-0.0163,0.0138*
%
%ADD18ROUNDEDRECTD18*%
G04:AMPARAMS|DCode=19|XSize=39.4mil|YSize=98.4mil|CornerRadius=9.8mil|HoleSize=0mil|Usage=FLASHONLY|Rotation=270.000|XOffset=0mil|YOffset=0mil|HoleType=Round|Shape=RoundedRectangle|*
%AMROUNDEDRECTD19*
21,1,0.0394,0.0787,0,0,270.0*
21,1,0.0197,0.0984,0,0,270.0*
1,1,0.0197,-0.0394,-0.0098*
1,1,0.0197,-0.0394,0.0098*
1,1,0.0197,0.0394,0.0098*
1,1,0.0197,0.0394,-0.0098*
%
%ADD19ROUNDEDRECTD19*%
G04:AMPARAMS|DCode=20|XSize=39.4mil|YSize=98.4mil|CornerRadius=9.8mil|HoleSize=0mil|Usage=FLASHONLY|Rotation=180.000|XOffset=0mil|YOffset=0mil|HoleType=Round|Shape=RoundedRectangle|*
%AMROUNDEDRECTD20*
21,1,0.0394,0.0787,0,0,180.0*
21,1,0.0197,0.0984,0,0,180.0*
1,1,0.0197,-0.0098,0.0394*
1,1,0.0197,0.0098,0.0394*
1,1,0.0197,0.0098,-0.0394*
1,1,0.0197,-0.0098,-0.0394*
%
%ADD20ROUNDEDRECTD20*%
%ADD21R,0.0551X0.0413*%
%ADD22O,0.0236X0.0866*%
%ADD23R,0.0236X0.0394*%
%ADD24C,0.0197*%
%ADD25C,0.0118*%
%ADD26C,0.0315*%
%ADD27C,0.0394*%
%ADD28C,0.0100*%
%ADD29C,0.0295*%
%ADD30C,0.0630*%
%ADD31C,0.0748*%
%ADD32C,0.0551*%
%ADD33C,0.0591*%
G04:AMPARAMS|DCode=34|XSize=59.1mil|YSize=59.1mil|CornerRadius=0mil|HoleSize=0mil|Usage=FLASHONLY|Rotation=90.000|XOffset=0mil|YOffset=0mil|HoleType=Round|Shape=Octagon|*
%AMOCTAGOND34*
4,1,8,0.0148,0.0295,-0.0148,0.0295,-0.0295,0.0148,-0.0295,-0.0148,-0.0148,-0.0295,0.0148,-0.0295,0.0295,-0.0148,0.0295,0.0148,0.0148,0.0295,0.0*
%
%ADD34OCTAGOND34*%

%ADD35C,0.1181*%
%ADD36R,0.0787X0.0787*%
%ADD37C,0.0787*%
%ADD38C,0.2362*%
%ADD39R,0.0591X0.0591*%
%ADD40R,0.0591X0.0591*%
%ADD41R,0.0630X0.0630*%
%ADD42R,0.0591X0.0591*%
%ADD43C,0.0591*%
%ADD44R,0.0630X0.0630*%
%ADD45C,0.0500*%
%ADD46O,0.0709X0.0118*%
%ADD47O,0.0118X0.0709*%
%ADD48R,0.0354X0.0197*%
%ADD49R,0.0197X0.0354*%
%ADD50R,0.0689X0.0394*%
%ADD51R,0.0571X0.0453*%
%ADD52C,0.0236*%
%ADD53C,0.0098*%
%ADD54C,0.0079*%
%ADD55C,0.0039*%
%ADD56C,0.0200*%
%ADD57C,0.0050*%
%ADD58C,0.0059*%
%ADD59R,0.9850X0.0500*%
%ADD60R,0.6100X0.0484*%
%ADD61R,0.0600X0.0200*%
%ADD62R,0.0533X0.0651*%
%ADD63R,0.0631X0.0493*%
%ADD64R,0.0493X0.0631*%
%ADD65R,0.0631X0.0454*%
%ADD66O,0.0316X0.0651*%
%ADD67R,0.0454X0.0631*%
%ADD68R,0.0631X0.0434*%
%ADD69R,0.0474X0.0316*%
G04:AMPARAMS|DCode=70|XSize=63mil|YSize=68mil|CornerRadius=17.8mil|HoleSize=0mil|Usage=FLASHONLY|Rotation=90.000|XOffset=0mil|YOffset=0mil|HoleType=Round|Shape=RoundedRectangle|*
%AMROUNDEDRECTD70*
21,1,0.0630,0.0325,0,0,90.0*
21,1,0.0275,0.0680,0,0,90.0*
1,1,0.0355,0.0163,0.0138*
1,1,0.0355,0.0163,-0.0138*
1,1,0.0355,-0.0163,-0.0138*
1,1,0.0355,-0.0163,0.0138*
%
%ADD70ROUNDEDRECTD70*%
G04:AMPARAMS|DCode=71|XSize=47.4mil|YSize=106.4mil|CornerRadius=13.8mil|HoleSize=0mil|Usage=FLASHONLY|Rotation=270.000|XOffset=0mil|YOffset=0mil|HoleType=Round|Shape=RoundedRectangle|*
%AMROUNDEDRECTD71*
21,1,0.0474,0.0787,0,0,270.0*
21,1,0.0197,0.1064,0,0,270.0*
1,1,0.0277,-0.0394,-0.0098*
1,1,0.0277,-0.0394,0.0098*
1,1,0.0277,0.0394,0.0098*
1,1,0.0277,0.0394,-0.0098*
%
%ADD71ROUNDEDRECTD71*%
G04:AMPARAMS|DCode=72|XSize=47.4mil|YSize=106.4mil|CornerRadius=13.8mil|HoleSize=0mil|Usage=FLASHONLY|Rotation=180.000|XOffset=0mil|YOffset=0mil|HoleType=Round|Shape=RoundedRectangle|*
%AMROUNDEDRECTD72*
21,1,0.0474,0.0787,0,0,180.0*
21,1,0.0197,0.1064,0,0,180.0*
1,1,0.0277,-0.0098,0.0394*
1,1,0.0277,0.0098,0.0394*
1,1,0.0277,0.0098,-0.0394*
1,1,0.0277,-0.0098,-0.0394*
%
%ADD72ROUNDEDRECTD72*%
%ADD73R,0.0631X0.0493*%
%ADD74O,0.0316X0.0946*%
%ADD75R,0.0316X0.0474*%
%ADD76C,0.0710*%
%ADD77C,0.0828*%
%ADD78C,0.0631*%
%ADD79C,0.0671*%
G04:AMPARAMS|DCode=80|XSize=67.1mil|YSize=67.1mil|CornerRadius=0mil|HoleSize=0mil|Usage=FLASHONLY|Rotation=90.000|XOffset=0mil|YOffset=0mil|HoleType=Round|Shape=Octagon|*
%AMOCTAGOND80*
4,1,8,0.0168,0.0335,-0.0168,0.0335,-0.0335,0.0168,-0.0335,-0.0168,-0.0168,-0.0335,0.0168,-0.0335,0.0335,-0.0168,0.0335,0.0168,0.0168,0.0335,0.0*
%
%ADD80OCTAGOND80*%

%ADD81C,0.1261*%
%ADD82R,0.0867X0.0867*%
%ADD83C,0.0867*%
%ADD84C,0.2442*%
%ADD85R,0.0671X0.0671*%
%ADD86R,0.0671X0.0671*%
%ADD87R,0.0710X0.0710*%
%ADD88R,0.0671X0.0671*%
%ADD89C,0.0671*%
%ADD90R,0.0710X0.0710*%
D62*
X20696Y25750D02*
D03*
X21404D02*
D03*
D63*
X33150Y27504D02*
D03*
Y26796D02*
D03*
X31700Y24346D02*
D03*
Y25054D02*
D03*
X19350Y17596D02*
D03*
Y18304D02*
D03*
X54650Y35004D02*
D03*
Y34296D02*
D03*
X47400Y35746D02*
D03*
Y36454D02*
D03*
D64*
X33904Y24800D02*
D03*
X33196D02*
D03*
X30246Y26550D02*
D03*
X30954D02*
D03*
X59296Y36900D02*
D03*
X60004D02*
D03*
X54804Y35950D02*
D03*
X54096D02*
D03*
D65*
X35100Y17344D02*
D03*
Y16556D02*
D03*
X36100Y17344D02*
D03*
Y16556D02*
D03*
X37100Y17344D02*
D03*
Y16556D02*
D03*
X31300Y17394D02*
D03*
Y16606D02*
D03*
X45150Y13794D02*
D03*
Y13006D02*
D03*
X19800Y35056D02*
D03*
Y35844D02*
D03*
X20750Y35056D02*
D03*
Y35844D02*
D03*
X34800Y35156D02*
D03*
Y35944D02*
D03*
X35750Y35156D02*
D03*
Y35944D02*
D03*
X31750Y35156D02*
D03*
Y35944D02*
D03*
X33150Y17344D02*
D03*
Y16556D02*
D03*
X34100Y17344D02*
D03*
Y16556D02*
D03*
X23900Y13444D02*
D03*
Y12656D02*
D03*
Y14794D02*
D03*
Y14006D02*
D03*
X19400Y13394D02*
D03*
Y12606D02*
D03*
Y14694D02*
D03*
Y13906D02*
D03*
X32750Y35156D02*
D03*
Y35944D02*
D03*
X40350Y20944D02*
D03*
Y20156D02*
D03*
D66*
X23400Y18873D02*
D03*
X22900D02*
D03*
X22400D02*
D03*
X21900D02*
D03*
X21400D02*
D03*
X20900D02*
D03*
X20400D02*
D03*
X23400Y16727D02*
D03*
X22900D02*
D03*
X22400D02*
D03*
X21900D02*
D03*
X21400D02*
D03*
X20900D02*
D03*
X20400D02*
D03*
D67*
X27394Y19050D02*
D03*
X26606D02*
D03*
X27394Y18100D02*
D03*
X26606D02*
D03*
X25794Y37650D02*
D03*
X25006D02*
D03*
X19306Y26850D02*
D03*
X20094D02*
D03*
X19544Y24200D02*
D03*
X18756D02*
D03*
X30106Y35250D02*
D03*
X30894D02*
D03*
D68*
X37100Y18974D02*
D03*
Y18226D02*
D03*
X36100Y18974D02*
D03*
Y18226D02*
D03*
X35100Y18974D02*
D03*
Y18226D02*
D03*
X33150Y18974D02*
D03*
Y18226D02*
D03*
X34100Y18974D02*
D03*
Y18226D02*
D03*
D69*
X42347Y13050D02*
D03*
X43253Y13424D02*
D03*
Y12676D02*
D03*
X25653Y13050D02*
D03*
X24747Y12676D02*
D03*
Y13424D02*
D03*
X21153Y13000D02*
D03*
X20247Y12626D02*
D03*
Y13374D02*
D03*
D70*
X44200Y12550D02*
D03*
Y13950D02*
D03*
D71*
X46278Y14934D02*
D03*
Y12966D02*
D03*
X49822D02*
D03*
Y14934D02*
D03*
D72*
X60684Y35822D02*
D03*
X58716D02*
D03*
Y32278D02*
D03*
X60684D02*
D03*
D73*
X47400Y38074D02*
D03*
Y37326D02*
D03*
D74*
X19350Y31355D02*
D03*
X19850D02*
D03*
X20350D02*
D03*
X20850D02*
D03*
X19350Y33245D02*
D03*
X19850D02*
D03*
X20350D02*
D03*
X20850D02*
D03*
D75*
X19550Y25147D02*
D03*
X19176Y26053D02*
D03*
X19924D02*
D03*
D76*
X57000Y12850D02*
D03*
X53000D02*
D03*
X57000Y14700D02*
D03*
X53000D02*
D03*
X32300Y13400D02*
D03*
Y14400D02*
D03*
X31300Y13400D02*
D03*
Y14400D02*
D03*
X30300Y13400D02*
D03*
Y14400D02*
D03*
X29300D02*
D03*
Y13400D02*
D03*
X28300Y14400D02*
D03*
Y13400D02*
D03*
X35300D02*
D03*
Y14400D02*
D03*
X34300D02*
D03*
Y13400D02*
D03*
X33300Y14400D02*
D03*
Y13400D02*
D03*
X52400Y33739D02*
D03*
X21700Y29400D02*
D03*
X20700D02*
D03*
X19700D02*
D03*
D77*
X40000Y29950D02*
D03*
Y30950D02*
D03*
Y31950D02*
D03*
Y32950D02*
D03*
X40002Y33950D02*
D03*
X18800Y37650D02*
D03*
X19800D02*
D03*
X20800D02*
D03*
X21800D02*
D03*
X22800D02*
D03*
X23800D02*
D03*
X30750D02*
D03*
X31750D02*
D03*
X32750D02*
D03*
X33750D02*
D03*
X34750D02*
D03*
X35750D02*
D03*
X40000Y26600D02*
D03*
Y25600D02*
D03*
Y24600D02*
D03*
Y23600D02*
D03*
D78*
X26911Y25700D02*
D03*
X24989D02*
D03*
X52400Y35950D02*
D03*
X51400D02*
D03*
X53400D02*
D03*
D79*
X22800Y34300D02*
D03*
X23800D02*
D03*
Y31300D02*
D03*
X25900D02*
D03*
X24900D02*
D03*
Y34300D02*
D03*
X51500Y12766D02*
D03*
Y14734D02*
D03*
X43044Y14900D02*
D03*
X63900Y36166D02*
D03*
X49750Y36661D02*
D03*
X48100Y34050D02*
D03*
X40400Y19300D02*
D03*
D80*
X22800Y31300D02*
D03*
X25900Y34300D02*
D03*
D81*
X63400Y22300D02*
D03*
Y31300D02*
D03*
X48347Y28750D02*
D03*
X46379D02*
D03*
X56221Y18750D02*
D03*
X51300D02*
D03*
X48347D02*
D03*
X46379D02*
D03*
X54253D02*
D03*
X51300Y28750D02*
D03*
X54253D02*
D03*
X56221D02*
D03*
X59166Y13600D02*
D03*
X61134D02*
D03*
X64300Y18116D02*
D03*
Y20084D02*
D03*
D82*
X55900Y36950D02*
D03*
D83*
Y35950D02*
D03*
Y34950D02*
D03*
X27150Y34050D02*
D03*
Y33050D02*
D03*
X61350Y20250D02*
D03*
Y18250D02*
D03*
X15764Y23830D02*
D03*
X17536D02*
D03*
Y21270D02*
D03*
X15764D02*
D03*
Y27380D02*
D03*
X17536D02*
D03*
Y24820D02*
D03*
X15764D02*
D03*
D84*
X16929Y33465D02*
D03*
Y15748D02*
D03*
X64173D02*
D03*
Y33465D02*
D03*
D85*
X42256Y14900D02*
D03*
X47100Y34050D02*
D03*
D86*
X63900Y38134D02*
D03*
X49750Y38039D02*
D03*
D87*
X52400Y32361D02*
D03*
D88*
X39400Y16300D02*
D03*
D89*
X40400D02*
D03*
X41400D02*
D03*
Y19300D02*
D03*
X39400D02*
D03*
D90*
X18700Y29400D02*
D03*
M02*
