M48
;Layer_Color=9474304
;FILE_FORMAT=2:4
INCH,LZ
;TYPE=PLATED
T1F00S00C0.0433
T2F00S00C0.0472
;TYPE=NON_PLATED
T3F00S00C0.0472
T4F00S00C0.1181
%
T01
X02915Y01125
Y01225
Y01325
T02
X012995Y010312
X01298Y011887
Y014249
X01498Y013461
Y010706
X017326Y010312
X01731Y011887
Y014249
X01931Y013461
Y010706
X021657Y010312
X021641Y011887
Y014249
X023641Y013461
Y010706
X025987Y010312
X025972Y011887
Y014249
X027972Y013461
Y010706
X030318Y010312
X030302Y011887
Y014249
X032302Y013461
Y010706
T03
X01398Y010627
Y013284
X01831
Y010627
X022641
Y013284
X026972
Y010627
X031302
Y013284
T04
X011024Y012695
X034252
M30
