%FSLAX24Y24*%
%MOIN*%
G70*
G01*
G75*
G04 Layer_Physical_Order=2*
G04 Layer_Color=16711680*
%ADD10C,0.0197*%
%ADD11R,0.0709X0.0709*%
%ADD12C,0.0709*%
%ADD13C,0.0984*%
%ADD14C,0.1063*%
D10*
X19357Y469D02*
X20476D01*
X17429D02*
X19357D01*
X19307Y519D02*
X19357Y469D01*
X19307Y519D02*
Y1407D01*
X20476Y469D02*
X21160D01*
X16145D02*
X16829D01*
X13098D02*
X16145D01*
X11814D02*
X12499D01*
X8767D02*
X11814D01*
X7483D02*
X8168D01*
X4437D02*
X7483D01*
X21946Y350D02*
X22460Y863D01*
X21280Y350D02*
X21946D01*
X21160Y469D02*
X21280Y350D01*
X17309D02*
X17429Y469D01*
X16949Y350D02*
X17309D01*
X16829Y469D02*
X16949Y350D01*
X12978D02*
X13098Y469D01*
X12618Y350D02*
X12978D01*
X12499Y469D02*
X12618Y350D01*
X8648D02*
X8767Y469D01*
X8288Y350D02*
X8648D01*
X8168Y469D02*
X8288Y350D01*
X4317D02*
X4437Y469D01*
X3957Y350D02*
X4317D01*
X3837Y469D02*
X3957Y350D01*
X3153Y469D02*
X3837D01*
X16129Y2044D02*
X18944D01*
X11798D02*
X16129D01*
X7468D02*
X11798D01*
X3137D02*
X7468D01*
X20096Y2407D02*
X20460Y2044D01*
X19307Y2407D02*
X20096D01*
X18944Y2044D02*
X19307Y2407D01*
X22460Y3619D02*
X22507Y3667D01*
Y4607D01*
X21707D02*
X22507D01*
X20557Y3457D02*
X21707Y4607D01*
X19357Y3457D02*
X20557D01*
X19307Y3407D02*
X19357Y3457D01*
X18657Y3407D02*
X19307D01*
X18446Y3619D02*
X18657Y3407D01*
X18129Y3619D02*
X18446D01*
X18129D02*
X18157Y3647D01*
Y4607D01*
X17357D02*
X18157D01*
X16369Y3619D02*
X17357Y4607D01*
X13798Y3619D02*
X16369D01*
X13798D02*
X13807Y3628D01*
Y4557D01*
X12957D02*
X13807D01*
X12019Y3619D02*
X12957Y4557D01*
X9468Y3619D02*
X12019D01*
X9468D02*
Y4547D01*
X9457Y4557D02*
X9468Y4547D01*
X8707Y4557D02*
X9457D01*
X7769Y3619D02*
X8707Y4557D01*
X5137Y3619D02*
X7769D01*
D11*
X19307Y3407D02*
D03*
D12*
Y2407D02*
D03*
Y1407D02*
D03*
D13*
X20460Y2044D02*
D03*
Y4406D02*
D03*
X22460Y3619D02*
D03*
X20476Y469D02*
D03*
X22460Y863D02*
D03*
X16129Y2044D02*
D03*
Y4406D02*
D03*
X18129Y3619D02*
D03*
X16145Y469D02*
D03*
X18129Y863D02*
D03*
X11798Y2044D02*
D03*
Y4406D02*
D03*
X13798Y3619D02*
D03*
X11814Y469D02*
D03*
X13798Y863D02*
D03*
X7468Y2044D02*
D03*
Y4406D02*
D03*
X9468Y3619D02*
D03*
X7483Y469D02*
D03*
X9468Y863D02*
D03*
X3137Y2044D02*
D03*
Y4406D02*
D03*
X5137Y3619D02*
D03*
X3153Y469D02*
D03*
X5137Y863D02*
D03*
D14*
X1181Y2853D02*
D03*
X24409D02*
D03*
M02*
