%FSLAX24Y24*%
%MOIN*%
G70*
G01*
G75*
G04 Layer_Color=65535*
%ADD10C,0.0197*%
%ADD11R,0.0709X0.0709*%
%ADD12C,0.0709*%
%ADD13C,0.0984*%
%ADD14C,0.1063*%
%ADD15C,0.0079*%
%ADD16C,0.0050*%
%ADD17C,0.0100*%
D15*
X18807Y907D02*
Y3907D01*
Y907D02*
X19807D01*
Y3907D01*
X18807D02*
X19807D01*
X18807Y2907D02*
X19807D01*
D16*
X20082Y-3D02*
X20279D01*
X22838D02*
Y4609D01*
X20082Y-3D02*
Y4609D01*
X22838D01*
X22641Y-3D02*
X22838D01*
X22641Y-1100D02*
Y-3D01*
X20279Y-1100D02*
X22641D01*
X20279D02*
Y-3D01*
X15751D02*
X15948D01*
X18507D02*
Y4609D01*
X15751Y-3D02*
Y4609D01*
X18507D01*
X18310Y-3D02*
X18507D01*
X18310Y-1100D02*
Y-3D01*
X15948Y-1100D02*
X18310D01*
X15948D02*
Y-3D01*
X11421D02*
X11617D01*
X14176D02*
Y4609D01*
X11421Y-3D02*
Y4609D01*
X14176D01*
X13980Y-3D02*
X14176D01*
X13980Y-1100D02*
Y-3D01*
X11617Y-1100D02*
X13980D01*
X11617D02*
Y-3D01*
X7090D02*
X7287D01*
X9846D02*
Y4609D01*
X7090Y-3D02*
Y4609D01*
X9846D01*
X9649Y-3D02*
X9846D01*
X9649Y-1100D02*
Y-3D01*
X7287Y-1100D02*
X9649D01*
X7287D02*
Y-3D01*
X2759D02*
X2956D01*
X5515D02*
Y4609D01*
X2759Y-3D02*
Y4609D01*
X5515D01*
X5318Y-3D02*
X5515D01*
X5318Y-1100D02*
Y-3D01*
X2956Y-1100D02*
X5318D01*
X2956D02*
Y-3D01*
D17*
X4107Y5487D02*
X3907D01*
X4007D01*
Y4987D01*
X3907Y4887D01*
X3807D01*
X3707Y4987D01*
X4707Y5487D02*
X4307D01*
Y5187D01*
X4507Y5287D01*
X4607D01*
X4707Y5187D01*
Y4987D01*
X4607Y4887D01*
X4407D01*
X4307Y4987D01*
X8437Y5487D02*
X8237D01*
X8337D01*
Y4987D01*
X8237Y4887D01*
X8137D01*
X8037Y4987D01*
X8937Y4887D02*
Y5487D01*
X8637Y5187D01*
X9037D01*
X12767Y5487D02*
X12567D01*
X12667D01*
Y4987D01*
X12567Y4887D01*
X12467D01*
X12367Y4987D01*
X12967Y5387D02*
X13067Y5487D01*
X13267D01*
X13367Y5387D01*
Y5287D01*
X13267Y5187D01*
X13167D01*
X13267D01*
X13367Y5087D01*
Y4987D01*
X13267Y4887D01*
X13067D01*
X12967Y4987D01*
X17097Y5487D02*
X16897D01*
X16997D01*
Y4987D01*
X16897Y4887D01*
X16797D01*
X16697Y4987D01*
X17697Y4887D02*
X17297D01*
X17697Y5287D01*
Y5387D01*
X17597Y5487D01*
X17397D01*
X17297Y5387D01*
X21427Y5487D02*
X21227D01*
X21327D01*
Y4987D01*
X21227Y4887D01*
X21127D01*
X21027Y4987D01*
X21627Y4887D02*
X21827D01*
X21727D01*
Y5487D01*
X21627Y5387D01*
X19108Y5057D02*
X19008Y4957D01*
Y4757D01*
X19108Y4657D01*
X19508D01*
X19607Y4757D01*
Y4957D01*
X19508Y5057D01*
X19607Y5257D02*
Y5457D01*
Y5357D01*
X19008D01*
X19108Y5257D01*
X23912Y4202D02*
Y3602D01*
X24212D01*
X24312Y3702D01*
Y3802D01*
X24212Y3902D01*
X23912D01*
X24212D01*
X24312Y4002D01*
Y4102D01*
X24212Y4202D01*
X23912D01*
X24912Y3602D02*
X24512D01*
X24912Y4002D01*
Y4102D01*
X24812Y4202D01*
X24612D01*
X24512Y4102D01*
X762Y4302D02*
Y3702D01*
X1062D01*
X1162Y3802D01*
Y3902D01*
X1062Y4002D01*
X762D01*
X1062D01*
X1162Y4102D01*
Y4202D01*
X1062Y4302D01*
X762D01*
X1362Y3702D02*
X1562D01*
X1462D01*
Y4302D01*
X1362Y4202D01*
X14708Y857D02*
X14608Y757D01*
Y557D01*
X14708Y457D01*
X14808D01*
X14908Y557D01*
Y757D01*
X15008Y857D01*
X15108D01*
X15207Y757D01*
Y557D01*
X15108Y457D01*
X15407Y1057D02*
X14808D01*
Y1357D01*
X14908Y1457D01*
X15108D01*
X15207Y1357D01*
Y1057D01*
Y1657D02*
Y1857D01*
Y1757D01*
X14808D01*
Y1657D01*
Y2157D02*
X15207D01*
X15008D01*
X14908Y2257D01*
X14808Y2357D01*
Y2457D01*
X14708Y2857D02*
X14808D01*
Y2757D01*
Y2957D01*
Y2857D01*
X15108D01*
X15207Y2957D01*
X14808Y3856D02*
X15207Y4056D01*
X14808Y4256D01*
X15207Y4856D02*
Y4456D01*
X14808Y4856D01*
X14708D01*
X14608Y4756D01*
Y4556D01*
X14708Y4456D01*
X10857Y1157D02*
X10258D01*
X10857Y1557D01*
X10258D01*
X10857Y1757D02*
Y1957D01*
Y1857D01*
X10458D01*
Y1757D01*
X10857Y2257D02*
X10258D01*
X10658D02*
X10458Y2557D01*
X10658Y2257D02*
X10857Y2557D01*
Y2957D02*
Y3157D01*
X10758Y3257D01*
X10558D01*
X10458Y3157D01*
Y2957D01*
X10558Y2857D01*
X10758D01*
X10857Y2957D01*
X11057Y3457D02*
X10458D01*
Y3756D01*
X10558Y3856D01*
X10758D01*
X10857Y3756D01*
Y3457D01*
Y4156D02*
Y4356D01*
X10758Y4456D01*
X10558D01*
X10458Y4356D01*
Y4156D01*
X10558Y4056D01*
X10758D01*
X10857Y4156D01*
Y4656D02*
Y4856D01*
Y4756D01*
X10258D01*
Y4656D01*
M02*
