%FSLAX24Y24*%
%MOIN*%
G70*
G01*
G75*
G04 Layer_Physical_Order=1*
G04 Layer_Color=255*
%ADD10R,0.0374X0.0551*%
%ADD11R,0.0551X0.0374*%
G04:AMPARAMS|DCode=12|XSize=228.3mil|YSize=244.1mil|CornerRadius=57.1mil|HoleSize=0mil|Usage=FLASHONLY|Rotation=0.000|XOffset=0mil|YOffset=0mil|HoleType=Round|Shape=RoundedRectangle|*
%AMROUNDEDRECTD12*
21,1,0.2283,0.1299,0,0,0.0*
21,1,0.1142,0.2441,0,0,0.0*
1,1,0.1142,0.0571,-0.0650*
1,1,0.1142,-0.0571,-0.0650*
1,1,0.1142,-0.0571,0.0650*
1,1,0.1142,0.0571,0.0650*
%
%ADD12ROUNDEDRECTD12*%
G04:AMPARAMS|DCode=13|XSize=63mil|YSize=118.1mil|CornerRadius=15.7mil|HoleSize=0mil|Usage=FLASHONLY|Rotation=0.000|XOffset=0mil|YOffset=0mil|HoleType=Round|Shape=RoundedRectangle|*
%AMROUNDEDRECTD13*
21,1,0.0630,0.0866,0,0,0.0*
21,1,0.0315,0.1181,0,0,0.0*
1,1,0.0315,0.0157,-0.0433*
1,1,0.0315,-0.0157,-0.0433*
1,1,0.0315,-0.0157,0.0433*
1,1,0.0315,0.0157,0.0433*
%
%ADD13ROUNDEDRECTD13*%
G04:AMPARAMS|DCode=14|XSize=40mil|YSize=60mil|CornerRadius=10mil|HoleSize=0mil|Usage=FLASHONLY|Rotation=270.000|XOffset=0mil|YOffset=0mil|HoleType=Round|Shape=RoundedRectangle|*
%AMROUNDEDRECTD14*
21,1,0.0400,0.0400,0,0,270.0*
21,1,0.0200,0.0600,0,0,270.0*
1,1,0.0200,-0.0200,-0.0100*
1,1,0.0200,-0.0200,0.0100*
1,1,0.0200,0.0200,0.0100*
1,1,0.0200,0.0200,-0.0100*
%
%ADD14ROUNDEDRECTD14*%
G04:AMPARAMS|DCode=15|XSize=40mil|YSize=60mil|CornerRadius=10mil|HoleSize=0mil|Usage=FLASHONLY|Rotation=180.000|XOffset=0mil|YOffset=0mil|HoleType=Round|Shape=RoundedRectangle|*
%AMROUNDEDRECTD15*
21,1,0.0400,0.0400,0,0,180.0*
21,1,0.0200,0.0600,0,0,180.0*
1,1,0.0200,-0.0100,0.0200*
1,1,0.0200,0.0100,0.0200*
1,1,0.0200,0.0100,-0.0200*
1,1,0.0200,-0.0100,-0.0200*
%
%ADD15ROUNDEDRECTD15*%
%ADD16C,0.0197*%
%ADD17C,0.0394*%
%ADD18C,0.0295*%
%ADD19C,0.0138*%
%ADD20C,0.0118*%
%ADD21C,0.0630*%
%ADD22R,0.0591X0.0591*%
%ADD23C,0.0591*%
%ADD24R,0.0630X0.0630*%
%ADD25C,0.0748*%
G04:AMPARAMS|DCode=26|XSize=98.4mil|YSize=98.4mil|CornerRadius=0mil|HoleSize=0mil|Usage=FLASHONLY|Rotation=90.000|XOffset=0mil|YOffset=0mil|HoleType=Round|Shape=Octagon|*
%AMOCTAGOND26*
4,1,8,0.0246,0.0492,-0.0246,0.0492,-0.0492,0.0246,-0.0492,-0.0246,-0.0246,-0.0492,0.0246,-0.0492,0.0492,-0.0246,0.0492,0.0246,0.0246,0.0492,0.0*
%
%ADD26OCTAGOND26*%

%ADD27C,0.0984*%
%ADD28C,0.0787*%
G04:AMPARAMS|DCode=29|XSize=78.7mil|YSize=78.7mil|CornerRadius=0mil|HoleSize=0mil|Usage=FLASHONLY|Rotation=0.000|XOffset=0mil|YOffset=0mil|HoleType=Round|Shape=Octagon|*
%AMOCTAGOND29*
4,1,8,0.0394,-0.0197,0.0394,0.0197,0.0197,0.0394,-0.0197,0.0394,-0.0394,0.0197,-0.0394,-0.0197,-0.0197,-0.0394,0.0197,-0.0394,0.0394,-0.0197,0.0*
%
%ADD29OCTAGOND29*%

G04:AMPARAMS|DCode=30|XSize=59.1mil|YSize=59.1mil|CornerRadius=0mil|HoleSize=0mil|Usage=FLASHONLY|Rotation=180.000|XOffset=0mil|YOffset=0mil|HoleType=Round|Shape=Octagon|*
%AMOCTAGOND30*
4,1,8,-0.0295,0.0148,-0.0295,-0.0148,-0.0148,-0.0295,0.0148,-0.0295,0.0295,-0.0148,0.0295,0.0148,0.0148,0.0295,-0.0148,0.0295,-0.0295,0.0148,0.0*
%
%ADD30OCTAGOND30*%

%ADD31C,0.2559*%
%ADD32C,0.1181*%
%ADD33R,0.0591X0.0591*%
%ADD34C,0.0709*%
%ADD35C,0.1575*%
%ADD36R,0.1575X0.1575*%
G04:AMPARAMS|DCode=37|XSize=59.1mil|YSize=59.1mil|CornerRadius=0mil|HoleSize=0mil|Usage=FLASHONLY|Rotation=270.000|XOffset=0mil|YOffset=0mil|HoleType=Round|Shape=Octagon|*
%AMOCTAGOND37*
4,1,8,-0.0148,-0.0295,0.0148,-0.0295,0.0295,-0.0148,0.0295,0.0148,0.0148,0.0295,-0.0148,0.0295,-0.0295,0.0148,-0.0295,-0.0148,-0.0148,-0.0295,0.0*
%
%ADD37OCTAGOND37*%

%ADD38C,0.0669*%
%ADD39C,0.0500*%
G36*
X66950Y31250D02*
X67450Y30750D01*
Y25119D01*
X67412Y25086D01*
X67400Y25088D01*
X67161D01*
X67151Y25101D01*
X67048Y25180D01*
X66941Y25224D01*
X66941Y25224D01*
Y25276D01*
X66941Y25276D01*
X67048Y25320D01*
X67151Y25399D01*
X67230Y25502D01*
X67279Y25622D01*
X67296Y25750D01*
X67279Y25878D01*
X67230Y25998D01*
X67151Y26101D01*
X67048Y26180D01*
X66928Y26229D01*
X66800Y26246D01*
X66671Y26229D01*
X66552Y26180D01*
X66449Y26101D01*
X66370Y25998D01*
X66326Y25891D01*
X66326Y25891D01*
X66274D01*
X66274Y25891D01*
X66230Y25998D01*
X66151Y26101D01*
X66048Y26180D01*
X65928Y26229D01*
X65800Y26246D01*
X65671Y26229D01*
X65552Y26180D01*
X65449Y26101D01*
X65370Y25998D01*
X65320Y25878D01*
X65304Y25750D01*
X65320Y25622D01*
X65370Y25502D01*
X65449Y25399D01*
X65552Y25320D01*
X65671Y25271D01*
X65781Y25256D01*
Y25252D01*
X65819D01*
Y25256D01*
X65928Y25271D01*
X66048Y25320D01*
X66151Y25399D01*
X66230Y25502D01*
X66274Y25609D01*
X66274Y25609D01*
X66326D01*
X66326Y25609D01*
X66370Y25502D01*
X66449Y25399D01*
X66552Y25320D01*
X66659Y25276D01*
X66659Y25276D01*
Y25224D01*
X66659Y25224D01*
X66552Y25180D01*
X66449Y25101D01*
X66370Y24998D01*
X66320Y24878D01*
X66306Y24769D01*
X66302D01*
Y24731D01*
X66306D01*
X66320Y24622D01*
X66370Y24502D01*
X66449Y24399D01*
X66552Y24320D01*
X66659Y24276D01*
X66659Y24276D01*
Y24224D01*
X66659Y24224D01*
X66552Y24180D01*
X66449Y24101D01*
X66370Y23998D01*
X66326Y23891D01*
X66326Y23891D01*
X66274D01*
X66274Y23891D01*
X66230Y23998D01*
X66151Y24101D01*
X66048Y24180D01*
X65928Y24229D01*
X65819Y24244D01*
Y24248D01*
X65781D01*
Y24244D01*
X65671Y24229D01*
X65552Y24180D01*
X65449Y24101D01*
X65370Y23998D01*
X65367Y23991D01*
X64500D01*
X64408Y23972D01*
X64330Y23920D01*
X64313Y23904D01*
X64271Y23932D01*
X64278Y23949D01*
X64291Y24050D01*
X64278Y24151D01*
X64239Y24246D01*
X64177Y24327D01*
X64096Y24389D01*
X64001Y24428D01*
X63900Y24441D01*
X63799Y24428D01*
X63704Y24389D01*
X63623Y24327D01*
X63596Y24291D01*
X62191D01*
X62181Y24337D01*
X62181Y24337D01*
X62181Y24337D01*
Y25163D01*
X61536D01*
X61503Y25201D01*
X61515Y25218D01*
X61545Y25290D01*
X61555Y25367D01*
Y26233D01*
X61545Y26310D01*
X61515Y26382D01*
X61468Y26444D01*
X61406Y26491D01*
X61335Y26521D01*
X61257Y26531D01*
X60943D01*
X60865Y26521D01*
X60794Y26491D01*
X60732Y26444D01*
X60685Y26382D01*
X60655Y26310D01*
X60645Y26233D01*
Y25367D01*
X60655Y25290D01*
X60685Y25218D01*
X60732Y25156D01*
X60794Y25109D01*
X60859Y25082D01*
Y24969D01*
X60687D01*
Y24431D01*
X60480D01*
X60416Y24418D01*
X60403Y24416D01*
X60338Y24372D01*
X60033Y24067D01*
X58413D01*
Y24181D01*
X57587D01*
Y23531D01*
X58413D01*
Y23646D01*
X60106D01*
X60187Y23662D01*
X60255Y23707D01*
X60284Y23750D01*
X60563Y24029D01*
X60687D01*
Y23531D01*
X61484D01*
X61736Y23280D01*
X61814Y23227D01*
X61906Y23209D01*
X62896D01*
X62923Y23173D01*
X63004Y23111D01*
X63054Y23091D01*
X63044Y23041D01*
X55450D01*
X55091Y23400D01*
Y23531D01*
X55263D01*
Y24181D01*
X54437D01*
Y23531D01*
X54609D01*
Y23300D01*
X54627Y23208D01*
X54680Y23130D01*
X55180Y22630D01*
X55258Y22577D01*
X55350Y22559D01*
X63550D01*
X63642Y22577D01*
X63720Y22630D01*
X64600Y23509D01*
X65367D01*
X65370Y23502D01*
X65449Y23399D01*
X65552Y23320D01*
X65659Y23276D01*
X65659Y23276D01*
Y23224D01*
X65659Y23224D01*
X65552Y23180D01*
X65449Y23101D01*
X65370Y22998D01*
X65320Y22878D01*
X65304Y22750D01*
X65320Y22622D01*
X65370Y22502D01*
X65449Y22399D01*
X65552Y22320D01*
X65659Y22276D01*
X65659Y22276D01*
Y22224D01*
X65659Y22224D01*
X65552Y22180D01*
X65449Y22101D01*
X65370Y21998D01*
X65320Y21878D01*
X65304Y21750D01*
X65320Y21622D01*
X65370Y21502D01*
X65449Y21399D01*
X65552Y21320D01*
X65671Y21271D01*
X65800Y21254D01*
X65928Y21271D01*
X66048Y21320D01*
X66151Y21399D01*
X66230Y21502D01*
X66274Y21609D01*
X66274Y21609D01*
X66326D01*
X66326Y21609D01*
X66370Y21502D01*
X66449Y21399D01*
X66552Y21320D01*
X66671Y21271D01*
X66800Y21254D01*
X66928Y21271D01*
X67048Y21320D01*
X67112Y21369D01*
X67162Y21345D01*
Y21040D01*
X66923Y20800D01*
X65250D01*
X65238Y20788D01*
X60089D01*
X60002Y20776D01*
X59920Y20742D01*
X59850Y20689D01*
X58206Y19044D01*
X57817D01*
Y18178D01*
X58683D01*
Y18567D01*
X60229Y20112D01*
X65050D01*
Y19677D01*
X64261Y18889D01*
X64208Y18819D01*
X64198Y18795D01*
X64174Y18737D01*
X64162Y18650D01*
Y13640D01*
X63660Y13138D01*
X63150D01*
X63063Y13126D01*
X62981Y13092D01*
X62911Y13039D01*
X62511Y12639D01*
X62458Y12569D01*
X62448Y12545D01*
X62424Y12487D01*
X62412Y12400D01*
Y11836D01*
X62385Y11815D01*
X62303Y11708D01*
X62277Y11646D01*
X62223D01*
X62197Y11708D01*
X62115Y11815D01*
X62008Y11897D01*
X61991Y11904D01*
Y13552D01*
X62041Y13570D01*
X62107Y13526D01*
X62200Y13508D01*
X62600D01*
X62693Y13526D01*
X62771Y13579D01*
X62792Y13609D01*
X62937D01*
Y13532D01*
X63763D01*
Y14181D01*
X62937D01*
Y14091D01*
X62792D01*
X62771Y14121D01*
X62693Y14174D01*
X62600Y14192D01*
X62200D01*
X62107Y14174D01*
X62041Y14130D01*
X61991Y14148D01*
Y14348D01*
X61999Y14355D01*
X62041Y14370D01*
X62107Y14326D01*
X62200Y14308D01*
X62600D01*
X62693Y14326D01*
X62771Y14379D01*
X62824Y14457D01*
X62842Y14550D01*
Y14750D01*
X62824Y14843D01*
X62771Y14921D01*
X62693Y14974D01*
X62600Y14992D01*
X62200D01*
X62107Y14974D01*
X62029Y14921D01*
X62008Y14891D01*
X61900D01*
X61808Y14873D01*
X61730Y14820D01*
X61580Y14670D01*
X61527Y14592D01*
X61509Y14500D01*
Y11904D01*
X61492Y11897D01*
X61385Y11815D01*
X61303Y11708D01*
X61277Y11646D01*
X61223D01*
X61197Y11708D01*
X61115Y11815D01*
X61008Y11897D01*
X60884Y11949D01*
X60750Y11966D01*
X60616Y11949D01*
X60492Y11897D01*
X60385Y11815D01*
X60303Y11708D01*
X60251Y11584D01*
X60234Y11450D01*
X60251Y11316D01*
X60303Y11192D01*
X60385Y11085D01*
X60492Y11003D01*
X60616Y10951D01*
X60750Y10934D01*
X60884Y10951D01*
X61008Y11003D01*
X61115Y11085D01*
X61197Y11192D01*
X61223Y11254D01*
X61277D01*
X61303Y11192D01*
X61385Y11085D01*
X61492Y11003D01*
X61616Y10951D01*
X61750Y10934D01*
X61884Y10951D01*
X62008Y11003D01*
X62115Y11085D01*
X62197Y11192D01*
X62223Y11254D01*
X62277D01*
X62303Y11192D01*
X62385Y11085D01*
X62492Y11003D01*
X62616Y10951D01*
X62750Y10934D01*
X62884Y10951D01*
X63008Y11003D01*
X63115Y11085D01*
X63197Y11192D01*
X63243Y11304D01*
X63285Y11309D01*
X63296Y11307D01*
X63336Y11211D01*
X63412Y11112D01*
X63511Y11036D01*
X63626Y10988D01*
X63700Y10978D01*
Y11450D01*
Y11922D01*
X63626Y11912D01*
X63511Y11864D01*
X63412Y11788D01*
X63336Y11689D01*
X63296Y11593D01*
X63285Y11591D01*
X63243Y11596D01*
X63197Y11708D01*
X63115Y11815D01*
X63088Y11836D01*
Y12260D01*
X63290Y12462D01*
X63800D01*
X63887Y12474D01*
X63945Y12498D01*
X63969Y12508D01*
X64039Y12561D01*
X64739Y13261D01*
X64792Y13331D01*
X64826Y13413D01*
X64838Y13500D01*
Y18510D01*
X65004Y18676D01*
X65050Y18657D01*
Y10100D01*
X45404D01*
X45401Y10150D01*
X45468Y10159D01*
X45578Y10205D01*
X45673Y10277D01*
X45745Y10372D01*
X45791Y10482D01*
X45807Y10600D01*
X45791Y10718D01*
X45745Y10828D01*
X45673Y10923D01*
X45578Y10995D01*
X45468Y11041D01*
X45350Y11057D01*
X45232Y11041D01*
X45122Y10995D01*
X45027Y10923D01*
X44955Y10828D01*
X44909Y10718D01*
X44893Y10600D01*
X44909Y10482D01*
X44955Y10372D01*
X45027Y10277D01*
X45122Y10205D01*
X45232Y10159D01*
X45299Y10150D01*
X45296Y10100D01*
X40800D01*
X40750Y10150D01*
X39950Y10950D01*
Y11111D01*
X40000Y11143D01*
X40082Y11109D01*
X40200Y11093D01*
X40318Y11109D01*
X40428Y11155D01*
X40523Y11227D01*
X40595Y11322D01*
X40641Y11432D01*
X40657Y11550D01*
X40641Y11668D01*
X40595Y11778D01*
X40523Y11873D01*
X40428Y11945D01*
X40318Y11991D01*
X40200Y12007D01*
X40082Y11991D01*
X40000Y11957D01*
X39950Y11989D01*
Y15111D01*
X40000Y15143D01*
X40082Y15109D01*
X40200Y15093D01*
X40318Y15109D01*
X40428Y15155D01*
X40523Y15227D01*
X40595Y15322D01*
X40641Y15432D01*
X40657Y15550D01*
X40641Y15668D01*
X40595Y15778D01*
X40523Y15873D01*
X40428Y15945D01*
X40318Y15991D01*
X40200Y16007D01*
X40082Y15991D01*
X40000Y15957D01*
X39950Y15989D01*
Y21000D01*
X39900Y27715D01*
X39935Y27750D01*
X41162D01*
X41195Y27712D01*
X41193Y27700D01*
X41209Y27582D01*
X41255Y27472D01*
X41327Y27377D01*
X41422Y27305D01*
X41532Y27259D01*
X41650Y27243D01*
X41768Y27259D01*
X41878Y27305D01*
X41973Y27377D01*
X42045Y27472D01*
X42091Y27582D01*
X42107Y27700D01*
X42105Y27712D01*
X42138Y27750D01*
X43935D01*
X43968Y27713D01*
X43967Y27700D01*
X43979Y27577D01*
X44015Y27458D01*
X44074Y27348D01*
X44152Y27252D01*
X44248Y27174D01*
X44358Y27115D01*
X44477Y27079D01*
X44600Y27067D01*
X44723Y27079D01*
X44842Y27115D01*
X44952Y27174D01*
X45048Y27252D01*
X45126Y27348D01*
X45185Y27458D01*
X45221Y27577D01*
X45233Y27700D01*
X45232Y27713D01*
X45265Y27750D01*
X53600D01*
Y30200D01*
X53700Y30300D01*
X54850Y31450D01*
X55437D01*
X55454Y31400D01*
X55423Y31377D01*
X55361Y31296D01*
X55322Y31201D01*
X55309Y31100D01*
X55322Y30999D01*
X55361Y30904D01*
X55362Y30903D01*
Y30012D01*
X55129D01*
X54990Y29998D01*
X54857Y29957D01*
X54734Y29892D01*
X54626Y29803D01*
X54537Y29695D01*
X54471Y29572D01*
X54431Y29439D01*
X54417Y29300D01*
Y28000D01*
X54431Y27861D01*
X54471Y27728D01*
X54537Y27605D01*
X54626Y27497D01*
X54734Y27408D01*
X54857Y27343D01*
X54990Y27302D01*
X55129Y27288D01*
X56271D01*
X56410Y27302D01*
X56543Y27343D01*
X56666Y27408D01*
X56774Y27497D01*
X56863Y27605D01*
X56929Y27728D01*
X56969Y27861D01*
X56983Y28000D01*
Y29300D01*
X56969Y29439D01*
X56929Y29572D01*
X56863Y29695D01*
X56774Y29803D01*
X56666Y29892D01*
X56543Y29957D01*
X56410Y29998D01*
X56271Y30012D01*
X56038D01*
Y30812D01*
X56600D01*
X56687Y30824D01*
X56769Y30858D01*
X56839Y30911D01*
X57366Y31438D01*
X57400Y31434D01*
X57523Y31450D01*
X58062D01*
Y31000D01*
X58074Y30913D01*
X58098Y30855D01*
X58108Y30831D01*
X58161Y30761D01*
X58472Y30451D01*
X58472Y30449D01*
X58511Y30354D01*
X58512Y30353D01*
Y30012D01*
X58279D01*
X58140Y29998D01*
X58007Y29957D01*
X57884Y29892D01*
X57776Y29803D01*
X57687Y29695D01*
X57621Y29572D01*
X57581Y29439D01*
X57567Y29300D01*
Y28000D01*
X57581Y27861D01*
X57621Y27728D01*
X57687Y27605D01*
X57776Y27497D01*
X57884Y27408D01*
X58007Y27343D01*
X58140Y27302D01*
X58279Y27288D01*
X59421D01*
X59560Y27302D01*
X59693Y27343D01*
X59816Y27408D01*
X59924Y27497D01*
X60013Y27605D01*
X60079Y27728D01*
X60119Y27861D01*
X60133Y28000D01*
Y29300D01*
X60119Y29439D01*
X60079Y29572D01*
X60013Y29695D01*
X59924Y29803D01*
X59816Y29892D01*
X59693Y29957D01*
X59560Y29998D01*
X59421Y30012D01*
X59188D01*
Y30353D01*
X59189Y30354D01*
X59228Y30449D01*
X59241Y30550D01*
X59228Y30651D01*
X59189Y30746D01*
X59127Y30827D01*
X59046Y30889D01*
X58951Y30928D01*
X58949Y30928D01*
X58738Y31140D01*
Y31450D01*
X59062D01*
Y31300D01*
X59074Y31213D01*
X59098Y31155D01*
X59108Y31131D01*
X59161Y31061D01*
X59811Y30411D01*
X59881Y30358D01*
X59963Y30324D01*
X60050Y30312D01*
X61403D01*
X61404Y30311D01*
X61499Y30272D01*
X61501Y30272D01*
X61662Y30110D01*
Y30012D01*
X61429D01*
X61290Y29998D01*
X61157Y29957D01*
X61034Y29892D01*
X60926Y29803D01*
X60837Y29695D01*
X60771Y29572D01*
X60731Y29439D01*
X60717Y29300D01*
Y28000D01*
X60731Y27861D01*
X60771Y27728D01*
X60837Y27605D01*
X60926Y27497D01*
X61034Y27408D01*
X61157Y27343D01*
X61290Y27302D01*
X61429Y27288D01*
X62571D01*
X62710Y27302D01*
X62843Y27343D01*
X62966Y27408D01*
X63074Y27497D01*
X63163Y27605D01*
X63229Y27728D01*
X63269Y27861D01*
X63283Y28000D01*
Y29300D01*
X63269Y29439D01*
X63229Y29572D01*
X63163Y29695D01*
X63074Y29803D01*
X62966Y29892D01*
X62843Y29957D01*
X62710Y29998D01*
X62571Y30012D01*
X62338D01*
Y30250D01*
X62326Y30337D01*
X62292Y30419D01*
X62239Y30489D01*
X61978Y30749D01*
X61978Y30751D01*
X61939Y30846D01*
X61877Y30927D01*
X61796Y30989D01*
X61701Y31028D01*
X61600Y31041D01*
X61499Y31028D01*
X61404Y30989D01*
X61403Y30988D01*
X60190D01*
X59777Y31400D01*
X59798Y31450D01*
X60277D01*
X60400Y31434D01*
X60523Y31450D01*
X66750D01*
X66950Y31250D01*
D02*
G37*
%LPC*%
G36*
X63726Y14931D02*
X63400D01*
Y14694D01*
X63726D01*
Y14931D01*
D02*
G37*
G36*
X63300D02*
X62974D01*
Y14694D01*
X63300D01*
Y14931D01*
D02*
G37*
G36*
X50714Y15903D02*
X49808D01*
Y14997D01*
X50714D01*
Y15903D01*
D02*
G37*
G36*
X52051Y15400D02*
X51689D01*
Y15038D01*
X51747Y15046D01*
X51848Y15088D01*
X51935Y15154D01*
X52001Y15241D01*
X52043Y15342D01*
X52051Y15400D01*
D02*
G37*
G36*
X51589D02*
X51227D01*
X51235Y15342D01*
X51277Y15241D01*
X51343Y15154D01*
X51430Y15088D01*
X51531Y15046D01*
X51589Y15038D01*
Y15400D01*
D02*
G37*
G36*
X45350Y15057D02*
X45232Y15041D01*
X45122Y14995D01*
X45027Y14923D01*
X44955Y14828D01*
X44909Y14718D01*
X44893Y14600D01*
X44909Y14482D01*
X44955Y14372D01*
X45027Y14277D01*
X45122Y14205D01*
X45232Y14159D01*
X45350Y14143D01*
X45468Y14159D01*
X45578Y14205D01*
X45673Y14277D01*
X45745Y14372D01*
X45791Y14482D01*
X45807Y14600D01*
X45791Y14718D01*
X45745Y14828D01*
X45673Y14923D01*
X45578Y14995D01*
X45468Y15041D01*
X45350Y15057D01*
D02*
G37*
G36*
X42117Y13833D02*
X41683D01*
X41467Y13617D01*
Y13183D01*
X41683Y12967D01*
X42117D01*
X42333Y13183D01*
Y13617D01*
X42117Y13833D01*
D02*
G37*
G36*
X63300Y14594D02*
X62974D01*
Y14357D01*
X63300D01*
Y14594D01*
D02*
G37*
G36*
X47350Y15933D02*
X47227Y15921D01*
X47108Y15885D01*
X46998Y15826D01*
X46902Y15748D01*
X46824Y15652D01*
X46765Y15542D01*
X46729Y15423D01*
X46717Y15300D01*
X46729Y15177D01*
X46765Y15058D01*
X46824Y14948D01*
X46902Y14852D01*
X46998Y14774D01*
X47108Y14715D01*
X47227Y14679D01*
X47350Y14667D01*
X47473Y14679D01*
X47592Y14715D01*
X47702Y14774D01*
X47798Y14852D01*
X47876Y14948D01*
X47935Y15058D01*
X47971Y15177D01*
X47983Y15300D01*
X47971Y15423D01*
X47935Y15542D01*
X47876Y15652D01*
X47798Y15748D01*
X47702Y15826D01*
X47592Y15885D01*
X47473Y15921D01*
X47350Y15933D01*
D02*
G37*
G36*
X63726Y14594D02*
X63400D01*
Y14357D01*
X63726D01*
Y14594D01*
D02*
G37*
G36*
X54500Y19037D02*
X54387Y19022D01*
X54282Y18978D01*
X54191Y18909D01*
X54122Y18818D01*
X54078Y18713D01*
X54063Y18600D01*
X54078Y18487D01*
X54122Y18382D01*
X54191Y18291D01*
X54282Y18222D01*
X54387Y18178D01*
X54500Y18163D01*
X54613Y18178D01*
X54718Y18222D01*
X54809Y18291D01*
X54878Y18382D01*
X54922Y18487D01*
X54937Y18600D01*
X54922Y18713D01*
X54878Y18818D01*
X54809Y18909D01*
X54718Y18978D01*
X54613Y19022D01*
X54500Y19037D01*
D02*
G37*
G36*
X43635Y18149D02*
X43497Y18131D01*
X43367Y18077D01*
X43256Y17992D01*
X43171Y17881D01*
X43118Y17752D01*
X43099Y17613D01*
X43118Y17474D01*
X43171Y17345D01*
X43256Y17234D01*
X43367Y17149D01*
X43497Y17095D01*
X43635Y17077D01*
X43774Y17095D01*
X43903Y17149D01*
X44015Y17234D01*
X44100Y17345D01*
X44153Y17474D01*
X44172Y17613D01*
X44153Y17752D01*
X44100Y17881D01*
X44015Y17992D01*
X43903Y18077D01*
X43774Y18131D01*
X43635Y18149D01*
D02*
G37*
G36*
X50300Y18566D02*
X49958D01*
X49965Y18513D01*
X50005Y18416D01*
X50068Y18334D01*
X50151Y18270D01*
X50247Y18231D01*
X50300Y18224D01*
Y18566D01*
D02*
G37*
G36*
Y19008D02*
X50247Y19001D01*
X50151Y18961D01*
X50068Y18898D01*
X50005Y18815D01*
X49965Y18719D01*
X49958Y18666D01*
X50300D01*
Y19008D01*
D02*
G37*
G36*
X50742Y18566D02*
X50400D01*
Y18224D01*
X50453Y18231D01*
X50549Y18270D01*
X50632Y18334D01*
X50695Y18416D01*
X50735Y18513D01*
X50742Y18566D01*
D02*
G37*
G36*
X57500Y16207D02*
X57382Y16191D01*
X57272Y16145D01*
X57177Y16073D01*
X57105Y15978D01*
X57059Y15868D01*
X57043Y15750D01*
X57059Y15632D01*
X57105Y15522D01*
X57177Y15427D01*
X57272Y15355D01*
X57382Y15309D01*
X57500Y15293D01*
X57618Y15309D01*
X57728Y15355D01*
X57823Y15427D01*
X57895Y15522D01*
X57941Y15632D01*
X57957Y15750D01*
X57941Y15868D01*
X57895Y15978D01*
X57823Y16073D01*
X57728Y16145D01*
X57618Y16191D01*
X57500Y16207D01*
D02*
G37*
G36*
X53500D02*
X53382Y16191D01*
X53272Y16145D01*
X53177Y16073D01*
X53105Y15978D01*
X53059Y15868D01*
X53043Y15750D01*
X53049Y15706D01*
X51281Y13938D01*
X44569D01*
X43801Y14706D01*
X43807Y14750D01*
X43791Y14868D01*
X43745Y14978D01*
X43673Y15073D01*
X43578Y15145D01*
X43468Y15191D01*
X43350Y15207D01*
X43232Y15191D01*
X43122Y15145D01*
X43027Y15073D01*
X42955Y14978D01*
X42909Y14868D01*
X42893Y14750D01*
X42909Y14632D01*
X42955Y14522D01*
X43027Y14427D01*
X43122Y14355D01*
X43232Y14309D01*
X43350Y14293D01*
X43394Y14299D01*
X44246Y13446D01*
X44306Y13401D01*
X44375Y13372D01*
X44450Y13362D01*
X51400D01*
X51475Y13372D01*
X51544Y13401D01*
X51604Y13446D01*
X53456Y15299D01*
X53500Y15293D01*
X53618Y15309D01*
X53728Y15355D01*
X53823Y15427D01*
X53895Y15522D01*
X53941Y15632D01*
X53957Y15750D01*
X53941Y15868D01*
X53895Y15978D01*
X53823Y16073D01*
X53728Y16145D01*
X53618Y16191D01*
X53500Y16207D01*
D02*
G37*
G36*
X51589Y15862D02*
X51531Y15854D01*
X51430Y15812D01*
X51343Y15746D01*
X51277Y15659D01*
X51235Y15558D01*
X51227Y15500D01*
X51589D01*
Y15862D01*
D02*
G37*
G36*
X47150Y17907D02*
X47032Y17891D01*
X46922Y17845D01*
X46827Y17773D01*
X46755Y17678D01*
X46709Y17568D01*
X46693Y17450D01*
X46709Y17332D01*
X46755Y17222D01*
X46827Y17127D01*
X46922Y17055D01*
X47032Y17009D01*
X47150Y16993D01*
X47268Y17009D01*
X47378Y17055D01*
X47473Y17127D01*
X47545Y17222D01*
X47591Y17332D01*
X47607Y17450D01*
X47591Y17568D01*
X47545Y17678D01*
X47473Y17773D01*
X47378Y17845D01*
X47268Y17891D01*
X47150Y17907D01*
D02*
G37*
G36*
X51689Y15862D02*
Y15500D01*
X52051D01*
X52043Y15558D01*
X52001Y15659D01*
X51935Y15746D01*
X51848Y15812D01*
X51747Y15854D01*
X51689Y15862D01*
D02*
G37*
G36*
X41950Y12792D02*
Y12450D01*
X42292D01*
X42285Y12503D01*
X42245Y12599D01*
X42182Y12682D01*
X42099Y12745D01*
X42003Y12785D01*
X41950Y12792D01*
D02*
G37*
G36*
X43400Y11162D02*
Y10800D01*
X43762D01*
X43754Y10858D01*
X43712Y10959D01*
X43646Y11046D01*
X43559Y11112D01*
X43458Y11154D01*
X43400Y11162D01*
D02*
G37*
G36*
X43300D02*
X43242Y11154D01*
X43141Y11112D01*
X43054Y11046D01*
X42988Y10959D01*
X42946Y10858D01*
X42938Y10800D01*
X43300D01*
Y11162D01*
D02*
G37*
G36*
X41900Y11837D02*
X41787Y11822D01*
X41682Y11778D01*
X41591Y11709D01*
X41522Y11618D01*
X41478Y11513D01*
X41463Y11400D01*
X41478Y11287D01*
X41522Y11182D01*
X41591Y11091D01*
X41682Y11022D01*
X41787Y10978D01*
X41900Y10963D01*
X42013Y10978D01*
X42118Y11022D01*
X42209Y11091D01*
X42278Y11182D01*
X42322Y11287D01*
X42337Y11400D01*
X42322Y11513D01*
X42278Y11618D01*
X42209Y11709D01*
X42118Y11778D01*
X42013Y11822D01*
X41900Y11837D01*
D02*
G37*
G36*
X50100Y12187D02*
X49987Y12172D01*
X49882Y12128D01*
X49791Y12059D01*
X49722Y11968D01*
X49678Y11863D01*
X49663Y11750D01*
X49678Y11637D01*
X49722Y11532D01*
X49791Y11441D01*
X49882Y11372D01*
X49987Y11328D01*
X50100Y11313D01*
X50213Y11328D01*
X50318Y11372D01*
X50409Y11441D01*
X50478Y11532D01*
X50522Y11637D01*
X50537Y11750D01*
X50522Y11863D01*
X50478Y11968D01*
X50409Y12059D01*
X50318Y12128D01*
X50213Y12172D01*
X50100Y12187D01*
D02*
G37*
G36*
X64222Y11400D02*
X63800D01*
Y10978D01*
X63874Y10988D01*
X63989Y11036D01*
X64088Y11112D01*
X64164Y11211D01*
X64212Y11326D01*
X64222Y11400D01*
D02*
G37*
G36*
X48450Y11037D02*
X48337Y11022D01*
X48232Y10978D01*
X48141Y10909D01*
X48072Y10818D01*
X48028Y10713D01*
X48013Y10600D01*
X48028Y10487D01*
X48072Y10382D01*
X48141Y10291D01*
X48232Y10222D01*
X48337Y10178D01*
X48450Y10163D01*
X48563Y10178D01*
X48668Y10222D01*
X48759Y10291D01*
X48828Y10382D01*
X48872Y10487D01*
X48887Y10600D01*
X48872Y10713D01*
X48828Y10818D01*
X48759Y10909D01*
X48668Y10978D01*
X48563Y11022D01*
X48450Y11037D01*
D02*
G37*
G36*
X46450D02*
X46337Y11022D01*
X46232Y10978D01*
X46141Y10909D01*
X46072Y10818D01*
X46028Y10713D01*
X46013Y10600D01*
X46028Y10487D01*
X46072Y10382D01*
X46141Y10291D01*
X46232Y10222D01*
X46337Y10178D01*
X46450Y10163D01*
X46563Y10178D01*
X46668Y10222D01*
X46759Y10291D01*
X46828Y10382D01*
X46872Y10487D01*
X46887Y10600D01*
X46872Y10713D01*
X46828Y10818D01*
X46759Y10909D01*
X46668Y10978D01*
X46563Y11022D01*
X46450Y11037D01*
D02*
G37*
G36*
X43300Y10700D02*
X42938D01*
X42946Y10642D01*
X42988Y10541D01*
X43054Y10454D01*
X43141Y10388D01*
X43242Y10346D01*
X43300Y10338D01*
Y10700D01*
D02*
G37*
G36*
X56583Y11444D02*
X55717D01*
Y10578D01*
X56583D01*
Y11444D01*
D02*
G37*
G36*
X43762Y10700D02*
X43400D01*
Y10338D01*
X43458Y10346D01*
X43559Y10388D01*
X43646Y10454D01*
X43712Y10541D01*
X43754Y10642D01*
X43762Y10700D01*
D02*
G37*
G36*
X42292Y12350D02*
X41950D01*
Y12008D01*
X42003Y12015D01*
X42099Y12055D01*
X42182Y12118D01*
X42245Y12201D01*
X42285Y12297D01*
X42292Y12350D01*
D02*
G37*
G36*
X41850D02*
X41508D01*
X41515Y12297D01*
X41555Y12201D01*
X41618Y12118D01*
X41701Y12055D01*
X41797Y12015D01*
X41850Y12008D01*
Y12350D01*
D02*
G37*
G36*
X56100Y12781D02*
X56047Y12774D01*
X55951Y12734D01*
X55868Y12671D01*
X55805Y12588D01*
X55765Y12492D01*
X55758Y12439D01*
X56100D01*
Y12781D01*
D02*
G37*
G36*
X41850Y12792D02*
X41797Y12785D01*
X41701Y12745D01*
X41618Y12682D01*
X41555Y12599D01*
X41515Y12503D01*
X41508Y12450D01*
X41850D01*
Y12792D01*
D02*
G37*
G36*
X56200Y12781D02*
Y12439D01*
X56542D01*
X56535Y12492D01*
X56495Y12588D01*
X56432Y12671D01*
X56349Y12734D01*
X56253Y12774D01*
X56200Y12781D01*
D02*
G37*
G36*
X63800Y11922D02*
Y11500D01*
X64222D01*
X64212Y11574D01*
X64164Y11689D01*
X64088Y11788D01*
X63989Y11864D01*
X63874Y11912D01*
X63800Y11922D01*
D02*
G37*
G36*
X52100Y12187D02*
X51987Y12172D01*
X51882Y12128D01*
X51791Y12059D01*
X51722Y11968D01*
X51678Y11863D01*
X51663Y11750D01*
X51678Y11637D01*
X51722Y11532D01*
X51791Y11441D01*
X51882Y11372D01*
X51987Y11328D01*
X52100Y11313D01*
X52213Y11328D01*
X52318Y11372D01*
X52409Y11441D01*
X52478Y11532D01*
X52522Y11637D01*
X52537Y11750D01*
X52522Y11863D01*
X52478Y11968D01*
X52409Y12059D01*
X52318Y12128D01*
X52213Y12172D01*
X52100Y12187D01*
D02*
G37*
G36*
X47665Y12930D02*
X47035D01*
X46720Y12615D01*
Y11985D01*
X47035Y11670D01*
X47665D01*
X47980Y11985D01*
Y12615D01*
X47665Y12930D01*
D02*
G37*
G36*
X56542Y12339D02*
X56200D01*
Y11997D01*
X56253Y12004D01*
X56349Y12044D01*
X56432Y12107D01*
X56495Y12190D01*
X56535Y12286D01*
X56542Y12339D01*
D02*
G37*
G36*
X56100D02*
X55758D01*
X55765Y12286D01*
X55805Y12190D01*
X55868Y12107D01*
X55951Y12044D01*
X56047Y12004D01*
X56100Y11997D01*
Y12339D01*
D02*
G37*
G36*
X50400Y19008D02*
Y18666D01*
X50742D01*
X50735Y18719D01*
X50695Y18815D01*
X50632Y18898D01*
X50549Y18961D01*
X50453Y19001D01*
X50400Y19008D01*
D02*
G37*
G36*
X65750Y25202D02*
X65681Y25193D01*
X65571Y25147D01*
X65476Y25074D01*
X65403Y24979D01*
X65357Y24869D01*
X65348Y24800D01*
X65750D01*
Y25202D01*
D02*
G37*
G36*
X51900Y25307D02*
X51782Y25291D01*
X51672Y25245D01*
X51577Y25173D01*
X51505Y25078D01*
X51459Y24968D01*
X51443Y24850D01*
X51459Y24732D01*
X51505Y24622D01*
X51577Y24527D01*
X51672Y24455D01*
X51782Y24409D01*
X51900Y24393D01*
X52018Y24409D01*
X52128Y24455D01*
X52223Y24527D01*
X52295Y24622D01*
X52341Y24732D01*
X52357Y24850D01*
X52341Y24968D01*
X52295Y25078D01*
X52223Y25173D01*
X52128Y25245D01*
X52018Y25291D01*
X51900Y25307D01*
D02*
G37*
G36*
X65850Y25202D02*
Y24800D01*
X66252D01*
X66243Y24869D01*
X66197Y24979D01*
X66124Y25074D01*
X66029Y25147D01*
X65919Y25193D01*
X65850Y25202D01*
D02*
G37*
G36*
X60167Y25750D02*
X59333D01*
Y25367D01*
X59342Y25300D01*
X59368Y25237D01*
X59409Y25183D01*
X59419Y25176D01*
X59402Y25126D01*
X59307D01*
Y24800D01*
X59881D01*
Y25107D01*
X59907D01*
X59975Y25116D01*
X60037Y25142D01*
X60091Y25183D01*
X60132Y25237D01*
X60158Y25300D01*
X60167Y25367D01*
Y25750D01*
D02*
G37*
G36*
X57017D02*
X56183D01*
Y25367D01*
X56192Y25300D01*
X56218Y25237D01*
X56259Y25183D01*
X56269Y25176D01*
X56252Y25126D01*
X56157D01*
Y24800D01*
X56731D01*
Y25107D01*
X56757D01*
X56825Y25116D01*
X56887Y25142D01*
X56941Y25183D01*
X56982Y25237D01*
X57008Y25300D01*
X57017Y25367D01*
Y25750D01*
D02*
G37*
G36*
X59881Y24700D02*
X59644D01*
Y24374D01*
X59881D01*
Y24700D01*
D02*
G37*
G36*
X59544D02*
X59307D01*
Y24374D01*
X59544D01*
Y24700D01*
D02*
G37*
G36*
X62594D02*
X62357D01*
Y24374D01*
X62594D01*
Y24700D01*
D02*
G37*
G36*
X47900Y25307D02*
X47782Y25291D01*
X47672Y25245D01*
X47577Y25173D01*
X47505Y25078D01*
X47459Y24968D01*
X47443Y24850D01*
X47459Y24732D01*
X47505Y24622D01*
X47577Y24527D01*
X47672Y24455D01*
X47782Y24409D01*
X47900Y24393D01*
X48018Y24409D01*
X48128Y24455D01*
X48223Y24527D01*
X48295Y24622D01*
X48341Y24732D01*
X48357Y24850D01*
X48341Y24968D01*
X48295Y25078D01*
X48223Y25173D01*
X48128Y25245D01*
X48018Y25291D01*
X47900Y25307D01*
D02*
G37*
G36*
X62931Y24700D02*
X62694D01*
Y24374D01*
X62931D01*
Y24700D01*
D02*
G37*
G36*
X59700Y26493D02*
X59593D01*
X59525Y26484D01*
X59463Y26458D01*
X59409Y26417D01*
X59368Y26363D01*
X59342Y26300D01*
X59333Y26233D01*
Y25850D01*
X59700D01*
Y26493D01*
D02*
G37*
G36*
X56757D02*
X56650D01*
Y25850D01*
X57017D01*
Y26233D01*
X57008Y26300D01*
X56982Y26363D01*
X56941Y26417D01*
X56887Y26458D01*
X56825Y26484D01*
X56757Y26493D01*
D02*
G37*
G36*
X59907D02*
X59800D01*
Y25850D01*
X60167D01*
Y26233D01*
X60158Y26300D01*
X60132Y26363D01*
X60091Y26417D01*
X60037Y26458D01*
X59975Y26484D01*
X59907Y26493D01*
D02*
G37*
G36*
X63057D02*
X62950D01*
Y25850D01*
X63317D01*
Y26233D01*
X63308Y26300D01*
X63282Y26363D01*
X63241Y26417D01*
X63187Y26458D01*
X63125Y26484D01*
X63057Y26493D01*
D02*
G37*
G36*
X62850D02*
X62743D01*
X62675Y26484D01*
X62613Y26458D01*
X62559Y26417D01*
X62518Y26363D01*
X62492Y26300D01*
X62483Y26233D01*
Y25850D01*
X62850D01*
Y26493D01*
D02*
G37*
G36*
X43635Y26023D02*
X43497Y26005D01*
X43367Y25951D01*
X43256Y25866D01*
X43171Y25755D01*
X43118Y25626D01*
X43099Y25487D01*
X43118Y25348D01*
X43171Y25219D01*
X43256Y25108D01*
X43367Y25023D01*
X43497Y24969D01*
X43635Y24951D01*
X43774Y24969D01*
X43903Y25023D01*
X44015Y25108D01*
X44100Y25219D01*
X44153Y25348D01*
X44172Y25487D01*
X44153Y25626D01*
X44100Y25755D01*
X44015Y25866D01*
X43903Y25951D01*
X43774Y26005D01*
X43635Y26023D01*
D02*
G37*
G36*
X63317Y25750D02*
X62483D01*
Y25367D01*
X62492Y25300D01*
X62518Y25237D01*
X62559Y25183D01*
X62569Y25176D01*
X62552Y25126D01*
X62357D01*
Y24800D01*
X62931D01*
Y25107D01*
X63057D01*
X63125Y25116D01*
X63187Y25142D01*
X63241Y25183D01*
X63282Y25237D01*
X63308Y25300D01*
X63317Y25367D01*
Y25750D01*
D02*
G37*
G36*
X49900Y26587D02*
X49787Y26572D01*
X49682Y26528D01*
X49591Y26459D01*
X49522Y26368D01*
X49478Y26263D01*
X49463Y26150D01*
X49478Y26037D01*
X49522Y25932D01*
X49591Y25841D01*
X49682Y25772D01*
X49787Y25728D01*
X49900Y25713D01*
X50013Y25728D01*
X50118Y25772D01*
X50209Y25841D01*
X50278Y25932D01*
X50322Y26037D01*
X50337Y26150D01*
X50322Y26263D01*
X50278Y26368D01*
X50209Y26459D01*
X50118Y26528D01*
X50013Y26572D01*
X49900Y26587D01*
D02*
G37*
G36*
X56550Y26493D02*
X56443D01*
X56375Y26484D01*
X56313Y26458D01*
X56259Y26417D01*
X56218Y26363D01*
X56192Y26300D01*
X56183Y26233D01*
Y25850D01*
X56550D01*
Y26493D01*
D02*
G37*
G36*
X51900Y26587D02*
X51787Y26572D01*
X51682Y26528D01*
X51591Y26459D01*
X51522Y26368D01*
X51478Y26263D01*
X51463Y26150D01*
X51478Y26037D01*
X51522Y25932D01*
X51591Y25841D01*
X51682Y25772D01*
X51787Y25728D01*
X51900Y25713D01*
X52013Y25728D01*
X52118Y25772D01*
X52209Y25841D01*
X52278Y25932D01*
X52322Y26037D01*
X52337Y26150D01*
X52322Y26263D01*
X52278Y26368D01*
X52209Y26459D01*
X52118Y26528D01*
X52013Y26572D01*
X51900Y26587D01*
D02*
G37*
G36*
X56731Y24700D02*
X56494D01*
Y24374D01*
X56731D01*
Y24700D01*
D02*
G37*
G36*
X58200Y20381D02*
X58147Y20374D01*
X58051Y20334D01*
X57968Y20271D01*
X57905Y20188D01*
X57865Y20092D01*
X57858Y20039D01*
X58200D01*
Y20381D01*
D02*
G37*
G36*
X43685Y20073D02*
Y19632D01*
X44127D01*
X44116Y19710D01*
X44067Y19830D01*
X43988Y19934D01*
X43884Y20013D01*
X43764Y20062D01*
X43685Y20073D01*
D02*
G37*
G36*
X58300Y20381D02*
Y20039D01*
X58642D01*
X58635Y20092D01*
X58595Y20188D01*
X58532Y20271D01*
X58449Y20334D01*
X58353Y20374D01*
X58300Y20381D01*
D02*
G37*
G36*
X54500Y21037D02*
X54387Y21022D01*
X54282Y20978D01*
X54191Y20909D01*
X54122Y20818D01*
X54078Y20713D01*
X54063Y20600D01*
X54078Y20487D01*
X54122Y20382D01*
X54191Y20291D01*
X54282Y20222D01*
X54387Y20178D01*
X54500Y20163D01*
X54613Y20178D01*
X54718Y20222D01*
X54809Y20291D01*
X54878Y20382D01*
X54922Y20487D01*
X54937Y20600D01*
X54922Y20713D01*
X54878Y20818D01*
X54809Y20909D01*
X54718Y20978D01*
X54613Y21022D01*
X54500Y21037D01*
D02*
G37*
G36*
X50783Y21017D02*
X49917D01*
Y20151D01*
X50783D01*
Y21017D01*
D02*
G37*
G36*
X44127Y19532D02*
X43685D01*
Y19090D01*
X43764Y19101D01*
X43884Y19150D01*
X43988Y19229D01*
X44067Y19333D01*
X44116Y19453D01*
X44127Y19532D01*
D02*
G37*
G36*
X43585D02*
X43144D01*
X43154Y19453D01*
X43204Y19333D01*
X43283Y19229D01*
X43386Y19150D01*
X43507Y19101D01*
X43585Y19090D01*
Y19532D01*
D02*
G37*
G36*
X58200Y19939D02*
X57858D01*
X57865Y19886D01*
X57905Y19790D01*
X57968Y19707D01*
X58051Y19644D01*
X58147Y19604D01*
X58200Y19597D01*
Y19939D01*
D02*
G37*
G36*
X43585Y20073D02*
X43507Y20062D01*
X43386Y20013D01*
X43283Y19934D01*
X43204Y19830D01*
X43154Y19710D01*
X43144Y19632D01*
X43585D01*
Y20073D01*
D02*
G37*
G36*
X58642Y19939D02*
X58300D01*
Y19597D01*
X58353Y19604D01*
X58449Y19644D01*
X58532Y19707D01*
X58595Y19790D01*
X58635Y19886D01*
X58642Y19939D01*
D02*
G37*
G36*
X66252Y24700D02*
X65850D01*
Y24298D01*
X65919Y24307D01*
X66029Y24353D01*
X66124Y24426D01*
X66197Y24521D01*
X66243Y24631D01*
X66252Y24700D01*
D02*
G37*
G36*
X65750D02*
X65348D01*
X65357Y24631D01*
X65403Y24521D01*
X65476Y24426D01*
X65571Y24353D01*
X65681Y24307D01*
X65750Y24298D01*
Y24700D01*
D02*
G37*
G36*
X54957Y26531D02*
X54643D01*
X54565Y26521D01*
X54494Y26491D01*
X54432Y26444D01*
X54385Y26382D01*
X54355Y26310D01*
X54345Y26233D01*
Y25367D01*
X54355Y25290D01*
X54385Y25218D01*
X54432Y25156D01*
X54494Y25109D01*
X54565Y25079D01*
X54609Y25073D01*
Y24969D01*
X54437D01*
Y24319D01*
X55263D01*
Y24403D01*
X55332D01*
Y24337D01*
X55550D01*
X55564Y24327D01*
X55656Y24309D01*
X55748Y24327D01*
X55762Y24337D01*
X55981D01*
Y25163D01*
X55332D01*
Y24885D01*
X55263D01*
Y24969D01*
X55091D01*
Y25103D01*
X55106Y25109D01*
X55168Y25156D01*
X55215Y25218D01*
X55245Y25290D01*
X55255Y25367D01*
Y26233D01*
X55245Y26310D01*
X55215Y26382D01*
X55168Y26444D01*
X55106Y26491D01*
X55035Y26521D01*
X54957Y26531D01*
D02*
G37*
G36*
X56394Y24700D02*
X56157D01*
Y24374D01*
X56394D01*
Y24700D01*
D02*
G37*
G36*
X58107Y26531D02*
X57793D01*
X57715Y26521D01*
X57644Y26491D01*
X57582Y26444D01*
X57535Y26382D01*
X57505Y26310D01*
X57495Y26233D01*
Y25367D01*
X57505Y25290D01*
X57535Y25218D01*
X57582Y25156D01*
X57644Y25109D01*
X57715Y25079D01*
X57759Y25073D01*
Y24969D01*
X57587D01*
Y24319D01*
X58413D01*
Y24403D01*
X58481D01*
Y24337D01*
X58700D01*
X58714Y24327D01*
X58806Y24309D01*
X58898Y24327D01*
X58912Y24337D01*
X59131D01*
Y25163D01*
X58481D01*
Y24885D01*
X58413D01*
Y24969D01*
X58241D01*
Y25103D01*
X58256Y25109D01*
X58318Y25156D01*
X58365Y25218D01*
X58395Y25290D01*
X58405Y25367D01*
Y26233D01*
X58395Y26310D01*
X58365Y26382D01*
X58318Y26444D01*
X58256Y26491D01*
X58185Y26521D01*
X58107Y26531D01*
D02*
G37*
G36*
X43635Y22086D02*
X43497Y22068D01*
X43367Y22014D01*
X43256Y21929D01*
X43171Y21818D01*
X43118Y21689D01*
X43099Y21550D01*
X43118Y21411D01*
X43171Y21282D01*
X43256Y21171D01*
X43367Y21086D01*
X43497Y21032D01*
X43635Y21014D01*
X43774Y21032D01*
X43903Y21086D01*
X44015Y21171D01*
X44100Y21282D01*
X44153Y21411D01*
X44172Y21550D01*
X44153Y21689D01*
X44100Y21818D01*
X44015Y21929D01*
X43903Y22014D01*
X43774Y22068D01*
X43635Y22086D01*
D02*
G37*
G36*
X47150Y21907D02*
X47032Y21891D01*
X46922Y21845D01*
X46827Y21773D01*
X46755Y21678D01*
X46709Y21568D01*
X46693Y21450D01*
X46709Y21332D01*
X46755Y21222D01*
X46827Y21127D01*
X46922Y21055D01*
X47032Y21009D01*
X47150Y20993D01*
X47268Y21009D01*
X47378Y21055D01*
X47473Y21127D01*
X47545Y21222D01*
X47591Y21332D01*
X47607Y21450D01*
X47591Y21568D01*
X47545Y21678D01*
X47473Y21773D01*
X47378Y21845D01*
X47268Y21891D01*
X47150Y21907D01*
D02*
G37*
G36*
X47900Y23886D02*
X47761Y23868D01*
X47632Y23814D01*
X47521Y23729D01*
X47436Y23618D01*
X47382Y23489D01*
X47364Y23350D01*
X47382Y23211D01*
X47436Y23082D01*
X47521Y22971D01*
X47632Y22886D01*
X47761Y22832D01*
X47900Y22814D01*
X48039Y22832D01*
X48168Y22886D01*
X48279Y22971D01*
X48364Y23082D01*
X48418Y23211D01*
X48436Y23350D01*
X48418Y23489D01*
X48364Y23618D01*
X48279Y23729D01*
X48168Y23814D01*
X48039Y23868D01*
X47900Y23886D01*
D02*
G37*
G36*
X43635Y24055D02*
X43497Y24036D01*
X43367Y23983D01*
X43256Y23898D01*
X43171Y23787D01*
X43118Y23657D01*
X43099Y23519D01*
X43118Y23380D01*
X43171Y23250D01*
X43256Y23139D01*
X43367Y23054D01*
X43497Y23001D01*
X43635Y22982D01*
X43774Y23001D01*
X43903Y23054D01*
X44015Y23139D01*
X44100Y23250D01*
X44153Y23380D01*
X44172Y23519D01*
X44153Y23657D01*
X44100Y23787D01*
X44015Y23898D01*
X43903Y23983D01*
X43774Y24036D01*
X43635Y24055D01*
D02*
G37*
G36*
X51166Y23881D02*
X50634D01*
X50368Y23616D01*
Y23084D01*
X50634Y22819D01*
X51166D01*
X51431Y23084D01*
Y23616D01*
X51166Y23881D01*
D02*
G37*
%LPD*%
D10*
X62644Y24750D02*
D03*
X61856D02*
D03*
X59594D02*
D03*
X58806D02*
D03*
X56444D02*
D03*
X55656D02*
D03*
X66844Y14900D02*
D03*
X66056D02*
D03*
D11*
X61100Y24644D02*
D03*
Y23856D02*
D03*
X58000Y24644D02*
D03*
Y23856D02*
D03*
X54850Y24644D02*
D03*
Y23856D02*
D03*
X63350Y14644D02*
D03*
Y13856D02*
D03*
D12*
X55700Y28650D02*
D03*
X58850D02*
D03*
X62000D02*
D03*
D13*
X54800Y25800D02*
D03*
X56600D02*
D03*
X57950D02*
D03*
X59750D02*
D03*
X61100D02*
D03*
X62900D02*
D03*
D14*
X62400Y14650D02*
D03*
Y13850D02*
D03*
D15*
X66850Y13950D02*
D03*
X66050D02*
D03*
D16*
X56950Y26900D02*
X59750D01*
Y25800D02*
Y26900D01*
X59800D02*
X62600D01*
X62900Y25800D02*
Y26600D01*
X62600Y26900D02*
X62900Y26600D01*
X56600Y26550D02*
X56950Y26900D01*
X56600Y25800D02*
Y26550D01*
X62644Y24550D02*
Y25094D01*
X62900Y25350D01*
Y25800D01*
X59594Y24550D02*
Y24994D01*
X59750Y25150D01*
Y25800D01*
X56444Y24550D02*
Y24994D01*
X56600Y25150D01*
Y25800D01*
X61763Y24644D02*
X61856Y24550D01*
X61100Y24644D02*
X61763D01*
X61100D02*
Y25800D01*
X58000Y24644D02*
Y25750D01*
X58713Y24644D02*
X58806Y24550D01*
X58000Y24644D02*
X58713D01*
X57950Y24694D02*
X58000Y24644D01*
X54850D02*
Y25750D01*
Y24644D02*
X55563D01*
X55656Y24550D01*
X62400Y13850D02*
X63244D01*
X61900Y14650D02*
X62400D01*
X61750Y14500D02*
X61900Y14650D01*
X61750Y11450D02*
Y14500D01*
X61906Y23450D02*
X63200D01*
X61100Y23856D02*
X61500D01*
X61906Y23450D01*
X54850Y23300D02*
Y23856D01*
X61950Y24050D02*
X63900D01*
X61770Y24230D02*
X61950Y24050D01*
X61627Y24230D02*
X61770D01*
X54850Y23300D02*
X55350Y22800D01*
X63550D01*
X64500Y23750D01*
X65800D01*
D17*
X62000Y28650D02*
Y30250D01*
X61600Y30650D02*
X62000Y30250D01*
X59400Y31300D02*
Y31950D01*
Y31300D02*
X60050Y30650D01*
X61600D01*
X58850Y28650D02*
Y30550D01*
X58400Y31000D02*
X58850Y30550D01*
X58400Y31000D02*
Y31950D01*
X55700Y31150D02*
X56600D01*
X55700Y28850D02*
Y31150D01*
Y28850D02*
X55800Y28750D01*
X56600Y31150D02*
X57400Y31950D01*
X26150Y18850D02*
Y22050D01*
X24950Y17650D02*
X26150Y18850D01*
X24950Y16150D02*
Y17650D01*
Y12150D02*
Y13550D01*
X26150Y14750D01*
Y16150D01*
X48100Y29166D02*
X49416D01*
X50500Y30250D01*
Y31600D01*
X65761Y18111D02*
X66250Y18600D01*
X65761Y17100D02*
Y18111D01*
X66250Y18600D02*
X67650D01*
X66800Y24750D02*
X67400D01*
X65550Y19700D02*
X67450D01*
X64500Y18650D02*
X65550Y19700D01*
X64500Y13500D02*
Y18650D01*
X63800Y12800D02*
X64500Y13500D01*
X63150Y12800D02*
X63800D01*
X62750Y12400D02*
X63150Y12800D01*
X62750Y11450D02*
Y12400D01*
X67650Y18600D02*
X68550Y19500D01*
Y30950D01*
X67450Y19700D02*
X68000Y20250D01*
Y24150D01*
X67400Y24750D02*
X68000Y24150D01*
X66800Y22750D02*
X67500Y22050D01*
Y20900D02*
Y22050D01*
X67050Y20450D02*
X67500Y20900D01*
X60089Y20450D02*
X67050D01*
X58250Y18611D02*
X60089Y20450D01*
X67139Y16061D02*
Y17100D01*
Y16061D02*
X67750Y15450D01*
Y14250D02*
Y15450D01*
X67450Y13950D02*
X67750Y14250D01*
X66850Y13950D02*
X67450D01*
X66844Y14900D02*
Y15406D01*
X65761Y16489D02*
X66844Y15406D01*
X65761Y16489D02*
Y17100D01*
X66056Y13956D02*
Y14900D01*
X66050Y13950D02*
X66056Y13956D01*
X50500Y31600D02*
X51650Y32750D01*
X66750D01*
X68550Y30950D01*
D18*
X51400Y13650D02*
X53500Y15750D01*
X44450Y13650D02*
X51400D01*
X43350Y14750D02*
X44450Y13650D01*
X63900Y24750D02*
X65800D01*
X63700Y24550D02*
X63900Y24750D01*
X62644Y24550D02*
X63700D01*
D19*
X58000Y23856D02*
X60106D01*
D20*
X60480Y24230D01*
X61627D01*
D21*
X53500Y15750D02*
D03*
X57500D02*
D03*
X51639Y15450D02*
D03*
X45350Y10600D02*
D03*
Y14600D02*
D03*
X24950Y16150D02*
D03*
Y12150D02*
D03*
X26150Y16150D02*
D03*
Y12150D02*
D03*
X29950Y27750D02*
D03*
Y23750D02*
D03*
X25900Y10900D02*
D03*
X21900D02*
D03*
X16434Y29550D02*
D03*
X14466D02*
D03*
X51900Y24850D02*
D03*
X47900D02*
D03*
X47150Y21450D02*
D03*
Y17450D02*
D03*
X40200Y11550D02*
D03*
Y15550D02*
D03*
X43350Y10750D02*
D03*
Y14750D02*
D03*
X41650Y31700D02*
D03*
Y27700D02*
D03*
D22*
X56150Y11011D02*
D03*
X58250Y18611D02*
D03*
X50350Y20584D02*
D03*
X35700Y11800D02*
D03*
X48100Y31134D02*
D03*
D23*
X56150Y12389D02*
D03*
X50100Y11750D02*
D03*
X52100D02*
D03*
X44600Y32550D02*
D03*
X42600D02*
D03*
X58250Y19989D02*
D03*
X54500Y20600D02*
D03*
Y18600D02*
D03*
X22900Y12950D02*
D03*
X65761Y17100D02*
D03*
X49900Y26150D02*
D03*
X51900D02*
D03*
X50350Y18616D02*
D03*
X33650Y14800D02*
D03*
X35700Y10800D02*
D03*
X41900Y12400D02*
D03*
Y11400D02*
D03*
X38700Y14600D02*
D03*
X35700D02*
D03*
Y13600D02*
D03*
X48450Y10600D02*
D03*
X46450D02*
D03*
X48100Y29166D02*
D03*
X52200Y31100D02*
D03*
Y29100D02*
D03*
D24*
X50261Y15450D02*
D03*
D25*
X60400Y31950D02*
D03*
X59400D02*
D03*
X58400D02*
D03*
X57400D02*
D03*
X63750Y11450D02*
D03*
X62750D02*
D03*
X61750D02*
D03*
X60750D02*
D03*
D26*
X44600Y30700D02*
D03*
X47350Y12300D02*
D03*
D27*
X44600Y27700D02*
D03*
X47350Y15300D02*
D03*
D28*
X47900Y23350D02*
D03*
X37800Y29400D02*
D03*
X34800D02*
D03*
X35565Y25487D02*
D03*
Y23519D02*
D03*
Y21550D02*
D03*
Y19582D02*
D03*
Y17613D02*
D03*
X43635D02*
D03*
Y19582D02*
D03*
Y21550D02*
D03*
Y23519D02*
D03*
Y25487D02*
D03*
X32700Y21600D02*
D03*
X19088Y27488D02*
D03*
X23812D02*
D03*
Y32212D02*
D03*
X19088D02*
D03*
X28700Y13100D02*
D03*
Y12100D02*
D03*
X31200Y14600D02*
D03*
X29700Y13600D02*
D03*
Y12600D02*
D03*
X31200Y11600D02*
D03*
X29950Y31900D02*
D03*
Y28900D02*
D03*
D29*
X50900Y23350D02*
D03*
X29700Y21600D02*
D03*
D30*
X21900Y12950D02*
D03*
X41900Y13400D02*
D03*
X38700Y13600D02*
D03*
D31*
X66929Y11811D02*
D03*
X39370Y31496D02*
D03*
X13780Y11811D02*
D03*
D32*
X11850Y14350D02*
D03*
Y23350D02*
D03*
Y29634D02*
D03*
Y27666D02*
D03*
D33*
X67139Y17100D02*
D03*
D34*
X16450Y14237D02*
D03*
Y25063D02*
D03*
X66800Y21750D02*
D03*
X65800D02*
D03*
X66800Y22750D02*
D03*
X65800D02*
D03*
Y23750D02*
D03*
X66800D02*
D03*
X65800Y24750D02*
D03*
X66800D02*
D03*
X65800Y25750D02*
D03*
X66800D02*
D03*
D35*
X22150Y22050D02*
D03*
D36*
X26150D02*
D03*
D37*
X33650Y11800D02*
D03*
D38*
X32000Y23050D02*
D03*
Y32050D02*
D03*
D39*
X61600Y30650D02*
D03*
X58850Y30550D02*
D03*
X55700Y31100D02*
D03*
X63200Y23450D02*
D03*
X63900Y24050D02*
D03*
M02*
