%FSLAX24Y24*%
%MOIN*%
G70*
G01*
G75*
G04 Layer_Color=8388736*
%ADD10R,0.0374X0.0551*%
%ADD11R,0.0551X0.0374*%
G04:AMPARAMS|DCode=12|XSize=228.3mil|YSize=244.1mil|CornerRadius=57.1mil|HoleSize=0mil|Usage=FLASHONLY|Rotation=0.000|XOffset=0mil|YOffset=0mil|HoleType=Round|Shape=RoundedRectangle|*
%AMROUNDEDRECTD12*
21,1,0.2283,0.1299,0,0,0.0*
21,1,0.1142,0.2441,0,0,0.0*
1,1,0.1142,0.0571,-0.0650*
1,1,0.1142,-0.0571,-0.0650*
1,1,0.1142,-0.0571,0.0650*
1,1,0.1142,0.0571,0.0650*
%
%ADD12ROUNDEDRECTD12*%
G04:AMPARAMS|DCode=13|XSize=63mil|YSize=118.1mil|CornerRadius=15.7mil|HoleSize=0mil|Usage=FLASHONLY|Rotation=0.000|XOffset=0mil|YOffset=0mil|HoleType=Round|Shape=RoundedRectangle|*
%AMROUNDEDRECTD13*
21,1,0.0630,0.0866,0,0,0.0*
21,1,0.0315,0.1181,0,0,0.0*
1,1,0.0315,0.0157,-0.0433*
1,1,0.0315,-0.0157,-0.0433*
1,1,0.0315,-0.0157,0.0433*
1,1,0.0315,0.0157,0.0433*
%
%ADD13ROUNDEDRECTD13*%
G04:AMPARAMS|DCode=14|XSize=40mil|YSize=60mil|CornerRadius=10mil|HoleSize=0mil|Usage=FLASHONLY|Rotation=270.000|XOffset=0mil|YOffset=0mil|HoleType=Round|Shape=RoundedRectangle|*
%AMROUNDEDRECTD14*
21,1,0.0400,0.0400,0,0,270.0*
21,1,0.0200,0.0600,0,0,270.0*
1,1,0.0200,-0.0200,-0.0100*
1,1,0.0200,-0.0200,0.0100*
1,1,0.0200,0.0200,0.0100*
1,1,0.0200,0.0200,-0.0100*
%
%ADD14ROUNDEDRECTD14*%
G04:AMPARAMS|DCode=15|XSize=40mil|YSize=60mil|CornerRadius=10mil|HoleSize=0mil|Usage=FLASHONLY|Rotation=180.000|XOffset=0mil|YOffset=0mil|HoleType=Round|Shape=RoundedRectangle|*
%AMROUNDEDRECTD15*
21,1,0.0400,0.0400,0,0,180.0*
21,1,0.0200,0.0600,0,0,180.0*
1,1,0.0200,-0.0100,0.0200*
1,1,0.0200,0.0100,0.0200*
1,1,0.0200,0.0100,-0.0200*
1,1,0.0200,-0.0100,-0.0200*
%
%ADD15ROUNDEDRECTD15*%
%ADD16C,0.0197*%
%ADD17C,0.0394*%
%ADD18C,0.0295*%
%ADD19C,0.0138*%
%ADD20C,0.0118*%
%ADD21C,0.0630*%
%ADD22R,0.0591X0.0591*%
%ADD23C,0.0591*%
%ADD24R,0.0630X0.0630*%
%ADD25C,0.0748*%
G04:AMPARAMS|DCode=26|XSize=98.4mil|YSize=98.4mil|CornerRadius=0mil|HoleSize=0mil|Usage=FLASHONLY|Rotation=90.000|XOffset=0mil|YOffset=0mil|HoleType=Round|Shape=Octagon|*
%AMOCTAGOND26*
4,1,8,0.0246,0.0492,-0.0246,0.0492,-0.0492,0.0246,-0.0492,-0.0246,-0.0246,-0.0492,0.0246,-0.0492,0.0492,-0.0246,0.0492,0.0246,0.0246,0.0492,0.0*
%
%ADD26OCTAGOND26*%

%ADD27C,0.0984*%
%ADD28C,0.0787*%
G04:AMPARAMS|DCode=29|XSize=78.7mil|YSize=78.7mil|CornerRadius=0mil|HoleSize=0mil|Usage=FLASHONLY|Rotation=0.000|XOffset=0mil|YOffset=0mil|HoleType=Round|Shape=Octagon|*
%AMOCTAGOND29*
4,1,8,0.0394,-0.0197,0.0394,0.0197,0.0197,0.0394,-0.0197,0.0394,-0.0394,0.0197,-0.0394,-0.0197,-0.0197,-0.0394,0.0197,-0.0394,0.0394,-0.0197,0.0*
%
%ADD29OCTAGOND29*%

G04:AMPARAMS|DCode=30|XSize=59.1mil|YSize=59.1mil|CornerRadius=0mil|HoleSize=0mil|Usage=FLASHONLY|Rotation=180.000|XOffset=0mil|YOffset=0mil|HoleType=Round|Shape=Octagon|*
%AMOCTAGOND30*
4,1,8,-0.0295,0.0148,-0.0295,-0.0148,-0.0148,-0.0295,0.0148,-0.0295,0.0295,-0.0148,0.0295,0.0148,0.0148,0.0295,-0.0148,0.0295,-0.0295,0.0148,0.0*
%
%ADD30OCTAGOND30*%

%ADD31C,0.2559*%
%ADD32C,0.1181*%
%ADD33R,0.0591X0.0591*%
%ADD34C,0.0709*%
%ADD35C,0.1575*%
%ADD36R,0.1575X0.1575*%
G04:AMPARAMS|DCode=37|XSize=59.1mil|YSize=59.1mil|CornerRadius=0mil|HoleSize=0mil|Usage=FLASHONLY|Rotation=270.000|XOffset=0mil|YOffset=0mil|HoleType=Round|Shape=Octagon|*
%AMOCTAGOND37*
4,1,8,-0.0148,-0.0295,0.0148,-0.0295,0.0295,-0.0148,0.0295,0.0148,0.0148,0.0295,-0.0148,0.0295,-0.0295,0.0148,-0.0295,-0.0148,-0.0148,-0.0295,0.0*
%
%ADD37OCTAGOND37*%

%ADD38C,0.0669*%
%ADD39C,0.0500*%
%ADD40R,0.0551X0.0413*%
G04:AMPARAMS|DCode=41|XSize=80mil|YSize=130mil|CornerRadius=20mil|HoleSize=0mil|Usage=FLASHONLY|Rotation=270.000|XOffset=0mil|YOffset=0mil|HoleType=Round|Shape=RoundedRectangle|*
%AMROUNDEDRECTD41*
21,1,0.0800,0.0900,0,0,270.0*
21,1,0.0400,0.1300,0,0,270.0*
1,1,0.0400,-0.0450,-0.0200*
1,1,0.0400,-0.0450,0.0200*
1,1,0.0400,0.0450,0.0200*
1,1,0.0400,0.0450,-0.0200*
%
%ADD41ROUNDEDRECTD41*%
G04:AMPARAMS|DCode=42|XSize=39.4mil|YSize=98.4mil|CornerRadius=9.8mil|HoleSize=0mil|Usage=FLASHONLY|Rotation=180.000|XOffset=0mil|YOffset=0mil|HoleType=Round|Shape=RoundedRectangle|*
%AMROUNDEDRECTD42*
21,1,0.0394,0.0787,0,0,180.0*
21,1,0.0197,0.0984,0,0,180.0*
1,1,0.0197,-0.0098,0.0394*
1,1,0.0197,0.0098,0.0394*
1,1,0.0197,0.0098,-0.0394*
1,1,0.0197,-0.0098,-0.0394*
%
%ADD42ROUNDEDRECTD42*%
%ADD43C,0.0787*%
%ADD44C,0.1181*%
%ADD45R,0.5000X0.2700*%
%ADD46R,0.3850X0.3250*%
%ADD47C,0.0079*%
%ADD48C,0.0050*%
%ADD49C,0.0049*%
%ADD50C,0.0100*%
%ADD51C,0.0039*%
%ADD52C,0.0315*%
%ADD53C,0.0059*%
%ADD54R,0.0883X0.0118*%
%ADD55R,0.0200X0.0800*%
%ADD56R,0.0454X0.0631*%
%ADD57R,0.0631X0.0454*%
G04:AMPARAMS|DCode=58|XSize=236.3mil|YSize=252.1mil|CornerRadius=61.1mil|HoleSize=0mil|Usage=FLASHONLY|Rotation=0.000|XOffset=0mil|YOffset=0mil|HoleType=Round|Shape=RoundedRectangle|*
%AMROUNDEDRECTD58*
21,1,0.2363,0.1299,0,0,0.0*
21,1,0.1142,0.2521,0,0,0.0*
1,1,0.1222,0.0571,-0.0650*
1,1,0.1222,-0.0571,-0.0650*
1,1,0.1222,-0.0571,0.0650*
1,1,0.1222,0.0571,0.0650*
%
%ADD58ROUNDEDRECTD58*%
G04:AMPARAMS|DCode=59|XSize=71mil|YSize=126.1mil|CornerRadius=19.7mil|HoleSize=0mil|Usage=FLASHONLY|Rotation=0.000|XOffset=0mil|YOffset=0mil|HoleType=Round|Shape=RoundedRectangle|*
%AMROUNDEDRECTD59*
21,1,0.0710,0.0866,0,0,0.0*
21,1,0.0315,0.1261,0,0,0.0*
1,1,0.0395,0.0157,-0.0433*
1,1,0.0395,-0.0157,-0.0433*
1,1,0.0395,-0.0157,0.0433*
1,1,0.0395,0.0157,0.0433*
%
%ADD59ROUNDEDRECTD59*%
G04:AMPARAMS|DCode=60|XSize=48mil|YSize=68mil|CornerRadius=14mil|HoleSize=0mil|Usage=FLASHONLY|Rotation=270.000|XOffset=0mil|YOffset=0mil|HoleType=Round|Shape=RoundedRectangle|*
%AMROUNDEDRECTD60*
21,1,0.0480,0.0400,0,0,270.0*
21,1,0.0200,0.0680,0,0,270.0*
1,1,0.0280,-0.0200,-0.0100*
1,1,0.0280,-0.0200,0.0100*
1,1,0.0280,0.0200,0.0100*
1,1,0.0280,0.0200,-0.0100*
%
%ADD60ROUNDEDRECTD60*%
G04:AMPARAMS|DCode=61|XSize=48mil|YSize=68mil|CornerRadius=14mil|HoleSize=0mil|Usage=FLASHONLY|Rotation=180.000|XOffset=0mil|YOffset=0mil|HoleType=Round|Shape=RoundedRectangle|*
%AMROUNDEDRECTD61*
21,1,0.0480,0.0400,0,0,180.0*
21,1,0.0200,0.0680,0,0,180.0*
1,1,0.0280,-0.0100,0.0200*
1,1,0.0280,0.0100,0.0200*
1,1,0.0280,0.0100,-0.0200*
1,1,0.0280,-0.0100,-0.0200*
%
%ADD61ROUNDEDRECTD61*%
%ADD62C,0.0710*%
%ADD63R,0.0671X0.0671*%
%ADD64C,0.0671*%
%ADD65R,0.0710X0.0710*%
%ADD66C,0.0828*%
G04:AMPARAMS|DCode=67|XSize=106.4mil|YSize=106.4mil|CornerRadius=0mil|HoleSize=0mil|Usage=FLASHONLY|Rotation=90.000|XOffset=0mil|YOffset=0mil|HoleType=Round|Shape=Octagon|*
%AMOCTAGOND67*
4,1,8,0.0266,0.0532,-0.0266,0.0532,-0.0532,0.0266,-0.0532,-0.0266,-0.0266,-0.0532,0.0266,-0.0532,0.0532,-0.0266,0.0532,0.0266,0.0266,0.0532,0.0*
%
%ADD67OCTAGOND67*%

%ADD68C,0.1064*%
%ADD69C,0.0867*%
G04:AMPARAMS|DCode=70|XSize=86.7mil|YSize=86.7mil|CornerRadius=0mil|HoleSize=0mil|Usage=FLASHONLY|Rotation=0.000|XOffset=0mil|YOffset=0mil|HoleType=Round|Shape=Octagon|*
%AMOCTAGOND70*
4,1,8,0.0434,-0.0217,0.0434,0.0217,0.0217,0.0434,-0.0217,0.0434,-0.0434,0.0217,-0.0434,-0.0217,-0.0217,-0.0434,0.0217,-0.0434,0.0434,-0.0217,0.0*
%
%ADD70OCTAGOND70*%

G04:AMPARAMS|DCode=71|XSize=67.1mil|YSize=67.1mil|CornerRadius=0mil|HoleSize=0mil|Usage=FLASHONLY|Rotation=180.000|XOffset=0mil|YOffset=0mil|HoleType=Round|Shape=Octagon|*
%AMOCTAGOND71*
4,1,8,-0.0335,0.0168,-0.0335,-0.0168,-0.0168,-0.0335,0.0168,-0.0335,0.0335,-0.0168,0.0335,0.0168,0.0168,0.0335,-0.0168,0.0335,-0.0335,0.0168,0.0*
%
%ADD71OCTAGOND71*%

%ADD72C,0.2639*%
%ADD73C,0.1261*%
%ADD74R,0.0671X0.0671*%
%ADD75C,0.0789*%
%ADD76C,0.1655*%
%ADD77R,0.1655X0.1655*%
G04:AMPARAMS|DCode=78|XSize=67.1mil|YSize=67.1mil|CornerRadius=0mil|HoleSize=0mil|Usage=FLASHONLY|Rotation=270.000|XOffset=0mil|YOffset=0mil|HoleType=Round|Shape=Octagon|*
%AMOCTAGOND78*
4,1,8,-0.0168,-0.0335,0.0168,-0.0335,0.0335,-0.0168,0.0335,0.0168,0.0168,0.0335,-0.0168,0.0335,-0.0335,0.0168,-0.0335,-0.0168,-0.0168,-0.0335,0.0*
%
%ADD78OCTAGOND78*%

%ADD79C,0.0749*%
D56*
X62644Y24750D02*
D03*
X61856D02*
D03*
X59594D02*
D03*
X58806D02*
D03*
X56444D02*
D03*
X55656D02*
D03*
X66844Y14900D02*
D03*
X66056D02*
D03*
D57*
X61100Y24644D02*
D03*
Y23856D02*
D03*
X58000Y24644D02*
D03*
Y23856D02*
D03*
X54850Y24644D02*
D03*
Y23856D02*
D03*
X63350Y14644D02*
D03*
Y13856D02*
D03*
D58*
X55700Y28650D02*
D03*
X58850D02*
D03*
X62000D02*
D03*
D59*
X54800Y25800D02*
D03*
X56600D02*
D03*
X57950D02*
D03*
X59750D02*
D03*
X61100D02*
D03*
X62900D02*
D03*
D60*
X62400Y14650D02*
D03*
Y13850D02*
D03*
D61*
X66850Y13950D02*
D03*
X66050D02*
D03*
D62*
X53500Y15750D02*
D03*
X57500D02*
D03*
X51639Y15450D02*
D03*
X45350Y10600D02*
D03*
Y14600D02*
D03*
X24950Y16150D02*
D03*
Y12150D02*
D03*
X26150Y16150D02*
D03*
Y12150D02*
D03*
X29950Y27750D02*
D03*
Y23750D02*
D03*
X25900Y10900D02*
D03*
X21900D02*
D03*
X16434Y29550D02*
D03*
X14466D02*
D03*
X51900Y24850D02*
D03*
X47900D02*
D03*
X47150Y21450D02*
D03*
Y17450D02*
D03*
X40200Y11550D02*
D03*
Y15550D02*
D03*
X43350Y10750D02*
D03*
Y14750D02*
D03*
X41650Y31700D02*
D03*
Y27700D02*
D03*
D63*
X56150Y11011D02*
D03*
X58250Y18611D02*
D03*
X50350Y20584D02*
D03*
X35700Y11800D02*
D03*
X48100Y31134D02*
D03*
D64*
X56150Y12389D02*
D03*
X50100Y11750D02*
D03*
X52100D02*
D03*
X44600Y32550D02*
D03*
X42600D02*
D03*
X58250Y19989D02*
D03*
X54500Y20600D02*
D03*
Y18600D02*
D03*
X22900Y12950D02*
D03*
X65761Y17100D02*
D03*
X49900Y26150D02*
D03*
X51900D02*
D03*
X50350Y18616D02*
D03*
X33650Y14800D02*
D03*
X35700Y10800D02*
D03*
X41900Y12400D02*
D03*
Y11400D02*
D03*
X38700Y14600D02*
D03*
X35700D02*
D03*
Y13600D02*
D03*
X48450Y10600D02*
D03*
X46450D02*
D03*
X48100Y29166D02*
D03*
X52200Y31100D02*
D03*
Y29100D02*
D03*
D65*
X50261Y15450D02*
D03*
D66*
X60400Y31950D02*
D03*
X59400D02*
D03*
X58400D02*
D03*
X57400D02*
D03*
X63750Y11450D02*
D03*
X62750D02*
D03*
X61750D02*
D03*
X60750D02*
D03*
D67*
X44600Y30700D02*
D03*
X47350Y12300D02*
D03*
D68*
X44600Y27700D02*
D03*
X47350Y15300D02*
D03*
D69*
X47900Y23350D02*
D03*
X37800Y29400D02*
D03*
X34800D02*
D03*
X35565Y25487D02*
D03*
Y23519D02*
D03*
Y21550D02*
D03*
Y19582D02*
D03*
Y17613D02*
D03*
X43635D02*
D03*
Y19582D02*
D03*
Y21550D02*
D03*
Y23519D02*
D03*
Y25487D02*
D03*
X32700Y21600D02*
D03*
X19088Y27488D02*
D03*
X23812D02*
D03*
Y32212D02*
D03*
X19088D02*
D03*
X28700Y13100D02*
D03*
Y12100D02*
D03*
X31200Y14600D02*
D03*
X29700Y13600D02*
D03*
Y12600D02*
D03*
X31200Y11600D02*
D03*
X29950Y31900D02*
D03*
Y28900D02*
D03*
D70*
X50900Y23350D02*
D03*
X29700Y21600D02*
D03*
D71*
X21900Y12950D02*
D03*
X41900Y13400D02*
D03*
X38700Y13600D02*
D03*
D72*
X66929Y11811D02*
D03*
X39370Y31496D02*
D03*
X13780Y11811D02*
D03*
D73*
X11850Y14350D02*
D03*
Y23350D02*
D03*
Y29634D02*
D03*
Y27666D02*
D03*
D74*
X67139Y17100D02*
D03*
D75*
X16450Y14237D02*
D03*
Y25063D02*
D03*
X66800Y21750D02*
D03*
X65800D02*
D03*
X66800Y22750D02*
D03*
X65800D02*
D03*
Y23750D02*
D03*
X66800D02*
D03*
X65800Y24750D02*
D03*
X66800D02*
D03*
X65800Y25750D02*
D03*
X66800D02*
D03*
D76*
X22150Y22050D02*
D03*
D77*
X26150D02*
D03*
D78*
X33650Y11800D02*
D03*
D79*
X32000Y23050D02*
D03*
Y32050D02*
D03*
M02*
