%FSLAX24Y24*%
%MOIN*%
G70*
G01*
G75*
G04 Layer_Color=65535*
%ADD10R,0.0374X0.0551*%
%ADD11R,0.0551X0.0374*%
G04:AMPARAMS|DCode=12|XSize=228.3mil|YSize=244.1mil|CornerRadius=57.1mil|HoleSize=0mil|Usage=FLASHONLY|Rotation=0.000|XOffset=0mil|YOffset=0mil|HoleType=Round|Shape=RoundedRectangle|*
%AMROUNDEDRECTD12*
21,1,0.2283,0.1299,0,0,0.0*
21,1,0.1142,0.2441,0,0,0.0*
1,1,0.1142,0.0571,-0.0650*
1,1,0.1142,-0.0571,-0.0650*
1,1,0.1142,-0.0571,0.0650*
1,1,0.1142,0.0571,0.0650*
%
%ADD12ROUNDEDRECTD12*%
G04:AMPARAMS|DCode=13|XSize=63mil|YSize=118.1mil|CornerRadius=15.7mil|HoleSize=0mil|Usage=FLASHONLY|Rotation=0.000|XOffset=0mil|YOffset=0mil|HoleType=Round|Shape=RoundedRectangle|*
%AMROUNDEDRECTD13*
21,1,0.0630,0.0866,0,0,0.0*
21,1,0.0315,0.1181,0,0,0.0*
1,1,0.0315,0.0157,-0.0433*
1,1,0.0315,-0.0157,-0.0433*
1,1,0.0315,-0.0157,0.0433*
1,1,0.0315,0.0157,0.0433*
%
%ADD13ROUNDEDRECTD13*%
G04:AMPARAMS|DCode=14|XSize=40mil|YSize=60mil|CornerRadius=10mil|HoleSize=0mil|Usage=FLASHONLY|Rotation=270.000|XOffset=0mil|YOffset=0mil|HoleType=Round|Shape=RoundedRectangle|*
%AMROUNDEDRECTD14*
21,1,0.0400,0.0400,0,0,270.0*
21,1,0.0200,0.0600,0,0,270.0*
1,1,0.0200,-0.0200,-0.0100*
1,1,0.0200,-0.0200,0.0100*
1,1,0.0200,0.0200,0.0100*
1,1,0.0200,0.0200,-0.0100*
%
%ADD14ROUNDEDRECTD14*%
G04:AMPARAMS|DCode=15|XSize=40mil|YSize=60mil|CornerRadius=10mil|HoleSize=0mil|Usage=FLASHONLY|Rotation=180.000|XOffset=0mil|YOffset=0mil|HoleType=Round|Shape=RoundedRectangle|*
%AMROUNDEDRECTD15*
21,1,0.0400,0.0400,0,0,180.0*
21,1,0.0200,0.0600,0,0,180.0*
1,1,0.0200,-0.0100,0.0200*
1,1,0.0200,0.0100,0.0200*
1,1,0.0200,0.0100,-0.0200*
1,1,0.0200,-0.0100,-0.0200*
%
%ADD15ROUNDEDRECTD15*%
%ADD16C,0.0197*%
%ADD17C,0.0394*%
%ADD18C,0.0295*%
%ADD19C,0.0138*%
%ADD20C,0.0118*%
%ADD21C,0.0630*%
%ADD22R,0.0591X0.0591*%
%ADD23C,0.0591*%
%ADD24R,0.0630X0.0630*%
%ADD25C,0.0748*%
G04:AMPARAMS|DCode=26|XSize=98.4mil|YSize=98.4mil|CornerRadius=0mil|HoleSize=0mil|Usage=FLASHONLY|Rotation=90.000|XOffset=0mil|YOffset=0mil|HoleType=Round|Shape=Octagon|*
%AMOCTAGOND26*
4,1,8,0.0246,0.0492,-0.0246,0.0492,-0.0492,0.0246,-0.0492,-0.0246,-0.0246,-0.0492,0.0246,-0.0492,0.0492,-0.0246,0.0492,0.0246,0.0246,0.0492,0.0*
%
%ADD26OCTAGOND26*%

%ADD27C,0.0984*%
%ADD28C,0.0787*%
G04:AMPARAMS|DCode=29|XSize=78.7mil|YSize=78.7mil|CornerRadius=0mil|HoleSize=0mil|Usage=FLASHONLY|Rotation=0.000|XOffset=0mil|YOffset=0mil|HoleType=Round|Shape=Octagon|*
%AMOCTAGOND29*
4,1,8,0.0394,-0.0197,0.0394,0.0197,0.0197,0.0394,-0.0197,0.0394,-0.0394,0.0197,-0.0394,-0.0197,-0.0197,-0.0394,0.0197,-0.0394,0.0394,-0.0197,0.0*
%
%ADD29OCTAGOND29*%

G04:AMPARAMS|DCode=30|XSize=59.1mil|YSize=59.1mil|CornerRadius=0mil|HoleSize=0mil|Usage=FLASHONLY|Rotation=180.000|XOffset=0mil|YOffset=0mil|HoleType=Round|Shape=Octagon|*
%AMOCTAGOND30*
4,1,8,-0.0295,0.0148,-0.0295,-0.0148,-0.0148,-0.0295,0.0148,-0.0295,0.0295,-0.0148,0.0295,0.0148,0.0148,0.0295,-0.0148,0.0295,-0.0295,0.0148,0.0*
%
%ADD30OCTAGOND30*%

%ADD31C,0.2559*%
%ADD32C,0.1181*%
%ADD33R,0.0591X0.0591*%
%ADD34C,0.0709*%
%ADD35C,0.1575*%
%ADD36R,0.1575X0.1575*%
G04:AMPARAMS|DCode=37|XSize=59.1mil|YSize=59.1mil|CornerRadius=0mil|HoleSize=0mil|Usage=FLASHONLY|Rotation=270.000|XOffset=0mil|YOffset=0mil|HoleType=Round|Shape=Octagon|*
%AMOCTAGOND37*
4,1,8,-0.0148,-0.0295,0.0148,-0.0295,0.0295,-0.0148,0.0295,0.0148,0.0148,0.0295,-0.0148,0.0295,-0.0295,0.0148,-0.0295,-0.0148,-0.0148,-0.0295,0.0*
%
%ADD37OCTAGOND37*%

%ADD38C,0.0669*%
%ADD39C,0.0500*%
%ADD40R,0.0551X0.0413*%
G04:AMPARAMS|DCode=41|XSize=80mil|YSize=130mil|CornerRadius=20mil|HoleSize=0mil|Usage=FLASHONLY|Rotation=270.000|XOffset=0mil|YOffset=0mil|HoleType=Round|Shape=RoundedRectangle|*
%AMROUNDEDRECTD41*
21,1,0.0800,0.0900,0,0,270.0*
21,1,0.0400,0.1300,0,0,270.0*
1,1,0.0400,-0.0450,-0.0200*
1,1,0.0400,-0.0450,0.0200*
1,1,0.0400,0.0450,0.0200*
1,1,0.0400,0.0450,-0.0200*
%
%ADD41ROUNDEDRECTD41*%
G04:AMPARAMS|DCode=42|XSize=39.4mil|YSize=98.4mil|CornerRadius=9.8mil|HoleSize=0mil|Usage=FLASHONLY|Rotation=180.000|XOffset=0mil|YOffset=0mil|HoleType=Round|Shape=RoundedRectangle|*
%AMROUNDEDRECTD42*
21,1,0.0394,0.0787,0,0,180.0*
21,1,0.0197,0.0984,0,0,180.0*
1,1,0.0197,-0.0098,0.0394*
1,1,0.0197,0.0098,0.0394*
1,1,0.0197,0.0098,-0.0394*
1,1,0.0197,-0.0098,-0.0394*
%
%ADD42ROUNDEDRECTD42*%
%ADD43C,0.0787*%
%ADD44C,0.1181*%
%ADD45R,0.5000X0.2700*%
%ADD46R,0.3850X0.3250*%
%ADD47C,0.0079*%
%ADD48C,0.0050*%
%ADD49C,0.0049*%
%ADD50C,0.0100*%
%ADD51C,0.0039*%
%ADD52C,0.0315*%
%ADD53C,0.0059*%
%ADD54R,0.0883X0.0118*%
%ADD55R,0.0200X0.0800*%
D47*
X31786Y10246D02*
G03*
X32054Y11454I0J634D01*
G01*
X27420Y10604D02*
G03*
X27778Y10246I358J0D01*
G01*
X31786Y10565D02*
G03*
X31919Y11165I0J315D01*
G01*
X27778Y15954D02*
G03*
X27420Y15596I0J-358D01*
G01*
X27739Y10604D02*
G03*
X27778Y10565I39J0D01*
G01*
X32054Y14746D02*
G03*
X31786Y15954I-268J574D01*
G01*
X27778Y15635D02*
G03*
X27739Y15596I0J-39D01*
G01*
X31919Y15035D02*
G03*
X31786Y15635I-133J285D01*
G01*
X28187Y11561D02*
G03*
X28546Y11202I358J0D01*
G01*
Y14998D02*
G03*
X28187Y14639I0J-358D01*
G01*
X28506Y11561D02*
G03*
X28546Y11521I39J0D01*
G01*
Y14679D02*
G03*
X28506Y14639I0J-39D01*
G01*
X57823Y11700D02*
G03*
X57823Y11700I-1673J0D01*
G01*
X52623Y15450D02*
G03*
X52623Y15450I-1673J0D01*
G01*
X52734Y11750D02*
G03*
X52734Y11750I-1634J0D01*
G01*
X59923Y19300D02*
G03*
X59923Y19300I-1673J0D01*
G01*
X56134Y19600D02*
G03*
X56134Y19600I-1634J0D01*
G01*
X68123Y17100D02*
G03*
X68123Y17100I-1673J0D01*
G01*
X14170Y30731D02*
G03*
X13777Y30337I0J-394D01*
G01*
Y28763D02*
G03*
X14170Y28369I394J0D01*
G01*
X16730D02*
G03*
X17123Y28763I0J394D01*
G01*
Y30337D02*
G03*
X16730Y30731I-394J0D01*
G01*
X28678Y22050D02*
G03*
X28678Y22050I-4528J0D01*
G01*
X52417Y19600D02*
G03*
X52417Y19600I-2067J0D01*
G01*
X35980Y10460D02*
G03*
X36154Y12060I-280J840D01*
G01*
X35209Y12037D02*
G03*
X35420Y10460I491J-737D01*
G01*
X50167Y30150D02*
G03*
X50167Y30150I-2067J0D01*
G01*
X53834Y30100D02*
G03*
X53834Y30100I-1634J0D01*
G01*
X29523Y12634D02*
X32054Y11454D01*
X27778Y10246D02*
X31786D01*
X29388Y12345D02*
X29523Y12634D01*
X29388Y12345D02*
X31919Y11165D01*
X27420Y10604D02*
Y15596D01*
X27778Y10565D02*
X31786D01*
X27778Y15954D02*
X31786D01*
X27739Y10604D02*
Y15596D01*
X29523Y13566D02*
X32054Y14746D01*
X29388Y13855D02*
X29523Y13566D01*
X27778Y15635D02*
X31786D01*
X29388Y13855D02*
X31919Y15035D01*
X28546Y11202D02*
X31839D01*
X28546Y14998D02*
X31839D01*
X28187Y11561D02*
Y12383D01*
Y13817D02*
Y14639D01*
X28546Y11521D02*
X31909D01*
X28546Y14679D02*
X31909D01*
X53972Y15750D02*
X54122D01*
X56878D02*
X57028D01*
X54122Y16242D02*
X56878D01*
Y15258D02*
Y16242D01*
X54122Y15258D02*
X56878D01*
X54122Y16242D02*
X54122Y15258D01*
X55953Y10381D02*
X56347D01*
X56150Y10184D02*
Y10578D01*
X49415Y15450D02*
X49808D01*
X49611Y15253D02*
Y15647D01*
X45350Y13840D02*
Y14155D01*
Y11045D02*
Y11360D01*
X44858D02*
Y13840D01*
X45842D01*
Y11360D02*
Y13840D01*
X44858Y11360D02*
X45842D01*
X58053Y17981D02*
X58447D01*
X58250Y17784D02*
Y18178D01*
X62250Y24533D02*
Y24967D01*
X60883Y24250D02*
X61317D01*
X59200Y24533D02*
Y24967D01*
X57783Y24250D02*
X58217D01*
X56050Y24533D02*
Y24967D01*
X54633Y24250D02*
X55067D01*
X57507Y32691D02*
Y33085D01*
X60293Y32691D02*
Y33085D01*
X57400Y32691D02*
X60400D01*
X57400Y32482D02*
Y33085D01*
Y32482D02*
X60400D01*
Y33085D01*
X56900D02*
X60900D01*
X56900Y30801D02*
Y33085D01*
Y30801D02*
X60900D01*
Y33085D01*
X24950Y12595D02*
Y12910D01*
Y15390D02*
Y15705D01*
X25442Y12910D02*
Y15390D01*
X24458Y12910D02*
X25442D01*
X24458D02*
Y15390D01*
X25442D01*
X26150Y12595D02*
Y12910D01*
Y15390D02*
Y15705D01*
X26642Y12910D02*
Y15390D01*
X25658Y12910D02*
X26642D01*
X25658D02*
Y15390D01*
X26642D01*
X29950Y24195D02*
Y24510D01*
Y26990D02*
Y27305D01*
X30442Y24510D02*
Y26990D01*
X29458Y24510D02*
X30442D01*
X29458D02*
Y26990D01*
X30442D01*
X63133Y14250D02*
X63567D01*
X22345Y10900D02*
X22660D01*
X25140D02*
X25455D01*
X22660Y10408D02*
X25140D01*
X22660D02*
Y11392D01*
X25140D01*
Y10408D02*
Y11392D01*
X66450Y14683D02*
Y15117D01*
X67769Y16903D02*
Y17297D01*
X67572Y17100D02*
X67966D01*
X19009Y13449D02*
Y25851D01*
X13891Y13449D02*
Y25851D01*
Y13449D02*
X19009D01*
X13891Y25851D02*
X19009D01*
X13777Y28763D02*
Y30337D01*
X14170Y28369D02*
X16730D01*
X17123Y28763D02*
Y30337D01*
X14170Y30731D02*
X16730D01*
X27024Y21833D02*
Y22227D01*
X26827Y22030D02*
X27221D01*
X19768Y21050D02*
X21168D01*
X19768Y23050D02*
X21168D01*
Y21050D02*
Y23050D01*
X48345Y24850D02*
X48660D01*
X51140D02*
X51455D01*
X48660Y24358D02*
X51140D01*
X48660D02*
Y25342D01*
X51140D01*
Y24358D02*
Y25342D01*
X50350Y21017D02*
Y21411D01*
X50153Y21214D02*
X50547D01*
X47150Y17895D02*
Y18210D01*
Y20690D02*
Y21005D01*
X47642Y18210D02*
Y20690D01*
X46658Y18210D02*
X47642D01*
X46658D02*
Y20690D01*
X47642D01*
X36330Y11320D02*
Y11713D01*
X36133Y11517D02*
X36527D01*
X40200Y14790D02*
Y15105D01*
Y11995D02*
Y12310D01*
X39708D02*
Y14790D01*
X40692D01*
Y12310D02*
Y14790D01*
X39708Y12310D02*
X40692D01*
X60250Y10315D02*
Y12599D01*
X64250D01*
Y10315D02*
Y12599D01*
X60250Y10315D02*
X64250D01*
X60750D02*
Y10918D01*
X63750D01*
Y10315D02*
Y10918D01*
X60750Y10709D02*
X63750D01*
X60857Y10315D02*
Y10709D01*
X63643Y10315D02*
Y10709D01*
X43350Y11222D02*
Y11372D01*
Y14128D02*
Y14278D01*
X42858Y11372D02*
Y14128D01*
X43842D01*
Y11372D02*
Y14128D01*
X42858Y11372D02*
X43842Y11372D01*
X68390Y21412D02*
Y22092D01*
X68050Y21752D02*
X68390Y21412D01*
X68050Y21752D02*
X68390Y22092D01*
X64550Y19750D02*
Y27750D01*
X68050D01*
Y19750D02*
Y27750D01*
X64550Y19750D02*
X68050D01*
X67550Y20250D02*
Y27250D01*
X65050Y20250D02*
X67550D01*
X65050D02*
Y27250D01*
X67550D01*
Y22940D02*
X68050D01*
X67550Y24560D02*
X68050D01*
X28200Y11100D02*
Y15100D01*
X27700Y11100D02*
Y15100D01*
X29450D01*
Y11100D02*
Y15100D01*
X27700Y11100D02*
X29450D01*
X30976Y30837D02*
X33024D01*
X30976Y24263D02*
Y30837D01*
Y24263D02*
X33024D01*
Y30837D01*
X32000D02*
Y31550D01*
Y23550D02*
Y24263D01*
X41650Y28145D02*
Y28460D01*
Y30940D02*
Y31255D01*
X42142Y28460D02*
Y30940D01*
X41158Y28460D02*
X42142D01*
X41158D02*
Y30940D01*
X42142D01*
X48100Y31567D02*
Y31961D01*
X47903Y31764D02*
X48297D01*
X66640Y20884D02*
X66618Y20929D01*
X66550Y20996D01*
X67022D01*
X65616Y26346D02*
X65594Y26391D01*
X65526Y26459D01*
X65999D01*
X65526Y26828D02*
X65549Y26760D01*
X65616Y26715D01*
X65729Y26693D01*
X65796D01*
X65909Y26715D01*
X65976Y26760D01*
X65999Y26828D01*
Y26873D01*
X65976Y26940D01*
X65909Y26985D01*
X65796Y27008D01*
X65729D01*
X65616Y26985D01*
X65549Y26940D01*
X65526Y26873D01*
Y26828D01*
D48*
X44177Y32050D02*
G03*
X44177Y33050I0J500D01*
G01*
X43023D02*
G03*
X43023Y32050I0J-500D01*
G01*
X23384Y12950D02*
G03*
X23384Y12950I-984J0D01*
G01*
X35300Y30050D02*
G03*
X35300Y28750I0J-650D01*
G01*
X37300D02*
G03*
X37300Y30050I0J650D01*
G01*
X50323Y26650D02*
G03*
X50323Y25650I0J-500D01*
G01*
X51477D02*
G03*
X51477Y26650I0J500D01*
G01*
X42400Y13240D02*
G03*
X42400Y11550I-505J-845D01*
G01*
X48027Y10100D02*
G03*
X48027Y11100I0J500D01*
G01*
X46873D02*
G03*
X46873Y10100I0J-500D01*
G01*
X29300Y29400D02*
G03*
X30600Y29400I650J0D01*
G01*
Y31400D02*
G03*
X29300Y31400I-650J0D01*
G01*
X43023Y32050D02*
X44177D01*
X43023Y33050D02*
X44177D01*
X61950Y15000D02*
X62850D01*
X61950Y13500D02*
X62850D01*
Y15000D01*
X61950Y13500D02*
Y15000D01*
X21900Y13200D02*
Y13700D01*
X21650Y13450D02*
X22150D01*
X35300Y28750D02*
X37300D01*
X35300Y30050D02*
X37300D01*
X10137Y26681D02*
X13287D01*
X10137D02*
Y30619D01*
X13287Y26681D02*
Y30619D01*
X10137D02*
X13287D01*
X13031Y27272D02*
X13287D01*
X13031D02*
Y28059D01*
X13287D01*
X13031Y29241D02*
X13287D01*
X13031D02*
Y30028D01*
X13287D01*
X50323Y26650D02*
X51477D01*
X50323Y25650D02*
X51477D01*
X42400Y13240D02*
X42400Y11550D01*
X46873Y10100D02*
X48027D01*
X46873Y11100D02*
X48027D01*
X30600Y29400D02*
Y31400D01*
X29300Y29400D02*
Y31400D01*
D49*
X45486Y29200D02*
G03*
X45486Y29200I-886J0D01*
G01*
X48236Y13800D02*
G03*
X48236Y13800I-886J0D01*
G01*
X54400Y26650D02*
X57000D01*
X54400D02*
Y28900D01*
X57000D01*
Y26650D02*
Y28900D01*
X54700D02*
Y29150D01*
X54950Y29400D01*
X56450D01*
X56700Y29150D01*
Y28900D02*
Y29150D01*
X54650Y25650D02*
Y26650D01*
Y25650D02*
X54950D01*
Y26650D01*
X56750Y25650D02*
Y26650D01*
X56450Y25650D02*
X56750D01*
X56450D02*
Y26650D01*
X55550Y26350D02*
Y26650D01*
Y26350D02*
X55850D01*
Y26650D01*
X57550D02*
X60150D01*
X57550D02*
Y28900D01*
X60150D01*
Y26650D02*
Y28900D01*
X57850D02*
Y29150D01*
X58100Y29400D01*
X59600D01*
X59850Y29150D01*
Y28900D02*
Y29150D01*
X57800Y25650D02*
Y26650D01*
Y25650D02*
X58100D01*
Y26650D01*
X59900Y25650D02*
Y26650D01*
X59600Y25650D02*
X59900D01*
X59600D02*
Y26650D01*
X58700Y26350D02*
Y26650D01*
Y26350D02*
X59000D01*
Y26650D01*
X60700D02*
X63300D01*
X60700D02*
Y28900D01*
X63300D01*
Y26650D02*
Y28900D01*
X61000D02*
Y29150D01*
X61250Y29400D01*
X62750D01*
X63000Y29150D01*
Y28900D02*
Y29150D01*
X60950Y25650D02*
Y26650D01*
Y25650D02*
X61250D01*
Y26650D01*
X63050Y25650D02*
Y26650D01*
X62750Y25650D02*
X63050D01*
X62750D02*
Y26650D01*
X61850Y26350D02*
Y26650D01*
Y26350D02*
X62150D01*
Y26650D01*
X44600Y30086D02*
Y30400D01*
Y28000D02*
Y28314D01*
X43950Y29800D02*
X45250D01*
X48400Y22850D02*
Y23850D01*
Y22850D02*
X50400D01*
Y23850D01*
X50000Y22850D02*
Y23850D01*
X48250Y23350D02*
X48400D01*
X50400D02*
X50550D01*
X48400Y23850D02*
X50400D01*
X67139Y13556D02*
Y14344D01*
X65761Y13556D02*
Y14344D01*
Y13556D02*
X67139D01*
X65761Y14344D02*
X67139D01*
X47350Y12600D02*
Y12914D01*
Y14686D02*
Y15000D01*
X46700Y13200D02*
X48000D01*
X32200Y21100D02*
Y22100D01*
X30200D02*
X32200D01*
X30200Y21100D02*
Y22100D01*
X30600Y21100D02*
Y22100D01*
X32200Y21600D02*
X32350D01*
X30050D02*
X30200D01*
Y21100D02*
X32200D01*
X33990Y12550D02*
Y14050D01*
X33650Y12200D02*
Y12550D01*
Y14050D02*
Y14400D01*
X33310Y12800D02*
X33990D01*
X33310Y12550D02*
X33990D01*
X33310D02*
Y14050D01*
X33990D01*
D50*
X20663Y29456D02*
G03*
X19875Y29456I-394J0D01*
G01*
X21450D02*
G03*
X20663Y29456I-394J0D01*
G01*
X22237D02*
G03*
X21450Y29456I-394J0D01*
G01*
X23025D02*
G03*
X22237Y29456I-394J0D01*
G01*
Y30834D02*
G03*
X23025Y30834I394J0D01*
G01*
X21450D02*
G03*
X22237Y30834I394J0D01*
G01*
X20663D02*
G03*
X21450Y30834I394J0D01*
G01*
X19875D02*
G03*
X20663Y30834I394J0D01*
G01*
X22200Y10300D02*
X22600Y10700D01*
X16550Y10300D02*
X22200D01*
X19678Y30244D02*
X23222D01*
X66600Y28550D02*
X66500Y28450D01*
Y28250D01*
X66600Y28150D01*
X67000D01*
X67100Y28250D01*
Y28450D01*
X67000Y28550D01*
X67100Y28750D02*
X66500D01*
Y29050D01*
X66600Y29150D01*
X66800D01*
X66900Y29050D01*
Y28750D01*
X66500Y29350D02*
X67000D01*
X67100Y29450D01*
Y29650D01*
X67000Y29749D01*
X66500D01*
Y30549D02*
X67100D01*
Y30849D01*
X67000Y30949D01*
X66900D01*
X66800D01*
X66700Y30849D01*
Y30549D01*
Y31149D02*
X67100D01*
X66900D01*
X66800Y31249D01*
X66700Y31349D01*
Y31449D01*
X66500Y32149D02*
X67100D01*
Y31849D01*
X67000Y31749D01*
X66800D01*
X66700Y31849D01*
Y32149D01*
X28350Y16900D02*
Y16300D01*
Y16600D01*
X28750D01*
Y16900D01*
Y16300D01*
X29350Y16800D02*
X29250Y16900D01*
X29050D01*
X28950Y16800D01*
Y16700D01*
X29050Y16600D01*
X29250D01*
X29350Y16500D01*
Y16400D01*
X29250Y16300D01*
X29050D01*
X28950Y16400D01*
X29550Y16300D02*
X29750D01*
X29650D01*
Y16900D01*
X29550Y16800D01*
X63600Y17900D02*
X63500Y17800D01*
Y17600D01*
X63600Y17500D01*
X63700D01*
X63800Y17600D01*
Y17800D01*
X63900Y17900D01*
X64000D01*
X64100Y17800D01*
Y17600D01*
X64000Y17500D01*
X64300Y18100D02*
X63700D01*
Y18400D01*
X63800Y18500D01*
X64000D01*
X64100Y18400D01*
Y18100D01*
Y18700D02*
Y18900D01*
Y18800D01*
X63700D01*
Y18700D01*
Y19199D02*
X64100D01*
X63900D01*
X63800Y19299D01*
X63700Y19399D01*
Y19499D01*
X63600Y19899D02*
X63700D01*
Y19799D01*
Y19999D01*
Y19899D01*
X64000D01*
X64100Y19999D01*
X63700Y21299D02*
Y20999D01*
X63800Y20899D01*
X64000D01*
X64100Y20999D01*
Y21299D01*
Y21599D02*
Y21799D01*
X64000Y21899D01*
X63800D01*
X63700Y21799D01*
Y21599D01*
X63800Y21499D01*
X64000D01*
X64100Y21599D01*
Y22099D02*
X63700D01*
Y22398D01*
X63800Y22498D01*
X64100D01*
X63600Y22798D02*
X63700D01*
Y22698D01*
Y22898D01*
Y22798D01*
X64000D01*
X64100Y22898D01*
X63700Y23198D02*
X64100D01*
X63900D01*
X63800Y23298D01*
X63700Y23398D01*
Y23498D01*
X64100Y23898D02*
Y24098D01*
X64000Y24198D01*
X63800D01*
X63700Y24098D01*
Y23898D01*
X63800Y23798D01*
X64000D01*
X64100Y23898D01*
Y24398D02*
Y24598D01*
Y24498D01*
X63500D01*
Y24398D01*
X64100Y24898D02*
Y25098D01*
Y24998D01*
X63500D01*
Y24898D01*
X64100Y25697D02*
Y25497D01*
X64000Y25397D01*
X63800D01*
X63700Y25497D01*
Y25697D01*
X63800Y25797D01*
X63900D01*
Y25397D01*
X63700Y25997D02*
X64100D01*
X63900D01*
X63800Y26097D01*
X63700Y26197D01*
Y26297D01*
Y27197D02*
X64100Y27397D01*
X63700Y27597D01*
X64100Y28796D02*
Y28396D01*
X63700Y28796D01*
X63600D01*
X63500Y28696D01*
Y28496D01*
X63600Y28396D01*
X64100Y28996D02*
X64000D01*
Y29096D01*
X64100D01*
Y28996D01*
X63600Y29496D02*
X63500Y29596D01*
Y29796D01*
X63600Y29896D01*
X64000D01*
X64100Y29796D01*
Y29596D01*
X64000Y29496D01*
X63600D01*
X40985Y14635D02*
Y14135D01*
X41085Y14035D01*
X41285D01*
X41385Y14135D01*
Y14635D01*
X41985Y14035D02*
X41585D01*
X41985Y14435D01*
Y14535D01*
X41885Y14635D01*
X41685D01*
X41585Y14535D01*
X31050Y13350D02*
Y12850D01*
X31150Y12750D01*
X31350D01*
X31450Y12850D01*
Y13350D01*
X31650Y12750D02*
X31850D01*
X31750D01*
Y13350D01*
X31650Y13250D01*
X33380Y27690D02*
X33780D01*
X33580D01*
Y27090D01*
X33980Y27490D02*
Y27090D01*
Y27290D01*
X34080Y27390D01*
X34180Y27490D01*
X34280D01*
X34580Y27090D02*
X34780D01*
X34680D01*
Y27690D01*
X34580Y27590D01*
X61500Y30600D02*
X61900D01*
X61700D01*
Y30000D01*
X62100Y30500D02*
X62200Y30600D01*
X62400D01*
X62500Y30500D01*
Y30400D01*
X62400Y30300D01*
X62300D01*
X62400D01*
X62500Y30200D01*
Y30100D01*
X62400Y30000D01*
X62200D01*
X62100Y30100D01*
X58250Y30600D02*
X58650D01*
X58450D01*
Y30000D01*
X59250D02*
X58850D01*
X59250Y30400D01*
Y30500D01*
X59150Y30600D01*
X58950D01*
X58850Y30500D01*
X55250Y30650D02*
X55650D01*
X55450D01*
Y30050D01*
X55850D02*
X56050D01*
X55950D01*
Y30650D01*
X55850Y30550D01*
X13835Y31075D02*
Y31675D01*
X14135D01*
X14235Y31575D01*
Y31375D01*
X14135Y31275D01*
X13835D01*
X14035D02*
X14235Y31075D01*
X14435Y31675D02*
X14835D01*
X14635D01*
Y31075D01*
X15035D02*
X15235D01*
X15135D01*
Y31675D01*
X15035Y31575D01*
X62550Y22600D02*
X61950D01*
Y22900D01*
X62050Y23000D01*
X62250D01*
X62350Y22900D01*
Y22600D01*
Y22800D02*
X62550Y23000D01*
Y23600D02*
Y23200D01*
X62150Y23600D01*
X62050D01*
X61950Y23500D01*
Y23300D01*
X62050Y23200D01*
Y23800D02*
X61950Y23900D01*
Y24100D01*
X62050Y24199D01*
X62450D01*
X62550Y24100D01*
Y23900D01*
X62450Y23800D01*
X62050D01*
X59500Y22650D02*
X58900D01*
Y22950D01*
X59000Y23050D01*
X59200D01*
X59300Y22950D01*
Y22650D01*
Y22850D02*
X59500Y23050D01*
Y23250D02*
Y23450D01*
Y23350D01*
X58900D01*
X59000Y23250D01*
X59400Y23750D02*
X59500Y23850D01*
Y24050D01*
X59400Y24150D01*
X59000D01*
X58900Y24050D01*
Y23850D01*
X59000Y23750D01*
X59100D01*
X59200Y23850D01*
Y24150D01*
X56350Y22600D02*
X55750D01*
Y22900D01*
X55850Y23000D01*
X56050D01*
X56150Y22900D01*
Y22600D01*
Y22800D02*
X56350Y23000D01*
Y23200D02*
Y23400D01*
Y23300D01*
X55750D01*
X55850Y23200D01*
Y23700D02*
X55750Y23800D01*
Y24000D01*
X55850Y24100D01*
X55950D01*
X56050Y24000D01*
X56150Y24100D01*
X56250D01*
X56350Y24000D01*
Y23800D01*
X56250Y23700D01*
X56150D01*
X56050Y23800D01*
X55950Y23700D01*
X55850D01*
X56050Y23800D02*
Y24000D01*
X60550Y23500D02*
X59950D01*
Y23800D01*
X60050Y23900D01*
X60250D01*
X60350Y23800D01*
Y23500D01*
Y23700D02*
X60550Y23900D01*
Y24100D02*
Y24300D01*
Y24200D01*
X59950D01*
X60050Y24100D01*
X59950Y24600D02*
Y25000D01*
X60050D01*
X60450Y24600D01*
X60550D01*
X57500Y23300D02*
X56900D01*
Y23600D01*
X57000Y23700D01*
X57200D01*
X57300Y23600D01*
Y23300D01*
Y23500D02*
X57500Y23700D01*
Y23900D02*
Y24100D01*
Y24000D01*
X56900D01*
X57000Y23900D01*
X56900Y24800D02*
X57000Y24600D01*
X57200Y24400D01*
X57400D01*
X57500Y24500D01*
Y24700D01*
X57400Y24800D01*
X57300D01*
X57200Y24700D01*
Y24400D01*
X54250Y23450D02*
X53650D01*
Y23750D01*
X53750Y23850D01*
X53950D01*
X54050Y23750D01*
Y23450D01*
Y23650D02*
X54250Y23850D01*
Y24050D02*
Y24250D01*
Y24150D01*
X53650D01*
X53750Y24050D01*
X53650Y24950D02*
Y24550D01*
X53950D01*
X53850Y24750D01*
Y24850D01*
X53950Y24950D01*
X54150D01*
X54250Y24850D01*
Y24650D01*
X54150Y24550D01*
X63650Y15150D02*
X63050D01*
Y15450D01*
X63150Y15550D01*
X63350D01*
X63450Y15450D01*
Y15150D01*
Y15350D02*
X63650Y15550D01*
Y15750D02*
Y15950D01*
Y15850D01*
X63050D01*
X63150Y15750D01*
X63650Y16550D02*
X63050D01*
X63350Y16250D01*
Y16650D01*
X64050Y14600D02*
Y15200D01*
X64350D01*
X64450Y15100D01*
Y14900D01*
X64350Y14800D01*
X64050D01*
X64250D02*
X64450Y14600D01*
X64650D02*
X64850D01*
X64750D01*
Y15200D01*
X64650Y15100D01*
X65150D02*
X65250Y15200D01*
X65450D01*
X65550Y15100D01*
Y15000D01*
X65450Y14900D01*
X65350D01*
X65450D01*
X65550Y14800D01*
Y14700D01*
X65450Y14600D01*
X65250D01*
X65150Y14700D01*
X16550Y10450D02*
Y11050D01*
X16850D01*
X16950Y10950D01*
Y10750D01*
X16850Y10650D01*
X16550D01*
X16750D02*
X16950Y10450D01*
X17150D02*
X17350D01*
X17250D01*
Y11050D01*
X17150Y10950D01*
X18050Y10450D02*
X17650D01*
X18050Y10850D01*
Y10950D01*
X17950Y11050D01*
X17750D01*
X17650Y10950D01*
X42920Y15400D02*
Y16000D01*
X43220D01*
X43320Y15900D01*
Y15700D01*
X43220Y15600D01*
X42920D01*
X43120D02*
X43320Y15400D01*
X43520D02*
X43720D01*
X43620D01*
Y16000D01*
X43520Y15900D01*
X44020Y15400D02*
X44220D01*
X44120D01*
Y16000D01*
X44020Y15900D01*
X54650Y16600D02*
Y17200D01*
X54950D01*
X55050Y17100D01*
Y16900D01*
X54950Y16800D01*
X54650D01*
X54850D02*
X55050Y16600D01*
X55250D02*
X55450D01*
X55350D01*
Y17200D01*
X55250Y17100D01*
X55750D02*
X55850Y17200D01*
X56050D01*
X56150Y17100D01*
Y16700D01*
X56050Y16600D01*
X55850D01*
X55750Y16700D01*
Y17100D01*
X39770Y16200D02*
Y16800D01*
X40070D01*
X40170Y16700D01*
Y16500D01*
X40070Y16400D01*
X39770D01*
X39970D02*
X40170Y16200D01*
X40370Y16300D02*
X40470Y16200D01*
X40670D01*
X40770Y16300D01*
Y16700D01*
X40670Y16800D01*
X40470D01*
X40370Y16700D01*
Y16600D01*
X40470Y16500D01*
X40770D01*
X27200Y16450D02*
X26600D01*
Y16750D01*
X26700Y16850D01*
X26900D01*
X27000Y16750D01*
Y16450D01*
Y16650D02*
X27200Y16850D01*
X26700Y17050D02*
X26600Y17150D01*
Y17350D01*
X26700Y17450D01*
X26800D01*
X26900Y17350D01*
X27000Y17450D01*
X27100D01*
X27200Y17350D01*
Y17150D01*
X27100Y17050D01*
X27000D01*
X26900Y17150D01*
X26800Y17050D01*
X26700D01*
X26900Y17150D02*
Y17350D01*
X46720Y22100D02*
Y22700D01*
X47020D01*
X47120Y22600D01*
Y22400D01*
X47020Y22300D01*
X46720D01*
X46920D02*
X47120Y22100D01*
X47320Y22700D02*
X47720D01*
Y22600D01*
X47320Y22200D01*
Y22100D01*
X24300Y15900D02*
X23700D01*
Y16200D01*
X23800Y16300D01*
X24000D01*
X24100Y16200D01*
Y15900D01*
Y16100D02*
X24300Y16300D01*
X23700Y16900D02*
X23800Y16700D01*
X24000Y16500D01*
X24200D01*
X24300Y16600D01*
Y16800D01*
X24200Y16900D01*
X24100D01*
X24000Y16800D01*
Y16500D01*
X47650Y25680D02*
Y26280D01*
X47950D01*
X48050Y26180D01*
Y25980D01*
X47950Y25880D01*
X47650D01*
X47850D02*
X48050Y25680D01*
X48650Y26280D02*
X48250D01*
Y25980D01*
X48450Y26080D01*
X48550D01*
X48650Y25980D01*
Y25780D01*
X48550Y25680D01*
X48350D01*
X48250Y25780D01*
X27900Y25800D02*
Y26400D01*
X28200D01*
X28300Y26300D01*
Y26100D01*
X28200Y26000D01*
X27900D01*
X28100D02*
X28300Y25800D01*
X28800D02*
Y26400D01*
X28500Y26100D01*
X28900D01*
X45150Y15250D02*
Y15850D01*
X45450D01*
X45550Y15750D01*
Y15550D01*
X45450Y15450D01*
X45150D01*
X45350D02*
X45550Y15250D01*
X45750Y15750D02*
X45850Y15850D01*
X46050D01*
X46150Y15750D01*
Y15650D01*
X46050Y15550D01*
X45950D01*
X46050D01*
X46150Y15450D01*
Y15350D01*
X46050Y15250D01*
X45850D01*
X45750Y15350D01*
X33500Y31550D02*
Y32150D01*
X33800D01*
X33900Y32050D01*
Y31850D01*
X33800Y31750D01*
X33500D01*
X33700D02*
X33900Y31550D01*
X34500D02*
X34100D01*
X34500Y31950D01*
Y32050D01*
X34400Y32150D01*
X34200D01*
X34100Y32050D01*
X40050Y29200D02*
Y29800D01*
X40350D01*
X40450Y29700D01*
Y29500D01*
X40350Y29400D01*
X40050D01*
X40250D02*
X40450Y29200D01*
X40650D02*
X40850D01*
X40750D01*
Y29800D01*
X40650Y29700D01*
X62050Y15250D02*
X62650D01*
Y15650D01*
X62050Y15850D02*
X62650D01*
Y16150D01*
X62550Y16250D01*
X62150D01*
X62050Y16150D01*
Y15850D01*
X62650Y16849D02*
Y16450D01*
X62250Y16849D01*
X62150D01*
X62050Y16750D01*
Y16550D01*
X62150Y16450D01*
X64050Y14250D02*
Y13650D01*
X64450D01*
X64650Y14250D02*
Y13650D01*
X64950D01*
X65050Y13750D01*
Y14150D01*
X64950Y14250D01*
X64650D01*
X65250Y13650D02*
X65450D01*
X65350D01*
Y14250D01*
X65250Y14150D01*
X53350Y22300D02*
Y21700D01*
X53750D01*
X54250D02*
Y22300D01*
X53950Y22000D01*
X54350D01*
X17450Y31000D02*
Y30400D01*
X17850D01*
X18050Y30900D02*
X18150Y31000D01*
X18350D01*
X18450Y30900D01*
Y30800D01*
X18350Y30700D01*
X18250D01*
X18350D01*
X18450Y30600D01*
Y30500D01*
X18350Y30400D01*
X18150D01*
X18050Y30500D01*
X53200Y12450D02*
Y11850D01*
X53600D01*
X54200D02*
X53800D01*
X54200Y12250D01*
Y12350D01*
X54100Y12450D01*
X53900D01*
X53800Y12350D01*
X50450Y32800D02*
Y32200D01*
X50850D01*
X51050D02*
X51250D01*
X51150D01*
Y32800D01*
X51050Y32700D01*
X10210Y31540D02*
Y30940D01*
Y31140D01*
X10610Y31540D01*
X10310Y31240D01*
X10610Y30940D01*
X10810D02*
X11010D01*
X10910D01*
Y31540D01*
X10810Y31440D01*
X65015Y28685D02*
X64815D01*
X64915D01*
Y28185D01*
X64815Y28085D01*
X64715D01*
X64615Y28185D01*
X65615Y28085D02*
X65215D01*
X65615Y28485D01*
Y28585D01*
X65515Y28685D01*
X65315D01*
X65215Y28585D01*
X60710Y13540D02*
X60510D01*
X60610D01*
Y13040D01*
X60510Y12940D01*
X60410D01*
X60310Y13040D01*
X60910Y12940D02*
X61110D01*
X61010D01*
Y13540D01*
X60910Y13440D01*
X10555Y24985D02*
X10155D01*
Y24685D01*
X10355D01*
X10155D01*
Y24385D01*
X10755Y24985D02*
Y24485D01*
X10855Y24385D01*
X11055D01*
X11155Y24485D01*
Y24985D01*
X11355Y24385D02*
X11555D01*
X11455D01*
Y24985D01*
X11355Y24885D01*
X36150Y15850D02*
Y15250D01*
X36450D01*
X36550Y15350D01*
Y15750D01*
X36450Y15850D01*
X36150D01*
X36750Y15250D02*
Y15650D01*
X36950Y15850D01*
X37150Y15650D01*
Y15250D01*
Y15550D01*
X36750D01*
X37350Y15250D02*
X37550D01*
X37450D01*
Y15850D01*
X37350Y15750D01*
X33390Y16040D02*
Y15440D01*
X33690D01*
X33790Y15540D01*
Y15940D01*
X33690Y16040D01*
X33390D01*
X34390D02*
X33990D01*
Y15740D01*
X34190Y15840D01*
X34290D01*
X34390Y15740D01*
Y15540D01*
X34290Y15440D01*
X34090D01*
X33990Y15540D01*
X51600Y23700D02*
Y23100D01*
X51900D01*
X52000Y23200D01*
Y23600D01*
X51900Y23700D01*
X51600D01*
X52500Y23100D02*
Y23700D01*
X52200Y23400D01*
X52600D01*
X29370Y23040D02*
Y22440D01*
X29670D01*
X29770Y22540D01*
Y22940D01*
X29670Y23040D01*
X29370D01*
X29970Y22940D02*
X30070Y23040D01*
X30270D01*
X30370Y22940D01*
Y22840D01*
X30270Y22740D01*
X30170D01*
X30270D01*
X30370Y22640D01*
Y22540D01*
X30270Y22440D01*
X30070D01*
X29970Y22540D01*
X46540Y16730D02*
Y16130D01*
X46840D01*
X46940Y16230D01*
Y16630D01*
X46840Y16730D01*
X46540D01*
X47540Y16130D02*
X47140D01*
X47540Y16530D01*
Y16630D01*
X47440Y16730D01*
X47240D01*
X47140Y16630D01*
X42750Y29400D02*
Y28800D01*
X43050D01*
X43150Y28900D01*
Y29300D01*
X43050Y29400D01*
X42750D01*
X43350Y28800D02*
X43550D01*
X43450D01*
Y29400D01*
X43350Y29300D01*
X22250Y14650D02*
X22150Y14550D01*
Y14350D01*
X22250Y14250D01*
X22650D01*
X22750Y14350D01*
Y14550D01*
X22650Y14650D01*
X22750Y14850D02*
Y15050D01*
Y14950D01*
X22150D01*
X22250Y14850D01*
X22150Y15350D02*
Y15750D01*
X22250D01*
X22650Y15350D01*
X22750D01*
X35270Y13010D02*
X35170Y13110D01*
X34970D01*
X34870Y13010D01*
Y12610D01*
X34970Y12510D01*
X35170D01*
X35270Y12610D01*
X35470Y12510D02*
X35670D01*
X35570D01*
Y13110D01*
X35470Y13010D01*
X36270Y12510D02*
Y13110D01*
X35970Y12810D01*
X36370D01*
X57700Y21800D02*
X57600Y21900D01*
X57400D01*
X57300Y21800D01*
Y21400D01*
X57400Y21300D01*
X57600D01*
X57700Y21400D01*
X57900Y21300D02*
X58100D01*
X58000D01*
Y21900D01*
X57900Y21800D01*
X58400D02*
X58500Y21900D01*
X58700D01*
X58800Y21800D01*
Y21700D01*
X58700Y21600D01*
X58600D01*
X58700D01*
X58800Y21500D01*
Y21400D01*
X58700Y21300D01*
X58500D01*
X58400Y21400D01*
X48740Y22510D02*
X48640Y22610D01*
X48440D01*
X48340Y22510D01*
Y22110D01*
X48440Y22010D01*
X48640D01*
X48740Y22110D01*
X48940Y22010D02*
X49140D01*
X49040D01*
Y22610D01*
X48940Y22510D01*
X49840Y22010D02*
X49440D01*
X49840Y22410D01*
Y22510D01*
X49740Y22610D01*
X49540D01*
X49440Y22510D01*
X50060Y27480D02*
X49960Y27580D01*
X49760D01*
X49660Y27480D01*
Y27080D01*
X49760Y26980D01*
X49960D01*
X50060Y27080D01*
X50260Y26980D02*
X50460D01*
X50360D01*
Y27580D01*
X50260Y27480D01*
X50760Y26980D02*
X50960D01*
X50860D01*
Y27580D01*
X50760Y27480D01*
X55750Y14200D02*
X55650Y14300D01*
X55450D01*
X55350Y14200D01*
Y13800D01*
X55450Y13700D01*
X55650D01*
X55750Y13800D01*
X55950Y13700D02*
X56150D01*
X56050D01*
Y14300D01*
X55950Y14200D01*
X56450D02*
X56550Y14300D01*
X56750D01*
X56850Y14200D01*
Y13800D01*
X56750Y13700D01*
X56550D01*
X56450Y13800D01*
Y14200D01*
X53400Y14750D02*
X53300Y14850D01*
X53100D01*
X53000Y14750D01*
Y14350D01*
X53100Y14250D01*
X53300D01*
X53400Y14350D01*
X53600D02*
X53700Y14250D01*
X53900D01*
X54000Y14350D01*
Y14750D01*
X53900Y14850D01*
X53700D01*
X53600Y14750D01*
Y14650D01*
X53700Y14550D01*
X54000D01*
X20070Y27430D02*
X19970Y27530D01*
X19770D01*
X19670Y27430D01*
Y27030D01*
X19770Y26930D01*
X19970D01*
X20070Y27030D01*
X20270Y27430D02*
X20370Y27530D01*
X20570D01*
X20670Y27430D01*
Y27330D01*
X20570Y27230D01*
X20670Y27130D01*
Y27030D01*
X20570Y26930D01*
X20370D01*
X20270Y27030D01*
Y27130D01*
X20370Y27230D01*
X20270Y27330D01*
Y27430D01*
X20370Y27230D02*
X20570D01*
X48450Y11900D02*
X48350Y12000D01*
X48150D01*
X48050Y11900D01*
Y11500D01*
X48150Y11400D01*
X48350D01*
X48450Y11500D01*
X48650Y12000D02*
X49050D01*
Y11900D01*
X48650Y11500D01*
Y11400D01*
X14350Y26690D02*
X14250Y26790D01*
X14050D01*
X13950Y26690D01*
Y26290D01*
X14050Y26190D01*
X14250D01*
X14350Y26290D01*
X14950Y26790D02*
X14750Y26690D01*
X14550Y26490D01*
Y26290D01*
X14650Y26190D01*
X14850D01*
X14950Y26290D01*
Y26390D01*
X14850Y26490D01*
X14550D01*
X28050Y30750D02*
X27950Y30850D01*
X27750D01*
X27650Y30750D01*
Y30350D01*
X27750Y30250D01*
X27950D01*
X28050Y30350D01*
X28650Y30850D02*
X28250D01*
Y30550D01*
X28450Y30650D01*
X28550D01*
X28650Y30550D01*
Y30350D01*
X28550Y30250D01*
X28350D01*
X28250Y30350D01*
X65240Y19610D02*
X65140Y19710D01*
X64940D01*
X64840Y19610D01*
Y19210D01*
X64940Y19110D01*
X65140D01*
X65240Y19210D01*
X65740Y19110D02*
Y19710D01*
X65440Y19410D01*
X65840D01*
X46100Y32600D02*
X46000Y32700D01*
X45800D01*
X45700Y32600D01*
Y32200D01*
X45800Y32100D01*
X46000D01*
X46100Y32200D01*
X46300Y32600D02*
X46400Y32700D01*
X46600D01*
X46700Y32600D01*
Y32500D01*
X46600Y32400D01*
X46500D01*
X46600D01*
X46700Y32300D01*
Y32200D01*
X46600Y32100D01*
X46400D01*
X46300Y32200D01*
X43350Y31750D02*
X43250Y31850D01*
X43050D01*
X42950Y31750D01*
Y31350D01*
X43050Y31250D01*
X43250D01*
X43350Y31350D01*
X43950Y31250D02*
X43550D01*
X43950Y31650D01*
Y31750D01*
X43850Y31850D01*
X43650D01*
X43550Y31750D01*
X34840Y30990D02*
X34740Y31090D01*
X34540D01*
X34440Y30990D01*
Y30590D01*
X34540Y30490D01*
X34740D01*
X34840Y30590D01*
X35040Y30490D02*
X35240D01*
X35140D01*
Y31090D01*
X35040Y30990D01*
X64500Y11400D02*
Y10800D01*
X64800D01*
X64900Y10900D01*
Y11000D01*
X64800Y11100D01*
X64500D01*
X64800D01*
X64900Y11200D01*
Y11300D01*
X64800Y11400D01*
X64500D01*
X65100Y10800D02*
X65300D01*
X65200D01*
Y11400D01*
X65100Y11300D01*
X36950Y32950D02*
Y32350D01*
X37250D01*
X37350Y32450D01*
Y32550D01*
X37250Y32650D01*
X36950D01*
X37250D01*
X37350Y32750D01*
Y32850D01*
X37250Y32950D01*
X36950D01*
X37950Y32350D02*
X37550D01*
X37950Y32750D01*
Y32850D01*
X37850Y32950D01*
X37650D01*
X37550Y32850D01*
X10700Y12700D02*
Y12100D01*
X11000D01*
X11100Y12200D01*
Y12300D01*
X11000Y12400D01*
X10700D01*
X11000D01*
X11100Y12500D01*
Y12600D01*
X11000Y12700D01*
X10700D01*
X11300Y12600D02*
X11400Y12700D01*
X11600D01*
X11700Y12600D01*
Y12500D01*
X11600Y12400D01*
X11500D01*
X11600D01*
X11700Y12300D01*
Y12200D01*
X11600Y12100D01*
X11400D01*
X11300Y12200D01*
X55850Y32350D02*
X55650D01*
X55750D01*
Y31850D01*
X55650Y31750D01*
X55550D01*
X55450Y31850D01*
X56050Y32250D02*
X56150Y32350D01*
X56350D01*
X56450Y32250D01*
Y32150D01*
X56350Y32050D01*
X56250D01*
X56350D01*
X56450Y31950D01*
Y31850D01*
X56350Y31750D01*
X56150D01*
X56050Y31850D01*
X60150Y14550D02*
X60050Y14450D01*
Y14250D01*
X60150Y14150D01*
X60550D01*
X60650Y14250D01*
Y14450D01*
X60550Y14550D01*
X60650Y14850D02*
Y15050D01*
X60550Y15150D01*
X60350D01*
X60250Y15050D01*
Y14850D01*
X60350Y14750D01*
X60550D01*
X60650Y14850D01*
Y15350D02*
X60250D01*
Y15650D01*
X60350Y15749D01*
X60650D01*
X60150Y16049D02*
X60250D01*
Y15949D01*
Y16149D01*
Y16049D01*
X60550D01*
X60650Y16149D01*
X60250Y16449D02*
X60650D01*
X60450D01*
X60350Y16549D01*
X60250Y16649D01*
Y16749D01*
X60650Y17149D02*
Y17349D01*
X60550Y17449D01*
X60350D01*
X60250Y17349D01*
Y17149D01*
X60350Y17049D01*
X60550D01*
X60650Y17149D01*
Y17649D02*
Y17849D01*
Y17749D01*
X60050D01*
Y17649D01*
X60650Y18749D02*
X60250D01*
Y18848D01*
X60350Y18948D01*
X60650D01*
X60350D01*
X60250Y19048D01*
X60350Y19148D01*
X60650D01*
Y19448D02*
Y19648D01*
X60550Y19748D01*
X60350D01*
X60250Y19648D01*
Y19448D01*
X60350Y19348D01*
X60550D01*
X60650Y19448D01*
X60050Y20348D02*
X60650D01*
Y20048D01*
X60550Y19948D01*
X60350D01*
X60250Y20048D01*
Y20348D01*
Y20548D02*
X60550D01*
X60650Y20648D01*
Y20948D01*
X60250D01*
X60650Y21148D02*
Y21348D01*
Y21248D01*
X60050D01*
Y21148D01*
X60650Y21947D02*
Y21748D01*
X60550Y21648D01*
X60350D01*
X60250Y21748D01*
Y21947D01*
X60350Y22047D01*
X60450D01*
Y21648D01*
X20450Y11250D02*
X19850D01*
X20450Y11650D01*
X19850D01*
X20450Y11850D02*
Y12050D01*
Y11950D01*
X20050D01*
Y11850D01*
X20450Y12350D02*
X19850D01*
X20250D02*
X20050Y12650D01*
X20250Y12350D02*
X20450Y12650D01*
Y13049D02*
Y13249D01*
X20350Y13349D01*
X20150D01*
X20050Y13249D01*
Y13049D01*
X20150Y12949D01*
X20350D01*
X20450Y13049D01*
X20650Y13549D02*
X20050D01*
Y13849D01*
X20150Y13949D01*
X20350D01*
X20450Y13849D01*
Y13549D01*
Y14249D02*
Y14449D01*
X20350Y14549D01*
X20150D01*
X20050Y14449D01*
Y14249D01*
X20150Y14149D01*
X20350D01*
X20450Y14249D01*
Y14749D02*
Y14949D01*
Y14849D01*
X19850D01*
Y14749D01*
X20450Y16048D02*
X20250Y15849D01*
X20050D01*
X19850Y16048D01*
X19950Y16748D02*
X19850Y16648D01*
Y16448D01*
X19950Y16348D01*
X20350D01*
X20450Y16448D01*
Y16648D01*
X20350Y16748D01*
X20450Y16948D02*
X20250Y17148D01*
X20050D01*
X19850Y16948D01*
X61700Y14250D02*
X61100D01*
Y14550D01*
X61200Y14650D01*
X61400D01*
X61500Y14550D01*
Y14250D01*
X61200Y15250D02*
X61100Y15150D01*
Y14950D01*
X61200Y14850D01*
X61300D01*
X61400Y14950D01*
Y15150D01*
X61500Y15250D01*
X61600D01*
X61700Y15150D01*
Y14950D01*
X61600Y14850D01*
X61700Y16049D02*
X61100D01*
Y16349D01*
X61200Y16449D01*
X61400D01*
X61500Y16349D01*
Y16049D01*
X61200Y17049D02*
X61100Y16949D01*
Y16749D01*
X61200Y16649D01*
X61600D01*
X61700Y16749D01*
Y16949D01*
X61600Y17049D01*
X61100Y17249D02*
X61700D01*
Y17549D01*
X61600Y17649D01*
X61500D01*
X61400Y17549D01*
Y17249D01*
Y17549D01*
X61300Y17649D01*
X61200D01*
X61100Y17549D01*
Y17249D01*
X61300Y18449D02*
X61700Y18649D01*
X61300Y18849D01*
X61700Y19648D02*
Y19848D01*
Y19748D01*
X61100D01*
X61200Y19648D01*
X61700Y20148D02*
X61600D01*
Y20248D01*
X61700D01*
Y20148D01*
X61200Y20648D02*
X61100Y20748D01*
Y20948D01*
X61200Y21048D01*
X61600D01*
X61700Y20948D01*
Y20748D01*
X61600Y20648D01*
X61200D01*
X61400Y32250D02*
Y31850D01*
X61600Y31650D01*
X61800Y31850D01*
Y32250D01*
X62100Y32050D02*
X62300D01*
X62400Y31950D01*
Y31650D01*
X62100D01*
X62000Y31750D01*
X62100Y31850D01*
X62400D01*
X62600Y31650D02*
X62800D01*
X62700D01*
Y32250D01*
X62600D01*
X63099Y32050D02*
X63299Y31650D01*
X63499Y32050D01*
X63999Y31650D02*
X63799D01*
X63699Y31750D01*
Y31950D01*
X63799Y32050D01*
X63999D01*
X64099Y31950D01*
Y31850D01*
X63699D01*
X64299Y31650D02*
X64599D01*
X64699Y31750D01*
X64599Y31850D01*
X64399D01*
X64299Y31950D01*
X64399Y32050D01*
X64699D01*
D51*
X37800Y13600D02*
G03*
X37800Y13600I-100J0D01*
G01*
X33301Y16333D02*
X45899D01*
Y26767D01*
X33301D02*
X45899D01*
X33301Y16333D02*
Y26767D01*
X10078Y13633D02*
X13622D01*
X10078Y24067D02*
X13622D01*
X10078Y13633D02*
Y24067D01*
X13622Y13633D02*
Y24067D01*
X28050Y13600D02*
X28200D01*
X27750D02*
X27850D01*
X28050Y12600D02*
X28200D01*
X27700D02*
X27850D01*
X36200Y15001D02*
X38200D01*
X36200Y13198D02*
Y15001D01*
Y13198D02*
X38200D01*
Y15001D01*
D52*
X19918Y22050D02*
X20918D01*
D53*
X60483Y31082D02*
X60445Y31063D01*
X60389Y31007D01*
Y31401D01*
X60667Y12318D02*
X60705Y12337D01*
X60761Y12393D01*
Y11999D01*
D54*
X62392Y13719D02*
D03*
D55*
X65950Y13950D02*
D03*
M02*
