M48
;Layer_Color=9474304
;FILE_FORMAT=2:4
INCH,LZ
;TYPE=PLATED
T1F00S00C0.0197
T2F00S00C0.0315
T3F00S00C0.0354
T4F00S00C0.0394
T5F00S00C0.0433
T6F00S00C0.0472
T7F00S00C0.0512
T8F00S00C0.0591
T9F00S00C0.0984
T10F00S00C0.1378
%
T01
X0632Y02345
X0639Y02405
X0616Y03065
X05885Y03055
X0557Y0311
T02
X0219Y01295
X0229
X03365Y0118
X0357
Y0108
Y0136
Y0146
X03365Y0148
X0387Y0146
Y0136
X0419Y0134
Y0124
Y0114
X04645Y0106
X04845
X05615Y011011
Y012389
X065761Y0171
X067139
X05825Y018611
Y019989
X0519Y02615
X0499
X0446Y03255
X0426
T03
X0219Y0109
X0259
X02615Y01215
X02495
X0287Y0121
Y0131
X0297Y0136
Y0126
X0312Y0116
Y0146
X0402Y01555
X04335Y01475
X04535Y0146
Y0106
X04335Y01075
X0402Y01155
X050261Y01545
X051639
X0535Y01575
X0575
X05035Y018616
Y020584
X04715Y02145
Y01745
X0479Y02485
X0519
X0481Y029166
Y031134
X04165Y0277
X02995Y02775
Y02375
X02615Y01615
X02495
X016434Y02955
X014466
X04165Y0317
T04
X04735Y0123
Y0153
X0501Y01175
X0521
X0545Y0186
Y0206
X0509Y02335
X0479
X0522Y0291
Y0311
X0446Y0307
Y0277
X043635Y025487
Y023519
Y02155
Y019582
Y017613
X035565
Y019582
Y02155
Y023519
Y025487
X0348Y0294
X0378
X032Y02305
X0327Y0216
X0297
X02995Y0289
X023812Y027488
X019088
Y032212
X023812
X02995Y0319
X032Y03205
T05
X01645Y014237
X0658Y02175
X0668
Y02275
X0658
Y02375
X0668
Y02475
X0658
Y02575
X0668
X01645Y025063
T06
X06075Y01145
X06175
X06275
X06375
X0604Y03195
X0594
X0584
X0574
T07
X01185Y027666
Y029634
T08
X01185Y01435
Y02335
T09
X02215Y02205
X02615
T10
X01378Y011811
X066929
X03937Y031496
M30
