%FSLAX24Y24*%
%MOIN*%
G70*
G01*
G75*
G04 Layer_Physical_Order=2*
G04 Layer_Color=16711680*
%ADD10R,0.0374X0.0551*%
%ADD11R,0.0551X0.0374*%
G04:AMPARAMS|DCode=12|XSize=228.3mil|YSize=244.1mil|CornerRadius=57.1mil|HoleSize=0mil|Usage=FLASHONLY|Rotation=0.000|XOffset=0mil|YOffset=0mil|HoleType=Round|Shape=RoundedRectangle|*
%AMROUNDEDRECTD12*
21,1,0.2283,0.1299,0,0,0.0*
21,1,0.1142,0.2441,0,0,0.0*
1,1,0.1142,0.0571,-0.0650*
1,1,0.1142,-0.0571,-0.0650*
1,1,0.1142,-0.0571,0.0650*
1,1,0.1142,0.0571,0.0650*
%
%ADD12ROUNDEDRECTD12*%
G04:AMPARAMS|DCode=13|XSize=63mil|YSize=118.1mil|CornerRadius=15.7mil|HoleSize=0mil|Usage=FLASHONLY|Rotation=0.000|XOffset=0mil|YOffset=0mil|HoleType=Round|Shape=RoundedRectangle|*
%AMROUNDEDRECTD13*
21,1,0.0630,0.0866,0,0,0.0*
21,1,0.0315,0.1181,0,0,0.0*
1,1,0.0315,0.0157,-0.0433*
1,1,0.0315,-0.0157,-0.0433*
1,1,0.0315,-0.0157,0.0433*
1,1,0.0315,0.0157,0.0433*
%
%ADD13ROUNDEDRECTD13*%
G04:AMPARAMS|DCode=14|XSize=40mil|YSize=60mil|CornerRadius=10mil|HoleSize=0mil|Usage=FLASHONLY|Rotation=270.000|XOffset=0mil|YOffset=0mil|HoleType=Round|Shape=RoundedRectangle|*
%AMROUNDEDRECTD14*
21,1,0.0400,0.0400,0,0,270.0*
21,1,0.0200,0.0600,0,0,270.0*
1,1,0.0200,-0.0200,-0.0100*
1,1,0.0200,-0.0200,0.0100*
1,1,0.0200,0.0200,0.0100*
1,1,0.0200,0.0200,-0.0100*
%
%ADD14ROUNDEDRECTD14*%
G04:AMPARAMS|DCode=15|XSize=40mil|YSize=60mil|CornerRadius=10mil|HoleSize=0mil|Usage=FLASHONLY|Rotation=180.000|XOffset=0mil|YOffset=0mil|HoleType=Round|Shape=RoundedRectangle|*
%AMROUNDEDRECTD15*
21,1,0.0400,0.0400,0,0,180.0*
21,1,0.0200,0.0600,0,0,180.0*
1,1,0.0200,-0.0100,0.0200*
1,1,0.0200,0.0100,0.0200*
1,1,0.0200,0.0100,-0.0200*
1,1,0.0200,-0.0100,-0.0200*
%
%ADD15ROUNDEDRECTD15*%
%ADD16C,0.0197*%
%ADD17C,0.0394*%
%ADD18C,0.0295*%
%ADD19C,0.0138*%
%ADD20C,0.0118*%
%ADD21C,0.0630*%
%ADD22R,0.0591X0.0591*%
%ADD23C,0.0591*%
%ADD24R,0.0630X0.0630*%
%ADD25C,0.0748*%
G04:AMPARAMS|DCode=26|XSize=98.4mil|YSize=98.4mil|CornerRadius=0mil|HoleSize=0mil|Usage=FLASHONLY|Rotation=90.000|XOffset=0mil|YOffset=0mil|HoleType=Round|Shape=Octagon|*
%AMOCTAGOND26*
4,1,8,0.0246,0.0492,-0.0246,0.0492,-0.0492,0.0246,-0.0492,-0.0246,-0.0246,-0.0492,0.0246,-0.0492,0.0492,-0.0246,0.0492,0.0246,0.0246,0.0492,0.0*
%
%ADD26OCTAGOND26*%

%ADD27C,0.0984*%
%ADD28C,0.0787*%
G04:AMPARAMS|DCode=29|XSize=78.7mil|YSize=78.7mil|CornerRadius=0mil|HoleSize=0mil|Usage=FLASHONLY|Rotation=0.000|XOffset=0mil|YOffset=0mil|HoleType=Round|Shape=Octagon|*
%AMOCTAGOND29*
4,1,8,0.0394,-0.0197,0.0394,0.0197,0.0197,0.0394,-0.0197,0.0394,-0.0394,0.0197,-0.0394,-0.0197,-0.0197,-0.0394,0.0197,-0.0394,0.0394,-0.0197,0.0*
%
%ADD29OCTAGOND29*%

G04:AMPARAMS|DCode=30|XSize=59.1mil|YSize=59.1mil|CornerRadius=0mil|HoleSize=0mil|Usage=FLASHONLY|Rotation=180.000|XOffset=0mil|YOffset=0mil|HoleType=Round|Shape=Octagon|*
%AMOCTAGOND30*
4,1,8,-0.0295,0.0148,-0.0295,-0.0148,-0.0148,-0.0295,0.0148,-0.0295,0.0295,-0.0148,0.0295,0.0148,0.0148,0.0295,-0.0148,0.0295,-0.0295,0.0148,0.0*
%
%ADD30OCTAGOND30*%

%ADD31C,0.2559*%
%ADD32C,0.1181*%
%ADD33R,0.0591X0.0591*%
%ADD34C,0.0709*%
%ADD35C,0.1575*%
%ADD36R,0.1575X0.1575*%
G04:AMPARAMS|DCode=37|XSize=59.1mil|YSize=59.1mil|CornerRadius=0mil|HoleSize=0mil|Usage=FLASHONLY|Rotation=270.000|XOffset=0mil|YOffset=0mil|HoleType=Round|Shape=Octagon|*
%AMOCTAGOND37*
4,1,8,-0.0148,-0.0295,0.0148,-0.0295,0.0295,-0.0148,0.0295,0.0148,0.0148,0.0295,-0.0148,0.0295,-0.0295,0.0148,-0.0295,-0.0148,-0.0148,-0.0295,0.0*
%
%ADD37OCTAGOND37*%

%ADD38C,0.0669*%
%ADD39C,0.0500*%
%ADD40R,0.0551X0.0413*%
G04:AMPARAMS|DCode=41|XSize=80mil|YSize=130mil|CornerRadius=20mil|HoleSize=0mil|Usage=FLASHONLY|Rotation=270.000|XOffset=0mil|YOffset=0mil|HoleType=Round|Shape=RoundedRectangle|*
%AMROUNDEDRECTD41*
21,1,0.0800,0.0900,0,0,270.0*
21,1,0.0400,0.1300,0,0,270.0*
1,1,0.0400,-0.0450,-0.0200*
1,1,0.0400,-0.0450,0.0200*
1,1,0.0400,0.0450,0.0200*
1,1,0.0400,0.0450,-0.0200*
%
%ADD41ROUNDEDRECTD41*%
G04:AMPARAMS|DCode=42|XSize=39.4mil|YSize=98.4mil|CornerRadius=9.8mil|HoleSize=0mil|Usage=FLASHONLY|Rotation=180.000|XOffset=0mil|YOffset=0mil|HoleType=Round|Shape=RoundedRectangle|*
%AMROUNDEDRECTD42*
21,1,0.0394,0.0787,0,0,180.0*
21,1,0.0197,0.0984,0,0,180.0*
1,1,0.0197,-0.0098,0.0394*
1,1,0.0197,0.0098,0.0394*
1,1,0.0197,0.0098,-0.0394*
1,1,0.0197,-0.0098,-0.0394*
%
%ADD42ROUNDEDRECTD42*%
%ADD43C,0.0787*%
%ADD44C,0.1181*%
%ADD45R,0.5000X0.2700*%
%ADD46R,0.3850X0.3250*%
G36*
X45950Y16700D02*
X46929Y15721D01*
X46855Y15631D01*
X46800Y15528D01*
X46766Y15416D01*
X46760Y15350D01*
X47350D01*
Y15250D01*
X46760D01*
X46766Y15184D01*
X46800Y15072D01*
X46855Y14969D01*
X46929Y14879D01*
X47019Y14805D01*
X47122Y14750D01*
X47234Y14716D01*
X47350Y14705D01*
Y14400D01*
X45761D01*
X45734Y14442D01*
X45754Y14492D01*
X45762Y14550D01*
X45350D01*
Y14600D01*
X45300D01*
Y15012D01*
X45242Y15004D01*
X45141Y14962D01*
X45054Y14896D01*
X44550Y15400D01*
X43408D01*
X43396Y17133D01*
X43438Y17161D01*
X43507Y17132D01*
X43585Y17122D01*
Y17613D01*
Y18104D01*
X43507Y18094D01*
X43432Y18063D01*
X43390Y18091D01*
X43389Y18165D01*
X43425Y18200D01*
X45950D01*
Y16700D01*
D02*
G37*
%LPC*%
G36*
X45400Y15012D02*
Y14650D01*
X45762D01*
X45754Y14708D01*
X45712Y14809D01*
X45646Y14896D01*
X45559Y14962D01*
X45458Y15004D01*
X45400Y15012D01*
D02*
G37*
G36*
X43685Y18104D02*
Y17663D01*
X44127D01*
X44116Y17742D01*
X44067Y17862D01*
X43988Y17965D01*
X43884Y18044D01*
X43764Y18094D01*
X43685Y18104D01*
D02*
G37*
G36*
X44127Y17563D02*
X43685D01*
Y17122D01*
X43764Y17132D01*
X43884Y17182D01*
X43988Y17261D01*
X44067Y17364D01*
X44116Y17484D01*
X44127Y17563D01*
D02*
G37*
%LPD*%
D16*
X22000Y20350D02*
X22150Y20500D01*
X21900Y21800D02*
X22150Y22050D01*
X63500Y22750D02*
X65800D01*
X63200Y23050D02*
X63500Y22750D01*
X63200Y23050D02*
Y23450D01*
X66800Y23750D02*
X67700Y24650D01*
Y26800D01*
X67100Y27400D02*
X67700Y26800D01*
X64300Y27400D02*
X67100D01*
X63900Y27000D02*
X64300Y27400D01*
X63900Y24050D02*
Y27000D01*
D17*
X23050Y13100D02*
X28700D01*
X22900Y12950D02*
X23050Y13100D01*
X58850Y26550D02*
X60550D01*
X55700D02*
X58850D01*
X60400Y26700D02*
X60550Y26550D01*
X61600Y30650D02*
X62000Y30250D01*
Y29350D02*
Y30250D01*
X58850Y29350D02*
Y30550D01*
X55700Y29350D02*
Y31100D01*
X35565Y19582D02*
X36418D01*
X35700Y11800D02*
Y13600D01*
X33650Y11800D02*
X35700D01*
Y10750D02*
X36450D01*
X26150Y12150D02*
X28650D01*
X21900Y10900D02*
Y13000D01*
X35565Y16715D02*
Y17613D01*
X33650Y14800D02*
X35565Y16715D01*
X33732Y19582D02*
X35565D01*
X32700Y18550D02*
X33732Y19582D01*
X30500Y10900D02*
X31200Y11600D01*
X25900Y10900D02*
X30500D01*
X29700Y13100D02*
X32250D01*
X32700Y13550D01*
Y18550D01*
X31200Y11600D02*
X31704D01*
X32100Y11996D01*
X32104Y12000D01*
X34600Y14300D02*
X34900Y14600D01*
X35700D01*
X32104Y12000D02*
X32600D01*
X34600Y14000D01*
Y14300D01*
X36450Y10750D02*
X36600Y10900D01*
Y19400D01*
X36418Y19582D02*
X36600Y19400D01*
X43635Y25487D02*
X44600Y26452D01*
Y27700D01*
X41650D02*
X44600D01*
X41650Y31700D02*
X41750D01*
X42600Y32550D01*
X44600Y30700D02*
Y32550D01*
Y30700D02*
X47666D01*
X48100Y31134D01*
X48134Y31100D02*
X52200D01*
X48100Y31134D02*
X48134Y31100D01*
X52200Y29100D02*
X53400Y30300D01*
Y31900D01*
X43635Y23519D02*
X44969D01*
X46100Y24650D01*
Y28550D01*
X46716Y29166D01*
X48100D01*
X51900Y24850D02*
Y26050D01*
X51800Y26150D02*
X51900Y26050D01*
X49900Y24350D02*
Y26150D01*
Y24350D02*
X50900Y23350D01*
X47150Y21450D02*
X47200Y21500D01*
X50350D01*
X45350Y10600D02*
X46450D01*
X57500Y15750D02*
Y18550D01*
X38700Y14600D02*
Y15150D01*
X39100Y15550D01*
X40200D01*
X38700Y12000D02*
Y13600D01*
Y12000D02*
X39150Y11550D01*
X40200D01*
Y15550D02*
X42450D01*
X41900Y13400D02*
Y15500D01*
X43300Y12804D02*
Y14600D01*
Y11600D02*
Y12096D01*
X43100Y11400D02*
X43300Y11600D01*
X41900Y11400D02*
X43100D01*
X42450Y15550D02*
X43350Y14650D01*
X66800Y17439D02*
Y21750D01*
Y17439D02*
X67139Y17100D01*
X65761D02*
Y21711D01*
X68450Y18411D02*
Y31000D01*
X67139Y17100D02*
X68450Y18411D01*
X53400Y31900D02*
X54250Y32750D01*
X66700D01*
X68450Y31000D01*
D18*
X37800Y29400D02*
X39300D01*
X40300Y28400D01*
Y20450D02*
Y28400D01*
Y20450D02*
X41168Y19582D01*
X43635D01*
X41550Y12400D02*
X41900D01*
X41050Y11900D02*
X41550Y12400D01*
X41050Y10650D02*
Y11900D01*
Y10650D02*
X43350D01*
X47150Y17450D02*
X48500Y16100D01*
Y15000D02*
Y16100D01*
X46950Y13450D02*
X48500Y15000D01*
X45300Y13450D02*
X46950D01*
X44300Y12450D02*
X45300Y13450D01*
X44300Y10550D02*
Y12450D01*
X43937Y10187D02*
X44300Y10550D01*
X40713Y10187D02*
X43937D01*
X40200Y10700D02*
X40713Y10187D01*
X40200Y10700D02*
Y11550D01*
D21*
X53500Y15750D02*
D03*
X57500D02*
D03*
X51639Y15450D02*
D03*
X45350Y10600D02*
D03*
Y14600D02*
D03*
X24950Y16150D02*
D03*
Y12150D02*
D03*
X26150Y16150D02*
D03*
Y12150D02*
D03*
X29950Y27750D02*
D03*
Y23750D02*
D03*
X25900Y10900D02*
D03*
X21900D02*
D03*
X16434Y29550D02*
D03*
X14466D02*
D03*
X51900Y24850D02*
D03*
X47900D02*
D03*
X47150Y21450D02*
D03*
Y17450D02*
D03*
X40200Y11550D02*
D03*
Y15550D02*
D03*
X43350Y10750D02*
D03*
Y14750D02*
D03*
X41650Y31700D02*
D03*
Y27700D02*
D03*
D22*
X56150Y11011D02*
D03*
X58250Y18611D02*
D03*
X50350Y20584D02*
D03*
X35700Y11800D02*
D03*
X48100Y31134D02*
D03*
D23*
X56150Y12389D02*
D03*
X50100Y11750D02*
D03*
X52100D02*
D03*
X44600Y32550D02*
D03*
X42600D02*
D03*
X58250Y19989D02*
D03*
X54500Y20600D02*
D03*
Y18600D02*
D03*
X22900Y12950D02*
D03*
X65761Y17100D02*
D03*
X49900Y26150D02*
D03*
X51900D02*
D03*
X50350Y18616D02*
D03*
X33650Y14800D02*
D03*
X35700Y10800D02*
D03*
X41900Y12400D02*
D03*
Y11400D02*
D03*
X38700Y14600D02*
D03*
X35700D02*
D03*
Y13600D02*
D03*
X48450Y10600D02*
D03*
X46450D02*
D03*
X48100Y29166D02*
D03*
X52200Y31100D02*
D03*
Y29100D02*
D03*
D24*
X50261Y15450D02*
D03*
D25*
X60400Y31950D02*
D03*
X59400D02*
D03*
X58400D02*
D03*
X57400D02*
D03*
X63750Y11450D02*
D03*
X62750D02*
D03*
X61750D02*
D03*
X60750D02*
D03*
D26*
X44600Y30700D02*
D03*
X47350Y12300D02*
D03*
D27*
X44600Y27700D02*
D03*
X47350Y15300D02*
D03*
D28*
X47900Y23350D02*
D03*
X37800Y29400D02*
D03*
X34800D02*
D03*
X35565Y25487D02*
D03*
Y23519D02*
D03*
Y21550D02*
D03*
Y19582D02*
D03*
Y17613D02*
D03*
X43635D02*
D03*
Y19582D02*
D03*
Y21550D02*
D03*
Y23519D02*
D03*
Y25487D02*
D03*
X32700Y21600D02*
D03*
X19088Y27488D02*
D03*
X23812D02*
D03*
Y32212D02*
D03*
X19088D02*
D03*
X28700Y13100D02*
D03*
Y12100D02*
D03*
X31200Y14600D02*
D03*
X29700Y13600D02*
D03*
Y12600D02*
D03*
X31200Y11600D02*
D03*
X29950Y31900D02*
D03*
Y28900D02*
D03*
D29*
X50900Y23350D02*
D03*
X29700Y21600D02*
D03*
D30*
X21900Y12950D02*
D03*
X41900Y13400D02*
D03*
X38700Y13600D02*
D03*
D31*
X66929Y11811D02*
D03*
X39370Y31496D02*
D03*
X13780Y11811D02*
D03*
D32*
X11850Y14350D02*
D03*
Y23350D02*
D03*
Y29634D02*
D03*
Y27666D02*
D03*
D33*
X67139Y17100D02*
D03*
D34*
X16450Y14237D02*
D03*
Y25063D02*
D03*
X66800Y21750D02*
D03*
X65800D02*
D03*
X66800Y22750D02*
D03*
X65800D02*
D03*
Y23750D02*
D03*
X66800D02*
D03*
X65800Y24750D02*
D03*
X66800D02*
D03*
X65800Y25750D02*
D03*
X66800D02*
D03*
D35*
X22150Y22050D02*
D03*
D36*
X26150D02*
D03*
D37*
X33650Y11800D02*
D03*
D38*
X32000Y23050D02*
D03*
Y32050D02*
D03*
D39*
X61600Y30650D02*
D03*
X58850Y30550D02*
D03*
X55700Y31100D02*
D03*
X63200Y23450D02*
D03*
X63900Y24050D02*
D03*
D40*
X43300Y12804D02*
D03*
Y12096D02*
D03*
X32100Y11996D02*
D03*
Y12704D02*
D03*
D41*
X62000Y26550D02*
D03*
Y29350D02*
D03*
X58850Y26550D02*
D03*
Y29350D02*
D03*
X55700Y26550D02*
D03*
Y29350D02*
D03*
D42*
X27534Y30972D02*
D03*
X25566D02*
D03*
Y27428D02*
D03*
X27534D02*
D03*
D43*
X29200Y13600D02*
X29700Y13100D01*
X60550Y26550D02*
X62000D01*
X60400Y26700D02*
Y31950D01*
X11850Y29634D02*
X14381D01*
X14466Y29550D01*
X11850Y23350D02*
Y27666D01*
X16434Y25079D02*
Y29550D01*
X16679Y25079D02*
X19088Y27488D01*
X16434Y25079D02*
X16679D01*
X11850Y14350D02*
X16337D01*
Y22437D01*
X21300Y27400D01*
Y30000D01*
X19088Y32212D02*
X21300Y30000D01*
X23812Y31638D02*
Y32212D01*
Y31638D02*
X24478Y30972D01*
X25566D01*
X23812Y27488D02*
Y28562D01*
X24650Y29400D01*
X25963D01*
X27534Y30972D01*
X25566Y25466D02*
Y27428D01*
X22150Y22050D02*
X25566Y25466D01*
X27534Y24834D02*
Y27428D01*
X26150Y23450D02*
X27534Y24834D01*
X26150Y22050D02*
Y23450D01*
Y22050D02*
X27300D01*
X28650Y23400D01*
Y30600D01*
X29950Y31900D01*
X30100Y32050D01*
X32000D01*
X32150D01*
X35565Y25487D02*
Y28635D01*
X32150Y32050D02*
X34800Y29400D01*
X35565Y28635D01*
X29950Y27750D02*
Y28900D01*
Y27750D02*
X32000Y25700D01*
Y23050D02*
Y25700D01*
X29950Y22750D02*
Y23750D01*
X29700Y22500D02*
X29950Y22750D01*
X29700Y21600D02*
Y22500D01*
X28700Y13100D02*
X29200Y13600D01*
X29700Y12600D02*
Y13100D01*
X43635Y21550D02*
X44750D01*
X46550Y23350D01*
X47900D01*
X50900Y22800D02*
Y23350D01*
X50350Y22250D02*
X50900Y22800D01*
X47900Y23350D02*
Y24850D01*
X50350Y20584D02*
X54484D01*
X54500Y18600D02*
X58239D01*
X50350Y20584D02*
Y21500D01*
Y22250D01*
X47350Y12300D02*
X50261Y15211D01*
Y11911D02*
Y15211D01*
X50100Y11750D02*
X50261Y11911D01*
X48450Y10600D02*
Y11200D01*
X47350Y12300D02*
X48450Y11200D01*
X43635Y17613D02*
X45350Y15898D01*
Y15300D02*
X47350D01*
X45350Y14600D02*
Y15300D01*
Y15898D01*
X52100Y11750D02*
X53900D01*
X54639Y11011D01*
X56150D01*
X58639D01*
X59350Y10300D01*
X61700D01*
X61750Y10350D01*
Y11450D01*
X58250Y17150D02*
Y18611D01*
Y17150D02*
X60750Y14650D01*
Y11450D02*
Y14650D01*
X61750Y11450D02*
Y26300D01*
X43635Y19582D02*
X47868D01*
X48834Y18616D01*
X50350D01*
X51639Y17327D01*
Y15450D02*
Y17327D01*
X54700Y12389D02*
X56150D01*
X51639Y15450D02*
X54700Y12389D01*
X50350Y18616D02*
X52166D01*
X53150Y19600D01*
X57861D01*
X58250Y19989D01*
D44*
X32750Y21550D02*
X35565D01*
X31200Y14600D02*
Y20000D01*
X32750Y21550D01*
X22150Y20500D02*
Y22050D01*
X29700Y13600D02*
Y15050D01*
X22150Y20500D02*
X24400Y18250D01*
X26500D01*
X29700Y15050D01*
D45*
X46650Y31500D02*
D03*
D46*
X43275Y26725D02*
D03*
M02*
