%FSLAX24Y24*%
%MOIN*%
G70*
G01*
G75*
G04 Layer_Color=32896*
%ADD10R,0.0551X0.0374*%
%ADD11R,0.0551X0.0354*%
%ADD12C,0.0197*%
%ADD13C,0.1063*%
%ADD14O,0.0787X0.0709*%
%ADD15C,0.0098*%
%ADD16C,0.0079*%
%ADD17C,0.0100*%
%ADD18R,0.0631X0.0454*%
%ADD19R,0.0631X0.0434*%
%ADD20C,0.1143*%
%ADD21O,0.0867X0.0789*%
%ADD22C,0.0059*%
D16*
X54600Y19350D02*
X56884D01*
X54600Y14350D02*
Y19350D01*
Y14350D02*
X56884D01*
Y19350D01*
X56281Y18850D02*
X56884D01*
X56281Y14850D02*
Y18850D01*
Y14850D02*
X56884D01*
X56490D02*
Y18850D01*
Y18743D02*
X56884D01*
X56490Y14957D02*
X56884D01*
D17*
X47950Y16600D02*
Y17200D01*
X47550Y16600D01*
Y17200D01*
X47350Y16600D02*
X47150D01*
X47250D01*
Y17000D01*
X47350D01*
X46850Y16600D02*
Y17200D01*
Y16800D02*
X46550Y17000D01*
X46850Y16800D02*
X46550Y16600D01*
X46151D02*
X45951D01*
X45851Y16700D01*
Y16900D01*
X45951Y17000D01*
X46151D01*
X46251Y16900D01*
Y16700D01*
X46151Y16600D01*
X45651Y16400D02*
Y17000D01*
X45351D01*
X45251Y16900D01*
Y16700D01*
X45351Y16600D01*
X45651D01*
X44951D02*
X44751D01*
X44651Y16700D01*
Y16900D01*
X44751Y17000D01*
X44951D01*
X45051Y16900D01*
Y16700D01*
X44951Y16600D01*
X44451D02*
X44251D01*
X44351D01*
Y17200D01*
X44451D01*
X43152Y16600D02*
X43351Y16800D01*
Y17000D01*
X43152Y17200D01*
X42452Y17100D02*
X42552Y17200D01*
X42752D01*
X42852Y17100D01*
Y16700D01*
X42752Y16600D01*
X42552D01*
X42452Y16700D01*
X42252Y16600D02*
X42052Y16800D01*
Y17000D01*
X42252Y17200D01*
X53550Y18600D02*
Y19200D01*
X53250D01*
X53150Y19100D01*
Y18900D01*
X53250Y18800D01*
X53550D01*
X52950Y18600D02*
Y19200D01*
X52750Y19000D01*
X52550Y19200D01*
Y18600D01*
X51751Y19200D02*
Y18600D01*
X51351D01*
X50851D02*
X51051D01*
X51151Y18700D01*
Y18900D01*
X51051Y19000D01*
X50851D01*
X50751Y18900D01*
Y18800D01*
X51151D01*
X50151Y19200D02*
Y18600D01*
X50451D01*
X50551Y18700D01*
Y18900D01*
X50451Y19000D01*
X50151D01*
X49351Y18600D02*
Y19200D01*
X49051D01*
X48951Y19100D01*
Y18900D01*
X49051Y18800D01*
X49351D01*
X48352Y19100D02*
X48452Y19200D01*
X48652D01*
X48752Y19100D01*
Y18700D01*
X48652Y18600D01*
X48452D01*
X48352Y18700D01*
X48152Y19200D02*
Y18600D01*
X47852D01*
X47752Y18700D01*
Y18800D01*
X47852Y18900D01*
X48152D01*
X47852D01*
X47752Y19000D01*
Y19100D01*
X47852Y19200D01*
X48152D01*
X46952Y19000D02*
X46752Y18600D01*
X46552Y19000D01*
X45753Y18600D02*
X45553D01*
X45653D01*
Y19200D01*
X45753Y19100D01*
X45253Y18600D02*
Y18700D01*
X45153D01*
Y18600D01*
X45253D01*
X44753Y19100D02*
X44653Y19200D01*
X44453D01*
X44353Y19100D01*
Y18700D01*
X44453Y18600D01*
X44653D01*
X44753Y18700D01*
Y19100D01*
X52450Y15350D02*
X52550Y15450D01*
X52750D01*
X52850Y15350D01*
Y15250D01*
X52750Y15150D01*
X52550D01*
X52450Y15050D01*
Y14950D01*
X52550Y14850D01*
X52750D01*
X52850Y14950D01*
X52250Y14650D02*
Y15250D01*
X51950D01*
X51850Y15150D01*
Y14950D01*
X51950Y14850D01*
X52250D01*
X51650D02*
X51450D01*
X51550D01*
Y15250D01*
X51650D01*
X51151D02*
Y14850D01*
Y15050D01*
X51051Y15150D01*
X50951Y15250D01*
X50851D01*
X50451Y15350D02*
Y15250D01*
X50551D01*
X50351D01*
X50451D01*
Y14950D01*
X50351Y14850D01*
X49051Y15250D02*
X49351D01*
X49451Y15150D01*
Y14950D01*
X49351Y14850D01*
X49051D01*
X48751D02*
X48551D01*
X48451Y14950D01*
Y15150D01*
X48551Y15250D01*
X48751D01*
X48851Y15150D01*
Y14950D01*
X48751Y14850D01*
X48251D02*
Y15250D01*
X47952D01*
X47852Y15150D01*
Y14850D01*
X47552Y15350D02*
Y15250D01*
X47652D01*
X47452D01*
X47552D01*
Y14950D01*
X47452Y14850D01*
X47152Y15250D02*
Y14850D01*
Y15050D01*
X47052Y15150D01*
X46952Y15250D01*
X46852D01*
X46452Y14850D02*
X46252D01*
X46152Y14950D01*
Y15150D01*
X46252Y15250D01*
X46452D01*
X46552Y15150D01*
Y14950D01*
X46452Y14850D01*
X45952D02*
X45752D01*
X45852D01*
Y15450D01*
X45952D01*
X45452Y14850D02*
X45252D01*
X45352D01*
Y15450D01*
X45452D01*
X44653Y14850D02*
X44853D01*
X44953Y14950D01*
Y15150D01*
X44853Y15250D01*
X44653D01*
X44553Y15150D01*
Y15050D01*
X44953D01*
X44353Y15250D02*
Y14850D01*
Y15050D01*
X44253Y15150D01*
X44153Y15250D01*
X44053D01*
X43153D02*
X42953Y14850D01*
X42753Y15250D01*
X41554Y14850D02*
X41954D01*
X41554Y15250D01*
Y15350D01*
X41654Y15450D01*
X41854D01*
X41954Y15350D01*
X41354Y14850D02*
Y14950D01*
X41254D01*
Y14850D01*
X41354D01*
X40854Y15350D02*
X40754Y15450D01*
X40554D01*
X40454Y15350D01*
Y14950D01*
X40554Y14850D01*
X40754D01*
X40854Y14950D01*
Y15350D01*
X53750Y17550D02*
X53950D01*
X53850D01*
Y17050D01*
X53950Y16950D01*
X54050D01*
X54150Y17050D01*
X53550Y16950D02*
X53350D01*
X53450D01*
Y17550D01*
X53550Y17450D01*
D22*
X54880Y18937D02*
X54861Y18899D01*
X54805Y18843D01*
X55199D01*
M02*
