%FSLAX24Y24*%
%MOIN*%
G70*
G01*
G75*
G04 Layer_Color=65535*
%ADD10R,0.0551X0.0374*%
%ADD11R,0.0551X0.0354*%
%ADD12C,0.0197*%
%ADD13C,0.1063*%
%ADD14O,0.0787X0.0709*%
%ADD15C,0.0098*%
%ADD16C,0.0079*%
%ADD17C,0.0100*%
D15*
X40349Y14352D02*
G03*
X40349Y14352I-49J0D01*
G01*
X52349Y14328D02*
G03*
X52349Y14328I-49J0D01*
G01*
X48299Y14352D02*
G03*
X48299Y14352I-49J0D01*
G01*
X44299Y14328D02*
G03*
X44299Y14328I-49J0D01*
G01*
D16*
X52083Y16950D02*
X52517D01*
X48033D02*
X48467D01*
X44033D02*
X44467D01*
X40083D02*
X40517D01*
X40044Y15100D02*
X40556D01*
X52044Y15076D02*
X52556D01*
X47994Y15100D02*
X48506D01*
X43994Y15076D02*
X44506D01*
D17*
X38205Y18245D02*
Y17645D01*
X38505D01*
X38605Y17745D01*
Y17845D01*
X38505Y17945D01*
X38205D01*
X38505D01*
X38605Y18045D01*
Y18145D01*
X38505Y18245D01*
X38205D01*
X39205Y17645D02*
X38805D01*
X39205Y18045D01*
Y18145D01*
X39105Y18245D01*
X38905D01*
X38805Y18145D01*
X48800Y17150D02*
Y16550D01*
X49100D01*
X49200Y16650D01*
Y16750D01*
X49100Y16850D01*
X48800D01*
X49100D01*
X49200Y16950D01*
Y17050D01*
X49100Y17150D01*
X48800D01*
X49400Y16550D02*
X49600D01*
X49500D01*
Y17150D01*
X49400Y17050D01*
X41100Y15400D02*
Y14800D01*
X41500D01*
X41700Y15400D02*
Y14800D01*
X42000D01*
X42100Y14900D01*
Y15300D01*
X42000Y15400D01*
X41700D01*
X42300Y14800D02*
X42500D01*
X42400D01*
Y15400D01*
X42300Y15300D01*
X44850Y15526D02*
Y14926D01*
X45250D01*
X45450Y15526D02*
Y14926D01*
X45750D01*
X45850Y15026D01*
Y15426D01*
X45750Y15526D01*
X45450D01*
X46449Y14926D02*
X46050D01*
X46449Y15326D01*
Y15426D01*
X46350Y15526D01*
X46150D01*
X46050Y15426D01*
X49000Y15450D02*
Y14850D01*
X49400D01*
X49600Y15450D02*
Y14850D01*
X49900D01*
X50000Y14950D01*
Y15350D01*
X49900Y15450D01*
X49600D01*
X50200Y15350D02*
X50300Y15450D01*
X50500D01*
X50599Y15350D01*
Y15250D01*
X50500Y15150D01*
X50400D01*
X50500D01*
X50599Y15050D01*
Y14950D01*
X50500Y14850D01*
X50300D01*
X50200Y14950D01*
X52950Y15426D02*
Y14826D01*
X53350D01*
X53550Y15426D02*
Y14826D01*
X53850D01*
X53950Y14926D01*
Y15326D01*
X53850Y15426D01*
X53550D01*
X54450Y14826D02*
Y15426D01*
X54150Y15126D01*
X54549D01*
X40020Y17750D02*
Y18350D01*
X40320D01*
X40420Y18250D01*
Y18050D01*
X40320Y17950D01*
X40020D01*
X40220D02*
X40420Y17750D01*
X40620D02*
X40820D01*
X40720D01*
Y18350D01*
X40620Y18250D01*
X43970Y17780D02*
Y18380D01*
X44270D01*
X44370Y18280D01*
Y18080D01*
X44270Y17980D01*
X43970D01*
X44170D02*
X44370Y17780D01*
X44970D02*
X44570D01*
X44970Y18180D01*
Y18280D01*
X44870Y18380D01*
X44670D01*
X44570Y18280D01*
X47970Y17756D02*
Y18356D01*
X48270D01*
X48370Y18256D01*
Y18056D01*
X48270Y17956D01*
X47970D01*
X48170D02*
X48370Y17756D01*
X48570Y18256D02*
X48670Y18356D01*
X48870D01*
X48970Y18256D01*
Y18156D01*
X48870Y18056D01*
X48770D01*
X48870D01*
X48970Y17956D01*
Y17856D01*
X48870Y17756D01*
X48670D01*
X48570Y17856D01*
X52020Y17780D02*
Y18380D01*
X52320D01*
X52420Y18280D01*
Y18080D01*
X52320Y17980D01*
X52020D01*
X52220D02*
X52420Y17780D01*
X52920D02*
Y18380D01*
X52620Y18080D01*
X53020D01*
M02*
