M48
;Layer_Color=9474304
;FILE_FORMAT=2:4
INCH,LZ
;TYPE=PLATED
T1F00S00C0.0197
T2F00S00C0.0315
T3F00S00C0.0354
T4F00S00C0.0394
T5F00S00C0.0433
T6F00S00C0.0472
T7F00S00C0.0512
T8F00S00C0.0551
T9F00S00C0.0591
T10F00S00C0.0630
T12F00S00C0.0827
T13F00S00C0.1378
%
T01
X05085Y0111
X05835Y01605
X0589Y018
X06215Y0311
X04685Y02825
X0358Y0285
X03585Y0169
X03415Y01755
X03305Y01845
X05895Y0336
T02
X0368Y0129
X0378
X0388
X04345
X04445
X04545
X04715Y01295
X04815
X04915
X05085Y013
X05185
X05285
X05455Y0131
X05555
X05655
Y0161
X05555
X05455
X05285Y016
X05185
X05085
X04915Y01595
X04815
X04715
X05475Y021816
Y023784
X0547Y028766
Y030734
X04545Y0159
X04445
X04345
X042548Y0175
X0418
X041052
X0388Y0159
X0378
X0368
X031748Y01755
X031
X030252
X024184Y0366
X022216
X037666Y0344
X039634
X0542Y035766
Y037734
T03
X05155Y01845
X05295Y0185
Y0225
X05155Y02245
Y0245
X053
Y0285
X05155
X05145Y0301
X05295Y03005
X04805Y0283
X0369Y02845
X0274Y0365
X0314
X0369Y03245
X041Y0365
X045
X04805Y0323
X05145Y0341
X05295Y03405
T04
X03305Y00965
Y01065
X03405
Y00965
X03505
Y01065
X03605
Y00965
X03705
X03805
Y01065
X03905
Y00965
X04005
Y01065
X03705
X0571Y0224
Y0244
Y0291
Y0311
X0192Y03605
Y03805
X0359
Y03605
X05565Y0374
X05765
T05
X012422Y014814
X015178Y012286
X025864Y013372
X023336Y016128
X025913Y0195
X015087
T06
X03305Y014551
X03405Y014549
X0435Y010551
X0445Y010549
X022608Y02365
X018592
T07
X0184Y0111
X0209
X0234
X0605Y0207
Y0227
Y0247
Y0267
Y0287
Y0307
X04405Y03025
X0316
Y03225
X04405
T08
X03615Y02115
Y02315
X0136Y02435
Y02635
T09
X027235Y0383
X0294
X031565
X040835
X043
X045165
T10
X017566Y01465
X019534
T12
X017096Y029343
X024104Y029634
Y032626
T13
X01378Y009843
X061024
X01378Y033465
X015748Y040551
X059055
X061024Y033465
M30
