%FSLAX24Y24*%
%MOIN*%
G70*
G01*
G75*
G04 Layer_Color=65535*
%ADD10R,0.0413X0.0551*%
%ADD11C,0.0591*%
%ADD12C,0.1969*%
%ADD13C,0.0394*%
%ADD14C,0.0197*%
%ADD15C,0.0118*%
%ADD16C,0.2362*%
%ADD17C,0.1575*%
%ADD18C,0.0787*%
%ADD19C,0.1181*%
%ADD20C,0.0100*%
%ADD21C,0.2559*%
%ADD22C,0.0591*%
%ADD23C,0.1181*%
%ADD24C,0.0748*%
%ADD25C,0.0630*%
%ADD26C,0.1575*%
%ADD27C,0.0669*%
G04:AMPARAMS|DCode=28|XSize=59.1mil|YSize=59.1mil|CornerRadius=0mil|HoleSize=0mil|Usage=FLASHONLY|Rotation=90.000|XOffset=0mil|YOffset=0mil|HoleType=Round|Shape=Octagon|*
%AMOCTAGOND28*
4,1,8,0.0148,0.0295,-0.0148,0.0295,-0.0295,0.0148,-0.0295,-0.0148,-0.0148,-0.0295,0.0148,-0.0295,0.0295,-0.0148,0.0295,0.0148,0.0148,0.0295,0.0*
%
%ADD28OCTAGOND28*%

G04:AMPARAMS|DCode=29|XSize=118.1mil|YSize=118.1mil|CornerRadius=0mil|HoleSize=0mil|Usage=FLASHONLY|Rotation=0.000|XOffset=0mil|YOffset=0mil|HoleType=Round|Shape=Octagon|*
%AMOCTAGOND29*
4,1,8,0.0591,-0.0295,0.0591,0.0295,0.0295,0.0591,-0.0295,0.0591,-0.0591,0.0295,-0.0591,-0.0295,-0.0295,-0.0591,0.0295,-0.0591,0.0591,-0.0295,0.0*
%
%ADD29OCTAGOND29*%

%ADD30C,0.0709*%
%ADD31C,0.1969*%
%ADD32C,0.0984*%
%ADD33C,0.0600*%
G04:AMPARAMS|DCode=34|XSize=393.7mil|YSize=236.2mil|CornerRadius=82.7mil|HoleSize=0mil|Usage=FLASHONLY|Rotation=0.000|XOffset=0mil|YOffset=0mil|HoleType=Round|Shape=RoundedRectangle|*
%AMROUNDEDRECTD34*
21,1,0.3937,0.0709,0,0,0.0*
21,1,0.2283,0.2362,0,0,0.0*
1,1,0.1654,0.1142,-0.0354*
1,1,0.1654,-0.1142,-0.0354*
1,1,0.1654,-0.1142,0.0354*
1,1,0.1654,0.1142,0.0354*
%
%ADD34ROUNDEDRECTD34*%
%ADD35C,0.0500*%
%ADD36R,0.0551X0.0413*%
G04:AMPARAMS|DCode=37|XSize=55mil|YSize=60mil|CornerRadius=13.8mil|HoleSize=0mil|Usage=FLASHONLY|Rotation=180.000|XOffset=0mil|YOffset=0mil|HoleType=Round|Shape=RoundedRectangle|*
%AMROUNDEDRECTD37*
21,1,0.0550,0.0325,0,0,180.0*
21,1,0.0275,0.0600,0,0,180.0*
1,1,0.0275,-0.0138,0.0163*
1,1,0.0275,0.0138,0.0163*
1,1,0.0275,0.0138,-0.0163*
1,1,0.0275,-0.0138,-0.0163*
%
%ADD37ROUNDEDRECTD37*%
%ADD38R,0.0787X0.0472*%
%ADD39R,0.2205X0.2205*%
%ADD40C,0.0295*%
%ADD41C,0.0079*%
%ADD42C,0.0039*%
%ADD43C,0.0050*%
%ADD44C,0.0059*%
%ADD45R,0.1181X0.1969*%
D15*
X33109Y8300D02*
G03*
X33109Y8300I-59J0D01*
G01*
D20*
X20994Y32902D02*
X23553D01*
X20994Y32508D02*
Y32902D01*
X21978Y29556D02*
X23946D01*
X21978D02*
Y31524D01*
X20994D02*
X21978D01*
X20009D02*
X20994Y32508D01*
X19616Y31524D02*
X20009D01*
X17057Y29949D02*
Y31524D01*
X19616D01*
X15285Y22272D02*
Y34870D01*
X15285D02*
X25915D01*
Y22272D02*
Y34870D01*
X15285Y22272D02*
X25915D01*
X18592Y23650D02*
Y25579D01*
X18632Y25619D01*
X20009D01*
X21191D02*
X22569D01*
Y23847D02*
Y25619D01*
X32181Y26408D02*
X33756D01*
X28244D02*
X30016D01*
X28244Y21093D02*
Y26408D01*
Y21093D02*
X29032D01*
X32968D02*
X33756D01*
Y26408D01*
X30016Y22668D02*
Y26408D01*
X32181Y22668D02*
Y26408D01*
X29032Y18534D02*
Y22668D01*
X32968D01*
Y18534D02*
Y22668D01*
X29032Y18534D02*
X32968D01*
X42981Y26358D02*
X44556D01*
X39044D02*
X40816D01*
X39044Y21043D02*
Y26358D01*
Y21043D02*
X39832D01*
X43769D02*
X44556D01*
Y26358D01*
X40816Y22618D02*
Y26358D01*
X42981Y22618D02*
Y26358D01*
X39832Y18484D02*
Y22618D01*
X43769D01*
Y18484D02*
Y22618D01*
X39832Y18484D02*
X43769D01*
X34000Y44000D02*
Y43400D01*
Y43700D01*
X34400D01*
Y44000D01*
Y43400D01*
X35000Y43900D02*
X34900Y44000D01*
X34700D01*
X34600Y43900D01*
Y43800D01*
X34700Y43700D01*
X34900D01*
X35000Y43600D01*
Y43500D01*
X34900Y43400D01*
X34700D01*
X34600Y43500D01*
X35200Y43400D02*
X35400D01*
X35300D01*
Y44000D01*
X35200Y43900D01*
X26930Y28100D02*
Y27600D01*
X27030Y27500D01*
X27230D01*
X27330Y27600D01*
Y28100D01*
X27530Y28000D02*
X27630Y28100D01*
X27830D01*
X27930Y28000D01*
Y27900D01*
X27830Y27800D01*
X27730D01*
X27830D01*
X27930Y27700D01*
Y27600D01*
X27830Y27500D01*
X27630D01*
X27530Y27600D01*
X37730Y28050D02*
Y27550D01*
X37830Y27450D01*
X38030D01*
X38130Y27550D01*
Y28050D01*
X38330Y27450D02*
X38530D01*
X38430D01*
Y28050D01*
X38330Y27950D01*
X24150Y38750D02*
Y38350D01*
X24350Y38150D01*
X24550Y38350D01*
Y38750D01*
X25150Y38650D02*
X25050Y38750D01*
X24850D01*
X24750Y38650D01*
Y38550D01*
X24850Y38450D01*
X25050D01*
X25150Y38350D01*
Y38250D01*
X25050Y38150D01*
X24850D01*
X24750Y38250D01*
X25350Y38650D02*
X25450Y38750D01*
X25650D01*
X25749Y38650D01*
Y38550D01*
X25650Y38450D01*
X25550D01*
X25650D01*
X25749Y38350D01*
Y38250D01*
X25650Y38150D01*
X25450D01*
X25350Y38250D01*
X37800Y38650D02*
Y38250D01*
X38000Y38050D01*
X38200Y38250D01*
Y38650D01*
X38800Y38550D02*
X38700Y38650D01*
X38500D01*
X38400Y38550D01*
Y38450D01*
X38500Y38350D01*
X38700D01*
X38800Y38250D01*
Y38150D01*
X38700Y38050D01*
X38500D01*
X38400Y38150D01*
X39000Y38050D02*
X39200D01*
X39100D01*
Y38650D01*
X39000Y38550D01*
X47650Y17400D02*
Y16900D01*
X47750Y16800D01*
X47950D01*
X48050Y16900D01*
Y17400D01*
X48250D02*
X48650D01*
Y17300D01*
X48250Y16900D01*
Y16800D01*
X51200Y17400D02*
Y16900D01*
X51300Y16800D01*
X51500D01*
X51600Y16900D01*
Y17400D01*
X52200D02*
X52000Y17300D01*
X51800Y17100D01*
Y16900D01*
X51900Y16800D01*
X52100D01*
X52200Y16900D01*
Y17000D01*
X52100Y17100D01*
X51800D01*
X37300Y17400D02*
Y16900D01*
X37400Y16800D01*
X37600D01*
X37700Y16900D01*
Y17400D01*
X38300D02*
X37900D01*
Y17100D01*
X38100Y17200D01*
X38200D01*
X38300Y17100D01*
Y16900D01*
X38200Y16800D01*
X38000D01*
X37900Y16900D01*
X55000Y17400D02*
Y16900D01*
X55100Y16800D01*
X55300D01*
X55400Y16900D01*
Y17400D01*
X55900Y16800D02*
Y17400D01*
X55600Y17100D01*
X56000D01*
X43750Y17400D02*
Y16900D01*
X43850Y16800D01*
X44050D01*
X44150Y16900D01*
Y17400D01*
X44750Y16800D02*
X44350D01*
X44750Y17200D01*
Y17300D01*
X44650Y17400D01*
X44450D01*
X44350Y17300D01*
X50250Y23200D02*
Y23800D01*
X50550D01*
X50650Y23700D01*
Y23500D01*
X50550Y23400D01*
X50250D01*
X50450D02*
X50650Y23200D01*
X50850D02*
X51050D01*
X50950D01*
Y23800D01*
X50850Y23700D01*
X51750Y23800D02*
X51350D01*
Y23500D01*
X51550Y23600D01*
X51650D01*
X51750Y23500D01*
Y23300D01*
X51650Y23200D01*
X51450D01*
X51350Y23300D01*
X50500Y28950D02*
Y29550D01*
X50800D01*
X50900Y29450D01*
Y29250D01*
X50800Y29150D01*
X50500D01*
X50700D02*
X50900Y28950D01*
X51100D02*
X51300D01*
X51200D01*
Y29550D01*
X51100Y29450D01*
X51900Y28950D02*
Y29550D01*
X51600Y29250D01*
X52000D01*
X52520Y23150D02*
Y23750D01*
X52820D01*
X52920Y23650D01*
Y23450D01*
X52820Y23350D01*
X52520D01*
X52720D02*
X52920Y23150D01*
X53120D02*
X53320D01*
X53220D01*
Y23750D01*
X53120Y23650D01*
X53620D02*
X53720Y23750D01*
X53920D01*
X54020Y23650D01*
Y23550D01*
X53920Y23450D01*
X53820D01*
X53920D01*
X54020Y23350D01*
Y23250D01*
X53920Y23150D01*
X53720D01*
X53620Y23250D01*
X52570Y29150D02*
Y29750D01*
X52870D01*
X52970Y29650D01*
Y29450D01*
X52870Y29350D01*
X52570D01*
X52770D02*
X52970Y29150D01*
X53170D02*
X53370D01*
X53270D01*
Y29750D01*
X53170Y29650D01*
X54070Y29150D02*
X53670D01*
X54070Y29550D01*
Y29650D01*
X53970Y29750D01*
X53770D01*
X53670Y29650D01*
X56140Y25070D02*
Y25670D01*
X56440D01*
X56540Y25570D01*
Y25370D01*
X56440Y25270D01*
X56140D01*
X56340D02*
X56540Y25070D01*
X56740D02*
X56940D01*
X56840D01*
Y25670D01*
X56740Y25570D01*
X57240Y25070D02*
X57440D01*
X57340D01*
Y25670D01*
X57240Y25570D01*
X56140Y31770D02*
Y32370D01*
X56440D01*
X56540Y32270D01*
Y32070D01*
X56440Y31970D01*
X56140D01*
X56340D02*
X56540Y31770D01*
X56740D02*
X56940D01*
X56840D01*
Y32370D01*
X56740Y32270D01*
X57240D02*
X57340Y32370D01*
X57540D01*
X57640Y32270D01*
Y31870D01*
X57540Y31770D01*
X57340D01*
X57240Y31870D01*
Y32270D01*
X37750Y30100D02*
Y30700D01*
X38050D01*
X38150Y30600D01*
Y30400D01*
X38050Y30300D01*
X37750D01*
X37950D02*
X38150Y30100D01*
X38350Y30200D02*
X38450Y30100D01*
X38650D01*
X38750Y30200D01*
Y30600D01*
X38650Y30700D01*
X38450D01*
X38350Y30600D01*
Y30500D01*
X38450Y30400D01*
X38750D01*
X51020Y34750D02*
Y35350D01*
X51320D01*
X51420Y35250D01*
Y35050D01*
X51320Y34950D01*
X51020D01*
X51220D02*
X51420Y34750D01*
X51620Y35250D02*
X51720Y35350D01*
X51920D01*
X52020Y35250D01*
Y35150D01*
X51920Y35050D01*
X52020Y34950D01*
Y34850D01*
X51920Y34750D01*
X51720D01*
X51620Y34850D01*
Y34950D01*
X51720Y35050D01*
X51620Y35150D01*
Y35250D01*
X51720Y35050D02*
X51920D01*
X28950Y35000D02*
Y35600D01*
X29250D01*
X29350Y35500D01*
Y35300D01*
X29250Y35200D01*
X28950D01*
X29150D02*
X29350Y35000D01*
X29550Y35600D02*
X29950D01*
Y35500D01*
X29550Y35100D01*
Y35000D01*
X52520Y34700D02*
Y35300D01*
X52820D01*
X52920Y35200D01*
Y35000D01*
X52820Y34900D01*
X52520D01*
X52720D02*
X52920Y34700D01*
X53520Y35300D02*
X53320Y35200D01*
X53120Y35000D01*
Y34800D01*
X53220Y34700D01*
X53420D01*
X53520Y34800D01*
Y34900D01*
X53420Y35000D01*
X53120D01*
X16700Y37900D02*
Y38500D01*
X17000D01*
X17100Y38400D01*
Y38200D01*
X17000Y38100D01*
X16700D01*
X16900D02*
X17100Y37900D01*
X17700Y38500D02*
X17300D01*
Y38200D01*
X17500Y38300D01*
X17600D01*
X17700Y38200D01*
Y38000D01*
X17600Y37900D01*
X17400D01*
X17300Y38000D01*
X55650Y38500D02*
Y39100D01*
X55950D01*
X56050Y39000D01*
Y38800D01*
X55950Y38700D01*
X55650D01*
X55850D02*
X56050Y38500D01*
X56550D02*
Y39100D01*
X56250Y38800D01*
X56650D01*
X48900Y30000D02*
Y30600D01*
X49200D01*
X49300Y30500D01*
Y30300D01*
X49200Y30200D01*
X48900D01*
X49100D02*
X49300Y30000D01*
X49500Y30500D02*
X49600Y30600D01*
X49800D01*
X49900Y30500D01*
Y30400D01*
X49800Y30300D01*
X49700D01*
X49800D01*
X49900Y30200D01*
Y30100D01*
X49800Y30000D01*
X49600D01*
X49500Y30100D01*
X42550Y35100D02*
Y35700D01*
X42850D01*
X42950Y35600D01*
Y35400D01*
X42850Y35300D01*
X42550D01*
X42750D02*
X42950Y35100D01*
X43550D02*
X43150D01*
X43550Y35500D01*
Y35600D01*
X43450Y35700D01*
X43250D01*
X43150Y35600D01*
X33550Y38000D02*
Y38600D01*
X33850D01*
X33950Y38500D01*
Y38300D01*
X33850Y38200D01*
X33550D01*
X33750D02*
X33950Y38000D01*
X34150D02*
X34350D01*
X34250D01*
Y38600D01*
X34150Y38500D01*
X15750Y14400D02*
X16350D01*
X16150D01*
X15750Y14800D01*
X16050Y14500D01*
X16350Y14800D01*
Y15300D02*
X15750D01*
X16050Y15000D01*
Y15400D01*
X35220Y25080D02*
Y24480D01*
Y24680D01*
X35620Y25080D01*
X35320Y24780D01*
X35620Y24480D01*
X35820Y24980D02*
X35920Y25080D01*
X36120D01*
X36220Y24980D01*
Y24880D01*
X36120Y24780D01*
X36020D01*
X36120D01*
X36220Y24680D01*
Y24580D01*
X36120Y24480D01*
X35920D01*
X35820Y24580D01*
X13050Y23150D02*
Y22550D01*
Y22750D01*
X13450Y23150D01*
X13150Y22850D01*
X13450Y22550D01*
X14050D02*
X13650D01*
X14050Y22950D01*
Y23050D01*
X13950Y23150D01*
X13750D01*
X13650Y23050D01*
X15340Y35820D02*
Y35220D01*
Y35420D01*
X15740Y35820D01*
X15440Y35520D01*
X15740Y35220D01*
X15940D02*
X16140D01*
X16040D01*
Y35820D01*
X15940Y35720D01*
X57900Y20850D02*
X57700D01*
X57800D01*
Y20350D01*
X57700Y20250D01*
X57600D01*
X57500Y20350D01*
X58100D02*
X58200Y20250D01*
X58400D01*
X58500Y20350D01*
Y20750D01*
X58400Y20850D01*
X58200D01*
X58100Y20750D01*
Y20650D01*
X58200Y20550D01*
X58500D01*
X57800Y26900D02*
X57600D01*
X57700D01*
Y26400D01*
X57600Y26300D01*
X57500D01*
X57400Y26400D01*
X58000Y26800D02*
X58100Y26900D01*
X58300D01*
X58400Y26800D01*
Y26700D01*
X58300Y26600D01*
X58400Y26500D01*
Y26400D01*
X58300Y26300D01*
X58100D01*
X58000Y26400D01*
Y26500D01*
X58100Y26600D01*
X58000Y26700D01*
Y26800D01*
X58100Y26600D02*
X58300D01*
X45800Y11500D02*
X45600D01*
X45700D01*
Y11000D01*
X45600Y10900D01*
X45500D01*
X45400Y11000D01*
X46000Y11500D02*
X46400D01*
Y11400D01*
X46000Y11000D01*
Y10900D01*
X30250Y34480D02*
X30050D01*
X30150D01*
Y33980D01*
X30050Y33880D01*
X29950D01*
X29850Y33980D01*
X30850Y34480D02*
X30650Y34380D01*
X30450Y34180D01*
Y33980D01*
X30550Y33880D01*
X30750D01*
X30850Y33980D01*
Y34080D01*
X30750Y34180D01*
X30450D01*
X57950Y30850D02*
X57750D01*
X57850D01*
Y30350D01*
X57750Y30250D01*
X57650D01*
X57550Y30350D01*
X58550Y30850D02*
X58150D01*
Y30550D01*
X58350Y30650D01*
X58450D01*
X58550Y30550D01*
Y30350D01*
X58450Y30250D01*
X58250D01*
X58150Y30350D01*
X30150Y10700D02*
X29950D01*
X30050D01*
Y10200D01*
X29950Y10100D01*
X29850D01*
X29750Y10200D01*
X30650Y10100D02*
Y10700D01*
X30350Y10400D01*
X30750D01*
X42700Y34480D02*
X42500D01*
X42600D01*
Y33980D01*
X42500Y33880D01*
X42400D01*
X42300Y33980D01*
X42900Y34380D02*
X43000Y34480D01*
X43200D01*
X43300Y34380D01*
Y34280D01*
X43200Y34180D01*
X43100D01*
X43200D01*
X43300Y34080D01*
Y33980D01*
X43200Y33880D01*
X43000D01*
X42900Y33980D01*
X33300Y16650D02*
X33100D01*
X33200D01*
Y16150D01*
X33100Y16050D01*
X33000D01*
X32900Y16150D01*
X33900Y16050D02*
X33500D01*
X33900Y16450D01*
Y16550D01*
X33800Y16650D01*
X33600D01*
X33500Y16550D01*
X25950Y12450D02*
X25750D01*
X25850D01*
Y11950D01*
X25750Y11850D01*
X25650D01*
X25550Y11950D01*
X26150Y11850D02*
X26350D01*
X26250D01*
Y12450D01*
X26150Y12350D01*
X54620Y25060D02*
X54520Y25160D01*
X54320D01*
X54220Y25060D01*
Y24660D01*
X54320Y24560D01*
X54520D01*
X54620Y24660D01*
X54820Y24560D02*
X55020D01*
X54920D01*
Y25160D01*
X54820Y25060D01*
X55720Y24560D02*
X55320D01*
X55720Y24960D01*
Y25060D01*
X55620Y25160D01*
X55420D01*
X55320Y25060D01*
X54570Y32010D02*
X54470Y32110D01*
X54270D01*
X54170Y32010D01*
Y31610D01*
X54270Y31510D01*
X54470D01*
X54570Y31610D01*
X54770Y31510D02*
X54970D01*
X54870D01*
Y32110D01*
X54770Y32010D01*
X55270Y31510D02*
X55470D01*
X55370D01*
Y32110D01*
X55270Y32010D01*
X28600Y16850D02*
X28500Y16950D01*
X28300D01*
X28200Y16850D01*
Y16450D01*
X28300Y16350D01*
X28500D01*
X28600Y16450D01*
X28800Y16350D02*
X29000D01*
X28900D01*
Y16950D01*
X28800Y16850D01*
X29300D02*
X29400Y16950D01*
X29600D01*
X29700Y16850D01*
Y16450D01*
X29600Y16350D01*
X29400D01*
X29300Y16450D01*
Y16850D01*
X22240Y38030D02*
X22140Y38130D01*
X21940D01*
X21840Y38030D01*
Y37630D01*
X21940Y37530D01*
X22140D01*
X22240Y37630D01*
X22440D02*
X22540Y37530D01*
X22740D01*
X22840Y37630D01*
Y38030D01*
X22740Y38130D01*
X22540D01*
X22440Y38030D01*
Y37930D01*
X22540Y37830D01*
X22840D01*
X54070Y39010D02*
X53970Y39110D01*
X53770D01*
X53670Y39010D01*
Y38610D01*
X53770Y38510D01*
X53970D01*
X54070Y38610D01*
X54270Y39010D02*
X54370Y39110D01*
X54570D01*
X54670Y39010D01*
Y38910D01*
X54570Y38810D01*
X54670Y38710D01*
Y38610D01*
X54570Y38510D01*
X54370D01*
X54270Y38610D01*
Y38710D01*
X54370Y38810D01*
X54270Y38910D01*
Y39010D01*
X54370Y38810D02*
X54570D01*
X41350Y15450D02*
X41250Y15550D01*
X41050D01*
X40950Y15450D01*
Y15050D01*
X41050Y14950D01*
X41250D01*
X41350Y15050D01*
X41550Y15550D02*
X41950D01*
Y15450D01*
X41550Y15050D01*
Y14950D01*
X37690Y35830D02*
X37590Y35930D01*
X37390D01*
X37290Y35830D01*
Y35430D01*
X37390Y35330D01*
X37590D01*
X37690Y35430D01*
X38190Y35330D02*
Y35930D01*
X37890Y35630D01*
X38290D01*
X27400Y19800D02*
X27300Y19900D01*
X27100D01*
X27000Y19800D01*
Y19400D01*
X27100Y19300D01*
X27300D01*
X27400Y19400D01*
X27600Y19800D02*
X27700Y19900D01*
X27900D01*
X28000Y19800D01*
Y19700D01*
X27900Y19600D01*
X27800D01*
X27900D01*
X28000Y19500D01*
Y19400D01*
X27900Y19300D01*
X27700D01*
X27600Y19400D01*
X13950Y15550D02*
X13850Y15650D01*
X13650D01*
X13550Y15550D01*
Y15150D01*
X13650Y15050D01*
X13850D01*
X13950Y15150D01*
X14550Y15050D02*
X14150D01*
X14550Y15450D01*
Y15550D01*
X14450Y15650D01*
X14250D01*
X14150Y15550D01*
X20900Y14800D02*
X20800Y14700D01*
Y14500D01*
X20900Y14400D01*
X21300D01*
X21400Y14500D01*
Y14700D01*
X21300Y14800D01*
X21400Y15000D02*
Y15200D01*
Y15100D01*
X20800D01*
X20900Y15000D01*
X59800Y12060D02*
Y11460D01*
X60100D01*
X60200Y11560D01*
Y11660D01*
X60100Y11760D01*
X59800D01*
X60100D01*
X60200Y11860D01*
Y11960D01*
X60100Y12060D01*
X59800D01*
X60400Y11460D02*
X60600D01*
X60500D01*
Y12060D01*
X60400Y11960D01*
X14900Y8900D02*
Y8300D01*
X15200D01*
X15300Y8400D01*
Y8500D01*
X15200Y8600D01*
X14900D01*
X15200D01*
X15300Y8700D01*
Y8800D01*
X15200Y8900D01*
X14900D01*
X15900Y8300D02*
X15500D01*
X15900Y8700D01*
Y8800D01*
X15800Y8900D01*
X15600D01*
X15500Y8800D01*
X12560Y36870D02*
Y36270D01*
X12860D01*
X12960Y36370D01*
Y36470D01*
X12860Y36570D01*
X12560D01*
X12860D01*
X12960Y36670D01*
Y36770D01*
X12860Y36870D01*
X12560D01*
X13160Y36770D02*
X13260Y36870D01*
X13460D01*
X13560Y36770D01*
Y36670D01*
X13460Y36570D01*
X13360D01*
X13460D01*
X13560Y36470D01*
Y36370D01*
X13460Y36270D01*
X13260D01*
X13160Y36370D01*
X59800Y36870D02*
Y36270D01*
X60100D01*
X60200Y36370D01*
Y36470D01*
X60100Y36570D01*
X59800D01*
X60100D01*
X60200Y36670D01*
Y36770D01*
X60100Y36870D01*
X59800D01*
X60700Y36270D02*
Y36870D01*
X60400Y36570D01*
X60800D01*
X57840Y42770D02*
Y42170D01*
X58140D01*
X58240Y42270D01*
Y42370D01*
X58140Y42470D01*
X57840D01*
X58140D01*
X58240Y42570D01*
Y42670D01*
X58140Y42770D01*
X57840D01*
X58840D02*
X58440D01*
Y42470D01*
X58640Y42570D01*
X58740D01*
X58840Y42470D01*
Y42270D01*
X58740Y42170D01*
X58540D01*
X58440Y42270D01*
X15150Y43000D02*
Y42400D01*
X15450D01*
X15550Y42500D01*
Y42600D01*
X15450Y42700D01*
X15150D01*
X15450D01*
X15550Y42800D01*
Y42900D01*
X15450Y43000D01*
X15150D01*
X16150D02*
X15950Y42900D01*
X15750Y42700D01*
Y42500D01*
X15850Y42400D01*
X16050D01*
X16150Y42500D01*
Y42600D01*
X16050Y42700D01*
X15750D01*
X54450Y20250D02*
Y20850D01*
X54650Y20650D01*
X54850Y20850D01*
Y20250D01*
X55050D02*
X55250D01*
X55150D01*
Y20650D01*
X55050D01*
X55550D02*
X55950Y20250D01*
X55750Y20450D01*
X55950Y20650D01*
X55550Y20250D01*
X56449D02*
X56249D01*
X56149Y20350D01*
Y20550D01*
X56249Y20650D01*
X56449D01*
X56549Y20550D01*
Y20450D01*
X56149D01*
X56749Y20650D02*
Y20250D01*
Y20450D01*
X56849Y20550D01*
X56949Y20650D01*
X57049D01*
X54450Y26300D02*
Y26900D01*
X54750D01*
X54850Y26800D01*
Y26600D01*
X54750Y26500D01*
X54450D01*
X55050Y26700D02*
Y26400D01*
X55150Y26300D01*
X55450D01*
Y26700D01*
X55650Y26300D02*
Y26700D01*
X55750D01*
X55850Y26600D01*
Y26300D01*
Y26600D01*
X55950Y26700D01*
X56049Y26600D01*
Y26300D01*
X56249Y26100D02*
Y26700D01*
X56549D01*
X56649Y26600D01*
Y26400D01*
X56549Y26300D01*
X56249D01*
X54200Y33300D02*
X54100Y33400D01*
X53900D01*
X53800Y33300D01*
Y32900D01*
X53900Y32800D01*
X54100D01*
X54200Y32900D01*
X54500Y32800D02*
X54700D01*
X54800Y32900D01*
Y33100D01*
X54700Y33200D01*
X54500D01*
X54400Y33100D01*
Y32900D01*
X54500Y32800D01*
X55100D02*
X55300D01*
X55399Y32900D01*
Y33100D01*
X55300Y33200D01*
X55100D01*
X55000Y33100D01*
Y32900D01*
X55100Y32800D01*
X55599D02*
X55799D01*
X55699D01*
Y33400D01*
X55599D01*
X56399Y32800D02*
X56199D01*
X56099Y32900D01*
Y33100D01*
X56199Y33200D01*
X56399D01*
X56499Y33100D01*
Y33000D01*
X56099D01*
X56699Y33200D02*
Y32800D01*
Y33000D01*
X56799Y33100D01*
X56899Y33200D01*
X56999D01*
X58299Y33400D02*
X57899D01*
Y33100D01*
X58099D01*
X57899D01*
Y32800D01*
X58498D02*
Y33200D01*
X58698Y33400D01*
X58898Y33200D01*
Y32800D01*
Y33100D01*
X58498D01*
X59098Y32800D02*
Y33400D01*
X59498Y32800D01*
Y33400D01*
X41900Y28850D02*
Y28250D01*
Y28550D01*
X42300D01*
Y28850D01*
Y28250D01*
X42800D02*
X42600D01*
X42500Y28350D01*
Y28550D01*
X42600Y28650D01*
X42800D01*
X42900Y28550D01*
Y28450D01*
X42500D01*
X43200Y28650D02*
X43400D01*
X43499Y28550D01*
Y28250D01*
X43200D01*
X43100Y28350D01*
X43200Y28450D01*
X43499D01*
X43799Y28750D02*
Y28650D01*
X43699D01*
X43899D01*
X43799D01*
Y28350D01*
X43899Y28250D01*
X44499D02*
X44299D01*
X44199Y28350D01*
Y28550D01*
X44299Y28650D01*
X44499D01*
X44599Y28550D01*
Y28450D01*
X44199D01*
X44799Y28650D02*
Y28250D01*
Y28450D01*
X44899Y28550D01*
X44999Y28650D01*
X45099D01*
X45999Y28250D02*
X46199D01*
X46099D01*
Y28850D01*
X45999Y28750D01*
X29450Y28750D02*
Y28150D01*
Y28450D01*
X29850D01*
Y28750D01*
Y28150D01*
X30350D02*
X30150D01*
X30050Y28250D01*
Y28450D01*
X30150Y28550D01*
X30350D01*
X30450Y28450D01*
Y28350D01*
X30050D01*
X30750Y28550D02*
X30950D01*
X31049Y28450D01*
Y28150D01*
X30750D01*
X30650Y28250D01*
X30750Y28350D01*
X31049D01*
X31349Y28650D02*
Y28550D01*
X31249D01*
X31449D01*
X31349D01*
Y28250D01*
X31449Y28150D01*
X32049D02*
X31849D01*
X31749Y28250D01*
Y28450D01*
X31849Y28550D01*
X32049D01*
X32149Y28450D01*
Y28350D01*
X31749D01*
X32349Y28550D02*
Y28150D01*
Y28350D01*
X32449Y28450D01*
X32549Y28550D01*
X32649D01*
X33949Y28150D02*
X33549D01*
X33949Y28550D01*
Y28650D01*
X33849Y28750D01*
X33649D01*
X33549Y28650D01*
X42900Y9200D02*
X43300D01*
X43100D01*
Y8600D01*
X43800D02*
X43600D01*
X43500Y8700D01*
Y8900D01*
X43600Y9000D01*
X43800D01*
X43900Y8900D01*
Y8800D01*
X43500D01*
X44100Y8600D02*
Y9000D01*
X44200D01*
X44300Y8900D01*
Y8600D01*
Y8900D01*
X44400Y9000D01*
X44499Y8900D01*
Y8600D01*
X44699Y8400D02*
Y9000D01*
X44999D01*
X45099Y8900D01*
Y8700D01*
X44999Y8600D01*
X44699D01*
X30850Y14900D02*
X30450D01*
Y14600D01*
X30650D01*
X30450D01*
Y14300D01*
X31050D02*
Y14700D01*
X31250Y14900D01*
X31450Y14700D01*
Y14300D01*
Y14600D01*
X31050D01*
X31650Y14300D02*
Y14900D01*
X32049Y14300D01*
Y14900D01*
X48250Y18250D02*
X47650D01*
Y18550D01*
X47750Y18650D01*
X47950D01*
X48050Y18550D01*
Y18250D01*
X48250Y18950D02*
Y19150D01*
X48150Y19250D01*
X47950D01*
X47850Y19150D01*
Y18950D01*
X47950Y18850D01*
X48150D01*
X48250Y18950D01*
X47850Y19450D02*
X48150D01*
X48250Y19550D01*
X48150Y19650D01*
X48250Y19750D01*
X48150Y19849D01*
X47850D01*
X48250Y20349D02*
Y20149D01*
X48150Y20049D01*
X47950D01*
X47850Y20149D01*
Y20349D01*
X47950Y20449D01*
X48050D01*
Y20049D01*
X47850Y20649D02*
X48250D01*
X48050D01*
X47950Y20749D01*
X47850Y20849D01*
Y20949D01*
X48250Y21849D02*
X47650D01*
Y22149D01*
X47750Y22249D01*
X47950D01*
X48050Y22149D01*
Y21849D01*
X47750Y22849D02*
X47650Y22749D01*
Y22549D01*
X47750Y22449D01*
X48150D01*
X48250Y22549D01*
Y22749D01*
X48150Y22849D01*
X47650Y23048D02*
X48250D01*
Y23348D01*
X48150Y23448D01*
X48050D01*
X47950Y23348D01*
Y23048D01*
Y23348D01*
X47850Y23448D01*
X47750D01*
X47650Y23348D01*
Y23048D01*
X47850Y24248D02*
X48250Y24448D01*
X47850Y24648D01*
X48250Y24848D02*
X48150D01*
Y24948D01*
X48250D01*
Y24848D01*
Y25948D02*
Y26147D01*
Y26047D01*
X47650D01*
X47750Y25948D01*
X48250Y26447D02*
X48150D01*
Y26547D01*
X48250D01*
Y26447D01*
X47750Y26947D02*
X47650Y27047D01*
Y27247D01*
X47750Y27347D01*
X48150D01*
X48250Y27247D01*
Y27047D01*
X48150Y26947D01*
X47750D01*
X47250Y18250D02*
X46650D01*
Y18550D01*
X46750Y18650D01*
X46950D01*
X47050Y18550D01*
Y18250D01*
X47250Y18950D02*
Y19150D01*
X47150Y19250D01*
X46950D01*
X46850Y19150D01*
Y18950D01*
X46950Y18850D01*
X47150D01*
X47250Y18950D01*
X46850Y19450D02*
X47150D01*
X47250Y19550D01*
X47150Y19650D01*
X47250Y19750D01*
X47150Y19849D01*
X46850D01*
X47250Y20349D02*
Y20149D01*
X47150Y20049D01*
X46950D01*
X46850Y20149D01*
Y20349D01*
X46950Y20449D01*
X47050D01*
Y20049D01*
X46850Y20649D02*
X47250D01*
X47050D01*
X46950Y20749D01*
X46850Y20849D01*
Y20949D01*
X47250Y21849D02*
X46650D01*
X46850Y22049D01*
X46650Y22249D01*
X47250D01*
Y22549D02*
Y22749D01*
X47150Y22849D01*
X46950D01*
X46850Y22749D01*
Y22549D01*
X46950Y22449D01*
X47150D01*
X47250Y22549D01*
X46650Y23448D02*
X47250D01*
Y23148D01*
X47150Y23048D01*
X46950D01*
X46850Y23148D01*
Y23448D01*
Y23648D02*
X47150D01*
X47250Y23748D01*
Y24048D01*
X46850D01*
X47250Y24248D02*
Y24448D01*
Y24348D01*
X46650D01*
Y24248D01*
X47250Y25048D02*
Y24848D01*
X47150Y24748D01*
X46950D01*
X46850Y24848D01*
Y25048D01*
X46950Y25148D01*
X47050D01*
Y24748D01*
X49200Y11000D02*
Y11600D01*
X49600Y11000D01*
Y11600D01*
X49800Y11000D02*
X50000D01*
X49900D01*
Y11400D01*
X49800D01*
X50300Y11000D02*
Y11600D01*
Y11200D02*
X50600Y11400D01*
X50300Y11200D02*
X50600Y11000D01*
X50999D02*
X51199D01*
X51299Y11100D01*
Y11300D01*
X51199Y11400D01*
X50999D01*
X50899Y11300D01*
Y11100D01*
X50999Y11000D01*
X51499Y10800D02*
Y11400D01*
X51799D01*
X51899Y11300D01*
Y11100D01*
X51799Y11000D01*
X51499D01*
X52199D02*
X52399D01*
X52499Y11100D01*
Y11300D01*
X52399Y11400D01*
X52199D01*
X52099Y11300D01*
Y11100D01*
X52199Y11000D01*
X52699D02*
X52899D01*
X52799D01*
Y11600D01*
X52699D01*
X53998Y11000D02*
X53799Y11200D01*
Y11400D01*
X53998Y11600D01*
X54698Y11500D02*
X54598Y11600D01*
X54398D01*
X54298Y11500D01*
Y11100D01*
X54398Y11000D01*
X54598D01*
X54698Y11100D01*
X54898Y11000D02*
X55098Y11200D01*
Y11400D01*
X54898Y11600D01*
X46500Y10200D02*
X46400Y10300D01*
X46200D01*
X46100Y10200D01*
Y10100D01*
X46200Y10000D01*
X46400D01*
X46500Y9900D01*
Y9800D01*
X46400Y9700D01*
X46200D01*
X46100Y9800D01*
X46700Y9500D02*
Y10100D01*
X47000D01*
X47100Y10000D01*
Y9800D01*
X47000Y9700D01*
X46700D01*
X47300D02*
X47500D01*
X47400D01*
Y10100D01*
X47300D01*
X47799D02*
Y9700D01*
Y9900D01*
X47899Y10000D01*
X47999Y10100D01*
X48099D01*
X48499Y10200D02*
Y10100D01*
X48399D01*
X48599D01*
X48499D01*
Y9800D01*
X48599Y9700D01*
X49899Y10100D02*
X49599D01*
X49499Y10000D01*
Y9800D01*
X49599Y9700D01*
X49899D01*
X50199D02*
X50399D01*
X50499Y9800D01*
Y10000D01*
X50399Y10100D01*
X50199D01*
X50099Y10000D01*
Y9800D01*
X50199Y9700D01*
X50699D02*
Y10100D01*
X50998D01*
X51098Y10000D01*
Y9700D01*
X51398Y10200D02*
Y10100D01*
X51298D01*
X51498D01*
X51398D01*
Y9800D01*
X51498Y9700D01*
X51798Y10100D02*
Y9700D01*
Y9900D01*
X51898Y10000D01*
X51998Y10100D01*
X52098D01*
X52498Y9700D02*
X52698D01*
X52798Y9800D01*
Y10000D01*
X52698Y10100D01*
X52498D01*
X52398Y10000D01*
Y9800D01*
X52498Y9700D01*
X52998D02*
X53198D01*
X53098D01*
Y10300D01*
X52998D01*
X53498Y9700D02*
X53698D01*
X53598D01*
Y10300D01*
X53498D01*
X54297Y9700D02*
X54097D01*
X53997Y9800D01*
Y10000D01*
X54097Y10100D01*
X54297D01*
X54397Y10000D01*
Y9900D01*
X53997D01*
X54597Y10100D02*
Y9700D01*
Y9900D01*
X54697Y10000D01*
X54797Y10100D01*
X54897D01*
X55797D02*
X55997Y9700D01*
X56197Y10100D01*
X57396Y9700D02*
X56996D01*
X57396Y10100D01*
Y10200D01*
X57296Y10300D01*
X57096D01*
X56996Y10200D01*
X57596Y9700D02*
Y9800D01*
X57696D01*
Y9700D01*
X57596D01*
X58096Y10200D02*
X58196Y10300D01*
X58396D01*
X58496Y10200D01*
Y9800D01*
X58396Y9700D01*
X58196D01*
X58096Y9800D01*
Y10200D01*
D41*
X17985Y11520D02*
G03*
X18815Y11520I415J-892D01*
G01*
X20485D02*
G03*
X21315Y11520I415J-892D01*
G01*
X22985D02*
G03*
X23815Y11520I415J-892D01*
G01*
X19409Y11021D02*
G03*
X17391Y11021I-1009J-394D01*
G01*
X21909D02*
G03*
X19891Y11021I-1009J-394D01*
G01*
X24409D02*
G03*
X22391Y11021I-1009J-394D01*
G01*
X24535Y11218D02*
G03*
X22265Y11218I-1135J-591D01*
G01*
X22035D02*
G03*
X19765Y11218I-1135J-591D01*
G01*
X19535D02*
G03*
X17265Y11218I-1135J-591D01*
G01*
X17391Y10234D02*
G03*
X19409Y10234I1009J394D01*
G01*
X19891D02*
G03*
X21909Y10234I1009J394D01*
G01*
X22391D02*
G03*
X24409Y10234I1009J394D01*
G01*
X22265Y10037D02*
G03*
X24535Y10037I1135J591D01*
G01*
X19765D02*
G03*
X22035Y10037I1135J591D01*
G01*
X17265D02*
G03*
X19535Y10037I1135J591D01*
G01*
X44759Y30250D02*
G03*
X44759Y30250I-787J0D01*
G01*
Y32250D02*
G03*
X44759Y32250I-787J0D01*
G01*
X44680Y31250D02*
G03*
X44680Y31250I-197J0D01*
G01*
X31730Y11750D02*
G03*
X31370Y11750I-180J0D01*
G01*
X36730D02*
G03*
X36370Y11750I-180J0D01*
G01*
X41730D02*
G03*
X41370Y11750I-180J0D01*
G01*
X61209Y28700D02*
G03*
X61209Y28700I-787J0D01*
G01*
Y30700D02*
G03*
X61209Y30700I-787J0D01*
G01*
X61130Y29700D02*
G03*
X61130Y29700I-197J0D01*
G01*
X32309Y30250D02*
G03*
X32309Y30250I-787J0D01*
G01*
Y32250D02*
G03*
X32309Y32250I-787J0D01*
G01*
X32230Y31250D02*
G03*
X32230Y31250I-197J0D01*
G01*
X61209Y24700D02*
G03*
X61209Y24700I-787J0D01*
G01*
Y26700D02*
G03*
X61209Y26700I-787J0D01*
G01*
X61130Y25700D02*
G03*
X61130Y25700I-197J0D01*
G01*
X61209Y20700D02*
G03*
X61209Y20700I-787J0D01*
G01*
Y22700D02*
G03*
X61209Y22700I-787J0D01*
G01*
X61130Y21700D02*
G03*
X61130Y21700I-197J0D01*
G01*
X36924Y38050D02*
G03*
X36924Y38050I-1024J0D01*
G01*
X58674Y37400D02*
G03*
X58674Y37400I-1024J0D01*
G01*
X20224Y38050D02*
G03*
X20224Y38050I-1024J0D01*
G01*
X58124Y29100D02*
G03*
X58124Y29100I-1024J0D01*
G01*
Y22400D02*
G03*
X58124Y22400I-1024J0D01*
G01*
X13603Y16503D02*
G03*
X12422Y15326I0J-1181D01*
G01*
X15178Y15322D02*
G03*
X13997Y16503I-1181J0D01*
G01*
X12422Y11778D02*
G03*
X13603Y10597I1181J0D01*
G01*
X13997Y10597D02*
G03*
X15178Y11774I0J1181D01*
G01*
X12130Y14205D02*
G03*
X12422Y13884I389J61D01*
G01*
X15469Y12902D02*
G03*
X15178Y13216I-388J-68D01*
G01*
X22824Y16128D02*
G03*
X21647Y14947I4J-1181D01*
G01*
X21647Y14553D02*
G03*
X22828Y13372I1181J0D01*
G01*
X27553Y14947D02*
G03*
X26372Y16128I-1181J0D01*
G01*
X26376Y13372D02*
G03*
X27553Y14553I-4J1181D01*
G01*
X24266Y16128D02*
G03*
X23945Y16420I-382J-97D01*
G01*
X24934Y13372D02*
G03*
X25248Y13081I382J97D01*
G01*
X41450Y15924D02*
Y16376D01*
X54791Y35333D02*
Y38167D01*
X53609Y35333D02*
Y38167D01*
Y35333D02*
X54791D01*
X53609Y38167D02*
X54791D01*
X21783Y37191D02*
X24617D01*
X21783Y36009D02*
X24617D01*
Y37191D01*
X21783Y36009D02*
Y37191D01*
X55291Y28333D02*
Y31167D01*
X54109Y28333D02*
Y31167D01*
Y28333D02*
X55291D01*
X54109Y31167D02*
X55291D01*
X55341Y21383D02*
Y24217D01*
X54159Y21383D02*
Y24217D01*
Y21383D02*
X55341D01*
X54159Y24217D02*
X55341D01*
X17099Y12436D02*
X17150D01*
X17029Y12377D02*
X17099Y12436D01*
X16926Y12377D02*
X17029D01*
X16926D02*
Y12658D01*
X17029D01*
X17099Y12599D01*
X17150D01*
Y7990D02*
Y12911D01*
Y7990D02*
X24650D01*
Y12911D01*
X17150D02*
X24650D01*
X17099Y9213D02*
X17150D01*
X17029Y9272D02*
X17099Y9213D01*
X16926Y9272D02*
X17029D01*
X16926Y8991D02*
Y9272D01*
Y8991D02*
X17029D01*
X17099Y9050D01*
X17150D01*
Y12714D02*
X24650D01*
X17150Y12027D02*
X24650D01*
X17150Y11907D02*
X24650D01*
X17150Y9238D02*
X24650D01*
X17150Y8147D02*
X24650Y8147D01*
X17808Y9841D02*
X18483Y10515D01*
X18933Y11355D02*
X18992Y11414D01*
X20113Y10036D02*
X20645Y10567D01*
X20308Y9841D02*
X20983Y10515D01*
X22613Y10036D02*
X23145Y10567D01*
X22808Y9841D02*
X23483Y10515D01*
X17150Y11218D02*
X17265D01*
X17391Y11021D01*
X17150D02*
X17391D01*
X19409D02*
X19535Y11218D01*
X19765D01*
X19891Y11021D01*
X19409D02*
X19891D01*
X21909D02*
X22035Y11218D01*
X22265D01*
X22391Y11021D01*
X21909D02*
X22391D01*
X24409D02*
X24650D01*
X24409D02*
X24535Y11218D01*
X24650D01*
X24409Y10234D02*
X24650D01*
X24409D02*
X24535Y10037D01*
X24650D01*
X22265D02*
X22391Y10234D01*
X21909D02*
X22391D01*
X21909D02*
X22035Y10037D01*
X22265D01*
X19765D02*
X19891Y10234D01*
X19409D02*
X19891D01*
X19409D02*
X19535Y10037D01*
X19765D01*
X17150D02*
X17265D01*
X17391Y10234D01*
X17150D02*
X17391D01*
X23933Y11355D02*
X23992Y11414D01*
X23985Y11017D02*
X24187Y11219D01*
X21485Y11017D02*
X21687Y11219D01*
X21433Y11355D02*
X21492Y11414D01*
X18985Y11017D02*
X19187Y11219D01*
X17613Y10036D02*
X18145Y10567D01*
X34550Y13400D02*
Y15684D01*
X32550Y13400D02*
X34550D01*
X32550D02*
Y15684D01*
X34550D01*
X33050Y15081D02*
X34050D01*
X33050D02*
Y15684D01*
X34050Y15081D02*
Y15684D01*
X33050Y15290D02*
X34050D01*
X33157D02*
Y15684D01*
X33943Y15290D02*
Y15684D01*
X42998Y29250D02*
Y33250D01*
X44952Y29250D02*
Y33250D01*
X43151Y29250D02*
Y33250D01*
X44802Y29250D02*
Y33250D01*
X42436Y29250D02*
Y33250D01*
X42527D02*
Y33316D01*
X42450Y33407D02*
X42527Y33316D01*
X42450Y33407D02*
Y33542D01*
X42815D01*
Y33407D02*
Y33542D01*
X42739Y33316D02*
X42815Y33407D01*
X42739Y33250D02*
Y33316D01*
X42239Y33250D02*
X46097D01*
X42239Y29250D02*
Y33250D01*
Y29250D02*
X46097D01*
Y33250D01*
X33050Y8890D02*
X33390Y8550D01*
X32710D02*
X33050Y8890D01*
X39960Y8640D02*
Y8890D01*
X39140Y8640D02*
Y8890D01*
X31510Y9519D02*
X32460D01*
X31510Y10781D02*
X32460D01*
X31390Y9550D02*
X31510D01*
X31390D02*
Y10750D01*
X31510D01*
X34140Y8640D02*
Y8890D01*
X33750Y8550D02*
Y8640D01*
X34960D02*
Y8890D01*
X35350Y8550D02*
Y8640D01*
X40640Y9519D02*
X41590D01*
X40640Y10781D02*
X41590D01*
Y10750D02*
X41710D01*
X41590Y9550D02*
X41710D01*
Y10750D01*
X40640Y9519D02*
Y10781D01*
X38750Y8640D02*
X40350D01*
X35075Y11390D02*
X38025D01*
Y11141D02*
Y11750D01*
X39396Y11000D02*
X39675D01*
Y11750D01*
X40500Y11390D02*
X41590D01*
Y8890D02*
Y11390D01*
X37375Y8890D02*
X41590D01*
X32460Y9519D02*
Y10781D01*
X33750Y8640D02*
X35350D01*
X37375Y8550D02*
Y9280D01*
X35725Y8550D02*
Y9280D01*
X31510Y8890D02*
X35725D01*
X31510D02*
Y11390D01*
X33425D01*
X35075Y11141D02*
Y11750D01*
X33425Y11000D02*
X33704D01*
X33425D02*
Y11750D01*
X41730D02*
X41990D01*
X36730D02*
X41370D01*
X31730D02*
X36370D01*
X31110D02*
X31370D01*
X31110Y8550D02*
Y11750D01*
Y8550D02*
X33750D01*
X35350D02*
X38750D01*
Y8640D01*
X40350Y8550D02*
Y8640D01*
Y8550D02*
X41990D01*
Y11750D01*
X59448Y27700D02*
Y31700D01*
X61402Y27700D02*
Y31700D01*
X59601Y27700D02*
Y31700D01*
X61252Y27700D02*
Y31700D01*
X58886Y27700D02*
Y31700D01*
X58977D02*
Y31766D01*
X58900Y31857D02*
X58977Y31766D01*
X58900Y31857D02*
Y31992D01*
X59265D01*
Y31857D02*
Y31992D01*
X59189Y31766D02*
X59265Y31857D01*
X59189Y31700D02*
Y31766D01*
X58689Y31700D02*
X62547D01*
X58689Y27700D02*
Y31700D01*
Y27700D02*
X62547D01*
Y31700D01*
X30548Y29250D02*
Y33250D01*
X32501Y29250D02*
Y33250D01*
X30701Y29250D02*
Y33250D01*
X32352Y29250D02*
Y33250D01*
X29986Y29250D02*
Y33250D01*
X30077D02*
Y33316D01*
X30000Y33407D02*
X30077Y33316D01*
X30000Y33407D02*
Y33542D01*
X30365D01*
Y33407D02*
Y33542D01*
X30289Y33316D02*
X30365Y33407D01*
X30289Y33250D02*
Y33316D01*
X29789Y33250D02*
X33647D01*
X29789Y29250D02*
Y33250D01*
Y29250D02*
X33647D01*
Y33250D01*
X43000Y9416D02*
Y11700D01*
X45000D01*
Y9416D02*
Y11700D01*
X43000Y9416D02*
X45000D01*
X43500Y10019D02*
X44500D01*
Y9416D02*
Y10019D01*
X43500Y9416D02*
Y10019D01*
Y9810D02*
X44500D01*
X44393Y9416D02*
Y9810D01*
X43607Y9416D02*
Y9810D01*
X59448Y23700D02*
Y27700D01*
X61402Y23700D02*
Y27700D01*
X59601Y23700D02*
Y27700D01*
X61252Y23700D02*
Y27700D01*
X58886Y23700D02*
Y27700D01*
X58977D02*
Y27766D01*
X58900Y27857D02*
X58977Y27766D01*
X58900Y27857D02*
Y27992D01*
X59265D01*
Y27857D02*
Y27992D01*
X59189Y27766D02*
X59265Y27857D01*
X59189Y27700D02*
Y27766D01*
X58689Y27700D02*
X62547D01*
X58689Y23700D02*
Y27700D01*
Y23700D02*
X62547D01*
Y27700D01*
X59448Y19700D02*
Y23700D01*
X61402Y19700D02*
Y23700D01*
X59601Y19700D02*
Y23700D01*
X61252Y19700D02*
Y23700D01*
X58886Y19700D02*
Y23700D01*
X58977D02*
Y23766D01*
X58900Y23857D02*
X58977Y23766D01*
X58900Y23857D02*
Y23992D01*
X59265D01*
Y23857D02*
Y23992D01*
X59189Y23766D02*
X59265Y23857D01*
X59189Y23700D02*
Y23766D01*
X58689Y23700D02*
X62547D01*
X58689Y19700D02*
Y23700D01*
Y19700D02*
X62547D01*
Y23700D01*
X35900Y36524D02*
Y37578D01*
X48050Y28745D02*
Y29060D01*
Y31540D02*
Y31855D01*
X48542Y29060D02*
Y31540D01*
X47558Y29060D02*
X48542D01*
X47558D02*
Y31540D01*
X48542D01*
X56124Y37400D02*
X57178D01*
X19200Y36524D02*
Y37578D01*
X52950Y33290D02*
Y33605D01*
Y30495D02*
Y30810D01*
X52458D02*
Y33290D01*
X53442D01*
Y30810D02*
Y33290D01*
X52458Y30810D02*
X53442D01*
X51450Y30545D02*
Y30860D01*
Y33340D02*
Y33655D01*
X51942Y30860D02*
Y33340D01*
X50958Y30860D02*
X51942D01*
X50958D02*
Y33340D01*
X51942D01*
X57100Y29572D02*
Y30626D01*
Y22872D02*
Y23926D01*
X53000Y27740D02*
Y28055D01*
Y24945D02*
Y25260D01*
X52508D02*
Y27740D01*
X53492D01*
Y25260D02*
Y27740D01*
X52508Y25260D02*
X53492D01*
X51550Y24945D02*
Y25260D01*
Y27740D02*
Y28055D01*
X52042Y25260D02*
Y27740D01*
X51058Y25260D02*
X52042D01*
X51058D02*
Y27740D01*
X52042D01*
X30640Y36500D02*
X30955D01*
X27845D02*
X28160D01*
Y36992D02*
X30640D01*
Y36008D02*
Y36992D01*
X28160Y36008D02*
X30640D01*
X28160D02*
Y36992D01*
X44240Y36500D02*
X44555D01*
X41445D02*
X41760D01*
Y36992D02*
X44240D01*
Y36008D02*
Y36992D01*
X41760Y36008D02*
X44240D01*
X41760D02*
Y36992D01*
X37233Y34991D02*
X40067D01*
X37233Y33809D02*
X40067D01*
Y34991D01*
X37233Y33809D02*
Y34991D01*
X36900Y28895D02*
Y29210D01*
Y31690D02*
Y32005D01*
X37392Y29210D02*
Y31690D01*
X36408Y29210D02*
X37392D01*
X36408D02*
Y31690D01*
X37392D01*
X14299Y16941D02*
X26701D01*
X14299Y22059D02*
X26701D01*
X14299Y16941D02*
Y22059D01*
X26701Y16941D02*
Y22059D01*
X51550Y18895D02*
Y19210D01*
Y21690D02*
Y22005D01*
X52042Y19210D02*
Y21690D01*
X51058Y19210D02*
X52042D01*
X51058D02*
Y21690D01*
X52042D01*
X52950Y21740D02*
Y22055D01*
Y18945D02*
Y19260D01*
X52458D02*
Y21740D01*
X53442D01*
Y19260D02*
Y21740D01*
X52458Y19260D02*
X53442D01*
X30650Y15924D02*
Y16376D01*
X13603Y16503D02*
X13997D01*
X12422Y11778D02*
Y14302D01*
X15178Y12798D02*
Y15322D01*
X13603Y10597D02*
X13997Y10597D01*
X12094Y14422D02*
X12131Y14198D01*
X15469Y12902D02*
X15509Y12676D01*
X21647Y14553D02*
Y14947D01*
X23848Y16128D02*
X26372D01*
X22828Y13372D02*
X25352D01*
X27553Y14553D02*
X27553Y14947D01*
X23728Y16456D02*
X23952Y16419D01*
X25248Y13081D02*
X25474Y13041D01*
D42*
X36127Y14150D02*
G03*
X36127Y14650I0J250D01*
G01*
X53877Y14350D02*
G03*
X53877Y14850I0J250D01*
G01*
X50177Y14250D02*
G03*
X50177Y14750I0J250D01*
G01*
X46477Y14200D02*
G03*
X46477Y14700I0J250D01*
G01*
X42777Y14150D02*
G03*
X42777Y14650I0J250D01*
G01*
X36127Y13400D02*
Y14150D01*
Y14650D02*
Y15400D01*
X39473D01*
Y13400D02*
Y15400D01*
X36127Y13400D02*
X39473D01*
X53877Y13600D02*
Y14350D01*
Y14850D02*
Y15600D01*
X57223D01*
Y13600D02*
Y15600D01*
X53877Y13600D02*
X57223D01*
X50177Y13500D02*
Y14250D01*
Y14750D02*
Y15500D01*
X53523D01*
Y13500D02*
Y15500D01*
X50177Y13500D02*
X53523D01*
X46477Y13450D02*
Y14200D01*
Y14700D02*
Y15450D01*
X49823D01*
Y13450D02*
Y15450D01*
X46477Y13450D02*
X49823D01*
X42777Y13400D02*
Y14150D01*
Y14650D02*
Y15400D01*
X46123D01*
Y13400D02*
Y15400D01*
X42777Y13400D02*
X46123D01*
D43*
X13041Y39450D02*
Y53230D01*
Y39450D02*
X61859D01*
Y53230D01*
X13041D02*
X61859D01*
X35150Y20150D02*
X37150D01*
X35150Y24150D02*
X37150D01*
X35150Y20150D02*
Y24150D01*
X37150Y20150D02*
Y24150D01*
X16581Y13213D02*
Y16363D01*
X20519D01*
X16581Y13213D02*
X20519D01*
Y16363D01*
X17172Y13213D02*
Y13469D01*
X17959D01*
Y13213D02*
Y13469D01*
X19141Y13213D02*
Y13469D01*
X19928D01*
Y13213D02*
Y13469D01*
X26250Y39350D02*
X32550D01*
X26250Y38800D02*
X32550D01*
X28567Y39166D02*
Y39350D01*
Y38800D02*
Y38967D01*
X30233Y38800D02*
Y38967D01*
X26250Y37379D02*
Y39350D01*
Y37379D02*
X32550D01*
Y39350D01*
X30233Y39166D02*
X30233Y39350D01*
X39850D02*
X46150D01*
X39850Y38800D02*
X46150D01*
X42167Y39166D02*
Y39350D01*
Y38800D02*
Y38967D01*
X43833Y38800D02*
Y38967D01*
X39850Y37379D02*
Y39350D01*
Y37379D02*
X46150D01*
Y39350D01*
X43833Y39166D02*
X43833Y39350D01*
X12600Y27350D02*
X14600D01*
X12600Y23350D02*
X14600D01*
Y27350D01*
X12600Y23350D02*
Y27350D01*
X39800Y11524D02*
X39838Y11543D01*
X39895Y11600D01*
Y11200D01*
X40322Y11543D02*
X40303Y11581D01*
X40246Y11600D01*
X40208D01*
X40150Y11581D01*
X40112Y11524D01*
X40093Y11429D01*
Y11333D01*
X40112Y11257D01*
X40150Y11219D01*
X40208Y11200D01*
X40227D01*
X40284Y11219D01*
X40322Y11257D01*
X40341Y11314D01*
Y11333D01*
X40322Y11390D01*
X40284Y11429D01*
X40227Y11448D01*
X40208D01*
X40150Y11429D01*
X40112Y11390D01*
X40093Y11333D01*
D44*
X18400Y12521D02*
X18437Y12540D01*
X18494Y12596D01*
Y12202D01*
X20809Y12502D02*
Y12521D01*
X20827Y12558D01*
X20846Y12577D01*
X20884Y12596D01*
X20959D01*
X20996Y12577D01*
X21015Y12558D01*
X21034Y12521D01*
Y12484D01*
X21015Y12446D01*
X20977Y12390D01*
X20790Y12202D01*
X21052D01*
X23437Y12596D02*
X23644D01*
X23531Y12446D01*
X23587D01*
X23625Y12427D01*
X23644Y12409D01*
X23662Y12352D01*
Y12315D01*
X23644Y12259D01*
X23606Y12221D01*
X23550Y12202D01*
X23494D01*
X23437Y12221D01*
X23419Y12240D01*
X23400Y12277D01*
X34137Y13681D02*
X34099Y13662D01*
X34043Y13606D01*
Y14000D01*
X45475Y30356D02*
X45494D01*
X45531Y30338D01*
X45550Y30319D01*
X45569Y30281D01*
Y30206D01*
X45550Y30169D01*
X45531Y30150D01*
X45494Y30131D01*
X45456D01*
X45419Y30150D01*
X45362Y30188D01*
X45175Y30375D01*
Y30113D01*
X45494Y32313D02*
X45512Y32275D01*
X45569Y32219D01*
X45175D01*
X61925Y28806D02*
X61944D01*
X61981Y28788D01*
X62000Y28769D01*
X62019Y28731D01*
Y28656D01*
X62000Y28619D01*
X61981Y28600D01*
X61944Y28581D01*
X61906D01*
X61869Y28600D01*
X61812Y28638D01*
X61625Y28825D01*
Y28563D01*
X61944Y30763D02*
X61962Y30725D01*
X62019Y30669D01*
X61625D01*
X33025Y30356D02*
X33044D01*
X33081Y30338D01*
X33100Y30319D01*
X33119Y30281D01*
Y30206D01*
X33100Y30169D01*
X33081Y30150D01*
X33044Y30131D01*
X33006D01*
X32969Y30150D01*
X32912Y30188D01*
X32725Y30375D01*
Y30113D01*
X33044Y32313D02*
X33062Y32275D01*
X33119Y32219D01*
X32725D01*
X43413Y11419D02*
X43451Y11438D01*
X43507Y11494D01*
Y11100D01*
X61925Y24806D02*
X61944D01*
X61981Y24788D01*
X62000Y24769D01*
X62019Y24731D01*
Y24656D01*
X62000Y24619D01*
X61981Y24600D01*
X61944Y24581D01*
X61906D01*
X61869Y24600D01*
X61812Y24638D01*
X61625Y24825D01*
Y24563D01*
X61944Y26762D02*
X61962Y26725D01*
X62019Y26669D01*
X61625D01*
X61925Y20806D02*
X61944D01*
X61981Y20788D01*
X62000Y20769D01*
X62019Y20731D01*
Y20656D01*
X62000Y20619D01*
X61981Y20600D01*
X61944Y20581D01*
X61906D01*
X61869Y20600D01*
X61812Y20638D01*
X61625Y20825D01*
Y20563D01*
X61944Y22762D02*
X61962Y22725D01*
X62019Y22669D01*
X61625D01*
D45*
X20600Y25619D02*
D03*
M02*
