%FSLAX24Y24*%
%MOIN*%
G70*
G01*
G75*
G04 Layer_Physical_Order=1*
G04 Layer_Color=255*
%ADD10R,0.0413X0.0551*%
%ADD11C,0.0591*%
%ADD12C,0.1969*%
%ADD13C,0.0394*%
%ADD14C,0.0197*%
%ADD15C,0.0118*%
%ADD16C,0.2362*%
%ADD17C,0.1575*%
%ADD18C,0.0787*%
%ADD19C,0.1181*%
%ADD20C,0.0100*%
%ADD21C,0.2559*%
%ADD22C,0.0591*%
%ADD23C,0.1181*%
%ADD24C,0.0748*%
%ADD25C,0.0630*%
%ADD26C,0.1575*%
%ADD27C,0.0669*%
G04:AMPARAMS|DCode=28|XSize=59.1mil|YSize=59.1mil|CornerRadius=0mil|HoleSize=0mil|Usage=FLASHONLY|Rotation=90.000|XOffset=0mil|YOffset=0mil|HoleType=Round|Shape=Octagon|*
%AMOCTAGOND28*
4,1,8,0.0148,0.0295,-0.0148,0.0295,-0.0295,0.0148,-0.0295,-0.0148,-0.0148,-0.0295,0.0148,-0.0295,0.0295,-0.0148,0.0295,0.0148,0.0148,0.0295,0.0*
%
%ADD28OCTAGOND28*%

G04:AMPARAMS|DCode=29|XSize=118.1mil|YSize=118.1mil|CornerRadius=0mil|HoleSize=0mil|Usage=FLASHONLY|Rotation=0.000|XOffset=0mil|YOffset=0mil|HoleType=Round|Shape=Octagon|*
%AMOCTAGOND29*
4,1,8,0.0591,-0.0295,0.0591,0.0295,0.0295,0.0591,-0.0295,0.0591,-0.0591,0.0295,-0.0591,-0.0295,-0.0295,-0.0591,0.0295,-0.0591,0.0591,-0.0295,0.0*
%
%ADD29OCTAGOND29*%

%ADD30C,0.0709*%
%ADD31C,0.1969*%
%ADD32C,0.0984*%
%ADD33C,0.0600*%
G04:AMPARAMS|DCode=34|XSize=393.7mil|YSize=236.2mil|CornerRadius=82.7mil|HoleSize=0mil|Usage=FLASHONLY|Rotation=0.000|XOffset=0mil|YOffset=0mil|HoleType=Round|Shape=RoundedRectangle|*
%AMROUNDEDRECTD34*
21,1,0.3937,0.0709,0,0,0.0*
21,1,0.2283,0.2362,0,0,0.0*
1,1,0.1654,0.1142,-0.0354*
1,1,0.1654,-0.1142,-0.0354*
1,1,0.1654,-0.1142,0.0354*
1,1,0.1654,0.1142,0.0354*
%
%ADD34ROUNDEDRECTD34*%
%ADD35C,0.0500*%
G36*
X43050Y18050D02*
Y16015D01*
X43047Y16008D01*
X43033Y15900D01*
X43047Y15792D01*
X43050Y15785D01*
Y15400D01*
Y15300D01*
X43450Y14900D01*
X43750Y14600D01*
X57700D01*
X58100Y14200D01*
X58150Y14150D01*
Y8050D01*
X28550D01*
Y8872D01*
X28596Y8892D01*
X28744Y8744D01*
X28816Y8696D01*
X28900Y8679D01*
X34050D01*
X34134Y8696D01*
X34206Y8744D01*
X34254Y8816D01*
X34271Y8900D01*
Y9274D01*
X34359Y9341D01*
X34428Y9432D01*
X34472Y9537D01*
X34487Y9650D01*
X34472Y9763D01*
X34428Y9868D01*
X34359Y9959D01*
X34268Y10028D01*
X34163Y10072D01*
X34050Y10087D01*
X33937Y10072D01*
X33832Y10028D01*
X33741Y9959D01*
X33672Y9868D01*
X33628Y9763D01*
X33613Y9650D01*
X33628Y9537D01*
X33672Y9432D01*
X33741Y9341D01*
X33829Y9274D01*
Y9121D01*
X28991D01*
X28550Y9562D01*
Y18200D01*
X32778D01*
X32787Y18187D01*
X32864Y18128D01*
X32954Y18091D01*
X33050Y18079D01*
X33146Y18091D01*
X33236Y18128D01*
X33313Y18187D01*
X33322Y18200D01*
X35322D01*
X35342Y18154D01*
X34894Y17706D01*
X34846Y17634D01*
X34829Y17550D01*
Y11027D01*
X34741Y10959D01*
X34672Y10868D01*
X34628Y10763D01*
X34613Y10650D01*
X34628Y10537D01*
X34672Y10432D01*
X34741Y10341D01*
X34832Y10272D01*
X34937Y10228D01*
X35050Y10213D01*
X35163Y10228D01*
X35268Y10272D01*
X35359Y10341D01*
X35428Y10432D01*
X35472Y10537D01*
X35487Y10650D01*
X35472Y10763D01*
X35428Y10868D01*
X35359Y10959D01*
X35271Y11027D01*
Y17459D01*
X35893Y18081D01*
X36300D01*
Y15250D01*
X36500Y15050D01*
X36800Y15050D01*
X39550Y15050D01*
X40150Y15650D01*
X40400Y15900D01*
Y18081D01*
X42327D01*
Y17858D01*
X42250Y17798D01*
X42193Y17724D01*
X42190Y17722D01*
X42148Y17719D01*
X42133Y17722D01*
X42085Y17785D01*
X42002Y17849D01*
X41904Y17890D01*
X41850Y17897D01*
Y17500D01*
Y17103D01*
X41904Y17110D01*
X42002Y17151D01*
X42085Y17215D01*
X42133Y17278D01*
X42148Y17281D01*
X42190Y17278D01*
X42193Y17276D01*
X42250Y17202D01*
X42337Y17135D01*
X42439Y17093D01*
X42548Y17078D01*
X42657Y17093D01*
X42759Y17135D01*
X42846Y17202D01*
X42913Y17289D01*
X42955Y17391D01*
X42970Y17500D01*
X42955Y17609D01*
X42913Y17711D01*
X42846Y17798D01*
X42769Y17858D01*
Y18250D01*
X42850D01*
X43050Y18050D01*
D02*
G37*
%LPC*%
G36*
X37100Y11062D02*
Y10700D01*
X37462D01*
X37454Y10758D01*
X37412Y10859D01*
X37346Y10946D01*
X37259Y11013D01*
X37158Y11054D01*
X37100Y11062D01*
D02*
G37*
G36*
X35850Y17271D02*
X35754Y17259D01*
X35664Y17222D01*
X35587Y17163D01*
X35528Y17086D01*
X35491Y16996D01*
X35479Y16900D01*
X35491Y16804D01*
X35528Y16714D01*
X35587Y16637D01*
X35629Y16605D01*
Y12912D01*
X35646Y12828D01*
X35694Y12756D01*
X36329Y12121D01*
Y11100D01*
X36342Y11035D01*
X36297Y11007D01*
X36268Y11028D01*
X36163Y11072D01*
X36050Y11087D01*
X35937Y11072D01*
X35832Y11028D01*
X35741Y10959D01*
X35672Y10868D01*
X35628Y10763D01*
X35613Y10650D01*
X35628Y10537D01*
X35672Y10432D01*
X35741Y10341D01*
X35832Y10272D01*
X35937Y10228D01*
X36050Y10213D01*
X36163Y10228D01*
X36268Y10272D01*
X36288Y10287D01*
X36344Y10267D01*
X36350Y10241D01*
X36346Y10235D01*
X36329Y10150D01*
X36346Y10066D01*
X36371Y10028D01*
Y10028D01*
X36372Y10027D01*
X36390Y9996D01*
X36374Y9973D01*
X36359Y9964D01*
X36326Y9984D01*
X36324Y9986D01*
D01*
X36268Y10028D01*
X36163Y10072D01*
X36050Y10087D01*
X35937Y10072D01*
X35832Y10028D01*
X35741Y9959D01*
X35672Y9868D01*
X35628Y9763D01*
X35613Y9650D01*
X35628Y9537D01*
X35672Y9432D01*
X35741Y9341D01*
X35832Y9272D01*
X35937Y9228D01*
X36050Y9213D01*
X36163Y9228D01*
X36268Y9272D01*
X36359Y9341D01*
X36428Y9432D01*
X36472Y9537D01*
X36487Y9650D01*
X36472Y9763D01*
X36428Y9868D01*
X36389Y9919D01*
X36389Y9919D01*
D01*
X36385Y9925D01*
X36389Y9919D01*
X36385Y9925D01*
X36375Y9968D01*
X36378Y9971D01*
X36424Y9964D01*
X36432Y9956D01*
X36628Y9760D01*
X36613Y9650D01*
X36628Y9537D01*
X36672Y9432D01*
X36741Y9341D01*
X36832Y9272D01*
X36937Y9228D01*
X37050Y9213D01*
X37163Y9228D01*
X37268Y9272D01*
X37359Y9341D01*
X37428Y9432D01*
X37472Y9537D01*
X37487Y9650D01*
X37472Y9763D01*
X37428Y9868D01*
X37359Y9959D01*
X37268Y10028D01*
X37163Y10072D01*
X37050Y10087D01*
X36940Y10072D01*
X36748Y10264D01*
X36752Y10293D01*
X36805Y10315D01*
X36841Y10288D01*
X36942Y10246D01*
X37000Y10238D01*
Y10650D01*
Y11062D01*
X36942Y11054D01*
X36841Y11013D01*
X36782Y10967D01*
X36745Y11002D01*
X36754Y11016D01*
X36771Y11100D01*
Y12212D01*
X36754Y12297D01*
X36706Y12368D01*
X36655Y12420D01*
X36638Y12437D01*
X36658Y12487D01*
X37007D01*
X37213Y12693D01*
Y13107D01*
X37007Y13313D01*
X36593D01*
X36387Y13107D01*
Y12758D01*
X36337Y12738D01*
X36071Y13004D01*
Y16605D01*
X36113Y16637D01*
X36172Y16714D01*
X36209Y16804D01*
X36221Y16900D01*
X36209Y16996D01*
X36172Y17086D01*
X36113Y17163D01*
X36036Y17222D01*
X35946Y17259D01*
X35850Y17271D01*
D02*
G37*
G36*
X38800Y13317D02*
X38692Y13303D01*
X38592Y13261D01*
X38505Y13195D01*
X38439Y13108D01*
X38397Y13008D01*
X38383Y12900D01*
X38397Y12792D01*
X38439Y12692D01*
X38505Y12605D01*
X38592Y12539D01*
X38692Y12497D01*
X38800Y12483D01*
X38908Y12497D01*
X39008Y12539D01*
X39095Y12605D01*
X39161Y12692D01*
X39203Y12792D01*
X39217Y12900D01*
X39203Y13008D01*
X39161Y13108D01*
X39095Y13195D01*
X39008Y13261D01*
X38908Y13303D01*
X38800Y13317D01*
D02*
G37*
G36*
X44550Y11021D02*
Y10599D01*
X44972D01*
X44962Y10673D01*
X44914Y10788D01*
X44838Y10887D01*
X44739Y10963D01*
X44624Y11011D01*
X44550Y11021D01*
D02*
G37*
G36*
X54757Y13513D02*
X54343D01*
X54137Y13307D01*
Y12893D01*
X54329Y12701D01*
Y12591D01*
X53909Y12171D01*
X39350D01*
X39266Y12154D01*
X39194Y12106D01*
X38894Y11806D01*
X38846Y11734D01*
X38829Y11650D01*
Y11027D01*
X38741Y10959D01*
X38672Y10868D01*
X38628Y10763D01*
X38613Y10650D01*
X38628Y10537D01*
X38672Y10432D01*
X38741Y10341D01*
X38832Y10272D01*
X38937Y10228D01*
X39050Y10213D01*
X39163Y10228D01*
X39268Y10272D01*
X39359Y10341D01*
X39428Y10432D01*
X39472Y10537D01*
X39487Y10650D01*
X39472Y10763D01*
X39428Y10868D01*
X39359Y10959D01*
X39271Y11027D01*
Y11559D01*
X39441Y11729D01*
X54000D01*
X54084Y11746D01*
X54156Y11794D01*
X54706Y12344D01*
X54754Y12416D01*
X54771Y12500D01*
Y12701D01*
X54963Y12893D01*
Y13307D01*
X54757Y13513D01*
D02*
G37*
G36*
X40050Y11087D02*
X39937Y11072D01*
X39832Y11028D01*
X39741Y10959D01*
X39672Y10868D01*
X39628Y10763D01*
X39613Y10650D01*
X39628Y10537D01*
X39672Y10432D01*
X39741Y10341D01*
X39832Y10272D01*
X39937Y10228D01*
X40050Y10213D01*
X40163Y10228D01*
X40268Y10272D01*
X40359Y10341D01*
X40428Y10432D01*
X40472Y10537D01*
X40487Y10650D01*
X40472Y10763D01*
X40428Y10868D01*
X40359Y10959D01*
X40268Y11028D01*
X40163Y11072D01*
X40050Y11087D01*
D02*
G37*
G36*
X37462Y10600D02*
X37100D01*
Y10238D01*
X37158Y10246D01*
X37259Y10288D01*
X37346Y10354D01*
X37412Y10441D01*
X37454Y10542D01*
X37462Y10600D01*
D02*
G37*
G36*
X45450Y13317D02*
X45342Y13303D01*
X45242Y13261D01*
X45155Y13195D01*
X45089Y13108D01*
X45047Y13008D01*
X45033Y12900D01*
X45047Y12792D01*
X45089Y12692D01*
X45155Y12605D01*
X45242Y12539D01*
X45342Y12497D01*
X45450Y12483D01*
X45558Y12497D01*
X45658Y12539D01*
X45745Y12605D01*
X45811Y12692D01*
X45853Y12792D01*
X45867Y12900D01*
X45853Y13008D01*
X45811Y13108D01*
X45745Y13195D01*
X45658Y13261D01*
X45558Y13303D01*
X45450Y13317D01*
D02*
G37*
G36*
X44842Y12850D02*
X44500D01*
Y12508D01*
X44553Y12515D01*
X44649Y12555D01*
X44732Y12618D01*
X44795Y12701D01*
X44835Y12797D01*
X44842Y12850D01*
D02*
G37*
G36*
X49150Y13367D02*
X49042Y13353D01*
X48942Y13311D01*
X48855Y13245D01*
X48789Y13158D01*
X48747Y13058D01*
X48733Y12950D01*
X48747Y12842D01*
X48789Y12742D01*
X48855Y12655D01*
X48942Y12589D01*
X49042Y12547D01*
X49150Y12533D01*
X49258Y12547D01*
X49358Y12589D01*
X49445Y12655D01*
X49511Y12742D01*
X49553Y12842D01*
X49567Y12950D01*
X49553Y13058D01*
X49511Y13158D01*
X49445Y13245D01*
X49358Y13311D01*
X49258Y13353D01*
X49150Y13367D01*
D02*
G37*
G36*
X47357Y13363D02*
X46943D01*
X46737Y13157D01*
Y12743D01*
X46943Y12537D01*
X47357D01*
X47563Y12743D01*
Y13157D01*
X47357Y13363D01*
D02*
G37*
G36*
X44400Y12850D02*
X44058D01*
X44065Y12797D01*
X44105Y12701D01*
X44168Y12618D01*
X44251Y12555D01*
X44347Y12515D01*
X44400Y12508D01*
Y12850D01*
D02*
G37*
G36*
X43657Y13313D02*
X43243D01*
X43037Y13107D01*
Y12693D01*
X43243Y12487D01*
X43657D01*
X43863Y12693D01*
Y13107D01*
X43657Y13313D01*
D02*
G37*
G36*
X37750Y12850D02*
X37408D01*
X37415Y12797D01*
X37455Y12701D01*
X37518Y12618D01*
X37601Y12555D01*
X37697Y12515D01*
X37750Y12508D01*
Y12850D01*
D02*
G37*
G36*
X38192D02*
X37850D01*
Y12508D01*
X37903Y12515D01*
X37999Y12555D01*
X38082Y12618D01*
X38145Y12701D01*
X38185Y12797D01*
X38192Y12850D01*
D02*
G37*
G36*
X35000Y9600D02*
X34638D01*
X34646Y9542D01*
X34688Y9441D01*
X34754Y9354D01*
X34841Y9288D01*
X34942Y9246D01*
X35000Y9238D01*
Y9600D01*
D02*
G37*
G36*
X35462D02*
X35100D01*
Y9238D01*
X35158Y9246D01*
X35259Y9288D01*
X35346Y9354D01*
X35412Y9441D01*
X35454Y9542D01*
X35462Y9600D01*
D02*
G37*
G36*
X33000Y10062D02*
X32942Y10054D01*
X32841Y10013D01*
X32754Y9946D01*
X32688Y9859D01*
X32646Y9758D01*
X32638Y9700D01*
X33000D01*
Y10062D01*
D02*
G37*
G36*
X33462Y9600D02*
X33100D01*
Y9238D01*
X33158Y9246D01*
X33259Y9288D01*
X33346Y9354D01*
X33412Y9441D01*
X33454Y9542D01*
X33462Y9600D01*
D02*
G37*
G36*
X38050Y10087D02*
X37937Y10072D01*
X37832Y10028D01*
X37741Y9959D01*
X37672Y9868D01*
X37628Y9763D01*
X37613Y9650D01*
X37628Y9537D01*
X37672Y9432D01*
X37741Y9341D01*
X37832Y9272D01*
X37937Y9228D01*
X38050Y9213D01*
X38163Y9228D01*
X38268Y9272D01*
X38359Y9341D01*
X38428Y9432D01*
X38472Y9537D01*
X38487Y9650D01*
X38472Y9763D01*
X38428Y9868D01*
X38359Y9959D01*
X38268Y10028D01*
X38163Y10072D01*
X38050Y10087D01*
D02*
G37*
G36*
X39050D02*
X38937Y10072D01*
X38832Y10028D01*
X38741Y9959D01*
X38672Y9868D01*
X38628Y9763D01*
X38613Y9650D01*
X38628Y9537D01*
X38672Y9432D01*
X38741Y9341D01*
X38832Y9272D01*
X38937Y9228D01*
X39050Y9213D01*
X39163Y9228D01*
X39268Y9272D01*
X39359Y9341D01*
X39428Y9432D01*
X39472Y9537D01*
X39487Y9650D01*
X39472Y9763D01*
X39428Y9868D01*
X39359Y9959D01*
X39268Y10028D01*
X39163Y10072D01*
X39050Y10087D01*
D02*
G37*
G36*
X33000Y9600D02*
X32638D01*
X32646Y9542D01*
X32688Y9441D01*
X32754Y9354D01*
X32841Y9288D01*
X32942Y9246D01*
X33000Y9238D01*
Y9600D01*
D02*
G37*
G36*
X33100Y10062D02*
Y9700D01*
X33462D01*
X33454Y9758D01*
X33412Y9859D01*
X33346Y9946D01*
X33259Y10013D01*
X33158Y10054D01*
X33100Y10062D01*
D02*
G37*
G36*
X44972Y10499D02*
X44550D01*
Y10077D01*
X44624Y10087D01*
X44739Y10135D01*
X44838Y10211D01*
X44914Y10310D01*
X44962Y10425D01*
X44972Y10499D01*
D02*
G37*
G36*
X33050Y15047D02*
X32922Y15030D01*
X32802Y14981D01*
X32699Y14902D01*
X32620Y14799D01*
X32571Y14679D01*
X32554Y14551D01*
X32571Y14423D01*
X32620Y14303D01*
X32699Y14200D01*
X32802Y14121D01*
X32829Y14110D01*
Y11027D01*
X32741Y10959D01*
X32672Y10868D01*
X32628Y10763D01*
X32613Y10650D01*
X32628Y10537D01*
X32672Y10432D01*
X32741Y10341D01*
X32832Y10272D01*
X32937Y10228D01*
X33050Y10213D01*
X33163Y10228D01*
X33268Y10272D01*
X33359Y10341D01*
X33428Y10432D01*
X33472Y10537D01*
X33487Y10650D01*
X33472Y10763D01*
X33428Y10868D01*
X33359Y10959D01*
X33271Y11027D01*
Y14110D01*
X33298Y14121D01*
X33401Y14200D01*
X33480Y14303D01*
X33524Y14409D01*
X33528Y14410D01*
X33576Y14408D01*
X33620Y14301D01*
X33699Y14198D01*
X33802Y14119D01*
X33829Y14108D01*
Y11027D01*
X33741Y10959D01*
X33672Y10868D01*
X33628Y10763D01*
X33613Y10650D01*
X33628Y10537D01*
X33672Y10432D01*
X33741Y10341D01*
X33832Y10272D01*
X33937Y10228D01*
X34050Y10213D01*
X34163Y10228D01*
X34268Y10272D01*
X34359Y10341D01*
X34428Y10432D01*
X34472Y10537D01*
X34487Y10650D01*
X34472Y10763D01*
X34428Y10868D01*
X34359Y10959D01*
X34271Y11027D01*
Y14108D01*
X34298Y14119D01*
X34401Y14198D01*
X34480Y14301D01*
X34529Y14421D01*
X34546Y14549D01*
X34529Y14677D01*
X34480Y14797D01*
X34401Y14900D01*
X34298Y14979D01*
X34178Y15028D01*
X34050Y15045D01*
X33922Y15028D01*
X33802Y14979D01*
X33699Y14900D01*
X33620Y14797D01*
X33576Y14691D01*
X33572Y14690D01*
X33524Y14692D01*
X33480Y14799D01*
X33401Y14902D01*
X33298Y14981D01*
X33178Y15030D01*
X33050Y15047D01*
D02*
G37*
G36*
X38050Y11087D02*
X37937Y11072D01*
X37832Y11028D01*
X37741Y10959D01*
X37672Y10868D01*
X37628Y10763D01*
X37613Y10650D01*
X37628Y10537D01*
X37672Y10432D01*
X37741Y10341D01*
X37832Y10272D01*
X37937Y10228D01*
X38050Y10213D01*
X38163Y10228D01*
X38268Y10272D01*
X38359Y10341D01*
X38428Y10432D01*
X38472Y10537D01*
X38487Y10650D01*
X38472Y10763D01*
X38428Y10868D01*
X38359Y10959D01*
X38268Y11028D01*
X38163Y11072D01*
X38050Y11087D01*
D02*
G37*
G36*
X43500Y11047D02*
X43372Y11030D01*
X43252Y10981D01*
X43149Y10902D01*
X43070Y10799D01*
X43021Y10679D01*
X43004Y10551D01*
X43021Y10423D01*
X43070Y10303D01*
X43149Y10200D01*
X43252Y10121D01*
X43372Y10072D01*
X43500Y10055D01*
X43628Y10072D01*
X43748Y10121D01*
X43851Y10200D01*
X43930Y10303D01*
X43979Y10423D01*
X43984Y10455D01*
X44034Y10455D01*
X44038Y10425D01*
X44086Y10310D01*
X44162Y10211D01*
X44261Y10135D01*
X44376Y10087D01*
X44450Y10077D01*
Y10549D01*
Y11021D01*
X44376Y11011D01*
X44261Y10963D01*
X44162Y10887D01*
X44086Y10788D01*
X44038Y10673D01*
X44034Y10645D01*
X43984Y10645D01*
X43979Y10679D01*
X43930Y10799D01*
X43851Y10902D01*
X43748Y10981D01*
X43628Y11030D01*
X43500Y11047D01*
D02*
G37*
G36*
X35000Y10062D02*
X34942Y10054D01*
X34841Y10013D01*
X34754Y9946D01*
X34688Y9859D01*
X34646Y9758D01*
X34638Y9700D01*
X35000D01*
Y10062D01*
D02*
G37*
G36*
X35100D02*
Y9700D01*
X35462D01*
X35454Y9758D01*
X35412Y9859D01*
X35346Y9946D01*
X35259Y10013D01*
X35158Y10054D01*
X35100Y10062D01*
D02*
G37*
G36*
X50850Y11471D02*
X50754Y11459D01*
X50664Y11422D01*
X50587Y11363D01*
X50528Y11286D01*
X50491Y11196D01*
X50479Y11100D01*
X50491Y11004D01*
X50528Y10914D01*
X50587Y10837D01*
X50629Y10805D01*
Y10441D01*
X50059Y9871D01*
X40426D01*
X40359Y9959D01*
X40268Y10028D01*
X40163Y10072D01*
X40050Y10087D01*
X39937Y10072D01*
X39832Y10028D01*
X39741Y9959D01*
X39672Y9868D01*
X39628Y9763D01*
X39613Y9650D01*
X39628Y9537D01*
X39672Y9432D01*
X39741Y9341D01*
X39832Y9272D01*
X39937Y9228D01*
X40050Y9213D01*
X40163Y9228D01*
X40268Y9272D01*
X40359Y9341D01*
X40426Y9429D01*
X50150D01*
X50235Y9446D01*
X50306Y9494D01*
X51006Y10194D01*
X51054Y10266D01*
X51071Y10350D01*
Y10805D01*
X51113Y10837D01*
X51172Y10914D01*
X51209Y11004D01*
X51221Y11100D01*
X51209Y11196D01*
X51172Y11286D01*
X51113Y11363D01*
X51036Y11422D01*
X50946Y11459D01*
X50850Y11471D01*
D02*
G37*
G36*
X30954Y16100D02*
X30698D01*
Y15774D01*
X30954D01*
Y16100D01*
D02*
G37*
G36*
X31311D02*
X31054D01*
Y15774D01*
X31311D01*
Y16100D01*
D02*
G37*
G36*
X41754D02*
X41498D01*
Y15774D01*
X41754D01*
Y16100D01*
D02*
G37*
G36*
X55600Y13492D02*
Y13150D01*
X55942D01*
X55935Y13203D01*
X55895Y13299D01*
X55832Y13382D01*
X55749Y13445D01*
X55653Y13485D01*
X55600Y13492D01*
D02*
G37*
G36*
X51800Y13392D02*
X51747Y13385D01*
X51651Y13345D01*
X51568Y13282D01*
X51505Y13199D01*
X51465Y13103D01*
X51458Y13050D01*
X51800D01*
Y13392D01*
D02*
G37*
G36*
X51900D02*
Y13050D01*
X52242D01*
X52235Y13103D01*
X52195Y13199D01*
X52132Y13282D01*
X52049Y13345D01*
X51953Y13385D01*
X51900Y13392D01*
D02*
G37*
G36*
X55500Y13492D02*
X55447Y13485D01*
X55351Y13445D01*
X55268Y13382D01*
X55205Y13299D01*
X55165Y13203D01*
X55158Y13150D01*
X55500D01*
Y13492D01*
D02*
G37*
G36*
X42111Y16100D02*
X41854D01*
Y15774D01*
X42111D01*
Y16100D01*
D02*
G37*
G36*
X41052Y17922D02*
X40943Y17907D01*
X40841Y17865D01*
X40754Y17798D01*
X40687Y17711D01*
X40645Y17609D01*
X40630Y17500D01*
X40645Y17391D01*
X40687Y17289D01*
X40754Y17202D01*
X40831Y17142D01*
Y16544D01*
X40771D01*
Y15756D01*
X41420D01*
Y16544D01*
X41273D01*
Y17142D01*
X41350Y17202D01*
X41407Y17276D01*
X41410Y17278D01*
X41452Y17281D01*
X41466Y17278D01*
X41515Y17215D01*
X41598Y17151D01*
X41696Y17110D01*
X41750Y17103D01*
Y17500D01*
Y17897D01*
X41696Y17890D01*
X41598Y17849D01*
X41515Y17785D01*
X41466Y17722D01*
X41452Y17719D01*
X41410Y17722D01*
X41407Y17724D01*
X41350Y17798D01*
X41263Y17865D01*
X41161Y17907D01*
X41052Y17922D01*
D02*
G37*
G36*
X30252Y17972D02*
X30143Y17957D01*
X30041Y17915D01*
X29954Y17848D01*
X29887Y17761D01*
X29845Y17659D01*
X29830Y17550D01*
X29845Y17441D01*
X29887Y17339D01*
X29954Y17252D01*
X30031Y17192D01*
Y16544D01*
X29971D01*
Y15756D01*
X30620D01*
Y16544D01*
X30473D01*
Y17192D01*
X30550Y17252D01*
X30607Y17326D01*
X30610Y17328D01*
X30652Y17331D01*
X30667Y17328D01*
X30715Y17265D01*
X30798Y17201D01*
X30896Y17160D01*
X30950Y17153D01*
Y17550D01*
Y17947D01*
X30896Y17940D01*
X30798Y17899D01*
X30715Y17835D01*
X30667Y17772D01*
X30652Y17769D01*
X30610Y17772D01*
X30607Y17774D01*
X30550Y17848D01*
X30463Y17915D01*
X30361Y17957D01*
X30252Y17972D01*
D02*
G37*
G36*
X31748D02*
X31639Y17957D01*
X31537Y17915D01*
X31450Y17848D01*
X31393Y17774D01*
X31390Y17772D01*
X31348Y17769D01*
X31333Y17772D01*
X31285Y17835D01*
X31202Y17899D01*
X31104Y17940D01*
X31050Y17947D01*
Y17550D01*
Y17153D01*
X31104Y17160D01*
X31202Y17201D01*
X31285Y17265D01*
X31333Y17328D01*
X31348Y17331D01*
X31390Y17328D01*
X31393Y17326D01*
X31450Y17252D01*
X31537Y17185D01*
X31639Y17143D01*
X31748Y17128D01*
X31857Y17143D01*
X31959Y17185D01*
X32046Y17252D01*
X32106Y17329D01*
X33855D01*
X33887Y17287D01*
X33964Y17228D01*
X34054Y17191D01*
X34150Y17179D01*
X34246Y17191D01*
X34336Y17228D01*
X34413Y17287D01*
X34472Y17364D01*
X34509Y17454D01*
X34521Y17550D01*
X34509Y17646D01*
X34472Y17736D01*
X34413Y17813D01*
X34336Y17872D01*
X34246Y17909D01*
X34150Y17921D01*
X34054Y17909D01*
X33964Y17872D01*
X33887Y17813D01*
X33855Y17771D01*
X32106D01*
X32046Y17848D01*
X31959Y17915D01*
X31857Y17957D01*
X31748Y17972D01*
D02*
G37*
G36*
X42111Y16526D02*
X41854D01*
Y16200D01*
X42111D01*
Y16526D01*
D02*
G37*
G36*
X30954D02*
X30698D01*
Y16200D01*
X30954D01*
Y16526D01*
D02*
G37*
G36*
X31311D02*
X31054D01*
Y16200D01*
X31311D01*
Y16526D01*
D02*
G37*
G36*
X41754D02*
X41498D01*
Y16200D01*
X41754D01*
Y16526D01*
D02*
G37*
G36*
X51800Y12950D02*
X51458D01*
X51465Y12897D01*
X51505Y12801D01*
X51568Y12718D01*
X51651Y12655D01*
X51747Y12615D01*
X51800Y12608D01*
Y12950D01*
D02*
G37*
G36*
X52242D02*
X51900D01*
Y12608D01*
X51953Y12615D01*
X52049Y12655D01*
X52132Y12718D01*
X52195Y12801D01*
X52235Y12897D01*
X52242Y12950D01*
D02*
G37*
G36*
X56550Y13517D02*
X56442Y13503D01*
X56342Y13461D01*
X56255Y13395D01*
X56189Y13308D01*
X56147Y13208D01*
X56133Y13100D01*
X56147Y12992D01*
X56189Y12892D01*
X56255Y12805D01*
X56342Y12739D01*
X56442Y12697D01*
X56550Y12683D01*
X56658Y12697D01*
X56758Y12739D01*
X56845Y12805D01*
X56911Y12892D01*
X56953Y12992D01*
X56967Y13100D01*
X56953Y13208D01*
X56911Y13308D01*
X56845Y13395D01*
X56758Y13461D01*
X56658Y13503D01*
X56550Y13517D01*
D02*
G37*
G36*
X51057Y13413D02*
X50643D01*
X50437Y13207D01*
Y12793D01*
X50643Y12587D01*
X51057D01*
X51263Y12793D01*
Y13207D01*
X51057Y13413D01*
D02*
G37*
G36*
X48100Y12900D02*
X47758D01*
X47765Y12847D01*
X47805Y12751D01*
X47868Y12668D01*
X47951Y12605D01*
X48047Y12565D01*
X48100Y12558D01*
Y12900D01*
D02*
G37*
G36*
X48542D02*
X48200D01*
Y12558D01*
X48253Y12565D01*
X48349Y12605D01*
X48432Y12668D01*
X48495Y12751D01*
X48535Y12847D01*
X48542Y12900D01*
D02*
G37*
G36*
X52850Y13417D02*
X52742Y13403D01*
X52642Y13361D01*
X52555Y13295D01*
X52489Y13208D01*
X52447Y13108D01*
X52433Y13000D01*
X52447Y12892D01*
X52489Y12792D01*
X52555Y12705D01*
X52642Y12639D01*
X52742Y12597D01*
X52850Y12583D01*
X52958Y12597D01*
X53058Y12639D01*
X53145Y12705D01*
X53211Y12792D01*
X53253Y12892D01*
X53267Y13000D01*
X53253Y13108D01*
X53211Y13208D01*
X53145Y13295D01*
X53058Y13361D01*
X52958Y13403D01*
X52850Y13417D01*
D02*
G37*
G36*
X55500Y13050D02*
X55158D01*
X55165Y12997D01*
X55205Y12901D01*
X55268Y12818D01*
X55351Y12755D01*
X55447Y12715D01*
X55500Y12708D01*
Y13050D01*
D02*
G37*
G36*
X44500Y13292D02*
Y12950D01*
X44842D01*
X44835Y13003D01*
X44795Y13099D01*
X44732Y13182D01*
X44649Y13245D01*
X44553Y13285D01*
X44500Y13292D01*
D02*
G37*
G36*
X48100Y13342D02*
X48047Y13335D01*
X47951Y13295D01*
X47868Y13232D01*
X47805Y13149D01*
X47765Y13053D01*
X47758Y13000D01*
X48100D01*
Y13342D01*
D02*
G37*
G36*
X48200D02*
Y13000D01*
X48542D01*
X48535Y13053D01*
X48495Y13149D01*
X48432Y13232D01*
X48349Y13295D01*
X48253Y13335D01*
X48200Y13342D01*
D02*
G37*
G36*
X44400Y13292D02*
X44347Y13285D01*
X44251Y13245D01*
X44168Y13182D01*
X44105Y13099D01*
X44065Y13003D01*
X44058Y12950D01*
X44400D01*
Y13292D01*
D02*
G37*
G36*
X55942Y13050D02*
X55600D01*
Y12708D01*
X55653Y12715D01*
X55749Y12755D01*
X55832Y12818D01*
X55895Y12901D01*
X55935Y12997D01*
X55942Y13050D01*
D02*
G37*
G36*
X37750Y13292D02*
X37697Y13285D01*
X37601Y13245D01*
X37518Y13182D01*
X37455Y13099D01*
X37415Y13003D01*
X37408Y12950D01*
X37750D01*
Y13292D01*
D02*
G37*
G36*
X37850D02*
Y12950D01*
X38192D01*
X38185Y13003D01*
X38145Y13099D01*
X38082Y13182D01*
X37999Y13245D01*
X37903Y13285D01*
X37850Y13292D01*
D02*
G37*
%LPD*%
D10*
X41096Y16150D02*
D03*
X41804D02*
D03*
X30296D02*
D03*
X31004D02*
D03*
D11*
X61500Y31750D02*
X62150Y31100D01*
X59700Y31750D02*
X61500D01*
X58950Y32500D02*
X59700Y31750D01*
X58950Y32500D02*
Y33600D01*
D12*
X27235Y30015D02*
Y36500D01*
Y38300D01*
Y30015D02*
X29032Y28219D01*
Y25975D02*
Y28219D01*
X39832Y34597D02*
X40835Y35600D01*
X39832Y25925D02*
Y34597D01*
X40835Y35600D02*
Y38300D01*
D13*
X24184Y36600D02*
X27135D01*
X27235Y36500D02*
X27400D01*
X19750Y36600D02*
X22216D01*
X19200Y36050D02*
X19750Y36600D01*
D14*
X35050Y9300D02*
Y9650D01*
Y9300D02*
X35213Y9137D01*
X54887D01*
X55550Y9800D02*
Y13100D01*
X54887Y9137D02*
X55550Y9800D01*
X31004Y11696D02*
X33050Y9650D01*
X31004Y11696D02*
Y16150D01*
X35850Y12912D02*
Y16900D01*
Y12912D02*
X36498Y12264D01*
X36550Y12212D01*
Y11100D02*
Y12212D01*
Y10150D02*
X37050Y9650D01*
X31748Y17550D02*
X34150D01*
X30252Y16194D02*
Y17550D01*
X31000Y16154D02*
Y17550D01*
X41052Y16194D02*
Y17500D01*
X41800Y16154D02*
Y17500D01*
X46850Y28250D02*
Y31150D01*
X45750Y32250D02*
X46850Y31150D01*
X44050Y32250D02*
X45750D01*
X31600D02*
X34600D01*
X35800Y31050D01*
Y28500D02*
Y31050D01*
X49800Y18450D02*
X51550D01*
X49150Y17800D02*
X49800Y18450D01*
X49150Y15950D02*
Y17800D01*
X58900Y18000D02*
Y26200D01*
X59400Y26700D01*
X60500D01*
X58350Y16050D02*
Y29600D01*
X59450Y30700D01*
X60500D01*
X56550Y16100D02*
Y17200D01*
X55650Y18100D02*
X56550Y17200D01*
X55650Y18100D02*
Y26550D01*
X54750Y27450D02*
X55650Y26550D01*
X51450Y27450D02*
X54750D01*
X50700Y28200D02*
X51450Y27450D01*
X50700Y28200D02*
Y29350D01*
X51450Y30100D01*
X34050Y8900D02*
Y9650D01*
X28900Y8900D02*
X34050D01*
X27050Y10750D02*
X28900Y8900D01*
X27050Y10750D02*
Y16550D01*
X25600Y18000D02*
X27050Y16550D01*
X20100Y18000D02*
X25600D01*
X18592Y19508D02*
X20100Y18000D01*
X18592Y19508D02*
Y23650D01*
X34050Y10650D02*
Y14549D01*
X33050Y10650D02*
Y14551D01*
X22608Y19492D02*
Y23650D01*
Y19492D02*
X23650Y18450D01*
X33050D01*
X42548Y17500D02*
Y18302D01*
X35802D02*
X42548D01*
X35050Y17550D02*
X35802Y18302D01*
X35050Y10650D02*
Y17550D01*
X37050Y10650D02*
Y11300D01*
X37800Y12050D01*
Y12900D01*
Y13600D01*
X38250Y14050D01*
X55150D02*
X55550Y13650D01*
Y13100D02*
Y13650D01*
X41804Y14054D02*
Y16150D01*
X44450Y12900D02*
Y14050D01*
X38250D02*
X44450D01*
X48150Y12950D02*
Y14050D01*
X44450D02*
X48150D01*
X51850Y13000D02*
Y14050D01*
X48150D02*
X51850D01*
X55150D01*
X39050Y10650D02*
Y11650D01*
X39350Y11950D01*
X54000D01*
X54550Y12500D01*
Y13100D01*
X40050Y9650D02*
X50150D01*
X50850Y10350D01*
Y11100D01*
D15*
X36550Y10150D02*
Y11100D01*
D16*
X24104Y25396D02*
Y29634D01*
Y25396D02*
X27450Y22050D01*
X42800D02*
X43769Y23019D01*
Y25925D01*
X32968Y22118D02*
Y25975D01*
X36150Y21150D02*
Y22050D01*
Y23150D01*
X27450Y22050D02*
X36150D01*
X42800D01*
D17*
X29400Y34450D02*
Y38300D01*
Y34450D02*
X31600Y32250D01*
X43000Y33300D02*
Y38300D01*
Y33300D02*
X44050Y32250D01*
D18*
X52950Y30050D02*
Y31450D01*
X54200Y32700D01*
Y35716D01*
X53184Y20250D02*
X54750Y21816D01*
D19*
X43769Y25925D02*
X49675D01*
Y30825D01*
X50300Y31450D01*
X52950D01*
X49675Y25925D02*
X52425D01*
X53000Y25350D01*
Y24500D02*
Y25350D01*
X49675Y21475D02*
Y25925D01*
Y21475D02*
X50900Y20250D01*
X52500D01*
X52950Y19800D01*
Y18500D02*
Y19800D01*
D20*
X59850Y11750D02*
X59250D01*
X59850Y12150D01*
X59250D01*
X59850Y12350D02*
Y12550D01*
Y12450D01*
X59450D01*
Y12350D01*
X59850Y12850D02*
X59250D01*
X59650D02*
X59450Y13150D01*
X59650Y12850D02*
X59850Y13150D01*
Y13549D02*
Y13749D01*
X59750Y13849D01*
X59550D01*
X59450Y13749D01*
Y13549D01*
X59550Y13449D01*
X59750D01*
X59850Y13549D01*
X60050Y14049D02*
X59450D01*
Y14349D01*
X59550Y14449D01*
X59750D01*
X59850Y14349D01*
Y14049D01*
Y14749D02*
Y14949D01*
X59750Y15049D01*
X59550D01*
X59450Y14949D01*
Y14749D01*
X59550Y14649D01*
X59750D01*
X59850Y14749D01*
Y15249D02*
Y15449D01*
Y15349D01*
X59250D01*
Y15249D01*
X59850Y16548D02*
X59650Y16349D01*
X59450D01*
X59250Y16548D01*
X59350Y17248D02*
X59250Y17148D01*
Y16948D01*
X59350Y16848D01*
X59750D01*
X59850Y16948D01*
Y17148D01*
X59750Y17248D01*
X59850Y17448D02*
X59650Y17648D01*
X59450D01*
X59250Y17448D01*
X60900Y11750D02*
X60300D01*
Y12050D01*
X60400Y12150D01*
X60600D01*
X60700Y12050D01*
Y11750D01*
X60900Y12450D02*
Y12650D01*
X60800Y12750D01*
X60600D01*
X60500Y12650D01*
Y12450D01*
X60600Y12350D01*
X60800D01*
X60900Y12450D01*
X60500Y12950D02*
X60800D01*
X60900Y13050D01*
X60800Y13150D01*
X60900Y13250D01*
X60800Y13349D01*
X60500D01*
X60900Y13849D02*
Y13649D01*
X60800Y13549D01*
X60600D01*
X60500Y13649D01*
Y13849D01*
X60600Y13949D01*
X60700D01*
Y13549D01*
X60500Y14149D02*
X60900D01*
X60700D01*
X60600Y14249D01*
X60500Y14349D01*
Y14449D01*
X60900Y15349D02*
X60500D01*
Y15449D01*
X60600Y15549D01*
X60900D01*
X60600D01*
X60500Y15649D01*
X60600Y15749D01*
X60900D01*
Y16049D02*
Y16249D01*
X60800Y16349D01*
X60600D01*
X60500Y16249D01*
Y16049D01*
X60600Y15949D01*
X60800D01*
X60900Y16049D01*
X60300Y16948D02*
X60900D01*
Y16648D01*
X60800Y16548D01*
X60600D01*
X60500Y16648D01*
Y16948D01*
Y17148D02*
X60800D01*
X60900Y17248D01*
Y17548D01*
X60500D01*
X60900Y17748D02*
Y17948D01*
Y17848D01*
X60300D01*
Y17748D01*
X60900Y18548D02*
Y18348D01*
X60800Y18248D01*
X60600D01*
X60500Y18348D01*
Y18548D01*
X60600Y18648D01*
X60700D01*
Y18248D01*
X62150Y11750D02*
X61550D01*
Y12050D01*
X61650Y12150D01*
X61850D01*
X61950Y12050D01*
Y11750D01*
X62150Y12450D02*
Y12650D01*
X62050Y12750D01*
X61850D01*
X61750Y12650D01*
Y12450D01*
X61850Y12350D01*
X62050D01*
X62150Y12450D01*
X61750Y12950D02*
X62050D01*
X62150Y13050D01*
X62050Y13150D01*
X62150Y13250D01*
X62050Y13349D01*
X61750D01*
X62150Y13849D02*
Y13649D01*
X62050Y13549D01*
X61850D01*
X61750Y13649D01*
Y13849D01*
X61850Y13949D01*
X61950D01*
Y13549D01*
X61750Y14149D02*
X62150D01*
X61950D01*
X61850Y14249D01*
X61750Y14349D01*
Y14449D01*
X62150Y15349D02*
X61550D01*
Y15649D01*
X61650Y15749D01*
X61850D01*
X61950Y15649D01*
Y15349D01*
X61650Y16349D02*
X61550Y16249D01*
Y16049D01*
X61650Y15949D01*
X62050D01*
X62150Y16049D01*
Y16249D01*
X62050Y16349D01*
X61550Y16548D02*
X62150D01*
Y16848D01*
X62050Y16948D01*
X61950D01*
X61850Y16848D01*
Y16548D01*
Y16848D01*
X61750Y16948D01*
X61650D01*
X61550Y16848D01*
Y16548D01*
X61750Y17748D02*
X62150Y17948D01*
X61750Y18148D01*
X62150Y18348D02*
Y18548D01*
Y18448D01*
X61550D01*
X61650Y18348D01*
X62150Y18848D02*
X62050D01*
Y18948D01*
X62150D01*
Y18848D01*
X61650Y19348D02*
X61550Y19448D01*
Y19647D01*
X61650Y19747D01*
X62050D01*
X62150Y19647D01*
Y19448D01*
X62050Y19348D01*
X61650D01*
D21*
X15748Y40551D02*
D03*
X59055D02*
D03*
X61024Y33465D02*
D03*
X13780D02*
D03*
Y9843D02*
D03*
X61024D02*
D03*
D22*
X54200Y35766D02*
D03*
Y37734D02*
D03*
X24184Y36600D02*
D03*
X22216D02*
D03*
X54700Y28766D02*
D03*
Y30734D02*
D03*
X54750Y21816D02*
D03*
Y23784D02*
D03*
X37800Y12900D02*
D03*
X38800D02*
D03*
Y15900D02*
D03*
X37800D02*
D03*
X36800D02*
D03*
X39634Y34400D02*
D03*
X37666D02*
D03*
X55550Y13100D02*
D03*
X56550D02*
D03*
Y16100D02*
D03*
X55550D02*
D03*
X54550D02*
D03*
X51850Y13000D02*
D03*
X52850D02*
D03*
Y16000D02*
D03*
X51850D02*
D03*
X50850D02*
D03*
X48150Y12950D02*
D03*
X49150D02*
D03*
Y15950D02*
D03*
X48150D02*
D03*
X47150D02*
D03*
X44450Y12900D02*
D03*
X45450D02*
D03*
Y15900D02*
D03*
X44450D02*
D03*
X43450D02*
D03*
D23*
X18400Y11100D02*
D03*
X20900D02*
D03*
X23400D02*
D03*
X44050Y32250D02*
D03*
Y30250D02*
D03*
X60500Y30700D02*
D03*
Y28700D02*
D03*
X31600Y32250D02*
D03*
Y30250D02*
D03*
X60500Y26700D02*
D03*
Y24700D02*
D03*
Y22700D02*
D03*
Y20700D02*
D03*
X19534Y14650D02*
D03*
X17566D02*
D03*
X29400Y38300D02*
D03*
X27235D02*
D03*
X43000D02*
D03*
X40835D02*
D03*
D24*
X33050Y14551D02*
D03*
X34050Y14549D02*
D03*
X44500Y10549D02*
D03*
X43500Y10551D02*
D03*
D25*
X38050Y9650D02*
D03*
Y10650D02*
D03*
X39050Y9650D02*
D03*
Y10650D02*
D03*
X40050D02*
D03*
Y9650D02*
D03*
X33050D02*
D03*
Y10650D02*
D03*
X34050Y9650D02*
D03*
Y10650D02*
D03*
X35050D02*
D03*
Y9650D02*
D03*
X36050Y10650D02*
D03*
Y9650D02*
D03*
X37050Y10650D02*
D03*
Y9650D02*
D03*
X48050Y32300D02*
D03*
Y28300D02*
D03*
X52950Y30050D02*
D03*
Y34050D02*
D03*
X51450Y34100D02*
D03*
Y30100D02*
D03*
X53000Y24500D02*
D03*
Y28500D02*
D03*
X51550D02*
D03*
Y24500D02*
D03*
X27400Y36500D02*
D03*
X31400D02*
D03*
X41000D02*
D03*
X45000D02*
D03*
X36900Y32450D02*
D03*
Y28450D02*
D03*
X51550Y22450D02*
D03*
Y18450D02*
D03*
X52950Y18500D02*
D03*
Y22500D02*
D03*
D26*
X36150Y21150D02*
D03*
Y23150D02*
D03*
X13600Y26350D02*
D03*
Y24350D02*
D03*
D27*
X35900Y36050D02*
D03*
Y38050D02*
D03*
X55650Y37400D02*
D03*
X57650D02*
D03*
X19200Y36050D02*
D03*
Y38050D02*
D03*
X57100Y31100D02*
D03*
Y29100D02*
D03*
Y24400D02*
D03*
Y22400D02*
D03*
D28*
X36800Y12900D02*
D03*
X54550Y13100D02*
D03*
X50850Y13000D02*
D03*
X47150Y12950D02*
D03*
X43450Y12900D02*
D03*
D29*
X31565Y38300D02*
D03*
X45165D02*
D03*
D30*
X15087Y19500D02*
D03*
X25913D02*
D03*
X15178Y12286D02*
D03*
X12422Y14814D02*
D03*
X25864Y13372D02*
D03*
X23336Y16128D02*
D03*
D31*
X24104Y32626D02*
D03*
X17096Y29343D02*
D03*
X24104Y29634D02*
D03*
D32*
X18592Y23650D02*
D03*
X22608D02*
D03*
D33*
X30252Y17550D02*
D03*
X31748D02*
D03*
X31000D02*
D03*
X41052Y17500D02*
D03*
X42548D02*
D03*
X41800D02*
D03*
D34*
X33165Y25975D02*
D03*
X28835D02*
D03*
X43965Y25925D02*
D03*
X39635D02*
D03*
D35*
X62150Y31100D02*
D03*
X58950Y33600D02*
D03*
X35850Y16900D02*
D03*
X34150Y17550D02*
D03*
X46850Y28250D02*
D03*
X35800Y28500D02*
D03*
X58900Y18000D02*
D03*
X58350Y16050D02*
D03*
X33050Y18450D02*
D03*
X50850Y11100D02*
D03*
M02*
