%FSLAX24Y24*%
%MOIN*%
G70*
G01*
G75*
G04 Layer_Physical_Order=1*
G04 Layer_Color=255*
%ADD10R,0.0374X0.0551*%
%ADD11R,0.0413X0.0551*%
%ADD12O,0.0866X0.0236*%
%ADD13R,0.0551X0.0374*%
%ADD14R,0.0394X0.0236*%
%ADD15R,0.1299X0.0945*%
%ADD16R,0.0394X0.0945*%
%ADD17R,0.0551X0.0413*%
%ADD18R,0.0236X0.0492*%
%ADD19R,0.0689X0.0394*%
%ADD20O,0.0984X0.0276*%
%ADD21R,0.1063X0.0453*%
%ADD22R,0.0571X0.0453*%
%ADD23R,0.0354X0.0197*%
%ADD24R,0.0453X0.0571*%
%ADD25O,0.0236X0.0669*%
G04:AMPARAMS|DCode=26|XSize=25.6mil|YSize=39.4mil|CornerRadius=6.4mil|HoleSize=0mil|Usage=FLASHONLY|Rotation=90.000|XOffset=0mil|YOffset=0mil|HoleType=Round|Shape=RoundedRectangle|*
%AMROUNDEDRECTD26*
21,1,0.0256,0.0266,0,0,90.0*
21,1,0.0128,0.0394,0,0,90.0*
1,1,0.0128,0.0133,0.0064*
1,1,0.0128,0.0133,-0.0064*
1,1,0.0128,-0.0133,-0.0064*
1,1,0.0128,-0.0133,0.0064*
%
%ADD26ROUNDEDRECTD26*%
%ADD27R,0.0236X0.0394*%
%ADD28C,0.0197*%
%ADD29C,0.0394*%
%ADD30C,0.0118*%
%ADD31C,0.0157*%
%ADD32C,0.0295*%
%ADD33C,0.0984*%
%ADD34C,0.2559*%
%ADD35C,0.0630*%
%ADD36R,0.0630X0.0630*%
%ADD37C,0.0787*%
%ADD38C,0.0512*%
%ADD39O,0.0669X0.0787*%
%ADD40O,0.0669X0.0748*%
%ADD41C,0.0748*%
%ADD42R,0.0630X0.0630*%
%ADD43C,0.0591*%
%ADD44R,0.0669X0.0669*%
%ADD45C,0.0669*%
%ADD46R,0.0709X0.0709*%
%ADD47C,0.0709*%
%ADD48R,0.0591X0.0591*%
G04:AMPARAMS|DCode=49|XSize=59.1mil|YSize=59.1mil|CornerRadius=0mil|HoleSize=0mil|Usage=FLASHONLY|Rotation=180.000|XOffset=0mil|YOffset=0mil|HoleType=Round|Shape=Octagon|*
%AMOCTAGOND49*
4,1,8,-0.0295,0.0148,-0.0295,-0.0148,-0.0148,-0.0295,0.0148,-0.0295,0.0295,-0.0148,0.0295,0.0148,0.0148,0.0295,-0.0148,0.0295,-0.0295,0.0148,0.0*
%
%ADD49OCTAGOND49*%

%ADD50C,0.0551*%
%ADD51C,0.0500*%
G36*
X24465Y37873D02*
X24508Y37808D01*
X25058Y37258D01*
X25123Y37215D01*
X25136Y37212D01*
X25200Y37199D01*
X27278D01*
X27290Y37184D01*
X27266Y37130D01*
X27249Y37128D01*
X27154Y37089D01*
X27073Y37027D01*
X27011Y36946D01*
X26972Y36851D01*
X26959Y36750D01*
X26972Y36649D01*
X27011Y36554D01*
X27073Y36473D01*
X27149Y36415D01*
Y34050D01*
X27165Y33973D01*
X27208Y33908D01*
X30364Y30752D01*
X30364Y30748D01*
X30309Y30731D01*
X29570Y31470D01*
X29492Y31523D01*
X29400Y31541D01*
X23600D01*
X23041Y32100D01*
Y35150D01*
X23023Y35242D01*
X23002Y35273D01*
X22970Y35320D01*
X22492Y35798D01*
X22414Y35850D01*
X22322Y35869D01*
X22234D01*
X22215Y35915D01*
X22500Y36200D01*
X24400D01*
Y37948D01*
X24449Y37950D01*
X24465Y37873D01*
D02*
G37*
G36*
X47550Y20800D02*
X47100Y20350D01*
X42600D01*
X42550Y20400D01*
X42200Y20750D01*
Y20850D01*
Y25450D01*
Y25500D01*
X47550D01*
Y20800D01*
D02*
G37*
G36*
X64650Y56450D02*
Y44011D01*
X64450D01*
Y43704D01*
Y43398D01*
X64650D01*
Y43340D01*
X63987D01*
Y43237D01*
X63656D01*
X63647Y43258D01*
X63565Y43365D01*
X63458Y43447D01*
X63396Y43473D01*
Y43527D01*
X63458Y43553D01*
X63565Y43635D01*
X63647Y43742D01*
X63699Y43866D01*
X63716Y44000D01*
X63699Y44134D01*
X63647Y44258D01*
X63565Y44365D01*
X63458Y44447D01*
X63346Y44493D01*
X63341Y44535D01*
X63343Y44546D01*
X63439Y44586D01*
X63538Y44662D01*
X63614Y44761D01*
X63662Y44876D01*
X63672Y44950D01*
X62728D01*
X62738Y44876D01*
X62786Y44761D01*
X62862Y44662D01*
X62961Y44586D01*
X63057Y44546D01*
X63059Y44535D01*
X63054Y44493D01*
X62942Y44447D01*
X62835Y44365D01*
X62753Y44258D01*
X62746Y44241D01*
X62568D01*
Y44463D01*
X61919D01*
Y43637D01*
X62568D01*
Y43759D01*
X62746D01*
X62753Y43742D01*
X62835Y43635D01*
X62942Y43553D01*
X63004Y43527D01*
Y43473D01*
X62942Y43447D01*
X62835Y43365D01*
X62753Y43258D01*
X62701Y43134D01*
X62684Y43000D01*
X62701Y42866D01*
X62753Y42742D01*
X62835Y42635D01*
X62942Y42553D01*
X63066Y42501D01*
X63200Y42484D01*
X63334Y42501D01*
X63458Y42553D01*
X63565Y42635D01*
X63647Y42742D01*
X63652Y42755D01*
X63987D01*
Y42651D01*
X64650D01*
Y41243D01*
X64604Y41224D01*
X64478Y41349D01*
X64478Y41351D01*
X64439Y41446D01*
X64438Y41447D01*
Y41653D01*
X64439Y41654D01*
X64478Y41749D01*
X64491Y41850D01*
X64478Y41951D01*
X64439Y42046D01*
X64377Y42127D01*
X64296Y42189D01*
X64201Y42228D01*
X64100Y42241D01*
X63999Y42228D01*
X63904Y42189D01*
X63823Y42127D01*
X63761Y42046D01*
X63722Y41951D01*
X63709Y41850D01*
X63722Y41749D01*
X63761Y41654D01*
X63762Y41653D01*
Y41447D01*
X63761Y41446D01*
X63722Y41351D01*
X63709Y41250D01*
X63722Y41149D01*
X63761Y41054D01*
X63823Y40973D01*
X63904Y40911D01*
X63999Y40872D01*
X64001Y40872D01*
X64112Y40760D01*
Y22140D01*
X63910Y21938D01*
X63561D01*
X63529Y21979D01*
X63418Y22064D01*
X63348Y22093D01*
Y22148D01*
X63399Y22169D01*
X63502Y22248D01*
X63581Y22351D01*
X63631Y22471D01*
X63641Y22550D01*
X62659D01*
X62669Y22471D01*
X62719Y22351D01*
X62798Y22248D01*
X62901Y22169D01*
X62952Y22148D01*
Y22093D01*
X62882Y22064D01*
X62771Y21979D01*
X62686Y21868D01*
X62674Y21841D01*
X62600D01*
X62575Y21866D01*
X62497Y21918D01*
X62404Y21937D01*
X62363D01*
Y22040D01*
X61537D01*
Y21351D01*
X62363D01*
Y21354D01*
X62398Y21373D01*
X62413Y21376D01*
X62500Y21359D01*
X62674D01*
X62686Y21332D01*
X62771Y21221D01*
X62812Y21189D01*
Y15690D01*
X58060Y10938D01*
X51038D01*
Y18650D01*
X51026Y18737D01*
X51009Y18778D01*
X50992Y18819D01*
X50939Y18889D01*
X50180Y19647D01*
X50111Y19701D01*
X50087Y19710D01*
X50029Y19734D01*
X49942Y19746D01*
X46879D01*
X46801Y19778D01*
X46700Y19791D01*
X46599Y19778D01*
X46521Y19746D01*
X45290D01*
Y20018D01*
X44621D01*
Y19430D01*
X44618Y19408D01*
X44621Y19386D01*
Y18798D01*
X44668D01*
Y18356D01*
X44649Y18313D01*
X43960D01*
Y17487D01*
X44649D01*
Y17612D01*
X44650D01*
X44725Y17622D01*
X44794Y17651D01*
X44854Y17696D01*
X45159Y18002D01*
X45205Y18062D01*
X45234Y18131D01*
X45243Y18206D01*
Y18798D01*
X45290D01*
Y19071D01*
X46492D01*
X46504Y19061D01*
X46599Y19022D01*
X46700Y19009D01*
X46801Y19022D01*
X46896Y19061D01*
X46908Y19071D01*
X49802D01*
X50362Y18510D01*
Y10938D01*
X49295D01*
Y11137D01*
X49399D01*
Y11309D01*
X49400D01*
X49492Y11327D01*
X49570Y11380D01*
X49805Y11614D01*
X49857Y11692D01*
X49875Y11784D01*
Y12096D01*
X49892Y12103D01*
X49999Y12185D01*
X50081Y12292D01*
X50133Y12416D01*
X50150Y12550D01*
X50133Y12684D01*
X50081Y12808D01*
X49999Y12915D01*
X49892Y12997D01*
X49768Y13049D01*
X49634Y13066D01*
X49501Y13049D01*
X49376Y12997D01*
X49269Y12915D01*
X49187Y12808D01*
X49167Y12760D01*
X49117D01*
X49097Y12808D01*
X49015Y12915D01*
X48908Y12997D01*
X48891Y13004D01*
Y13182D01*
X49063D01*
Y13831D01*
X48237D01*
Y13182D01*
X48409D01*
Y13004D01*
X48392Y12997D01*
X48285Y12915D01*
X48203Y12808D01*
X48164Y12715D01*
X48110D01*
X48080Y12789D01*
X48004Y12888D01*
X47905Y12964D01*
X47789Y13012D01*
X47716Y13022D01*
Y12550D01*
Y12078D01*
X47789Y12088D01*
X47905Y12136D01*
X48004Y12212D01*
X48080Y12311D01*
X48110Y12385D01*
X48164D01*
X48203Y12292D01*
X48285Y12185D01*
X48392Y12103D01*
X48516Y12051D01*
X48650Y12034D01*
X48784Y12051D01*
X48908Y12103D01*
X49015Y12185D01*
X49097Y12292D01*
X49117Y12340D01*
X49167D01*
X49187Y12292D01*
X49269Y12185D01*
X49376Y12103D01*
X49393Y12096D01*
Y11963D01*
X48710D01*
Y11137D01*
X48813D01*
Y10938D01*
X45551D01*
X45549Y10987D01*
X45549Y10987D01*
X45549Y10987D01*
Y11159D01*
X45600D01*
X45692Y11177D01*
X45770Y11230D01*
X45955Y11414D01*
X46007Y11492D01*
X46025Y11584D01*
Y12096D01*
X46042Y12103D01*
X46149Y12185D01*
X46231Y12292D01*
X46283Y12416D01*
X46300Y12550D01*
X46283Y12684D01*
X46231Y12808D01*
X46149Y12915D01*
X46042Y12997D01*
X45918Y13049D01*
X45784Y13066D01*
X45651Y13049D01*
X45526Y12997D01*
X45419Y12915D01*
X45337Y12808D01*
X45317Y12760D01*
X45267D01*
X45247Y12808D01*
X45165Y12915D01*
X45058Y12997D01*
X45041Y13004D01*
Y13232D01*
X45213D01*
Y13881D01*
X44387D01*
Y13232D01*
X44559D01*
Y13004D01*
X44542Y12997D01*
X44435Y12915D01*
X44353Y12808D01*
X44314Y12715D01*
X44260D01*
X44230Y12789D01*
X44154Y12888D01*
X44055Y12964D01*
X43939Y13012D01*
X43866Y13022D01*
Y12550D01*
Y12078D01*
X43939Y12088D01*
X44055Y12136D01*
X44154Y12212D01*
X44230Y12311D01*
X44260Y12385D01*
X44314D01*
X44353Y12292D01*
X44435Y12185D01*
X44542Y12103D01*
X44666Y12051D01*
X44800Y12034D01*
X44934Y12051D01*
X45058Y12103D01*
X45165Y12185D01*
X45247Y12292D01*
X45267Y12340D01*
X45317D01*
X45337Y12292D01*
X45419Y12185D01*
X45526Y12103D01*
X45543Y12096D01*
Y11813D01*
X44860D01*
Y10987D01*
X44860Y10987D01*
X44860D01*
X44858Y10938D01*
X43340D01*
X42689Y11589D01*
X42619Y11642D01*
X42595Y11652D01*
X42537Y11676D01*
X42450Y11688D01*
X39397D01*
X39396Y11689D01*
X39301Y11728D01*
X39200Y11741D01*
X39099Y11728D01*
X39004Y11689D01*
X39003Y11688D01*
X38697D01*
X38696Y11689D01*
X38601Y11728D01*
X38500Y11741D01*
X38399Y11728D01*
X38304Y11689D01*
X38223Y11627D01*
X38188Y11580D01*
X38138Y11597D01*
Y11775D01*
X38213Y11872D01*
X38260Y11987D01*
X38277Y12111D01*
Y12189D01*
X38260Y12313D01*
X38213Y12428D01*
X38137Y12526D01*
X38038Y12602D01*
X37988Y12623D01*
Y12677D01*
X38038Y12698D01*
X38137Y12774D01*
X38213Y12872D01*
X38260Y12987D01*
X38277Y13111D01*
Y13189D01*
X38260Y13313D01*
X38213Y13428D01*
X38137Y13526D01*
X38038Y13602D01*
X37923Y13650D01*
X37800Y13666D01*
X37677Y13650D01*
X37562Y13602D01*
X37463Y13526D01*
X37387Y13428D01*
X37340Y13313D01*
X37325Y13203D01*
X37275D01*
X37260Y13313D01*
X37213Y13428D01*
X37137Y13526D01*
X37038Y13602D01*
X36923Y13650D01*
X36800Y13666D01*
X36677Y13650D01*
X36562Y13602D01*
X36463Y13526D01*
X36387Y13428D01*
X36340Y13313D01*
X36325Y13203D01*
X36275D01*
X36260Y13313D01*
X36213Y13428D01*
X36137Y13526D01*
X36038Y13602D01*
X35923Y13650D01*
X35800Y13666D01*
X35677Y13650D01*
X35562Y13602D01*
X35463Y13526D01*
X35387Y13428D01*
X35340Y13313D01*
X35323Y13189D01*
Y13111D01*
X35340Y12987D01*
X35387Y12872D01*
X35463Y12774D01*
X35562Y12698D01*
X35612Y12677D01*
Y12623D01*
X35562Y12602D01*
X35463Y12526D01*
X35387Y12428D01*
X35340Y12313D01*
X35325Y12203D01*
X35275D01*
X35260Y12313D01*
X35213Y12428D01*
X35137Y12526D01*
X35038Y12602D01*
X34938Y12643D01*
X34935Y12694D01*
X34935Y12696D01*
X35019Y12731D01*
X35110Y12801D01*
X35180Y12891D01*
X35223Y12997D01*
X35237Y13100D01*
X34363D01*
X34377Y12997D01*
X34420Y12891D01*
X34490Y12801D01*
X34581Y12731D01*
X34665Y12696D01*
X34665Y12694D01*
X34662Y12643D01*
X34562Y12602D01*
X34463Y12526D01*
X34387Y12428D01*
X34340Y12313D01*
X34325Y12203D01*
X34275D01*
X34260Y12313D01*
X34213Y12428D01*
X34137Y12526D01*
X34038Y12602D01*
X33988Y12623D01*
Y12677D01*
X34038Y12698D01*
X34137Y12774D01*
X34213Y12872D01*
X34260Y12987D01*
X34277Y13111D01*
Y13189D01*
X34260Y13313D01*
X34213Y13428D01*
X34137Y13526D01*
X34038Y13602D01*
X33923Y13650D01*
X33800Y13666D01*
X33677Y13650D01*
X33562Y13602D01*
X33463Y13526D01*
X33387Y13428D01*
X33340Y13313D01*
X33323Y13189D01*
Y13111D01*
X33340Y12987D01*
X33387Y12872D01*
X33463Y12774D01*
X33562Y12698D01*
X33612Y12677D01*
Y12623D01*
X33562Y12602D01*
X33463Y12526D01*
X33387Y12428D01*
X33340Y12313D01*
X33323Y12189D01*
Y12111D01*
X33340Y11987D01*
X33387Y11872D01*
X33463Y11774D01*
X33562Y11698D01*
X33677Y11650D01*
X33800Y11634D01*
X33923Y11650D01*
X34038Y11698D01*
X34137Y11774D01*
X34213Y11872D01*
X34260Y11987D01*
X34275Y12098D01*
X34325D01*
X34340Y11987D01*
X34387Y11872D01*
X34463Y11774D01*
X34562Y11698D01*
X34599Y11682D01*
Y11583D01*
X34317Y11301D01*
X31583D01*
X30801Y12083D01*
Y16100D01*
X30847Y16119D01*
X31458Y15508D01*
X31523Y15465D01*
X31536Y15462D01*
X31600Y15449D01*
X41418D01*
X41419Y15447D01*
X41481D01*
X41482Y15449D01*
X44367D01*
X44599Y15217D01*
Y14669D01*
X44387D01*
Y14019D01*
X45213D01*
Y14669D01*
X45001D01*
Y15300D01*
X44985Y15377D01*
X44942Y15442D01*
X44731Y15653D01*
X44750Y15699D01*
X48317D01*
X48449Y15567D01*
Y14619D01*
X48237D01*
Y13969D01*
X49063D01*
Y14619D01*
X48851D01*
Y15650D01*
X48838Y15714D01*
X48835Y15727D01*
X48792Y15792D01*
X48542Y16042D01*
X48477Y16085D01*
X48400Y16101D01*
X31883D01*
X31401Y16583D01*
Y25517D01*
X33842Y27958D01*
X33885Y28023D01*
X33901Y28100D01*
Y30715D01*
X33977Y30773D01*
X34039Y30854D01*
X34078Y30949D01*
X34091Y31050D01*
X34078Y31151D01*
X34039Y31246D01*
X33977Y31327D01*
X33896Y31389D01*
X33801Y31428D01*
X33700Y31441D01*
X33599Y31428D01*
X33504Y31389D01*
X33423Y31327D01*
X33361Y31246D01*
X33322Y31151D01*
X33309Y31050D01*
X33322Y30949D01*
X33361Y30854D01*
X33423Y30773D01*
X33499Y30715D01*
Y28183D01*
X32897Y27581D01*
X32851Y27600D01*
Y30715D01*
X32927Y30773D01*
X32989Y30854D01*
X33028Y30949D01*
X33041Y31050D01*
X33028Y31151D01*
X32989Y31246D01*
X32927Y31327D01*
X32846Y31389D01*
X32751Y31428D01*
X32650Y31441D01*
X32549Y31428D01*
X32454Y31389D01*
X32373Y31327D01*
X32311Y31246D01*
X32272Y31151D01*
X32259Y31050D01*
X32272Y30949D01*
X32311Y30854D01*
X32373Y30773D01*
X32449Y30715D01*
Y27533D01*
X30847Y25931D01*
X30801Y25950D01*
Y28104D01*
X30851Y28119D01*
X30858Y28108D01*
X31158Y27808D01*
X31167Y27802D01*
Y27733D01*
X31383Y27517D01*
X31817D01*
X32033Y27733D01*
Y28167D01*
X31817Y28383D01*
X31383D01*
X31267Y28267D01*
X31201Y28333D01*
Y28750D01*
X31251Y28760D01*
X31255Y28751D01*
X31318Y28668D01*
X31401Y28605D01*
X31497Y28565D01*
X31550Y28558D01*
Y28950D01*
Y29342D01*
X31497Y29335D01*
X31401Y29295D01*
X31318Y29232D01*
X31255Y29149D01*
X31251Y29140D01*
X31201Y29150D01*
Y30467D01*
X31942Y31208D01*
X31985Y31273D01*
X32001Y31350D01*
Y31532D01*
X32213D01*
Y32049D01*
X42900D01*
X42977Y32065D01*
X43042Y32108D01*
X43892Y32958D01*
X43935Y33023D01*
X43951Y33100D01*
Y33665D01*
X44027Y33723D01*
X44089Y33804D01*
X44128Y33899D01*
X44141Y34000D01*
X44128Y34101D01*
X44089Y34196D01*
X44027Y34277D01*
X43946Y34339D01*
X43851Y34378D01*
X43750Y34391D01*
X43649Y34378D01*
X43554Y34339D01*
X43473Y34277D01*
X43411Y34196D01*
X43372Y34101D01*
X43359Y34000D01*
X43372Y33899D01*
X43411Y33804D01*
X43473Y33723D01*
X43549Y33665D01*
Y33183D01*
X42817Y32451D01*
X32213D01*
Y32968D01*
X32001D01*
Y40067D01*
X32403Y40469D01*
X32449Y40450D01*
Y33935D01*
X32373Y33877D01*
X32311Y33796D01*
X32272Y33701D01*
X32259Y33600D01*
X32272Y33499D01*
X32311Y33404D01*
X32373Y33323D01*
X32454Y33261D01*
X32549Y33222D01*
X32650Y33209D01*
X32751Y33222D01*
X32846Y33261D01*
X32927Y33323D01*
X32989Y33404D01*
X33028Y33499D01*
X33041Y33600D01*
X33028Y33701D01*
X32989Y33796D01*
X32927Y33877D01*
X32851Y33935D01*
Y34300D01*
X32897Y34319D01*
X33249Y33967D01*
Y33285D01*
X33173Y33227D01*
X33111Y33146D01*
X33072Y33051D01*
X33059Y32950D01*
X33072Y32849D01*
X33111Y32754D01*
X33173Y32673D01*
X33254Y32611D01*
X33349Y32572D01*
X33450Y32559D01*
X33551Y32572D01*
X33646Y32611D01*
X33727Y32673D01*
X33789Y32754D01*
X33828Y32849D01*
X33841Y32950D01*
X33828Y33051D01*
X33789Y33146D01*
X33727Y33227D01*
X33651Y33285D01*
Y34050D01*
X33638Y34114D01*
X33635Y34127D01*
X33592Y34192D01*
X33101Y34683D01*
Y40217D01*
X33242Y40358D01*
X33260Y40386D01*
X33312Y40373D01*
X33322Y40299D01*
X33361Y40204D01*
X33423Y40123D01*
X33499Y40065D01*
Y39850D01*
X33515Y39773D01*
X33558Y39708D01*
X33799Y39467D01*
Y33300D01*
X33815Y33223D01*
X33858Y33158D01*
X34358Y32658D01*
X34423Y32615D01*
X34500Y32599D01*
X42150D01*
X42227Y32615D01*
X42292Y32658D01*
X43192Y33558D01*
X43235Y33623D01*
X43251Y33700D01*
Y34667D01*
X43383Y34799D01*
X45767D01*
X45899Y34667D01*
Y32633D01*
X45458Y32192D01*
X45415Y32127D01*
X45399Y32050D01*
Y31985D01*
X45323Y31927D01*
X45261Y31846D01*
X45222Y31751D01*
X45209Y31650D01*
X45222Y31549D01*
X45261Y31454D01*
X45323Y31373D01*
X45404Y31311D01*
X45499Y31272D01*
X45600Y31259D01*
X45701Y31272D01*
X45796Y31311D01*
X45877Y31373D01*
X45939Y31454D01*
X45978Y31549D01*
X45991Y31650D01*
X45978Y31751D01*
X45939Y31846D01*
X45877Y31927D01*
X45841Y31954D01*
X45838Y32004D01*
X45991Y32158D01*
X46034Y32129D01*
X46022Y32101D01*
X46009Y32000D01*
X46022Y31899D01*
X46061Y31804D01*
X46123Y31723D01*
X46204Y31661D01*
X46299Y31622D01*
X46400Y31609D01*
X46501Y31622D01*
X46596Y31661D01*
X46677Y31723D01*
X46712Y31770D01*
X46762Y31753D01*
Y25640D01*
X42200D01*
X42146Y25630D01*
X42101Y25599D01*
X42070Y25554D01*
X42059Y25500D01*
Y25450D01*
Y21637D01*
X41999Y21577D01*
X40903D01*
Y21692D01*
X39997D01*
Y21541D01*
X34204D01*
X34177Y21577D01*
X34096Y21639D01*
X34001Y21678D01*
X33900Y21691D01*
X33799Y21678D01*
X33704Y21639D01*
X33623Y21577D01*
X33561Y21496D01*
X33522Y21401D01*
X33509Y21300D01*
X33522Y21199D01*
X33561Y21104D01*
X33623Y21023D01*
X33704Y20961D01*
X33799Y20922D01*
X33900Y20909D01*
X34001Y20922D01*
X34096Y20961D01*
X34177Y21023D01*
X34204Y21059D01*
X39997D01*
Y20786D01*
X40903D01*
Y20901D01*
X41187D01*
Y20610D01*
X42013D01*
Y20726D01*
X42063Y20730D01*
X42070Y20696D01*
X42101Y20651D01*
X42451Y20301D01*
X42501Y20251D01*
X42546Y20220D01*
X42600Y20210D01*
X43712D01*
Y19408D01*
X43715Y19386D01*
Y18798D01*
X44385D01*
Y19386D01*
X44388Y19408D01*
Y20210D01*
X47100D01*
X47154Y20220D01*
X47199Y20251D01*
X47649Y20701D01*
X47680Y20746D01*
X47691Y20800D01*
Y25500D01*
X47680Y25554D01*
X47649Y25599D01*
X47604Y25630D01*
X47550Y25640D01*
X47338D01*
Y35450D01*
X47328Y35525D01*
X47299Y35594D01*
X47254Y35654D01*
X45982Y36926D01*
X45922Y36971D01*
X45852Y37000D01*
X45778Y37010D01*
X40340D01*
X40274Y37061D01*
X40179Y37100D01*
X40078Y37113D01*
X39977Y37100D01*
X39888Y37063D01*
X39847Y37078D01*
X39838Y37083D01*
Y37306D01*
X39883Y37328D01*
X39904Y37311D01*
X39999Y37272D01*
X40100Y37259D01*
X40201Y37272D01*
X40296Y37311D01*
X40377Y37373D01*
X40439Y37454D01*
X40478Y37549D01*
X40491Y37650D01*
X40478Y37751D01*
X40439Y37846D01*
X40377Y37927D01*
X40296Y37989D01*
X40201Y38028D01*
X40100Y38041D01*
X39999Y38028D01*
X39904Y37989D01*
X39885Y37974D01*
X39832Y37996D01*
X39828Y38025D01*
X39799Y38094D01*
X39754Y38154D01*
X39288Y38619D01*
Y38800D01*
X39278Y38875D01*
X39249Y38944D01*
X39204Y39004D01*
X38849Y39358D01*
X38790Y39404D01*
X38720Y39432D01*
X38646Y39442D01*
X38363D01*
Y39499D01*
X38151D01*
Y39500D01*
X38138Y39564D01*
X38135Y39577D01*
X38092Y39642D01*
X38079Y39655D01*
X38091Y39750D01*
X38078Y39851D01*
X38039Y39946D01*
X37977Y40027D01*
X37896Y40089D01*
X37801Y40128D01*
X37700Y40141D01*
X37599Y40128D01*
X37504Y40089D01*
X37423Y40027D01*
X37361Y39946D01*
X37322Y39851D01*
X37309Y39750D01*
X37322Y39649D01*
X37361Y39554D01*
X37423Y39473D01*
X37504Y39411D01*
X37537Y39398D01*
Y38810D01*
X38363D01*
Y38866D01*
X38526D01*
X38712Y38681D01*
Y38500D01*
X38722Y38425D01*
X38751Y38356D01*
X38796Y38296D01*
X38967Y38126D01*
X38947Y38076D01*
X38746D01*
Y37750D01*
X39002D01*
Y37968D01*
X39052Y37994D01*
X39060Y37989D01*
Y37287D01*
X39262D01*
Y37148D01*
X39221Y37120D01*
X39201Y37128D01*
X39100Y37141D01*
X38999Y37128D01*
X38904Y37089D01*
X38823Y37027D01*
X38761Y36946D01*
X38722Y36851D01*
X38709Y36750D01*
X38722Y36649D01*
X38761Y36554D01*
X38823Y36473D01*
X38859Y36446D01*
Y36363D01*
X38810D01*
Y35537D01*
X38913D01*
Y35404D01*
X38650Y35141D01*
X37819D01*
Y35313D01*
X37169D01*
Y34487D01*
X37819D01*
Y34659D01*
X38750D01*
X38842Y34677D01*
X38920Y34730D01*
X39325Y35134D01*
X39377Y35212D01*
X39395Y35304D01*
Y35537D01*
X39499D01*
Y36363D01*
X39499D01*
X39500Y36381D01*
X39507D01*
X39509Y36380D01*
X39551Y36332D01*
Y35537D01*
X40240D01*
Y35914D01*
X40242Y35919D01*
X40248Y35923D01*
X40298Y35897D01*
Y35574D01*
X40554D01*
Y35950D01*
Y36326D01*
X40319D01*
Y36418D01*
X40340Y36434D01*
X45659D01*
X46762Y35331D01*
Y32247D01*
X46712Y32230D01*
X46677Y32277D01*
X46601Y32335D01*
Y34800D01*
X46585Y34877D01*
X46542Y34942D01*
X46092Y35392D01*
X46027Y35435D01*
X45950Y35451D01*
X43250D01*
X43186Y35438D01*
X43173Y35435D01*
X43108Y35392D01*
X42708Y34992D01*
X42665Y34927D01*
X42649Y34850D01*
Y33933D01*
X41967Y33251D01*
X34733D01*
X34451Y33533D01*
Y39467D01*
X34892Y39908D01*
X34935Y39973D01*
X34951Y40050D01*
Y40115D01*
X35027Y40173D01*
X35089Y40254D01*
X35128Y40349D01*
X35141Y40450D01*
X35128Y40551D01*
X35089Y40646D01*
X35027Y40727D01*
X34946Y40789D01*
X34851Y40828D01*
X34750Y40841D01*
X34649Y40828D01*
X34554Y40789D01*
X34473Y40727D01*
X34411Y40646D01*
X34372Y40551D01*
X34359Y40450D01*
X34372Y40349D01*
X34411Y40254D01*
X34473Y40173D01*
X34509Y40146D01*
X34512Y40096D01*
X34125Y39709D01*
X33901Y39933D01*
Y40065D01*
X33977Y40123D01*
X34039Y40204D01*
X34078Y40299D01*
X34091Y40400D01*
X34078Y40501D01*
X34039Y40596D01*
X33977Y40677D01*
X33896Y40739D01*
X33801Y40778D01*
X33700Y40791D01*
X33599Y40778D01*
X33504Y40739D01*
X33423Y40677D01*
X33361Y40596D01*
X33351Y40570D01*
X33301Y40580D01*
Y41417D01*
X33783Y41899D01*
X38715D01*
X38773Y41823D01*
X38854Y41761D01*
X38949Y41722D01*
X39050Y41709D01*
X39151Y41722D01*
X39246Y41761D01*
X39327Y41823D01*
X39389Y41904D01*
X39428Y41999D01*
X39441Y42100D01*
X39428Y42201D01*
X39389Y42296D01*
X39327Y42377D01*
X39246Y42439D01*
X39151Y42478D01*
X39050Y42491D01*
X38949Y42478D01*
X38854Y42439D01*
X38773Y42377D01*
X38715Y42301D01*
X33700D01*
X33623Y42285D01*
X33558Y42242D01*
X33097Y41781D01*
X33051Y41800D01*
Y43467D01*
X33333Y43749D01*
X37465D01*
X37523Y43673D01*
X37604Y43611D01*
X37699Y43572D01*
X37800Y43559D01*
X37901Y43572D01*
X37996Y43611D01*
X38077Y43673D01*
X38139Y43754D01*
X38178Y43849D01*
X38191Y43950D01*
X38178Y44051D01*
X38139Y44146D01*
X38077Y44227D01*
X37996Y44289D01*
X37901Y44328D01*
X37800Y44341D01*
X37699Y44328D01*
X37604Y44289D01*
X37523Y44227D01*
X37465Y44151D01*
X33250D01*
X33186Y44138D01*
X33173Y44135D01*
X33108Y44092D01*
X32847Y43831D01*
X32801Y43850D01*
Y44117D01*
X33283Y44599D01*
X37315D01*
X37373Y44523D01*
X37454Y44461D01*
X37549Y44422D01*
X37650Y44409D01*
X37751Y44422D01*
X37846Y44461D01*
X37927Y44523D01*
X37989Y44604D01*
X38028Y44699D01*
X38041Y44800D01*
X38028Y44901D01*
X37989Y44996D01*
X37927Y45077D01*
X37846Y45139D01*
X37751Y45178D01*
X37650Y45191D01*
X37549Y45178D01*
X37454Y45139D01*
X37373Y45077D01*
X37315Y45001D01*
X36764D01*
X36747Y45051D01*
X36777Y45073D01*
X36839Y45154D01*
X36878Y45249D01*
X36891Y45350D01*
X36878Y45451D01*
X36839Y45546D01*
X36777Y45627D01*
X36696Y45689D01*
X36601Y45728D01*
X36500Y45741D01*
X36399Y45728D01*
X36304Y45689D01*
X36223Y45627D01*
X36165Y45551D01*
X34733D01*
X34601Y45683D01*
Y46778D01*
X34651Y46802D01*
X34704Y46761D01*
X34799Y46722D01*
X34900Y46709D01*
X35001Y46722D01*
X35096Y46761D01*
X35177Y46823D01*
X35235Y46899D01*
X40267D01*
X43358Y43808D01*
X43423Y43765D01*
X43500Y43749D01*
X48115D01*
X48173Y43673D01*
X48254Y43611D01*
X48349Y43572D01*
X48450Y43559D01*
X48551Y43572D01*
X48646Y43611D01*
X48727Y43673D01*
X48789Y43754D01*
X48828Y43849D01*
X48841Y43950D01*
X48828Y44051D01*
X48789Y44146D01*
X48727Y44227D01*
X48697Y44249D01*
X48714Y44299D01*
X48983D01*
X49167Y44115D01*
X49159Y44050D01*
X49172Y43949D01*
X49211Y43854D01*
X49273Y43773D01*
X49354Y43711D01*
X49449Y43672D01*
X49550Y43659D01*
X49651Y43672D01*
X49746Y43711D01*
X49827Y43773D01*
X49889Y43854D01*
X49928Y43949D01*
X49941Y44050D01*
X49928Y44151D01*
X49889Y44246D01*
X49827Y44327D01*
X49746Y44389D01*
X49651Y44428D01*
X49550Y44441D01*
X49449Y44428D01*
X49430Y44420D01*
X49297Y44553D01*
X49316Y44599D01*
X49865D01*
X49923Y44523D01*
X50004Y44461D01*
X50099Y44422D01*
X50200Y44409D01*
X50301Y44422D01*
X50396Y44461D01*
X50477Y44523D01*
X50539Y44604D01*
X50578Y44699D01*
X50591Y44800D01*
X50578Y44901D01*
X50539Y44996D01*
X50477Y45077D01*
X50396Y45139D01*
X50301Y45178D01*
X50200Y45191D01*
X50099Y45178D01*
X50004Y45139D01*
X49923Y45077D01*
X49865Y45001D01*
X45964D01*
X45947Y45051D01*
X45977Y45073D01*
X46039Y45154D01*
X46078Y45249D01*
X46091Y45350D01*
X46078Y45451D01*
X46039Y45546D01*
X46032Y45554D01*
X46054Y45599D01*
X48615D01*
X48673Y45523D01*
X48754Y45461D01*
X48849Y45422D01*
X48950Y45409D01*
X49051Y45422D01*
X49146Y45461D01*
X49227Y45523D01*
X49289Y45604D01*
X49328Y45699D01*
X49341Y45800D01*
X49328Y45901D01*
X49289Y45996D01*
X49227Y46077D01*
X49146Y46139D01*
X49051Y46178D01*
X48950Y46191D01*
X48849Y46178D01*
X48754Y46139D01*
X48673Y46077D01*
X48615Y46001D01*
X47622D01*
X47598Y46051D01*
X47639Y46104D01*
X47678Y46199D01*
X47691Y46300D01*
X47678Y46401D01*
X47667Y46427D01*
X47698Y46455D01*
X47708Y46460D01*
X47799Y46422D01*
X47900Y46409D01*
X48001Y46422D01*
X48096Y46461D01*
X48177Y46523D01*
X48239Y46604D01*
X48278Y46699D01*
X48291Y46800D01*
X48278Y46901D01*
X48239Y46996D01*
X48177Y47077D01*
X48096Y47139D01*
X48001Y47178D01*
X47900Y47191D01*
X47799Y47178D01*
X47704Y47139D01*
X47623Y47077D01*
X47565Y47001D01*
X47014D01*
X46997Y47051D01*
X47027Y47073D01*
X47089Y47154D01*
X47128Y47249D01*
X47141Y47350D01*
X47128Y47451D01*
X47089Y47546D01*
X47027Y47627D01*
X46946Y47689D01*
X46851Y47728D01*
X46750Y47741D01*
X46649Y47728D01*
X46593Y47705D01*
X46555Y47743D01*
X46578Y47799D01*
X46591Y47900D01*
X46578Y48001D01*
X46539Y48096D01*
X46477Y48177D01*
X46396Y48239D01*
X46370Y48249D01*
X46380Y48299D01*
X46600D01*
X46677Y48315D01*
X46742Y48358D01*
X47043Y48660D01*
X47087Y48725D01*
X47090Y48738D01*
X47102Y48802D01*
Y49013D01*
X47140Y49028D01*
X47239Y49104D01*
X47314Y49203D01*
X47362Y49318D01*
X47378Y49441D01*
Y49559D01*
X47362Y49682D01*
X47314Y49797D01*
X47239Y49896D01*
X47140Y49972D01*
X47088Y49993D01*
Y50048D01*
X47121Y50061D01*
X47212Y50131D01*
X47281Y50222D01*
X47325Y50327D01*
X47340Y50441D01*
Y50450D01*
X46463D01*
Y50441D01*
X46478Y50327D01*
X46522Y50222D01*
X46592Y50131D01*
X46682Y50061D01*
X46716Y50048D01*
Y49993D01*
X46663Y49972D01*
X46565Y49896D01*
X46489Y49797D01*
X46441Y49682D01*
X46427Y49572D01*
X46376D01*
X46362Y49682D01*
X46314Y49797D01*
X46239Y49896D01*
X46140Y49972D01*
X46132Y49975D01*
Y50025D01*
X46140Y50028D01*
X46239Y50104D01*
X46314Y50203D01*
X46362Y50318D01*
X46378Y50441D01*
Y50559D01*
X46362Y50682D01*
X46314Y50797D01*
X46239Y50896D01*
X46238Y50896D01*
Y51537D01*
X46390D01*
Y52363D01*
X45701D01*
Y51899D01*
X45701Y51898D01*
X45672Y51829D01*
X45662Y51754D01*
Y51006D01*
X45651Y50999D01*
X45601Y51026D01*
Y53850D01*
X45585Y53927D01*
X45542Y53992D01*
X45479Y54055D01*
X45491Y54150D01*
X45478Y54251D01*
X45439Y54346D01*
X45377Y54427D01*
X45296Y54489D01*
X45201Y54528D01*
X45100Y54541D01*
X44999Y54528D01*
X44904Y54489D01*
X44823Y54427D01*
X44761Y54346D01*
X44722Y54251D01*
X44709Y54150D01*
X44722Y54049D01*
X44761Y53954D01*
X44823Y53873D01*
X44904Y53811D01*
X44999Y53772D01*
X45100Y53759D01*
X45149Y53765D01*
X45199Y53721D01*
Y50983D01*
X45154Y50961D01*
X45140Y50972D01*
X45025Y51019D01*
X44902Y51036D01*
X44778Y51019D01*
X44663Y50972D01*
X44565Y50896D01*
X44489Y50797D01*
X44441Y50682D01*
X44427Y50572D01*
X44376D01*
X44362Y50682D01*
X44314Y50797D01*
X44239Y50896D01*
X44140Y50972D01*
X44102Y50987D01*
Y54798D01*
X44087Y54875D01*
X44043Y54940D01*
X43442Y55542D01*
X43377Y55585D01*
X43300Y55601D01*
X37750D01*
X37673Y55585D01*
X37608Y55542D01*
X37258Y55192D01*
X37215Y55127D01*
X37199Y55050D01*
Y52535D01*
X37123Y52477D01*
X37061Y52396D01*
X37022Y52301D01*
X37009Y52200D01*
X37022Y52099D01*
X37061Y52004D01*
X37123Y51923D01*
X37204Y51861D01*
X37299Y51822D01*
X37400Y51809D01*
X37501Y51822D01*
X37596Y51861D01*
X37677Y51923D01*
X37739Y52004D01*
X37778Y52099D01*
X37791Y52200D01*
X37778Y52301D01*
X37739Y52396D01*
X37677Y52477D01*
X37601Y52535D01*
Y54967D01*
X37833Y55199D01*
X38500D01*
X38519Y55153D01*
X38258Y54892D01*
X38215Y54827D01*
X38199Y54750D01*
Y52485D01*
X38123Y52427D01*
X38061Y52346D01*
X38022Y52251D01*
X38009Y52150D01*
X38022Y52049D01*
X38061Y51954D01*
X38123Y51873D01*
X38204Y51811D01*
X38299Y51772D01*
X38400Y51759D01*
X38501Y51772D01*
X38596Y51811D01*
X38677Y51873D01*
X38739Y51954D01*
X38778Y52049D01*
X38791Y52150D01*
X38778Y52251D01*
X38739Y52346D01*
X38677Y52427D01*
X38601Y52485D01*
Y54667D01*
X38833Y54899D01*
X39604D01*
X39619Y54849D01*
X39608Y54842D01*
X39258Y54492D01*
X39215Y54427D01*
X39199Y54350D01*
Y52485D01*
X39123Y52427D01*
X39061Y52346D01*
X39022Y52251D01*
X39009Y52150D01*
X39022Y52049D01*
X39061Y51954D01*
X39123Y51873D01*
X39204Y51811D01*
X39299Y51772D01*
X39400Y51759D01*
X39501Y51772D01*
X39596Y51811D01*
X39677Y51873D01*
X39739Y51954D01*
X39778Y52049D01*
X39791Y52150D01*
X39778Y52251D01*
X39739Y52346D01*
X39677Y52427D01*
X39601Y52485D01*
Y54267D01*
X39833Y54499D01*
X42167D01*
X42785Y53881D01*
X42772Y53851D01*
X42759Y53750D01*
X42772Y53649D01*
X42811Y53554D01*
X42873Y53473D01*
X42954Y53411D01*
X43049Y53372D01*
X43150Y53359D01*
X43251Y53372D01*
X43346Y53411D01*
X43427Y53473D01*
X43489Y53554D01*
X43528Y53649D01*
X43541Y53750D01*
X43528Y53851D01*
X43489Y53946D01*
X43427Y54027D01*
X43346Y54089D01*
X43251Y54128D01*
X43235Y54130D01*
X43227Y54135D01*
X43150Y54151D01*
X43094Y54140D01*
X42392Y54842D01*
X42381Y54849D01*
X42396Y54899D01*
X42717D01*
X42771Y54845D01*
X42759Y54750D01*
X42772Y54649D01*
X42811Y54554D01*
X42873Y54473D01*
X42954Y54411D01*
X43049Y54372D01*
X43150Y54359D01*
X43251Y54372D01*
X43346Y54411D01*
X43427Y54473D01*
X43489Y54554D01*
X43528Y54649D01*
X43541Y54750D01*
X43533Y54813D01*
X43580Y54836D01*
X43701Y54715D01*
Y50987D01*
X43663Y50972D01*
X43565Y50896D01*
X43489Y50797D01*
X43441Y50682D01*
X43427Y50572D01*
X43376D01*
X43362Y50682D01*
X43314Y50797D01*
X43239Y50896D01*
X43140Y50972D01*
X43025Y51019D01*
X42902Y51036D01*
X42778Y51019D01*
X42663Y50972D01*
X42565Y50896D01*
X42489Y50797D01*
X42441Y50682D01*
X42427Y50572D01*
X42376D01*
X42362Y50682D01*
X42314Y50797D01*
X42239Y50896D01*
X42140Y50972D01*
X42025Y51019D01*
X41902Y51036D01*
X41778Y51019D01*
X41663Y50972D01*
X41565Y50896D01*
X41489Y50797D01*
X41441Y50682D01*
X41427Y50572D01*
X41376D01*
X41362Y50682D01*
X41314Y50797D01*
X41239Y50896D01*
X41140Y50972D01*
X41025Y51019D01*
X40902Y51036D01*
X40778Y51019D01*
X40663Y50972D01*
X40646Y50958D01*
X40601Y50980D01*
Y53450D01*
X40585Y53527D01*
X40542Y53592D01*
X40479Y53655D01*
X40491Y53750D01*
X40478Y53851D01*
X40439Y53946D01*
X40377Y54027D01*
X40296Y54089D01*
X40201Y54128D01*
X40100Y54141D01*
X39999Y54128D01*
X39904Y54089D01*
X39823Y54027D01*
X39761Y53946D01*
X39722Y53851D01*
X39709Y53750D01*
X39722Y53649D01*
X39761Y53554D01*
X39823Y53473D01*
X39904Y53411D01*
X39999Y53372D01*
X40100Y53359D01*
X40149Y53365D01*
X40199Y53321D01*
Y50983D01*
X40154Y50961D01*
X40140Y50972D01*
X40025Y51019D01*
X39902Y51036D01*
X39778Y51019D01*
X39663Y50972D01*
X39565Y50896D01*
X39489Y50797D01*
X39441Y50682D01*
X39427Y50572D01*
X39376D01*
X39362Y50682D01*
X39314Y50797D01*
X39239Y50896D01*
X39140Y50972D01*
X39025Y51019D01*
X38902Y51036D01*
X38778Y51019D01*
X38663Y50972D01*
X38565Y50896D01*
X38489Y50797D01*
X38441Y50682D01*
X38427Y50572D01*
X38376D01*
X38362Y50682D01*
X38314Y50797D01*
X38239Y50896D01*
X38140Y50972D01*
X38025Y51019D01*
X37902Y51036D01*
X37778Y51019D01*
X37663Y50972D01*
X37565Y50896D01*
X37489Y50797D01*
X37441Y50682D01*
X37427Y50572D01*
X37376D01*
X37362Y50682D01*
X37314Y50797D01*
X37239Y50896D01*
X37140Y50972D01*
X37025Y51019D01*
X36902Y51036D01*
X36778Y51019D01*
X36663Y50972D01*
X36565Y50896D01*
X36489Y50797D01*
X36441Y50682D01*
X36427Y50572D01*
X36376D01*
X36362Y50682D01*
X36314Y50797D01*
X36239Y50896D01*
X36140Y50972D01*
X36025Y51019D01*
X35902Y51036D01*
X35778Y51019D01*
X35663Y50972D01*
X35565Y50896D01*
X35489Y50797D01*
X35441Y50682D01*
X35427Y50572D01*
X35376D01*
X35362Y50682D01*
X35314Y50797D01*
X35239Y50896D01*
X35140Y50972D01*
X35025Y51019D01*
X34902Y51036D01*
X34778Y51019D01*
X34663Y50972D01*
X34565Y50896D01*
X34489Y50797D01*
X34441Y50682D01*
X34427Y50572D01*
X34376D01*
X34362Y50682D01*
X34314Y50797D01*
X34239Y50896D01*
X34140Y50972D01*
X34025Y51019D01*
X33902Y51036D01*
X33778Y51019D01*
X33663Y50972D01*
X33565Y50896D01*
X33489Y50797D01*
X33441Y50682D01*
X33427Y50572D01*
X33376D01*
X33362Y50682D01*
X33314Y50797D01*
X33239Y50896D01*
X33140Y50972D01*
X33025Y51019D01*
X32902Y51036D01*
X32778Y51019D01*
X32663Y50972D01*
X32565Y50896D01*
X32489Y50797D01*
X32441Y50682D01*
X32427Y50572D01*
X32376D01*
X32362Y50682D01*
X32314Y50797D01*
X32239Y50896D01*
X32140Y50972D01*
X32025Y51019D01*
X31902Y51036D01*
X31778Y51019D01*
X31663Y50972D01*
X31565Y50896D01*
X31489Y50797D01*
X31441Y50682D01*
X31427Y50572D01*
X31376D01*
X31362Y50682D01*
X31314Y50797D01*
X31239Y50896D01*
X31142Y50970D01*
Y52548D01*
X31124Y52641D01*
X31072Y52719D01*
X30870Y52920D01*
X30792Y52973D01*
X30700Y52991D01*
X30668D01*
Y53163D01*
X30019D01*
Y52337D01*
X30661D01*
Y50970D01*
X30565Y50896D01*
X30489Y50797D01*
X30441Y50682D01*
X30427Y50572D01*
X30376D01*
X30362Y50682D01*
X30314Y50797D01*
X30239Y50896D01*
X30140Y50972D01*
X30025Y51019D01*
X29902Y51036D01*
X29778Y51019D01*
X29663Y50972D01*
X29565Y50896D01*
X29489Y50797D01*
X29441Y50682D01*
X29427Y50572D01*
X29376D01*
X29362Y50682D01*
X29314Y50797D01*
X29239Y50896D01*
X29189Y50934D01*
Y52317D01*
X29231Y52337D01*
X29232Y52337D01*
Y52337D01*
X29232Y52337D01*
X29881D01*
Y53163D01*
X29232D01*
X29232Y53163D01*
Y53163D01*
X29231Y53163D01*
X29188Y53179D01*
Y56038D01*
X29239Y56104D01*
X29278Y56199D01*
X29291Y56300D01*
X29278Y56401D01*
X29239Y56496D01*
X29177Y56577D01*
X29096Y56639D01*
X29001Y56678D01*
X28900Y56691D01*
X28799Y56678D01*
X28704Y56639D01*
X28623Y56577D01*
X28561Y56496D01*
X28522Y56401D01*
X28509Y56300D01*
X28522Y56199D01*
X28561Y56104D01*
X28612Y56038D01*
Y53163D01*
X28019D01*
Y52337D01*
X28614D01*
Y50934D01*
X28565Y50896D01*
X28489Y50797D01*
X28441Y50682D01*
X28427Y50572D01*
X28376D01*
X28362Y50682D01*
X28314Y50797D01*
X28239Y50896D01*
X28142Y50970D01*
Y51598D01*
X28124Y51691D01*
X28072Y51769D01*
X27797Y52043D01*
Y52337D01*
X27881D01*
Y53163D01*
X27232D01*
Y52991D01*
X27137D01*
Y53006D01*
X26468D01*
Y52494D01*
X27137D01*
Y52509D01*
X27232D01*
Y52337D01*
X27315D01*
Y51944D01*
X27334Y51852D01*
X27386Y51773D01*
X27661Y51499D01*
Y50970D01*
X27565Y50896D01*
X27489Y50797D01*
X27441Y50682D01*
X27425Y50559D01*
Y50441D01*
X27441Y50318D01*
X27489Y50203D01*
X27565Y50104D01*
X27663Y50028D01*
X27671Y50025D01*
Y49975D01*
X27663Y49972D01*
X27565Y49896D01*
X27489Y49797D01*
X27441Y49682D01*
X27425Y49559D01*
Y49441D01*
X27441Y49318D01*
X27489Y49203D01*
X27565Y49104D01*
X27663Y49028D01*
X27778Y48981D01*
X27902Y48964D01*
X28025Y48981D01*
X28140Y49028D01*
X28239Y49104D01*
X28314Y49203D01*
X28362Y49318D01*
X28376Y49428D01*
X28427D01*
X28441Y49318D01*
X28489Y49203D01*
X28565Y49104D01*
X28663Y49028D01*
X28778Y48981D01*
X28902Y48964D01*
X29025Y48981D01*
X29140Y49028D01*
X29239Y49104D01*
X29314Y49203D01*
X29362Y49318D01*
X29376Y49428D01*
X29427D01*
X29441Y49318D01*
X29489Y49203D01*
X29565Y49104D01*
X29663Y49028D01*
X29778Y48981D01*
X29902Y48964D01*
X30025Y48981D01*
X30140Y49028D01*
X30239Y49104D01*
X30314Y49203D01*
X30362Y49318D01*
X30376Y49428D01*
X30427D01*
X30441Y49318D01*
X30489Y49203D01*
X30565Y49104D01*
X30663Y49028D01*
X30778Y48981D01*
X30902Y48964D01*
X31025Y48981D01*
X31140Y49028D01*
X31239Y49104D01*
X31314Y49203D01*
X31362Y49318D01*
X31376Y49428D01*
X31427D01*
X31441Y49318D01*
X31489Y49203D01*
X31565Y49104D01*
X31663Y49028D01*
X31778Y48981D01*
X31902Y48964D01*
X32025Y48981D01*
X32140Y49028D01*
X32239Y49104D01*
X32314Y49203D01*
X32362Y49318D01*
X32376Y49428D01*
X32427D01*
X32441Y49318D01*
X32489Y49203D01*
X32565Y49104D01*
X32663Y49028D01*
X32778Y48981D01*
X32902Y48964D01*
X33025Y48981D01*
X33140Y49028D01*
X33239Y49104D01*
X33314Y49203D01*
X33362Y49318D01*
X33376Y49428D01*
X33427D01*
X33441Y49318D01*
X33489Y49203D01*
X33565Y49104D01*
X33663Y49028D01*
X33701Y49013D01*
Y48935D01*
X33467Y48701D01*
X27200D01*
X27123Y48685D01*
X27058Y48642D01*
X26608Y48192D01*
X26565Y48127D01*
X26549Y48050D01*
Y45435D01*
X26473Y45377D01*
X26451Y45347D01*
X26401Y45364D01*
Y45750D01*
X26388Y45814D01*
X26385Y45827D01*
X26342Y45892D01*
X25942Y46292D01*
X25877Y46335D01*
X25800Y46351D01*
X17133D01*
X16901Y46583D01*
Y53817D01*
X17333Y54249D01*
X24461D01*
X24637Y54073D01*
Y53619D01*
X25463D01*
Y54268D01*
X25009D01*
X24686Y54592D01*
X24621Y54635D01*
X24544Y54651D01*
X17250D01*
X17186Y54638D01*
X17173Y54635D01*
X17108Y54592D01*
X16558Y54042D01*
X16515Y53977D01*
X16499Y53900D01*
Y46500D01*
X16515Y46423D01*
X16558Y46358D01*
X16908Y46008D01*
X16973Y45965D01*
X17050Y45949D01*
X17048Y45900D01*
X10500D01*
X10050Y46350D01*
Y56550D01*
X10400Y56900D01*
X64100D01*
X64150Y56950D01*
X64650Y56450D01*
D02*
G37*
G36*
X34199Y49017D02*
Y45600D01*
X34215Y45523D01*
X34258Y45458D01*
X34508Y45208D01*
X34573Y45165D01*
X34586Y45162D01*
X34650Y45149D01*
X36165D01*
X36223Y45073D01*
X36253Y45051D01*
X36236Y45001D01*
X33200D01*
X33123Y44985D01*
X33058Y44942D01*
X32458Y44342D01*
X32415Y44277D01*
X32399Y44200D01*
Y41033D01*
X32198Y40832D01*
X32163Y40845D01*
X32151Y40855D01*
Y41415D01*
X32227Y41473D01*
X32289Y41554D01*
X32328Y41649D01*
X32341Y41750D01*
X32328Y41851D01*
X32289Y41946D01*
X32227Y42027D01*
X32146Y42089D01*
X32051Y42128D01*
X31950Y42141D01*
X31849Y42128D01*
X31754Y42089D01*
X31673Y42027D01*
X31611Y41946D01*
X31572Y41851D01*
X31559Y41750D01*
X31572Y41649D01*
X31611Y41554D01*
X31673Y41473D01*
X31749Y41415D01*
Y40933D01*
X31567Y40751D01*
X31404D01*
X31382Y40796D01*
X31389Y40804D01*
X31428Y40899D01*
X31441Y41000D01*
X31428Y41101D01*
X31389Y41196D01*
X31327Y41277D01*
X31270Y41320D01*
Y41380D01*
X31327Y41423D01*
X31389Y41504D01*
X31428Y41599D01*
X31441Y41700D01*
X31428Y41801D01*
X31389Y41896D01*
X31327Y41977D01*
X31270Y42020D01*
Y42080D01*
X31327Y42123D01*
X31389Y42204D01*
X31428Y42299D01*
X31441Y42400D01*
X31428Y42501D01*
X31389Y42596D01*
X31327Y42677D01*
X31246Y42739D01*
X31151Y42778D01*
X31050Y42791D01*
X30949Y42778D01*
X30854Y42739D01*
X30773Y42677D01*
X30715Y42601D01*
X30343D01*
X30278Y42588D01*
X30266Y42585D01*
X30201Y42542D01*
X30117Y42458D01*
X29858D01*
Y42474D01*
X29849Y42541D01*
X29824Y42603D01*
X29783Y42657D01*
X29729Y42698D01*
X29667Y42723D01*
X29600Y42732D01*
X29533Y42723D01*
X29471Y42698D01*
X29417Y42657D01*
X29376Y42603D01*
X29324D01*
X29283Y42657D01*
X29229Y42698D01*
X29167Y42723D01*
X29100Y42732D01*
X29033Y42723D01*
X28971Y42698D01*
X28917Y42657D01*
X28884Y42613D01*
X28831Y42611D01*
X28801Y42644D01*
Y42667D01*
X28886Y42752D01*
X28929Y42817D01*
X28944Y42894D01*
Y43087D01*
X29069D01*
Y43913D01*
X28419D01*
Y43087D01*
X28543D01*
Y42977D01*
X28458Y42892D01*
X28415Y42827D01*
X28399Y42750D01*
Y42633D01*
X28384Y42613D01*
X28331Y42611D01*
X28301Y42644D01*
Y42750D01*
X28285Y42827D01*
X28242Y42892D01*
X28157Y42977D01*
Y43087D01*
X28281D01*
Y43913D01*
X27631D01*
Y43087D01*
X27756D01*
Y42894D01*
X27771Y42817D01*
X27814Y42752D01*
X27899Y42667D01*
Y42633D01*
X27876Y42603D01*
X27851Y42541D01*
X27842Y42474D01*
Y42458D01*
X27457D01*
X27381Y42443D01*
X27316Y42399D01*
X27310Y42393D01*
X27263Y42413D01*
Y42449D01*
X26442D01*
X26394Y42467D01*
X26401Y42500D01*
Y44836D01*
X26451Y44853D01*
X26473Y44823D01*
X26554Y44761D01*
X26649Y44722D01*
X26750Y44709D01*
X26851Y44722D01*
X26946Y44761D01*
X27027Y44823D01*
X27089Y44904D01*
X27128Y44999D01*
X27141Y45100D01*
X27128Y45201D01*
X27089Y45296D01*
X27027Y45377D01*
X26951Y45435D01*
Y47967D01*
X27283Y48299D01*
X33550D01*
X33627Y48315D01*
X33692Y48358D01*
X34044Y48710D01*
X34087Y48775D01*
X34102Y48852D01*
Y49013D01*
X34140Y49028D01*
X34154Y49039D01*
X34199Y49017D01*
D02*
G37*
G36*
X31655Y40337D02*
X31668Y40302D01*
X31658Y40292D01*
X31615Y40227D01*
X31599Y40150D01*
Y32968D01*
X31387D01*
Y32451D01*
X31222D01*
X31198Y32501D01*
X31239Y32554D01*
X31278Y32649D01*
X31291Y32750D01*
X31278Y32851D01*
X31239Y32946D01*
X31177Y33027D01*
X31096Y33089D01*
X31001Y33128D01*
X30900Y33141D01*
X30805Y33129D01*
X30101Y33833D01*
Y34802D01*
X30118Y34810D01*
X30151Y34815D01*
X30200Y34750D01*
X30273Y34694D01*
X30359Y34659D01*
X30400Y34654D01*
Y35000D01*
Y35346D01*
X30359Y35341D01*
X30273Y35306D01*
X30200Y35250D01*
X30151Y35185D01*
X30118Y35190D01*
X30101Y35198D01*
Y37800D01*
Y37887D01*
X30219D01*
Y38713D01*
X29569D01*
Y38001D01*
X29431D01*
Y38713D01*
X29301D01*
Y39067D01*
X29324Y39097D01*
X29343Y39144D01*
X29388Y39141D01*
X29395Y39140D01*
X29443Y39069D01*
X29515Y39021D01*
X29550Y39014D01*
Y39443D01*
Y39871D01*
X29515Y39865D01*
X29443Y39816D01*
X29395Y39745D01*
X29388Y39744D01*
X29343Y39741D01*
X29324Y39788D01*
X29283Y39842D01*
X29229Y39883D01*
X29167Y39908D01*
X29100Y39917D01*
X29033Y39908D01*
X28971Y39883D01*
X28917Y39842D01*
X28884Y39798D01*
X28831Y39796D01*
X28801Y39829D01*
Y40117D01*
X29033Y40349D01*
X31645D01*
X31655Y40337D01*
D02*
G37*
G36*
X22559Y35050D02*
Y32362D01*
X22509Y32341D01*
X21750Y33100D01*
Y33452D01*
X21772Y33463D01*
X21800Y33466D01*
X21850Y33400D01*
X21923Y33344D01*
X22009Y33309D01*
X22050Y33304D01*
Y33650D01*
Y33996D01*
X22009Y33991D01*
X21923Y33956D01*
X21850Y33900D01*
X21800Y33834D01*
X21772Y33837D01*
X21750Y33848D01*
Y33999D01*
X21850D01*
X21927Y34015D01*
X21992Y34058D01*
X22242Y34308D01*
X22285Y34373D01*
X22288Y34386D01*
X22301Y34450D01*
Y34565D01*
X22377Y34623D01*
X22439Y34704D01*
X22478Y34799D01*
X22491Y34900D01*
X22478Y35001D01*
X22439Y35096D01*
X22424Y35114D01*
X22462Y35147D01*
X22559Y35050D01*
D02*
G37*
G36*
X26437Y42424D02*
Y41760D01*
X27263D01*
Y41904D01*
X27304D01*
X27381Y41919D01*
X27446Y41962D01*
X27541Y42057D01*
X27842D01*
Y42041D01*
X27851Y41974D01*
X27876Y41912D01*
X27899Y41882D01*
Y41433D01*
X27408Y40942D01*
X27365Y40877D01*
X27349Y40800D01*
Y38300D01*
X27365Y38223D01*
X27408Y38158D01*
X27908Y37658D01*
X27973Y37615D01*
X28050Y37599D01*
X29699D01*
Y33750D01*
X29715Y33673D01*
X29758Y33608D01*
X30521Y32845D01*
X30509Y32750D01*
X30522Y32649D01*
X30561Y32554D01*
X30602Y32501D01*
X30578Y32451D01*
X29733D01*
X28051Y34133D01*
Y36950D01*
X28035Y37027D01*
X27992Y37092D01*
X27542Y37542D01*
X27477Y37585D01*
X27400Y37601D01*
X25283D01*
X24851Y38033D01*
Y40867D01*
X26342Y42358D01*
X26385Y42423D01*
X26387Y42429D01*
X26437Y42424D01*
D02*
G37*
G36*
X64650Y21657D02*
Y10350D01*
X64450Y10150D01*
X37741D01*
X37724Y10200D01*
X37739Y10211D01*
X38039Y10511D01*
X38092Y10581D01*
X38126Y10663D01*
X38138Y10750D01*
Y11103D01*
X38188Y11120D01*
X38223Y11073D01*
X38304Y11011D01*
X38399Y10972D01*
X38500Y10959D01*
X38601Y10972D01*
X38696Y11011D01*
X38697Y11012D01*
X39003D01*
X39004Y11011D01*
X39099Y10972D01*
X39200Y10959D01*
X39301Y10972D01*
X39396Y11011D01*
X39397Y11012D01*
X42310D01*
X42961Y10361D01*
X43031Y10308D01*
X43055Y10298D01*
X43113Y10274D01*
X43200Y10262D01*
X58200D01*
X58287Y10274D01*
X58345Y10298D01*
X58369Y10308D01*
X58439Y10361D01*
X63389Y15311D01*
X63442Y15381D01*
X63476Y15463D01*
X63488Y15550D01*
Y21189D01*
X63529Y21221D01*
X63561Y21262D01*
X64050D01*
X64137Y21274D01*
X64195Y21298D01*
X64219Y21308D01*
X64289Y21361D01*
X64604Y21676D01*
X64650Y21657D01*
D02*
G37*
G36*
X29959Y19794D02*
Y11554D01*
X29923Y11527D01*
X29861Y11446D01*
X29822Y11351D01*
X29809Y11250D01*
X29822Y11149D01*
X29861Y11054D01*
X29923Y10973D01*
X30004Y10911D01*
X30099Y10872D01*
X30200Y10859D01*
X30301Y10872D01*
X30396Y10911D01*
X30477Y10973D01*
X30539Y11054D01*
X30578Y11149D01*
X30591Y11250D01*
X30578Y11351D01*
X30539Y11446D01*
X30477Y11527D01*
X30441Y11554D01*
Y11805D01*
X30491Y11825D01*
X31358Y10958D01*
X31423Y10915D01*
X31500Y10899D01*
X34400D01*
X34477Y10915D01*
X34542Y10958D01*
X34942Y11358D01*
X34985Y11423D01*
X35001Y11500D01*
Y11682D01*
X35038Y11698D01*
X35137Y11774D01*
X35213Y11872D01*
X35260Y11987D01*
X35275Y12098D01*
X35325D01*
X35340Y11987D01*
X35387Y11872D01*
X35463Y11774D01*
X35562Y11698D01*
X35677Y11650D01*
X35800Y11634D01*
X35923Y11650D01*
X36038Y11698D01*
X36137Y11774D01*
X36213Y11872D01*
X36260Y11987D01*
X36275Y12098D01*
X36325D01*
X36340Y11987D01*
X36387Y11872D01*
X36463Y11774D01*
X36562Y11698D01*
X36677Y11650D01*
X36800Y11634D01*
X36923Y11650D01*
X37038Y11698D01*
X37137Y11774D01*
X37213Y11872D01*
X37260Y11987D01*
X37275Y12098D01*
X37325D01*
X37340Y11987D01*
X37387Y11872D01*
X37462Y11775D01*
Y10890D01*
X37360Y10788D01*
X22912D01*
X22900Y10800D01*
Y17500D01*
X27600D01*
X29913Y19813D01*
X29959Y19794D01*
D02*
G37*
%LPC*%
G36*
X39250Y23850D02*
X38954D01*
X38959Y23809D01*
X38994Y23723D01*
X39050Y23650D01*
X39123Y23594D01*
X39209Y23559D01*
X39250Y23554D01*
Y23850D01*
D02*
G37*
G36*
X33350Y24146D02*
Y23850D01*
X33646D01*
X33641Y23891D01*
X33606Y23977D01*
X33550Y24050D01*
X33477Y24106D01*
X33391Y24141D01*
X33350Y24146D01*
D02*
G37*
G36*
X33250D02*
X33209Y24141D01*
X33123Y24106D01*
X33050Y24050D01*
X32994Y23977D01*
X32959Y23891D01*
X32954Y23850D01*
X33250D01*
Y24146D01*
D02*
G37*
G36*
X39646Y23850D02*
X39350D01*
Y23554D01*
X39391Y23559D01*
X39477Y23594D01*
X39550Y23650D01*
X39606Y23723D01*
X39641Y23809D01*
X39646Y23850D01*
D02*
G37*
G36*
X58750Y23402D02*
X58424D01*
Y23146D01*
X58750D01*
Y23402D01*
D02*
G37*
G36*
X60126Y23343D02*
X59800D01*
Y23106D01*
X60126D01*
Y23343D01*
D02*
G37*
G36*
X59700D02*
X59374D01*
Y23106D01*
X59700D01*
Y23343D01*
D02*
G37*
G36*
X59176Y23402D02*
X58850D01*
Y23146D01*
X59176D01*
Y23402D01*
D02*
G37*
G36*
X33646Y23750D02*
X33350D01*
Y23454D01*
X33391Y23459D01*
X33477Y23494D01*
X33550Y23550D01*
X33606Y23623D01*
X33641Y23709D01*
X33646Y23750D01*
D02*
G37*
G36*
X33250D02*
X32954D01*
X32959Y23709D01*
X32994Y23623D01*
X33050Y23550D01*
X33123Y23494D01*
X33209Y23459D01*
X33250Y23454D01*
Y23750D01*
D02*
G37*
G36*
X57800Y25091D02*
X57699Y25078D01*
X57604Y25039D01*
X57523Y24977D01*
X57461Y24896D01*
X57422Y24801D01*
X57409Y24700D01*
X57422Y24599D01*
X57461Y24504D01*
X57523Y24423D01*
X57599Y24365D01*
Y24174D01*
X57268D01*
Y23504D01*
X58232D01*
Y23598D01*
X58387D01*
Y23460D01*
X59213D01*
Y23598D01*
X59337D01*
Y23519D01*
X60163D01*
Y23612D01*
X60213Y23616D01*
X60222Y23549D01*
X60261Y23454D01*
X60323Y23373D01*
X60404Y23311D01*
X60499Y23272D01*
X60600Y23259D01*
X60701Y23272D01*
X60796Y23311D01*
X60877Y23373D01*
X60909Y23415D01*
X60972Y23419D01*
X60981Y23410D01*
Y23187D01*
X61631D01*
Y24013D01*
X60981D01*
Y23890D01*
X60972Y23881D01*
X60909Y23885D01*
X60877Y23927D01*
X60796Y23989D01*
X60701Y24028D01*
X60600Y24041D01*
X60499Y24028D01*
X60404Y23989D01*
X60323Y23927D01*
X60261Y23846D01*
X60222Y23751D01*
X60213Y23684D01*
X60163Y23688D01*
Y24169D01*
X60163D01*
X60131Y24187D01*
Y25013D01*
X59482D01*
Y24187D01*
X59439Y24169D01*
X59337D01*
Y24080D01*
X59213D01*
Y24149D01*
X58387D01*
Y24080D01*
X58232D01*
Y24174D01*
X58001D01*
Y24365D01*
X58077Y24423D01*
X58139Y24504D01*
X58178Y24599D01*
X58191Y24700D01*
X58178Y24801D01*
X58139Y24896D01*
X58077Y24977D01*
X57996Y25039D01*
X57901Y25078D01*
X57800Y25091D01*
D02*
G37*
G36*
X51527Y26220D02*
X51086D01*
Y25779D01*
X51165Y25789D01*
X51285Y25839D01*
X51388Y25918D01*
X51467Y26021D01*
X51517Y26142D01*
X51527Y26220D01*
D02*
G37*
G36*
X50986D02*
X50544D01*
X50555Y26142D01*
X50605Y26021D01*
X50684Y25918D01*
X50787Y25839D01*
X50907Y25789D01*
X50986Y25779D01*
Y26220D01*
D02*
G37*
G36*
X51688Y28091D02*
X49550D01*
X49458Y28073D01*
X49380Y28020D01*
X49094Y27734D01*
X49042Y27656D01*
X49023Y27564D01*
Y27050D01*
Y26746D01*
X48996Y26735D01*
X48885Y26650D01*
X48800Y26539D01*
X48746Y26409D01*
X48728Y26270D01*
X48746Y26132D01*
X48800Y26002D01*
X48885Y25891D01*
X48996Y25806D01*
X49125Y25753D01*
X49264Y25734D01*
X49403Y25753D01*
X49532Y25806D01*
X49643Y25891D01*
X49728Y26002D01*
X49782Y26132D01*
X49800Y26270D01*
X49782Y26409D01*
X49728Y26539D01*
X49653Y26637D01*
X49671Y26687D01*
X50190D01*
Y27513D01*
X49619D01*
X49600Y27560D01*
X49650Y27609D01*
X51688D01*
X51711Y27614D01*
X52003D01*
Y28086D01*
X51711D01*
X51688Y28091D01*
D02*
G37*
G36*
X54986Y26712D02*
X54907Y26701D01*
X54787Y26652D01*
X54684Y26573D01*
X54605Y26469D01*
X54555Y26349D01*
X54544Y26270D01*
X54986D01*
Y26712D01*
D02*
G37*
G36*
X51086Y26762D02*
Y26320D01*
X51527D01*
X51517Y26399D01*
X51467Y26519D01*
X51388Y26623D01*
X51285Y26702D01*
X51165Y26751D01*
X51086Y26762D01*
D02*
G37*
G36*
X50861Y27050D02*
X50604D01*
Y26724D01*
X50734D01*
X50751Y26674D01*
X50684Y26623D01*
X50605Y26519D01*
X50555Y26399D01*
X50544Y26320D01*
X50986D01*
Y26762D01*
X50911Y26752D01*
X50896Y26754D01*
X50861Y26777D01*
Y27050D01*
D02*
G37*
G36*
X55086Y26712D02*
Y26270D01*
X55527D01*
X55517Y26349D01*
X55467Y26469D01*
X55388Y26573D01*
X55285Y26652D01*
X55165Y26701D01*
X55086Y26712D01*
D02*
G37*
G36*
X46403Y28953D02*
X45497D01*
Y28047D01*
X45709D01*
Y26850D01*
X45550Y26691D01*
X41800D01*
X41708Y26673D01*
X41630Y26620D01*
X41130Y26120D01*
X41077Y26042D01*
X41059Y25950D01*
Y24804D01*
X41023Y24777D01*
X40961Y24696D01*
X40922Y24601D01*
X40909Y24500D01*
X40922Y24399D01*
X40961Y24304D01*
X41023Y24223D01*
X41104Y24161D01*
X41199Y24122D01*
X41300Y24109D01*
X41401Y24122D01*
X41496Y24161D01*
X41577Y24223D01*
X41639Y24304D01*
X41678Y24399D01*
X41691Y24500D01*
X41678Y24601D01*
X41639Y24696D01*
X41577Y24777D01*
X41541Y24804D01*
Y25850D01*
X41900Y26209D01*
X45650D01*
X45742Y26227D01*
X45820Y26280D01*
X46120Y26580D01*
X46173Y26658D01*
X46191Y26750D01*
Y28047D01*
X46403D01*
Y28953D01*
D02*
G37*
G36*
X39350Y24246D02*
Y23950D01*
X39646D01*
X39641Y23991D01*
X39606Y24077D01*
X39550Y24150D01*
X39477Y24206D01*
X39391Y24241D01*
X39350Y24246D01*
D02*
G37*
G36*
X39250D02*
X39209Y24241D01*
X39123Y24206D01*
X39050Y24150D01*
X38994Y24077D01*
X38959Y23991D01*
X38954Y23950D01*
X39250D01*
Y24246D01*
D02*
G37*
G36*
X63150Y26136D02*
X63011Y26118D01*
X62882Y26064D01*
X62771Y25979D01*
X62686Y25868D01*
X62632Y25739D01*
X62614Y25600D01*
X62632Y25461D01*
X62686Y25332D01*
X62771Y25221D01*
X62882Y25136D01*
X62908Y25125D01*
Y25075D01*
X62882Y25064D01*
X62771Y24979D01*
X62686Y24868D01*
X62674Y24841D01*
X60918D01*
Y25013D01*
X60269D01*
Y24187D01*
X60918D01*
Y24359D01*
X62674D01*
X62686Y24332D01*
X62771Y24221D01*
X62882Y24136D01*
X62908Y24125D01*
Y24075D01*
X62882Y24064D01*
X62771Y23979D01*
X62686Y23868D01*
X62674Y23841D01*
X62418D01*
Y24013D01*
X61769D01*
Y23187D01*
X62418D01*
Y23359D01*
X62674D01*
X62686Y23332D01*
X62771Y23221D01*
X62882Y23136D01*
X62952Y23107D01*
Y23052D01*
X62901Y23031D01*
X62798Y22952D01*
X62719Y22849D01*
X62669Y22729D01*
X62659Y22650D01*
X63641D01*
X63631Y22729D01*
X63581Y22849D01*
X63502Y22952D01*
X63399Y23031D01*
X63348Y23052D01*
Y23107D01*
X63418Y23136D01*
X63529Y23221D01*
X63614Y23332D01*
X63668Y23461D01*
X63686Y23600D01*
X63668Y23739D01*
X63614Y23868D01*
X63529Y23979D01*
X63418Y24064D01*
X63392Y24075D01*
Y24125D01*
X63418Y24136D01*
X63529Y24221D01*
X63614Y24332D01*
X63668Y24461D01*
X63686Y24600D01*
X63668Y24739D01*
X63614Y24868D01*
X63529Y24979D01*
X63418Y25064D01*
X63392Y25075D01*
Y25125D01*
X63418Y25136D01*
X63529Y25221D01*
X63614Y25332D01*
X63668Y25461D01*
X63686Y25600D01*
X63668Y25739D01*
X63614Y25868D01*
X63529Y25979D01*
X63418Y26064D01*
X63289Y26118D01*
X63150Y26136D01*
D02*
G37*
G36*
X55527Y26170D02*
X55086D01*
Y25729D01*
X55165Y25739D01*
X55285Y25789D01*
X55388Y25868D01*
X55467Y25971D01*
X55517Y26092D01*
X55527Y26170D01*
D02*
G37*
G36*
X54986D02*
X54544D01*
X54555Y26092D01*
X54605Y25971D01*
X54684Y25868D01*
X54787Y25789D01*
X54907Y25739D01*
X54986Y25729D01*
Y26170D01*
D02*
G37*
G36*
X53264Y26757D02*
X53125Y26738D01*
X52996Y26685D01*
X52885Y26600D01*
X52800Y26489D01*
X52746Y26359D01*
X52728Y26220D01*
X52746Y26082D01*
X52800Y25952D01*
X52885Y25841D01*
X52996Y25756D01*
X53125Y25703D01*
X53264Y25684D01*
X53403Y25703D01*
X53532Y25756D01*
X53643Y25841D01*
X53728Y25952D01*
X53782Y26082D01*
X53800Y26220D01*
X53782Y26359D01*
X53728Y26489D01*
X53643Y26600D01*
X53532Y26685D01*
X53403Y26738D01*
X53264Y26757D01*
D02*
G37*
G36*
X44000Y22264D02*
X43300D01*
Y21742D01*
X44000D01*
Y22264D01*
D02*
G37*
G36*
X46705Y21642D02*
X46408D01*
Y21345D01*
X46450Y21351D01*
X46535Y21386D01*
X46608Y21442D01*
X46664Y21515D01*
X46699Y21600D01*
X46705Y21642D01*
D02*
G37*
G36*
X45642D02*
X45345D01*
X45351Y21600D01*
X45386Y21515D01*
X45442Y21442D01*
X45515Y21386D01*
X45600Y21351D01*
X45642Y21345D01*
Y21642D01*
D02*
G37*
G36*
X46408Y22038D02*
Y21742D01*
X46705D01*
X46699Y21783D01*
X46664Y21868D01*
X46608Y21941D01*
X46535Y21997D01*
X46450Y22033D01*
X46408Y22038D01*
D02*
G37*
G36*
X45642D02*
X45600Y22033D01*
X45515Y21997D01*
X45442Y21941D01*
X45386Y21868D01*
X45351Y21783D01*
X45345Y21742D01*
X45642D01*
Y22038D01*
D02*
G37*
G36*
X44800Y22264D02*
X44100D01*
Y21742D01*
X44800D01*
Y22264D01*
D02*
G37*
G36*
Y21642D02*
X44100D01*
Y21119D01*
X44800D01*
Y21642D01*
D02*
G37*
G36*
X56050Y20746D02*
Y20450D01*
X56346D01*
X56341Y20491D01*
X56306Y20577D01*
X56250Y20650D01*
X56177Y20706D01*
X56091Y20741D01*
X56050Y20746D01*
D02*
G37*
G36*
X55950D02*
X55909Y20741D01*
X55823Y20706D01*
X55750Y20650D01*
X55694Y20577D01*
X55659Y20491D01*
X55654Y20450D01*
X55950D01*
Y20746D01*
D02*
G37*
G36*
X52200D02*
Y20450D01*
X52496D01*
X52491Y20491D01*
X52456Y20577D01*
X52400Y20650D01*
X52327Y20706D01*
X52241Y20741D01*
X52200Y20746D01*
D02*
G37*
G36*
X44000Y21642D02*
X43300D01*
Y21119D01*
X44000D01*
Y21642D01*
D02*
G37*
G36*
X60100Y20796D02*
Y20500D01*
X60396D01*
X60391Y20541D01*
X60356Y20627D01*
X60300Y20700D01*
X60227Y20756D01*
X60141Y20791D01*
X60100Y20796D01*
D02*
G37*
G36*
X60000D02*
X59959Y20791D01*
X59873Y20756D01*
X59800Y20700D01*
X59744Y20627D01*
X59709Y20541D01*
X59704Y20500D01*
X60000D01*
Y20796D01*
D02*
G37*
G36*
X59700Y23006D02*
X59374D01*
Y22769D01*
X59700D01*
Y23006D01*
D02*
G37*
G36*
X58194Y22758D02*
X57800D01*
Y22511D01*
X58194D01*
Y22758D01*
D02*
G37*
G36*
X57700D02*
X57306D01*
Y22511D01*
X57700D01*
Y22758D01*
D02*
G37*
G36*
X59176Y23046D02*
X58850D01*
Y22789D01*
X59176D01*
Y23046D01*
D02*
G37*
G36*
X58750D02*
X58424D01*
Y22789D01*
X58750D01*
Y23046D01*
D02*
G37*
G36*
X60126Y23006D02*
X59800D01*
Y22769D01*
X60126D01*
Y23006D01*
D02*
G37*
G36*
X62326Y22711D02*
X62000D01*
Y22454D01*
X62326D01*
Y22711D01*
D02*
G37*
G36*
Y22354D02*
X62000D01*
Y22098D01*
X62326D01*
Y22354D01*
D02*
G37*
G36*
X61900D02*
X61574D01*
Y22098D01*
X61900D01*
Y22354D01*
D02*
G37*
G36*
X46308Y22038D02*
X46267Y22033D01*
X46182Y21997D01*
X46109Y21941D01*
X46053Y21868D01*
X46050Y21862D01*
X46000D01*
X45997Y21868D01*
X45941Y21941D01*
X45868Y21997D01*
X45783Y22033D01*
X45742Y22038D01*
Y21692D01*
Y21345D01*
X45783Y21351D01*
X45868Y21386D01*
X45941Y21442D01*
X45997Y21515D01*
X46000Y21521D01*
X46050D01*
X46053Y21515D01*
X46109Y21442D01*
X46182Y21386D01*
X46267Y21351D01*
X46308Y21345D01*
Y21692D01*
Y22038D01*
D02*
G37*
G36*
X61900Y22711D02*
X61574D01*
Y22454D01*
X61900D01*
Y22711D01*
D02*
G37*
G36*
X58194Y22411D02*
X57800D01*
Y22164D01*
X58194D01*
Y22411D01*
D02*
G37*
G36*
X57700D02*
X57306D01*
Y22164D01*
X57700D01*
Y22411D01*
D02*
G37*
G36*
X50504Y27050D02*
X50248D01*
Y26724D01*
X50504D01*
Y27050D01*
D02*
G37*
G36*
X27500Y32746D02*
Y32450D01*
X27796D01*
X27791Y32491D01*
X27756Y32577D01*
X27700Y32650D01*
X27627Y32706D01*
X27541Y32741D01*
X27500Y32746D01*
D02*
G37*
G36*
X27400D02*
X27359Y32741D01*
X27273Y32706D01*
X27200Y32650D01*
X27144Y32577D01*
X27109Y32491D01*
X27104Y32450D01*
X27400D01*
Y32746D01*
D02*
G37*
G36*
X52393Y32476D02*
X52156D01*
Y32150D01*
X52393D01*
Y32476D01*
D02*
G37*
G36*
X31100Y33650D02*
X30804D01*
X30809Y33609D01*
X30844Y33523D01*
X30900Y33450D01*
X30973Y33394D01*
X31059Y33359D01*
X31100Y33354D01*
Y33650D01*
D02*
G37*
G36*
X22446Y33600D02*
X22150D01*
Y33304D01*
X22191Y33309D01*
X22277Y33344D01*
X22350Y33400D01*
X22406Y33473D01*
X22441Y33559D01*
X22446Y33600D01*
D02*
G37*
G36*
X59831Y33363D02*
X59181D01*
Y32565D01*
X59067Y32451D01*
X58885D01*
X58827Y32527D01*
X58746Y32589D01*
X58651Y32628D01*
X58550Y32641D01*
X58449Y32628D01*
X58354Y32589D01*
X58273Y32527D01*
X58211Y32446D01*
X58172Y32351D01*
X58159Y32250D01*
X58172Y32149D01*
X58211Y32054D01*
X58273Y31973D01*
X58354Y31911D01*
X58449Y31872D01*
X58550Y31859D01*
X58651Y31872D01*
X58746Y31911D01*
X58827Y31973D01*
X58885Y32049D01*
X59150D01*
X59227Y32065D01*
X59292Y32108D01*
X59648Y32464D01*
X59692Y32529D01*
X59693Y32537D01*
X59831D01*
Y33363D01*
D02*
G37*
G36*
X52056Y32476D02*
X51819D01*
Y32150D01*
X52056D01*
Y32476D01*
D02*
G37*
G36*
Y32050D02*
X51819D01*
Y31724D01*
X52056D01*
Y32050D01*
D02*
G37*
G36*
X40750Y31957D02*
X40647Y31944D01*
X40551Y31904D01*
X40469Y31841D01*
X40406Y31759D01*
X40366Y31663D01*
X40353Y31560D01*
X40366Y31457D01*
X40406Y31362D01*
X40469Y31279D01*
X40551Y31216D01*
X40647Y31177D01*
X40750Y31163D01*
X40853Y31177D01*
X40949Y31216D01*
X41031Y31279D01*
X41094Y31362D01*
X41134Y31457D01*
X41147Y31560D01*
X41134Y31663D01*
X41094Y31759D01*
X41031Y31841D01*
X40949Y31904D01*
X40853Y31944D01*
X40750Y31957D01*
D02*
G37*
G36*
X43950Y31491D02*
X43849Y31478D01*
X43754Y31439D01*
X43673Y31377D01*
X43611Y31296D01*
X43572Y31201D01*
X43559Y31100D01*
X43572Y30999D01*
X43611Y30904D01*
X43673Y30823D01*
X43683Y30816D01*
X43667Y30768D01*
X43537D01*
Y30119D01*
X44363D01*
Y30768D01*
X44233D01*
X44217Y30816D01*
X44227Y30823D01*
X44289Y30904D01*
X44328Y30999D01*
X44341Y31100D01*
X44328Y31201D01*
X44289Y31296D01*
X44227Y31377D01*
X44146Y31439D01*
X44051Y31478D01*
X43950Y31491D01*
D02*
G37*
G36*
X27796Y32350D02*
X27500D01*
Y32054D01*
X27541Y32059D01*
X27627Y32094D01*
X27700Y32150D01*
X27756Y32223D01*
X27791Y32309D01*
X27796Y32350D01*
D02*
G37*
G36*
X27400D02*
X27104D01*
X27109Y32309D01*
X27144Y32223D01*
X27200Y32150D01*
X27273Y32094D01*
X27359Y32059D01*
X27400Y32054D01*
Y32350D01*
D02*
G37*
G36*
X52393Y32050D02*
X52156D01*
Y31724D01*
X52393D01*
Y32050D01*
D02*
G37*
G36*
X31496Y33650D02*
X31200D01*
Y33354D01*
X31241Y33359D01*
X31327Y33394D01*
X31400Y33450D01*
X31456Y33523D01*
X31491Y33609D01*
X31496Y33650D01*
D02*
G37*
G36*
X37200Y34096D02*
X37159Y34091D01*
X37073Y34056D01*
X37000Y34000D01*
X36944Y33927D01*
X36909Y33841D01*
X36904Y33800D01*
X37200D01*
Y34096D01*
D02*
G37*
G36*
X23800D02*
Y33800D01*
X24096D01*
X24091Y33841D01*
X24056Y33927D01*
X24000Y34000D01*
X23927Y34056D01*
X23841Y34091D01*
X23800Y34096D01*
D02*
G37*
G36*
X23700D02*
X23659Y34091D01*
X23573Y34056D01*
X23500Y34000D01*
X23444Y33927D01*
X23409Y33841D01*
X23404Y33800D01*
X23700D01*
Y34096D01*
D02*
G37*
G36*
X42246Y34200D02*
X41950D01*
Y33904D01*
X41991Y33909D01*
X42077Y33944D01*
X42150Y34000D01*
X42206Y34073D01*
X42241Y34159D01*
X42246Y34200D01*
D02*
G37*
G36*
X41850D02*
X41554D01*
X41559Y34159D01*
X41594Y34073D01*
X41650Y34000D01*
X41723Y33944D01*
X41809Y33909D01*
X41850Y33904D01*
Y34200D01*
D02*
G37*
G36*
X37300Y34096D02*
Y33800D01*
X37596D01*
X37591Y33841D01*
X37556Y33927D01*
X37500Y34000D01*
X37427Y34056D01*
X37341Y34091D01*
X37300Y34096D01*
D02*
G37*
G36*
X31200Y34046D02*
Y33750D01*
X31496D01*
X31491Y33791D01*
X31456Y33877D01*
X31400Y33950D01*
X31327Y34006D01*
X31241Y34041D01*
X31200Y34046D01*
D02*
G37*
G36*
X37200Y33700D02*
X36904D01*
X36909Y33659D01*
X36944Y33573D01*
X37000Y33500D01*
X37073Y33444D01*
X37159Y33409D01*
X37200Y33404D01*
Y33700D01*
D02*
G37*
G36*
X24096D02*
X23800D01*
Y33404D01*
X23841Y33409D01*
X23927Y33444D01*
X24000Y33500D01*
X24056Y33573D01*
X24091Y33659D01*
X24096Y33700D01*
D02*
G37*
G36*
X23700D02*
X23404D01*
X23409Y33659D01*
X23444Y33573D01*
X23500Y33500D01*
X23573Y33444D01*
X23659Y33409D01*
X23700Y33404D01*
Y33700D01*
D02*
G37*
G36*
X31100Y34046D02*
X31059Y34041D01*
X30973Y34006D01*
X30900Y33950D01*
X30844Y33877D01*
X30809Y33791D01*
X30804Y33750D01*
X31100D01*
Y34046D01*
D02*
G37*
G36*
X22150Y33996D02*
Y33700D01*
X22446D01*
X22441Y33741D01*
X22406Y33827D01*
X22350Y33900D01*
X22277Y33956D01*
X22191Y33991D01*
X22150Y33996D01*
D02*
G37*
G36*
X37596Y33700D02*
X37300D01*
Y33404D01*
X37341Y33409D01*
X37427Y33444D01*
X37500Y33500D01*
X37556Y33573D01*
X37591Y33659D01*
X37596Y33700D01*
D02*
G37*
G36*
X42950Y31491D02*
X42849Y31478D01*
X42754Y31439D01*
X42673Y31377D01*
X42611Y31296D01*
X42572Y31201D01*
X42559Y31100D01*
X42572Y30999D01*
X42611Y30904D01*
X42673Y30823D01*
X42683Y30816D01*
X42667Y30768D01*
X42537D01*
Y30119D01*
X43363D01*
Y30768D01*
X43233D01*
X43217Y30816D01*
X43227Y30823D01*
X43289Y30904D01*
X43328Y30999D01*
X43341Y31100D01*
X43328Y31201D01*
X43289Y31296D01*
X43227Y31377D01*
X43146Y31439D01*
X43051Y31478D01*
X42950Y31491D01*
D02*
G37*
G36*
X42362Y28450D02*
X42000D01*
Y28088D01*
X42058Y28096D01*
X42159Y28138D01*
X42246Y28204D01*
X42312Y28291D01*
X42354Y28392D01*
X42362Y28450D01*
D02*
G37*
G36*
X41900D02*
X41538D01*
X41546Y28392D01*
X41588Y28291D01*
X41654Y28204D01*
X41741Y28138D01*
X41842Y28096D01*
X41900Y28088D01*
Y28450D01*
D02*
G37*
G36*
X45363Y29931D02*
X44537D01*
Y29281D01*
X44709D01*
Y28886D01*
X44627Y28823D01*
X44555Y28728D01*
X44509Y28618D01*
X44493Y28500D01*
X44509Y28382D01*
X44555Y28272D01*
X44627Y28177D01*
X44722Y28105D01*
X44832Y28059D01*
X44950Y28043D01*
X45068Y28059D01*
X45178Y28105D01*
X45273Y28177D01*
X45345Y28272D01*
X45391Y28382D01*
X45407Y28500D01*
X45391Y28618D01*
X45345Y28728D01*
X45273Y28823D01*
X45191Y28886D01*
Y29281D01*
X45363D01*
Y29931D01*
D02*
G37*
G36*
X49264Y29366D02*
X49125Y29347D01*
X48996Y29294D01*
X48885Y29209D01*
X48800Y29098D01*
X48746Y28968D01*
X48728Y28830D01*
X48746Y28691D01*
X48800Y28561D01*
X48885Y28450D01*
X48996Y28365D01*
X49125Y28312D01*
X49264Y28293D01*
X49403Y28312D01*
X49532Y28365D01*
X49643Y28450D01*
X49728Y28561D01*
X49782Y28691D01*
X49800Y28830D01*
X49782Y28968D01*
X49728Y29098D01*
X49643Y29209D01*
X49532Y29294D01*
X49403Y29347D01*
X49264Y29366D01*
D02*
G37*
G36*
X55527Y28730D02*
X55086D01*
Y28288D01*
X55165Y28299D01*
X55285Y28348D01*
X55388Y28427D01*
X55467Y28531D01*
X55517Y28651D01*
X55527Y28730D01*
D02*
G37*
G36*
X54986D02*
X54544D01*
X54555Y28651D01*
X54605Y28531D01*
X54684Y28427D01*
X54787Y28348D01*
X54907Y28299D01*
X54986Y28288D01*
Y28730D01*
D02*
G37*
G36*
X44363Y29981D02*
X43537D01*
Y29332D01*
X43709D01*
Y28886D01*
X43627Y28823D01*
X43555Y28728D01*
X43509Y28618D01*
X43493Y28500D01*
X43509Y28382D01*
X43555Y28272D01*
X43627Y28177D01*
X43722Y28105D01*
X43832Y28059D01*
X43950Y28043D01*
X44068Y28059D01*
X44178Y28105D01*
X44273Y28177D01*
X44345Y28272D01*
X44391Y28382D01*
X44407Y28500D01*
X44391Y28618D01*
X44345Y28728D01*
X44273Y28823D01*
X44191Y28886D01*
Y29332D01*
X44363D01*
Y29981D01*
D02*
G37*
G36*
X50861Y27476D02*
X50604D01*
Y27150D01*
X50861D01*
Y27476D01*
D02*
G37*
G36*
X50504D02*
X50248D01*
Y27150D01*
X50504D01*
Y27476D01*
D02*
G37*
G36*
X37050Y27291D02*
X36949Y27278D01*
X36854Y27239D01*
X36773Y27177D01*
X36711Y27096D01*
X36672Y27001D01*
X36666Y26951D01*
X34935D01*
X34877Y27027D01*
X34796Y27089D01*
X34701Y27128D01*
X34600Y27141D01*
X34499Y27128D01*
X34404Y27089D01*
X34323Y27027D01*
X34261Y26946D01*
X34222Y26851D01*
X34209Y26750D01*
X34222Y26649D01*
X34261Y26554D01*
X34323Y26473D01*
X34404Y26411D01*
X34499Y26372D01*
X34600Y26359D01*
X34701Y26372D01*
X34796Y26411D01*
X34877Y26473D01*
X34935Y26549D01*
X36800D01*
X36815Y26552D01*
X36830Y26551D01*
X36853Y26560D01*
X36856Y26560D01*
X36940Y26526D01*
X36944Y26501D01*
Y26499D01*
X36940Y26474D01*
X36854Y26439D01*
X36773Y26377D01*
X36715Y26301D01*
X35346D01*
X35327Y26327D01*
X35246Y26389D01*
X35151Y26428D01*
X35050Y26441D01*
X34949Y26428D01*
X34854Y26389D01*
X34773Y26327D01*
X34711Y26246D01*
X34672Y26151D01*
X34659Y26050D01*
X34672Y25949D01*
X34711Y25854D01*
X34773Y25773D01*
X34854Y25711D01*
X34882Y25700D01*
Y25650D01*
X34854Y25639D01*
X34773Y25577D01*
X34711Y25496D01*
X34672Y25401D01*
X34659Y25300D01*
X34672Y25199D01*
X34711Y25104D01*
X34773Y25023D01*
X34854Y24961D01*
X34949Y24922D01*
X35050Y24909D01*
X35151Y24922D01*
X35246Y24961D01*
X35327Y25023D01*
X35385Y25099D01*
X36715D01*
X36773Y25023D01*
X36854Y24961D01*
X36949Y24922D01*
X37050Y24909D01*
X37151Y24922D01*
X37246Y24961D01*
X37327Y25023D01*
X37389Y25104D01*
X37428Y25199D01*
X37441Y25300D01*
X37428Y25401D01*
X37389Y25496D01*
X37327Y25577D01*
X37246Y25639D01*
X37160Y25674D01*
X37156Y25699D01*
Y25701D01*
X37160Y25726D01*
X37246Y25761D01*
X37327Y25823D01*
X37389Y25904D01*
X37428Y25999D01*
X37441Y26100D01*
X37428Y26201D01*
X37389Y26296D01*
X37327Y26377D01*
X37246Y26439D01*
X37160Y26474D01*
X37156Y26499D01*
Y26501D01*
X37160Y26526D01*
X37246Y26561D01*
X37327Y26623D01*
X37389Y26704D01*
X37428Y26799D01*
X37441Y26900D01*
X37428Y27001D01*
X37389Y27096D01*
X37327Y27177D01*
X37246Y27239D01*
X37151Y27278D01*
X37050Y27291D01*
D02*
G37*
G36*
X43363Y29981D02*
X42537D01*
Y29332D01*
X42709D01*
Y28886D01*
X42627Y28823D01*
X42555Y28728D01*
X42509Y28618D01*
X42493Y28500D01*
X42509Y28382D01*
X42555Y28272D01*
X42627Y28177D01*
X42722Y28105D01*
X42832Y28059D01*
X42950Y28043D01*
X43068Y28059D01*
X43178Y28105D01*
X43273Y28177D01*
X43345Y28272D01*
X43391Y28382D01*
X43407Y28500D01*
X43391Y28618D01*
X43345Y28728D01*
X43273Y28823D01*
X43191Y28886D01*
Y29332D01*
X43363D01*
Y29981D01*
D02*
G37*
G36*
X56563Y28831D02*
X55737D01*
Y28182D01*
X55776D01*
X55795Y28135D01*
X55750Y28091D01*
X54762D01*
X54739Y28086D01*
X54447D01*
Y27614D01*
X54739D01*
X54762Y27609D01*
X55850D01*
X55942Y27627D01*
X56020Y27680D01*
X56320Y27980D01*
X56373Y28058D01*
X56391Y28150D01*
Y28182D01*
X56563D01*
Y28831D01*
D02*
G37*
G36*
X53264Y29316D02*
X53125Y29297D01*
X52996Y29244D01*
X52885Y29159D01*
X52800Y29048D01*
X52746Y28918D01*
X52728Y28780D01*
X52746Y28641D01*
X52800Y28511D01*
X52885Y28400D01*
X52996Y28315D01*
X53023Y28304D01*
Y28091D01*
X52712D01*
X52689Y28086D01*
X52397D01*
Y27614D01*
X52689D01*
X52712Y27609D01*
X53738D01*
X53761Y27614D01*
X54053D01*
Y28086D01*
X53761D01*
X53738Y28091D01*
X53505D01*
Y28304D01*
X53532Y28315D01*
X53643Y28400D01*
X53728Y28511D01*
X53782Y28641D01*
X53800Y28780D01*
X53782Y28918D01*
X53728Y29048D01*
X53643Y29159D01*
X53532Y29244D01*
X53403Y29297D01*
X53264Y29316D01*
D02*
G37*
G36*
X37289Y29167D02*
X37181Y29153D01*
X37081Y29111D01*
X36995Y29045D01*
X36928Y28958D01*
X36887Y28858D01*
X36872Y28750D01*
X36887Y28642D01*
X36928Y28542D01*
X36995Y28455D01*
X37081Y28389D01*
X37181Y28347D01*
X37289Y28333D01*
X37397Y28347D01*
X37498Y28389D01*
X37584Y28455D01*
X37650Y28542D01*
X37692Y28642D01*
X37706Y28750D01*
X37692Y28858D01*
X37650Y28958D01*
X37584Y29045D01*
X37498Y29111D01*
X37397Y29153D01*
X37289Y29167D01*
D02*
G37*
G36*
X51086Y29321D02*
Y28880D01*
X51527D01*
X51517Y28958D01*
X51467Y29079D01*
X51388Y29182D01*
X51285Y29261D01*
X51165Y29311D01*
X51086Y29321D01*
D02*
G37*
G36*
X50986D02*
X50907Y29311D01*
X50787Y29261D01*
X50684Y29182D01*
X50605Y29079D01*
X50555Y28958D01*
X50544Y28880D01*
X50986D01*
Y29321D01*
D02*
G37*
G36*
X55086Y29271D02*
Y28830D01*
X55527D01*
X55517Y28908D01*
X55467Y29029D01*
X55388Y29132D01*
X55285Y29211D01*
X55165Y29261D01*
X55086Y29271D01*
D02*
G37*
G36*
X44950Y31491D02*
X44849Y31478D01*
X44754Y31439D01*
X44673Y31377D01*
X44611Y31296D01*
X44572Y31201D01*
X44559Y31100D01*
X44572Y30999D01*
X44611Y30904D01*
X44673Y30823D01*
X44715Y30791D01*
X44719Y30728D01*
X44710Y30719D01*
X44537D01*
Y30069D01*
X45363D01*
Y30719D01*
X45190D01*
X45181Y30728D01*
X45185Y30791D01*
X45227Y30823D01*
X45289Y30904D01*
X45328Y30999D01*
X45341Y31100D01*
X45328Y31201D01*
X45289Y31296D01*
X45227Y31377D01*
X45146Y31439D01*
X45051Y31478D01*
X44950Y31491D01*
D02*
G37*
G36*
X40750Y30737D02*
X40647Y30723D01*
X40551Y30684D01*
X40469Y30621D01*
X40406Y30538D01*
X40366Y30443D01*
X40353Y30340D01*
X40366Y30237D01*
X40406Y30141D01*
X40469Y30059D01*
X40551Y29996D01*
X40647Y29956D01*
X40750Y29943D01*
X40853Y29956D01*
X40949Y29996D01*
X41031Y30059D01*
X41094Y30141D01*
X41134Y30237D01*
X41147Y30340D01*
X41134Y30443D01*
X41094Y30538D01*
X41031Y30621D01*
X40949Y30684D01*
X40853Y30723D01*
X40750Y30737D01*
D02*
G37*
G36*
X31650Y29342D02*
Y29000D01*
X31992D01*
X31985Y29053D01*
X31945Y29149D01*
X31882Y29232D01*
X31799Y29295D01*
X31703Y29335D01*
X31650Y29342D01*
D02*
G37*
G36*
X54986Y29271D02*
X54907Y29261D01*
X54787Y29211D01*
X54684Y29132D01*
X54605Y29029D01*
X54555Y28908D01*
X54544Y28830D01*
X54986D01*
Y29271D01*
D02*
G37*
G36*
X51527Y28780D02*
X51086D01*
Y28338D01*
X51165Y28349D01*
X51285Y28398D01*
X51388Y28477D01*
X51467Y28581D01*
X51517Y28701D01*
X51527Y28780D01*
D02*
G37*
G36*
X50986D02*
X50544D01*
X50555Y28701D01*
X50605Y28581D01*
X50684Y28477D01*
X50787Y28398D01*
X50907Y28349D01*
X50986Y28338D01*
Y28780D01*
D02*
G37*
G36*
X39211Y29167D02*
X39103Y29153D01*
X39002Y29111D01*
X38916Y29045D01*
X38850Y28958D01*
X38808Y28858D01*
X38794Y28750D01*
X38808Y28642D01*
X38850Y28542D01*
X38916Y28455D01*
X39002Y28389D01*
X39103Y28347D01*
X39211Y28333D01*
X39319Y28347D01*
X39419Y28389D01*
X39505Y28455D01*
X39572Y28542D01*
X39613Y28642D01*
X39628Y28750D01*
X39613Y28858D01*
X39572Y28958D01*
X39505Y29045D01*
X39419Y29111D01*
X39319Y29153D01*
X39211Y29167D01*
D02*
G37*
G36*
X31992Y28900D02*
X31650D01*
Y28558D01*
X31703Y28565D01*
X31799Y28605D01*
X31882Y28668D01*
X31945Y28751D01*
X31985Y28847D01*
X31992Y28900D01*
D02*
G37*
G36*
X42000Y28912D02*
Y28550D01*
X42362D01*
X42354Y28608D01*
X42312Y28709D01*
X42246Y28796D01*
X42159Y28862D01*
X42058Y28904D01*
X42000Y28912D01*
D02*
G37*
G36*
X41900D02*
X41842Y28904D01*
X41741Y28862D01*
X41654Y28796D01*
X41588Y28709D01*
X41546Y28608D01*
X41538Y28550D01*
X41900D01*
Y28912D01*
D02*
G37*
G36*
X34850Y13621D02*
Y13200D01*
X35237D01*
X35223Y13303D01*
X35180Y13409D01*
X35110Y13499D01*
X35019Y13569D01*
X34913Y13613D01*
X34850Y13621D01*
D02*
G37*
G36*
X34750D02*
X34687Y13613D01*
X34581Y13569D01*
X34490Y13499D01*
X34420Y13409D01*
X34377Y13303D01*
X34363Y13200D01*
X34750D01*
Y13621D01*
D02*
G37*
G36*
X27863Y13981D02*
X27037D01*
Y13332D01*
X27143D01*
Y13004D01*
X27126Y12997D01*
X27019Y12915D01*
X26937Y12808D01*
X26917Y12760D01*
X26867D01*
X26847Y12808D01*
X26765Y12915D01*
X26658Y12997D01*
X26641Y13004D01*
Y13332D01*
X26813D01*
Y13981D01*
X25987D01*
Y13332D01*
X26159D01*
Y13004D01*
X26142Y12997D01*
X26035Y12915D01*
X25953Y12808D01*
X25914Y12715D01*
X25860D01*
X25830Y12789D01*
X25754Y12888D01*
X25655Y12964D01*
X25539Y13012D01*
X25466Y13022D01*
Y12550D01*
Y12078D01*
X25539Y12088D01*
X25655Y12136D01*
X25754Y12212D01*
X25830Y12311D01*
X25860Y12385D01*
X25914D01*
X25953Y12292D01*
X26035Y12185D01*
X26142Y12103D01*
X26266Y12051D01*
X26400Y12034D01*
X26419Y12036D01*
X26460Y11991D01*
Y11187D01*
X27149D01*
Y11369D01*
X27192Y11377D01*
X27270Y11430D01*
X27555Y11714D01*
X27607Y11792D01*
X27625Y11884D01*
Y12096D01*
X27642Y12103D01*
X27749Y12185D01*
X27831Y12292D01*
X27883Y12416D01*
X27900Y12550D01*
X27883Y12684D01*
X27831Y12808D01*
X27749Y12915D01*
X27642Y12997D01*
X27625Y13004D01*
Y13332D01*
X27863D01*
Y13981D01*
D02*
G37*
G36*
X46900Y14600D02*
X46604D01*
X46609Y14559D01*
X46644Y14473D01*
X46700Y14400D01*
X46773Y14344D01*
X46859Y14309D01*
X46900Y14304D01*
Y14600D01*
D02*
G37*
G36*
X64346Y14350D02*
X64050D01*
Y14054D01*
X64091Y14059D01*
X64177Y14094D01*
X64250Y14150D01*
X64306Y14223D01*
X64341Y14309D01*
X64346Y14350D01*
D02*
G37*
G36*
X63950D02*
X63654D01*
X63659Y14309D01*
X63694Y14223D01*
X63750Y14150D01*
X63823Y14094D01*
X63909Y14059D01*
X63950Y14054D01*
Y14350D01*
D02*
G37*
G36*
X47616Y13022D02*
X47542Y13012D01*
X47427Y12964D01*
X47328Y12888D01*
X47252Y12789D01*
X47204Y12674D01*
X47194Y12600D01*
X47616D01*
Y13022D01*
D02*
G37*
G36*
X41300Y12846D02*
X41259Y12841D01*
X41173Y12806D01*
X41100Y12750D01*
X41044Y12677D01*
X41009Y12591D01*
X41004Y12550D01*
X41300D01*
Y12846D01*
D02*
G37*
G36*
X41696Y12450D02*
X41400D01*
Y12154D01*
X41441Y12159D01*
X41527Y12194D01*
X41600Y12250D01*
X41656Y12323D01*
X41691Y12409D01*
X41696Y12450D01*
D02*
G37*
G36*
X41300D02*
X41004D01*
X41009Y12409D01*
X41044Y12323D01*
X41100Y12250D01*
X41173Y12194D01*
X41259Y12159D01*
X41300Y12154D01*
Y12450D01*
D02*
G37*
G36*
X43766Y13022D02*
X43692Y13012D01*
X43577Y12964D01*
X43478Y12888D01*
X43402Y12789D01*
X43354Y12674D01*
X43344Y12600D01*
X43766D01*
Y13022D01*
D02*
G37*
G36*
X25366D02*
X25292Y13012D01*
X25177Y12964D01*
X25078Y12888D01*
X25002Y12789D01*
X24954Y12674D01*
X24944Y12600D01*
X25366D01*
Y13022D01*
D02*
G37*
G36*
X41400Y12846D02*
Y12550D01*
X41696D01*
X41691Y12591D01*
X41656Y12677D01*
X41600Y12750D01*
X41527Y12806D01*
X41441Y12841D01*
X41400Y12846D01*
D02*
G37*
G36*
X47296Y14600D02*
X47000D01*
Y14304D01*
X47041Y14309D01*
X47127Y14344D01*
X47200Y14400D01*
X47256Y14473D01*
X47291Y14559D01*
X47296Y14600D01*
D02*
G37*
G36*
X41500Y15396D02*
Y15100D01*
X41796D01*
X41791Y15141D01*
X41756Y15227D01*
X41700Y15300D01*
X41627Y15356D01*
X41541Y15391D01*
X41500Y15396D01*
D02*
G37*
G36*
X41400D02*
X41359Y15391D01*
X41273Y15356D01*
X41200Y15300D01*
X41144Y15227D01*
X41109Y15141D01*
X41104Y15100D01*
X41400D01*
Y15396D01*
D02*
G37*
G36*
X41796Y15000D02*
X41500D01*
Y14704D01*
X41541Y14709D01*
X41627Y14744D01*
X41700Y14800D01*
X41756Y14873D01*
X41791Y14959D01*
X41796Y15000D01*
D02*
G37*
G36*
X49500Y16396D02*
X49459Y16391D01*
X49373Y16356D01*
X49300Y16300D01*
X49244Y16227D01*
X49209Y16141D01*
X49204Y16100D01*
X49500D01*
Y16396D01*
D02*
G37*
G36*
X49896Y16000D02*
X49600D01*
Y15704D01*
X49641Y15709D01*
X49727Y15744D01*
X49800Y15800D01*
X49856Y15873D01*
X49891Y15959D01*
X49896Y16000D01*
D02*
G37*
G36*
X49500D02*
X49204D01*
X49209Y15959D01*
X49244Y15873D01*
X49300Y15800D01*
X49373Y15744D01*
X49459Y15709D01*
X49500Y15704D01*
Y16000D01*
D02*
G37*
G36*
X41400Y15000D02*
X41104D01*
X41109Y14959D01*
X41144Y14873D01*
X41200Y14800D01*
X41273Y14744D01*
X41359Y14709D01*
X41400Y14704D01*
Y15000D01*
D02*
G37*
G36*
X60039Y17367D02*
X59817Y17349D01*
X59600Y17297D01*
X59394Y17212D01*
X59204Y17095D01*
X59034Y16950D01*
X58889Y16781D01*
X58773Y16590D01*
X58687Y16384D01*
X58635Y16167D01*
X58618Y15945D01*
X58635Y15722D01*
X58687Y15506D01*
X58773Y15299D01*
X58889Y15109D01*
X59034Y14940D01*
X59204Y14795D01*
X59394Y14678D01*
X59600Y14593D01*
X59817Y14541D01*
X60039Y14523D01*
X60262Y14541D01*
X60479Y14593D01*
X60685Y14678D01*
X60875Y14795D01*
X61045Y14940D01*
X61190Y15109D01*
X61306Y15299D01*
X61391Y15506D01*
X61444Y15722D01*
X61461Y15945D01*
X61444Y16167D01*
X61391Y16384D01*
X61306Y16590D01*
X61190Y16781D01*
X61045Y16950D01*
X60875Y17095D01*
X60685Y17212D01*
X60479Y17297D01*
X60262Y17349D01*
X60039Y17367D01*
D02*
G37*
G36*
X64050Y14746D02*
Y14450D01*
X64346D01*
X64341Y14491D01*
X64306Y14577D01*
X64250Y14650D01*
X64177Y14706D01*
X64091Y14741D01*
X64050Y14746D01*
D02*
G37*
G36*
X63950D02*
X63909Y14741D01*
X63823Y14706D01*
X63750Y14650D01*
X63694Y14577D01*
X63659Y14491D01*
X63654Y14450D01*
X63950D01*
Y14746D01*
D02*
G37*
G36*
X47000Y14996D02*
Y14700D01*
X47296D01*
X47291Y14741D01*
X47256Y14827D01*
X47200Y14900D01*
X47127Y14956D01*
X47041Y14991D01*
X47000Y14996D01*
D02*
G37*
G36*
X46900D02*
X46859Y14991D01*
X46773Y14956D01*
X46700Y14900D01*
X46644Y14827D01*
X46609Y14741D01*
X46604Y14700D01*
X46900D01*
Y14996D01*
D02*
G37*
G36*
X27500Y15441D02*
X27399Y15428D01*
X27304Y15389D01*
X27223Y15327D01*
X27161Y15246D01*
X27122Y15151D01*
X27109Y15050D01*
X27122Y14949D01*
X27161Y14854D01*
X27189Y14819D01*
X27164Y14769D01*
X27037D01*
Y14685D01*
X26813D01*
Y14769D01*
X25987D01*
Y14119D01*
X26813D01*
Y14203D01*
X27037D01*
Y14119D01*
X27863D01*
Y14769D01*
X27836D01*
X27811Y14819D01*
X27839Y14854D01*
X27878Y14949D01*
X27891Y15050D01*
X27878Y15151D01*
X27839Y15246D01*
X27777Y15327D01*
X27696Y15389D01*
X27601Y15428D01*
X27500Y15441D01*
D02*
G37*
G36*
X47616Y12500D02*
X47194D01*
X47204Y12426D01*
X47252Y12311D01*
X47328Y12212D01*
X47427Y12136D01*
X47542Y12088D01*
X47616Y12078D01*
Y12500D01*
D02*
G37*
G36*
X56200Y11350D02*
X55904D01*
X55909Y11309D01*
X55944Y11223D01*
X56000Y11150D01*
X56073Y11094D01*
X56159Y11059D01*
X56200Y11054D01*
Y11350D01*
D02*
G37*
G36*
X52196D02*
X51900D01*
Y11054D01*
X51941Y11059D01*
X52027Y11094D01*
X52100Y11150D01*
X52156Y11223D01*
X52191Y11309D01*
X52196Y11350D01*
D02*
G37*
G36*
X51800D02*
X51504D01*
X51509Y11309D01*
X51544Y11223D01*
X51600Y11150D01*
X51673Y11094D01*
X51759Y11059D01*
X51800Y11054D01*
Y11350D01*
D02*
G37*
G36*
X48652Y11500D02*
X48396D01*
Y11174D01*
X48652D01*
Y11500D01*
D02*
G37*
G36*
X48296D02*
X48039D01*
Y11174D01*
X48296D01*
Y11500D01*
D02*
G37*
G36*
X56596Y11350D02*
X56300D01*
Y11054D01*
X56341Y11059D01*
X56427Y11094D01*
X56500Y11150D01*
X56556Y11223D01*
X56591Y11309D01*
X56596Y11350D01*
D02*
G37*
G36*
X60650Y11346D02*
Y11050D01*
X60946D01*
X60941Y11091D01*
X60906Y11177D01*
X60850Y11250D01*
X60777Y11306D01*
X60691Y11341D01*
X60650Y11346D01*
D02*
G37*
G36*
X60946Y10950D02*
X60650D01*
Y10654D01*
X60691Y10659D01*
X60777Y10694D01*
X60850Y10750D01*
X60906Y10823D01*
X60941Y10909D01*
X60946Y10950D01*
D02*
G37*
G36*
X60550D02*
X60254D01*
X60259Y10909D01*
X60294Y10823D01*
X60350Y10750D01*
X60423Y10694D01*
X60509Y10659D01*
X60550Y10654D01*
Y10950D01*
D02*
G37*
G36*
X62992Y13233D02*
X62770Y13215D01*
X62553Y13163D01*
X62347Y13078D01*
X62156Y12961D01*
X61987Y12816D01*
X61842Y12647D01*
X61725Y12456D01*
X61640Y12250D01*
X61588Y12033D01*
X61570Y11811D01*
X61588Y11589D01*
X61640Y11372D01*
X61725Y11166D01*
X61842Y10975D01*
X61987Y10806D01*
X62156Y10661D01*
X62347Y10544D01*
X62553Y10459D01*
X62770Y10407D01*
X62992Y10389D01*
X63215Y10407D01*
X63431Y10459D01*
X63638Y10544D01*
X63828Y10661D01*
X63997Y10806D01*
X64142Y10975D01*
X64259Y11166D01*
X64344Y11372D01*
X64396Y11589D01*
X64414Y11811D01*
X64396Y12033D01*
X64344Y12250D01*
X64259Y12456D01*
X64142Y12647D01*
X63997Y12816D01*
X63828Y12961D01*
X63638Y13078D01*
X63431Y13163D01*
X63215Y13215D01*
X62992Y13233D01*
D02*
G37*
G36*
X60550Y11346D02*
X60509Y11341D01*
X60423Y11306D01*
X60350Y11250D01*
X60294Y11177D01*
X60259Y11091D01*
X60254Y11050D01*
X60550D01*
Y11346D01*
D02*
G37*
G36*
X44802Y11350D02*
X44546D01*
Y11024D01*
X44802D01*
Y11350D01*
D02*
G37*
G36*
X44446D02*
X44189D01*
Y11024D01*
X44446D01*
Y11350D01*
D02*
G37*
G36*
X26046Y11550D02*
X25789D01*
Y11224D01*
X26046D01*
Y11550D01*
D02*
G37*
G36*
Y11976D02*
X25789D01*
Y11650D01*
X26046D01*
Y11976D01*
D02*
G37*
G36*
X48652Y11926D02*
X48396D01*
Y11600D01*
X48652D01*
Y11926D01*
D02*
G37*
G36*
X48296D02*
X48039D01*
Y11600D01*
X48296D01*
Y11926D01*
D02*
G37*
G36*
X43766Y12500D02*
X43344D01*
X43354Y12426D01*
X43402Y12311D01*
X43478Y12212D01*
X43577Y12136D01*
X43692Y12088D01*
X43766Y12078D01*
Y12500D01*
D02*
G37*
G36*
X25366D02*
X24944D01*
X24954Y12426D01*
X25002Y12311D01*
X25078Y12212D01*
X25177Y12136D01*
X25292Y12088D01*
X25366Y12078D01*
Y12500D01*
D02*
G37*
G36*
X26402Y11976D02*
X26146D01*
Y11650D01*
X26402D01*
Y11976D01*
D02*
G37*
G36*
X56300Y11746D02*
Y11450D01*
X56596D01*
X56591Y11491D01*
X56556Y11577D01*
X56500Y11650D01*
X56427Y11706D01*
X56341Y11741D01*
X56300Y11746D01*
D02*
G37*
G36*
X44802Y11776D02*
X44546D01*
Y11450D01*
X44802D01*
Y11776D01*
D02*
G37*
G36*
X44446D02*
X44189D01*
Y11450D01*
X44446D01*
Y11776D01*
D02*
G37*
G36*
X26402Y11550D02*
X26146D01*
Y11224D01*
X26402D01*
Y11550D01*
D02*
G37*
G36*
X56200Y11746D02*
X56159Y11741D01*
X56073Y11706D01*
X56000Y11650D01*
X55944Y11577D01*
X55909Y11491D01*
X55904Y11450D01*
X56200D01*
Y11746D01*
D02*
G37*
G36*
X51900D02*
Y11450D01*
X52196D01*
X52191Y11491D01*
X52156Y11577D01*
X52100Y11650D01*
X52027Y11706D01*
X51941Y11741D01*
X51900Y11746D01*
D02*
G37*
G36*
X51800D02*
X51759Y11741D01*
X51673Y11706D01*
X51600Y11650D01*
X51544Y11577D01*
X51509Y11491D01*
X51504Y11450D01*
X51800D01*
Y11746D01*
D02*
G37*
G36*
X49600Y16396D02*
Y16100D01*
X49896D01*
X49891Y16141D01*
X49856Y16227D01*
X49800Y16300D01*
X49727Y16356D01*
X49641Y16391D01*
X49600Y16396D01*
D02*
G37*
G36*
X40500Y20273D02*
Y19911D01*
X40862D01*
X40854Y19969D01*
X40812Y20070D01*
X40746Y20157D01*
X40659Y20223D01*
X40558Y20265D01*
X40500Y20273D01*
D02*
G37*
G36*
X40400D02*
X40342Y20265D01*
X40241Y20223D01*
X40154Y20157D01*
X40088Y20070D01*
X40046Y19969D01*
X40038Y19911D01*
X40400D01*
Y20273D01*
D02*
G37*
G36*
X64296Y20200D02*
X64000D01*
Y19904D01*
X64041Y19909D01*
X64127Y19944D01*
X64200Y20000D01*
X64256Y20073D01*
X64291Y20159D01*
X64296Y20200D01*
D02*
G37*
G36*
X49100Y20350D02*
X48804D01*
X48809Y20309D01*
X48844Y20223D01*
X48900Y20150D01*
X48973Y20094D01*
X49059Y20059D01*
X49100Y20054D01*
Y20350D01*
D02*
G37*
G36*
X41976Y20196D02*
X41650D01*
Y19939D01*
X41976D01*
Y20196D01*
D02*
G37*
G36*
X41550D02*
X41224D01*
Y19939D01*
X41550D01*
Y20196D01*
D02*
G37*
G36*
X63900Y20200D02*
X63604D01*
X63609Y20159D01*
X63644Y20073D01*
X63700Y20000D01*
X63773Y19944D01*
X63859Y19909D01*
X63900Y19904D01*
Y20200D01*
D02*
G37*
G36*
X43094Y19981D02*
X42848D01*
Y19458D01*
X43094D01*
Y19981D01*
D02*
G37*
G36*
X40862Y19811D02*
X40500D01*
Y19449D01*
X40558Y19457D01*
X40659Y19499D01*
X40746Y19565D01*
X40812Y19652D01*
X40854Y19753D01*
X40862Y19811D01*
D02*
G37*
G36*
X40400D02*
X40038D01*
X40046Y19753D01*
X40088Y19652D01*
X40154Y19565D01*
X40241Y19499D01*
X40342Y19457D01*
X40400Y19449D01*
Y19811D01*
D02*
G37*
G36*
X33650Y20096D02*
Y19800D01*
X33946D01*
X33941Y19841D01*
X33906Y19927D01*
X33850Y20000D01*
X33777Y20056D01*
X33691Y20091D01*
X33650Y20096D01*
D02*
G37*
G36*
X33550D02*
X33509Y20091D01*
X33423Y20056D01*
X33350Y20000D01*
X33294Y19927D01*
X33259Y19841D01*
X33254Y19800D01*
X33550D01*
Y20096D01*
D02*
G37*
G36*
X43441Y19981D02*
X43194D01*
Y19458D01*
X43441D01*
Y19981D01*
D02*
G37*
G36*
X49496Y20350D02*
X49200D01*
Y20054D01*
X49241Y20059D01*
X49327Y20094D01*
X49400Y20150D01*
X49456Y20223D01*
X49491Y20309D01*
X49496Y20350D01*
D02*
G37*
G36*
X64000Y20596D02*
Y20300D01*
X64296D01*
X64291Y20341D01*
X64256Y20427D01*
X64200Y20500D01*
X64127Y20556D01*
X64041Y20591D01*
X64000Y20596D01*
D02*
G37*
G36*
X63900D02*
X63859Y20591D01*
X63773Y20556D01*
X63700Y20500D01*
X63644Y20427D01*
X63609Y20341D01*
X63604Y20300D01*
X63900D01*
Y20596D01*
D02*
G37*
G36*
X41976Y20552D02*
X41650D01*
Y20296D01*
X41976D01*
Y20552D01*
D02*
G37*
G36*
X52100Y20746D02*
X52059Y20741D01*
X51973Y20706D01*
X51900Y20650D01*
X51844Y20577D01*
X51809Y20491D01*
X51804Y20450D01*
X52100D01*
Y20746D01*
D02*
G37*
G36*
X49200D02*
Y20450D01*
X49496D01*
X49491Y20491D01*
X49456Y20577D01*
X49400Y20650D01*
X49327Y20706D01*
X49241Y20741D01*
X49200Y20746D01*
D02*
G37*
G36*
X49100D02*
X49059Y20741D01*
X48973Y20706D01*
X48900Y20650D01*
X48844Y20577D01*
X48809Y20491D01*
X48804Y20450D01*
X49100D01*
Y20746D01*
D02*
G37*
G36*
X41550Y20552D02*
X41224D01*
Y20296D01*
X41550D01*
Y20552D01*
D02*
G37*
G36*
X55950Y20350D02*
X55654D01*
X55659Y20309D01*
X55694Y20223D01*
X55750Y20150D01*
X55823Y20094D01*
X55909Y20059D01*
X55950Y20054D01*
Y20350D01*
D02*
G37*
G36*
X52496D02*
X52200D01*
Y20054D01*
X52241Y20059D01*
X52327Y20094D01*
X52400Y20150D01*
X52456Y20223D01*
X52491Y20309D01*
X52496Y20350D01*
D02*
G37*
G36*
X52100D02*
X51804D01*
X51809Y20309D01*
X51844Y20223D01*
X51900Y20150D01*
X51973Y20094D01*
X52059Y20059D01*
X52100Y20054D01*
Y20350D01*
D02*
G37*
G36*
X60396Y20400D02*
X60100D01*
Y20104D01*
X60141Y20109D01*
X60227Y20144D01*
X60300Y20200D01*
X60356Y20273D01*
X60391Y20359D01*
X60396Y20400D01*
D02*
G37*
G36*
X60000D02*
X59704D01*
X59709Y20359D01*
X59744Y20273D01*
X59800Y20200D01*
X59873Y20144D01*
X59959Y20109D01*
X60000Y20104D01*
Y20400D01*
D02*
G37*
G36*
X56346Y20350D02*
X56050D01*
Y20054D01*
X56091Y20059D01*
X56177Y20094D01*
X56250Y20150D01*
X56306Y20223D01*
X56341Y20309D01*
X56346Y20350D01*
D02*
G37*
G36*
X33946Y19700D02*
X33650D01*
Y19404D01*
X33691Y19409D01*
X33777Y19444D01*
X33850Y19500D01*
X33906Y19573D01*
X33941Y19659D01*
X33946Y19700D01*
D02*
G37*
G36*
X64050Y17446D02*
Y17150D01*
X64346D01*
X64341Y17191D01*
X64306Y17277D01*
X64250Y17350D01*
X64177Y17406D01*
X64091Y17441D01*
X64050Y17446D01*
D02*
G37*
G36*
X63950D02*
X63909Y17441D01*
X63823Y17406D01*
X63750Y17350D01*
X63694Y17277D01*
X63659Y17191D01*
X63654Y17150D01*
X63950D01*
Y17446D01*
D02*
G37*
G36*
X40796Y17300D02*
X40500D01*
Y17004D01*
X40541Y17009D01*
X40627Y17044D01*
X40700Y17100D01*
X40756Y17173D01*
X40791Y17259D01*
X40796Y17300D01*
D02*
G37*
G36*
X43546Y17850D02*
X43289D01*
Y17524D01*
X43546D01*
Y17850D01*
D02*
G37*
G36*
X40500Y17696D02*
Y17400D01*
X40796D01*
X40791Y17441D01*
X40756Y17527D01*
X40700Y17600D01*
X40627Y17656D01*
X40541Y17691D01*
X40500Y17696D01*
D02*
G37*
G36*
X40400D02*
X40359Y17691D01*
X40273Y17656D01*
X40200Y17600D01*
X40144Y17527D01*
X40109Y17441D01*
X40104Y17400D01*
X40400D01*
Y17696D01*
D02*
G37*
G36*
Y17300D02*
X40104D01*
X40109Y17259D01*
X40144Y17173D01*
X40200Y17100D01*
X40273Y17044D01*
X40359Y17009D01*
X40400Y17004D01*
Y17300D01*
D02*
G37*
G36*
X63950Y17050D02*
X63654D01*
X63659Y17009D01*
X63694Y16923D01*
X63750Y16850D01*
X63823Y16794D01*
X63909Y16759D01*
X63950Y16754D01*
Y17050D01*
D02*
G37*
G36*
X33896Y16800D02*
X33600D01*
Y16504D01*
X33641Y16509D01*
X33727Y16544D01*
X33800Y16600D01*
X33856Y16673D01*
X33891Y16759D01*
X33896Y16800D01*
D02*
G37*
G36*
X33500D02*
X33204D01*
X33209Y16759D01*
X33244Y16673D01*
X33300Y16600D01*
X33373Y16544D01*
X33459Y16509D01*
X33500Y16504D01*
Y16800D01*
D02*
G37*
G36*
X33600Y17196D02*
Y16900D01*
X33896D01*
X33891Y16941D01*
X33856Y17027D01*
X33800Y17100D01*
X33727Y17156D01*
X33641Y17191D01*
X33600Y17196D01*
D02*
G37*
G36*
X33500D02*
X33459Y17191D01*
X33373Y17156D01*
X33300Y17100D01*
X33244Y17027D01*
X33209Y16941D01*
X33204Y16900D01*
X33500D01*
Y17196D01*
D02*
G37*
G36*
X64346Y17050D02*
X64050D01*
Y16754D01*
X64091Y16759D01*
X64177Y16794D01*
X64250Y16850D01*
X64306Y16923D01*
X64341Y17009D01*
X64346Y17050D01*
D02*
G37*
G36*
X43902Y17850D02*
X43646D01*
Y17524D01*
X43902D01*
Y17850D01*
D02*
G37*
G36*
X49200Y18496D02*
Y18200D01*
X49496D01*
X49491Y18241D01*
X49456Y18327D01*
X49400Y18400D01*
X49327Y18456D01*
X49241Y18491D01*
X49200Y18496D01*
D02*
G37*
G36*
X49100D02*
X49059Y18491D01*
X48973Y18456D01*
X48900Y18400D01*
X48844Y18327D01*
X48809Y18241D01*
X48804Y18200D01*
X49100D01*
Y18496D01*
D02*
G37*
G36*
X46150D02*
Y18200D01*
X46446D01*
X46441Y18241D01*
X46406Y18327D01*
X46350Y18400D01*
X46277Y18456D01*
X46191Y18491D01*
X46150Y18496D01*
D02*
G37*
G36*
X33550Y19700D02*
X33254D01*
X33259Y19659D01*
X33294Y19573D01*
X33350Y19500D01*
X33423Y19444D01*
X33509Y19409D01*
X33550Y19404D01*
Y19700D01*
D02*
G37*
G36*
X43441Y19358D02*
X43194D01*
Y18836D01*
X43441D01*
Y19358D01*
D02*
G37*
G36*
X43094D02*
X42848D01*
Y18836D01*
X43094D01*
Y19358D01*
D02*
G37*
G36*
X46050Y18496D02*
X46009Y18491D01*
X45923Y18456D01*
X45850Y18400D01*
X45794Y18327D01*
X45759Y18241D01*
X45754Y18200D01*
X46050D01*
Y18496D01*
D02*
G37*
G36*
X49100Y18100D02*
X48804D01*
X48809Y18059D01*
X48844Y17973D01*
X48900Y17900D01*
X48973Y17844D01*
X49059Y17809D01*
X49100Y17804D01*
Y18100D01*
D02*
G37*
G36*
X46446D02*
X46150D01*
Y17804D01*
X46191Y17809D01*
X46277Y17844D01*
X46350Y17900D01*
X46406Y17973D01*
X46441Y18059D01*
X46446Y18100D01*
D02*
G37*
G36*
X46050D02*
X45754D01*
X45759Y18059D01*
X45794Y17973D01*
X45850Y17900D01*
X45923Y17844D01*
X46009Y17809D01*
X46050Y17804D01*
Y18100D01*
D02*
G37*
G36*
X43902Y18276D02*
X43646D01*
Y17950D01*
X43902D01*
Y18276D01*
D02*
G37*
G36*
X43546D02*
X43289D01*
Y17950D01*
X43546D01*
Y18276D01*
D02*
G37*
G36*
X49496Y18100D02*
X49200D01*
Y17804D01*
X49241Y17809D01*
X49327Y17844D01*
X49400Y17900D01*
X49456Y17973D01*
X49491Y18059D01*
X49496Y18100D01*
D02*
G37*
G36*
X62100Y48150D02*
X61804D01*
X61809Y48109D01*
X61844Y48023D01*
X61900Y47950D01*
X61973Y47894D01*
X62059Y47859D01*
X62100Y47854D01*
Y48150D01*
D02*
G37*
G36*
X31250Y48046D02*
Y47750D01*
X31546D01*
X31541Y47791D01*
X31506Y47877D01*
X31450Y47950D01*
X31377Y48006D01*
X31291Y48041D01*
X31250Y48046D01*
D02*
G37*
G36*
X31150D02*
X31109Y48041D01*
X31023Y48006D01*
X30950Y47950D01*
X30894Y47877D01*
X30859Y47791D01*
X30854Y47750D01*
X31150D01*
Y48046D01*
D02*
G37*
G36*
X62496Y48150D02*
X62200D01*
Y47854D01*
X62241Y47859D01*
X62327Y47894D01*
X62400Y47950D01*
X62456Y48023D01*
X62491Y48109D01*
X62496Y48150D01*
D02*
G37*
G36*
X62100Y48546D02*
X62059Y48541D01*
X61973Y48506D01*
X61900Y48450D01*
X61844Y48377D01*
X61809Y48291D01*
X61804Y48250D01*
X62100D01*
Y48546D01*
D02*
G37*
G36*
X53346Y48250D02*
X53050D01*
Y47954D01*
X53091Y47959D01*
X53177Y47994D01*
X53250Y48050D01*
X53306Y48123D01*
X53341Y48209D01*
X53346Y48250D01*
D02*
G37*
G36*
X52950D02*
X52654D01*
X52659Y48209D01*
X52694Y48123D01*
X52750Y48050D01*
X52823Y47994D01*
X52909Y47959D01*
X52950Y47954D01*
Y48250D01*
D02*
G37*
G36*
X11650Y47796D02*
Y47500D01*
X11946D01*
X11941Y47541D01*
X11906Y47627D01*
X11850Y47700D01*
X11777Y47756D01*
X11691Y47791D01*
X11650Y47796D01*
D02*
G37*
G36*
X11550D02*
X11509Y47791D01*
X11423Y47756D01*
X11350Y47700D01*
X11294Y47627D01*
X11259Y47541D01*
X11254Y47500D01*
X11550D01*
Y47796D01*
D02*
G37*
G36*
X31546Y47650D02*
X31250D01*
Y47354D01*
X31291Y47359D01*
X31377Y47394D01*
X31450Y47450D01*
X31506Y47523D01*
X31541Y47609D01*
X31546Y47650D01*
D02*
G37*
G36*
X15450Y47796D02*
X15409Y47791D01*
X15323Y47756D01*
X15250Y47700D01*
X15194Y47627D01*
X15159Y47541D01*
X15154Y47500D01*
X15450D01*
Y47796D01*
D02*
G37*
G36*
X20550Y47846D02*
Y47550D01*
X20846D01*
X20841Y47591D01*
X20806Y47677D01*
X20750Y47750D01*
X20677Y47806D01*
X20591Y47841D01*
X20550Y47846D01*
D02*
G37*
G36*
X20450D02*
X20409Y47841D01*
X20323Y47806D01*
X20250Y47750D01*
X20194Y47677D01*
X20159Y47591D01*
X20154Y47550D01*
X20450D01*
Y47846D01*
D02*
G37*
G36*
X15550Y47796D02*
Y47500D01*
X15846D01*
X15841Y47541D01*
X15806Y47627D01*
X15750Y47700D01*
X15677Y47756D01*
X15591Y47791D01*
X15550Y47796D01*
D02*
G37*
G36*
X20450Y49950D02*
X20154D01*
X20159Y49909D01*
X20194Y49823D01*
X20250Y49750D01*
X20323Y49694D01*
X20409Y49659D01*
X20450Y49654D01*
Y49950D01*
D02*
G37*
G36*
X25800Y49696D02*
Y49400D01*
X26096D01*
X26091Y49441D01*
X26056Y49527D01*
X26000Y49600D01*
X25927Y49656D01*
X25841Y49691D01*
X25800Y49696D01*
D02*
G37*
G36*
X25700D02*
X25659Y49691D01*
X25573Y49656D01*
X25500Y49600D01*
X25444Y49527D01*
X25409Y49441D01*
X25404Y49400D01*
X25700D01*
Y49696D01*
D02*
G37*
G36*
X20846Y49950D02*
X20550D01*
Y49654D01*
X20591Y49659D01*
X20677Y49694D01*
X20750Y49750D01*
X20806Y49823D01*
X20841Y49909D01*
X20846Y49950D01*
D02*
G37*
G36*
X20450Y50346D02*
X20409Y50341D01*
X20323Y50306D01*
X20250Y50250D01*
X20194Y50177D01*
X20159Y50091D01*
X20154Y50050D01*
X20450D01*
Y50346D01*
D02*
G37*
G36*
X18519Y50663D02*
X17869D01*
Y49837D01*
X18519D01*
Y50049D01*
X18665D01*
X18723Y49973D01*
X18804Y49911D01*
X18899Y49872D01*
X19000Y49859D01*
X19101Y49872D01*
X19196Y49911D01*
X19277Y49973D01*
X19339Y50054D01*
X19378Y50149D01*
X19391Y50250D01*
X19378Y50351D01*
X19339Y50446D01*
X19277Y50527D01*
X19196Y50589D01*
X19101Y50628D01*
X19000Y50641D01*
X18899Y50628D01*
X18804Y50589D01*
X18723Y50527D01*
X18665Y50451D01*
X18519D01*
Y50663D01*
D02*
G37*
G36*
X17682Y51732D02*
X17170D01*
Y51063D01*
X17185D01*
Y50663D01*
X17082D01*
Y49837D01*
X17731D01*
Y50663D01*
X17667D01*
Y51063D01*
X17682D01*
Y51732D01*
D02*
G37*
G36*
X53050Y48646D02*
Y48350D01*
X53346D01*
X53341Y48391D01*
X53306Y48477D01*
X53250Y48550D01*
X53177Y48606D01*
X53091Y48641D01*
X53050Y48646D01*
D02*
G37*
G36*
X52950D02*
X52909Y48641D01*
X52823Y48606D01*
X52750Y48550D01*
X52694Y48477D01*
X52659Y48391D01*
X52654Y48350D01*
X52950D01*
Y48646D01*
D02*
G37*
G36*
X62200Y48546D02*
Y48250D01*
X62496D01*
X62491Y48291D01*
X62456Y48377D01*
X62400Y48450D01*
X62327Y48506D01*
X62241Y48541D01*
X62200Y48546D01*
D02*
G37*
G36*
X14764Y51619D02*
X14541Y51601D01*
X14324Y51549D01*
X14118Y51464D01*
X13928Y51347D01*
X13758Y51202D01*
X13614Y51033D01*
X13497Y50842D01*
X13412Y50636D01*
X13360Y50419D01*
X13342Y50197D01*
X13360Y49974D01*
X13412Y49758D01*
X13497Y49551D01*
X13614Y49361D01*
X13758Y49192D01*
X13928Y49047D01*
X14118Y48930D01*
X14324Y48845D01*
X14541Y48793D01*
X14764Y48775D01*
X14986Y48793D01*
X15203Y48845D01*
X15409Y48930D01*
X15599Y49047D01*
X15769Y49192D01*
X15914Y49361D01*
X16031Y49551D01*
X16116Y49758D01*
X16168Y49974D01*
X16185Y50197D01*
X16168Y50419D01*
X16116Y50636D01*
X16031Y50842D01*
X15914Y51033D01*
X15769Y51202D01*
X15599Y51347D01*
X15409Y51464D01*
X15203Y51549D01*
X14986Y51601D01*
X14764Y51619D01*
D02*
G37*
G36*
X26096Y49300D02*
X25800D01*
Y49004D01*
X25841Y49009D01*
X25927Y49044D01*
X26000Y49100D01*
X26056Y49173D01*
X26091Y49259D01*
X26096Y49300D01*
D02*
G37*
G36*
X25700D02*
X25404D01*
X25409Y49259D01*
X25444Y49173D01*
X25500Y49100D01*
X25573Y49044D01*
X25659Y49009D01*
X25700Y49004D01*
Y49300D01*
D02*
G37*
G36*
X60039Y51619D02*
X59817Y51601D01*
X59600Y51549D01*
X59394Y51464D01*
X59204Y51347D01*
X59034Y51202D01*
X58889Y51033D01*
X58773Y50842D01*
X58687Y50636D01*
X58635Y50419D01*
X58618Y50197D01*
X58635Y49974D01*
X58687Y49758D01*
X58773Y49551D01*
X58889Y49361D01*
X59034Y49192D01*
X59204Y49047D01*
X59394Y48930D01*
X59600Y48845D01*
X59817Y48793D01*
X60039Y48775D01*
X60262Y48793D01*
X60479Y48845D01*
X60685Y48930D01*
X60875Y49047D01*
X61045Y49192D01*
X61190Y49361D01*
X61306Y49551D01*
X61391Y49758D01*
X61444Y49974D01*
X61461Y50197D01*
X61444Y50419D01*
X61391Y50636D01*
X61306Y50842D01*
X61190Y51033D01*
X61045Y51202D01*
X60875Y51347D01*
X60685Y51464D01*
X60479Y51549D01*
X60262Y51601D01*
X60039Y51619D01*
D02*
G37*
G36*
X40200Y45296D02*
Y45000D01*
X40496D01*
X40491Y45041D01*
X40456Y45127D01*
X40400Y45200D01*
X40327Y45256D01*
X40241Y45291D01*
X40200Y45296D01*
D02*
G37*
G36*
X40100D02*
X40059Y45291D01*
X39973Y45256D01*
X39900Y45200D01*
X39844Y45127D01*
X39809Y45041D01*
X39804Y45000D01*
X40100D01*
Y45296D01*
D02*
G37*
G36*
X40496Y44900D02*
X40200D01*
Y44604D01*
X40241Y44609D01*
X40327Y44644D01*
X40400Y44700D01*
X40456Y44773D01*
X40491Y44859D01*
X40496Y44900D01*
D02*
G37*
G36*
X55700Y45691D02*
X55621Y45681D01*
X55501Y45631D01*
X55398Y45552D01*
X55319Y45449D01*
X55269Y45329D01*
X55259Y45250D01*
X55700D01*
Y45691D01*
D02*
G37*
G36*
X38046Y46200D02*
X37750D01*
Y45904D01*
X37791Y45909D01*
X37877Y45944D01*
X37950Y46000D01*
X38006Y46073D01*
X38041Y46159D01*
X38046Y46200D01*
D02*
G37*
G36*
X37650D02*
X37354D01*
X37359Y46159D01*
X37394Y46073D01*
X37450Y46000D01*
X37523Y45944D01*
X37609Y45909D01*
X37650Y45904D01*
Y46200D01*
D02*
G37*
G36*
X56750Y45736D02*
X56611Y45718D01*
X56482Y45664D01*
X56371Y45579D01*
X56286Y45468D01*
X56257Y45398D01*
X56202D01*
X56181Y45449D01*
X56102Y45552D01*
X55999Y45631D01*
X55879Y45681D01*
X55800Y45691D01*
Y45200D01*
X55750D01*
Y45150D01*
X55259D01*
X55269Y45071D01*
X55319Y44951D01*
X55398Y44848D01*
X55501Y44769D01*
X55552Y44748D01*
Y44693D01*
X55482Y44664D01*
X55371Y44579D01*
X55286Y44468D01*
X55232Y44339D01*
X55214Y44200D01*
X55232Y44061D01*
X55286Y43932D01*
X55371Y43821D01*
X55482Y43736D01*
X55508Y43725D01*
Y43675D01*
X55482Y43664D01*
X55371Y43579D01*
X55286Y43468D01*
X55232Y43339D01*
X55214Y43200D01*
X55232Y43061D01*
X55286Y42932D01*
X55371Y42821D01*
X55482Y42736D01*
X55508Y42725D01*
Y42675D01*
X55482Y42664D01*
X55371Y42579D01*
X55286Y42468D01*
X55258Y42401D01*
X54435D01*
X54377Y42477D01*
X54296Y42539D01*
X54201Y42578D01*
X54100Y42591D01*
X53999Y42578D01*
X53904Y42539D01*
X53823Y42477D01*
X53761Y42396D01*
X53722Y42301D01*
X53709Y42200D01*
X53722Y42099D01*
X53761Y42004D01*
X53823Y41923D01*
X53904Y41861D01*
X53999Y41822D01*
X54100Y41809D01*
X54201Y41822D01*
X54296Y41861D01*
X54377Y41923D01*
X54435Y41999D01*
X55258D01*
X55286Y41932D01*
X55371Y41821D01*
X55482Y41736D01*
X55611Y41682D01*
X55750Y41664D01*
X55889Y41682D01*
X56018Y41736D01*
X56129Y41821D01*
X56214Y41932D01*
X56225Y41958D01*
X56275D01*
X56286Y41932D01*
X56371Y41821D01*
X56482Y41736D01*
X56565Y41701D01*
Y41599D01*
X56387D01*
Y40910D01*
X57213D01*
Y41599D01*
X57047D01*
Y41758D01*
X57129Y41821D01*
X57214Y41932D01*
X57249Y42015D01*
X57487D01*
Y41932D01*
X58313D01*
Y42015D01*
X58537D01*
Y41932D01*
X59363D01*
Y42581D01*
X58537D01*
Y42497D01*
X58313D01*
Y42581D01*
X57487D01*
Y42497D01*
X57192D01*
X57129Y42579D01*
X57018Y42664D01*
X56992Y42675D01*
Y42725D01*
X57018Y42736D01*
X57129Y42821D01*
X57175Y42881D01*
X57225Y42884D01*
X57236Y42873D01*
X57314Y42821D01*
X57406Y42803D01*
X57487D01*
Y42719D01*
X58313D01*
Y43369D01*
X57487D01*
X57487Y43369D01*
Y43369D01*
X57441Y43350D01*
X57420Y43370D01*
X57342Y43423D01*
X57250Y43441D01*
X57226D01*
X57214Y43468D01*
X57129Y43579D01*
X57018Y43664D01*
X56992Y43675D01*
Y43725D01*
X57018Y43736D01*
X57129Y43821D01*
X57214Y43932D01*
X57226Y43959D01*
X58500D01*
X58709Y43750D01*
Y43369D01*
X58537D01*
Y42719D01*
X59363D01*
Y43369D01*
X59191D01*
Y43850D01*
X59173Y43942D01*
X59120Y44020D01*
X58770Y44370D01*
X58692Y44423D01*
X58600Y44441D01*
X57226D01*
X57214Y44468D01*
X57129Y44579D01*
X57018Y44664D01*
X56992Y44675D01*
Y44725D01*
X57018Y44736D01*
X57129Y44821D01*
X57214Y44932D01*
X57242Y44999D01*
X59367D01*
X59949Y44417D01*
Y41835D01*
X59873Y41777D01*
X59811Y41696D01*
X59772Y41601D01*
X59759Y41500D01*
X59772Y41399D01*
X59811Y41304D01*
X59873Y41223D01*
X59954Y41161D01*
X60049Y41122D01*
X60150Y41109D01*
X60251Y41122D01*
X60346Y41161D01*
X60427Y41223D01*
X60489Y41304D01*
X60528Y41399D01*
X60541Y41500D01*
X60528Y41601D01*
X60489Y41696D01*
X60427Y41777D01*
X60351Y41835D01*
Y44500D01*
X60338Y44564D01*
X60335Y44577D01*
X60292Y44642D01*
X59592Y45342D01*
X59527Y45385D01*
X59450Y45401D01*
X57242D01*
X57214Y45468D01*
X57129Y45579D01*
X57018Y45664D01*
X56889Y45718D01*
X56750Y45736D01*
D02*
G37*
G36*
X31050Y44350D02*
X30754D01*
X30759Y44309D01*
X30794Y44223D01*
X30850Y44150D01*
X30923Y44094D01*
X31009Y44059D01*
X31050Y44054D01*
Y44350D01*
D02*
G37*
G36*
X64350Y44011D02*
X64024D01*
Y43754D01*
X64350D01*
Y44011D01*
D02*
G37*
G36*
Y43654D02*
X64024D01*
Y43398D01*
X64350D01*
Y43654D01*
D02*
G37*
G36*
X31446Y44350D02*
X31150D01*
Y44054D01*
X31191Y44059D01*
X31277Y44094D01*
X31350Y44150D01*
X31406Y44223D01*
X31441Y44309D01*
X31446Y44350D01*
D02*
G37*
G36*
X40100Y44900D02*
X39804D01*
X39809Y44859D01*
X39844Y44773D01*
X39900Y44700D01*
X39973Y44644D01*
X40059Y44609D01*
X40100Y44604D01*
Y44900D01*
D02*
G37*
G36*
X31150Y44746D02*
Y44450D01*
X31446D01*
X31441Y44491D01*
X31406Y44577D01*
X31350Y44650D01*
X31277Y44706D01*
X31191Y44741D01*
X31150Y44746D01*
D02*
G37*
G36*
X31050D02*
X31009Y44741D01*
X30923Y44706D01*
X30850Y44650D01*
X30794Y44577D01*
X30759Y44491D01*
X30754Y44450D01*
X31050D01*
Y44746D01*
D02*
G37*
G36*
X15450Y47400D02*
X15154D01*
X15159Y47359D01*
X15194Y47273D01*
X15250Y47200D01*
X15323Y47144D01*
X15409Y47109D01*
X15450Y47104D01*
Y47400D01*
D02*
G37*
G36*
X11946D02*
X11650D01*
Y47104D01*
X11691Y47109D01*
X11777Y47144D01*
X11850Y47200D01*
X11906Y47273D01*
X11941Y47359D01*
X11946Y47400D01*
D02*
G37*
G36*
X11550D02*
X11254D01*
X11259Y47359D01*
X11294Y47273D01*
X11350Y47200D01*
X11423Y47144D01*
X11509Y47109D01*
X11550Y47104D01*
Y47400D01*
D02*
G37*
G36*
X15846D02*
X15550D01*
Y47104D01*
X15591Y47109D01*
X15677Y47144D01*
X15750Y47200D01*
X15806Y47273D01*
X15841Y47359D01*
X15846Y47400D01*
D02*
G37*
G36*
X31150Y47650D02*
X30854D01*
X30859Y47609D01*
X30894Y47523D01*
X30950Y47450D01*
X31023Y47394D01*
X31109Y47359D01*
X31150Y47354D01*
Y47650D01*
D02*
G37*
G36*
X20846Y47450D02*
X20550D01*
Y47154D01*
X20591Y47159D01*
X20677Y47194D01*
X20750Y47250D01*
X20806Y47323D01*
X20841Y47409D01*
X20846Y47450D01*
D02*
G37*
G36*
X20450D02*
X20154D01*
X20159Y47409D01*
X20194Y47323D01*
X20250Y47250D01*
X20323Y47194D01*
X20409Y47159D01*
X20450Y47154D01*
Y47450D01*
D02*
G37*
G36*
X63200Y46516D02*
X63066Y46499D01*
X62942Y46447D01*
X62835Y46365D01*
X62753Y46258D01*
X62746Y46241D01*
X62568D01*
Y46413D01*
X61919D01*
Y46081D01*
X61903Y46000D01*
X61919Y45919D01*
Y45587D01*
X62568D01*
Y45759D01*
X62746D01*
X62753Y45742D01*
X62835Y45635D01*
X62942Y45553D01*
X63054Y45507D01*
X63059Y45465D01*
X63057Y45454D01*
X62961Y45414D01*
X62862Y45338D01*
X62786Y45239D01*
X62738Y45124D01*
X62728Y45050D01*
X63672D01*
X63662Y45124D01*
X63614Y45239D01*
X63538Y45338D01*
X63439Y45414D01*
X63343Y45454D01*
X63341Y45465D01*
X63346Y45507D01*
X63458Y45553D01*
X63565Y45635D01*
X63647Y45742D01*
X63699Y45866D01*
X63716Y46000D01*
X63699Y46134D01*
X63647Y46258D01*
X63565Y46365D01*
X63458Y46447D01*
X63334Y46499D01*
X63200Y46516D01*
D02*
G37*
G36*
X36846Y46250D02*
X36550D01*
Y45954D01*
X36591Y45959D01*
X36677Y45994D01*
X36750Y46050D01*
X36806Y46123D01*
X36841Y46209D01*
X36846Y46250D01*
D02*
G37*
G36*
X36450D02*
X36154D01*
X36159Y46209D01*
X36194Y46123D01*
X36250Y46050D01*
X36323Y45994D01*
X36409Y45959D01*
X36450Y45954D01*
Y46250D01*
D02*
G37*
G36*
X37650Y46596D02*
X37609Y46591D01*
X37523Y46556D01*
X37450Y46500D01*
X37394Y46427D01*
X37359Y46341D01*
X37354Y46300D01*
X37650D01*
Y46596D01*
D02*
G37*
G36*
X36550Y46646D02*
Y46350D01*
X36846D01*
X36841Y46391D01*
X36806Y46477D01*
X36750Y46550D01*
X36677Y46606D01*
X36591Y46641D01*
X36550Y46646D01*
D02*
G37*
G36*
X36450D02*
X36409Y46641D01*
X36323Y46606D01*
X36250Y46550D01*
X36194Y46477D01*
X36159Y46391D01*
X36154Y46350D01*
X36450D01*
Y46646D01*
D02*
G37*
G36*
X37750Y46596D02*
Y46300D01*
X38046D01*
X38041Y46341D01*
X38006Y46427D01*
X37950Y46500D01*
X37877Y46556D01*
X37791Y46591D01*
X37750Y46596D01*
D02*
G37*
G36*
X50400Y53250D02*
X50104D01*
X50109Y53209D01*
X50144Y53123D01*
X50200Y53050D01*
X50273Y52994D01*
X50359Y52959D01*
X50400Y52954D01*
Y53250D01*
D02*
G37*
G36*
X25463Y53481D02*
X24637D01*
Y52832D01*
X25463D01*
Y52883D01*
X25563D01*
Y52868D01*
X26232D01*
Y53380D01*
X25563D01*
Y53365D01*
X25463D01*
Y53481D01*
D02*
G37*
G36*
X35950Y52846D02*
Y52550D01*
X36246D01*
X36241Y52591D01*
X36206Y52677D01*
X36150Y52750D01*
X36077Y52806D01*
X35991Y52841D01*
X35950Y52846D01*
D02*
G37*
G36*
X50796Y53250D02*
X50500D01*
Y52954D01*
X50541Y52959D01*
X50627Y52994D01*
X50700Y53050D01*
X50756Y53123D01*
X50791Y53209D01*
X50796Y53250D01*
D02*
G37*
G36*
X56896Y53450D02*
X56600D01*
Y53154D01*
X56641Y53159D01*
X56727Y53194D01*
X56800Y53250D01*
X56856Y53323D01*
X56891Y53409D01*
X56896Y53450D01*
D02*
G37*
G36*
X56500D02*
X56204D01*
X56209Y53409D01*
X56244Y53323D01*
X56300Y53250D01*
X56373Y53194D01*
X56459Y53159D01*
X56500Y53154D01*
Y53450D01*
D02*
G37*
G36*
X20796Y54086D02*
X20657Y54068D01*
X20528Y54014D01*
X20417Y53929D01*
X20332Y53818D01*
X20278Y53689D01*
X20260Y53550D01*
X20278Y53411D01*
X20332Y53282D01*
X20417Y53171D01*
X20528Y53086D01*
X20657Y53032D01*
X20796Y53014D01*
X20935Y53032D01*
X21064Y53086D01*
X21175Y53171D01*
X21260Y53282D01*
X21314Y53411D01*
X21332Y53550D01*
X21314Y53689D01*
X21260Y53818D01*
X21175Y53929D01*
X21064Y54014D01*
X20935Y54068D01*
X20796Y54086D01*
D02*
G37*
G36*
X11500Y52796D02*
X11459Y52791D01*
X11373Y52756D01*
X11300Y52700D01*
X11244Y52627D01*
X11209Y52541D01*
X11204Y52500D01*
X11500D01*
Y52796D01*
D02*
G37*
G36*
X26194Y52594D02*
X25947D01*
Y52426D01*
X26194D01*
Y52594D01*
D02*
G37*
G36*
X25847D02*
X25600D01*
Y52426D01*
X25847D01*
Y52594D01*
D02*
G37*
G36*
X11600Y52796D02*
Y52500D01*
X11896D01*
X11891Y52541D01*
X11856Y52627D01*
X11800Y52700D01*
X11727Y52756D01*
X11641Y52791D01*
X11600Y52796D01*
D02*
G37*
G36*
X35850Y52846D02*
X35809Y52841D01*
X35723Y52806D01*
X35650Y52750D01*
X35594Y52677D01*
X35559Y52591D01*
X35554Y52550D01*
X35850D01*
Y52846D01*
D02*
G37*
G36*
X32050D02*
Y52550D01*
X32346D01*
X32341Y52591D01*
X32306Y52677D01*
X32250Y52750D01*
X32177Y52806D01*
X32091Y52841D01*
X32050Y52846D01*
D02*
G37*
G36*
X31950D02*
X31909Y52841D01*
X31823Y52806D01*
X31750Y52750D01*
X31694Y52677D01*
X31659Y52591D01*
X31654Y52550D01*
X31950D01*
Y52846D01*
D02*
G37*
G36*
X45100Y55796D02*
Y55500D01*
X45396D01*
X45391Y55541D01*
X45356Y55627D01*
X45300Y55700D01*
X45227Y55756D01*
X45141Y55791D01*
X45100Y55796D01*
D02*
G37*
G36*
X45000D02*
X44959Y55791D01*
X44873Y55756D01*
X44800Y55700D01*
X44744Y55627D01*
X44709Y55541D01*
X44704Y55500D01*
X45000D01*
Y55796D01*
D02*
G37*
G36*
X45396Y55400D02*
X45100D01*
Y55104D01*
X45141Y55109D01*
X45227Y55144D01*
X45300Y55200D01*
X45356Y55273D01*
X45391Y55359D01*
X45396Y55400D01*
D02*
G37*
G36*
X15250Y56050D02*
X14954D01*
X14959Y56009D01*
X14994Y55923D01*
X15050Y55850D01*
X15123Y55794D01*
X15209Y55759D01*
X15250Y55754D01*
Y56050D01*
D02*
G37*
G36*
X15350Y56446D02*
Y56150D01*
X15646D01*
X15641Y56191D01*
X15606Y56277D01*
X15550Y56350D01*
X15477Y56406D01*
X15391Y56441D01*
X15350Y56446D01*
D02*
G37*
G36*
X15250D02*
X15209Y56441D01*
X15123Y56406D01*
X15050Y56350D01*
X14994Y56277D01*
X14959Y56191D01*
X14954Y56150D01*
X15250D01*
Y56446D01*
D02*
G37*
G36*
X15646Y56050D02*
X15350D01*
Y55754D01*
X15391Y55759D01*
X15477Y55794D01*
X15550Y55850D01*
X15606Y55923D01*
X15641Y56009D01*
X15646Y56050D01*
D02*
G37*
G36*
X56500Y53846D02*
X56459Y53841D01*
X56373Y53806D01*
X56300Y53750D01*
X56244Y53677D01*
X56209Y53591D01*
X56204Y53550D01*
X56500D01*
Y53846D01*
D02*
G37*
G36*
X50500Y53646D02*
Y53350D01*
X50796D01*
X50791Y53391D01*
X50756Y53477D01*
X50700Y53550D01*
X50627Y53606D01*
X50541Y53641D01*
X50500Y53646D01*
D02*
G37*
G36*
X50400D02*
X50359Y53641D01*
X50273Y53606D01*
X50200Y53550D01*
X50144Y53477D01*
X50109Y53391D01*
X50104Y53350D01*
X50400D01*
Y53646D01*
D02*
G37*
G36*
X56600Y53846D02*
Y53550D01*
X56896D01*
X56891Y53591D01*
X56856Y53677D01*
X56800Y53750D01*
X56727Y53806D01*
X56641Y53841D01*
X56600Y53846D01*
D02*
G37*
G36*
X45000Y55400D02*
X44704D01*
X44709Y55359D01*
X44744Y55273D01*
X44800Y55200D01*
X44873Y55144D01*
X44959Y55109D01*
X45000Y55104D01*
Y55400D01*
D02*
G37*
G36*
X62992Y56540D02*
X62770Y56522D01*
X62553Y56470D01*
X62347Y56385D01*
X62156Y56268D01*
X61987Y56123D01*
X61842Y55954D01*
X61725Y55764D01*
X61640Y55557D01*
X61588Y55341D01*
X61570Y55118D01*
X61588Y54896D01*
X61640Y54679D01*
X61725Y54473D01*
X61842Y54282D01*
X61987Y54113D01*
X62156Y53968D01*
X62347Y53851D01*
X62553Y53766D01*
X62770Y53714D01*
X62992Y53696D01*
X63215Y53714D01*
X63431Y53766D01*
X63638Y53851D01*
X63828Y53968D01*
X63997Y54113D01*
X64142Y54282D01*
X64259Y54473D01*
X64344Y54679D01*
X64396Y54896D01*
X64414Y55118D01*
X64396Y55341D01*
X64344Y55557D01*
X64259Y55764D01*
X64142Y55954D01*
X63997Y56123D01*
X63828Y56268D01*
X63638Y56385D01*
X63431Y56470D01*
X63215Y56522D01*
X62992Y56540D01*
D02*
G37*
G36*
X11811D02*
X11589Y56522D01*
X11372Y56470D01*
X11166Y56385D01*
X10975Y56268D01*
X10806Y56123D01*
X10661Y55954D01*
X10544Y55764D01*
X10459Y55557D01*
X10407Y55341D01*
X10389Y55118D01*
X10407Y54896D01*
X10459Y54679D01*
X10544Y54473D01*
X10661Y54282D01*
X10806Y54113D01*
X10975Y53968D01*
X11166Y53851D01*
X11372Y53766D01*
X11589Y53714D01*
X11811Y53696D01*
X12033Y53714D01*
X12250Y53766D01*
X12456Y53851D01*
X12647Y53968D01*
X12816Y54113D01*
X12961Y54282D01*
X13078Y54473D01*
X13163Y54679D01*
X13215Y54896D01*
X13233Y55118D01*
X13215Y55341D01*
X13163Y55557D01*
X13078Y55764D01*
X12961Y55954D01*
X12816Y56123D01*
X12647Y56268D01*
X12456Y56385D01*
X12250Y56470D01*
X12033Y56522D01*
X11811Y56540D01*
D02*
G37*
G36*
X46704Y51900D02*
X46448D01*
Y51574D01*
X46704D01*
Y51900D01*
D02*
G37*
G36*
X18392Y51694D02*
X18224D01*
Y51447D01*
X18392D01*
Y51694D01*
D02*
G37*
G36*
X18124D02*
X17956D01*
Y51447D01*
X18124D01*
Y51694D01*
D02*
G37*
G36*
X47061Y51900D02*
X46804D01*
Y51574D01*
X47061D01*
Y51900D01*
D02*
G37*
G36*
X25700Y52046D02*
X25659Y52041D01*
X25573Y52006D01*
X25500Y51950D01*
X25444Y51877D01*
X25409Y51791D01*
X25404Y51750D01*
X25700D01*
Y52046D01*
D02*
G37*
G36*
X44996Y51900D02*
X44700D01*
Y51604D01*
X44741Y51609D01*
X44827Y51644D01*
X44900Y51700D01*
X44956Y51773D01*
X44991Y51859D01*
X44996Y51900D01*
D02*
G37*
G36*
X44600D02*
X44304D01*
X44309Y51859D01*
X44344Y51773D01*
X44400Y51700D01*
X44473Y51644D01*
X44559Y51609D01*
X44600Y51604D01*
Y51900D01*
D02*
G37*
G36*
X46952Y50991D02*
Y50550D01*
X47340D01*
Y50559D01*
X47325Y50673D01*
X47281Y50778D01*
X47212Y50869D01*
X47121Y50939D01*
X47015Y50983D01*
X46952Y50991D01*
D02*
G37*
G36*
X46852D02*
X46788Y50983D01*
X46682Y50939D01*
X46592Y50869D01*
X46522Y50778D01*
X46478Y50673D01*
X46463Y50559D01*
Y50550D01*
X46852D01*
Y50991D01*
D02*
G37*
G36*
X20550Y50346D02*
Y50050D01*
X20846D01*
X20841Y50091D01*
X20806Y50177D01*
X20750Y50250D01*
X20677Y50306D01*
X20591Y50341D01*
X20550Y50346D01*
D02*
G37*
G36*
X18124Y51347D02*
X17956D01*
Y51100D01*
X18124D01*
Y51347D01*
D02*
G37*
G36*
X26096Y51650D02*
X25800D01*
Y51354D01*
X25841Y51359D01*
X25927Y51394D01*
X26000Y51450D01*
X26056Y51523D01*
X26091Y51609D01*
X26096Y51650D01*
D02*
G37*
G36*
X25700D02*
X25404D01*
X25409Y51609D01*
X25444Y51523D01*
X25500Y51450D01*
X25573Y51394D01*
X25659Y51359D01*
X25700Y51354D01*
Y51650D01*
D02*
G37*
G36*
X18392Y51347D02*
X18224D01*
Y51100D01*
X18392D01*
Y51347D01*
D02*
G37*
G36*
X32346Y52450D02*
X32050D01*
Y52154D01*
X32091Y52159D01*
X32177Y52194D01*
X32250Y52250D01*
X32306Y52323D01*
X32341Y52409D01*
X32346Y52450D01*
D02*
G37*
G36*
X31950D02*
X31654D01*
X31659Y52409D01*
X31694Y52323D01*
X31750Y52250D01*
X31823Y52194D01*
X31909Y52159D01*
X31950Y52154D01*
Y52450D01*
D02*
G37*
G36*
X11896Y52400D02*
X11600D01*
Y52104D01*
X11641Y52109D01*
X11727Y52144D01*
X11800Y52200D01*
X11856Y52273D01*
X11891Y52359D01*
X11896Y52400D01*
D02*
G37*
G36*
X35850Y52450D02*
X35554D01*
X35559Y52409D01*
X35594Y52323D01*
X35650Y52250D01*
X35723Y52194D01*
X35809Y52159D01*
X35850Y52154D01*
Y52450D01*
D02*
G37*
G36*
X26194Y52326D02*
X25947D01*
Y52158D01*
X26194D01*
Y52326D01*
D02*
G37*
G36*
X25847D02*
X25600D01*
Y52158D01*
X25847D01*
Y52326D01*
D02*
G37*
G36*
X36246Y52450D02*
X35950D01*
Y52154D01*
X35991Y52159D01*
X36077Y52194D01*
X36150Y52250D01*
X36206Y52323D01*
X36241Y52409D01*
X36246Y52450D01*
D02*
G37*
G36*
X44600Y52296D02*
X44559Y52291D01*
X44473Y52256D01*
X44400Y52200D01*
X44344Y52127D01*
X44309Y52041D01*
X44304Y52000D01*
X44600D01*
Y52296D01*
D02*
G37*
G36*
X17804Y54086D02*
X17665Y54068D01*
X17536Y54014D01*
X17425Y53929D01*
X17340Y53818D01*
X17286Y53689D01*
X17268Y53550D01*
X17286Y53411D01*
X17340Y53282D01*
X17425Y53171D01*
X17536Y53086D01*
X17563Y53074D01*
Y52637D01*
X17544D01*
Y51968D01*
X18056D01*
Y52637D01*
X18045D01*
Y53074D01*
X18072Y53086D01*
X18183Y53171D01*
X18268Y53282D01*
X18322Y53411D01*
X18340Y53550D01*
X18322Y53689D01*
X18268Y53818D01*
X18183Y53929D01*
X18072Y54014D01*
X17943Y54068D01*
X17804Y54086D01*
D02*
G37*
G36*
X25800Y52046D02*
Y51750D01*
X26096D01*
X26091Y51791D01*
X26056Y51877D01*
X26000Y51950D01*
X25927Y52006D01*
X25841Y52041D01*
X25800Y52046D01*
D02*
G37*
G36*
X44700Y52296D02*
Y52000D01*
X44996D01*
X44991Y52041D01*
X44956Y52127D01*
X44900Y52200D01*
X44827Y52256D01*
X44741Y52291D01*
X44700Y52296D01*
D02*
G37*
G36*
X11500Y52400D02*
X11204D01*
X11209Y52359D01*
X11244Y52273D01*
X11300Y52200D01*
X11373Y52144D01*
X11459Y52109D01*
X11500Y52104D01*
Y52400D01*
D02*
G37*
G36*
X47061Y52326D02*
X46804D01*
Y52000D01*
X47061D01*
Y52326D01*
D02*
G37*
G36*
X46704D02*
X46448D01*
Y52000D01*
X46704D01*
Y52326D01*
D02*
G37*
G36*
X28400Y37396D02*
X28359Y37391D01*
X28273Y37356D01*
X28200Y37300D01*
X28144Y37227D01*
X28109Y37141D01*
X28104Y37100D01*
X28400D01*
Y37396D01*
D02*
G37*
G36*
X38146Y37350D02*
X37850D01*
Y37054D01*
X37891Y37059D01*
X37977Y37094D01*
X38050Y37150D01*
X38106Y37223D01*
X38141Y37309D01*
X38146Y37350D01*
D02*
G37*
G36*
X37750D02*
X37454D01*
X37459Y37309D01*
X37494Y37223D01*
X37550Y37150D01*
X37623Y37094D01*
X37709Y37059D01*
X37750Y37054D01*
Y37350D01*
D02*
G37*
G36*
X28500Y37396D02*
Y37100D01*
X28796D01*
X28791Y37141D01*
X28756Y37227D01*
X28700Y37300D01*
X28627Y37356D01*
X28541Y37391D01*
X28500Y37396D01*
D02*
G37*
G36*
X38646Y37650D02*
X38389D01*
Y37324D01*
X38646D01*
Y37650D01*
D02*
G37*
G36*
X56610Y37372D02*
X56345D01*
Y37200D01*
X56822D01*
X56815Y37235D01*
X56767Y37307D01*
X56695Y37355D01*
X56610Y37372D01*
D02*
G37*
G36*
X56245D02*
X55980D01*
X55895Y37355D01*
X55823Y37307D01*
X55774Y37235D01*
X55767Y37200D01*
X56245D01*
Y37372D01*
D02*
G37*
G36*
X56610Y36872D02*
X56345D01*
Y36700D01*
X56822D01*
X56815Y36735D01*
X56767Y36807D01*
X56695Y36855D01*
X56610Y36872D01*
D02*
G37*
G36*
X56245D02*
X55980D01*
X55895Y36855D01*
X55823Y36807D01*
X55774Y36735D01*
X55767Y36700D01*
X56245D01*
Y36872D01*
D02*
G37*
G36*
X56822Y36600D02*
X56345D01*
Y36428D01*
X56610D01*
X56695Y36445D01*
X56767Y36493D01*
X56815Y36565D01*
X56822Y36600D01*
D02*
G37*
G36*
X28400Y37000D02*
X28104D01*
X28109Y36959D01*
X28144Y36873D01*
X28200Y36800D01*
X28273Y36744D01*
X28359Y36709D01*
X28400Y36704D01*
Y37000D01*
D02*
G37*
G36*
X56822Y37100D02*
X56345D01*
Y36928D01*
X56610D01*
X56695Y36945D01*
X56767Y36993D01*
X56815Y37065D01*
X56822Y37100D01*
D02*
G37*
G36*
X56245D02*
X55767D01*
X55774Y37065D01*
X55823Y36993D01*
X55895Y36945D01*
X55980Y36928D01*
X56245D01*
Y37100D01*
D02*
G37*
G36*
X28796Y37000D02*
X28500D01*
Y36704D01*
X28541Y36709D01*
X28627Y36744D01*
X28700Y36800D01*
X28756Y36873D01*
X28791Y36959D01*
X28796Y37000D01*
D02*
G37*
G36*
X38646Y38076D02*
X38389D01*
Y37750D01*
X38646D01*
Y38076D01*
D02*
G37*
G36*
X37426Y37996D02*
X37100D01*
Y37739D01*
X37426D01*
Y37996D01*
D02*
G37*
G36*
X37000D02*
X36674D01*
Y37739D01*
X37000D01*
Y37996D01*
D02*
G37*
G36*
X56245Y38100D02*
X55767D01*
X55774Y38065D01*
X55823Y37993D01*
X55895Y37945D01*
X55980Y37928D01*
X56245D01*
Y38100D01*
D02*
G37*
G36*
X37000Y38352D02*
X36674D01*
Y38096D01*
X37000D01*
Y38352D01*
D02*
G37*
G36*
X53700Y39091D02*
X53599Y39078D01*
X53504Y39039D01*
X53423Y38977D01*
X53361Y38896D01*
X53322Y38801D01*
X53309Y38700D01*
X53322Y38599D01*
X53355Y38519D01*
X53332Y38468D01*
X52587D01*
Y37991D01*
X52413D01*
Y38068D01*
X52201D01*
Y38215D01*
X52277Y38273D01*
X52339Y38354D01*
X52378Y38449D01*
X52391Y38550D01*
X52378Y38651D01*
X52339Y38746D01*
X52277Y38827D01*
X52196Y38889D01*
X52101Y38928D01*
X52000Y38941D01*
X51899Y38928D01*
X51804Y38889D01*
X51723Y38827D01*
X51661Y38746D01*
X51622Y38651D01*
X51609Y38550D01*
X51622Y38449D01*
X51661Y38354D01*
X51723Y38273D01*
X51799Y38215D01*
Y38068D01*
X51587D01*
Y37419D01*
X52413D01*
Y37509D01*
X52587D01*
Y37197D01*
X52413D01*
Y37281D01*
X51587D01*
Y36632D01*
X52413D01*
Y36715D01*
X53144D01*
X53380Y36480D01*
X53458Y36427D01*
X53550Y36409D01*
X54003D01*
X54023Y36401D01*
X54090Y36392D01*
X54164D01*
Y35895D01*
X54183Y35803D01*
X54235Y35725D01*
X54430Y35530D01*
X54508Y35477D01*
X54600Y35459D01*
X54651D01*
Y35287D01*
X54755D01*
Y34445D01*
X54432Y34123D01*
X54380Y34045D01*
X54362Y33953D01*
Y32730D01*
X54268D01*
Y32509D01*
X54078Y32319D01*
X54032Y32338D01*
Y32356D01*
X53363D01*
Y32341D01*
X53218D01*
Y32513D01*
X53094D01*
Y33509D01*
X53170Y33567D01*
X53232Y33648D01*
X53272Y33742D01*
X53285Y33844D01*
X53272Y33945D01*
X53232Y34039D01*
X53170Y34120D01*
X53089Y34182D01*
X52995Y34222D01*
X52894Y34235D01*
X52792Y34222D01*
X52698Y34182D01*
X52617Y34120D01*
X52555Y34039D01*
X52516Y33945D01*
X52503Y33844D01*
X52516Y33742D01*
X52555Y33648D01*
X52617Y33567D01*
X52693Y33509D01*
Y32513D01*
X52569D01*
Y31687D01*
X53218D01*
Y31859D01*
X53363D01*
Y31844D01*
X53838D01*
X53857Y31798D01*
X53636Y31577D01*
X53584Y31498D01*
X53565Y31406D01*
Y31263D01*
X53481D01*
Y30437D01*
Y29627D01*
X54918D01*
Y29715D01*
X55187D01*
Y29632D01*
X55472D01*
X55737Y29366D01*
Y28969D01*
X56563D01*
Y29618D01*
X56166D01*
X56013Y29771D01*
Y30281D01*
X55187D01*
Y30197D01*
X54918D01*
Y30437D01*
Y30609D01*
X55000D01*
X55036Y30573D01*
X55114Y30521D01*
X55187Y30507D01*
Y30419D01*
X56013D01*
Y31068D01*
X55198D01*
X55192Y31073D01*
X55100Y31091D01*
X54918D01*
Y31263D01*
X54835D01*
Y31470D01*
X54937D01*
Y31982D01*
X54488D01*
X54469Y32028D01*
X54659Y32218D01*
X54937D01*
Y32233D01*
X56026D01*
X57480Y30780D01*
X57558Y30727D01*
X57650Y30709D01*
X62796D01*
X62803Y30692D01*
X62885Y30585D01*
X62992Y30503D01*
X63116Y30451D01*
X63250Y30434D01*
X63384Y30451D01*
X63508Y30503D01*
X63615Y30585D01*
X63697Y30692D01*
X63749Y30816D01*
X63766Y30950D01*
X63749Y31084D01*
X63697Y31208D01*
X63615Y31315D01*
X63508Y31397D01*
X63446Y31423D01*
Y31477D01*
X63508Y31503D01*
X63615Y31585D01*
X63697Y31692D01*
X63749Y31816D01*
X63766Y31950D01*
X63749Y32084D01*
X63697Y32208D01*
X63615Y32315D01*
X63508Y32397D01*
X63446Y32423D01*
Y32477D01*
X63508Y32503D01*
X63615Y32585D01*
X63697Y32692D01*
X63749Y32816D01*
X63766Y32950D01*
X63749Y33084D01*
X63697Y33208D01*
X63615Y33315D01*
X63508Y33397D01*
X63396Y33443D01*
X63391Y33485D01*
X63393Y33496D01*
X63489Y33536D01*
X63588Y33612D01*
X63664Y33711D01*
X63712Y33826D01*
X63722Y33900D01*
X62778D01*
X62788Y33826D01*
X62836Y33711D01*
X62912Y33612D01*
X63011Y33536D01*
X63107Y33496D01*
X63109Y33485D01*
X63104Y33443D01*
X62992Y33397D01*
X62885Y33315D01*
X62803Y33208D01*
X62796Y33191D01*
X60619D01*
Y33363D01*
X59969D01*
Y32537D01*
X60619D01*
Y32709D01*
X62796D01*
X62803Y32692D01*
X62885Y32585D01*
X62992Y32503D01*
X63054Y32477D01*
Y32423D01*
X62992Y32397D01*
X62885Y32315D01*
X62803Y32208D01*
X62796Y32191D01*
X62069D01*
Y32363D01*
X61419D01*
Y31537D01*
X62069D01*
Y31709D01*
X62796D01*
X62803Y31692D01*
X62885Y31585D01*
X62992Y31503D01*
X63054Y31477D01*
Y31423D01*
X62992Y31397D01*
X62885Y31315D01*
X62803Y31208D01*
X62796Y31191D01*
X59901D01*
X59884Y31241D01*
X59927Y31273D01*
X59985Y31349D01*
X60556D01*
X60633Y31365D01*
X60698Y31408D01*
X60827Y31537D01*
X61281D01*
Y32363D01*
X60631D01*
Y31909D01*
X60473Y31751D01*
X59985D01*
X59927Y31827D01*
X59846Y31889D01*
X59751Y31928D01*
X59650Y31941D01*
X59549Y31928D01*
X59454Y31889D01*
X59373Y31827D01*
X59311Y31746D01*
X59272Y31651D01*
X59259Y31550D01*
X59272Y31449D01*
X59311Y31354D01*
X59373Y31273D01*
X59416Y31241D01*
X59399Y31191D01*
X57750D01*
X56296Y32644D01*
X56218Y32697D01*
X56126Y32715D01*
X54937D01*
Y32730D01*
X54844D01*
Y33853D01*
X55166Y34175D01*
X55218Y34253D01*
X55237Y34346D01*
Y35287D01*
X55340D01*
Y36113D01*
X54651D01*
X54646Y36161D01*
Y36392D01*
X54720D01*
X54787Y36401D01*
X54849Y36426D01*
X54903Y36467D01*
X54944Y36521D01*
X54969Y36583D01*
X54978Y36650D01*
X54969Y36717D01*
X54944Y36779D01*
X54903Y36833D01*
X54849Y36874D01*
X54802Y36893D01*
X54805Y36938D01*
X54806Y36945D01*
X54877Y36993D01*
X54926Y37065D01*
X54933Y37100D01*
X53878D01*
X53885Y37065D01*
X53933Y36993D01*
X53967Y36970D01*
X53973Y36906D01*
X53958Y36891D01*
X53650D01*
X53414Y37127D01*
X53413Y37127D01*
Y37509D01*
X53500D01*
X53530Y37480D01*
X53608Y37427D01*
X53700Y37409D01*
X53958D01*
X53973Y37394D01*
X53967Y37330D01*
X53933Y37307D01*
X53885Y37235D01*
X53878Y37200D01*
X54933D01*
X54926Y37235D01*
X54877Y37307D01*
X54806Y37355D01*
X54805Y37362D01*
X54802Y37407D01*
X54849Y37426D01*
X54903Y37467D01*
X54944Y37521D01*
X54969Y37583D01*
X54978Y37650D01*
X54969Y37717D01*
X54944Y37779D01*
X54903Y37833D01*
X54849Y37874D01*
Y37926D01*
X54903Y37967D01*
X54944Y38021D01*
X54969Y38083D01*
X54978Y38150D01*
X54969Y38217D01*
X54944Y38279D01*
X54903Y38333D01*
X54849Y38374D01*
X54787Y38399D01*
X54720Y38408D01*
X54090D01*
X54023Y38399D01*
X54020Y38398D01*
X53991Y38435D01*
X53990Y38441D01*
X54039Y38504D01*
X54078Y38599D01*
X54091Y38700D01*
X54078Y38801D01*
X54039Y38896D01*
X53977Y38977D01*
X53896Y39039D01*
X53801Y39078D01*
X53700Y39091D01*
D02*
G37*
G36*
X56822Y38100D02*
X56345D01*
Y37928D01*
X56610D01*
X56695Y37945D01*
X56767Y37993D01*
X56815Y38065D01*
X56822Y38100D01*
D02*
G37*
G36*
Y37600D02*
X56345D01*
Y37428D01*
X56610D01*
X56695Y37445D01*
X56767Y37493D01*
X56815Y37565D01*
X56822Y37600D01*
D02*
G37*
G36*
X56245D02*
X55767D01*
X55774Y37565D01*
X55823Y37493D01*
X55895Y37445D01*
X55980Y37428D01*
X56245D01*
Y37600D01*
D02*
G37*
G36*
X39002Y37650D02*
X38746D01*
Y37324D01*
X39002D01*
Y37650D01*
D02*
G37*
G36*
X37750Y37746D02*
X37709Y37741D01*
X37623Y37706D01*
X37550Y37650D01*
X37494Y37577D01*
X37459Y37491D01*
X37454Y37450D01*
X37750D01*
Y37746D01*
D02*
G37*
G36*
X56610Y37872D02*
X56345D01*
Y37700D01*
X56822D01*
X56815Y37735D01*
X56767Y37807D01*
X56695Y37855D01*
X56610Y37872D01*
D02*
G37*
G36*
X56245D02*
X55980D01*
X55895Y37855D01*
X55823Y37807D01*
X55774Y37735D01*
X55767Y37700D01*
X56245D01*
Y37872D01*
D02*
G37*
G36*
X37850Y37746D02*
Y37450D01*
X38146D01*
X38141Y37491D01*
X38106Y37577D01*
X38050Y37650D01*
X37977Y37706D01*
X37891Y37741D01*
X37850Y37746D01*
D02*
G37*
G36*
X30796Y34950D02*
X30500D01*
Y34654D01*
X30541Y34659D01*
X30627Y34694D01*
X30700Y34750D01*
X30756Y34823D01*
X30791Y34909D01*
X30796Y34950D01*
D02*
G37*
G36*
X59781Y36313D02*
X59131D01*
Y35487D01*
X59299D01*
Y34585D01*
X59223Y34527D01*
X59161Y34446D01*
X59122Y34351D01*
X59109Y34250D01*
X59122Y34149D01*
X59161Y34054D01*
X59223Y33973D01*
X59304Y33911D01*
X59399Y33872D01*
X59500Y33859D01*
X59601Y33872D01*
X59696Y33911D01*
X59777Y33973D01*
X59817Y34027D01*
X59821Y34028D01*
X59879Y34025D01*
X59923Y33967D01*
X60004Y33905D01*
X60099Y33866D01*
X60200Y33853D01*
X60301Y33866D01*
X60396Y33905D01*
X60477Y33967D01*
X60539Y34048D01*
X60578Y34142D01*
X60591Y34244D01*
X60578Y34345D01*
X60539Y34439D01*
X60477Y34520D01*
X60437Y34550D01*
X60434Y34600D01*
X60581Y34748D01*
X60631Y34745D01*
Y34537D01*
X61281D01*
Y35363D01*
X60631D01*
Y35151D01*
X60500D01*
X60423Y35135D01*
X60358Y35092D01*
X60058Y34792D01*
X60015Y34727D01*
X59999Y34650D01*
Y34578D01*
X59923Y34520D01*
X59883Y34467D01*
X59879Y34465D01*
X59821Y34468D01*
X59777Y34527D01*
X59701Y34585D01*
Y35487D01*
X59781D01*
Y36313D01*
D02*
G37*
G36*
X35702Y34850D02*
X35446D01*
Y34524D01*
X35702D01*
Y34850D01*
D02*
G37*
G36*
X35346Y35276D02*
X35089D01*
Y34950D01*
X35346D01*
Y35276D01*
D02*
G37*
G36*
X55654Y35650D02*
X55398D01*
Y35324D01*
X55654D01*
Y35650D01*
D02*
G37*
G36*
X30500Y35346D02*
Y35050D01*
X30796D01*
X30791Y35091D01*
X30756Y35177D01*
X30700Y35250D01*
X30627Y35306D01*
X30541Y35341D01*
X30500Y35346D01*
D02*
G37*
G36*
X35702Y35276D02*
X35446D01*
Y34950D01*
X35702D01*
Y35276D01*
D02*
G37*
G36*
X41850Y34596D02*
X41809Y34591D01*
X41723Y34556D01*
X41650Y34500D01*
X41594Y34427D01*
X41559Y34341D01*
X41554Y34300D01*
X41850D01*
Y34596D01*
D02*
G37*
G36*
X29246Y34300D02*
X28950D01*
Y34004D01*
X28991Y34009D01*
X29077Y34044D01*
X29150Y34100D01*
X29206Y34173D01*
X29241Y34259D01*
X29246Y34300D01*
D02*
G37*
G36*
X28850D02*
X28554D01*
X28559Y34259D01*
X28594Y34173D01*
X28650Y34100D01*
X28723Y34044D01*
X28809Y34009D01*
X28850Y34004D01*
Y34300D01*
D02*
G37*
G36*
X41950Y34596D02*
Y34300D01*
X42246D01*
X42241Y34341D01*
X42206Y34427D01*
X42150Y34500D01*
X42077Y34556D01*
X41991Y34591D01*
X41950Y34596D01*
D02*
G37*
G36*
X35346Y34850D02*
X35089D01*
Y34524D01*
X35346D01*
Y34850D01*
D02*
G37*
G36*
X28950Y34696D02*
Y34400D01*
X29246D01*
X29241Y34441D01*
X29206Y34527D01*
X29150Y34600D01*
X29077Y34656D01*
X28991Y34691D01*
X28950Y34696D01*
D02*
G37*
G36*
X28850D02*
X28809Y34691D01*
X28723Y34656D01*
X28650Y34600D01*
X28594Y34527D01*
X28559Y34441D01*
X28554Y34400D01*
X28850D01*
Y34696D01*
D02*
G37*
G36*
X38396Y36326D02*
X38139D01*
Y36000D01*
X38396D01*
Y36326D01*
D02*
G37*
G36*
X35850Y36152D02*
X35524D01*
Y35896D01*
X35850D01*
Y36152D01*
D02*
G37*
G36*
X36313Y36899D02*
X35487D01*
Y36210D01*
X36313D01*
Y36343D01*
X36445D01*
X36461Y36304D01*
X36523Y36223D01*
X36604Y36161D01*
X36664Y36137D01*
X36657Y36085D01*
X36599Y36078D01*
X36504Y36039D01*
X36423Y35977D01*
X36361Y35896D01*
X36322Y35801D01*
X36276Y35813D01*
Y36152D01*
X35950D01*
Y35846D01*
Y35539D01*
X36090D01*
X36109Y35493D01*
X35962Y35346D01*
X35940Y35313D01*
X35760D01*
Y34487D01*
X37031D01*
Y35313D01*
X36921D01*
X36898Y35358D01*
X36898Y35363D01*
X36977Y35423D01*
X36992Y35443D01*
X37037Y35431D01*
Y35431D01*
X37037Y35431D01*
X37863D01*
Y36081D01*
X37037D01*
Y35967D01*
X36987Y35963D01*
X36977Y35977D01*
X36896Y36039D01*
X36836Y36063D01*
X36843Y36115D01*
X36901Y36122D01*
X36996Y36161D01*
X37071Y36219D01*
X37863D01*
Y36869D01*
X37037D01*
Y36863D01*
X36987Y36842D01*
X36901Y36878D01*
X36800Y36891D01*
X36699Y36878D01*
X36604Y36839D01*
X36523Y36777D01*
X36499Y36744D01*
X36313D01*
Y36899D01*
D02*
G37*
G36*
X38752Y36326D02*
X38496D01*
Y36000D01*
X38752D01*
Y36326D01*
D02*
G37*
G36*
X56245Y36600D02*
X55767D01*
X55774Y36565D01*
X55823Y36493D01*
X55895Y36445D01*
X55980Y36428D01*
X56245D01*
Y36600D01*
D02*
G37*
G36*
X63250Y36466D02*
X63116Y36449D01*
X62992Y36397D01*
X62885Y36315D01*
X62803Y36208D01*
X62775Y36141D01*
X60568D01*
Y36313D01*
X59919D01*
Y35487D01*
X60568D01*
Y35659D01*
X62828D01*
X62885Y35585D01*
X62992Y35503D01*
X63054Y35477D01*
Y35423D01*
X62992Y35397D01*
X62885Y35315D01*
X62803Y35208D01*
X62796Y35191D01*
X62069D01*
Y35363D01*
X61419D01*
Y34537D01*
X62069D01*
Y34709D01*
X62796D01*
X62803Y34692D01*
X62885Y34585D01*
X62992Y34503D01*
X63104Y34457D01*
X63109Y34415D01*
X63107Y34404D01*
X63011Y34364D01*
X62912Y34288D01*
X62836Y34189D01*
X62788Y34074D01*
X62778Y34000D01*
X63722D01*
X63712Y34074D01*
X63664Y34189D01*
X63588Y34288D01*
X63489Y34364D01*
X63393Y34404D01*
X63391Y34415D01*
X63396Y34457D01*
X63508Y34503D01*
X63615Y34585D01*
X63697Y34692D01*
X63749Y34816D01*
X63766Y34950D01*
X63749Y35084D01*
X63697Y35208D01*
X63615Y35315D01*
X63508Y35397D01*
X63446Y35423D01*
Y35477D01*
X63508Y35503D01*
X63615Y35585D01*
X63697Y35692D01*
X63749Y35816D01*
X63766Y35950D01*
X63749Y36084D01*
X63697Y36208D01*
X63615Y36315D01*
X63508Y36397D01*
X63384Y36449D01*
X63250Y36466D01*
D02*
G37*
G36*
X40911Y36326D02*
X40654D01*
Y36000D01*
X40911D01*
Y36326D01*
D02*
G37*
G36*
X38396Y35900D02*
X38139D01*
Y35574D01*
X38396D01*
Y35900D01*
D02*
G37*
G36*
X35850Y35796D02*
X35524D01*
Y35539D01*
X35850D01*
Y35796D01*
D02*
G37*
G36*
X56011Y35650D02*
X55754D01*
Y35324D01*
X56011D01*
Y35650D01*
D02*
G37*
G36*
X38752Y35900D02*
X38496D01*
Y35574D01*
X38752D01*
Y35900D01*
D02*
G37*
G36*
X56011Y36076D02*
X55754D01*
Y35750D01*
X56011D01*
Y36076D01*
D02*
G37*
G36*
X55654D02*
X55398D01*
Y35750D01*
X55654D01*
Y36076D01*
D02*
G37*
G36*
X40911Y35900D02*
X40654D01*
Y35574D01*
X40911D01*
Y35900D01*
D02*
G37*
G36*
X42250Y41852D02*
X41924D01*
Y41694D01*
X41874Y41669D01*
X41827Y41706D01*
X41741Y41741D01*
X41700Y41746D01*
Y41400D01*
Y41054D01*
X41741Y41059D01*
X41827Y41094D01*
X41900Y41150D01*
X41956Y41223D01*
X41962Y41239D01*
X42250D01*
Y41546D01*
Y41852D01*
D02*
G37*
G36*
X42676D02*
X42350D01*
Y41596D01*
X42676D01*
Y41852D01*
D02*
G37*
G36*
X41600Y41746D02*
X41559Y41741D01*
X41473Y41706D01*
X41400Y41650D01*
X41344Y41577D01*
X41309Y41491D01*
X41304Y41450D01*
X41600D01*
Y41746D01*
D02*
G37*
G36*
X51600Y42150D02*
X51304D01*
X51309Y42109D01*
X51344Y42023D01*
X51400Y41950D01*
X51473Y41894D01*
X51559Y41859D01*
X51600Y41854D01*
Y42150D01*
D02*
G37*
G36*
X51700Y42546D02*
Y42250D01*
X51996D01*
X51991Y42291D01*
X51956Y42377D01*
X51900Y42450D01*
X51827Y42506D01*
X51741Y42541D01*
X51700Y42546D01*
D02*
G37*
G36*
X51600D02*
X51559Y42541D01*
X51473Y42506D01*
X51400Y42450D01*
X51344Y42377D01*
X51309Y42291D01*
X51304Y42250D01*
X51600D01*
Y42546D01*
D02*
G37*
G36*
X51996Y42150D02*
X51700D01*
Y41854D01*
X51741Y41859D01*
X51827Y41894D01*
X51900Y41950D01*
X51956Y42023D01*
X51991Y42109D01*
X51996Y42150D01*
D02*
G37*
G36*
X26800Y41346D02*
X26474D01*
Y41089D01*
X26800D01*
Y41346D01*
D02*
G37*
G36*
X41600Y41350D02*
X41304D01*
X41309Y41309D01*
X41344Y41223D01*
X41400Y41150D01*
X41473Y41094D01*
X41559Y41059D01*
X41600Y41054D01*
Y41350D01*
D02*
G37*
G36*
X57176Y40852D02*
X56850D01*
Y40596D01*
X57176D01*
Y40852D01*
D02*
G37*
G36*
X27226Y41346D02*
X26900D01*
Y41089D01*
X27226D01*
Y41346D01*
D02*
G37*
G36*
Y41702D02*
X26900D01*
Y41446D01*
X27226D01*
Y41702D01*
D02*
G37*
G36*
X26800D02*
X26474D01*
Y41446D01*
X26800D01*
Y41702D01*
D02*
G37*
G36*
X42676Y41496D02*
X42350D01*
Y41239D01*
X42676D01*
Y41496D01*
D02*
G37*
G36*
X33700Y43346D02*
Y43050D01*
X33996D01*
X33991Y43091D01*
X33956Y43177D01*
X33900Y43250D01*
X33827Y43306D01*
X33741Y43341D01*
X33700Y43346D01*
D02*
G37*
G36*
X33600D02*
X33559Y43341D01*
X33473Y43306D01*
X33400Y43250D01*
X33344Y43177D01*
X33309Y43091D01*
X33304Y43050D01*
X33600D01*
Y43346D01*
D02*
G37*
G36*
X39712Y43100D02*
X39350D01*
Y42738D01*
X39408Y42746D01*
X39509Y42788D01*
X39596Y42854D01*
X39662Y42941D01*
X39704Y43042D01*
X39712Y43100D01*
D02*
G37*
G36*
X35200Y43346D02*
X35159Y43341D01*
X35073Y43306D01*
X35000Y43250D01*
X34944Y43177D01*
X34909Y43091D01*
X34904Y43050D01*
X35200D01*
Y43346D01*
D02*
G37*
G36*
X39350Y43562D02*
Y43200D01*
X39712D01*
X39704Y43258D01*
X39662Y43359D01*
X39596Y43446D01*
X39509Y43512D01*
X39408Y43554D01*
X39350Y43562D01*
D02*
G37*
G36*
X39250D02*
X39192Y43554D01*
X39091Y43512D01*
X39004Y43446D01*
X38938Y43359D01*
X38896Y43258D01*
X38888Y43200D01*
X39250D01*
Y43562D01*
D02*
G37*
G36*
X35300Y43346D02*
Y43050D01*
X35596D01*
X35591Y43091D01*
X35556Y43177D01*
X35500Y43250D01*
X35427Y43306D01*
X35341Y43341D01*
X35300Y43346D01*
D02*
G37*
G36*
X35200Y42950D02*
X34904D01*
X34909Y42909D01*
X34944Y42823D01*
X35000Y42750D01*
X35073Y42694D01*
X35159Y42659D01*
X35200Y42654D01*
Y42950D01*
D02*
G37*
G36*
X33996D02*
X33700D01*
Y42654D01*
X33741Y42659D01*
X33827Y42694D01*
X33900Y42750D01*
X33956Y42823D01*
X33991Y42909D01*
X33996Y42950D01*
D02*
G37*
G36*
X33600D02*
X33304D01*
X33309Y42909D01*
X33344Y42823D01*
X33400Y42750D01*
X33473Y42694D01*
X33559Y42659D01*
X33600Y42654D01*
Y42950D01*
D02*
G37*
G36*
X35596D02*
X35300D01*
Y42654D01*
X35341Y42659D01*
X35427Y42694D01*
X35500Y42750D01*
X35556Y42823D01*
X35591Y42909D01*
X35596Y42950D01*
D02*
G37*
G36*
X39250Y43100D02*
X38888D01*
X38896Y43042D01*
X38938Y42941D01*
X39004Y42854D01*
X39091Y42788D01*
X39192Y42746D01*
X39250Y42738D01*
Y43100D01*
D02*
G37*
G36*
X41300Y43607D02*
X41182Y43591D01*
X41072Y43545D01*
X40977Y43473D01*
X40905Y43378D01*
X40859Y43268D01*
X40843Y43150D01*
X40859Y43032D01*
X40905Y42922D01*
X40977Y42827D01*
X41072Y42755D01*
X41182Y42709D01*
X41300Y42693D01*
X41418Y42709D01*
X41528Y42755D01*
X41623Y42827D01*
X41695Y42922D01*
X41741Y43032D01*
X41757Y43150D01*
X41741Y43268D01*
X41695Y43378D01*
X41623Y43473D01*
X41528Y43545D01*
X41418Y43591D01*
X41300Y43607D01*
D02*
G37*
G36*
X40300D02*
X40182Y43591D01*
X40072Y43545D01*
X39977Y43473D01*
X39905Y43378D01*
X39859Y43268D01*
X39843Y43150D01*
X39859Y43032D01*
X39905Y42922D01*
X39977Y42827D01*
X40072Y42755D01*
X40182Y42709D01*
X40300Y42693D01*
X40418Y42709D01*
X40528Y42755D01*
X40623Y42827D01*
X40695Y42922D01*
X40741Y43032D01*
X40757Y43150D01*
X40741Y43268D01*
X40695Y43378D01*
X40623Y43473D01*
X40528Y43545D01*
X40418Y43591D01*
X40300Y43607D01*
D02*
G37*
G36*
X39696Y38950D02*
X39439D01*
Y38624D01*
X39696D01*
Y38950D01*
D02*
G37*
G36*
X40450Y40041D02*
X40349Y40028D01*
X40254Y39989D01*
X40173Y39927D01*
X40111Y39846D01*
X40072Y39751D01*
X40059Y39650D01*
X40072Y39549D01*
X40108Y39463D01*
X40110Y39413D01*
X40110Y39413D01*
X40110Y39413D01*
Y38587D01*
X40799D01*
Y39413D01*
X40799Y39413D01*
X40792Y39463D01*
X40828Y39549D01*
X40841Y39650D01*
X40828Y39751D01*
X40789Y39846D01*
X40727Y39927D01*
X40646Y39989D01*
X40551Y40028D01*
X40450Y40041D01*
D02*
G37*
G36*
X38326Y38752D02*
X38000D01*
Y38496D01*
X38326D01*
Y38752D01*
D02*
G37*
G36*
X40052Y38950D02*
X39796D01*
Y38624D01*
X40052D01*
Y38950D01*
D02*
G37*
G36*
X29822Y39393D02*
X29650D01*
Y39014D01*
X29685Y39021D01*
X29757Y39069D01*
X29805Y39141D01*
X29822Y39226D01*
Y39393D01*
D02*
G37*
G36*
X25946Y39200D02*
X25650D01*
Y38904D01*
X25691Y38909D01*
X25777Y38944D01*
X25850Y39000D01*
X25906Y39073D01*
X25941Y39159D01*
X25946Y39200D01*
D02*
G37*
G36*
X25550D02*
X25254D01*
X25259Y39159D01*
X25294Y39073D01*
X25350Y39000D01*
X25423Y38944D01*
X25509Y38909D01*
X25550Y38904D01*
Y39200D01*
D02*
G37*
G36*
X38326Y38396D02*
X38000D01*
Y38139D01*
X38326D01*
Y38396D01*
D02*
G37*
G36*
X37900D02*
X37574D01*
Y38139D01*
X37900D01*
Y38396D01*
D02*
G37*
G36*
X37426Y38352D02*
X37100D01*
Y38096D01*
X37426D01*
Y38352D01*
D02*
G37*
G36*
X56245Y38372D02*
X55980D01*
X55895Y38355D01*
X55823Y38307D01*
X55774Y38235D01*
X55767Y38200D01*
X56245D01*
Y38372D01*
D02*
G37*
G36*
X37900Y38752D02*
X37574D01*
Y38496D01*
X37900D01*
Y38752D01*
D02*
G37*
G36*
X36700Y39891D02*
X36599Y39878D01*
X36504Y39839D01*
X36423Y39777D01*
X36361Y39696D01*
X36322Y39601D01*
X36309Y39500D01*
X36322Y39399D01*
X36361Y39304D01*
X36423Y39223D01*
X36504Y39161D01*
X36597Y39123D01*
X36637Y39099D01*
Y38410D01*
X37463D01*
Y39099D01*
X37251D01*
Y39150D01*
X37235Y39227D01*
X37192Y39292D01*
X37079Y39405D01*
X37091Y39500D01*
X37078Y39601D01*
X37039Y39696D01*
X36977Y39777D01*
X36896Y39839D01*
X36801Y39878D01*
X36700Y39891D01*
D02*
G37*
G36*
X56610Y38372D02*
X56345D01*
Y38200D01*
X56822D01*
X56815Y38235D01*
X56767Y38307D01*
X56695Y38355D01*
X56610Y38372D01*
D02*
G37*
G36*
X39150Y40096D02*
Y39800D01*
X39446D01*
X39441Y39841D01*
X39406Y39927D01*
X39350Y40000D01*
X39277Y40056D01*
X39191Y40091D01*
X39150Y40096D01*
D02*
G37*
G36*
X39050D02*
X39009Y40091D01*
X38923Y40056D01*
X38850Y40000D01*
X38794Y39927D01*
X38759Y39841D01*
X38754Y39800D01*
X39050D01*
Y40096D01*
D02*
G37*
G36*
X29650Y39871D02*
Y39493D01*
X29822D01*
Y39659D01*
X29805Y39744D01*
X29757Y39816D01*
X29685Y39865D01*
X29650Y39871D01*
D02*
G37*
G36*
X61781Y46413D02*
X61132D01*
Y46197D01*
X61073Y46185D01*
X61008Y46142D01*
X60808Y45942D01*
X60765Y45877D01*
X60749Y45800D01*
Y40933D01*
X59867Y40051D01*
X55683D01*
X54742Y40992D01*
X54677Y41035D01*
X54600Y41051D01*
X43783D01*
X43301Y41533D01*
Y41865D01*
X43377Y41923D01*
X43439Y42004D01*
X43478Y42099D01*
X43491Y42200D01*
X43478Y42301D01*
X43439Y42396D01*
X43377Y42477D01*
X43296Y42539D01*
X43201Y42578D01*
X43100Y42591D01*
X42999Y42578D01*
X42904Y42539D01*
X42823Y42477D01*
X42763Y42398D01*
X42758Y42398D01*
X42713Y42421D01*
Y42599D01*
X42541D01*
Y42697D01*
X42753D01*
Y43603D01*
X41847D01*
Y42697D01*
X42059D01*
Y42599D01*
X41887D01*
Y41910D01*
X42713D01*
Y41979D01*
X42758Y42002D01*
X42763Y42002D01*
X42823Y41923D01*
X42899Y41865D01*
Y41450D01*
X42915Y41373D01*
X42958Y41308D01*
X43186Y41080D01*
X43163Y41033D01*
X43100Y41041D01*
X42999Y41028D01*
X42904Y40989D01*
X42823Y40927D01*
X42761Y40846D01*
X42722Y40751D01*
X42709Y40650D01*
X42722Y40549D01*
X42761Y40454D01*
X42823Y40373D01*
X42904Y40311D01*
X42999Y40272D01*
X43100Y40259D01*
X43201Y40272D01*
X43296Y40311D01*
X43377Y40373D01*
X43435Y40449D01*
X54417D01*
X55408Y39458D01*
X55473Y39415D01*
X55486Y39412D01*
X55550Y39399D01*
X60100D01*
X60177Y39415D01*
X60242Y39458D01*
X61598Y40814D01*
X61642Y40879D01*
X61644Y40892D01*
X61657Y40956D01*
Y43637D01*
X61781D01*
Y44463D01*
X61151D01*
Y45587D01*
X61781D01*
Y46413D01*
D02*
G37*
G36*
X56750Y40852D02*
X56424D01*
Y40596D01*
X56750D01*
Y40852D01*
D02*
G37*
G36*
X57176Y40496D02*
X56850D01*
Y40239D01*
X57176D01*
Y40496D01*
D02*
G37*
G36*
X56750D02*
X56424D01*
Y40239D01*
X56750D01*
Y40496D01*
D02*
G37*
G36*
X25550Y39596D02*
X25509Y39591D01*
X25423Y39556D01*
X25350Y39500D01*
X25294Y39427D01*
X25259Y39341D01*
X25254Y39300D01*
X25550D01*
Y39596D01*
D02*
G37*
G36*
X40052Y39376D02*
X39796D01*
Y39050D01*
X40052D01*
Y39376D01*
D02*
G37*
G36*
X39696D02*
X39439D01*
Y39050D01*
X39696D01*
Y39376D01*
D02*
G37*
G36*
X25650Y39596D02*
Y39300D01*
X25946D01*
X25941Y39341D01*
X25906Y39427D01*
X25850Y39500D01*
X25777Y39556D01*
X25691Y39591D01*
X25650Y39596D01*
D02*
G37*
G36*
X45500Y40241D02*
X45399Y40228D01*
X45304Y40189D01*
X45223Y40127D01*
X45161Y40046D01*
X45122Y39951D01*
X45109Y39850D01*
X45122Y39749D01*
X45161Y39654D01*
X45223Y39573D01*
X45304Y39511D01*
X45330Y39501D01*
X45320Y39451D01*
X45133D01*
X44892Y39692D01*
X44827Y39735D01*
X44750Y39751D01*
X44485D01*
X44427Y39827D01*
X44346Y39889D01*
X44251Y39928D01*
X44150Y39941D01*
X44049Y39928D01*
X43954Y39889D01*
X43873Y39827D01*
X43811Y39746D01*
X43772Y39651D01*
X43759Y39550D01*
X43772Y39449D01*
X43811Y39354D01*
X43873Y39273D01*
X43954Y39211D01*
X44049Y39172D01*
X44150Y39159D01*
X44251Y39172D01*
X44346Y39211D01*
X44427Y39273D01*
X44485Y39349D01*
X44667D01*
X44908Y39108D01*
X44973Y39065D01*
X45050Y39049D01*
X50715D01*
X50773Y38973D01*
X50854Y38911D01*
X50949Y38872D01*
X51050Y38859D01*
X51151Y38872D01*
X51246Y38911D01*
X51327Y38973D01*
X51389Y39054D01*
X51428Y39149D01*
X51441Y39250D01*
X51428Y39351D01*
X51389Y39446D01*
X51327Y39527D01*
X51246Y39589D01*
X51220Y39599D01*
X51230Y39649D01*
X53259D01*
X53272Y39549D01*
X53311Y39454D01*
X53373Y39373D01*
X53454Y39311D01*
X53549Y39272D01*
X53650Y39259D01*
X53751Y39272D01*
X53846Y39311D01*
X53927Y39373D01*
X53989Y39454D01*
X54028Y39549D01*
X54041Y39650D01*
X54028Y39751D01*
X53989Y39846D01*
X53927Y39927D01*
X53846Y39989D01*
X53751Y40028D01*
X53650Y40041D01*
X53549Y40028D01*
X53542Y40025D01*
X53527Y40035D01*
X53450Y40051D01*
X45835D01*
X45777Y40127D01*
X45696Y40189D01*
X45601Y40228D01*
X45500Y40241D01*
D02*
G37*
G36*
X39446Y39700D02*
X39150D01*
Y39404D01*
X39191Y39409D01*
X39277Y39444D01*
X39350Y39500D01*
X39406Y39573D01*
X39441Y39659D01*
X39446Y39700D01*
D02*
G37*
G36*
X39050D02*
X38754D01*
X38759Y39659D01*
X38794Y39573D01*
X38850Y39500D01*
X38923Y39444D01*
X39009Y39409D01*
X39050Y39404D01*
Y39700D01*
D02*
G37*
%LPD*%
D10*
X30344Y52750D02*
D03*
X29556D02*
D03*
X60244Y35900D02*
D03*
X59456D02*
D03*
X61744Y34950D02*
D03*
X60956D02*
D03*
X61744Y31950D02*
D03*
X60956D02*
D03*
X52894Y32100D02*
D03*
X52106D02*
D03*
X62244Y46000D02*
D03*
X61456D02*
D03*
X62244Y44050D02*
D03*
X61456D02*
D03*
X28344Y52750D02*
D03*
X27556D02*
D03*
X60594Y24600D02*
D03*
X59806D02*
D03*
X62094Y23600D02*
D03*
X61306D02*
D03*
X24906Y29500D02*
D03*
X25694D02*
D03*
X22306D02*
D03*
X23094D02*
D03*
X23256Y44200D02*
D03*
X24044D02*
D03*
X17394Y42450D02*
D03*
X16606D02*
D03*
X13006Y31750D02*
D03*
X13794D02*
D03*
X15456Y31050D02*
D03*
X16244D02*
D03*
X22094Y39700D02*
D03*
X21306D02*
D03*
X22844Y37850D02*
D03*
X22056D02*
D03*
X20944Y34750D02*
D03*
X20156D02*
D03*
X53806Y30850D02*
D03*
X54594D02*
D03*
X29894Y38300D02*
D03*
X29106D02*
D03*
X27956Y43500D02*
D03*
X28744D02*
D03*
X17406Y50250D02*
D03*
X18194D02*
D03*
X13006Y30900D02*
D03*
X13794D02*
D03*
X37494Y34900D02*
D03*
X36706D02*
D03*
X60294Y32950D02*
D03*
X59506D02*
D03*
D11*
X50554Y27100D02*
D03*
X49846D02*
D03*
X38446Y35950D02*
D03*
X39154D02*
D03*
X40604D02*
D03*
X39896D02*
D03*
X46046Y51950D02*
D03*
X46754D02*
D03*
X23946Y43300D02*
D03*
X24654D02*
D03*
X23254D02*
D03*
X22546D02*
D03*
X22896Y39700D02*
D03*
X23604D02*
D03*
X44304Y17900D02*
D03*
X43596D02*
D03*
X49054Y11550D02*
D03*
X48346D02*
D03*
X26804Y11600D02*
D03*
X26096D02*
D03*
X45204Y11400D02*
D03*
X44496D02*
D03*
X55704Y35700D02*
D03*
X54996D02*
D03*
X35396Y34900D02*
D03*
X36104D02*
D03*
X38696Y37700D02*
D03*
X39404D02*
D03*
X39746Y39000D02*
D03*
X40454D02*
D03*
D12*
X56295Y36650D02*
D03*
Y37150D02*
D03*
Y37650D02*
D03*
Y38150D02*
D03*
X54405Y36650D02*
D03*
Y37150D02*
D03*
Y37650D02*
D03*
Y38150D02*
D03*
X19245Y28500D02*
D03*
Y29000D02*
D03*
Y29500D02*
D03*
Y30000D02*
D03*
Y30500D02*
D03*
Y31000D02*
D03*
Y31500D02*
D03*
X17355Y28500D02*
D03*
Y29000D02*
D03*
Y29500D02*
D03*
Y30000D02*
D03*
Y30500D02*
D03*
Y31000D02*
D03*
Y31500D02*
D03*
X15655Y39150D02*
D03*
Y38650D02*
D03*
Y38150D02*
D03*
Y37650D02*
D03*
X17545Y39150D02*
D03*
Y38650D02*
D03*
Y38150D02*
D03*
Y37650D02*
D03*
D13*
X55600Y30744D02*
D03*
Y29956D02*
D03*
X44800Y13556D02*
D03*
Y14344D02*
D03*
X48650Y13506D02*
D03*
Y14294D02*
D03*
X16600Y39906D02*
D03*
Y40694D02*
D03*
X14550Y29794D02*
D03*
Y29006D02*
D03*
X13300Y38806D02*
D03*
Y39594D02*
D03*
X14400Y38544D02*
D03*
Y37756D02*
D03*
X26400Y13656D02*
D03*
Y14444D02*
D03*
X27450Y13656D02*
D03*
Y14444D02*
D03*
X53000Y37356D02*
D03*
Y38144D02*
D03*
X52000Y36956D02*
D03*
Y37744D02*
D03*
X59750Y23844D02*
D03*
Y23056D02*
D03*
X56150Y29294D02*
D03*
Y28506D02*
D03*
X42950Y30444D02*
D03*
Y29656D02*
D03*
X43950Y30444D02*
D03*
Y29656D02*
D03*
X44950Y30394D02*
D03*
Y29606D02*
D03*
X57900Y42256D02*
D03*
Y43044D02*
D03*
X58950Y42256D02*
D03*
Y43044D02*
D03*
X28500Y26256D02*
D03*
Y27044D02*
D03*
X15450Y29794D02*
D03*
Y29006D02*
D03*
X37450Y35756D02*
D03*
Y36544D02*
D03*
X25050Y53156D02*
D03*
Y53944D02*
D03*
X31800Y31856D02*
D03*
Y32644D02*
D03*
D14*
X53697Y32100D02*
D03*
X54603Y32474D02*
D03*
Y31726D02*
D03*
X26803Y52750D02*
D03*
X25897Y52376D02*
D03*
Y53124D02*
D03*
D15*
X44050Y21692D02*
D03*
D16*
X44956Y19408D02*
D03*
X44050D02*
D03*
X43144D02*
D03*
D17*
X13550Y21604D02*
D03*
Y20896D02*
D03*
X19400Y20746D02*
D03*
Y21454D02*
D03*
X26800Y21804D02*
D03*
Y21096D02*
D03*
X20600Y30796D02*
D03*
Y31504D02*
D03*
X41600Y20954D02*
D03*
Y20246D02*
D03*
X58800Y23096D02*
D03*
Y23804D02*
D03*
X61950Y21696D02*
D03*
Y22404D02*
D03*
X26850Y42104D02*
D03*
Y41396D02*
D03*
X56800Y41254D02*
D03*
Y40546D02*
D03*
X21550Y29504D02*
D03*
Y28796D02*
D03*
X35900Y35846D02*
D03*
Y36554D02*
D03*
X37050Y38046D02*
D03*
Y38754D02*
D03*
X37950Y38446D02*
D03*
Y39154D02*
D03*
X42300Y41546D02*
D03*
Y42254D02*
D03*
X64400Y43704D02*
D03*
Y42996D02*
D03*
D18*
X20700Y37872D02*
D03*
X20200D02*
D03*
X19700D02*
D03*
X19200D02*
D03*
Y35628D02*
D03*
X19700D02*
D03*
X20200D02*
D03*
X20700D02*
D03*
D19*
X18800Y41061D02*
D03*
Y42439D02*
D03*
X57750Y22461D02*
D03*
Y23839D02*
D03*
D20*
X22565Y40800D02*
D03*
Y41300D02*
D03*
Y41800D02*
D03*
Y42300D02*
D03*
X20635Y40800D02*
D03*
Y41300D02*
D03*
Y41800D02*
D03*
Y42300D02*
D03*
D21*
X11500Y33941D02*
D03*
Y32759D02*
D03*
Y37209D02*
D03*
Y38391D02*
D03*
D22*
X23950Y28796D02*
D03*
Y29504D02*
D03*
X13650Y29046D02*
D03*
Y29754D02*
D03*
X13300Y37346D02*
D03*
Y38054D02*
D03*
D23*
X51688Y27850D02*
D03*
X52712D02*
D03*
X54762D02*
D03*
X53738D02*
D03*
D24*
X53846Y30050D02*
D03*
X54554D02*
D03*
D25*
X28100Y39443D02*
D03*
X28600D02*
D03*
X29100D02*
D03*
X29600D02*
D03*
X28100Y42257D02*
D03*
X28600D02*
D03*
X29100D02*
D03*
X29600D02*
D03*
D26*
X27494Y28726D02*
D03*
Y29474D02*
D03*
X26706Y29100D02*
D03*
X27494Y27026D02*
D03*
Y27774D02*
D03*
X26706Y27400D02*
D03*
D27*
X17800Y52303D02*
D03*
X18174Y51397D02*
D03*
X17426D02*
D03*
D28*
X29400Y31300D02*
X30200Y30500D01*
Y11250D02*
Y30500D01*
X49054Y11550D02*
X49400D01*
X61950Y21696D02*
X62404D01*
X62500Y21600D01*
X63150D01*
X17804Y52307D02*
Y53550D01*
X26400Y14444D02*
X27450D01*
X27384Y12550D02*
Y13591D01*
X26400Y12550D02*
Y13656D01*
X27384Y11884D02*
Y12550D01*
X27100Y11600D02*
X27384Y11884D01*
X26804Y11600D02*
X27100D01*
X25700D02*
X26096D01*
X25416Y11884D02*
X25700Y11600D01*
X25416Y11884D02*
Y12550D01*
X44050Y11400D02*
X44496D01*
X43816Y11634D02*
X44050Y11400D01*
X43816Y11634D02*
Y12550D01*
X44800D02*
Y13556D01*
X45784Y11584D02*
Y12550D01*
X45600Y11400D02*
X45784Y11584D01*
X45204Y11400D02*
X45600D01*
X48000Y11550D02*
X48346D01*
X47666Y11884D02*
X48000Y11550D01*
X47666Y11884D02*
Y12550D01*
X49400Y11550D02*
X49634Y11784D01*
Y12550D01*
X48650D02*
Y13506D01*
X56295Y35895D02*
Y36650D01*
X56100Y35700D02*
X56295Y35895D01*
X55704Y35700D02*
X56100D01*
X54600D02*
X54996D01*
X54405Y35895D02*
X54600Y35700D01*
X54405Y35895D02*
Y36650D01*
X53000Y36956D02*
X53244D01*
X52000D02*
X53000D01*
Y37356D01*
X53550Y36650D02*
X54405D01*
X53244Y36956D02*
X53550Y36650D01*
X54405Y37150D02*
X56295D01*
X52056Y37750D02*
X53600D01*
X53700Y37650D01*
X54405D01*
X56295D02*
Y38150D01*
Y37150D02*
Y37650D01*
Y36650D02*
Y37150D01*
X60244Y35900D02*
X63200D01*
X61744Y31950D02*
X63250D01*
X60294Y32950D02*
X63250D01*
X63250Y34950D02*
X63250Y34950D01*
X61744Y34950D02*
X63250D01*
X62144Y46000D02*
X63200D01*
X62294Y44000D02*
X63200D01*
X59750Y23844D02*
X59806Y23900D01*
X59745Y23839D02*
X59750Y23844D01*
X59806Y23900D02*
Y24600D01*
X60594D02*
X63150D01*
X62094Y23600D02*
X63150D01*
X57750Y22461D02*
X58511D01*
X58800Y22750D01*
Y23096D01*
X51680Y28830D02*
X52106Y29256D01*
X51036Y28830D02*
X51680D01*
X53806Y30850D02*
Y31406D01*
Y29989D02*
Y30850D01*
Y31406D02*
X54150Y31750D01*
Y32050D01*
X54574Y32474D01*
X54603D01*
X52894Y32100D02*
X53697D01*
X54594Y30850D02*
Y31717D01*
Y30850D02*
X55100D01*
X55206Y30744D01*
X55600D01*
X54611Y29956D02*
X55600D01*
Y29844D02*
X56150Y29294D01*
Y28150D02*
Y28506D01*
X55850Y27850D02*
X56150Y28150D01*
X54762Y27850D02*
X55850D01*
X53264Y27864D02*
Y28780D01*
X52712Y27850D02*
X53738D01*
X49314Y27100D02*
X49846D01*
X49264Y27050D02*
X49314Y27100D01*
X49264Y27564D02*
X49550Y27850D01*
X51688D01*
X50554Y27100D02*
X50800D01*
X51036Y26864D01*
Y26270D02*
Y26864D01*
X11550Y30750D02*
X12200D01*
X12350Y30900D01*
X13006D01*
X15456Y31656D02*
X16000Y32200D01*
X17700D01*
X18100Y31800D01*
Y30800D02*
Y31800D01*
Y30800D02*
X18400Y30500D01*
X19245D01*
X13650Y29754D02*
X15411D01*
X15450Y29794D01*
X15456Y29800D01*
Y31050D01*
Y31656D01*
X13794Y30900D02*
X14550D01*
X14950Y31300D01*
Y31900D01*
X19245Y31500D02*
Y32055D01*
Y31500D02*
X20596D01*
X13794Y31750D02*
X14200D01*
X17355Y31000D02*
Y31500D01*
X16294Y31000D02*
X17355D01*
X15450Y29006D02*
X17349D01*
X17355Y29000D01*
Y28500D02*
Y29000D01*
X23094Y29500D02*
X24906D01*
X19245D02*
X22306D01*
X25694D02*
X26100D01*
X26500Y29900D01*
X27068D01*
X27494Y29474D01*
X27100Y29080D02*
X27494Y29474D01*
X27100Y28168D02*
Y29080D01*
Y28168D02*
X27494Y27774D01*
Y27026D02*
X28482D01*
X27924Y28726D02*
X28600Y28050D01*
X27494Y28726D02*
X27924D01*
X28482Y27026D02*
X28500Y27044D01*
X28600Y27144D01*
Y27950D01*
Y28050D01*
X18350Y28450D02*
X18850Y27950D01*
X18350Y28450D02*
Y30202D01*
X18052Y30500D02*
X18350Y30202D01*
X17355Y30500D02*
X18052D01*
X17355Y29500D02*
X17800D01*
X18000Y29300D01*
Y28050D02*
Y29300D01*
Y28050D02*
X18800Y27250D01*
Y25900D02*
Y27250D01*
X19245Y28500D02*
Y29000D01*
X18850Y27950D02*
X20500D01*
X21050Y27400D01*
Y26250D02*
Y27400D01*
Y26250D02*
X21400Y25900D01*
X19245Y28500D02*
X20600D01*
X22200Y26900D01*
X22350D01*
X23950Y28796D02*
X26402D01*
X26706Y29100D01*
Y26594D02*
Y27400D01*
Y26594D02*
X27044Y26256D01*
X28500D01*
X14550Y29006D02*
X14556Y29000D01*
X16700Y30000D02*
X17355D01*
X13696Y29000D02*
X14556D01*
X14950Y31900D02*
X15600Y32550D01*
X18750D01*
X19245Y32055D01*
X14200Y31750D02*
X15350Y32900D01*
X20500D01*
X21346Y32054D01*
X13300Y38054D02*
Y38806D01*
Y38054D02*
X13854D01*
X13950Y38150D01*
X14400Y38544D02*
X14844D01*
X14950Y38650D01*
X15655D01*
X16300D01*
X16600Y38950D01*
Y39906D01*
X15655Y39150D02*
Y40345D01*
X14300Y41700D02*
X15300Y40700D01*
X15655Y40345D01*
X14300Y41700D02*
Y43000D01*
X14800Y43500D01*
X16200D01*
X16606Y43094D01*
Y42450D02*
Y43094D01*
X15300Y42050D02*
Y42700D01*
Y42050D02*
X15750Y41600D01*
X16300D01*
X16600Y41300D01*
Y40694D02*
Y41300D01*
X19250Y42450D02*
X19900Y41800D01*
X20635D01*
X17394Y42450D02*
X19250D01*
X20635Y41300D02*
X21350D01*
X21600Y41050D01*
Y40550D02*
Y41050D01*
X21306Y40256D02*
X21600Y40550D01*
X21306Y39700D02*
Y40256D01*
X20000Y40800D02*
X20635D01*
X19700Y40500D02*
X20000Y40800D01*
X19700Y37872D02*
Y40500D01*
X20200Y37400D02*
Y37872D01*
X22094Y39700D02*
X22896D01*
X22565Y39715D02*
Y40800D01*
X22844Y37850D02*
Y39648D01*
X22689Y44139D02*
Y44800D01*
X22565Y44015D02*
X22689Y44139D01*
X22750Y44200D02*
X23256D01*
X22689Y44139D02*
X22750Y44200D01*
X22565Y42300D02*
Y44015D01*
X24100Y41800D02*
X24611Y42311D01*
X22565Y41800D02*
X24100D01*
X24044Y44200D02*
X24611D01*
Y42311D02*
Y44200D01*
Y44800D01*
X20200Y34750D02*
Y35628D01*
X20700Y35450D02*
Y35628D01*
Y35450D02*
X20944Y35206D01*
Y34750D02*
Y35206D01*
X14506Y37650D02*
X15655D01*
X13300Y37346D02*
X14202D01*
X14506Y37650D01*
X11151Y39594D02*
X11157D01*
X12703D02*
X13300D01*
X11500Y38391D02*
X12703Y39594D01*
X17426Y50270D02*
Y51397D01*
X25074Y53124D02*
X25897D01*
X26803Y52750D02*
X27556D01*
Y51944D02*
Y52750D01*
Y51944D02*
X27902Y51598D01*
Y50500D02*
Y51598D01*
X20700Y21689D02*
Y25200D01*
X19800Y25700D02*
Y26900D01*
Y25700D02*
X20300Y25200D01*
X20700D01*
X24350Y26900D02*
Y28746D01*
X21400Y25900D02*
X23350D01*
X20700Y25200D02*
X23750D01*
X24350Y25800D01*
Y26900D01*
X28400Y22189D02*
X28500Y22289D01*
X22500Y30350D02*
X28650D01*
X21750Y31100D02*
X22500Y30350D01*
X21750Y31100D02*
Y32250D01*
X20700Y33300D02*
X21750Y32250D01*
X18100Y33800D02*
Y36200D01*
Y33800D02*
X18600Y33300D01*
X20700D01*
X15655Y36905D02*
Y37650D01*
X23604Y39700D02*
Y40296D01*
Y40996D01*
X23300Y41300D02*
X23604Y40996D01*
X22565Y41300D02*
X23300D01*
X17545Y39150D02*
Y39695D01*
X17550Y39700D01*
X16400Y29700D02*
X16700Y30000D01*
X21550Y28796D02*
X22700D01*
X23950D01*
X19245Y31000D02*
X19850D01*
X20054Y30796D01*
X20600D01*
X19245Y30000D02*
X20150D01*
X17800Y25100D02*
Y26900D01*
Y25100D02*
X18600Y24300D01*
X20100D01*
X42950Y28500D02*
Y29656D01*
X43950Y28500D02*
Y29656D01*
X44950Y28500D02*
Y29606D01*
X21346Y31046D02*
Y32054D01*
X21096Y30796D02*
X21346Y31046D01*
X20600Y30796D02*
X21096D01*
X39896Y35950D02*
X40078Y36132D01*
Y36722D01*
X39154Y35950D02*
Y36296D01*
X39100Y36350D02*
X39154Y36296D01*
X39100Y36350D02*
Y36750D01*
X37494Y34900D02*
X38750D01*
X39154Y35304D01*
Y35950D01*
X56806Y42256D02*
X57900D01*
X58950D01*
X56750Y43200D02*
X57250D01*
X57406Y43044D01*
X57900D01*
X56750Y44200D02*
X58600D01*
X58950Y43850D01*
Y43044D02*
Y43850D01*
X63204Y42996D02*
X64450D01*
X30344Y52750D02*
X30700D01*
X30902Y52548D01*
Y50500D02*
Y52548D01*
X60900Y22600D02*
X63150D01*
X58800Y23096D02*
X60404D01*
X60900Y22600D01*
X53056Y38150D02*
X53700D01*
X54405D01*
X56806Y41261D02*
Y42256D01*
X49264Y26270D02*
Y27050D01*
Y27564D01*
X52106Y29500D02*
X54315D01*
X55036Y28780D01*
X52106Y29256D02*
Y29500D01*
Y32100D01*
X54603Y32474D02*
Y33953D01*
X54996Y34346D01*
Y35700D01*
X57750Y23839D02*
X59745D01*
X20426Y52376D02*
X25897D01*
X19447Y51397D02*
X20426Y52376D01*
X18174Y51397D02*
X19447D01*
X42300Y42254D02*
Y43150D01*
X45204Y10604D02*
Y11400D01*
X49054Y10600D02*
Y11550D01*
X28344Y52750D02*
X28902D01*
X29550D01*
X33900Y21300D02*
X40389D01*
X57650Y30950D02*
X63250D01*
X56126Y32474D02*
X57650Y30950D01*
X54603Y32474D02*
X56126D01*
X28650Y30350D02*
X29400Y29600D01*
X28500Y26256D02*
X28956D01*
X29400Y26700D01*
Y29600D01*
X20200Y37400D02*
X20400Y37200D01*
X18100Y36200D02*
X18750Y36850D01*
X20400Y37200D02*
X21900D01*
X22056Y37356D01*
Y37850D01*
X18750Y36850D02*
X22400D01*
X22844Y37294D01*
Y37850D01*
X23500Y31300D02*
X29400D01*
X22800Y32000D02*
X23500Y31300D01*
X20700Y35628D02*
X22322D01*
X22800Y35150D01*
Y32000D02*
Y35150D01*
X19200Y34200D02*
Y35628D01*
Y34200D02*
X19750Y33650D01*
X22100D01*
X45950Y26750D02*
Y28500D01*
X45650Y26450D02*
X45950Y26750D01*
X41800Y26450D02*
X45650D01*
X41300Y25950D02*
X41800Y26450D01*
X41300Y24500D02*
Y25950D01*
D29*
X11550Y31750D02*
Y32709D01*
Y31750D02*
X13006D01*
X11149Y27750D02*
X11550Y28151D01*
Y29750D01*
X11500Y38391D02*
Y39251D01*
X11151Y39600D02*
X11157Y39594D01*
X11500Y39251D01*
X10650Y40600D02*
X11149D01*
X10400Y40350D02*
X10650Y40600D01*
X10400Y26850D02*
Y40350D01*
Y26850D02*
X10500Y26750D01*
X11151D01*
X10400Y22850D02*
Y26850D01*
Y22850D02*
X11066Y22184D01*
X12450D01*
X13550Y21604D02*
Y22184D01*
X12450D02*
X13550D01*
X17334D01*
X17350Y20200D02*
X20589D01*
X19400Y20250D02*
Y20746D01*
X26150Y20700D02*
X28289D01*
X28400Y20811D01*
X24350Y21200D02*
X25650D01*
X26150Y20700D01*
X23000Y21200D02*
X24200D01*
X22511Y21689D02*
X23000Y21200D01*
X18150Y21200D02*
X18639Y21689D01*
X17350Y21200D02*
X18150D01*
X15700D02*
X17350D01*
X14716Y20216D02*
X15700Y21200D01*
X24200Y21050D02*
X24350Y21200D01*
X20700Y21689D02*
X22511D01*
X13550Y20216D02*
Y20896D01*
X12450Y20216D02*
X13550D01*
X14716D01*
X18639Y21689D02*
X20700D01*
X11700Y14600D02*
Y21434D01*
X12450Y22184D01*
X18800Y40100D02*
Y41061D01*
X24200Y22200D02*
X28289D01*
X20700Y20211D02*
X24089D01*
X42139Y21239D02*
X42592Y21692D01*
X44050D01*
Y19408D02*
Y21692D01*
X37500Y10450D02*
X37800Y10750D01*
Y12150D01*
X42450Y11350D02*
X43200Y10600D01*
X38500Y11350D02*
X39200D01*
X42450D01*
X43200Y10600D02*
X58200D01*
X63150Y15550D01*
Y21600D01*
X64050D01*
X64450Y22000D01*
Y40900D01*
X64100Y41250D02*
X64450Y40900D01*
X64100Y41250D02*
Y41850D01*
X44050Y21692D02*
X45692D01*
X46358D01*
X40450Y21239D02*
X42139D01*
X49942Y19408D02*
X50700Y18650D01*
Y10600D02*
Y18650D01*
X44956Y19408D02*
X49942D01*
X11700Y14600D02*
X15850Y10450D01*
X37500D01*
D30*
X14944Y29400D02*
X16100D01*
X14550Y29006D02*
X14944Y29400D01*
X23600Y42600D02*
Y43300D01*
X23254D02*
X23600D01*
X23946D01*
X16100Y29400D02*
X16400Y29700D01*
X40450Y39650D02*
X40454Y39646D01*
Y38800D02*
Y39646D01*
X36700Y39500D02*
X37050Y39150D01*
Y38754D02*
Y39150D01*
X37700Y39750D02*
X37950Y39500D01*
Y39154D02*
Y39500D01*
X36111Y36544D02*
X37200D01*
X36600Y35700D02*
X36656Y35756D01*
X37350D01*
X36104Y34900D02*
Y35204D01*
X36600Y35700D01*
X36104Y34900D02*
X36706D01*
X42950Y30444D02*
Y31100D01*
X43950Y30444D02*
Y31100D01*
X44950Y30394D02*
Y31100D01*
X60200Y34650D02*
X60500Y34950D01*
X60956D01*
X60200Y34244D02*
Y34650D01*
X59400Y35844D02*
X59500Y35744D01*
Y34250D02*
Y35744D01*
X60600Y23650D02*
X61256D01*
X52894Y32100D02*
Y33844D01*
X53700Y38150D02*
Y38700D01*
X52000Y37806D02*
Y38550D01*
X55550Y39600D02*
X60100D01*
X61456Y40956D01*
Y44050D01*
X43100Y41450D02*
Y42200D01*
X55600Y39850D02*
X59950D01*
X60950Y40850D01*
Y45800D01*
X61150Y46000D01*
X61456D01*
X39600Y37650D02*
X40100D01*
X28100Y42257D02*
Y42750D01*
X27956Y42894D02*
X28100Y42750D01*
X27956Y42894D02*
Y43500D01*
X26850Y42104D02*
X27304D01*
X27457Y42257D01*
X28100D01*
X28600D02*
Y42750D01*
X28744Y42894D01*
Y43500D01*
X29100Y38306D02*
Y39443D01*
X27500Y14494D02*
Y15050D01*
X35050Y26050D02*
X35100Y26100D01*
X37050D01*
X34600Y26750D02*
X36800D01*
X37050Y26900D01*
X57700Y23889D02*
X57800Y23989D01*
Y24700D01*
X56750Y45200D02*
X59450D01*
X60150Y44500D01*
Y41500D02*
Y44500D01*
X35050Y25300D02*
X37050D01*
X18244Y50250D02*
X19000D01*
X31500Y11100D02*
X34400D01*
X34800Y11500D01*
Y12150D01*
X33902Y48852D02*
Y49500D01*
X26750Y45100D02*
Y48050D01*
X27200Y48500D01*
X33550D01*
X33902Y48852D01*
X54100Y42200D02*
X55750D01*
X27350Y34050D02*
Y36750D01*
X19700Y34350D02*
X19850Y34200D01*
X19700Y34350D02*
Y35628D01*
X19850Y34200D02*
X21850D01*
X22100Y34450D01*
Y34900D01*
X30600Y12000D02*
X31500Y11100D01*
X30600Y12000D02*
Y30800D01*
X27350Y34050D02*
X30600Y30800D01*
X39902Y49500D02*
X40400Y49998D01*
X41902Y49500D02*
X42100D01*
X40400Y49998D02*
Y53450D01*
X40100Y53750D02*
X40400Y53450D01*
X24650Y37950D02*
Y40950D01*
X26200Y42500D01*
Y45750D01*
X25800Y46150D02*
X26200Y45750D01*
X17050Y46150D02*
X25800D01*
X16700Y46500D02*
X17050Y46150D01*
X16700Y46500D02*
Y53900D01*
X17250Y54450D01*
X24544D01*
X25050Y53944D01*
X24650Y37950D02*
X25200Y37400D01*
X27400D01*
X27850Y36950D01*
X28450Y41000D02*
X31050D01*
X28100Y40650D02*
X28450Y41000D01*
X28100Y39443D02*
Y40650D01*
X28600Y39443D02*
Y40200D01*
X28950Y40550D01*
X29100Y41800D02*
Y42257D01*
Y41800D02*
X29200Y41700D01*
X31050D01*
X28950Y40550D02*
X31650D01*
X31950Y40850D01*
Y41750D01*
X30343Y42400D02*
X31050D01*
X29600Y42257D02*
X30200D01*
X30343Y42400D01*
X28100Y41350D02*
Y42257D01*
X27550Y40800D02*
X28100Y41350D01*
X27550Y38300D02*
Y40800D01*
Y38300D02*
X28050Y37800D01*
X29900D01*
Y38294D01*
X42900Y32250D02*
X43750Y33100D01*
Y34000D01*
X34750Y40050D02*
Y40450D01*
X34250Y39550D02*
X34750Y40050D01*
X34250Y33450D02*
Y39550D01*
Y33450D02*
X34650Y33050D01*
X42050D01*
X42850Y33850D01*
Y34850D01*
X43250Y35250D01*
X45950D01*
X46400Y34800D01*
Y32000D02*
Y34800D01*
X33700Y39850D02*
Y40400D01*
Y39850D02*
X34000Y39550D01*
Y33300D02*
Y39550D01*
Y33300D02*
X34500Y32800D01*
X42150D01*
X43050Y33700D01*
Y34750D01*
X43300Y35000D01*
X45850D01*
X46100Y34750D01*
Y32550D02*
Y34750D01*
X45600Y32050D02*
X46100Y32550D01*
X45600Y31650D02*
Y32050D01*
X59506Y32606D02*
Y32950D01*
X60556Y31550D02*
X60906Y31900D01*
X59650Y31550D02*
X60556D01*
X58550Y32250D02*
X59150D01*
X59506Y32606D01*
X29900Y33750D02*
Y37800D01*
Y33750D02*
X30900Y32750D01*
X34902Y50500D02*
X35400Y50002D01*
X33902Y50500D02*
X34400Y50002D01*
X37400Y52200D02*
Y55050D01*
X37750Y55400D01*
X43300D01*
X43902Y54798D01*
Y50500D02*
Y54798D01*
X38400Y52150D02*
Y54750D01*
X38750Y55100D01*
X42800D01*
X39400Y52150D02*
Y54350D01*
X39750Y54700D01*
X35400Y48850D02*
Y50002D01*
X35750Y48500D02*
X35900D01*
X35400Y48850D02*
X35750Y48500D01*
X42902Y50500D02*
X43050D01*
X43400Y50150D01*
X41902Y50500D02*
X42400Y50002D01*
X38902Y48598D02*
Y49500D01*
X37902Y48498D02*
Y49500D01*
X36902Y48348D02*
Y49500D01*
X43150Y53750D02*
Y53950D01*
X39750Y54700D02*
X42250D01*
X43075Y53875D01*
X43150Y53950D01*
X42800Y55100D02*
X43150Y54750D01*
X45100Y54150D02*
X45400Y53850D01*
X46902Y48802D02*
Y49500D01*
X31800Y31350D02*
Y31856D01*
X31300Y27950D02*
X31600D01*
X31000Y28250D02*
X31300Y27950D01*
X31000Y28250D02*
Y30550D01*
X31800Y31350D01*
Y32644D02*
Y40150D01*
X32600Y40950D01*
Y44200D01*
X33200Y44800D01*
X37650D01*
X34400Y45600D02*
Y50002D01*
Y45600D02*
X34650Y45350D01*
X36500D01*
X27850Y34050D02*
Y36950D01*
Y34050D02*
X29650Y32250D01*
X42900D01*
X43100Y40650D02*
X54500D01*
X55550Y39600D01*
X54600Y40850D02*
X55600Y39850D01*
X43100Y41450D02*
X43700Y40850D01*
X54600D01*
X45400Y48800D02*
Y53850D01*
Y48800D02*
X45700Y48500D01*
X46600D01*
X46902Y48802D01*
X43902Y47848D02*
Y49500D01*
Y47848D02*
X44400Y47350D01*
X46750D01*
X43400Y47500D02*
Y50150D01*
X44902Y48198D02*
Y49500D01*
Y48198D02*
X45200Y47900D01*
X46200D01*
X44100Y46800D02*
X47900D01*
X43400Y47500D02*
X44100Y46800D01*
X42400Y47450D02*
Y50002D01*
Y47450D02*
X43550Y46300D01*
X47300D01*
X43500Y45350D02*
X45700D01*
X37902Y48498D02*
X38350Y48050D01*
X40800D01*
X43500Y45350D01*
X36902Y48348D02*
X37500Y47750D01*
X40600D01*
X43550Y44800D01*
X34902Y48248D02*
Y49500D01*
Y48248D02*
X35700Y47450D01*
X40450D01*
X43400Y44500D01*
X49067D01*
X43500Y43950D02*
X48450D01*
X40350Y47100D02*
X43500Y43950D01*
X34900Y47100D02*
X40350D01*
X49550Y44017D02*
Y44050D01*
X49067Y44500D02*
X49550Y44017D01*
X43550Y44800D02*
X50200D01*
X30900Y25700D02*
X32650Y27450D01*
Y31050D01*
X48650Y14294D02*
Y15650D01*
X31200Y25600D02*
X33700Y28100D01*
Y31050D01*
X32650Y33600D02*
Y40550D01*
X33250Y43950D02*
X37800D01*
X33700Y42100D02*
X39050D01*
X32900Y34600D02*
Y40300D01*
Y34600D02*
X33450Y34050D01*
Y32950D02*
Y34050D01*
X32650Y40550D02*
X32850Y40750D01*
Y43550D01*
X33250Y43950D01*
X32900Y40300D02*
X33100Y40500D01*
Y41500D01*
X33700Y42100D01*
X30900Y16350D02*
Y25700D01*
Y16350D02*
X31600Y15650D01*
X44450D01*
X44800Y15300D01*
Y14344D02*
Y15300D01*
X48400Y15900D02*
X48650Y15650D01*
X31800Y15900D02*
X48400D01*
X31200Y16500D02*
Y25600D01*
Y16500D02*
X31800Y15900D01*
X43550Y45800D02*
X48950D01*
X38902Y48598D02*
X39150Y48350D01*
X41000D01*
X43550Y45800D01*
X53450Y39850D02*
X53650Y39650D01*
X45500Y39850D02*
X53450D01*
X44150Y39550D02*
X44750D01*
X45050Y39250D01*
X51050D01*
D31*
X13950Y38150D02*
X15655D01*
D32*
X28500Y22289D02*
Y26256D01*
X37950Y39154D02*
X38646D01*
X39000Y38800D01*
Y38500D02*
Y38800D01*
Y38500D02*
X39550Y37950D01*
X39150Y36700D02*
X39550D01*
X40056D01*
X45950Y50548D02*
Y51754D01*
X45902Y50500D02*
X45950Y50548D01*
X44304Y17900D02*
X44650D01*
X44956Y18206D01*
Y19408D01*
X63200Y45000D02*
X64050D01*
X64450Y44600D01*
Y43704D02*
Y44600D01*
X46902Y50500D02*
Y51753D01*
X46854Y51800D02*
X46902Y51753D01*
X39550Y36700D02*
Y37950D01*
X37050Y38046D02*
X37550D01*
X37950Y38446D01*
X38354D01*
X38696Y38104D01*
X38446Y36796D02*
X38696Y37046D01*
X38446Y35950D02*
Y36796D01*
X38696Y37046D02*
Y37700D01*
Y38104D01*
X35546Y35846D02*
X35900D01*
X35396Y35696D02*
X35546Y35846D01*
X35396Y34900D02*
Y35696D01*
Y34254D02*
Y34900D01*
Y34254D02*
X35650Y34000D01*
X40250D02*
X40604Y34354D01*
Y35950D01*
X45950Y51754D02*
X46096Y51900D01*
X28902Y50500D02*
Y52750D01*
X28900Y52752D02*
X28902Y52750D01*
X28900Y52752D02*
Y56300D01*
X40078Y36722D02*
X45778D01*
X47050Y35450D01*
Y25350D02*
Y35450D01*
X35650Y34000D02*
X40250D01*
D33*
X11500Y34250D02*
Y34950D01*
Y35575D01*
Y36250D01*
Y36900D01*
D34*
X60039Y50197D02*
D03*
X14764Y15945D02*
D03*
Y50197D02*
D03*
X60039Y15945D02*
D03*
X11811Y11811D02*
D03*
X62992D02*
D03*
X11811Y55118D02*
D03*
X62992D02*
D03*
D35*
X39300Y43150D02*
D03*
X40300D02*
D03*
X41300D02*
D03*
X20700Y21689D02*
D03*
X40450Y19861D02*
D03*
X28400Y20811D02*
D03*
X44950Y28500D02*
D03*
X43950D02*
D03*
X42950D02*
D03*
X41950D02*
D03*
D36*
X42300Y43150D02*
D03*
X45950Y28500D02*
D03*
D37*
X17804Y53550D02*
D03*
X20796D02*
D03*
X56750Y45200D02*
D03*
X55750D02*
D03*
X56750Y44200D02*
D03*
X55750D02*
D03*
X56750Y43200D02*
D03*
X55750D02*
D03*
Y42200D02*
D03*
X56750D02*
D03*
X51036Y28830D02*
D03*
X49264D02*
D03*
Y26270D02*
D03*
X51036D02*
D03*
X55036Y28780D02*
D03*
X53264D02*
D03*
Y26220D02*
D03*
X55036D02*
D03*
X63150Y25600D02*
D03*
Y24600D02*
D03*
Y23600D02*
D03*
Y22600D02*
D03*
Y21600D02*
D03*
D38*
X40750Y31560D02*
D03*
Y30340D02*
D03*
D39*
X31902Y49500D02*
D03*
Y50500D02*
D03*
X32902Y49500D02*
D03*
Y50500D02*
D03*
X33902Y49500D02*
D03*
Y50500D02*
D03*
X46902D02*
D03*
Y49500D02*
D03*
X45902Y50500D02*
D03*
Y49500D02*
D03*
X44902Y50500D02*
D03*
Y49500D02*
D03*
X43902D02*
D03*
Y50500D02*
D03*
X42902Y49500D02*
D03*
Y50500D02*
D03*
X41902Y49500D02*
D03*
Y50500D02*
D03*
X40902Y49500D02*
D03*
Y50500D02*
D03*
X39902Y49500D02*
D03*
Y50500D02*
D03*
X38902Y49500D02*
D03*
Y50500D02*
D03*
X37902Y49500D02*
D03*
Y50500D02*
D03*
X36902D02*
D03*
Y49500D02*
D03*
X35902Y50500D02*
D03*
Y49500D02*
D03*
X34902Y50500D02*
D03*
Y49500D02*
D03*
X30902Y50500D02*
D03*
Y49500D02*
D03*
X29902Y50500D02*
D03*
Y49500D02*
D03*
X28902Y50500D02*
D03*
Y49500D02*
D03*
X27902Y50500D02*
D03*
Y49500D02*
D03*
D40*
X33800Y12150D02*
D03*
Y13150D02*
D03*
X34800Y12150D02*
D03*
Y13150D02*
D03*
X35800Y12150D02*
D03*
Y13150D02*
D03*
X36800D02*
D03*
Y12150D02*
D03*
X37800Y13150D02*
D03*
Y12150D02*
D03*
D41*
X63250Y30950D02*
D03*
Y31950D02*
D03*
Y32950D02*
D03*
Y33950D02*
D03*
Y34950D02*
D03*
Y35950D02*
D03*
X11151Y26750D02*
D03*
X11149Y27750D02*
D03*
Y40600D02*
D03*
X11151Y39600D02*
D03*
X47666Y12550D02*
D03*
X48650D02*
D03*
X49634D02*
D03*
X43816D02*
D03*
X44800D02*
D03*
X45784D02*
D03*
X25416D02*
D03*
X26400D02*
D03*
X27384D02*
D03*
X63200Y43000D02*
D03*
Y44000D02*
D03*
Y45000D02*
D03*
Y46000D02*
D03*
D42*
X20700Y20311D02*
D03*
X40450Y21239D02*
D03*
X28400Y22189D02*
D03*
D43*
X19800Y26900D02*
D03*
X18800Y25900D02*
D03*
X17800Y26900D02*
D03*
X24350D02*
D03*
X23350Y25900D02*
D03*
X22350Y26900D02*
D03*
X12450Y20216D02*
D03*
X15300Y40700D02*
D03*
X14300Y41700D02*
D03*
X15300Y42700D02*
D03*
X11550Y29750D02*
D03*
Y30750D02*
D03*
X28600Y27950D02*
D03*
Y28950D02*
D03*
X31600D02*
D03*
D44*
X17350Y22200D02*
D03*
D45*
Y21200D02*
D03*
Y20200D02*
D03*
D46*
X24200Y20200D02*
D03*
D47*
Y21200D02*
D03*
Y22200D02*
D03*
D48*
X12450Y22184D02*
D03*
D49*
X11550Y31750D02*
D03*
X31600Y27950D02*
D03*
D50*
X22689Y44800D02*
D03*
X24611D02*
D03*
X39211Y28750D02*
D03*
X37289D02*
D03*
D51*
X53650Y39650D02*
D03*
X18800Y40100D02*
D03*
X15655Y36905D02*
D03*
X23604Y40296D02*
D03*
X23600Y42600D02*
D03*
X17550Y39700D02*
D03*
X16400Y29700D02*
D03*
X22700Y28796D02*
D03*
X11500Y35575D02*
D03*
Y34950D02*
D03*
Y36250D02*
D03*
X20150Y30000D02*
D03*
X20100Y24300D02*
D03*
X40450Y39650D02*
D03*
X37700Y39750D02*
D03*
X36700Y39500D02*
D03*
X39100Y36750D02*
D03*
X40078Y36722D02*
D03*
X42950Y31100D02*
D03*
X43950D02*
D03*
X44950D02*
D03*
X60200Y34244D02*
D03*
X59500Y34250D02*
D03*
X60600Y23650D02*
D03*
X52894Y33844D02*
D03*
X53700Y38700D02*
D03*
X52000Y38550D02*
D03*
X43100Y40650D02*
D03*
Y42200D02*
D03*
X40100Y37650D02*
D03*
X27500Y15050D02*
D03*
X37050Y26100D02*
D03*
X35050Y26050D02*
D03*
X34600Y26750D02*
D03*
X37050Y26900D02*
D03*
X57800Y24700D02*
D03*
X60150Y41500D02*
D03*
X35050Y25300D02*
D03*
X37050D02*
D03*
X39200Y11350D02*
D03*
X38500D02*
D03*
X36800Y36500D02*
D03*
X36700Y35700D02*
D03*
X19000Y50250D02*
D03*
X27350Y36750D02*
D03*
X22100Y34900D02*
D03*
X26750Y45100D02*
D03*
X64100Y41250D02*
D03*
Y41850D02*
D03*
X28900Y56300D02*
D03*
X45692Y21692D02*
D03*
X46358D02*
D03*
X33900Y21300D02*
D03*
X54100Y42200D02*
D03*
X30200Y11250D02*
D03*
X40100Y53750D02*
D03*
X31050Y41000D02*
D03*
Y41700D02*
D03*
X31950Y41750D02*
D03*
X31050Y42400D02*
D03*
X34750Y40450D02*
D03*
X33700Y40400D02*
D03*
X43750Y34000D02*
D03*
X46400Y32000D02*
D03*
X45600Y31650D02*
D03*
X59650Y31550D02*
D03*
X58550Y32250D02*
D03*
X30900Y32750D02*
D03*
X37400Y52200D02*
D03*
X38400Y52150D02*
D03*
X39400D02*
D03*
X35900Y48500D02*
D03*
X43150Y53750D02*
D03*
Y54750D02*
D03*
X45100Y54150D02*
D03*
X37650Y44800D02*
D03*
X36500Y45350D02*
D03*
X46750Y47350D02*
D03*
X46200Y47900D02*
D03*
X47900Y46800D02*
D03*
X47300Y46300D02*
D03*
X48950Y45800D02*
D03*
X45700Y45350D02*
D03*
X48450Y43950D02*
D03*
X34900Y47100D02*
D03*
X49550Y44050D02*
D03*
X50200Y44800D02*
D03*
X37800Y43950D02*
D03*
X39050Y42100D02*
D03*
X32650Y31050D02*
D03*
X33700D02*
D03*
X33450Y32950D02*
D03*
X32650Y33600D02*
D03*
X28450Y37050D02*
D03*
X28900Y34350D02*
D03*
X31150Y33700D02*
D03*
X30450Y35000D02*
D03*
X37250Y33750D02*
D03*
X41900Y34250D02*
D03*
X37800Y37400D02*
D03*
X39100Y39750D02*
D03*
X33650Y43000D02*
D03*
X35250D02*
D03*
X36500Y46300D02*
D03*
X37700Y46250D02*
D03*
X25750Y49350D02*
D03*
Y51700D02*
D03*
X32000Y52500D02*
D03*
X35900D02*
D03*
X44650Y51950D02*
D03*
X45050Y55450D02*
D03*
X40150Y44950D02*
D03*
X50450Y53300D02*
D03*
X56550Y53500D02*
D03*
X53000Y48300D02*
D03*
X62150Y48200D02*
D03*
X49150Y20400D02*
D03*
X52150D02*
D03*
X56000D02*
D03*
X60050Y20450D02*
D03*
X63950Y20250D02*
D03*
X64000Y17100D02*
D03*
Y14400D02*
D03*
X60600Y11000D02*
D03*
X51850Y11400D02*
D03*
X56250D02*
D03*
X46100Y18150D02*
D03*
X49150D02*
D03*
X49550Y16050D02*
D03*
X46950Y14650D02*
D03*
X41450Y15050D02*
D03*
X41350Y12500D02*
D03*
X33550Y16850D02*
D03*
X33600Y19750D02*
D03*
X40450Y17350D02*
D03*
X33300Y23800D02*
D03*
X39300Y23900D02*
D03*
X23750Y33750D02*
D03*
X27450Y32400D02*
D03*
X25600Y39250D02*
D03*
X20500Y47500D02*
D03*
Y50000D02*
D03*
X15500Y47450D02*
D03*
X11600D02*
D03*
X11550Y52450D02*
D03*
X15300Y56100D02*
D03*
X31100Y44400D02*
D03*
X31200Y47700D02*
D03*
X22100Y33650D02*
D03*
X41300Y24500D02*
D03*
X46700Y19400D02*
D03*
X41650Y41400D02*
D03*
X45500Y39850D02*
D03*
X44150Y39550D02*
D03*
X51050Y39250D02*
D03*
X51650Y42200D02*
D03*
M02*
