%FSLAX24Y24*%
%MOIN*%
G70*
G01*
G75*
G04 Layer_Color=32896*
%ADD10R,0.0374X0.0551*%
%ADD11R,0.0413X0.0551*%
%ADD12O,0.0866X0.0236*%
%ADD13R,0.0551X0.0374*%
%ADD14R,0.0394X0.0236*%
%ADD15R,0.1299X0.0945*%
%ADD16R,0.0394X0.0945*%
%ADD17R,0.0551X0.0413*%
%ADD18R,0.0236X0.0492*%
%ADD19R,0.0689X0.0394*%
%ADD20O,0.0984X0.0276*%
%ADD21R,0.1063X0.0453*%
%ADD22R,0.0571X0.0453*%
%ADD23R,0.0354X0.0197*%
%ADD24R,0.0453X0.0571*%
%ADD25O,0.0236X0.0669*%
G04:AMPARAMS|DCode=26|XSize=25.6mil|YSize=39.4mil|CornerRadius=6.4mil|HoleSize=0mil|Usage=FLASHONLY|Rotation=90.000|XOffset=0mil|YOffset=0mil|HoleType=Round|Shape=RoundedRectangle|*
%AMROUNDEDRECTD26*
21,1,0.0256,0.0266,0,0,90.0*
21,1,0.0128,0.0394,0,0,90.0*
1,1,0.0128,0.0133,0.0064*
1,1,0.0128,0.0133,-0.0064*
1,1,0.0128,-0.0133,-0.0064*
1,1,0.0128,-0.0133,0.0064*
%
%ADD26ROUNDEDRECTD26*%
%ADD27R,0.0236X0.0394*%
%ADD28C,0.0197*%
%ADD29C,0.0394*%
%ADD30C,0.0118*%
%ADD31C,0.0157*%
%ADD32C,0.0295*%
%ADD33C,0.0984*%
%ADD34C,0.2559*%
%ADD35C,0.0630*%
%ADD36R,0.0630X0.0630*%
%ADD37C,0.0787*%
%ADD38C,0.0512*%
%ADD39O,0.0669X0.0787*%
%ADD40O,0.0669X0.0748*%
%ADD41C,0.0748*%
%ADD42R,0.0630X0.0630*%
%ADD43C,0.0591*%
%ADD44R,0.0669X0.0669*%
%ADD45C,0.0669*%
%ADD46R,0.0709X0.0709*%
%ADD47C,0.0709*%
%ADD48R,0.0591X0.0591*%
G04:AMPARAMS|DCode=49|XSize=59.1mil|YSize=59.1mil|CornerRadius=0mil|HoleSize=0mil|Usage=FLASHONLY|Rotation=180.000|XOffset=0mil|YOffset=0mil|HoleType=Round|Shape=Octagon|*
%AMOCTAGOND49*
4,1,8,-0.0295,0.0148,-0.0295,-0.0148,-0.0148,-0.0295,0.0148,-0.0295,0.0295,-0.0148,0.0295,0.0148,0.0148,0.0295,-0.0148,0.0295,-0.0295,0.0148,0.0*
%
%ADD49OCTAGOND49*%

%ADD50C,0.0551*%
%ADD51C,0.0500*%
G04:AMPARAMS|DCode=52|XSize=40mil|YSize=60mil|CornerRadius=10mil|HoleSize=0mil|Usage=FLASHONLY|Rotation=180.000|XOffset=0mil|YOffset=0mil|HoleType=Round|Shape=RoundedRectangle|*
%AMROUNDEDRECTD52*
21,1,0.0400,0.0400,0,0,180.0*
21,1,0.0200,0.0600,0,0,180.0*
1,1,0.0200,-0.0100,0.0200*
1,1,0.0200,0.0100,0.0200*
1,1,0.0200,0.0100,-0.0200*
1,1,0.0200,-0.0100,-0.0200*
%
%ADD52ROUNDEDRECTD52*%
%ADD53O,0.0709X0.0118*%
%ADD54O,0.0118X0.0709*%
%ADD55C,0.0098*%
%ADD56C,0.0079*%
%ADD57C,0.0039*%
%ADD58C,0.0236*%
%ADD59C,0.0040*%
%ADD60C,0.0050*%
%ADD61C,0.0100*%
%ADD62R,0.0630X0.0217*%
%ADD63R,0.0454X0.0631*%
%ADD64R,0.0493X0.0631*%
%ADD65O,0.0946X0.0316*%
%ADD66R,0.0631X0.0454*%
%ADD67R,0.0474X0.0316*%
%ADD68R,0.1379X0.1025*%
%ADD69R,0.0474X0.1025*%
%ADD70R,0.0631X0.0493*%
%ADD71R,0.0316X0.0572*%
%ADD72R,0.0769X0.0474*%
%ADD73O,0.1064X0.0356*%
%ADD74R,0.1143X0.0533*%
%ADD75R,0.0651X0.0533*%
%ADD76R,0.0434X0.0277*%
%ADD77R,0.0533X0.0651*%
%ADD78O,0.0316X0.0749*%
G04:AMPARAMS|DCode=79|XSize=33.6mil|YSize=47.4mil|CornerRadius=10.4mil|HoleSize=0mil|Usage=FLASHONLY|Rotation=90.000|XOffset=0mil|YOffset=0mil|HoleType=Round|Shape=RoundedRectangle|*
%AMROUNDEDRECTD79*
21,1,0.0336,0.0266,0,0,90.0*
21,1,0.0128,0.0474,0,0,90.0*
1,1,0.0208,0.0133,0.0064*
1,1,0.0208,0.0133,-0.0064*
1,1,0.0208,-0.0133,-0.0064*
1,1,0.0208,-0.0133,0.0064*
%
%ADD79ROUNDEDRECTD79*%
%ADD80R,0.0316X0.0474*%
%ADD81C,0.1063*%
%ADD82C,0.2639*%
%ADD83C,0.0710*%
%ADD84R,0.0710X0.0710*%
%ADD85C,0.0867*%
%ADD86C,0.0592*%
%ADD87O,0.0749X0.0867*%
%ADD88O,0.0749X0.0828*%
%ADD89C,0.0828*%
%ADD90R,0.0710X0.0710*%
%ADD91C,0.0671*%
%ADD92R,0.0749X0.0749*%
%ADD93C,0.0749*%
%ADD94R,0.0789X0.0789*%
%ADD95C,0.0789*%
%ADD96R,0.0671X0.0671*%
G04:AMPARAMS|DCode=97|XSize=67.1mil|YSize=67.1mil|CornerRadius=0mil|HoleSize=0mil|Usage=FLASHONLY|Rotation=180.000|XOffset=0mil|YOffset=0mil|HoleType=Round|Shape=Octagon|*
%AMOCTAGOND97*
4,1,8,-0.0335,0.0168,-0.0335,-0.0168,-0.0168,-0.0335,0.0168,-0.0335,0.0335,-0.0168,0.0335,0.0168,0.0168,0.0335,-0.0168,0.0335,-0.0335,0.0168,0.0*
%
%ADD97OCTAGOND97*%

%ADD98C,0.0631*%
G04:AMPARAMS|DCode=99|XSize=48mil|YSize=68mil|CornerRadius=14mil|HoleSize=0mil|Usage=FLASHONLY|Rotation=180.000|XOffset=0mil|YOffset=0mil|HoleType=Round|Shape=RoundedRectangle|*
%AMROUNDEDRECTD99*
21,1,0.0480,0.0400,0,0,180.0*
21,1,0.0200,0.0680,0,0,180.0*
1,1,0.0280,-0.0100,0.0200*
1,1,0.0280,0.0100,0.0200*
1,1,0.0280,0.0100,-0.0200*
1,1,0.0280,-0.0100,-0.0200*
%
%ADD99ROUNDEDRECTD99*%
%ADD100O,0.0789X0.0198*%
%ADD101O,0.0198X0.0789*%
%ADD102C,0.0049*%
%ADD103C,0.0059*%
%ADD104R,0.0200X0.0800*%
D55*
X23836Y19409D02*
G03*
X23836Y19409I-49J0D01*
G01*
X34340Y34845D02*
G03*
X34340Y34845I-49J0D01*
G01*
X41387Y34728D02*
G03*
X41387Y34728I-49J0D01*
G01*
D56*
X22373Y21000D02*
G03*
X22373Y21000I-1673J0D01*
G01*
X42123Y20550D02*
G03*
X42123Y20550I-1673J0D01*
G01*
X17855Y25947D02*
G03*
X17855Y25947I-431J0D01*
G01*
X30073Y21500D02*
G03*
X30073Y21500I-1673J0D01*
G01*
X22405Y25947D02*
G03*
X22405Y25947I-431J0D01*
G01*
X14517Y21200D02*
G03*
X14517Y21200I-2067J0D01*
G01*
X14778Y43076D02*
G03*
X14778Y43076I-431J0D01*
G01*
X22390Y45607D02*
G03*
X22390Y43993I0J-807D01*
G01*
Y45715D02*
G03*
X22390Y43885I0J-915D01*
G01*
X24910D02*
G03*
X24910Y45715I0J915D01*
G01*
Y43993D02*
G03*
X24910Y45607I0J807D01*
G01*
X39510Y27943D02*
G03*
X39510Y29557I0J807D01*
G01*
Y27835D02*
G03*
X39510Y29665I0J915D01*
G01*
X36990D02*
G03*
X36990Y27835I0J-915D01*
G01*
Y29557D02*
G03*
X36990Y27943I0J-807D01*
G01*
X41800Y42650D02*
Y43650D01*
X42800Y42650D02*
Y43650D01*
X38800D02*
X42800D01*
X38800Y42650D02*
X42800D01*
X38800D02*
Y43650D01*
X29850Y36783D02*
Y37217D01*
X34990Y10900D02*
Y11400D01*
X36610Y10900D02*
Y11400D01*
X32300D02*
Y13900D01*
X39300D01*
Y11400D02*
Y13900D01*
X32300Y11400D02*
X39300D01*
X39800Y10900D02*
Y14400D01*
X31800Y10900D02*
X39800D01*
X31800D02*
Y14400D01*
X39800D01*
X37458Y10560D02*
X37798Y10900D01*
X38138Y10560D01*
X37458D02*
X38138D01*
X62108Y35950D02*
X62711D01*
Y30950D02*
Y35950D01*
X62108Y30950D02*
X62711D01*
X62502D02*
Y35950D01*
X62108Y31057D02*
X62502D01*
X62108Y35843D02*
X62502D01*
X62108Y30450D02*
Y36450D01*
Y30450D02*
X64392D01*
Y36450D01*
X62108D02*
X64392D01*
X20503Y19661D02*
X20897D01*
X20700Y19465D02*
Y19858D01*
X40253Y21889D02*
X40647D01*
X40450Y21692D02*
Y22085D01*
X16924Y25422D02*
X20676D01*
Y27374D01*
X20526D02*
X20676D01*
X20526Y27225D02*
Y27374D01*
X20085Y27225D02*
X20526D01*
X17074D02*
Y27374D01*
X16924D02*
X17074D01*
X16924Y25422D02*
Y27374D01*
X17074Y27225D02*
X17515D01*
X18085D02*
X19515D01*
X17051Y26164D02*
X17641Y25575D01*
X17207Y26320D02*
X17797Y25730D01*
X28203Y22839D02*
X28597D01*
X28400Y22642D02*
Y23035D01*
X16208Y19153D02*
Y23247D01*
Y19153D02*
X18019D01*
Y23247D01*
X16208Y23247D02*
X18019D01*
X16405Y19153D02*
Y23247D01*
X25342Y19153D02*
Y23247D01*
X23531D02*
X25342D01*
X23531Y19153D02*
Y23247D01*
Y19153D02*
X25342D01*
X25145Y19153D02*
Y23247D01*
X45450Y28000D02*
Y29000D01*
X41450Y28000D02*
Y29000D01*
Y28000D02*
X46450D01*
X41450Y29000D02*
X46450D01*
Y28000D02*
Y29000D01*
X21474Y25422D02*
X25226D01*
Y27374D01*
X25076D02*
X25226D01*
X25076Y27225D02*
Y27374D01*
X24635Y27225D02*
X25076D01*
X21624D02*
Y27374D01*
X21474D02*
X21624D01*
X21474Y25422D02*
Y27374D01*
X21624Y27225D02*
X22065D01*
X22635D02*
X24065D01*
X21601Y26164D02*
X22191Y25575D01*
X21757Y26320D02*
X22347Y25730D01*
X12450Y22617D02*
Y23011D01*
X12253Y22814D02*
X12647D01*
X10016Y26857D02*
X10410D01*
X10016Y27643D02*
X10410D01*
Y26750D02*
Y27750D01*
X10016Y26750D02*
X10618D01*
X10016Y27750D02*
X10618D01*
Y26750D02*
Y27750D01*
X10016Y26250D02*
Y28250D01*
X12300D01*
Y26250D02*
Y28250D01*
X10016Y26250D02*
X12300D01*
X13822Y39824D02*
Y43576D01*
Y39824D02*
X15774D01*
Y39974D01*
X15625D02*
X15774D01*
X15625D02*
Y40415D01*
Y43426D02*
X15774D01*
Y43576D01*
X13822D02*
X15774D01*
X15625Y42985D02*
Y43426D01*
Y40985D02*
Y42415D01*
X13975Y42859D02*
X14564Y43449D01*
X14130Y42703D02*
X14720Y43293D01*
X11890Y40493D02*
X12284D01*
X11890Y39707D02*
X12284D01*
X11890Y39600D02*
Y40600D01*
X11681D02*
X12284D01*
X11681Y39600D02*
X12284D01*
X11681D02*
Y40600D01*
X12284Y39100D02*
Y41100D01*
X10000Y39100D02*
X12284D01*
X10000D02*
Y41100D01*
X12284D01*
X47909Y12078D02*
X48407D01*
X47272Y11526D02*
Y12193D01*
X50028Y12907D02*
Y13810D01*
X47666Y11920D02*
X49634D01*
X47666Y11526D02*
Y12019D01*
X48893Y12078D02*
X49391D01*
X49634Y11526D02*
Y12019D01*
X50028Y11526D02*
Y12193D01*
X47272Y11526D02*
X50028D01*
X47272Y12907D02*
Y13810D01*
X50028D01*
X44059Y12078D02*
X44557D01*
X43422Y11526D02*
Y12193D01*
X46178Y12907D02*
Y13810D01*
X43816Y11920D02*
X45784D01*
X43816Y11526D02*
Y12019D01*
X45043Y12078D02*
X45541D01*
X45784Y11526D02*
Y12019D01*
X46178Y11526D02*
Y12193D01*
X43422Y11526D02*
X46178D01*
X43422Y12907D02*
Y13810D01*
X46178D01*
X25659Y12078D02*
X26157D01*
X25022Y11526D02*
Y12193D01*
X27778Y12907D02*
Y13810D01*
X25416Y11920D02*
X27384D01*
X25416Y11526D02*
Y12019D01*
X26643Y12078D02*
X27141D01*
X27384Y11526D02*
Y12019D01*
X27778Y11526D02*
Y12193D01*
X25022Y11526D02*
X27778D01*
X25022Y12907D02*
Y13810D01*
X27778D01*
X62065Y45893D02*
X62459D01*
X62065Y43107D02*
X62459D01*
Y43000D02*
Y46000D01*
X62065D02*
X62668D01*
Y43000D02*
Y46000D01*
X62065Y43000D02*
X62668D01*
X62065Y42500D02*
Y46500D01*
X64349D01*
Y42500D02*
Y46500D01*
X62065Y42500D02*
X64349D01*
X22390Y45607D02*
X24910D01*
X22390Y43993D02*
X24910D01*
X22390Y45715D02*
X24910D01*
X22390Y43885D02*
X24910D01*
X36990Y27943D02*
X39510D01*
X36990Y29557D02*
X39510D01*
X36990Y27835D02*
X39510D01*
X36990Y29665D02*
X39510D01*
X33200Y37033D02*
Y37467D01*
X33739Y34294D02*
Y34806D01*
X33818Y34294D02*
Y34806D01*
X33897Y34294D02*
Y34806D01*
X33365Y34294D02*
X34035D01*
X33365Y34806D02*
X34035D01*
X36239Y35239D02*
Y40161D01*
X41161Y35239D02*
Y40161D01*
X36239D02*
X41161D01*
X36239Y35239D02*
X41161D01*
X39000Y30374D02*
Y30826D01*
X37600Y30374D02*
Y30826D01*
X33204Y13334D02*
X33159Y13356D01*
X33091Y13424D01*
Y12951D01*
X32722Y13424D02*
X32790Y13401D01*
X32835Y13334D01*
X32857Y13221D01*
Y13154D01*
X32835Y13041D01*
X32790Y12974D01*
X32722Y12951D01*
X32677D01*
X32610Y12974D01*
X32565Y13041D01*
X32542Y13154D01*
Y13221D01*
X32565Y13334D01*
X32610Y13401D01*
X32677Y13424D01*
X32722D01*
X38666Y12310D02*
X38621Y12332D01*
X38554Y12400D01*
Y11928D01*
D58*
X40885Y35633D02*
G03*
X40885Y35633I-118J0D01*
G01*
D60*
X55250Y41700D02*
Y45700D01*
X57250D01*
Y41700D02*
Y45700D01*
X55250Y41700D02*
X57250D01*
X48950Y28750D02*
X50150D01*
X48950Y26350D02*
Y28750D01*
Y26350D02*
X51350D01*
Y28750D01*
X50150D02*
X51350D01*
X52950Y28700D02*
X54150D01*
X52950Y26300D02*
Y28700D01*
Y26300D02*
X55350D01*
Y28700D01*
X54150D02*
X55350D01*
X62650Y26100D02*
X63650D01*
Y21100D02*
Y26100D01*
X62650Y21100D02*
X63650D01*
X62650D02*
Y26100D01*
D61*
X21662Y53550D02*
G03*
X21662Y53550I-2362J0D01*
G01*
X50652Y27550D02*
G03*
X50652Y27550I-502J0D01*
G01*
X54652Y27500D02*
G03*
X54652Y27500I-502J0D01*
G01*
X46800Y46831D02*
X57600D01*
X46800Y41000D02*
Y46831D01*
Y41000D02*
X57600D01*
Y46831D01*
X30250Y35650D02*
Y36250D01*
X29950D01*
X29850Y36150D01*
Y35950D01*
X29950Y35850D01*
X30250D01*
X30050D02*
X29850Y35650D01*
X29650Y35750D02*
X29550Y35650D01*
X29350D01*
X29250Y35750D01*
Y36150D01*
X29350Y36250D01*
X29550D01*
X29650Y36150D01*
Y36050D01*
X29550Y35950D01*
X29250D01*
X32160Y38320D02*
Y37720D01*
X31760D01*
X31560Y38320D02*
Y37720D01*
X31260D01*
X31160Y37820D01*
Y38220D01*
X31260Y38320D01*
X31560D01*
X30960Y37720D02*
X30760D01*
X30860D01*
Y38320D01*
X30960Y38220D01*
X37800Y43450D02*
X37900Y43550D01*
X38100D01*
X38200Y43450D01*
Y43050D01*
X38100Y42950D01*
X37900D01*
X37800Y43050D01*
X37600Y42950D02*
X37400D01*
X37500D01*
Y43550D01*
X37600Y43450D01*
X37100D02*
X37000Y43550D01*
X36800D01*
X36700Y43450D01*
Y43050D01*
X36800Y42950D01*
X37000D01*
X37100Y43050D01*
Y43450D01*
X45990Y29840D02*
X46090Y29940D01*
X46290D01*
X46390Y29840D01*
Y29440D01*
X46290Y29340D01*
X46090D01*
X45990Y29440D01*
X45790Y29340D02*
X45590D01*
X45690D01*
Y29940D01*
X45790Y29840D01*
X45290D02*
X45190Y29940D01*
X44990D01*
X44890Y29840D01*
Y29740D01*
X44990Y29640D01*
X45090D01*
X44990D01*
X44890Y29540D01*
Y29440D01*
X44990Y29340D01*
X45190D01*
X45290Y29440D01*
X37850Y31650D02*
X37950Y31550D01*
Y31350D01*
X37850Y31250D01*
X37450D01*
X37350Y31350D01*
Y31550D01*
X37450Y31650D01*
X37350Y31850D02*
Y32050D01*
Y31950D01*
X37950D01*
X37850Y31850D01*
X37350Y32650D02*
X37950D01*
X37650Y32350D01*
Y32750D01*
X39250Y31700D02*
X39350Y31600D01*
Y31400D01*
X39250Y31300D01*
X38850D01*
X38750Y31400D01*
Y31600D01*
X38850Y31700D01*
X38750Y31900D02*
Y32100D01*
Y32000D01*
X39350D01*
X39250Y31900D01*
X39350Y32800D02*
Y32400D01*
X39050D01*
X39150Y32600D01*
Y32700D01*
X39050Y32800D01*
X38850D01*
X38750Y32700D01*
Y32500D01*
X38850Y32400D01*
X41660Y23060D02*
X41760Y23160D01*
X41960D01*
X42060Y23060D01*
Y22660D01*
X41960Y22560D01*
X41760D01*
X41660Y22660D01*
X41060Y22560D02*
X41460D01*
X41060Y22960D01*
Y23060D01*
X41160Y23160D01*
X41360D01*
X41460Y23060D01*
X40860D02*
X40760Y23160D01*
X40560D01*
X40461Y23060D01*
Y22960D01*
X40560Y22860D01*
X40461Y22760D01*
Y22660D01*
X40560Y22560D01*
X40760D01*
X40860Y22660D01*
Y22760D01*
X40760Y22860D01*
X40860Y22960D01*
Y23060D01*
X40760Y22860D02*
X40560D01*
X21910Y23510D02*
X22010Y23610D01*
X22210D01*
X22310Y23510D01*
Y23110D01*
X22210Y23010D01*
X22010D01*
X21910Y23110D01*
X21710Y23510D02*
X21610Y23610D01*
X21410D01*
X21310Y23510D01*
Y23410D01*
X21410Y23310D01*
X21510D01*
X21410D01*
X21310Y23210D01*
Y23110D01*
X21410Y23010D01*
X21610D01*
X21710Y23110D01*
X20711Y23610D02*
X21110D01*
Y23310D01*
X20910Y23410D01*
X20810D01*
X20711Y23310D01*
Y23110D01*
X20810Y23010D01*
X21010D01*
X21110Y23110D01*
X29610Y24010D02*
X29710Y24110D01*
X29910D01*
X30010Y24010D01*
Y23610D01*
X29910Y23510D01*
X29710D01*
X29610Y23610D01*
X29410Y24010D02*
X29310Y24110D01*
X29110D01*
X29010Y24010D01*
Y23910D01*
X29110Y23810D01*
X29210D01*
X29110D01*
X29010Y23710D01*
Y23610D01*
X29110Y23510D01*
X29310D01*
X29410Y23610D01*
X28810Y24110D02*
X28411D01*
Y24010D01*
X28810Y23610D01*
Y23510D01*
X14060Y24110D02*
X14160Y24210D01*
X14360D01*
X14460Y24110D01*
Y23710D01*
X14360Y23610D01*
X14160D01*
X14060Y23710D01*
X13860Y24110D02*
X13760Y24210D01*
X13560D01*
X13460Y24110D01*
Y24010D01*
X13560Y23910D01*
X13660D01*
X13560D01*
X13460Y23810D01*
Y23710D01*
X13560Y23610D01*
X13760D01*
X13860Y23710D01*
X13260Y24110D02*
X13160Y24210D01*
X12960D01*
X12861Y24110D01*
Y24010D01*
X12960Y23910D01*
X12861Y23810D01*
Y23710D01*
X12960Y23610D01*
X13160D01*
X13260Y23710D01*
Y23810D01*
X13160Y23910D01*
X13260Y24010D01*
Y24110D01*
X13160Y23910D02*
X12960D01*
X34400Y35840D02*
Y35240D01*
X34100D01*
X34000Y35340D01*
Y35740D01*
X34100Y35840D01*
X34400D01*
X33500Y35240D02*
Y35840D01*
X33800Y35540D01*
X33400D01*
X63580Y27030D02*
Y26430D01*
Y26730D01*
X63180D01*
Y27030D01*
Y26430D01*
X62980D02*
X62780D01*
X62880D01*
Y27030D01*
X62980Y26930D01*
X57170Y46620D02*
Y46020D01*
Y46320D01*
X56770D01*
Y46620D01*
Y46020D01*
X56570Y46520D02*
X56470Y46620D01*
X56270D01*
X56170Y46520D01*
Y46420D01*
X56270Y46320D01*
X56370D01*
X56270D01*
X56170Y46220D01*
Y46120D01*
X56270Y46020D01*
X56470D01*
X56570Y46120D01*
X23800Y53300D02*
Y52700D01*
Y53000D01*
X23400D01*
Y53300D01*
Y52700D01*
X23200D02*
Y53100D01*
X23000Y53300D01*
X22800Y53100D01*
Y52700D01*
Y53000D01*
X23200D01*
X22600Y52700D02*
X22400D01*
X22500D01*
Y53300D01*
X22600Y53200D01*
X63890Y47440D02*
X64090D01*
X63990D01*
Y46940D01*
X64090Y46840D01*
X64190D01*
X64290Y46940D01*
X63690Y46840D02*
X63490D01*
X63590D01*
Y47440D01*
X63690Y47340D01*
X49570Y14750D02*
X49770D01*
X49670D01*
Y14250D01*
X49770Y14150D01*
X49870D01*
X49970Y14250D01*
X48970Y14150D02*
X49370D01*
X48970Y14550D01*
Y14650D01*
X49070Y14750D01*
X49270D01*
X49370Y14650D01*
X27320Y14750D02*
X27520D01*
X27420D01*
Y14250D01*
X27520Y14150D01*
X27620D01*
X27720Y14250D01*
X27120Y14650D02*
X27020Y14750D01*
X26820D01*
X26720Y14650D01*
Y14550D01*
X26820Y14450D01*
X26920D01*
X26820D01*
X26720Y14350D01*
Y14250D01*
X26820Y14150D01*
X27020D01*
X27120Y14250D01*
X45720Y14750D02*
X45920D01*
X45820D01*
Y14250D01*
X45920Y14150D01*
X46020D01*
X46120Y14250D01*
X45220Y14150D02*
Y14750D01*
X45520Y14450D01*
X45120D01*
X63930Y37390D02*
X64130D01*
X64030D01*
Y36890D01*
X64130Y36790D01*
X64230D01*
X64330Y36890D01*
X63330Y37390D02*
X63730D01*
Y37090D01*
X63530Y37190D01*
X63430D01*
X63330Y37090D01*
Y36890D01*
X63430Y36790D01*
X63630D01*
X63730Y36890D01*
X39340Y15340D02*
X39540D01*
X39440D01*
Y14840D01*
X39540Y14740D01*
X39640D01*
X39740Y14840D01*
X38740Y15340D02*
X38940Y15240D01*
X39140Y15040D01*
Y14840D01*
X39040Y14740D01*
X38840D01*
X38740Y14840D01*
Y14940D01*
X38840Y15040D01*
X39140D01*
X11820Y42040D02*
X12020D01*
X11920D01*
Y41540D01*
X12020Y41440D01*
X12120D01*
X12220Y41540D01*
X11620Y42040D02*
X11220D01*
Y41940D01*
X11620Y41540D01*
Y41440D01*
X11840Y29190D02*
X12040D01*
X11940D01*
Y28690D01*
X12040Y28590D01*
X12140D01*
X12240Y28690D01*
X11640Y29090D02*
X11540Y29190D01*
X11340D01*
X11240Y29090D01*
Y28990D01*
X11340Y28890D01*
X11240Y28790D01*
Y28690D01*
X11340Y28590D01*
X11540D01*
X11640Y28690D01*
Y28790D01*
X11540Y28890D01*
X11640Y28990D01*
Y29090D01*
X11540Y28890D02*
X11340D01*
X15710Y43920D02*
Y44520D01*
X15410D01*
X15310Y44420D01*
Y44220D01*
X15410Y44120D01*
X15710D01*
X15110Y43920D02*
X14910D01*
X15010D01*
Y44520D01*
X15110Y44420D01*
X25170Y27710D02*
Y28310D01*
X24870D01*
X24770Y28210D01*
Y28010D01*
X24870Y27910D01*
X25170D01*
X24170Y27710D02*
X24570D01*
X24170Y28110D01*
Y28210D01*
X24270Y28310D01*
X24470D01*
X24570Y28210D01*
X20620Y27710D02*
Y28310D01*
X20320D01*
X20220Y28210D01*
Y28010D01*
X20320Y27910D01*
X20620D01*
X20020Y28210D02*
X19920Y28310D01*
X19720D01*
X19620Y28210D01*
Y28110D01*
X19720Y28010D01*
X19820D01*
X19720D01*
X19620Y27910D01*
Y27810D01*
X19720Y27710D01*
X19920D01*
X20020Y27810D01*
X40300Y27050D02*
Y27450D01*
X40400Y27550D01*
X40600D01*
X40700Y27450D01*
Y27050D01*
X40600Y26950D01*
X40400D01*
X40500Y27150D02*
X40300Y26950D01*
X40400D02*
X40300Y27050D01*
X40100Y26950D02*
X39900D01*
X40000D01*
Y27550D01*
X40100Y27450D01*
X26700Y44600D02*
Y45000D01*
X26800Y45100D01*
X27000D01*
X27100Y45000D01*
Y44600D01*
X27000Y44500D01*
X26800D01*
X26900Y44700D02*
X26700Y44500D01*
X26800D02*
X26700Y44600D01*
X26100Y44500D02*
X26500D01*
X26100Y44900D01*
Y45000D01*
X26200Y45100D01*
X26400D01*
X26500Y45000D01*
X33800Y37930D02*
Y38530D01*
X33500D01*
X33400Y38430D01*
Y38230D01*
X33500Y38130D01*
X33800D01*
X33600D02*
X33400Y37930D01*
X32800Y38530D02*
X33000Y38430D01*
X33200Y38230D01*
Y38030D01*
X33100Y37930D01*
X32900D01*
X32800Y38030D01*
Y38130D01*
X32900Y38230D01*
X33200D01*
X54970Y30010D02*
X55070Y30110D01*
X55270D01*
X55370Y30010D01*
Y29910D01*
X55270Y29810D01*
X55070D01*
X54970Y29710D01*
Y29610D01*
X55070Y29510D01*
X55270D01*
X55370Y29610D01*
X54770Y30110D02*
Y29510D01*
X54470D01*
X54370Y29610D01*
Y29710D01*
X54470Y29810D01*
X54770D01*
X54470D01*
X54370Y29910D01*
Y30010D01*
X54470Y30110D01*
X54770D01*
X54170Y29510D02*
X53970D01*
X54070D01*
Y30110D01*
X54170Y30010D01*
X50970Y30060D02*
X51070Y30160D01*
X51270D01*
X51370Y30060D01*
Y29960D01*
X51270Y29860D01*
X51070D01*
X50970Y29760D01*
Y29660D01*
X51070Y29560D01*
X51270D01*
X51370Y29660D01*
X50770Y30160D02*
Y29560D01*
X50470D01*
X50370Y29660D01*
Y29760D01*
X50470Y29860D01*
X50770D01*
X50470D01*
X50370Y29960D01*
Y30060D01*
X50470Y30160D01*
X50770D01*
X49771Y29560D02*
X50170D01*
X49771Y29960D01*
Y30060D01*
X49870Y30160D01*
X50070D01*
X50170Y30060D01*
X12050Y32990D02*
X11650D01*
X11850D01*
Y32390D01*
X11050Y32990D02*
X11450D01*
Y32690D01*
X11250Y32790D01*
X11150D01*
X11050Y32690D01*
Y32490D01*
X11150Y32390D01*
X11350D01*
X11450Y32490D01*
X42040Y42040D02*
Y41540D01*
X41940Y41440D01*
X41740D01*
X41640Y41540D01*
Y42040D01*
X41440Y41440D02*
X41240D01*
X41340D01*
Y42040D01*
X41440Y41940D01*
X18760Y24190D02*
Y23690D01*
X18660Y23590D01*
X18460D01*
X18360Y23690D01*
Y24190D01*
X18160D02*
X17760D01*
Y24090D01*
X18160Y23690D01*
Y23590D01*
X25282Y24190D02*
Y23690D01*
X25182Y23590D01*
X24983D01*
X24883Y23690D01*
Y24190D01*
X24683Y24090D02*
X24583Y24190D01*
X24383D01*
X24283Y24090D01*
Y23990D01*
X24383Y23890D01*
X24283Y23790D01*
Y23690D01*
X24383Y23590D01*
X24583D01*
X24683Y23690D01*
Y23790D01*
X24583Y23890D01*
X24683Y23990D01*
Y24090D01*
X24583Y23890D02*
X24383D01*
X57550Y23250D02*
X57650Y23350D01*
X57850D01*
X57950Y23250D01*
Y23150D01*
X57850Y23050D01*
X57650D01*
X57550Y22950D01*
Y22850D01*
X57650Y22750D01*
X57850D01*
X57950Y22850D01*
X57350Y22550D02*
Y23150D01*
X57050D01*
X56950Y23050D01*
Y22850D01*
X57050Y22750D01*
X57350D01*
X56750D02*
X56550D01*
X56650D01*
Y23150D01*
X56750D01*
X56251D02*
Y22750D01*
Y22950D01*
X56151Y23050D01*
X56051Y23150D01*
X55951D01*
X55551Y23250D02*
Y23150D01*
X55651D01*
X55451D01*
X55551D01*
Y22850D01*
X55451Y22750D01*
X54151Y23150D02*
X54451D01*
X54551Y23050D01*
Y22850D01*
X54451Y22750D01*
X54151D01*
X53851D02*
X53651D01*
X53551Y22850D01*
Y23050D01*
X53651Y23150D01*
X53851D01*
X53951Y23050D01*
Y22850D01*
X53851Y22750D01*
X53351D02*
Y23150D01*
X53052D01*
X52952Y23050D01*
Y22750D01*
X52652Y23250D02*
Y23150D01*
X52752D01*
X52552D01*
X52652D01*
Y22850D01*
X52552Y22750D01*
X52252Y23150D02*
Y22750D01*
Y22950D01*
X52152Y23050D01*
X52052Y23150D01*
X51952D01*
X51552Y22750D02*
X51352D01*
X51252Y22850D01*
Y23050D01*
X51352Y23150D01*
X51552D01*
X51652Y23050D01*
Y22850D01*
X51552Y22750D01*
X51052D02*
X50852D01*
X50952D01*
Y23350D01*
X51052D01*
X50552Y22750D02*
X50352D01*
X50452D01*
Y23350D01*
X50552D01*
X49753Y22750D02*
X49953D01*
X50053Y22850D01*
Y23050D01*
X49953Y23150D01*
X49753D01*
X49653Y23050D01*
Y22950D01*
X50053D01*
X49453Y23150D02*
Y22750D01*
Y22950D01*
X49353Y23050D01*
X49253Y23150D01*
X49153D01*
X48253D02*
X48053Y22750D01*
X47853Y23150D01*
X47653Y22750D02*
Y22850D01*
X47553D01*
Y22750D01*
X47653D01*
X46154D02*
X46554D01*
X46154Y23150D01*
Y23250D01*
X46254Y23350D01*
X46454D01*
X46554Y23250D01*
X45954Y22750D02*
Y22850D01*
X45854D01*
Y22750D01*
X45954D01*
X45454Y23250D02*
X45354Y23350D01*
X45154D01*
X45054Y23250D01*
Y22850D01*
X45154Y22750D01*
X45354D01*
X45454Y22850D01*
Y23250D01*
X57900Y18900D02*
Y19500D01*
X57500Y18900D01*
Y19500D01*
X57300Y18900D02*
X57100D01*
X57200D01*
Y19300D01*
X57300D01*
X56800Y18900D02*
Y19500D01*
Y19100D02*
X56500Y19300D01*
X56800Y19100D02*
X56500Y18900D01*
X56101D02*
X55901D01*
X55801Y19000D01*
Y19200D01*
X55901Y19300D01*
X56101D01*
X56201Y19200D01*
Y19000D01*
X56101Y18900D01*
X55601Y18700D02*
Y19300D01*
X55301D01*
X55201Y19200D01*
Y19000D01*
X55301Y18900D01*
X55601D01*
X54901D02*
X54701D01*
X54601Y19000D01*
Y19200D01*
X54701Y19300D01*
X54901D01*
X55001Y19200D01*
Y19000D01*
X54901Y18900D01*
X54401D02*
X54201D01*
X54301D01*
Y19500D01*
X54401D01*
X53102Y18900D02*
X53301Y19100D01*
Y19300D01*
X53102Y19500D01*
X52402Y19400D02*
X52502Y19500D01*
X52702D01*
X52802Y19400D01*
Y19000D01*
X52702Y18900D01*
X52502D01*
X52402Y19000D01*
X52202Y18900D02*
X52002Y19100D01*
Y19300D01*
X52202Y19500D01*
X57500Y20650D02*
X57600Y20750D01*
X57800D01*
X57900Y20650D01*
Y20250D01*
X57800Y20150D01*
X57600D01*
X57500Y20250D01*
X57300Y20150D02*
Y20750D01*
X57000D01*
X56900Y20650D01*
Y20450D01*
X57000Y20350D01*
X57300D01*
X56700Y20750D02*
Y20250D01*
X56600Y20150D01*
X56400D01*
X56301Y20250D01*
Y20750D01*
X55501Y20150D02*
Y20750D01*
X55201D01*
X55101Y20650D01*
Y20450D01*
X55201Y20350D01*
X55501D01*
X54501Y20650D02*
X54601Y20750D01*
X54801D01*
X54901Y20650D01*
Y20250D01*
X54801Y20150D01*
X54601D01*
X54501Y20250D01*
X54301Y20750D02*
Y20150D01*
X54001D01*
X53901Y20250D01*
Y20350D01*
X54001Y20450D01*
X54301D01*
X54001D01*
X53901Y20550D01*
Y20650D01*
X54001Y20750D01*
X54301D01*
X53102Y20550D02*
X52902Y20150D01*
X52702Y20550D01*
X52502Y20150D02*
Y20250D01*
X52402D01*
Y20150D01*
X52502D01*
X51402D02*
X51202D01*
X51302D01*
Y20750D01*
X51402Y20650D01*
X50902Y20150D02*
Y20250D01*
X50802D01*
Y20150D01*
X50902D01*
X50402Y20650D02*
X50302Y20750D01*
X50103D01*
X50003Y20650D01*
Y20250D01*
X50103Y20150D01*
X50302D01*
X50402Y20250D01*
Y20650D01*
X57600Y21900D02*
X57700Y22000D01*
X57900D01*
X58000Y21900D01*
Y21500D01*
X57900Y21400D01*
X57700D01*
X57600Y21500D01*
X57300Y21400D02*
X57100D01*
X57000Y21500D01*
Y21700D01*
X57100Y21800D01*
X57300D01*
X57400Y21700D01*
Y21500D01*
X57300Y21400D01*
X56800D02*
Y21800D01*
X56500D01*
X56401Y21700D01*
Y21400D01*
X56101Y21900D02*
Y21800D01*
X56201D01*
X56001D01*
X56101D01*
Y21500D01*
X56001Y21400D01*
X55701Y21800D02*
Y21400D01*
Y21600D01*
X55601Y21700D01*
X55501Y21800D01*
X55401D01*
X55001Y21400D02*
X54801D01*
X54701Y21500D01*
Y21700D01*
X54801Y21800D01*
X55001D01*
X55101Y21700D01*
Y21500D01*
X55001Y21400D01*
X54501D02*
X54301D01*
X54401D01*
Y22000D01*
X54501D01*
X53401Y21400D02*
Y21800D01*
X53302D01*
X53202Y21700D01*
Y21400D01*
Y21700D01*
X53102Y21800D01*
X53002Y21700D01*
Y21400D01*
X52702D02*
X52502D01*
X52402Y21500D01*
Y21700D01*
X52502Y21800D01*
X52702D01*
X52802Y21700D01*
Y21500D01*
X52702Y21400D01*
X51802Y22000D02*
Y21400D01*
X52102D01*
X52202Y21500D01*
Y21700D01*
X52102Y21800D01*
X51802D01*
X51602D02*
Y21500D01*
X51502Y21400D01*
X51202D01*
Y21800D01*
X51002Y21400D02*
X50802D01*
X50902D01*
Y22000D01*
X51002D01*
X50203Y21400D02*
X50402D01*
X50502Y21500D01*
Y21700D01*
X50402Y21800D01*
X50203D01*
X50103Y21700D01*
Y21600D01*
X50502D01*
X52550Y16350D02*
Y15750D01*
X52350Y15950D01*
X52150Y15750D01*
Y16350D01*
X51850Y16150D02*
X51650D01*
X51550Y16050D01*
Y15750D01*
X51850D01*
X51950Y15850D01*
X51850Y15950D01*
X51550D01*
X51250Y16250D02*
Y16150D01*
X51350D01*
X51150D01*
X51250D01*
Y15850D01*
X51150Y15750D01*
X50551D02*
X50751D01*
X50851Y15850D01*
Y16050D01*
X50751Y16150D01*
X50551D01*
X50451Y16050D01*
Y15950D01*
X50851D01*
X50251Y16150D02*
Y15750D01*
Y15950D01*
X50151Y16050D01*
X50051Y16150D01*
X49951D01*
X49051Y15750D02*
X48751D01*
X48651Y15850D01*
X48751Y15950D01*
X48951D01*
X49051Y16050D01*
X48951Y16150D01*
X48651D01*
X48151Y15750D02*
X48351D01*
X48451Y15850D01*
Y16050D01*
X48351Y16150D01*
X48151D01*
X48051Y16050D01*
Y15950D01*
X48451D01*
X47852Y15750D02*
Y16150D01*
X47552D01*
X47452Y16050D01*
Y15750D01*
X47252D02*
Y15850D01*
X47152D01*
Y15750D01*
X47252D01*
X46100D02*
Y16350D01*
X45800D01*
X45700Y16250D01*
Y16050D01*
X45800Y15950D01*
X46100D01*
X45500Y16350D02*
Y15750D01*
X45300Y15950D01*
X45100Y15750D01*
Y16350D01*
X44900Y15750D02*
Y16350D01*
X44700Y16150D01*
X44501Y16350D01*
Y15750D01*
X43301D02*
X43701D01*
X43301Y16150D01*
Y16250D01*
X43401Y16350D01*
X43601D01*
X43701Y16250D01*
X27750Y15750D02*
X27550D01*
X27650D01*
Y16350D01*
X27750Y16250D01*
X27250Y16050D02*
X26850D01*
X26650Y16350D02*
Y15750D01*
X26450Y15950D01*
X26250Y15750D01*
Y16350D01*
X26051Y15750D02*
X25851D01*
X25951D01*
Y16150D01*
X26051D01*
X25551D02*
Y15750D01*
Y15950D01*
X25451Y16050D01*
X25351Y16150D01*
X25251D01*
X24651Y15750D02*
X24851D01*
X24951Y15850D01*
Y16050D01*
X24851Y16150D01*
X24651D01*
X24551Y16050D01*
Y15950D01*
X24951D01*
X61300Y44050D02*
X61400Y43950D01*
Y43750D01*
X61300Y43650D01*
X61200D01*
X61100Y43750D01*
Y43950D01*
X61000Y44050D01*
X60900D01*
X60800Y43950D01*
Y43750D01*
X60900Y43650D01*
X61400Y44250D02*
X60800D01*
X61000Y44450D01*
X60800Y44650D01*
X61400D01*
Y44850D02*
X60800D01*
Y45150D01*
X60900Y45249D01*
X61300D01*
X61400Y45150D01*
Y44850D01*
X60700Y29950D02*
X61300D01*
Y30250D01*
X61200Y30350D01*
X61000D01*
X60900Y30250D01*
Y29950D01*
X60700Y30650D02*
Y30850D01*
X60800Y30950D01*
X61000D01*
X61100Y30850D01*
Y30650D01*
X61000Y30550D01*
X60800D01*
X60700Y30650D01*
X61100Y31150D02*
X60800D01*
X60700Y31250D01*
X60800Y31350D01*
X60700Y31450D01*
X60800Y31549D01*
X61100D01*
X60700Y32049D02*
Y31849D01*
X60800Y31749D01*
X61000D01*
X61100Y31849D01*
Y32049D01*
X61000Y32149D01*
X60900D01*
Y31749D01*
X61100Y32349D02*
X60700D01*
X60900D01*
X61000Y32449D01*
X61100Y32549D01*
Y32649D01*
X60700Y33549D02*
X61100D01*
Y33649D01*
X61000Y33749D01*
X60700D01*
X61000D01*
X61100Y33849D01*
X61000Y33949D01*
X60700D01*
Y34249D02*
Y34449D01*
X60800Y34549D01*
X61000D01*
X61100Y34449D01*
Y34249D01*
X61000Y34149D01*
X60800D01*
X60700Y34249D01*
X61300Y35148D02*
X60700D01*
Y34848D01*
X60800Y34748D01*
X61000D01*
X61100Y34848D01*
Y35148D01*
Y35348D02*
X60800D01*
X60700Y35448D01*
Y35748D01*
X61100D01*
X60700Y35948D02*
Y36148D01*
Y36048D01*
X61300D01*
Y35948D01*
X60700Y36748D02*
Y36548D01*
X60800Y36448D01*
X61000D01*
X61100Y36548D01*
Y36748D01*
X61000Y36848D01*
X60900D01*
Y36448D01*
X61300Y20400D02*
X61700D01*
X61900Y20600D01*
X61700Y20800D01*
X61300D01*
X61600D01*
Y20400D01*
X61300Y21000D02*
Y21200D01*
Y21100D01*
X61900D01*
Y21000D01*
X61700Y21900D02*
Y21600D01*
X61600Y21500D01*
X61400D01*
X61300Y21600D01*
Y21900D01*
Y22199D02*
Y22399D01*
X61400Y22499D01*
X61600D01*
X61700Y22399D01*
Y22199D01*
X61600Y22099D01*
X61400D01*
X61300Y22199D01*
Y23299D02*
Y23599D01*
X61400Y23699D01*
X61500Y23599D01*
Y23399D01*
X61600Y23299D01*
X61700Y23399D01*
Y23699D01*
X61300Y24199D02*
Y23999D01*
X61400Y23899D01*
X61600D01*
X61700Y23999D01*
Y24199D01*
X61600Y24299D01*
X61500D01*
Y23899D01*
X61300Y24499D02*
X61700D01*
Y24799D01*
X61600Y24899D01*
X61300D01*
Y25098D02*
Y25398D01*
X61400Y25498D01*
X61500Y25398D01*
Y25198D01*
X61600Y25098D01*
X61700Y25198D01*
Y25498D01*
X61300Y25798D02*
Y25998D01*
X61400Y26098D01*
X61600D01*
X61700Y25998D01*
Y25798D01*
X61600Y25698D01*
X61400D01*
X61300Y25798D01*
X61700Y26298D02*
X61300D01*
X61500D01*
X61600Y26398D01*
X61700Y26498D01*
Y26598D01*
X39550Y15750D02*
Y16350D01*
X39250D01*
X39150Y16250D01*
Y16050D01*
X39250Y15950D01*
X39550D01*
X38850Y15750D02*
X38650D01*
X38550Y15850D01*
Y16050D01*
X38650Y16150D01*
X38850D01*
X38950Y16050D01*
Y15850D01*
X38850Y15750D01*
X38350Y16150D02*
Y15850D01*
X38250Y15750D01*
X38150Y15850D01*
X38050Y15750D01*
X37951Y15850D01*
Y16150D01*
X37451Y15750D02*
X37651D01*
X37751Y15850D01*
Y16050D01*
X37651Y16150D01*
X37451D01*
X37351Y16050D01*
Y15950D01*
X37751D01*
X37151Y16150D02*
Y15750D01*
Y15950D01*
X37051Y16050D01*
X36951Y16150D01*
X36851D01*
X35551Y16250D02*
X35651Y16350D01*
X35851D01*
X35951Y16250D01*
Y16150D01*
X35851Y16050D01*
X35651D01*
X35551Y15950D01*
Y15850D01*
X35651Y15750D01*
X35851D01*
X35951Y15850D01*
X35351Y16150D02*
Y15850D01*
X35251Y15750D01*
X34951D01*
Y16150D01*
X34752Y15550D02*
Y16150D01*
X34452D01*
X34352Y16050D01*
Y15850D01*
X34452Y15750D01*
X34752D01*
X34152Y15550D02*
Y16150D01*
X33852D01*
X33752Y16050D01*
Y15850D01*
X33852Y15750D01*
X34152D01*
X33552D02*
X33352D01*
X33452D01*
Y16350D01*
X33552D01*
X33052Y16150D02*
Y15850D01*
X32952Y15750D01*
X32652D01*
Y15650D01*
X32752Y15550D01*
X32852D01*
X32652Y15750D02*
Y16150D01*
X19400Y29100D02*
Y29700D01*
X19200Y29500D01*
X19000Y29700D01*
Y29100D01*
X18800D02*
X18600D01*
X18700D01*
Y29500D01*
X18800D01*
X18300Y29100D02*
Y29500D01*
X18000D01*
X17900Y29400D01*
Y29100D01*
X24200D02*
Y29700D01*
X24000Y29500D01*
X23800Y29700D01*
Y29100D01*
X23500Y29500D02*
X23300D01*
X23200Y29400D01*
Y29100D01*
X23500D01*
X23600Y29200D01*
X23500Y29300D01*
X23200D01*
X23000Y29500D02*
X22601Y29100D01*
X22800Y29300D01*
X22601Y29500D01*
X23000Y29100D01*
X12800Y25150D02*
X13200D01*
X13400Y25350D01*
X13200Y25550D01*
X12800D01*
X13100D01*
Y25150D01*
X13400Y26050D02*
Y25850D01*
X13300Y25750D01*
X12900D01*
X12800Y25850D01*
Y26050D01*
X12900Y26150D01*
X13300D01*
X13400Y26050D01*
Y26350D02*
X12900D01*
X12800Y26450D01*
Y26650D01*
X12900Y26749D01*
X13400D01*
Y26949D02*
Y27349D01*
Y27149D01*
X12800D01*
Y28449D02*
X13400D01*
X13100Y28149D01*
Y28549D01*
X12800Y28749D02*
X12900D01*
Y28849D01*
X12800D01*
Y28749D01*
Y29249D02*
X12900D01*
Y29349D01*
X12800D01*
Y29249D01*
Y30148D02*
Y29749D01*
X13200Y30148D01*
X13300D01*
X13400Y30048D01*
Y29848D01*
X13300Y29749D01*
Y30348D02*
X13400Y30448D01*
Y30648D01*
X13300Y30748D01*
X12900D01*
X12800Y30648D01*
Y30448D01*
X12900Y30348D01*
X13300D01*
X12800Y31548D02*
X13200D01*
Y31648D01*
X13100Y31748D01*
X12800D01*
X13100D01*
X13200Y31848D01*
X13100Y31948D01*
X12800D01*
Y32148D02*
X13200D01*
X13400Y32348D01*
X13200Y32548D01*
X12800D01*
X13100D01*
Y32148D01*
X12750Y36650D02*
X13150D01*
X13350Y36850D01*
X13150Y37050D01*
X12750D01*
X13050D01*
Y36650D01*
X13350Y37250D02*
Y37450D01*
Y37350D01*
X12750D01*
Y37250D01*
Y37450D01*
Y37750D02*
X13350D01*
X12750Y38150D01*
X13350D01*
X12750Y39249D02*
X13350D01*
X13050Y38949D01*
Y39349D01*
X12750Y39549D02*
X12850D01*
Y39649D01*
X12750D01*
Y39549D01*
Y40049D02*
X12850D01*
Y40149D01*
X12750D01*
Y40049D01*
Y40949D02*
Y40549D01*
X13150Y40949D01*
X13250D01*
X13350Y40849D01*
Y40649D01*
X13250Y40549D01*
Y41149D02*
X13350Y41249D01*
Y41448D01*
X13250Y41548D01*
X12850D01*
X12750Y41448D01*
Y41249D01*
X12850Y41149D01*
X13250D01*
X12750Y42348D02*
X13150D01*
Y42448D01*
X13050Y42548D01*
X12750D01*
X13050D01*
X13150Y42648D01*
X13050Y42748D01*
X12750D01*
Y42948D02*
X13150D01*
X13350Y43148D01*
X13150Y43348D01*
X12750D01*
X13050D01*
Y42948D01*
X44900Y27400D02*
Y26800D01*
X44600D01*
X44500Y26900D01*
Y27300D01*
X44600Y27400D01*
X44900D01*
X44300D02*
X44100D01*
X44200D01*
Y26800D01*
X44300D01*
X44100D01*
X43500Y27400D02*
X43700D01*
X43800Y27300D01*
Y26900D01*
X43700Y26800D01*
X43500D01*
X43400Y26900D01*
Y27300D01*
X43500Y27400D01*
X42250Y44900D02*
Y44300D01*
X41950D01*
X41850Y44400D01*
Y44800D01*
X41950Y44900D01*
X42250D01*
X41350Y44300D02*
X41550D01*
X41650Y44400D01*
Y44600D01*
X41550Y44700D01*
X41350D01*
X41250Y44600D01*
Y44500D01*
X41650D01*
X41050Y44900D02*
Y44300D01*
X40750D01*
X40651Y44400D01*
Y44500D01*
Y44600D01*
X40750Y44700D01*
X41050D01*
X40451D02*
Y44400D01*
X40351Y44300D01*
X40051D01*
Y44700D01*
X39651Y44100D02*
X39551D01*
X39451Y44200D01*
Y44700D01*
X39751D01*
X39851Y44600D01*
Y44400D01*
X39751Y44300D01*
X39451D01*
X53663Y44381D02*
X54450D01*
Y43200D01*
X53663D01*
X54450Y43790D02*
X54056D01*
X52482Y44184D02*
X52679Y44381D01*
X53072D01*
X53269Y44184D01*
Y43987D01*
X53072Y43790D01*
X52679D01*
X52482Y43594D01*
Y43397D01*
X52679Y43200D01*
X53072D01*
X53269Y43397D01*
X52089Y43200D02*
Y44381D01*
X51498D01*
X51301Y44184D01*
Y43790D01*
X51498Y43594D01*
X52089D01*
X50908Y43790D02*
X50121D01*
X49727Y44184D02*
X49530Y44381D01*
X49137D01*
X48940Y44184D01*
Y43397D01*
X49137Y43200D01*
X49530D01*
X49727Y43397D01*
Y44184D01*
X48546Y43200D02*
X48153D01*
X48350D01*
Y44381D01*
X48546Y44184D01*
X51450Y24800D02*
Y25400D01*
X51150D01*
X51050Y25300D01*
Y25100D01*
X51150Y25000D01*
X51450D01*
X51250D02*
X51050Y24800D01*
X50550D02*
X50750D01*
X50850Y24900D01*
Y25100D01*
X50750Y25200D01*
X50550D01*
X50450Y25100D01*
Y25000D01*
X50850D01*
X50250Y24800D02*
X49950D01*
X49851Y24900D01*
X49950Y25000D01*
X50150D01*
X50250Y25100D01*
X50150Y25200D01*
X49851D01*
X49351Y24800D02*
X49551D01*
X49651Y24900D01*
Y25100D01*
X49551Y25200D01*
X49351D01*
X49251Y25100D01*
Y25000D01*
X49651D01*
X48951Y25300D02*
Y25200D01*
X49051D01*
X48851D01*
X48951D01*
Y24900D01*
X48851Y24800D01*
X55200Y25400D02*
Y24800D01*
X54900D01*
X54800Y24900D01*
Y25000D01*
X54900Y25100D01*
X55200D01*
X54900D01*
X54800Y25200D01*
Y25300D01*
X54900Y25400D01*
X55200D01*
X54500Y24800D02*
X54300D01*
X54200Y24900D01*
Y25100D01*
X54300Y25200D01*
X54500D01*
X54600Y25100D01*
Y24900D01*
X54500Y24800D01*
X53900D02*
X53700D01*
X53601Y24900D01*
Y25100D01*
X53700Y25200D01*
X53900D01*
X54000Y25100D01*
Y24900D01*
X53900Y24800D01*
X53301Y25300D02*
Y25200D01*
X53401D01*
X53201D01*
X53301D01*
Y24900D01*
X53201Y24800D01*
D102*
X12050Y31600D02*
G03*
X12050Y29910I-505J-845D01*
G01*
X12050Y29910D02*
X12050Y31600D01*
X32239Y36606D02*
Y37394D01*
X30861Y36606D02*
Y37394D01*
X32239D01*
X30861Y36606D02*
X32239D01*
D103*
X64118Y30863D02*
X64137Y30901D01*
X64193Y30957D01*
X63799D01*
X18305Y21397D02*
X18206Y21298D01*
Y21102D01*
X18305Y21003D01*
X18403D01*
X18502Y21102D01*
Y21200D01*
Y21102D01*
X18600Y21003D01*
X18698D01*
X18797Y21102D01*
Y21298D01*
X18698Y21397D01*
X18797Y20003D02*
Y20397D01*
X18403Y20003D01*
X18305D01*
X18206Y20102D01*
Y20298D01*
X18305Y20397D01*
X18797Y22298D02*
Y22102D01*
Y22200D01*
X18206D01*
X18305Y22298D01*
X12019Y26663D02*
X12038Y26701D01*
X12094Y26757D01*
X11700D01*
X10281Y40687D02*
X10262Y40649D01*
X10206Y40593D01*
X10600D01*
X49733Y13420D02*
X49695Y13439D01*
X49639Y13495D01*
Y13101D01*
X45883Y13420D02*
X45845Y13439D01*
X45789Y13495D01*
Y13101D01*
X27483Y13420D02*
X27445Y13439D01*
X27389Y13495D01*
Y13101D01*
X64068Y42917D02*
X64087Y42955D01*
X64143Y43011D01*
X63749D01*
D104*
X31050Y37000D02*
D03*
M02*
