%FSLAX24Y24*%
%MOIN*%
G70*
G01*
G75*
G04 Layer_Color=8388736*
%ADD10R,0.0374X0.0551*%
%ADD11R,0.0413X0.0551*%
%ADD12O,0.0866X0.0236*%
%ADD13R,0.0551X0.0374*%
%ADD14R,0.0394X0.0236*%
%ADD15R,0.1299X0.0945*%
%ADD16R,0.0394X0.0945*%
%ADD17R,0.0551X0.0413*%
%ADD18R,0.0236X0.0492*%
%ADD19R,0.0689X0.0394*%
%ADD20O,0.0984X0.0276*%
%ADD21R,0.1063X0.0453*%
%ADD22R,0.0571X0.0453*%
%ADD23R,0.0354X0.0197*%
%ADD24R,0.0453X0.0571*%
%ADD25O,0.0236X0.0669*%
G04:AMPARAMS|DCode=26|XSize=25.6mil|YSize=39.4mil|CornerRadius=6.4mil|HoleSize=0mil|Usage=FLASHONLY|Rotation=90.000|XOffset=0mil|YOffset=0mil|HoleType=Round|Shape=RoundedRectangle|*
%AMROUNDEDRECTD26*
21,1,0.0256,0.0266,0,0,90.0*
21,1,0.0128,0.0394,0,0,90.0*
1,1,0.0128,0.0133,0.0064*
1,1,0.0128,0.0133,-0.0064*
1,1,0.0128,-0.0133,-0.0064*
1,1,0.0128,-0.0133,0.0064*
%
%ADD26ROUNDEDRECTD26*%
%ADD27R,0.0236X0.0394*%
%ADD28C,0.0197*%
%ADD29C,0.0394*%
%ADD30C,0.0118*%
%ADD31C,0.0157*%
%ADD32C,0.0295*%
%ADD33C,0.0984*%
%ADD34C,0.2559*%
%ADD35C,0.0630*%
%ADD36R,0.0630X0.0630*%
%ADD37C,0.0787*%
%ADD38C,0.0512*%
%ADD39O,0.0669X0.0787*%
%ADD40O,0.0669X0.0748*%
%ADD41C,0.0748*%
%ADD42R,0.0630X0.0630*%
%ADD43C,0.0591*%
%ADD44R,0.0669X0.0669*%
%ADD45C,0.0669*%
%ADD46R,0.0709X0.0709*%
%ADD47C,0.0709*%
%ADD48R,0.0591X0.0591*%
G04:AMPARAMS|DCode=49|XSize=59.1mil|YSize=59.1mil|CornerRadius=0mil|HoleSize=0mil|Usage=FLASHONLY|Rotation=180.000|XOffset=0mil|YOffset=0mil|HoleType=Round|Shape=Octagon|*
%AMOCTAGOND49*
4,1,8,-0.0295,0.0148,-0.0295,-0.0148,-0.0148,-0.0295,0.0148,-0.0295,0.0295,-0.0148,0.0295,0.0148,0.0148,0.0295,-0.0148,0.0295,-0.0295,0.0148,0.0*
%
%ADD49OCTAGOND49*%

%ADD50C,0.0551*%
%ADD51C,0.0500*%
G04:AMPARAMS|DCode=52|XSize=40mil|YSize=60mil|CornerRadius=10mil|HoleSize=0mil|Usage=FLASHONLY|Rotation=180.000|XOffset=0mil|YOffset=0mil|HoleType=Round|Shape=RoundedRectangle|*
%AMROUNDEDRECTD52*
21,1,0.0400,0.0400,0,0,180.0*
21,1,0.0200,0.0600,0,0,180.0*
1,1,0.0200,-0.0100,0.0200*
1,1,0.0200,0.0100,0.0200*
1,1,0.0200,0.0100,-0.0200*
1,1,0.0200,-0.0100,-0.0200*
%
%ADD52ROUNDEDRECTD52*%
%ADD53O,0.0709X0.0118*%
%ADD54O,0.0118X0.0709*%
%ADD55C,0.0098*%
%ADD56C,0.0079*%
%ADD57C,0.0039*%
%ADD58C,0.0236*%
%ADD59C,0.0040*%
%ADD60C,0.0050*%
%ADD61C,0.0100*%
%ADD62R,0.0630X0.0217*%
%ADD63R,0.0454X0.0631*%
%ADD64R,0.0493X0.0631*%
%ADD65O,0.0946X0.0316*%
%ADD66R,0.0631X0.0454*%
%ADD67R,0.0474X0.0316*%
%ADD68R,0.1379X0.1025*%
%ADD69R,0.0474X0.1025*%
%ADD70R,0.0631X0.0493*%
%ADD71R,0.0316X0.0572*%
%ADD72R,0.0769X0.0474*%
%ADD73O,0.1064X0.0356*%
%ADD74R,0.1143X0.0533*%
%ADD75R,0.0651X0.0533*%
%ADD76R,0.0434X0.0277*%
%ADD77R,0.0533X0.0651*%
%ADD78O,0.0316X0.0749*%
G04:AMPARAMS|DCode=79|XSize=33.6mil|YSize=47.4mil|CornerRadius=10.4mil|HoleSize=0mil|Usage=FLASHONLY|Rotation=90.000|XOffset=0mil|YOffset=0mil|HoleType=Round|Shape=RoundedRectangle|*
%AMROUNDEDRECTD79*
21,1,0.0336,0.0266,0,0,90.0*
21,1,0.0128,0.0474,0,0,90.0*
1,1,0.0208,0.0133,0.0064*
1,1,0.0208,0.0133,-0.0064*
1,1,0.0208,-0.0133,-0.0064*
1,1,0.0208,-0.0133,0.0064*
%
%ADD79ROUNDEDRECTD79*%
%ADD80R,0.0316X0.0474*%
%ADD81C,0.1063*%
%ADD82C,0.2639*%
%ADD83C,0.0710*%
%ADD84R,0.0710X0.0710*%
%ADD85C,0.0867*%
%ADD86C,0.0592*%
%ADD87O,0.0749X0.0867*%
%ADD88O,0.0749X0.0828*%
%ADD89C,0.0828*%
%ADD90R,0.0710X0.0710*%
%ADD91C,0.0671*%
%ADD92R,0.0749X0.0749*%
%ADD93C,0.0749*%
%ADD94R,0.0789X0.0789*%
%ADD95C,0.0789*%
%ADD96R,0.0671X0.0671*%
G04:AMPARAMS|DCode=97|XSize=67.1mil|YSize=67.1mil|CornerRadius=0mil|HoleSize=0mil|Usage=FLASHONLY|Rotation=180.000|XOffset=0mil|YOffset=0mil|HoleType=Round|Shape=Octagon|*
%AMOCTAGOND97*
4,1,8,-0.0335,0.0168,-0.0335,-0.0168,-0.0168,-0.0335,0.0168,-0.0335,0.0335,-0.0168,0.0335,0.0168,0.0168,0.0335,-0.0168,0.0335,-0.0335,0.0168,0.0*
%
%ADD97OCTAGOND97*%

%ADD98C,0.0631*%
D63*
X30344Y52750D02*
D03*
X29556D02*
D03*
X60244Y35900D02*
D03*
X59456D02*
D03*
X61744Y34950D02*
D03*
X60956D02*
D03*
X61744Y31950D02*
D03*
X60956D02*
D03*
X52894Y32100D02*
D03*
X52106D02*
D03*
X62244Y46000D02*
D03*
X61456D02*
D03*
X62244Y44050D02*
D03*
X61456D02*
D03*
X28344Y52750D02*
D03*
X27556D02*
D03*
X60594Y24600D02*
D03*
X59806D02*
D03*
X62094Y23600D02*
D03*
X61306D02*
D03*
X24906Y29500D02*
D03*
X25694D02*
D03*
X22306D02*
D03*
X23094D02*
D03*
X23256Y44200D02*
D03*
X24044D02*
D03*
X17394Y42450D02*
D03*
X16606D02*
D03*
X13006Y31750D02*
D03*
X13794D02*
D03*
X15456Y31050D02*
D03*
X16244D02*
D03*
X22094Y39700D02*
D03*
X21306D02*
D03*
X22844Y37850D02*
D03*
X22056D02*
D03*
X20944Y34750D02*
D03*
X20156D02*
D03*
X53806Y30850D02*
D03*
X54594D02*
D03*
X29894Y38300D02*
D03*
X29106D02*
D03*
X27956Y43500D02*
D03*
X28744D02*
D03*
X17406Y50250D02*
D03*
X18194D02*
D03*
X13006Y30900D02*
D03*
X13794D02*
D03*
X37494Y34900D02*
D03*
X36706D02*
D03*
X60294Y32950D02*
D03*
X59506D02*
D03*
D64*
X50554Y27100D02*
D03*
X49846D02*
D03*
X38446Y35950D02*
D03*
X39154D02*
D03*
X40604D02*
D03*
X39896D02*
D03*
X46046Y51950D02*
D03*
X46754D02*
D03*
X23946Y43300D02*
D03*
X24654D02*
D03*
X23254D02*
D03*
X22546D02*
D03*
X22896Y39700D02*
D03*
X23604D02*
D03*
X44304Y17900D02*
D03*
X43596D02*
D03*
X49054Y11550D02*
D03*
X48346D02*
D03*
X26804Y11600D02*
D03*
X26096D02*
D03*
X45204Y11400D02*
D03*
X44496D02*
D03*
X55704Y35700D02*
D03*
X54996D02*
D03*
X35396Y34900D02*
D03*
X36104D02*
D03*
X38696Y37700D02*
D03*
X39404D02*
D03*
X39746Y39000D02*
D03*
X40454D02*
D03*
D65*
X56295Y36650D02*
D03*
Y37150D02*
D03*
Y37650D02*
D03*
Y38150D02*
D03*
X54405Y36650D02*
D03*
Y37150D02*
D03*
Y37650D02*
D03*
Y38150D02*
D03*
X19245Y28500D02*
D03*
Y29000D02*
D03*
Y29500D02*
D03*
Y30000D02*
D03*
Y30500D02*
D03*
Y31000D02*
D03*
Y31500D02*
D03*
X17355Y28500D02*
D03*
Y29000D02*
D03*
Y29500D02*
D03*
Y30000D02*
D03*
Y30500D02*
D03*
Y31000D02*
D03*
Y31500D02*
D03*
X15655Y39150D02*
D03*
Y38650D02*
D03*
Y38150D02*
D03*
Y37650D02*
D03*
X17545Y39150D02*
D03*
Y38650D02*
D03*
Y38150D02*
D03*
Y37650D02*
D03*
D66*
X55600Y30744D02*
D03*
Y29956D02*
D03*
X44800Y13556D02*
D03*
Y14344D02*
D03*
X48650Y13506D02*
D03*
Y14294D02*
D03*
X16600Y39906D02*
D03*
Y40694D02*
D03*
X14550Y29794D02*
D03*
Y29006D02*
D03*
X13300Y38806D02*
D03*
Y39594D02*
D03*
X14400Y38544D02*
D03*
Y37756D02*
D03*
X26400Y13656D02*
D03*
Y14444D02*
D03*
X27450Y13656D02*
D03*
Y14444D02*
D03*
X53000Y37356D02*
D03*
Y38144D02*
D03*
X52000Y36956D02*
D03*
Y37744D02*
D03*
X59750Y23844D02*
D03*
Y23056D02*
D03*
X56150Y29294D02*
D03*
Y28506D02*
D03*
X42950Y30444D02*
D03*
Y29656D02*
D03*
X43950Y30444D02*
D03*
Y29656D02*
D03*
X44950Y30394D02*
D03*
Y29606D02*
D03*
X57900Y42256D02*
D03*
Y43044D02*
D03*
X58950Y42256D02*
D03*
Y43044D02*
D03*
X28500Y26256D02*
D03*
Y27044D02*
D03*
X15450Y29794D02*
D03*
Y29006D02*
D03*
X37450Y35756D02*
D03*
Y36544D02*
D03*
X25050Y53156D02*
D03*
Y53944D02*
D03*
X31800Y31856D02*
D03*
Y32644D02*
D03*
D67*
X53697Y32100D02*
D03*
X54603Y32474D02*
D03*
Y31726D02*
D03*
X26803Y52750D02*
D03*
X25897Y52376D02*
D03*
Y53124D02*
D03*
D68*
X44050Y21692D02*
D03*
D69*
X44956Y19408D02*
D03*
X44050D02*
D03*
X43144D02*
D03*
D70*
X13550Y21604D02*
D03*
Y20896D02*
D03*
X19400Y20746D02*
D03*
Y21454D02*
D03*
X26800Y21804D02*
D03*
Y21096D02*
D03*
X20600Y30796D02*
D03*
Y31504D02*
D03*
X41600Y20954D02*
D03*
Y20246D02*
D03*
X58800Y23096D02*
D03*
Y23804D02*
D03*
X61950Y21696D02*
D03*
Y22404D02*
D03*
X26850Y42104D02*
D03*
Y41396D02*
D03*
X56800Y41254D02*
D03*
Y40546D02*
D03*
X21550Y29504D02*
D03*
Y28796D02*
D03*
X35900Y35846D02*
D03*
Y36554D02*
D03*
X37050Y38046D02*
D03*
Y38754D02*
D03*
X37950Y38446D02*
D03*
Y39154D02*
D03*
X42300Y41546D02*
D03*
Y42254D02*
D03*
X64400Y43704D02*
D03*
Y42996D02*
D03*
D71*
X20700Y37872D02*
D03*
X20200D02*
D03*
X19700D02*
D03*
X19200D02*
D03*
Y35628D02*
D03*
X19700D02*
D03*
X20200D02*
D03*
X20700D02*
D03*
D72*
X18800Y41061D02*
D03*
Y42439D02*
D03*
X57750Y22461D02*
D03*
Y23839D02*
D03*
D73*
X22565Y40800D02*
D03*
Y41300D02*
D03*
Y41800D02*
D03*
Y42300D02*
D03*
X20635Y40800D02*
D03*
Y41300D02*
D03*
Y41800D02*
D03*
Y42300D02*
D03*
D74*
X11500Y33941D02*
D03*
Y32759D02*
D03*
Y37209D02*
D03*
Y38391D02*
D03*
D75*
X23950Y28796D02*
D03*
Y29504D02*
D03*
X13650Y29046D02*
D03*
Y29754D02*
D03*
X13300Y37346D02*
D03*
Y38054D02*
D03*
D76*
X51688Y27850D02*
D03*
X52712D02*
D03*
X54762D02*
D03*
X53738D02*
D03*
D77*
X53846Y30050D02*
D03*
X54554D02*
D03*
D78*
X28100Y39443D02*
D03*
X28600D02*
D03*
X29100D02*
D03*
X29600D02*
D03*
X28100Y42257D02*
D03*
X28600D02*
D03*
X29100D02*
D03*
X29600D02*
D03*
D79*
X27494Y28726D02*
D03*
Y29474D02*
D03*
X26706Y29100D02*
D03*
X27494Y27026D02*
D03*
Y27774D02*
D03*
X26706Y27400D02*
D03*
D80*
X17800Y52303D02*
D03*
X18174Y51397D02*
D03*
X17426D02*
D03*
D81*
X11500Y34250D02*
Y34950D01*
Y35575D01*
Y36250D01*
Y36900D01*
D82*
X60039Y50197D02*
D03*
X14764Y15945D02*
D03*
Y50197D02*
D03*
X60039Y15945D02*
D03*
X11811Y11811D02*
D03*
X62992D02*
D03*
X11811Y55118D02*
D03*
X62992D02*
D03*
D83*
X39300Y43150D02*
D03*
X40300D02*
D03*
X41300D02*
D03*
X20700Y21689D02*
D03*
X40450Y19861D02*
D03*
X28400Y20811D02*
D03*
X44950Y28500D02*
D03*
X43950D02*
D03*
X42950D02*
D03*
X41950D02*
D03*
D84*
X42300Y43150D02*
D03*
X45950Y28500D02*
D03*
D85*
X17804Y53550D02*
D03*
X20796D02*
D03*
X56750Y45200D02*
D03*
X55750D02*
D03*
X56750Y44200D02*
D03*
X55750D02*
D03*
X56750Y43200D02*
D03*
X55750D02*
D03*
Y42200D02*
D03*
X56750D02*
D03*
X51036Y28830D02*
D03*
X49264D02*
D03*
Y26270D02*
D03*
X51036D02*
D03*
X55036Y28780D02*
D03*
X53264D02*
D03*
Y26220D02*
D03*
X55036D02*
D03*
X63150Y25600D02*
D03*
Y24600D02*
D03*
Y23600D02*
D03*
Y22600D02*
D03*
Y21600D02*
D03*
D86*
X40750Y31560D02*
D03*
Y30340D02*
D03*
D87*
X31902Y49500D02*
D03*
Y50500D02*
D03*
X32902Y49500D02*
D03*
Y50500D02*
D03*
X33902Y49500D02*
D03*
Y50500D02*
D03*
X46902D02*
D03*
Y49500D02*
D03*
X45902Y50500D02*
D03*
Y49500D02*
D03*
X44902Y50500D02*
D03*
Y49500D02*
D03*
X43902D02*
D03*
Y50500D02*
D03*
X42902Y49500D02*
D03*
Y50500D02*
D03*
X41902Y49500D02*
D03*
Y50500D02*
D03*
X40902Y49500D02*
D03*
Y50500D02*
D03*
X39902Y49500D02*
D03*
Y50500D02*
D03*
X38902Y49500D02*
D03*
Y50500D02*
D03*
X37902Y49500D02*
D03*
Y50500D02*
D03*
X36902D02*
D03*
Y49500D02*
D03*
X35902Y50500D02*
D03*
Y49500D02*
D03*
X34902Y50500D02*
D03*
Y49500D02*
D03*
X30902Y50500D02*
D03*
Y49500D02*
D03*
X29902Y50500D02*
D03*
Y49500D02*
D03*
X28902Y50500D02*
D03*
Y49500D02*
D03*
X27902Y50500D02*
D03*
Y49500D02*
D03*
D88*
X33800Y12150D02*
D03*
Y13150D02*
D03*
X34800Y12150D02*
D03*
Y13150D02*
D03*
X35800Y12150D02*
D03*
Y13150D02*
D03*
X36800D02*
D03*
Y12150D02*
D03*
X37800Y13150D02*
D03*
Y12150D02*
D03*
D89*
X63250Y30950D02*
D03*
Y31950D02*
D03*
Y32950D02*
D03*
Y33950D02*
D03*
Y34950D02*
D03*
Y35950D02*
D03*
X11151Y26750D02*
D03*
X11149Y27750D02*
D03*
Y40600D02*
D03*
X11151Y39600D02*
D03*
X47666Y12550D02*
D03*
X48650D02*
D03*
X49634D02*
D03*
X43816D02*
D03*
X44800D02*
D03*
X45784D02*
D03*
X25416D02*
D03*
X26400D02*
D03*
X27384D02*
D03*
X63200Y43000D02*
D03*
Y44000D02*
D03*
Y45000D02*
D03*
Y46000D02*
D03*
D90*
X20700Y20311D02*
D03*
X40450Y21239D02*
D03*
X28400Y22189D02*
D03*
D91*
X19800Y26900D02*
D03*
X18800Y25900D02*
D03*
X17800Y26900D02*
D03*
X24350D02*
D03*
X23350Y25900D02*
D03*
X22350Y26900D02*
D03*
X12450Y20216D02*
D03*
X15300Y40700D02*
D03*
X14300Y41700D02*
D03*
X15300Y42700D02*
D03*
X11550Y29750D02*
D03*
Y30750D02*
D03*
X28600Y27950D02*
D03*
Y28950D02*
D03*
X31600D02*
D03*
D92*
X17350Y22200D02*
D03*
D93*
Y21200D02*
D03*
Y20200D02*
D03*
D94*
X24200Y20200D02*
D03*
D95*
Y21200D02*
D03*
Y22200D02*
D03*
D96*
X12450Y22184D02*
D03*
D97*
X11550Y31750D02*
D03*
X31600Y27950D02*
D03*
D98*
X22689Y44800D02*
D03*
X24611D02*
D03*
X39211Y28750D02*
D03*
X37289D02*
D03*
M02*
