M48
;Layer_Color=9474304
;FILE_FORMAT=2:4
INCH,LZ
;TYPE=PLATED
T1F00S00C0.0197
T2F00S00C0.0315
T3F00S00C0.0354
T4F00S00C0.0394
T5F00S00C0.0433
T6F00S00C0.0472
T7F00S00C0.1378
%
T01
X0302Y01125
X0275Y01505
X04145
X04135Y0125
X0392Y01135
X0385
X04695Y01465
X05185Y0114
X05625
X0606Y011
X064Y0144
Y0171
X06395Y02025
X06005Y02045
X0606Y02365
X0578Y0247
X056Y0204
X05215
X04915
Y01815
X04955Y01605
X0461Y01815
X0467Y0194
X046358Y021692
X045692
X0413Y0245
X0393Y0239
X03705Y0253
Y0261
Y0269
X0346Y02675
X03505Y02605
Y0253
X0333Y0238
X0339Y0213
X0336Y01975
X03355Y01685
X04045Y01735
X04295Y0311
X04395
X04495
X0337Y03105
X03265
X0227Y028796
X02015Y03
X0164Y0297
X0201Y0243
X0115Y03495
Y035575
Y03625
X015655Y036905
X01755Y0397
X0188Y0401
X023604Y040296
X0236Y0426
X0256Y03925
X02735Y03675
X02845Y03705
X0289Y03435
X03045Y035
X03115Y0337
X0309Y03275
X02745Y0324
X02375Y03375
X0221Y03365
Y0349
X02675Y0451
X0311Y0444
X03105Y0424
Y0417
Y041
X03195Y04175
X03365Y043
X03525
X03475Y04045
X0337Y0404
X0367Y0395
X0377Y03975
X0391
X04045Y03965
X0401Y03765
X040078Y036722
X0391Y03675
X0378Y0374
X0368Y0365
X0367Y0357
X03725Y03375
X03345Y03295
X03265Y0336
X0419Y03425
X04375Y034
X0456Y03165
X0464Y032
X0455Y03985
X04415Y03955
X0431Y04065
Y0422
X04165Y0414
X03905Y0421
X0378Y04395
X03765Y0448
X0377Y04625
X0365Y0463
Y04535
X04015Y04495
X0457Y04535
X0473Y0463
X0479Y0468
X04895Y0458
X0502Y0448
X04955Y04405
X04845Y04395
X05165Y0422
X0541
X05365Y03965
X0537Y0387
X052Y03855
X05105Y03925
X052894Y033844
X0595Y03425
X0602Y034244
X05965Y03155
X05855Y03225
X06015Y0415
X0641Y04125
Y04185
X06215Y0482
X053Y0483
X05045Y0533
X05655Y0535
X0451Y05415
X04505Y05545
X04315Y05475
Y05375
X0401
X0394Y05215
X0384
X0374Y0522
X0359Y0525
X032
X0359Y0485
X0349Y0471
X04675Y04735
X0462Y0479
X04465Y05195
X0312Y0477
X02575Y04935
Y0517
X0205Y05
X019Y05025
X0205Y0475
X0289Y0563
X0153Y0561
X01155Y05245
X0116Y04745
X0155
T02
X0316Y02795
Y02895
X037289Y02875
X039211
X04075Y03034
X0286Y02895
Y02795
X02435Y0269
X02335Y0259
X02235Y0269
X0198
X0188Y0259
X0178Y0269
X01155Y02975
Y03075
Y03175
X0153Y0407
X0143Y0417
X0153Y0427
X022689Y0448
X024611
X04075Y03156
X020796Y05355
X017804
T03
X049264Y02627
X051036
X053264Y02622
X055036
Y02878
X053264
X051036Y02883
X049264
X04045Y021239
Y019861
X0284Y020811
Y022189
X0207Y021689
Y020311
X01245Y020216
Y022184
X05575Y0422
Y0432
Y0442
Y0452
X05675
Y0442
Y0432
Y0422
X046902Y0495
Y0505
X045902
Y0495
X044902
Y0505
X043902
Y0495
X042902
Y0505
X041902
Y0495
X040902
Y0505
X039902
Y0495
X038902
Y0505
X037902
Y0495
X036902
Y0505
X035902
Y0495
X034902
X033902
X032902
X031902
Y0505
X032902
X033902
X034902
X030902
Y0495
X029902
Y0505
X028902
Y0495
X027902
Y0505
T04
X06315Y0216
Y0226
Y0236
Y0246
Y0256
T05
X0338Y01215
Y01315
X0348
Y01215
X0358
Y01315
X0368
Y01215
X0378
Y01315
X04195Y0285
X04295
X04395
X04495
X04595
X01735Y0222
Y0212
Y0202
X0393Y04315
X0403
X0413
X0423
T06
X025416Y01255
X0264
X027384
X043816
X0448
X045784
X047666
X04865
X049634
X06325Y03095
X0242Y0222
Y0212
Y0202
X011151Y02675
X011149Y02775
X011151Y0396
X011149Y0406
X0632Y043
Y044
Y045
Y046
X06325Y03595
Y03495
Y03395
Y03295
Y03195
T07
X011811Y011811
X062992
X060039Y015945
X014764
X062992Y055118
X060039Y050197
X014764
X011811Y055118
M30
