%FSLAX24Y24*%
%MOIN*%
G70*
G01*
G75*
G04 Layer_Color=65535*
%ADD10R,0.0374X0.0551*%
%ADD11R,0.0413X0.0551*%
%ADD12O,0.0866X0.0236*%
%ADD13R,0.0551X0.0374*%
%ADD14R,0.0394X0.0236*%
%ADD15R,0.1299X0.0945*%
%ADD16R,0.0394X0.0945*%
%ADD17R,0.0551X0.0413*%
%ADD18R,0.0236X0.0492*%
%ADD19R,0.0689X0.0394*%
%ADD20O,0.0984X0.0276*%
%ADD21R,0.1063X0.0453*%
%ADD22R,0.0571X0.0453*%
%ADD23R,0.0354X0.0197*%
%ADD24R,0.0453X0.0571*%
%ADD25O,0.0236X0.0669*%
G04:AMPARAMS|DCode=26|XSize=25.6mil|YSize=39.4mil|CornerRadius=6.4mil|HoleSize=0mil|Usage=FLASHONLY|Rotation=90.000|XOffset=0mil|YOffset=0mil|HoleType=Round|Shape=RoundedRectangle|*
%AMROUNDEDRECTD26*
21,1,0.0256,0.0266,0,0,90.0*
21,1,0.0128,0.0394,0,0,90.0*
1,1,0.0128,0.0133,0.0064*
1,1,0.0128,0.0133,-0.0064*
1,1,0.0128,-0.0133,-0.0064*
1,1,0.0128,-0.0133,0.0064*
%
%ADD26ROUNDEDRECTD26*%
%ADD27R,0.0236X0.0394*%
%ADD28C,0.0197*%
%ADD29C,0.0394*%
%ADD30C,0.0118*%
%ADD31C,0.0157*%
%ADD32C,0.0295*%
%ADD33C,0.0984*%
%ADD34C,0.2559*%
%ADD35C,0.0630*%
%ADD36R,0.0630X0.0630*%
%ADD37C,0.0787*%
%ADD38C,0.0512*%
%ADD39O,0.0669X0.0787*%
%ADD40O,0.0669X0.0748*%
%ADD41C,0.0748*%
%ADD42R,0.0630X0.0630*%
%ADD43C,0.0591*%
%ADD44R,0.0669X0.0669*%
%ADD45C,0.0669*%
%ADD46R,0.0709X0.0709*%
%ADD47C,0.0709*%
%ADD48R,0.0591X0.0591*%
G04:AMPARAMS|DCode=49|XSize=59.1mil|YSize=59.1mil|CornerRadius=0mil|HoleSize=0mil|Usage=FLASHONLY|Rotation=180.000|XOffset=0mil|YOffset=0mil|HoleType=Round|Shape=Octagon|*
%AMOCTAGOND49*
4,1,8,-0.0295,0.0148,-0.0295,-0.0148,-0.0148,-0.0295,0.0148,-0.0295,0.0295,-0.0148,0.0295,0.0148,0.0148,0.0295,-0.0148,0.0295,-0.0295,0.0148,0.0*
%
%ADD49OCTAGOND49*%

%ADD50C,0.0551*%
%ADD51C,0.0500*%
G04:AMPARAMS|DCode=52|XSize=40mil|YSize=60mil|CornerRadius=10mil|HoleSize=0mil|Usage=FLASHONLY|Rotation=180.000|XOffset=0mil|YOffset=0mil|HoleType=Round|Shape=RoundedRectangle|*
%AMROUNDEDRECTD52*
21,1,0.0400,0.0400,0,0,180.0*
21,1,0.0200,0.0600,0,0,180.0*
1,1,0.0200,-0.0100,0.0200*
1,1,0.0200,0.0100,0.0200*
1,1,0.0200,0.0100,-0.0200*
1,1,0.0200,-0.0100,-0.0200*
%
%ADD52ROUNDEDRECTD52*%
%ADD53O,0.0709X0.0118*%
%ADD54O,0.0118X0.0709*%
%ADD55C,0.0098*%
%ADD56C,0.0079*%
%ADD57C,0.0039*%
%ADD58C,0.0236*%
%ADD59C,0.0040*%
%ADD60C,0.0050*%
%ADD61C,0.0100*%
%ADD62R,0.0630X0.0217*%
D28*
X20678Y37085D02*
G03*
X20678Y37085I-98J0D01*
G01*
D31*
X55468Y36711D02*
G03*
X55468Y36711I-79J0D01*
G01*
D55*
X56344Y36315D02*
G03*
X56344Y36315I-49J0D01*
G01*
X54750Y31411D02*
G03*
X54750Y31411I-49J0D01*
G01*
X42780Y19408D02*
G03*
X42780Y19408I-49J0D01*
G01*
X25848Y53439D02*
G03*
X25848Y53439I-49J0D01*
G01*
X21082Y38030D02*
G03*
X21082Y38030I-49J0D01*
G01*
X22614Y40446D02*
G03*
X22614Y40446I-49J0D01*
G01*
X19294Y28165D02*
G03*
X19294Y28165I-49J0D01*
G01*
X15704Y39485D02*
G03*
X15704Y39485I-49J0D01*
G01*
X52840Y27555D02*
G03*
X52840Y27555I-49J0D01*
G01*
X53709Y28145D02*
G03*
X53709Y28145I-49J0D01*
G01*
X27815Y39443D02*
G03*
X27815Y39443I-49J0D01*
G01*
X17160Y51299D02*
G03*
X17160Y51299I-49J0D01*
G01*
D56*
X40354Y31414D02*
G03*
X40348Y30491I396J-464D01*
G01*
X41152Y30495D02*
G03*
X41146Y31418I-402J459D01*
G01*
X29950Y52533D02*
Y52967D01*
X59850Y35683D02*
Y36117D01*
X61350Y34733D02*
Y35167D01*
X50200Y26874D02*
Y27326D01*
X61350Y31733D02*
Y32167D01*
X55704Y36396D02*
Y38404D01*
X54996Y36396D02*
Y38404D01*
Y36396D02*
X55704D01*
X54996Y38404D02*
X55704D01*
X38800Y35724D02*
Y36176D01*
X40250Y35724D02*
Y36176D01*
X52500Y31883D02*
Y32317D01*
X61850Y45783D02*
Y46217D01*
Y43833D02*
Y44267D01*
X55383Y30350D02*
X55817D01*
X54278Y31529D02*
Y32671D01*
X54022Y31529D02*
X54278D01*
X54022D02*
Y32671D01*
X54278D01*
X45369Y19999D02*
Y21101D01*
X42731Y19999D02*
Y21101D01*
X45369D01*
X42731Y19999D02*
X45369D01*
X26222Y52179D02*
Y53321D01*
X26478D01*
Y52179D02*
Y53321D01*
X26222Y52179D02*
X26478D01*
X27950Y52533D02*
Y52967D01*
X44583Y13950D02*
X45017D01*
X48433Y13900D02*
X48867D01*
X60200Y24383D02*
Y24817D01*
X61700Y23383D02*
Y23817D01*
X46400Y51724D02*
Y52176D01*
X25300Y29283D02*
Y29717D01*
X22700Y29283D02*
Y29717D01*
X13324Y21250D02*
X13776D01*
X19174Y21100D02*
X19626D01*
X26574Y21450D02*
X27026D01*
X18926Y36022D02*
Y37478D01*
Y36022D02*
X20974D01*
Y37478D01*
X18926D02*
X20974D01*
X23650Y43983D02*
Y44417D01*
X16383Y40300D02*
X16817D01*
X18485Y42085D02*
X19115D01*
X18485Y41415D02*
Y42085D01*
X19115Y41415D02*
Y42085D01*
X17000Y42233D02*
Y42667D01*
X21915Y40566D02*
Y42534D01*
X21285Y40566D02*
Y42534D01*
Y40566D02*
X21915D01*
X21285Y42534D02*
X21915D01*
X11008Y33133D02*
Y33567D01*
X11992Y33133D02*
Y33567D01*
X20374Y31150D02*
X20826D01*
X13400Y31533D02*
Y31967D01*
X15850Y30833D02*
Y31267D01*
X18654Y28268D02*
Y31732D01*
X17946Y28268D02*
Y31732D01*
Y28268D02*
X18654D01*
X17946Y31732D02*
X18654D01*
X23724Y29150D02*
X24176D01*
X14333Y29400D02*
X14767D01*
X13404D02*
X13896D01*
X11992Y37583D02*
Y38017D01*
X11008Y37583D02*
Y38017D01*
X13083Y39200D02*
X13517D01*
X13074Y37700D02*
X13526D01*
X14183Y38150D02*
X14617D01*
X16246Y37416D02*
Y39384D01*
X16954Y37416D02*
Y39384D01*
X16246D02*
X16954D01*
X16246Y37416D02*
X16954D01*
X24300Y43074D02*
Y43526D01*
X22900Y43074D02*
Y43526D01*
X23250Y39474D02*
Y39926D01*
X21700Y39483D02*
Y39917D01*
X22450Y37633D02*
Y38067D01*
X20550Y34533D02*
Y34967D01*
X43950Y17674D02*
Y18126D01*
X41374Y20600D02*
X41826D01*
X48700Y11324D02*
Y11776D01*
X26183Y14050D02*
X26617D01*
X27233D02*
X27667D01*
X26450Y11374D02*
Y11826D01*
X52783Y37750D02*
X53217D01*
X51783Y37350D02*
X52217D01*
X59533Y23450D02*
X59967D01*
X58574D02*
X59026D01*
X57435Y23485D02*
X58065D01*
X57435Y22815D02*
Y23485D01*
X58065Y22815D02*
Y23485D01*
X61724Y22050D02*
X62176D01*
X44850Y11174D02*
Y11626D01*
X55350Y35474D02*
Y35926D01*
X52239Y27594D02*
Y28106D01*
X52318Y27594D02*
Y28106D01*
X52397Y27594D02*
Y28106D01*
X51865D02*
X52535D01*
X51865Y27594D02*
X52535D01*
X54211D02*
Y28106D01*
X54132Y27594D02*
Y28106D01*
X54053Y27594D02*
Y28106D01*
X53915Y27594D02*
X54585D01*
X53915Y28106D02*
X54585D01*
X55933Y28900D02*
X56367D01*
X54200Y29824D02*
Y30276D01*
Y30633D02*
Y31067D01*
X42733Y30050D02*
X43167D01*
X43733D02*
X44167D01*
X44733Y30000D02*
X45167D01*
X29500Y38083D02*
Y38517D01*
X28350Y43283D02*
Y43717D01*
X27787Y39935D02*
X29913D01*
X27787Y41765D02*
X29913D01*
X27787Y39935D02*
Y41765D01*
X29913Y39935D02*
Y41765D01*
X26624Y41750D02*
X27076D01*
X57683Y42650D02*
X58117D01*
X58733D02*
X59167D01*
X56574Y40900D02*
X57026D01*
X17800Y50033D02*
Y50467D01*
X28283Y26650D02*
X28717D01*
X15233Y29400D02*
X15667D01*
X13400Y30683D02*
Y31117D01*
X21324Y29150D02*
X21776D01*
X37233Y36150D02*
X37667D01*
X35674Y36200D02*
X36126D01*
X36824Y38400D02*
X37276D01*
X37724Y38800D02*
X38176D01*
X35750Y34674D02*
Y35126D01*
X37100Y34683D02*
Y35117D01*
X17229Y51722D02*
X18371D01*
X17229D02*
Y51978D01*
X18371D01*
Y51722D02*
Y51978D01*
X39050Y37474D02*
Y37926D01*
X40100Y38774D02*
Y39226D01*
X24833Y53550D02*
X25267D01*
X59900Y32733D02*
Y33167D01*
X42074Y41900D02*
X42526D01*
X64174Y43350D02*
X64626D01*
X31583Y32250D02*
X32017D01*
D57*
X30700Y27950D02*
G03*
X30700Y27950I-100J0D01*
G01*
X31100Y27548D02*
Y29351D01*
X29100Y27548D02*
X31100D01*
X29100D02*
Y29351D01*
X31100D01*
D58*
X28299Y40328D02*
G03*
X28299Y40328I-118J0D01*
G01*
D59*
X27740Y28480D02*
G03*
X27740Y28480I-20J0D01*
G01*
Y26780D02*
G03*
X27740Y26780I-20J0D01*
G01*
D60*
X47402Y49000D02*
Y51000D01*
X27402D02*
X47402D01*
X27402Y49000D02*
Y51000D01*
Y49000D02*
X47402D01*
X27800Y28400D02*
Y29800D01*
X26400Y28400D02*
X27800D01*
X26400D02*
Y29800D01*
X27800D01*
Y26700D02*
Y28100D01*
X26400Y26700D02*
X27800D01*
X26400D02*
Y28100D01*
X27800D01*
D61*
X21349Y43601D02*
Y44050D01*
Y43601D02*
X21650Y43300D01*
X22200D01*
X29450Y51500D02*
Y52100D01*
X29750D01*
X29850Y52000D01*
Y51800D01*
X29750Y51700D01*
X29450D01*
X29650D02*
X29850Y51500D01*
X30450D02*
X30050D01*
X30450Y51900D01*
Y52000D01*
X30350Y52100D01*
X30150D01*
X30050Y52000D01*
X31049Y51500D02*
X30650D01*
X31049Y51900D01*
Y52000D01*
X30950Y52100D01*
X30750D01*
X30650Y52000D01*
X13800Y55250D02*
Y54650D01*
X14100D01*
X14200Y54750D01*
Y54850D01*
X14100Y54950D01*
X13800D01*
X14100D01*
X14200Y55050D01*
Y55150D01*
X14100Y55250D01*
X13800D01*
X14400Y54650D02*
X14600D01*
X14500D01*
Y55250D01*
X14400Y55150D01*
X59350Y55450D02*
Y54850D01*
X59650D01*
X59750Y54950D01*
Y55050D01*
X59650Y55150D01*
X59350D01*
X59650D01*
X59750Y55250D01*
Y55350D01*
X59650Y55450D01*
X59350D01*
X60350Y54850D02*
X59950D01*
X60350Y55250D01*
Y55350D01*
X60250Y55450D01*
X60050D01*
X59950Y55350D01*
X61770Y14030D02*
Y13430D01*
X62070D01*
X62170Y13530D01*
Y13630D01*
X62070Y13730D01*
X61770D01*
X62070D01*
X62170Y13830D01*
Y13930D01*
X62070Y14030D01*
X61770D01*
X62370Y13930D02*
X62470Y14030D01*
X62670D01*
X62770Y13930D01*
Y13830D01*
X62670Y13730D01*
X62570D01*
X62670D01*
X62770Y13630D01*
Y13530D01*
X62670Y13430D01*
X62470D01*
X62370Y13530D01*
X10590Y14030D02*
Y13430D01*
X10890D01*
X10990Y13530D01*
Y13630D01*
X10890Y13730D01*
X10590D01*
X10890D01*
X10990Y13830D01*
Y13930D01*
X10890Y14030D01*
X10590D01*
X11490Y13430D02*
Y14030D01*
X11190Y13730D01*
X11590D01*
X13540Y52420D02*
Y51820D01*
X13840D01*
X13940Y51920D01*
Y52020D01*
X13840Y52120D01*
X13540D01*
X13840D01*
X13940Y52220D01*
Y52320D01*
X13840Y52420D01*
X13540D01*
X14540D02*
X14140D01*
Y52120D01*
X14340Y52220D01*
X14440D01*
X14540Y52120D01*
Y51920D01*
X14440Y51820D01*
X14240D01*
X14140Y51920D01*
X56850Y50350D02*
Y49750D01*
X57150D01*
X57250Y49850D01*
Y49950D01*
X57150Y50050D01*
X56850D01*
X57150D01*
X57250Y50150D01*
Y50250D01*
X57150Y50350D01*
X56850D01*
X57850D02*
X57650Y50250D01*
X57450Y50050D01*
Y49850D01*
X57550Y49750D01*
X57750D01*
X57850Y49850D01*
Y49950D01*
X57750Y50050D01*
X57450D01*
X58820Y18160D02*
Y17560D01*
X59120D01*
X59220Y17660D01*
Y17760D01*
X59120Y17860D01*
X58820D01*
X59120D01*
X59220Y17960D01*
Y18060D01*
X59120Y18160D01*
X58820D01*
X59420D02*
X59820D01*
Y18060D01*
X59420Y17660D01*
Y17560D01*
X13540Y18160D02*
Y17560D01*
X13840D01*
X13940Y17660D01*
Y17760D01*
X13840Y17860D01*
X13540D01*
X13840D01*
X13940Y17960D01*
Y18060D01*
X13840Y18160D01*
X13540D01*
X14140Y18060D02*
X14240Y18160D01*
X14440D01*
X14540Y18060D01*
Y17960D01*
X14440Y17860D01*
X14540Y17760D01*
Y17660D01*
X14440Y17560D01*
X14240D01*
X14140Y17660D01*
Y17760D01*
X14240Y17860D01*
X14140Y17960D01*
Y18060D01*
X14240Y17860D02*
X14440D01*
X53000Y30250D02*
X52900Y30350D01*
X52700D01*
X52600Y30250D01*
Y29850D01*
X52700Y29750D01*
X52900D01*
X53000Y29850D01*
X53200Y29750D02*
X53400D01*
X53300D01*
Y30350D01*
X53200Y30250D01*
X63950Y45000D02*
X63850Y44900D01*
Y44700D01*
X63950Y44600D01*
X64350D01*
X64450Y44700D01*
Y44900D01*
X64350Y45000D01*
X64450Y45600D02*
Y45200D01*
X64050Y45600D01*
X63950D01*
X63850Y45500D01*
Y45300D01*
X63950Y45200D01*
X50100Y28200D02*
X50000Y28300D01*
X49800D01*
X49700Y28200D01*
Y27800D01*
X49800Y27700D01*
X50000D01*
X50100Y27800D01*
X50300Y28200D02*
X50400Y28300D01*
X50600D01*
X50700Y28200D01*
Y28100D01*
X50600Y28000D01*
X50500D01*
X50600D01*
X50700Y27900D01*
Y27800D01*
X50600Y27700D01*
X50400D01*
X50300Y27800D01*
X55300Y34950D02*
X55200Y35050D01*
X55000D01*
X54900Y34950D01*
Y34550D01*
X55000Y34450D01*
X55200D01*
X55300Y34550D01*
X55800Y34450D02*
Y35050D01*
X55500Y34750D01*
X55900D01*
X37700Y40650D02*
X37600Y40550D01*
Y40350D01*
X37700Y40250D01*
X38100D01*
X38200Y40350D01*
Y40550D01*
X38100Y40650D01*
X37600Y41250D02*
Y40850D01*
X37900D01*
X37800Y41050D01*
Y41150D01*
X37900Y41250D01*
X38100D01*
X38200Y41150D01*
Y40950D01*
X38100Y40850D01*
X40070Y35180D02*
X39970Y35280D01*
X39770D01*
X39670Y35180D01*
Y34780D01*
X39770Y34680D01*
X39970D01*
X40070Y34780D01*
X40670Y35280D02*
X40470Y35180D01*
X40270Y34980D01*
Y34780D01*
X40370Y34680D01*
X40570D01*
X40670Y34780D01*
Y34880D01*
X40570Y34980D01*
X40270D01*
X34850Y36100D02*
X34750Y36000D01*
Y35800D01*
X34850Y35700D01*
X35250D01*
X35350Y35800D01*
Y36000D01*
X35250Y36100D01*
X34750Y36300D02*
Y36700D01*
X34850D01*
X35250Y36300D01*
X35350D01*
X38620Y35180D02*
X38520Y35280D01*
X38320D01*
X38220Y35180D01*
Y34780D01*
X38320Y34680D01*
X38520D01*
X38620Y34780D01*
X38820Y35180D02*
X38920Y35280D01*
X39120D01*
X39220Y35180D01*
Y35080D01*
X39120Y34980D01*
X39220Y34880D01*
Y34780D01*
X39120Y34680D01*
X38920D01*
X38820Y34780D01*
Y34880D01*
X38920Y34980D01*
X38820Y35080D01*
Y35180D01*
X38920Y34980D02*
X39120D01*
X39050Y37050D02*
X38950Y37150D01*
X38750D01*
X38650Y37050D01*
Y36650D01*
X38750Y36550D01*
X38950D01*
X39050Y36650D01*
X39250D02*
X39350Y36550D01*
X39550D01*
X39650Y36650D01*
Y37050D01*
X39550Y37150D01*
X39350D01*
X39250Y37050D01*
Y36950D01*
X39350Y36850D01*
X39650D01*
X40750Y42100D02*
X40650Y42200D01*
X40450D01*
X40350Y42100D01*
Y41700D01*
X40450Y41600D01*
X40650D01*
X40750Y41700D01*
X40950Y41600D02*
X41150D01*
X41050D01*
Y42200D01*
X40950Y42100D01*
X41450Y41600D02*
X41650D01*
X41550D01*
Y42200D01*
X41450Y42100D01*
X35150Y34300D02*
X35050Y34400D01*
X34850D01*
X34750Y34300D01*
Y33900D01*
X34850Y33800D01*
X35050D01*
X35150Y33900D01*
X35350Y33800D02*
X35550D01*
X35450D01*
Y34400D01*
X35350Y34300D01*
X36250Y33800D02*
X35850D01*
X36250Y34200D01*
Y34300D01*
X36150Y34400D01*
X35950D01*
X35850Y34300D01*
X39800Y40100D02*
X39700Y40200D01*
X39500D01*
X39400Y40100D01*
Y39700D01*
X39500Y39600D01*
X39700D01*
X39800Y39700D01*
X40000Y39600D02*
X40200D01*
X40100D01*
Y40200D01*
X40000Y40100D01*
X40900Y40200D02*
X40700Y40100D01*
X40500Y39900D01*
Y39700D01*
X40600Y39600D01*
X40800D01*
X40900Y39700D01*
Y39800D01*
X40800Y39900D01*
X40500D01*
X36800Y40650D02*
X36700Y40550D01*
Y40350D01*
X36800Y40250D01*
X37200D01*
X37300Y40350D01*
Y40550D01*
X37200Y40650D01*
X37300Y40850D02*
Y41050D01*
Y40950D01*
X36700D01*
X36800Y40850D01*
X36700Y41350D02*
Y41750D01*
X36800D01*
X37200Y41350D01*
X37300D01*
X46220Y53130D02*
X46120Y53230D01*
X45920D01*
X45820Y53130D01*
Y52730D01*
X45920Y52630D01*
X46120D01*
X46220Y52730D01*
X46420Y52630D02*
X46620D01*
X46520D01*
Y53230D01*
X46420Y53130D01*
X46920D02*
X47020Y53230D01*
X47220D01*
X47320Y53130D01*
Y53030D01*
X47220Y52930D01*
X47320Y52830D01*
Y52730D01*
X47220Y52630D01*
X47020D01*
X46920Y52730D01*
Y52830D01*
X47020Y52930D01*
X46920Y53030D01*
Y53130D01*
X47020Y52930D02*
X47220D01*
X60800Y21750D02*
X60700Y21650D01*
Y21450D01*
X60800Y21350D01*
X61200D01*
X61300Y21450D01*
Y21650D01*
X61200Y21750D01*
X61300Y21950D02*
Y22150D01*
Y22050D01*
X60700D01*
X60800Y21950D01*
X61200Y22450D02*
X61300Y22550D01*
Y22750D01*
X61200Y22850D01*
X60800D01*
X60700Y22750D01*
Y22550D01*
X60800Y22450D01*
X60900D01*
X61000Y22550D01*
Y22850D01*
X58600Y21350D02*
X58500Y21250D01*
Y21050D01*
X58600Y20950D01*
X59000D01*
X59100Y21050D01*
Y21250D01*
X59000Y21350D01*
X59100Y21950D02*
Y21550D01*
X58700Y21950D01*
X58600D01*
X58500Y21850D01*
Y21650D01*
X58600Y21550D01*
Y22150D02*
X58500Y22250D01*
Y22450D01*
X58600Y22549D01*
X59000D01*
X59100Y22450D01*
Y22250D01*
X59000Y22150D01*
X58600D01*
X25800Y41400D02*
X25700Y41300D01*
Y41100D01*
X25800Y41000D01*
X26200D01*
X26300Y41100D01*
Y41300D01*
X26200Y41400D01*
X26300Y42000D02*
Y41600D01*
X25900Y42000D01*
X25800D01*
X25700Y41900D01*
Y41700D01*
X25800Y41600D01*
X26300Y42200D02*
Y42400D01*
Y42300D01*
X25700D01*
X25800Y42200D01*
X48400Y10900D02*
X48300Y11000D01*
X48100D01*
X48000Y10900D01*
Y10500D01*
X48100Y10400D01*
X48300D01*
X48400Y10500D01*
X49000Y10400D02*
X48600D01*
X49000Y10800D01*
Y10900D01*
X48900Y11000D01*
X48700D01*
X48600Y10900D01*
X49599Y10400D02*
X49200D01*
X49599Y10800D01*
Y10900D01*
X49500Y11000D01*
X49300D01*
X49200Y10900D01*
X26150Y10950D02*
X26050Y11050D01*
X25850D01*
X25750Y10950D01*
Y10550D01*
X25850Y10450D01*
X26050D01*
X26150Y10550D01*
X26750Y10450D02*
X26350D01*
X26750Y10850D01*
Y10950D01*
X26650Y11050D01*
X26450D01*
X26350Y10950D01*
X26950D02*
X27050Y11050D01*
X27250D01*
X27349Y10950D01*
Y10850D01*
X27250Y10750D01*
X27150D01*
X27250D01*
X27349Y10650D01*
Y10550D01*
X27250Y10450D01*
X27050D01*
X26950Y10550D01*
X44450Y10800D02*
X44350Y10900D01*
X44150D01*
X44050Y10800D01*
Y10400D01*
X44150Y10300D01*
X44350D01*
X44450Y10400D01*
X45050Y10300D02*
X44650D01*
X45050Y10700D01*
Y10800D01*
X44950Y10900D01*
X44750D01*
X44650Y10800D01*
X45550Y10300D02*
Y10900D01*
X45250Y10600D01*
X45649D01*
X57850Y41150D02*
X57750Y41250D01*
X57550D01*
X57450Y41150D01*
Y40750D01*
X57550Y40650D01*
X57750D01*
X57850Y40750D01*
X58450Y40650D02*
X58050D01*
X58450Y41050D01*
Y41150D01*
X58350Y41250D01*
X58150D01*
X58050Y41150D01*
X59049Y41250D02*
X58650D01*
Y40950D01*
X58850Y41050D01*
X58950D01*
X59049Y40950D01*
Y40750D01*
X58950Y40650D01*
X58750D01*
X58650Y40750D01*
X43600Y17250D02*
X43500Y17350D01*
X43300D01*
X43200Y17250D01*
Y16850D01*
X43300Y16750D01*
X43500D01*
X43600Y16850D01*
X44200Y16750D02*
X43800D01*
X44200Y17150D01*
Y17250D01*
X44100Y17350D01*
X43900D01*
X43800Y17250D01*
X44799Y17350D02*
X44600Y17250D01*
X44400Y17050D01*
Y16850D01*
X44500Y16750D01*
X44700D01*
X44799Y16850D01*
Y16950D01*
X44700Y17050D01*
X44400D01*
X41350Y22050D02*
X41250Y22150D01*
X41050D01*
X40950Y22050D01*
Y21650D01*
X41050Y21550D01*
X41250D01*
X41350Y21650D01*
X41950Y21550D02*
X41550D01*
X41950Y21950D01*
Y22050D01*
X41850Y22150D01*
X41650D01*
X41550Y22050D01*
X42150Y22150D02*
X42549D01*
Y22050D01*
X42150Y21650D01*
Y21550D01*
X23100Y39050D02*
X23000Y39150D01*
X22800D01*
X22700Y39050D01*
Y38650D01*
X22800Y38550D01*
X23000D01*
X23100Y38650D01*
X23700Y38550D02*
X23300D01*
X23700Y38950D01*
Y39050D01*
X23600Y39150D01*
X23400D01*
X23300Y39050D01*
X23900Y38650D02*
X24000Y38550D01*
X24200D01*
X24299Y38650D01*
Y39050D01*
X24200Y39150D01*
X24000D01*
X23900Y39050D01*
Y38950D01*
X24000Y38850D01*
X24299D01*
X12350Y37000D02*
X12250Y36900D01*
Y36700D01*
X12350Y36600D01*
X12750D01*
X12850Y36700D01*
Y36900D01*
X12750Y37000D01*
X12350Y37200D02*
X12250Y37300D01*
Y37500D01*
X12350Y37600D01*
X12450D01*
X12550Y37500D01*
Y37400D01*
Y37500D01*
X12650Y37600D01*
X12750D01*
X12850Y37500D01*
Y37300D01*
X12750Y37200D01*
X12350Y37800D02*
X12250Y37900D01*
Y38100D01*
X12350Y38199D01*
X12750D01*
X12850Y38100D01*
Y37900D01*
X12750Y37800D01*
X12350D01*
X25850Y43550D02*
X25750Y43650D01*
X25550D01*
X25450Y43550D01*
Y43150D01*
X25550Y43050D01*
X25750D01*
X25850Y43150D01*
X26050Y43550D02*
X26150Y43650D01*
X26350D01*
X26450Y43550D01*
Y43450D01*
X26350Y43350D01*
X26250D01*
X26350D01*
X26450Y43250D01*
Y43150D01*
X26350Y43050D01*
X26150D01*
X26050Y43150D01*
X26650Y43050D02*
X26850D01*
X26750D01*
Y43650D01*
X26650Y43550D01*
X20050Y44650D02*
X19950Y44750D01*
X19750D01*
X19650Y44650D01*
Y44250D01*
X19750Y44150D01*
X19950D01*
X20050Y44250D01*
X20250Y44650D02*
X20350Y44750D01*
X20550D01*
X20650Y44650D01*
Y44550D01*
X20550Y44450D01*
X20450D01*
X20550D01*
X20650Y44350D01*
Y44250D01*
X20550Y44150D01*
X20350D01*
X20250Y44250D01*
X21249Y44150D02*
X20850D01*
X21249Y44550D01*
Y44650D01*
X21150Y44750D01*
X20950D01*
X20850Y44650D01*
X13670Y22730D02*
X13570Y22830D01*
X13370D01*
X13270Y22730D01*
Y22330D01*
X13370Y22230D01*
X13570D01*
X13670Y22330D01*
X13870Y22730D02*
X13970Y22830D01*
X14170D01*
X14270Y22730D01*
Y22630D01*
X14170Y22530D01*
X14070D01*
X14170D01*
X14270Y22430D01*
Y22330D01*
X14170Y22230D01*
X13970D01*
X13870Y22330D01*
X14470Y22730D02*
X14570Y22830D01*
X14770D01*
X14869Y22730D01*
Y22630D01*
X14770Y22530D01*
X14670D01*
X14770D01*
X14869Y22430D01*
Y22330D01*
X14770Y22230D01*
X14570D01*
X14470Y22330D01*
X19515Y22575D02*
X19415Y22675D01*
X19215D01*
X19115Y22575D01*
Y22175D01*
X19215Y22075D01*
X19415D01*
X19515Y22175D01*
X19715Y22575D02*
X19815Y22675D01*
X20015D01*
X20115Y22575D01*
Y22475D01*
X20015Y22375D01*
X19915D01*
X20015D01*
X20115Y22275D01*
Y22175D01*
X20015Y22075D01*
X19815D01*
X19715Y22175D01*
X20615Y22075D02*
Y22675D01*
X20315Y22375D01*
X20714D01*
X26920Y22930D02*
X26820Y23030D01*
X26620D01*
X26520Y22930D01*
Y22530D01*
X26620Y22430D01*
X26820D01*
X26920Y22530D01*
X27120Y22930D02*
X27220Y23030D01*
X27420D01*
X27520Y22930D01*
Y22830D01*
X27420Y22730D01*
X27320D01*
X27420D01*
X27520Y22630D01*
Y22530D01*
X27420Y22430D01*
X27220D01*
X27120Y22530D01*
X28119Y23030D02*
X27920Y22930D01*
X27720Y22730D01*
Y22530D01*
X27820Y22430D01*
X28020D01*
X28119Y22530D01*
Y22630D01*
X28020Y22730D01*
X27720D01*
X20450Y32550D02*
X20350Y32650D01*
X20150D01*
X20050Y32550D01*
Y32150D01*
X20150Y32050D01*
X20350D01*
X20450Y32150D01*
X20650Y32550D02*
X20750Y32650D01*
X20950D01*
X21050Y32550D01*
Y32450D01*
X20950Y32350D01*
X20850D01*
X20950D01*
X21050Y32250D01*
Y32150D01*
X20950Y32050D01*
X20750D01*
X20650Y32150D01*
X21250D02*
X21350Y32050D01*
X21550D01*
X21649Y32150D01*
Y32550D01*
X21550Y32650D01*
X21350D01*
X21250Y32550D01*
Y32450D01*
X21350Y32350D01*
X21649D01*
X23850Y28200D02*
X23750Y28300D01*
X23550D01*
X23450Y28200D01*
Y27800D01*
X23550Y27700D01*
X23750D01*
X23850Y27800D01*
X24350Y27700D02*
Y28300D01*
X24050Y28000D01*
X24450D01*
X24650Y28200D02*
X24750Y28300D01*
X24950D01*
X25049Y28200D01*
Y27800D01*
X24950Y27700D01*
X24750D01*
X24650Y27800D01*
Y28200D01*
X21700D02*
X21600Y28300D01*
X21400D01*
X21300Y28200D01*
Y27800D01*
X21400Y27700D01*
X21600D01*
X21700Y27800D01*
X22200Y27700D02*
Y28300D01*
X21900Y28000D01*
X22300D01*
X22500Y27700D02*
X22700D01*
X22600D01*
Y28300D01*
X22500Y28200D01*
X13450Y27250D02*
X13350Y27150D01*
Y26950D01*
X13450Y26850D01*
X13850D01*
X13950Y26950D01*
Y27150D01*
X13850Y27250D01*
X13950Y27750D02*
X13350D01*
X13650Y27450D01*
Y27850D01*
X13950Y28449D02*
Y28050D01*
X13550Y28449D01*
X13450D01*
X13350Y28350D01*
Y28150D01*
X13450Y28050D01*
X53800Y27300D02*
Y26700D01*
X54100D01*
X54200Y26800D01*
Y27200D01*
X54100Y27300D01*
X53800D01*
X54400Y26700D02*
X54600D01*
X54500D01*
Y27300D01*
X54400Y27200D01*
X51700Y28950D02*
Y28350D01*
X52000D01*
X52100Y28450D01*
Y28850D01*
X52000Y28950D01*
X51700D01*
X52700Y28350D02*
X52300D01*
X52700Y28750D01*
Y28850D01*
X52600Y28950D01*
X52400D01*
X52300Y28850D01*
X57450Y20950D02*
X58050D01*
Y21250D01*
X57950Y21350D01*
X57550D01*
X57450Y21250D01*
Y20950D01*
X57550Y21550D02*
X57450Y21650D01*
Y21850D01*
X57550Y21950D01*
X57650D01*
X57750Y21850D01*
Y21750D01*
Y21850D01*
X57850Y21950D01*
X57950D01*
X58050Y21850D01*
Y21650D01*
X57950Y21550D01*
X18440Y43640D02*
Y43040D01*
X18740D01*
X18840Y43140D01*
Y43540D01*
X18740Y43640D01*
X18440D01*
X19440D02*
X19040D01*
Y43340D01*
X19240Y43440D01*
X19340D01*
X19440Y43340D01*
Y43140D01*
X19340Y43040D01*
X19140D01*
X19040Y43140D01*
X29300Y30200D02*
Y29600D01*
X29600D01*
X29700Y29700D01*
Y30100D01*
X29600Y30200D01*
X29300D01*
X29900Y29600D02*
Y30000D01*
X30100Y30200D01*
X30300Y30000D01*
Y29600D01*
Y29900D01*
X29900D01*
X30500Y29600D02*
X30700D01*
X30600D01*
Y30200D01*
X30500Y30100D01*
X27480Y51920D02*
Y51320D01*
Y51620D01*
X27880D01*
Y51920D01*
Y51320D01*
X28480D02*
X28080D01*
X28480Y51720D01*
Y51820D01*
X28380Y51920D01*
X28180D01*
X28080Y51820D01*
X18900Y39140D02*
X19100D01*
X19000D01*
Y38540D01*
X18900D01*
X19100D01*
X19800Y39040D02*
X19700Y39140D01*
X19500D01*
X19400Y39040D01*
Y38640D01*
X19500Y38540D01*
X19700D01*
X19800Y38640D01*
X20000Y38540D02*
X20200D01*
X20100D01*
Y39140D01*
X20000Y39040D01*
X52650Y30550D02*
Y31150D01*
X52950D01*
X53050Y31050D01*
Y30850D01*
X52950Y30750D01*
X52650D01*
X52850D02*
X53050Y30550D01*
X53250D02*
X53450D01*
X53350D01*
Y31150D01*
X53250Y31050D01*
X56750Y28750D02*
Y29350D01*
X57050D01*
X57150Y29250D01*
Y29050D01*
X57050Y28950D01*
X56750D01*
X56950D02*
X57150Y28750D01*
X57750D02*
X57350D01*
X57750Y29150D01*
Y29250D01*
X57650Y29350D01*
X57450D01*
X57350Y29250D01*
X55320Y31350D02*
Y31950D01*
X55620D01*
X55720Y31850D01*
Y31650D01*
X55620Y31550D01*
X55320D01*
X55520D02*
X55720Y31350D01*
X55920Y31850D02*
X56020Y31950D01*
X56220D01*
X56320Y31850D01*
Y31750D01*
X56220Y31650D01*
X56120D01*
X56220D01*
X56320Y31550D01*
Y31450D01*
X56220Y31350D01*
X56020D01*
X55920Y31450D01*
X61250Y44730D02*
Y45330D01*
X61550D01*
X61650Y45230D01*
Y45030D01*
X61550Y44930D01*
X61250D01*
X61450D02*
X61650Y44730D01*
X62150D02*
Y45330D01*
X61850Y45030D01*
X62250D01*
X61250Y46680D02*
Y47280D01*
X61550D01*
X61650Y47180D01*
Y46980D01*
X61550Y46880D01*
X61250D01*
X61450D02*
X61650Y46680D01*
X62250Y47280D02*
X61850D01*
Y46980D01*
X62050Y47080D01*
X62150D01*
X62250Y46980D01*
Y46780D01*
X62150Y46680D01*
X61950D01*
X61850Y46780D01*
X51905Y32785D02*
Y33385D01*
X52205D01*
X52305Y33285D01*
Y33085D01*
X52205Y32985D01*
X51905D01*
X52105D02*
X52305Y32785D01*
X52505Y33385D02*
X52905D01*
Y33285D01*
X52505Y32885D01*
Y32785D01*
X52250Y35200D02*
X51650D01*
Y35500D01*
X51750Y35600D01*
X51950D01*
X52050Y35500D01*
Y35200D01*
Y35400D02*
X52250Y35600D01*
X51750Y35800D02*
X51650Y35900D01*
Y36100D01*
X51750Y36200D01*
X51850D01*
X51950Y36100D01*
X52050Y36200D01*
X52150D01*
X52250Y36100D01*
Y35900D01*
X52150Y35800D01*
X52050D01*
X51950Y35900D01*
X51850Y35800D01*
X51750D01*
X51950Y35900D02*
Y36100D01*
X53400Y35250D02*
X52800D01*
Y35550D01*
X52900Y35650D01*
X53100D01*
X53200Y35550D01*
Y35250D01*
Y35450D02*
X53400Y35650D01*
Y35850D02*
Y36050D01*
Y35950D01*
X52800D01*
X52900Y35850D01*
Y36350D02*
X52800Y36450D01*
Y36650D01*
X52900Y36750D01*
X53300D01*
X53400Y36650D01*
Y36450D01*
X53300Y36350D01*
X52900D01*
X36750Y37000D02*
Y37600D01*
X37050D01*
X37150Y37500D01*
Y37300D01*
X37050Y37200D01*
X36750D01*
X36950D02*
X37150Y37000D01*
X37350D02*
X37550D01*
X37450D01*
Y37600D01*
X37350Y37500D01*
X37850Y37000D02*
X38050D01*
X37950D01*
Y37600D01*
X37850Y37500D01*
X36650Y33800D02*
Y34400D01*
X36950D01*
X37050Y34300D01*
Y34100D01*
X36950Y34000D01*
X36650D01*
X36850D02*
X37050Y33800D01*
X37250D02*
X37450D01*
X37350D01*
Y34400D01*
X37250Y34300D01*
X38150Y33800D02*
X37750D01*
X38150Y34200D01*
Y34300D01*
X38050Y34400D01*
X37850D01*
X37750Y34300D01*
X45250Y31650D02*
X44650D01*
Y31950D01*
X44750Y32050D01*
X44950D01*
X45050Y31950D01*
Y31650D01*
Y31850D02*
X45250Y32050D01*
Y32250D02*
Y32450D01*
Y32350D01*
X44650D01*
X44750Y32250D01*
Y32750D02*
X44650Y32850D01*
Y33050D01*
X44750Y33150D01*
X44850D01*
X44950Y33050D01*
Y32950D01*
Y33050D01*
X45050Y33150D01*
X45150D01*
X45250Y33050D01*
Y32850D01*
X45150Y32750D01*
X43250Y31650D02*
X42650D01*
Y31950D01*
X42750Y32050D01*
X42950D01*
X43050Y31950D01*
Y31650D01*
Y31850D02*
X43250Y32050D01*
Y32250D02*
Y32450D01*
Y32350D01*
X42650D01*
X42750Y32250D01*
X43250Y33050D02*
X42650D01*
X42950Y32750D01*
Y33150D01*
X44250Y31650D02*
X43650D01*
Y31950D01*
X43750Y32050D01*
X43950D01*
X44050Y31950D01*
Y31650D01*
Y31850D02*
X44250Y32050D01*
Y32250D02*
Y32450D01*
Y32350D01*
X43650D01*
X43750Y32250D01*
X43650Y33150D02*
Y32750D01*
X43950D01*
X43850Y32950D01*
Y33050D01*
X43950Y33150D01*
X44150D01*
X44250Y33050D01*
Y32850D01*
X44150Y32750D01*
X30300Y38050D02*
Y38650D01*
X30600D01*
X30700Y38550D01*
Y38350D01*
X30600Y38250D01*
X30300D01*
X30500D02*
X30700Y38050D01*
X30900D02*
X31100D01*
X31000D01*
Y38650D01*
X30900Y38550D01*
X31800Y38650D02*
X31600Y38550D01*
X31400Y38350D01*
Y38150D01*
X31500Y38050D01*
X31700D01*
X31800Y38150D01*
Y38250D01*
X31700Y38350D01*
X31400D01*
X27750Y44180D02*
Y44780D01*
X28050D01*
X28150Y44680D01*
Y44480D01*
X28050Y44380D01*
X27750D01*
X27950D02*
X28150Y44180D01*
X28350D02*
X28550D01*
X28450D01*
Y44780D01*
X28350Y44680D01*
X28850Y44780D02*
X29250D01*
Y44680D01*
X28850Y44280D01*
Y44180D01*
X61100Y24280D02*
Y24880D01*
X61400D01*
X61500Y24780D01*
Y24580D01*
X61400Y24480D01*
X61100D01*
X61300D02*
X61500Y24280D01*
X61700D02*
X61900D01*
X61800D01*
Y24880D01*
X61700Y24780D01*
X62200D02*
X62300Y24880D01*
X62500D01*
X62600Y24780D01*
Y24680D01*
X62500Y24580D01*
X62600Y24480D01*
Y24380D01*
X62500Y24280D01*
X62300D01*
X62200Y24380D01*
Y24480D01*
X62300Y24580D01*
X62200Y24680D01*
Y24780D01*
X62300Y24580D02*
X62500D01*
X59600Y25280D02*
Y25880D01*
X59900D01*
X60000Y25780D01*
Y25580D01*
X59900Y25480D01*
X59600D01*
X59800D02*
X60000Y25280D01*
X60200D02*
X60400D01*
X60300D01*
Y25880D01*
X60200Y25780D01*
X60700Y25380D02*
X60800Y25280D01*
X61000D01*
X61100Y25380D01*
Y25780D01*
X61000Y25880D01*
X60800D01*
X60700Y25780D01*
Y25680D01*
X60800Y25580D01*
X61100D01*
X60000Y21000D02*
X59400D01*
Y21300D01*
X59500Y21400D01*
X59700D01*
X59800Y21300D01*
Y21000D01*
Y21200D02*
X60000Y21400D01*
Y22000D02*
Y21600D01*
X59600Y22000D01*
X59500D01*
X59400Y21900D01*
Y21700D01*
X59500Y21600D01*
Y22200D02*
X59400Y22300D01*
Y22500D01*
X59500Y22599D01*
X59900D01*
X60000Y22500D01*
Y22300D01*
X59900Y22200D01*
X59500D01*
X48370Y14900D02*
Y15500D01*
X48670D01*
X48770Y15400D01*
Y15200D01*
X48670Y15100D01*
X48370D01*
X48570D02*
X48770Y14900D01*
X49370D02*
X48970D01*
X49370Y15300D01*
Y15400D01*
X49270Y15500D01*
X49070D01*
X48970Y15400D01*
X49570Y14900D02*
X49770D01*
X49670D01*
Y15500D01*
X49570Y15400D01*
X28800Y13300D02*
X28200D01*
Y13600D01*
X28300Y13700D01*
X28500D01*
X28600Y13600D01*
Y13300D01*
Y13500D02*
X28800Y13700D01*
Y14300D02*
Y13900D01*
X28400Y14300D01*
X28300D01*
X28200Y14200D01*
Y14000D01*
X28300Y13900D01*
Y14500D02*
X28200Y14600D01*
Y14800D01*
X28300Y14899D01*
X28400D01*
X28500Y14800D01*
Y14700D01*
Y14800D01*
X28600Y14899D01*
X28700D01*
X28800Y14800D01*
Y14600D01*
X28700Y14500D01*
X25800Y13450D02*
X25200D01*
Y13750D01*
X25300Y13850D01*
X25500D01*
X25600Y13750D01*
Y13450D01*
Y13650D02*
X25800Y13850D01*
Y14450D02*
Y14050D01*
X25400Y14450D01*
X25300D01*
X25200Y14350D01*
Y14150D01*
X25300Y14050D01*
X25800Y14950D02*
X25200D01*
X25500Y14650D01*
Y15049D01*
X44520Y14950D02*
Y15550D01*
X44820D01*
X44920Y15450D01*
Y15250D01*
X44820Y15150D01*
X44520D01*
X44720D02*
X44920Y14950D01*
X45520D02*
X45120D01*
X45520Y15350D01*
Y15450D01*
X45420Y15550D01*
X45220D01*
X45120Y15450D01*
X46119Y15550D02*
X45720D01*
Y15250D01*
X45920Y15350D01*
X46020D01*
X46119Y15250D01*
Y15050D01*
X46020Y14950D01*
X45820D01*
X45720Y15050D01*
X59250Y43600D02*
X58650D01*
Y43900D01*
X58750Y44000D01*
X58950D01*
X59050Y43900D01*
Y43600D01*
Y43800D02*
X59250Y44000D01*
Y44600D02*
Y44200D01*
X58850Y44600D01*
X58750D01*
X58650Y44500D01*
Y44300D01*
X58750Y44200D01*
X58650Y45199D02*
X58750Y45000D01*
X58950Y44800D01*
X59150D01*
X59250Y44900D01*
Y45100D01*
X59150Y45199D01*
X59050D01*
X58950Y45100D01*
Y44800D01*
X58100Y43600D02*
X57500D01*
Y43900D01*
X57600Y44000D01*
X57800D01*
X57900Y43900D01*
Y43600D01*
Y43800D02*
X58100Y44000D01*
Y44600D02*
Y44200D01*
X57700Y44600D01*
X57600D01*
X57500Y44500D01*
Y44300D01*
X57600Y44200D01*
X57500Y44800D02*
Y45199D01*
X57600D01*
X58000Y44800D01*
X58100D01*
X27350Y53430D02*
Y54030D01*
X27650D01*
X27750Y53930D01*
Y53730D01*
X27650Y53630D01*
X27350D01*
X27550D02*
X27750Y53430D01*
X28350D02*
X27950D01*
X28350Y53830D01*
Y53930D01*
X28250Y54030D01*
X28050D01*
X27950Y53930D01*
X28550D02*
X28650Y54030D01*
X28850D01*
X28949Y53930D01*
Y53830D01*
X28850Y53730D01*
X28949Y53630D01*
Y53530D01*
X28850Y53430D01*
X28650D01*
X28550Y53530D01*
Y53630D01*
X28650Y53730D01*
X28550Y53830D01*
Y53930D01*
X28650Y53730D02*
X28850D01*
X58800Y33500D02*
Y34100D01*
X59100D01*
X59200Y34000D01*
Y33800D01*
X59100Y33700D01*
X58800D01*
X59000D02*
X59200Y33500D01*
X59800D02*
X59400D01*
X59800Y33900D01*
Y34000D01*
X59700Y34100D01*
X59500D01*
X59400Y34000D01*
X60000Y33600D02*
X60100Y33500D01*
X60300D01*
X60399Y33600D01*
Y34000D01*
X60300Y34100D01*
X60100D01*
X60000Y34000D01*
Y33900D01*
X60100Y33800D01*
X60399D01*
X58800Y34700D02*
Y35300D01*
X59100D01*
X59200Y35200D01*
Y35000D01*
X59100Y34900D01*
X58800D01*
X59000D02*
X59200Y34700D01*
X59400Y35200D02*
X59500Y35300D01*
X59700D01*
X59800Y35200D01*
Y35100D01*
X59700Y35000D01*
X59600D01*
X59700D01*
X59800Y34900D01*
Y34800D01*
X59700Y34700D01*
X59500D01*
X59400Y34800D01*
X60000Y35200D02*
X60100Y35300D01*
X60300D01*
X60399Y35200D01*
Y34800D01*
X60300Y34700D01*
X60100D01*
X60000Y34800D01*
Y35200D01*
X60400Y30700D02*
Y31300D01*
X60700D01*
X60800Y31200D01*
Y31000D01*
X60700Y30900D01*
X60400D01*
X60600D02*
X60800Y30700D01*
X61000Y31200D02*
X61100Y31300D01*
X61300D01*
X61400Y31200D01*
Y31100D01*
X61300Y31000D01*
X61200D01*
X61300D01*
X61400Y30900D01*
Y30800D01*
X61300Y30700D01*
X61100D01*
X61000Y30800D01*
X61600Y30700D02*
X61800D01*
X61700D01*
Y31300D01*
X61600Y31200D01*
X24400Y52800D02*
X23800D01*
Y53100D01*
X23900Y53200D01*
X24100D01*
X24200Y53100D01*
Y52800D01*
Y53000D02*
X24400Y53200D01*
X23900Y53400D02*
X23800Y53500D01*
Y53700D01*
X23900Y53800D01*
X24000D01*
X24100Y53700D01*
Y53600D01*
Y53700D01*
X24200Y53800D01*
X24300D01*
X24400Y53700D01*
Y53500D01*
X24300Y53400D01*
X24400Y54399D02*
Y54000D01*
X24000Y54399D01*
X23900D01*
X23800Y54300D01*
Y54100D01*
X23900Y54000D01*
X17100Y48950D02*
Y49550D01*
X17400D01*
X17500Y49450D01*
Y49250D01*
X17400Y49150D01*
X17100D01*
X17300D02*
X17500Y48950D01*
X17700Y49450D02*
X17800Y49550D01*
X18000D01*
X18100Y49450D01*
Y49350D01*
X18000Y49250D01*
X17900D01*
X18000D01*
X18100Y49150D01*
Y49050D01*
X18000Y48950D01*
X17800D01*
X17700Y49050D01*
X18300Y49450D02*
X18400Y49550D01*
X18600D01*
X18699Y49450D01*
Y49350D01*
X18600Y49250D01*
X18500D01*
X18600D01*
X18699Y49150D01*
Y49050D01*
X18600Y48950D01*
X18400D01*
X18300Y49050D01*
X58850Y36650D02*
Y37250D01*
X59150D01*
X59250Y37150D01*
Y36950D01*
X59150Y36850D01*
X58850D01*
X59050D02*
X59250Y36650D01*
X59450Y37150D02*
X59550Y37250D01*
X59750D01*
X59850Y37150D01*
Y37050D01*
X59750Y36950D01*
X59650D01*
X59750D01*
X59850Y36850D01*
Y36750D01*
X59750Y36650D01*
X59550D01*
X59450Y36750D01*
X60350Y36650D02*
Y37250D01*
X60050Y36950D01*
X60449D01*
X14700Y39150D02*
X14100D01*
Y39450D01*
X14200Y39550D01*
X14400D01*
X14500Y39450D01*
Y39150D01*
Y39350D02*
X14700Y39550D01*
Y40050D02*
X14100D01*
X14400Y39750D01*
Y40150D01*
X14200Y40350D02*
X14100Y40450D01*
Y40650D01*
X14200Y40749D01*
X14600D01*
X14700Y40650D01*
Y40450D01*
X14600Y40350D01*
X14200D01*
X20800Y38550D02*
Y39150D01*
X21100D01*
X21200Y39050D01*
Y38850D01*
X21100Y38750D01*
X20800D01*
X21000D02*
X21200Y38550D01*
X21400Y39050D02*
X21500Y39150D01*
X21700D01*
X21800Y39050D01*
Y38950D01*
X21700Y38850D01*
X21600D01*
X21700D01*
X21800Y38750D01*
Y38650D01*
X21700Y38550D01*
X21500D01*
X21400Y38650D01*
X22399Y39150D02*
X22000D01*
Y38850D01*
X22200Y38950D01*
X22300D01*
X22399Y38850D01*
Y38650D01*
X22300Y38550D01*
X22100D01*
X22000Y38650D01*
X16400Y43130D02*
Y43730D01*
X16700D01*
X16800Y43630D01*
Y43430D01*
X16700Y43330D01*
X16400D01*
X16600D02*
X16800Y43130D01*
X17000Y43630D02*
X17100Y43730D01*
X17300D01*
X17400Y43630D01*
Y43530D01*
X17300Y43430D01*
X17200D01*
X17300D01*
X17400Y43330D01*
Y43230D01*
X17300Y43130D01*
X17100D01*
X17000Y43230D01*
X17600Y43730D02*
X17999D01*
Y43630D01*
X17600Y43230D01*
Y43130D01*
X12800Y38750D02*
X12200D01*
Y39050D01*
X12300Y39150D01*
X12500D01*
X12600Y39050D01*
Y38750D01*
Y38950D02*
X12800Y39150D01*
X12300Y39350D02*
X12200Y39450D01*
Y39650D01*
X12300Y39750D01*
X12400D01*
X12500Y39650D01*
Y39550D01*
Y39650D01*
X12600Y39750D01*
X12700D01*
X12800Y39650D01*
Y39450D01*
X12700Y39350D01*
X12300Y39950D02*
X12200Y40050D01*
Y40250D01*
X12300Y40349D01*
X12400D01*
X12500Y40250D01*
X12600Y40349D01*
X12700D01*
X12800Y40250D01*
Y40050D01*
X12700Y39950D01*
X12600D01*
X12500Y40050D01*
X12400Y39950D01*
X12300D01*
X12500Y40050D02*
Y40250D01*
X10650Y36950D02*
X10050D01*
Y37250D01*
X10150Y37350D01*
X10350D01*
X10450Y37250D01*
Y36950D01*
Y37150D02*
X10650Y37350D01*
X10150Y37550D02*
X10050Y37650D01*
Y37850D01*
X10150Y37950D01*
X10250D01*
X10350Y37850D01*
Y37750D01*
Y37850D01*
X10450Y37950D01*
X10550D01*
X10650Y37850D01*
Y37650D01*
X10550Y37550D01*
Y38150D02*
X10650Y38250D01*
Y38450D01*
X10550Y38549D01*
X10150D01*
X10050Y38450D01*
Y38250D01*
X10150Y38150D01*
X10250D01*
X10350Y38250D01*
Y38549D01*
X16320Y41300D02*
Y41900D01*
X16620D01*
X16720Y41800D01*
Y41600D01*
X16620Y41500D01*
X16320D01*
X16520D02*
X16720Y41300D01*
X16920Y41800D02*
X17020Y41900D01*
X17220D01*
X17320Y41800D01*
Y41700D01*
X17220Y41600D01*
X17120D01*
X17220D01*
X17320Y41500D01*
Y41400D01*
X17220Y41300D01*
X17020D01*
X16920Y41400D01*
X17919Y41900D02*
X17720Y41800D01*
X17520Y41600D01*
Y41400D01*
X17620Y41300D01*
X17820D01*
X17919Y41400D01*
Y41500D01*
X17820Y41600D01*
X17520D01*
X23050Y44880D02*
Y45480D01*
X23350D01*
X23450Y45380D01*
Y45180D01*
X23350Y45080D01*
X23050D01*
X23250D02*
X23450Y44880D01*
X23950D02*
Y45480D01*
X23650Y45180D01*
X24050D01*
X24250Y44880D02*
X24450D01*
X24350D01*
Y45480D01*
X24250Y45380D01*
X21750Y36650D02*
Y37250D01*
X22050D01*
X22150Y37150D01*
Y36950D01*
X22050Y36850D01*
X21750D01*
X21950D02*
X22150Y36650D01*
X22650D02*
Y37250D01*
X22350Y36950D01*
X22750D01*
X23349Y36650D02*
X22950D01*
X23349Y37050D01*
Y37150D01*
X23250Y37250D01*
X23050D01*
X22950Y37150D01*
X19850Y33600D02*
Y34200D01*
X20150D01*
X20250Y34100D01*
Y33900D01*
X20150Y33800D01*
X19850D01*
X20050D02*
X20250Y33600D01*
X20750D02*
Y34200D01*
X20450Y33900D01*
X20850D01*
X21050Y34100D02*
X21150Y34200D01*
X21350D01*
X21449Y34100D01*
Y34000D01*
X21350Y33900D01*
X21250D01*
X21350D01*
X21449Y33800D01*
Y33700D01*
X21350Y33600D01*
X21150D01*
X21050Y33700D01*
X28050Y25150D02*
Y25750D01*
X28350D01*
X28450Y25650D01*
Y25450D01*
X28350Y25350D01*
X28050D01*
X28250D02*
X28450Y25150D01*
X28950D02*
Y25750D01*
X28650Y25450D01*
X29050D01*
X29550Y25150D02*
Y25750D01*
X29250Y25450D01*
X29649D01*
X15000Y31600D02*
Y32200D01*
X15300D01*
X15400Y32100D01*
Y31900D01*
X15300Y31800D01*
X15000D01*
X15200D02*
X15400Y31600D01*
X15900D02*
Y32200D01*
X15600Y31900D01*
X16000D01*
X16599Y32200D02*
X16200D01*
Y31900D01*
X16400Y32000D01*
X16500D01*
X16599Y31900D01*
Y31700D01*
X16500Y31600D01*
X16300D01*
X16200Y31700D01*
X13050Y28550D02*
X12450D01*
Y28850D01*
X12550Y28950D01*
X12750D01*
X12850Y28850D01*
Y28550D01*
Y28750D02*
X13050Y28950D01*
Y29450D02*
X12450D01*
X12750Y29150D01*
Y29550D01*
X12450Y30149D02*
X12550Y29950D01*
X12750Y29750D01*
X12950D01*
X13050Y29850D01*
Y30050D01*
X12950Y30149D01*
X12850D01*
X12750Y30050D01*
Y29750D01*
X24700Y30180D02*
Y30780D01*
X25000D01*
X25100Y30680D01*
Y30480D01*
X25000Y30380D01*
X24700D01*
X24900D02*
X25100Y30180D01*
X25600D02*
Y30780D01*
X25300Y30480D01*
X25700D01*
X25900Y30780D02*
X26299D01*
Y30680D01*
X25900Y30280D01*
Y30180D01*
X22100D02*
Y30780D01*
X22400D01*
X22500Y30680D01*
Y30480D01*
X22400Y30380D01*
X22100D01*
X22300D02*
X22500Y30180D01*
X23000D02*
Y30780D01*
X22700Y30480D01*
X23100D01*
X23300Y30680D02*
X23400Y30780D01*
X23600D01*
X23699Y30680D01*
Y30580D01*
X23600Y30480D01*
X23699Y30380D01*
Y30280D01*
X23600Y30180D01*
X23400D01*
X23300Y30280D01*
Y30380D01*
X23400Y30480D01*
X23300Y30580D01*
Y30680D01*
X23400Y30480D02*
X23600D01*
X32950Y31550D02*
X32350D01*
Y31850D01*
X32450Y31950D01*
X32650D01*
X32750Y31850D01*
Y31550D01*
Y31750D02*
X32950Y31950D01*
Y32450D02*
X32350D01*
X32650Y32150D01*
Y32550D01*
X32850Y32750D02*
X32950Y32850D01*
Y33050D01*
X32850Y33149D01*
X32450D01*
X32350Y33050D01*
Y32850D01*
X32450Y32750D01*
X32550D01*
X32650Y32850D01*
Y33149D01*
X12700Y32300D02*
Y32900D01*
X13000D01*
X13100Y32800D01*
Y32600D01*
X13000Y32500D01*
X12700D01*
X12900D02*
X13100Y32300D01*
X13700Y32900D02*
X13300D01*
Y32600D01*
X13500Y32700D01*
X13600D01*
X13700Y32600D01*
Y32400D01*
X13600Y32300D01*
X13400D01*
X13300Y32400D01*
X13900Y32800D02*
X14000Y32900D01*
X14200D01*
X14299Y32800D01*
Y32400D01*
X14200Y32300D01*
X14000D01*
X13900Y32400D01*
Y32800D01*
X10650Y32650D02*
X10050D01*
Y32950D01*
X10150Y33050D01*
X10350D01*
X10450Y32950D01*
Y32650D01*
Y32850D02*
X10650Y33050D01*
X10050Y33650D02*
Y33250D01*
X10350D01*
X10250Y33450D01*
Y33550D01*
X10350Y33650D01*
X10550D01*
X10650Y33550D01*
Y33350D01*
X10550Y33250D01*
X10650Y33850D02*
Y34050D01*
Y33950D01*
X10050D01*
X10150Y33850D01*
X15750Y26800D02*
X15150D01*
Y27100D01*
X15250Y27200D01*
X15450D01*
X15550Y27100D01*
Y26800D01*
Y27000D02*
X15750Y27200D01*
X15150Y27800D02*
Y27400D01*
X15450D01*
X15350Y27600D01*
Y27700D01*
X15450Y27800D01*
X15650D01*
X15750Y27700D01*
Y27500D01*
X15650Y27400D01*
X15750Y28399D02*
Y28000D01*
X15350Y28399D01*
X15250D01*
X15150Y28300D01*
Y28100D01*
X15250Y28000D01*
X14850Y26850D02*
X14250D01*
Y27150D01*
X14350Y27250D01*
X14550D01*
X14650Y27150D01*
Y26850D01*
Y27050D02*
X14850Y27250D01*
X14250Y27850D02*
Y27450D01*
X14550D01*
X14450Y27650D01*
Y27750D01*
X14550Y27850D01*
X14750D01*
X14850Y27750D01*
Y27550D01*
X14750Y27450D01*
X14350Y28050D02*
X14250Y28150D01*
Y28350D01*
X14350Y28449D01*
X14450D01*
X14550Y28350D01*
Y28250D01*
Y28350D01*
X14650Y28449D01*
X14750D01*
X14850Y28350D01*
Y28150D01*
X14750Y28050D01*
X53490Y33700D02*
X53890D01*
X53690D01*
Y33100D01*
X54090D02*
X54290D01*
X54190D01*
Y33700D01*
X54090Y33600D01*
X25695Y54435D02*
X26095D01*
X25895D01*
Y53835D01*
X26695D02*
X26295D01*
X26695Y54235D01*
Y54335D01*
X26595Y54435D01*
X26395D01*
X26295Y54335D01*
X18700Y52150D02*
X19100D01*
X18900D01*
Y51550D01*
X19300Y52050D02*
X19400Y52150D01*
X19600D01*
X19700Y52050D01*
Y51950D01*
X19600Y51850D01*
X19500D01*
X19600D01*
X19700Y51750D01*
Y51650D01*
X19600Y51550D01*
X19400D01*
X19300Y51650D01*
X26650Y26400D02*
X27050D01*
X26850D01*
Y25800D01*
X27550D02*
Y26400D01*
X27250Y26100D01*
X27650D01*
X26550Y30650D02*
X26950D01*
X26750D01*
Y30050D01*
X27550Y30650D02*
X27350Y30550D01*
X27150Y30350D01*
Y30150D01*
X27250Y30050D01*
X27450D01*
X27550Y30150D01*
Y30250D01*
X27450Y30350D01*
X27150D01*
X54900Y39450D02*
Y38950D01*
X55000Y38850D01*
X55200D01*
X55300Y38950D01*
Y39450D01*
X55900Y38850D02*
X55500D01*
X55900Y39250D01*
Y39350D01*
X55800Y39450D01*
X55600D01*
X55500Y39350D01*
X30200Y40500D02*
X30700D01*
X30800Y40600D01*
Y40800D01*
X30700Y40900D01*
X30200D01*
X30300Y41100D02*
X30200Y41200D01*
Y41400D01*
X30300Y41500D01*
X30400D01*
X30500Y41400D01*
Y41300D01*
Y41400D01*
X30600Y41500D01*
X30700D01*
X30800Y41400D01*
Y41200D01*
X30700Y41100D01*
X42720Y23170D02*
Y22670D01*
X42820Y22570D01*
X43020D01*
X43120Y22670D01*
Y23170D01*
X43620Y22570D02*
Y23170D01*
X43320Y22870D01*
X43720D01*
X20030Y43650D02*
Y43150D01*
X20130Y43050D01*
X20330D01*
X20430Y43150D01*
Y43650D01*
X21030D02*
X20630D01*
Y43350D01*
X20830Y43450D01*
X20930D01*
X21030Y43350D01*
Y43150D01*
X20930Y43050D01*
X20730D01*
X20630Y43150D01*
X16100Y37050D02*
Y36550D01*
X16200Y36450D01*
X16400D01*
X16500Y36550D01*
Y37050D01*
X17100D02*
X16900Y36950D01*
X16700Y36750D01*
Y36550D01*
X16800Y36450D01*
X17000D01*
X17100Y36550D01*
Y36650D01*
X17000Y36750D01*
X16700D01*
X17750Y28050D02*
Y27550D01*
X17850Y27450D01*
X18050D01*
X18150Y27550D01*
Y28050D01*
X18350Y27550D02*
X18450Y27450D01*
X18650D01*
X18750Y27550D01*
Y27950D01*
X18650Y28050D01*
X18450D01*
X18350Y27950D01*
Y27850D01*
X18450Y27750D01*
X18750D01*
X40200Y32760D02*
Y32660D01*
X40400Y32460D01*
X40600Y32660D01*
Y32760D01*
X40400Y32460D02*
Y32160D01*
X40800D02*
X41000D01*
X40900D01*
Y32760D01*
X40800Y32660D01*
X48150Y50350D02*
Y49750D01*
X48550D01*
X49150Y50250D02*
X49050Y50350D01*
X48850D01*
X48750Y50250D01*
Y49850D01*
X48850Y49750D01*
X49050D01*
X49150Y49850D01*
X49350Y50350D02*
Y49750D01*
X49650D01*
X49749Y49850D01*
Y50250D01*
X49650Y50350D01*
X49350D01*
D62*
X18800Y41976D02*
D03*
X57750Y23376D02*
D03*
M02*
