%FSLAX24Y24*%
%MOIN*%
G70*
G01*
G75*
G04 Layer_Physical_Order=2*
G04 Layer_Color=16711680*
%ADD10R,0.0551X0.0374*%
%ADD11C,0.0197*%
%ADD12C,0.0394*%
G04:AMPARAMS|DCode=13|XSize=59.1mil|YSize=59.1mil|CornerRadius=0mil|HoleSize=0mil|Usage=FLASHONLY|Rotation=0.000|XOffset=0mil|YOffset=0mil|HoleType=Round|Shape=Octagon|*
%AMOCTAGOND13*
4,1,8,0.0295,-0.0148,0.0295,0.0148,0.0148,0.0295,-0.0148,0.0295,-0.0295,0.0148,-0.0295,-0.0148,-0.0148,-0.0295,0.0148,-0.0295,0.0295,-0.0148,0.0*
%
%ADD13OCTAGOND13*%

%ADD14C,0.0591*%
%ADD15C,0.0787*%
G04:AMPARAMS|DCode=16|XSize=78.7mil|YSize=78.7mil|CornerRadius=0mil|HoleSize=0mil|Usage=FLASHONLY|Rotation=180.000|XOffset=0mil|YOffset=0mil|HoleType=Round|Shape=Octagon|*
%AMOCTAGOND16*
4,1,8,-0.0394,0.0197,-0.0394,-0.0197,-0.0197,-0.0394,0.0197,-0.0394,0.0394,-0.0197,0.0394,0.0197,0.0197,0.0394,-0.0197,0.0394,-0.0394,0.0197,0.0*
%
%ADD16OCTAGOND16*%

D13*
X16250Y16142D02*
D03*
X22150Y16150D02*
D03*
X28050Y16142D02*
D03*
D14*
X15250D02*
D03*
X21150Y16150D02*
D03*
X27050Y16142D02*
D03*
D15*
X15200Y20300D02*
D03*
X16200D02*
D03*
X27050D02*
D03*
X28050D02*
D03*
X21150D02*
D03*
X22150D02*
D03*
X31600Y17650D02*
D03*
Y16650D02*
D03*
Y15650D02*
D03*
Y14650D02*
D03*
X16400Y13200D02*
D03*
X23154Y11950D02*
D03*
X28250Y13200D02*
D03*
D16*
X13400Y13200D02*
D03*
X20154Y11950D02*
D03*
X25250Y13200D02*
D03*
M02*
