%FSLAX24Y24*%
%MOIN*%
G70*
G01*
G75*
G04 Layer_Color=32896*
%ADD10R,0.0551X0.0374*%
%ADD11C,0.0197*%
%ADD12C,0.0394*%
G04:AMPARAMS|DCode=13|XSize=59.1mil|YSize=59.1mil|CornerRadius=0mil|HoleSize=0mil|Usage=FLASHONLY|Rotation=0.000|XOffset=0mil|YOffset=0mil|HoleType=Round|Shape=Octagon|*
%AMOCTAGOND13*
4,1,8,0.0295,-0.0148,0.0295,0.0148,0.0148,0.0295,-0.0148,0.0295,-0.0295,0.0148,-0.0295,-0.0148,-0.0148,-0.0295,0.0148,-0.0295,0.0295,-0.0148,0.0*
%
%ADD13OCTAGOND13*%

%ADD14C,0.0591*%
%ADD15C,0.0787*%
G04:AMPARAMS|DCode=16|XSize=78.7mil|YSize=78.7mil|CornerRadius=0mil|HoleSize=0mil|Usage=FLASHONLY|Rotation=180.000|XOffset=0mil|YOffset=0mil|HoleType=Round|Shape=Octagon|*
%AMOCTAGOND16*
4,1,8,-0.0394,0.0197,-0.0394,-0.0197,-0.0197,-0.0394,0.0197,-0.0394,0.0394,-0.0197,0.0394,0.0197,0.0197,0.0394,-0.0197,0.0394,-0.0394,0.0197,0.0*
%
%ADD16OCTAGOND16*%

%ADD17C,0.0079*%
%ADD18C,0.0100*%
%ADD19R,0.0632X0.0454*%
G04:AMPARAMS|DCode=20|XSize=67.1mil|YSize=67.1mil|CornerRadius=0mil|HoleSize=0mil|Usage=FLASHONLY|Rotation=0.000|XOffset=0mil|YOffset=0mil|HoleType=Round|Shape=Octagon|*
%AMOCTAGOND20*
4,1,8,0.0335,-0.0168,0.0335,0.0168,0.0168,0.0335,-0.0168,0.0335,-0.0335,0.0168,-0.0335,-0.0168,-0.0168,-0.0335,0.0168,-0.0335,0.0335,-0.0168,0.0*
%
%ADD20OCTAGOND20*%

%ADD21C,0.0671*%
%ADD22C,0.0868*%
G04:AMPARAMS|DCode=23|XSize=86.8mil|YSize=86.8mil|CornerRadius=0mil|HoleSize=0mil|Usage=FLASHONLY|Rotation=180.000|XOffset=0mil|YOffset=0mil|HoleType=Round|Shape=Octagon|*
%AMOCTAGOND23*
4,1,8,-0.0434,0.0217,-0.0434,-0.0217,-0.0217,-0.0434,0.0217,-0.0434,0.0434,-0.0217,0.0434,0.0217,0.0217,0.0434,-0.0217,0.0434,-0.0434,0.0217,0.0*
%
%ADD23OCTAGOND23*%

%ADD24C,0.0039*%
%ADD25C,0.0050*%
%ADD26C,0.0049*%
D18*
X27000Y18600D02*
X27100Y18700D01*
X27300D01*
X27400Y18600D01*
Y18500D01*
X27300Y18400D01*
X27100D01*
X27000Y18300D01*
Y18200D01*
X27100Y18100D01*
X27300D01*
X27400Y18200D01*
X26800Y17900D02*
Y18500D01*
X26500D01*
X26400Y18400D01*
Y18200D01*
X26500Y18100D01*
X26800D01*
X26200D02*
X26000D01*
X26100D01*
Y18500D01*
X26200D01*
X25701D02*
Y18100D01*
Y18300D01*
X25601Y18400D01*
X25501Y18500D01*
X25401D01*
X25001Y18600D02*
Y18500D01*
X25101D01*
X24901D01*
X25001D01*
Y18200D01*
X24901Y18100D01*
X23601Y18500D02*
X23901D01*
X24001Y18400D01*
Y18200D01*
X23901Y18100D01*
X23601D01*
X23301D02*
X23101D01*
X23001Y18200D01*
Y18400D01*
X23101Y18500D01*
X23301D01*
X23401Y18400D01*
Y18200D01*
X23301Y18100D01*
X22801D02*
Y18500D01*
X22502D01*
X22402Y18400D01*
Y18100D01*
X22102Y18600D02*
Y18500D01*
X22202D01*
X22002D01*
X22102D01*
Y18200D01*
X22002Y18100D01*
X21702Y18500D02*
Y18100D01*
Y18300D01*
X21602Y18400D01*
X21502Y18500D01*
X21402D01*
X21002Y18100D02*
X20802D01*
X20702Y18200D01*
Y18400D01*
X20802Y18500D01*
X21002D01*
X21102Y18400D01*
Y18200D01*
X21002Y18100D01*
X20502D02*
X20302D01*
X20402D01*
Y18700D01*
X20502D01*
X20002Y18100D02*
X19802D01*
X19902D01*
Y18700D01*
X20002D01*
X19203Y18100D02*
X19403D01*
X19503Y18200D01*
Y18400D01*
X19403Y18500D01*
X19203D01*
X19103Y18400D01*
Y18300D01*
X19503D01*
X18903Y18500D02*
Y18100D01*
Y18300D01*
X18803Y18400D01*
X18703Y18500D01*
X18603D01*
X17703D02*
X17503Y18100D01*
X17303Y18500D01*
X16104Y18100D02*
X16504D01*
X16104Y18500D01*
Y18600D01*
X16204Y18700D01*
X16404D01*
X16504Y18600D01*
X15904Y18100D02*
Y18200D01*
X15804D01*
Y18100D01*
X15904D01*
X15404Y18600D02*
X15304Y18700D01*
X15104D01*
X15004Y18600D01*
Y18200D01*
X15104Y18100D01*
X15304D01*
X15404Y18200D01*
Y18600D01*
X19800Y11300D02*
Y10900D01*
X19600Y10700D01*
X19400Y10900D01*
Y11300D01*
X19100Y11100D02*
X18900D01*
X18800Y11000D01*
Y10700D01*
X19100D01*
X19200Y10800D01*
X19100Y10900D01*
X18800D01*
X18600Y10700D02*
X18400D01*
X18500D01*
Y11300D01*
X18600D01*
X18101Y11100D02*
X17901Y10700D01*
X17701Y11100D01*
X17201Y10700D02*
X17401D01*
X17501Y10800D01*
Y11000D01*
X17401Y11100D01*
X17201D01*
X17101Y11000D01*
Y10900D01*
X17501D01*
X15901Y11300D02*
Y10700D01*
X16201D01*
X16301Y10800D01*
Y11000D01*
X16201Y11100D01*
X15901D01*
X15701Y10700D02*
X15501D01*
X15601D01*
Y11100D01*
X15701D01*
X15201Y10700D02*
X14902D01*
X14802Y10800D01*
X14902Y10900D01*
X15102D01*
X15201Y11000D01*
X15102Y11100D01*
X14802D01*
X14502Y11200D02*
Y11100D01*
X14602D01*
X14402D01*
X14502D01*
Y10800D01*
X14402Y10700D01*
X14102Y11100D02*
Y10700D01*
Y10900D01*
X14002Y11000D01*
X13902Y11100D01*
X13802D01*
X13502Y10700D02*
X13302D01*
X13402D01*
Y11100D01*
X13502D01*
X13002Y11300D02*
Y10700D01*
X12702D01*
X12602Y10800D01*
Y10900D01*
Y11000D01*
X12702Y11100D01*
X13002D01*
X12402D02*
Y10800D01*
X12302Y10700D01*
X12003D01*
Y11100D01*
X11703Y11200D02*
Y11100D01*
X11803D01*
X11603D01*
X11703D01*
Y10800D01*
X11603Y10700D01*
X11203D02*
X11003D01*
X10903Y10800D01*
Y11000D01*
X11003Y11100D01*
X11203D01*
X11303Y11000D01*
Y10800D01*
X11203Y10700D01*
X10703Y11100D02*
Y10700D01*
Y10900D01*
X10603Y11000D01*
X10503Y11100D01*
X10403D01*
X32300Y11350D02*
Y11950D01*
X31900Y11350D01*
Y11950D01*
X31700Y11350D02*
X31500D01*
X31600D01*
Y11750D01*
X31700D01*
X31200Y11350D02*
Y11950D01*
Y11550D02*
X30900Y11750D01*
X31200Y11550D02*
X30900Y11350D01*
X30501D02*
X30301D01*
X30201Y11450D01*
Y11650D01*
X30301Y11750D01*
X30501D01*
X30601Y11650D01*
Y11450D01*
X30501Y11350D01*
X30001Y11150D02*
Y11750D01*
X29701D01*
X29601Y11650D01*
Y11450D01*
X29701Y11350D01*
X30001D01*
X29301D02*
X29101D01*
X29001Y11450D01*
Y11650D01*
X29101Y11750D01*
X29301D01*
X29401Y11650D01*
Y11450D01*
X29301Y11350D01*
X28801D02*
X28601D01*
X28701D01*
Y11950D01*
X28801D01*
X27502Y11350D02*
X27701Y11550D01*
Y11750D01*
X27502Y11950D01*
X26802Y11850D02*
X26902Y11950D01*
X27102D01*
X27202Y11850D01*
Y11450D01*
X27102Y11350D01*
X26902D01*
X26802Y11450D01*
X26602Y11350D02*
X26402Y11550D01*
Y11750D01*
X26602Y11950D01*
X16730Y14640D02*
Y14040D01*
X16430D01*
X16330Y14140D01*
Y14540D01*
X16430Y14640D01*
X16730D01*
X16130Y14040D02*
X15930D01*
X16030D01*
Y14640D01*
X16130Y14540D01*
X23484Y13390D02*
Y12790D01*
X23184D01*
X23084Y12890D01*
Y13290D01*
X23184Y13390D01*
X23484D01*
X22484Y12790D02*
X22884D01*
X22484Y13190D01*
Y13290D01*
X22584Y13390D01*
X22784D01*
X22884Y13290D01*
X28580Y14640D02*
Y14040D01*
X28280D01*
X28180Y14140D01*
Y14540D01*
X28280Y14640D01*
X28580D01*
X27980Y14540D02*
X27880Y14640D01*
X27680D01*
X27580Y14540D01*
Y14440D01*
X27680Y14340D01*
X27780D01*
X27680D01*
X27580Y14240D01*
Y14140D01*
X27680Y14040D01*
X27880D01*
X27980Y14140D01*
X32020Y19080D02*
Y18480D01*
Y18780D01*
X31620D01*
Y19080D01*
Y18480D01*
X31420D02*
X31220D01*
X31320D01*
Y19080D01*
X31420Y18980D01*
X28480Y21720D02*
Y21120D01*
Y21420D01*
X28080D01*
Y21720D01*
Y21120D01*
X27580D02*
Y21720D01*
X27880Y21420D01*
X27480D01*
X22580Y21730D02*
Y21130D01*
Y21430D01*
X22180D01*
Y21730D01*
Y21130D01*
X21980Y21630D02*
X21880Y21730D01*
X21680D01*
X21580Y21630D01*
Y21530D01*
X21680Y21430D01*
X21780D01*
X21680D01*
X21580Y21330D01*
Y21230D01*
X21680Y21130D01*
X21880D01*
X21980Y21230D01*
X16620Y21720D02*
Y21120D01*
Y21420D01*
X16220D01*
Y21720D01*
Y21120D01*
X15620D02*
X16020D01*
X15620Y21520D01*
Y21620D01*
X15720Y21720D01*
X15920D01*
X16020Y21620D01*
X14100Y16500D02*
Y15900D01*
X13700D01*
X13500Y16500D02*
Y15900D01*
X13200D01*
X13100Y16000D01*
Y16400D01*
X13200Y16500D01*
X13500D01*
X12900Y15900D02*
X12700D01*
X12800D01*
Y16500D01*
X12900Y16400D01*
X20150Y16450D02*
Y15850D01*
X19750D01*
X19550Y16450D02*
Y15850D01*
X19250D01*
X19150Y15950D01*
Y16350D01*
X19250Y16450D01*
X19550D01*
X18551Y15850D02*
X18950D01*
X18551Y16250D01*
Y16350D01*
X18650Y16450D01*
X18850D01*
X18950Y16350D01*
X25950Y16500D02*
Y15900D01*
X25550D01*
X25350Y16500D02*
Y15900D01*
X25050D01*
X24950Y16000D01*
Y16400D01*
X25050Y16500D01*
X25350D01*
X24750Y16400D02*
X24650Y16500D01*
X24450D01*
X24351Y16400D01*
Y16300D01*
X24450Y16200D01*
X24550D01*
X24450D01*
X24351Y16100D01*
Y16000D01*
X24450Y15900D01*
X24650D01*
X24750Y16000D01*
D24*
X16561Y16902D02*
G03*
X16561Y15381I-811J-761D01*
G01*
X22461Y16911D02*
G03*
X22461Y15389I-811J-761D01*
G01*
X28361Y16902D02*
G03*
X28361Y15381I-811J-761D01*
G01*
X16561Y15381D02*
Y16902D01*
X22461Y15389D02*
Y16911D01*
X28361Y15381D02*
Y16902D01*
D25*
X14700Y19800D02*
X16700D01*
Y20800D01*
X14700D02*
X16700D01*
X14700Y19800D02*
Y20800D01*
X26550Y19800D02*
X28550D01*
Y20800D01*
X26550D02*
X28550D01*
X26550Y19800D02*
Y20800D01*
X20650Y19800D02*
X22650D01*
Y20800D01*
X20650D02*
X22650D01*
X20650Y19800D02*
Y20800D01*
X31100Y18150D02*
X32100D01*
X31100Y14150D02*
Y18150D01*
X32100Y14150D02*
Y18150D01*
X31100Y14150D02*
X32100D01*
D26*
X13900Y13700D02*
X15900D01*
X13750Y13200D02*
X13900D01*
X15900D02*
X16050D01*
X14300Y12700D02*
Y13700D01*
X13900Y12700D02*
Y13700D01*
Y12700D02*
X15900D01*
Y13700D01*
X20654Y12450D02*
X22654D01*
X20504Y11950D02*
X20654D01*
X22654D02*
X22804D01*
X21054Y11450D02*
Y12450D01*
X20654Y11450D02*
Y12450D01*
Y11450D02*
X22654D01*
Y12450D01*
X25750Y13700D02*
X27750D01*
X25600Y13200D02*
X25750D01*
X27750D02*
X27900D01*
X26150Y12700D02*
Y13700D01*
X25750Y12700D02*
Y13700D01*
Y12700D02*
X27750D01*
Y13700D01*
M02*
