%FSLAX24Y24*%
%MOIN*%
G70*
G01*
G75*
G04 Layer_Physical_Order=1*
G04 Layer_Color=255*
%ADD10R,0.0551X0.0374*%
%ADD11C,0.0197*%
%ADD12C,0.0394*%
G04:AMPARAMS|DCode=13|XSize=59.1mil|YSize=59.1mil|CornerRadius=0mil|HoleSize=0mil|Usage=FLASHONLY|Rotation=0.000|XOffset=0mil|YOffset=0mil|HoleType=Round|Shape=Octagon|*
%AMOCTAGOND13*
4,1,8,0.0295,-0.0148,0.0295,0.0148,0.0148,0.0295,-0.0148,0.0295,-0.0295,0.0148,-0.0295,-0.0148,-0.0148,-0.0295,0.0148,-0.0295,0.0295,-0.0148,0.0*
%
%ADD13OCTAGOND13*%

%ADD14C,0.0591*%
%ADD15C,0.0787*%
G04:AMPARAMS|DCode=16|XSize=78.7mil|YSize=78.7mil|CornerRadius=0mil|HoleSize=0mil|Usage=FLASHONLY|Rotation=180.000|XOffset=0mil|YOffset=0mil|HoleType=Round|Shape=Octagon|*
%AMOCTAGOND16*
4,1,8,-0.0394,0.0197,-0.0394,-0.0197,-0.0197,-0.0394,0.0197,-0.0394,0.0394,-0.0197,0.0394,0.0197,0.0197,0.0394,-0.0197,0.0394,-0.0394,0.0197,0.0*
%
%ADD16OCTAGOND16*%

D10*
X21150Y18694D02*
D03*
Y17906D02*
D03*
X15250Y18744D02*
D03*
Y17956D02*
D03*
X27050Y18694D02*
D03*
Y17906D02*
D03*
D11*
X15250Y16142D02*
Y17956D01*
X21150Y16150D02*
Y17856D01*
X15250Y18744D02*
Y20250D01*
X21150Y18694D02*
Y20300D01*
X27050Y18694D02*
Y20300D01*
X21100Y18744D02*
X21150Y18694D01*
X27050Y16142D02*
Y17906D01*
D12*
X13400Y11700D02*
Y13200D01*
X15200Y20300D02*
Y21100D01*
X15850Y21750D01*
X21150Y20300D02*
Y21700D01*
X20154Y10704D02*
Y11950D01*
X25250Y10700D02*
Y13200D01*
X16200Y14750D02*
X16400Y14550D01*
Y13200D02*
Y14550D01*
X16200Y14750D02*
Y20300D01*
X22150Y14400D02*
X23154Y13396D01*
Y11950D02*
Y13396D01*
X22150Y14400D02*
Y16150D01*
Y20300D01*
X28050Y16142D02*
X28250Y15942D01*
Y13200D02*
Y15942D01*
X32825Y13075D02*
Y17175D01*
X32350Y17650D02*
X32825Y17175D01*
X31600Y17650D02*
X32350D01*
X30300Y16650D02*
X31600D01*
X29500Y17450D02*
X30300Y16650D01*
X28050Y17450D02*
X29500D01*
X28050Y16142D02*
Y17450D01*
Y20300D01*
X16400Y13200D02*
X21050D01*
X21700Y12550D01*
Y11700D02*
Y12550D01*
Y11700D02*
X22250Y11150D01*
X23600D01*
X24200Y11750D01*
X31600Y13300D02*
Y14650D01*
X27000Y11600D02*
X29900D01*
X31600Y13300D01*
X26650Y11950D02*
X27000Y11600D01*
X22150Y16150D02*
X25550D01*
X27350Y14350D01*
Y12750D02*
Y14350D01*
Y12750D02*
X27750Y12350D01*
X29300D01*
X30100Y13150D01*
Y15200D01*
X30550Y15650D01*
X31600D01*
X26150Y14300D02*
X26650Y13800D01*
Y11950D02*
Y13800D01*
X24200Y11750D02*
Y13800D01*
X24700Y14300D01*
X26150D01*
X13400Y11700D02*
X14600Y10500D01*
X30250D01*
X32825Y13075D01*
X15850Y21750D02*
X27050D01*
Y20300D02*
Y21750D01*
X30800D01*
X31600Y20950D01*
Y17650D02*
Y20950D01*
D13*
X16250Y16142D02*
D03*
X22150Y16150D02*
D03*
X28050Y16142D02*
D03*
D14*
X15250D02*
D03*
X21150Y16150D02*
D03*
X27050Y16142D02*
D03*
D15*
X15200Y20300D02*
D03*
X16200D02*
D03*
X27050D02*
D03*
X28050D02*
D03*
X21150D02*
D03*
X22150D02*
D03*
X31600Y17650D02*
D03*
Y16650D02*
D03*
Y15650D02*
D03*
Y14650D02*
D03*
X16400Y13200D02*
D03*
X23154Y11950D02*
D03*
X28250Y13200D02*
D03*
D16*
X13400Y13200D02*
D03*
X20154Y11950D02*
D03*
X25250Y13200D02*
D03*
M02*
