M48
;Layer_Color=9474304
;FILE_FORMAT=2:4
INCH,LZ
;TYPE=PLATED
T1F00S00C0.0315
T2F00S00C0.0354
T3F00S00C0.0394
%
T01
X01625Y016142
X02115Y01615
X02215
X02705Y016142
X02805
X01525
T02
X0162Y0203
X02115
X02215
X02705
X02805
X0152
T03
X0134Y0132
X0164
X020154Y01195
X023154
X02525Y0132
X02825
X0316Y01465
Y01565
Y01665
Y01765
M30
