%FSLAX24Y24*%
%MOIN*%
G70*
G01*
G75*
G04 Layer_Color=8388736*
%ADD10R,0.0551X0.0374*%
%ADD11C,0.0197*%
%ADD12C,0.0394*%
G04:AMPARAMS|DCode=13|XSize=59.1mil|YSize=59.1mil|CornerRadius=0mil|HoleSize=0mil|Usage=FLASHONLY|Rotation=0.000|XOffset=0mil|YOffset=0mil|HoleType=Round|Shape=Octagon|*
%AMOCTAGOND13*
4,1,8,0.0295,-0.0148,0.0295,0.0148,0.0148,0.0295,-0.0148,0.0295,-0.0295,0.0148,-0.0295,-0.0148,-0.0148,-0.0295,0.0148,-0.0295,0.0295,-0.0148,0.0*
%
%ADD13OCTAGOND13*%

%ADD14C,0.0591*%
%ADD15C,0.0787*%
G04:AMPARAMS|DCode=16|XSize=78.7mil|YSize=78.7mil|CornerRadius=0mil|HoleSize=0mil|Usage=FLASHONLY|Rotation=180.000|XOffset=0mil|YOffset=0mil|HoleType=Round|Shape=Octagon|*
%AMOCTAGOND16*
4,1,8,-0.0394,0.0197,-0.0394,-0.0197,-0.0197,-0.0394,0.0197,-0.0394,0.0394,-0.0197,0.0394,0.0197,0.0197,0.0394,-0.0197,0.0394,-0.0394,0.0197,0.0*
%
%ADD16OCTAGOND16*%

%ADD17C,0.0079*%
%ADD18C,0.0100*%
%ADD19R,0.0632X0.0454*%
G04:AMPARAMS|DCode=20|XSize=67.1mil|YSize=67.1mil|CornerRadius=0mil|HoleSize=0mil|Usage=FLASHONLY|Rotation=0.000|XOffset=0mil|YOffset=0mil|HoleType=Round|Shape=Octagon|*
%AMOCTAGOND20*
4,1,8,0.0335,-0.0168,0.0335,0.0168,0.0168,0.0335,-0.0168,0.0335,-0.0335,0.0168,-0.0335,-0.0168,-0.0168,-0.0335,0.0168,-0.0335,0.0335,-0.0168,0.0*
%
%ADD20OCTAGOND20*%

%ADD21C,0.0671*%
%ADD22C,0.0868*%
G04:AMPARAMS|DCode=23|XSize=86.8mil|YSize=86.8mil|CornerRadius=0mil|HoleSize=0mil|Usage=FLASHONLY|Rotation=180.000|XOffset=0mil|YOffset=0mil|HoleType=Round|Shape=Octagon|*
%AMOCTAGOND23*
4,1,8,-0.0434,0.0217,-0.0434,-0.0217,-0.0217,-0.0434,0.0217,-0.0434,0.0434,-0.0217,0.0434,0.0217,0.0217,0.0434,-0.0217,0.0434,-0.0434,0.0217,0.0*
%
%ADD23OCTAGOND23*%

D19*
X21150Y18694D02*
D03*
Y17906D02*
D03*
X15250Y18744D02*
D03*
Y17956D02*
D03*
X27050Y18694D02*
D03*
Y17906D02*
D03*
D20*
X16250Y16142D02*
D03*
X22150Y16150D02*
D03*
X28050Y16142D02*
D03*
D21*
X15250D02*
D03*
X21150Y16150D02*
D03*
X27050Y16142D02*
D03*
D22*
X15200Y20300D02*
D03*
X16200D02*
D03*
X27050D02*
D03*
X28050D02*
D03*
X21150D02*
D03*
X22150D02*
D03*
X31600Y17650D02*
D03*
Y16650D02*
D03*
Y15650D02*
D03*
Y14650D02*
D03*
X16400Y13200D02*
D03*
X23154Y11950D02*
D03*
X28250Y13200D02*
D03*
D23*
X13400Y13200D02*
D03*
X20154Y11950D02*
D03*
X25250Y13200D02*
D03*
M02*
